<?xml version="1.0" encoding="utf-8"?>
<!-- Generator: Adobe Illustrator 22.0.1, SVG Export Plug-In . SVG Version: 6.00 Build 0)  -->
<svg version="1.1" id="Layer_1" xmlns="http://www.w3.org/2000/svg" xmlns:xlink="http://www.w3.org/1999/xlink" x="0px" y="0px"
	 viewBox="0 0 200 200" style="enable-background:new 0 0 200 200;" xml:space="preserve">
<style type="text/css">
	.st0{fill:#102E46;}
	.st1{fill:#4169EA;}
</style>
<g>
	<path class="st0" d="M137.8,109.5c0,16.8,0,33.4,0,50.2c-23.1,0-46.1,0-69.3,0c0-4.2,0-8.4,0-12.7c-4.4-0.8-8.2-2.5-11.5-5.4
		c-4.7-4.3-7.3-9.6-7.4-15.9c-0.1-6.3-0.1-12.6,0-18.9c0.1-11.6,7.9-20.5,19.4-22.2c6.1-0.9,12.1-2,18.3-3c0.4-2.3,0.4-4.1-2-5.5
		c-3.5-2.1-6-5.4-7.8-9.2c-0.5-1.2-1.1-1.6-2.5-1.6c-10.1-0.1-15.8-10.2-11-19.1c0.5-0.8,0.3-2.3,0-3.3c-3.2-9.6-2.3-18.8,3.4-27.2
		C73.3,7,81.6,2.5,92.1,2.4c6.5-0.1,13-0.4,19.5,0.4C130,5,141.8,23.3,136.5,41.1c-0.7,2.4-0.9,4.4,0.3,7c3.6,7.8-2.4,16.9-11,17.1
		c-1.8,0.1-2.7,0.6-3.5,2.2c-1.6,3.5-4.2,6.3-7.3,8.6c-2.6,1.9-2.6,1.9-2.2,5.4c5.7,0.9,11.4,1.8,17,2.7c5.8,0.9,11.5,1.8,17.3,2.7
		c2.7,0.4,3.3,0,3.3-2.8c0-10.5,0-21-0.1-31.5c0-1-0.6-2-1.2-2.9c-0.7-1-1.7-1.7-2.5-2.5c-4.2-4.6-3.2-11.4,2.2-14.4
		c1.1-0.6,1.5-1.3,1.6-2.6c0.2-4.9,4.2-8.7,9.1-8.9c2.3-0.1,4.6-0.1,6.9,0c5.1,0.1,9.2,4.1,9.2,9.2c0.1,19.7,0.2,39.5-0.1,59.2
		c-0.2,13.2-12.6,23.4-25.7,21.5C145.9,110.6,142,110,137.8,109.5z M131.5,102.6c5.7,0.7,11.2,1,16.5,2c13.3,2.6,21.9-7,21.4-18.1
		c-0.5-10.5-0.1-21-0.1-31.5c0-0.7,0-1.4,0-2.2c-4.3,0-8.4,0-12.6,0c0,0.8,0,1.5,0,2.3c0,9.9,0,19.8,0,29.7c0,5.6-4.1,9.2-9.7,8.4
		c-4.5-0.6-9.1-1.4-13.6-2.1c-4.4-0.7-8.8-1.3-13.3-2c-1.9,9.1-3.9,18.1-5.9,27.5c-4.9-6.1-9.6-11.9-14.3-17.8
		c-4.8,6-9.4,11.7-14.3,17.8c-2-9.4-3.9-18.3-5.9-27.4c-3.9,0.7-7.6,1.2-11.3,1.9c-7.7,1.6-12.6,7.8-12.7,15.6
		c0,6.2-0.1,12.3,0,18.5c0.1,7.7,5.4,14.1,12.9,15.3c2.5,0.4,5.1,0.3,7.6,0.3c3.6,0,7.2,0,10.8,0c0-4.3,0-8.4,0-12.6
		c-3.9,0-7.6,0-11.3,0c-2,0-3.7,0.7-5.1,2.2c-1,1.1-1.9,2.3-2.9,3.5c-1.9-1.9-3.3-3.2-5-5c1.3-1.2,2.5-2.4,3.9-3.3
		c1.6-1,1.8-2.3,1.7-4c-0.1-3,0-6,0-8.9c2.2,0,4.2,0,6.3,0c0,3.1,0,6.2,0,9.3c3.3,0,6.4-0.2,9.4,0.1c3.5,0.3,6-0.7,8.4-3.3
		c4.6-4.9,11.5-3.8,15,1.9c0.4,0.6,1.3,1.2,2,1.3c5.4,0.4,9.2,4.3,9.2,9.6c0,1.8,0,3.5,0,5.3c0,6.4-3.9,10.3-10.3,10.3
		c-10.6,0-21.1,0-31.7,0c-0.7,0-1.4,0-2,0c0,2.3,0,4.2,0,6.2c18.9,0,37.7,0,56.6,0C131.5,136.6,131.5,120,131.5,102.6z M106.3,21.3
		c0,2.4-0.1,4.5,0,6.7c0.2,3.1,2.8,5.6,5.9,5.8c3.1,0.2,5.9-2,6.6-5.1c0.6-3-1.2-6.1-4.2-7.1c-0.6-0.2-1.2-0.3-1.9-0.5
		c0-2,0-4,0-6.1c6.7-0.1,12.3,5.4,12.5,12.2c0.1,4.2,0,8.5,0,12.7c1.7,0.3,3.2,0.6,4.7,0.9c5.6-13.3-3.7-29.8-18.2-31.8
		c-6.2-0.8-12.6-0.5-18.8-0.5c-12.6,0-22.6,8.9-24.2,21.4c-0.5,3.7,0,7.4,1.4,10.9c1.7-0.3,3.1-0.6,4.7-1c0.4-6.7,3.4-12,9.1-15.6
		c-0.8-1.7-1.6-3.2-2.4-4.8c2-1,3.7-1.8,5.7-2.8c2.4,5.9,5.8,10.5,12.9,10.8c0-2.1,0-4.1,0-6.2C102.2,21.3,104.1,21.3,106.3,21.3z
		 M118.5,38.6C118.6,38.7,118.6,38.6,118.5,38.6c-7.5,2.7-11.3,1.7-16.4-4.1c-0.4-0.4-1.1-0.7-1.7-0.7c-4.3-0.1-8.2-1.2-11.5-3.9
		c-0.9-0.7-1.6-0.6-2.4,0c-3.4,2.4-5.3,5.7-5.4,9.8c-0.1,5.6-0.2,11.3,0,16.9c0.3,9.5,8.1,17.4,17.6,18c9.6,0.6,18.6-6.1,19.7-15.5
		C119.1,52.5,118.5,45.5,118.5,38.6z M169.3,46.4c0-0.7,0-1.1,0-1.5c0-4.7,0-9.3,0-14c0-2.2-1.2-3.4-3.4-3.4c-1.9,0-3.8,0-5.7,0
		c-2.2,0.1-3.7,1.3-3.4,3.4c0.5,3.8-0.9,5.9-4.4,7.1c-0.8,0.3-1.6,1.7-1.8,2.7c-0.3,1.4,3.6,5.6,5.1,5.7
		C160,46.5,164.6,46.4,169.3,46.4z M93.7,140.9c5.4,0,10.6,0,15.7,0c1.9,0,3.1-1.3,3.1-3.3c0.1-2,0.1-3.9,0-5.9
		c-0.1-2.2-1.3-3.6-3.5-3.3c-3.7,0.5-5.8-0.8-7-4.3c-0.3-0.9-1.8-1.7-2.9-1.9c-1.5-0.3-5.5,3.6-5.5,5.1
		C93.7,131.7,93.7,136.2,93.7,140.9z M110.9,102.2c1-4.9,2-9.4,3.1-14.5c-1.6,0.2-3.2,0-4.1,0.6c-2.1,1.6-3.8,3.5-5.8,5.4
		C106.4,96.6,108.5,99.3,110.9,102.2z M86.1,88.4c1,4.5,1.9,9,3,13.8c2.4-3,4.5-5.6,6.7-8.4c-1.6-1.6-3.2-2.9-4.5-4.4
		C89.9,87.6,88.3,87.3,86.1,88.4z M99.9,89.4c1.9-1.9,3.4-3.6,5-5.1c1.3-1.1,1.7-2.4,1.3-3.6c-4.2,0-8.3,0-12.6,0
		c0.2,0.7,0.1,2,0.6,2.6C95.9,85.4,97.8,87.2,99.9,89.4z M74.8,46.5c-3.7,0.1-6.4,2.9-6.3,6.4c0.1,3.4,2.9,6,6.3,5.9
		C74.8,54.7,74.8,50.6,74.8,46.5z M125.2,58.9c3.5,0,6.3-2.7,6.3-6.1c0-3.5-2.7-6.2-6.3-6.2C125.2,50.7,125.2,54.8,125.2,58.9z"/>
	<path class="st1" d="M169.3,179.4c0,4.4,0,9,0,13.9c-9.7-4.8-19.2-9.6-29.1-14.5c9.8-4.9,19.3-9.7,29-14.5c0,2.9,0,5.5,0,8.4
		c2.1-0.8,4.1-1.3,5.9-2.2c4-2.1,8.2-4,11.8-6.6c6.1-4.5,5.9-9.6,0-14.4c-5.7-4.5-12.3-7.3-19.2-9.2c-7.3-2-14.8-3.5-22.2-5.2
		c-0.4-0.1-0.8-0.2-1.4-0.3c0.3-2,0.6-3.9,0.9-6.2c2.5,0.4,4.9,0.8,7.3,1.3c10.2,2,20.4,4.5,29.8,9.2c3.5,1.7,6.9,3.9,9.8,6.4
		c7.7,6.6,7.6,15.2,0.2,22.1c-5.7,5.3-12.8,8.1-20,10.7c-0.8,0.3-1.6,0.5-2.4,0.8C169.6,179.1,169.5,179.2,169.3,179.4z
		 M162.9,174.4c-2.9,1.5-5.6,2.8-8.6,4.3c3.1,1.5,5.8,2.9,8.6,4.3C162.9,180,162.9,177.4,162.9,174.4z"/>
	<path class="st1" d="M30.7,172.6c0-2.9,0-5.5,0-8.5c9.7,4.9,19.2,9.6,29.1,14.5c-9.8,4.9-19.3,9.7-29,14.5c0-4.8,0-9.3,0-13.9
		c-3-1.1-6-2.2-8.9-3.4c-4.9-2-9.5-4.4-13.5-7.9c-0.9-0.8-1.8-1.7-2.6-2.7c-4.6-5.5-4.6-11.9-0.1-17.4c3.1-3.8,7.2-6.4,11.6-8.6
		c7.9-4,16.4-6.4,25.3-8.5c0.5,2,0.9,3.9,1.4,6.1c-2.1,0.5-4.1,1-6.1,1.6c-8.1,2.3-16.1,4.8-23.1,9.7c-1.6,1.1-3.2,2.6-4.4,4.1
		c-2.3,2.8-2.2,5.5-0.2,8.5c0.3,0.4,0.5,0.8,0.9,1.1C16.4,167.4,23.5,169.9,30.7,172.6z M37.1,174.4c0,3,0,5.6,0,8.6
		c2.9-1.4,5.6-2.8,8.6-4.3C42.6,177.2,39.9,175.8,37.1,174.4z"/>
	<path class="st1" d="M109.3,175.5c-2.1,0-4.1,0-6,0c-1-2.5-2.4-3.5-4.1-3c-2,0.6-2.6,2.2-2.2,6.2c1.1,0,2.2,0,3.2,0
		c5.2,0.2,9.3,4.4,9.2,9.6c-0.1,5.1-4.3,9.2-9.3,9.3c-5.2,0.1-9.4-4-9.5-9.2c-0.1-4.4-0.1-8.8,0-13.2c0.1-5.1,4.4-9.1,9.5-9.1
		C105.1,166.1,109.2,170.2,109.3,175.5z M96.9,185c0,1.3-0.1,2.4,0,3.4c0.2,1.7,1.6,2.9,3.2,2.9c1.6,0,3-1.4,3.1-3
		c0.1-1.6-1.1-3.1-2.8-3.2C99.2,184.9,98.1,185,96.9,185z"/>
	<path class="st1" d="M115.7,181.8c0-2.1,0-4.2,0-6.3c0.1-5.2,4.3-9.4,9.4-9.4c5.2,0,9.3,4.1,9.4,9.3c0.1,4.3,0.1,8.5,0,12.8
		c-0.1,5.2-4.3,9.4-9.4,9.4c-5.1,0-9.3-4.1-9.4-9.3C115.7,186.1,115.7,183.9,115.7,181.8z M128.3,181.9c0-2,0-4.1,0-6.1
		c0-2-1.3-3.4-3.1-3.4c-1.8,0-3.2,1.3-3.2,3.5c0,4,0,8,0,12c0,2,1.3,3.4,3.1,3.4c1.8,0,3.2-1.3,3.2-3.5
		C128.4,185.9,128.3,183.9,128.3,181.9z"/>
	<path class="st1" d="M71.7,172.3c0-2.1,0-4,0-6c4.6-0.9,8.7,0.6,10.9,4c2.3,3.5,2.1,7.3-0.7,11.5c2.7,3.7,3.3,7.7,0.6,11.8
		c-2.6,3.7-6.4,4.4-10.7,3.9c0-2,0-3.9,0-6.2c1,0,2,0,3,0c1.9-0.1,3.2-1.4,3.2-3.1c0-1.7-1.2-3-3.1-3.2c-1-0.1-1.9,0-3.1,0
		c0-2.1,0-4.1,0-6.2c2.5-0.3,5.9,0.8,6.1-3.3C78,173.3,76.6,172.6,71.7,172.3z"/>
	<path class="st0" d="M112.7,49.7c-0.2,3.1,0,6.1-0.6,8.9c-1.2,6.2-7,10.3-13.3,9.8c-6.3-0.5-11.3-5.8-11.5-12.1
		c-0.1-2.2,0-4.3,0-6.6C95.8,49.7,104.1,49.7,112.7,49.7z M93.8,55.9c0.2,3.8,3.1,6.4,6.6,6.2c3.3-0.2,5.9-2.9,5.7-6.2
		C102,55.9,98,55.9,93.8,55.9z"/>
</g>
</svg>
