<?xml version="1.0" encoding="utf-8"?>
<!-- Generator: Adobe Illustrator 22.0.1, SVG Export Plug-In . SVG Version: 6.00 Build 0)  -->
<svg version="1.1" id="Layer_2_1_" xmlns="http://www.w3.org/2000/svg" xmlns:xlink="http://www.w3.org/1999/xlink" x="0px" y="0px"
	 viewBox="0 0 244.7 104" style="enable-background:new 0 0 244.7 104;" xml:space="preserve">
<style type="text/css">
	.st0{fill:#B5C5F9;}
	.st1{fill:#042D46;}
</style>
<rect x="57.8" y="37.2" class="st0" width="12.3" height="2.6"/>
<rect x="52.9" y="37.2" class="st0" width="2.5" height="2.6"/>
<rect x="47.9" y="37.2" class="st0" width="2.5" height="2.6"/>
<rect x="43" y="37.2" class="st0" width="2.5" height="2.6"/>
<rect x="38.1" y="37.2" class="st0" width="2.5" height="2.6"/>
<rect x="33.2" y="37.2" class="st0" width="2.5" height="2.6"/>
<rect x="41.8" y="50.1" class="st0" width="14.8" height="2.6"/>
<rect x="30.7" y="50.1" class="st0" width="8.6" height="2.6"/>
<rect x="25.8" y="50.1" class="st0" width="2.5" height="2.6"/>
<rect x="157.4" y="36" class="st0" width="9.8" height="2.6"/>
<rect x="169.7" y="36" class="st0" width="2.5" height="2.6"/>
<rect x="170.9" y="79.6" class="st0" width="12.3" height="2.6"/>
<rect x="185.7" y="79.6" class="st0" width="7.4" height="2.6"/>
<rect x="195.5" y="79.6" class="st0" width="2.5" height="2.6"/>
<rect x="22.1" y="77" class="st0" width="38.1" height="2.6"/>
<rect x="4.9" y="77" class="st0" width="14.8" height="2.6"/>
<rect y="77" class="st0" width="2.5" height="2.6"/>
<rect x="3.7" y="64.2" class="st0" width="35.7" height="2.6"/>
<rect x="22.7" y="58" class="st0" width="6" height="2"/>
<rect x="18.7" y="58" class="st0" width="2" height="2"/>
<rect x="173.4" y="43.7" class="st0" width="25.8" height="2.6"/>
<rect x="201.6" y="43.7" class="st0" width="13.5" height="2.6"/>
<rect x="217.6" y="43.7" class="st0" width="2.5" height="2.6"/>
<rect x="191.8" y="62.9" class="st0" width="28.3" height="2.6"/>
<rect x="222.5" y="62.9" class="st0" width="2.5" height="2.6"/>
<rect x="227.5" y="62.9" class="st0" width="2.5" height="2.6"/>
<rect x="232.4" y="62.9" class="st0" width="2.5" height="2.6"/>
<rect x="237.3" y="62.9" class="st0" width="2.5" height="2.6"/>
<polygon class="st0" points="114.6,16.2 113.6,15.2 114.6,14.1 115.6,15.2 "/>
<polygon class="st0" points="112.6,18.3 111.6,17.3 112.6,16.2 113.6,17.3 "/>
<polygon class="st0" points="114.6,18.3 113.6,17.3 114.6,16.2 115.6,17.3 "/>
<polygon class="st0" points="112.6,16.2 111.6,15.2 112.6,14.1 113.6,15.2 "/>
<ellipse class="st0" cx="101.2" cy="97.2" rx="2.8" ry="3"/>
<ellipse class="st0" cx="101.2" cy="97.2" rx="1.4" ry="1.5"/>
<rect x="82.4" y="20.5" class="st0" width="3.7" height="2.6"/>
<polygon class="st0" points="81.4,23.7 79.6,27 77.5,25.7 79.3,22.4 "/>
<polygon class="st0" points="79.6,28.2 81.4,31.5 79.3,32.8 77.5,29.5 "/>
<rect x="82.4" y="32.1" class="st0" width="3.7" height="2.6"/>
<polygon class="st0" points="87,31.5 88.9,28.2 91,29.5 89.2,32.8 "/>
<polygon class="st0" points="88.9,27 87,23.7 89.2,22.4 91,25.7 "/>
<polygon class="st0" points="190,16.8 189,15.8 192,12.7 193,13.7 "/>
<polygon class="st0" points="184,23.1 183,22.1 186,18.9 187,20 "/>
<polygon class="st0" points="192,23.1 189,20 190,18.9 193,22.1 "/>
<polygon class="st0" points="183,13.7 186,16.8 187,15.8 184,12.7 "/>
<rect x="238.5" y="34.7" class="st0" width="2.5" height="2.6"/>
<rect x="242.2" y="38.5" class="st0" width="2.5" height="2.6"/>
<rect x="227.7" y="41" class="st0" width="2" height="2"/>
<rect x="227.7" y="35" class="st0" width="2" height="2"/>
<rect x="51.6" y="60.3" class="st0" width="2.5" height="2.6"/>
<rect x="51.6" y="64.2" class="st0" width="2.5" height="2.6"/>
<rect x="51.6" y="68.1" class="st0" width="2.5" height="2.6"/>
<rect x="55.3" y="64.2" class="st0" width="2.5" height="2.6"/>
<rect x="59" y="64.2" class="st0" width="2.5" height="2.6"/>
<path class="st0" d="M151.1,6.2c-1.6,0-2.8,1.3-2.8,3c0,1.6,1.3,3,2.8,3s2.8-1.3,2.8-3C153.9,7.6,152.6,6.2,151.1,6.2z M151.1,10.7
	c-0.8,0-1.4-0.7-1.4-1.5s0.6-1.5,1.4-1.5c0.8,0,1.4,0.7,1.4,1.5S151.9,10.7,151.1,10.7z"/>
<rect x="160.7" y="17.5" class="st0" width="1.4" height="1.5"/>
<rect x="160.7" y="20.4" class="st0" width="1.4" height="1.5"/>
<rect x="162.1" y="18.9" class="st0" width="1.4" height="1.5"/>
<rect x="159.3" y="18.9" class="st0" width="1.4" height="1.5"/>
<path class="st0" d="M211.5,75.8c-2,0-3.7,1.7-3.7,3.9c0,2.1,1.7,3.9,3.7,3.9s3.7-1.7,3.7-3.9S213.5,75.8,211.5,75.8z M211.5,80.9
	c-0.7,0-1.2-0.6-1.2-1.3c0-0.7,0.6-1.3,1.2-1.3c0.7,0,1.2,0.6,1.2,1.3S212.1,80.9,211.5,80.9z"/>
<path class="st0" d="M222.5,75.8c-2,0-3.7,1.7-3.7,3.9c0,2.1,1.7,3.9,3.7,3.9s3.7-1.7,3.7-3.9S224.6,75.8,222.5,75.8z M222.5,80.9
	c-0.7,0-1.2-0.6-1.2-1.3c0-0.7,0.6-1.3,1.2-1.3c0.7,0,1.2,0.6,1.2,1.3C223.8,80.3,223.2,80.9,222.5,80.9z"/>
<path class="st0" d="M233.6,75.8c-2,0-3.7,1.7-3.7,3.9c0,2.1,1.7,3.9,3.7,3.9s3.7-1.7,3.7-3.9S235.6,75.8,233.6,75.8z M233.6,80.9
	c-0.7,0-1.2-0.6-1.2-1.3c0-0.7,0.6-1.3,1.2-1.3s1.2,0.6,1.2,1.3S234.3,80.9,233.6,80.9z"/>
<polygon class="st0" points="207.2,55.2 205.3,55.2 205.3,51.4 204.4,51.4 202.9,51.4 202.9,55.2 200.4,55.2 200.4,56.4 200.4,57.8 
	202.9,57.8 202.9,59.4 202.9,60.3 205.3,60.3 205.3,59.4 205.3,57.8 209,57.8 209,56.4 209,55.2 "/>
<path class="st0" d="M24.6,33.4v-1.3h-3.7v1.3h-1.2v3.9h1.2v1.3h3.7v-1.3h1.2v-3.9H24.6z M24.6,36h-1.2v1.3h-1.2V36H21v-1.3h1.2
	v-1.3h1.2v1.3h1.2V36z"/>
<rect x="65.2" y="84.7" class="st0" width="4.9" height="5.1"/>
<rect x="66.4" y="86" class="st0" width="2.5" height="2.6"/>
<rect x="71.3" y="91.2" class="st0" width="4.9" height="5.1"/>
<rect x="72.5" y="92.4" class="st0" width="2.5" height="2.6"/>
<rect x="77.5" y="84.7" class="st0" width="4.9" height="5.1"/>
<rect x="78.7" y="86" class="st0" width="2.5" height="2.6"/>
<polygon class="st0" points="182,60.3 179.5,60.3 179.5,62.9 177,62.9 177,65.5 179.5,65.5 179.5,68.1 182,68.1 182,65.5 
	184.4,65.5 184.4,62.9 182,62.9 "/>
<path class="st0" d="M180.7,55.2c-4.7,0-8.6,4-8.6,9s3.9,9,8.6,9c4.7,0,8.6-4,8.6-9S185.5,55.2,180.7,55.2z M180.7,70.6
	c-3.4,0-6.1-2.9-6.1-6.4s2.8-6.4,6.1-6.4c3.4,0,6.1,2.9,6.1,6.4C186.9,67.7,184.1,70.6,180.7,70.6z"/>
<rect x="180.7" y="87.3" class="st0" width="6.1" height="2.6"/>
<rect x="178.3" y="89.9" class="st0" width="2.5" height="2.6"/>
<rect x="180.7" y="92.4" class="st0" width="6.1" height="2.6"/>
<rect x="22.1" y="18" class="st0" width="8.6" height="2.6"/>
<rect x="14.8" y="18" class="st0" width="4.9" height="2.6"/>
<polygon class="st0" points="151.5,95.5 150.5,94.5 151.5,93.4 152.5,94.5 "/>
<polygon class="st0" points="149.5,97.6 148.5,96.5 149.5,95.5 150.5,96.5 "/>
<polygon class="st0" points="151.5,97.6 150.5,96.5 151.5,95.5 152.5,96.5 "/>
<polygon class="st0" points="149.5,95.5 148.5,94.5 149.5,93.4 150.5,94.5 "/>
<rect x="108.2" y="87.3" class="st0" width="17.2" height="2.6"/>
<rect x="127.9" y="87.3" class="st0" width="4.9" height="2.6"/>
<path class="st0" d="M52.9,19.3l3.2,6.7l3.2-6.7H52.9z M54.9,20.5h2.5l-1.2,2.6L54.9,20.5z"/>
<polygon class="st0" points="128.8,104 132,97.3 135.2,104 "/>
<polygon class="st0" points="132,100.2 130.8,102.7 133.3,102.7 "/>
<path class="st0" d="M127.9,0c0,0,0,2.6-2.5,2.6c2.5,0,2.5,2.6,2.5,2.6s0-2.6,2.5-2.6C127.9,2.6,127.9,0,127.9,0z"/>
<path class="st0" d="M22.7,73c0,0,0,2-2,2c2,0,2,2,2,2s0-2,2-2C22.7,75,22.7,73,22.7,73z"/>
<rect x="120.5" y="21.8" class="st0" width="18.4" height="2.6"/>
<rect x="141.4" y="21.8" class="st0" width="9.8" height="2.6"/>
<rect x="115.6" y="21.8" class="st0" width="2.5" height="2.6"/>
<ellipse class="st0" cx="41.8" cy="87.3" rx="1.2" ry="1.3"/>
<ellipse class="st0" cx="36.9" cy="87.3" rx="1.2" ry="1.3"/>
<rect x="223.8" y="52.6" class="st0" width="8.6" height="2.6"/>
<rect x="234.8" y="52.6" class="st0" width="2.5" height="2.6"/>
<rect x="29.5" y="84.7" class="st0" width="2.5" height="5.1"/>
<rect x="28.3" y="86" class="st0" width="4.9" height="2.6"/>
<polygon class="st0" points="8.6,39 7.6,38 8.6,36.9 9.6,38 "/>
<polygon class="st0" points="6.6,41.1 5.6,40 6.6,39 7.6,40 "/>
<polygon class="st0" points="8.6,41.1 7.6,40 8.6,39 9.6,40 "/>
<polygon class="st0" points="6.6,39 5.6,38 6.6,36.9 7.6,38 "/>
<rect x="225" y="15.4" class="st0" width="1.2" height="1.3"/>
<rect x="225" y="18" class="st0" width="1.2" height="1.3"/>
<rect x="226.2" y="16.7" class="st0" width="1.2" height="1.3"/>
<rect x="223.8" y="16.7" class="st0" width="1.2" height="1.3"/>
<path class="st0" d="M16,51.4h-1.2v-1.3h-1.2v1.3v1.3h-1.2V54h1.2h1.2v1.3H16V54v-1.3h1.2v-1.3H16z M15.4,53.3h-1.2V52h1.2V53.3z"/>
<circle class="st0" cx="19.5" cy="38" r="1"/>
<rect x="68.9" y="50.1" class="st0" width="2.5" height="2.6"/>
<rect x="163.5" y="48.8" class="st0" width="2.5" height="2.6"/>
<rect x="166" y="51.4" class="st0" width="2.5" height="2.6"/>
<rect x="168.4" y="48.8" class="st0" width="2.5" height="2.6"/>
<rect x="70.1" y="5.1" class="st0" width="2.5" height="2.6"/>
<rect x="67.6" y="7.7" class="st0" width="2.5" height="2.6"/>
<rect x="72.5" y="7.7" class="st0" width="2.5" height="2.6"/>
<rect x="70.1" y="10.3" class="st0" width="2.5" height="2.6"/>
<rect x="91" y="87.3" class="st0" width="2.5" height="2.6"/>
<g>
	<path class="st1" d="M90.7,21.3H80.5L58.8,55.4v3.2H81v10h9.7v-10H96v-9.5h-5.3V21.3z M81,49.2h-8.2l8.1-13.5H81V49.2z"/>
	<path class="st1" d="M116.6,20.5c-9.7,0-18.4,8.1-18.4,24.5c0,17.5,8.7,24.5,18.4,24.5S135,62.6,135,45
		C135,28.6,126.4,20.5,116.6,20.5z M116.6,60c-5,0-8-4.8-8-15c0-9.5,3-15.1,8-15.1c4.9,0,8,5.5,8,15.1C124.6,55.2,121.6,60,116.6,60
		z"/>
	<path class="st1" d="M167.1,49.2V21.3h-10.2l-21.7,34.1v3.2h22.3v10h9.7v-10h5.3v-9.5h-5.4V49.2z M157.4,49.2h-8.2l8.1-13.5h0.1
		L157.4,49.2L157.4,49.2z"/>
	<path class="st1" d="M64.3,79.7h-4.2c-0.2,0-0.3,0.1-0.3,0.3v14c0,0.2,0.1,0.3,0.3,0.3h1.8c0.2,0,0.3-0.1,0.3-0.3v-4.6h2.1
		c1.6,0,2.5-0.9,2.5-2.6v-4.4C66.8,80.6,65.9,79.7,64.3,79.7z M64.4,86.2c0,0.5-0.2,0.7-0.7,0.7h-1.5V82h1.5c0.5,0,0.7,0.3,0.7,0.7
		V86.2z"/>
	<path class="st1" d="M73.1,79.7h-2.4c-0.2,0-0.3,0.1-0.3,0.3l-2.9,14c-0.1,0.2,0,0.3,0.2,0.3h1.9c0.2,0,0.2-0.1,0.3-0.3l0.5-2.7
		h3.1L74,94c0,0.2,0.1,0.3,0.3,0.3h1.8c0.2,0,0.3-0.1,0.2-0.3l-2.9-14C73.4,79.7,73.3,79.7,73.1,79.7z M70.8,89.2l1.1-6.4l1.1,6.4
		H70.8z"/>
	<path class="st1" d="M82.4,79.7h-2.3c-1.6,0-2.5,0.9-2.5,2.6v9.3c0,1.7,0.9,2.6,2.5,2.6h2.3c1.6,0,2.5-0.9,2.5-2.6v-5.1
		c0-0.2-0.1-0.3-0.3-0.3h-2.9c-0.2,0-0.3,0.1-0.3,0.3v1.8c0,0.2,0.1,0.3,0.3,0.3h0.9V91c0,0.5-0.2,0.7-0.7,0.7h-1.3
		c-0.5,0-0.7-0.2-0.7-0.7v-8.3c0-0.5,0.2-0.7,0.7-0.7h1.3c0.5,0,0.7,0.3,0.7,0.7v1.4c0,0.2,0.1,0.3,0.3,0.3h1.7
		c0.2,0,0.3-0.1,0.3-0.3v-1.9C84.9,80.6,84,79.7,82.4,79.7z"/>
	<path class="st1" d="M93.3,79.7h-6.4c-0.2,0-0.3,0.1-0.3,0.3v14c0,0.2,0.1,0.3,0.3,0.3h6.4c0.2,0,0.3-0.1,0.3-0.3v-1.8
		c0-0.2-0.1-0.3-0.3-0.3H89v-3.7h3.3c0.2,0,0.3-0.1,0.3-0.3v-1.8c0-0.2-0.1-0.3-0.3-0.3H89v-3.6h4.4c0.2,0,0.3-0.1,0.3-0.3V80
		C93.6,79.8,93.5,79.7,93.3,79.7z"/>
	<path class="st1" d="M106.9,79.7h-1.8c-0.2,0-0.3,0.1-0.3,0.3v7.7h-0.1L102,80c-0.1-0.2-0.2-0.2-0.3-0.2H100
		c-0.2,0-0.3,0.1-0.3,0.3v14c0,0.2,0.1,0.3,0.3,0.3h1.8c0.2,0,0.3-0.1,0.3-0.3v-7.7h0.1l2.7,7.8c0.1,0.2,0.2,0.2,0.3,0.2h1.7
		c0.2,0,0.3-0.1,0.3-0.3V80C107.2,79.8,107,79.7,106.9,79.7z"/>
	<path class="st1" d="M113.4,79.7h-2c-1.6,0-2.5,0.9-2.5,2.6v9.3c0,1.7,0.9,2.6,2.5,2.6h2c1.6,0,2.5-0.9,2.5-2.6v-9.3
		C115.9,80.6,115,79.7,113.4,79.7z M113.6,91.2c0,0.5-0.2,0.7-0.7,0.7h-1c-0.5,0-0.7-0.2-0.7-0.7v-8.4c0-0.5,0.2-0.7,0.7-0.7h1
		c0.5,0,0.7,0.3,0.7,0.7V91.2z"/>
	<path class="st1" d="M123.4,79.7H117c-0.2,0-0.3,0.1-0.3,0.3v1.8c0,0.2,0.1,0.3,0.3,0.3h2V94c0,0.2,0.1,0.3,0.3,0.3h1.8
		c0.2,0,0.3-0.1,0.3-0.3V82.1h2c0.2,0,0.3-0.1,0.3-0.3V80C123.7,79.8,123.6,79.7,123.4,79.7z"/>
	<path class="st1" d="M136.2,79.7h-6.4c-0.2,0-0.3,0.1-0.3,0.3v14c0,0.2,0.1,0.3,0.3,0.3h1.8c0.2,0,0.3-0.1,0.3-0.3v-5.8h3.3
		c0.2,0,0.3-0.1,0.3-0.3V86c0-0.2-0.1-0.3-0.3-0.3h-3.3V82h4.3c0.2,0,0.3-0.1,0.3-0.3V80C136.5,79.8,136.4,79.7,136.2,79.7z"/>
	<path class="st1" d="M142.1,79.7h-2c-1.6,0-2.5,0.9-2.5,2.6v9.3c0,1.7,0.9,2.6,2.5,2.6h2c1.6,0,2.5-0.9,2.5-2.6v-9.3
		C144.7,80.6,143.8,79.7,142.1,79.7z M142.4,91.2c0,0.5-0.2,0.7-0.7,0.7h-1c-0.5,0-0.7-0.2-0.7-0.7v-8.4c0-0.5,0.2-0.7,0.7-0.7h1
		c0.5,0,0.7,0.3,0.7,0.7V91.2z"/>
	<path class="st1" d="M153,79.7h-1.6c-0.2,0-0.3,0.2-0.3,0.4v11.1c0,0.5-0.2,0.7-0.7,0.7h-0.9c-0.5,0-0.7-0.2-0.7-0.7V80
		c0-0.2-0.2-0.4-0.3-0.4h-1.7c-0.2,0-0.3,0.2-0.3,0.4v11.6c0,1.7,0.9,2.6,2.5,2.6h2c1.6,0,2.5-0.9,2.5-2.6V80
		C153.4,79.8,153.2,79.7,153,79.7z"/>
	<path class="st1" d="M162.3,79.7h-1.8c-0.2,0-0.3,0.1-0.3,0.3v7.7h-0.1l-2.7-7.7c-0.1-0.2-0.2-0.2-0.3-0.2h-1.7
		c-0.2,0-0.3,0.1-0.3,0.3v14c0,0.2,0.1,0.3,0.3,0.3h1.8c0.2,0,0.3-0.1,0.3-0.3v-7.7h0.1l2.7,7.8c0.1,0.2,0.2,0.2,0.3,0.2h1.7
		c0.2,0,0.3-0.1,0.3-0.3V80C162.6,79.8,162.5,79.7,162.3,79.7z"/>
	<path class="st1" d="M168.8,79.7h-4.2c-0.2,0-0.3,0.1-0.3,0.3v14c0,0.2,0.1,0.3,0.3,0.3h4.2c1.6,0,2.5-0.9,2.5-2.6v-9.3
		C171.3,80.6,170.4,79.7,168.8,79.7z M169,91.1c0,0.5-0.2,0.7-0.7,0.7h-1.6V82h1.6c0.5,0,0.7,0.3,0.7,0.7V91.1z"/>
</g>
</svg>
