<svg xmlns="http://www.w3.org/2000/svg" viewBox="0 0 285.15 278.42"><defs><style>.cls-1{isolation:isolate;}.cls-2{opacity:0.3;}.cls-2,.cls-66,.cls-67,.cls-68{mix-blend-mode:multiply;}.cls-3{opacity:0;}.cls-4{opacity:0.02;}.cls-5{opacity:0.03;}.cls-6{opacity:0.05;}.cls-7{opacity:0.07;}.cls-8{opacity:0.08;}.cls-9{opacity:0.1;}.cls-10{opacity:0.11;}.cls-11{opacity:0.13;}.cls-12{opacity:0.15;}.cls-13{opacity:0.16;}.cls-14{opacity:0.18;}.cls-15{opacity:0.2;}.cls-16{opacity:0.21;}.cls-17{opacity:0.23;}.cls-18{opacity:0.25;}.cls-19{opacity:0.26;}.cls-20{opacity:0.28;}.cls-21{opacity:0.3;}.cls-22{opacity:0.31;}.cls-23{opacity:0.33;}.cls-24{opacity:0.34;}.cls-25{opacity:0.36;}.cls-26{opacity:0.38;}.cls-27{opacity:0.39;}.cls-28{opacity:0.41;}.cls-29{opacity:0.43;}.cls-30{opacity:0.44;}.cls-31{opacity:0.46;}.cls-32{opacity:0.48;}.cls-33{opacity:0.49;}.cls-34{opacity:0.51;}.cls-35{opacity:0.52;}.cls-36{opacity:0.54;}.cls-37{opacity:0.56;}.cls-38{opacity:0.57;}.cls-39{opacity:0.59;}.cls-40{opacity:0.61;}.cls-41{opacity:0.62;}.cls-42{opacity:0.64;}.cls-43{opacity:0.66;}.cls-44{opacity:0.67;}.cls-45{opacity:0.69;}.cls-46{opacity:0.7;}.cls-47{opacity:0.72;}.cls-48{opacity:0.74;}.cls-49{opacity:0.75;}.cls-50{opacity:0.77;}.cls-51{opacity:0.79;}.cls-52{opacity:0.8;}.cls-53{opacity:0.82;}.cls-54{opacity:0.84;}.cls-55{opacity:0.85;}.cls-56{opacity:0.87;}.cls-57{opacity:0.89;}.cls-58{opacity:0.9;}.cls-59{opacity:0.92;}.cls-60{opacity:0.93;}.cls-61{opacity:0.95;}.cls-62{opacity:0.97;}.cls-63{opacity:0.98;}.cls-64,.cls-65{fill:#fff;}.cls-65{opacity:0.15;}.cls-66{opacity:0.2;}.cls-67{opacity:0.6;}.cls-69,.cls-71{fill:#4169ea;}.cls-70{fill:#d8d7d6;}.cls-71{opacity:0.7;}</style></defs><g class="cls-1"><g id="Layer_2" data-name="Layer 2"><g id="Layer_1-2" data-name="Layer 1"><g class="cls-2"><path class="cls-3" d="M281.2,211,180.27,152.57a12.53,12.53,0,0,0-6.21-1.68V278.42a12.44,12.44,0,0,0,6.21-1.69L281.2,218.27a12.59,12.59,0,0,0,3.95-3.62A12.56,12.56,0,0,0,281.2,211Z"/><path class="cls-4" d="M280.21,211,179.28,152.57a12.54,12.54,0,0,0-6.22-1.68V278.42a12.45,12.45,0,0,0,6.22-1.69l100.93-58.46a12.44,12.44,0,0,0,3.94-3.62A12.41,12.41,0,0,0,280.21,211Z"/><path class="cls-5" d="M279.21,211,178.29,152.57a12.57,12.57,0,0,0-6.22-1.68V278.42a12.48,12.48,0,0,0,6.22-1.69l100.92-58.46a12.48,12.48,0,0,0,4-3.62A12.45,12.45,0,0,0,279.21,211Z"/><path class="cls-6" d="M278.22,211,177.29,152.57a12.53,12.53,0,0,0-6.21-1.68V278.42a12.44,12.44,0,0,0,6.21-1.69l100.93-58.46a12.59,12.59,0,0,0,3.95-3.62A12.56,12.56,0,0,0,278.22,211Z"/><path class="cls-7" d="M277.22,211,176.3,152.57a12.54,12.54,0,0,0-6.22-1.68V278.42a12.45,12.45,0,0,0,6.22-1.69l100.92-58.46a12.48,12.48,0,0,0,3.95-3.62A12.45,12.45,0,0,0,277.22,211Z"/><path class="cls-8" d="M276.23,211,175.31,152.57a12.57,12.57,0,0,0-6.22-1.68V278.42a12.48,12.48,0,0,0,6.22-1.69l100.92-58.46a12.59,12.59,0,0,0,3.95-3.62A12.56,12.56,0,0,0,276.23,211Z"/><path class="cls-9" d="M275.24,211,174.31,152.57a12.53,12.53,0,0,0-6.21-1.68V278.42a12.44,12.44,0,0,0,6.21-1.69l100.93-58.46a12.59,12.59,0,0,0,3.95-3.62A12.56,12.56,0,0,0,275.24,211Z"/><path class="cls-10" d="M274.24,211,173.32,152.57a12.54,12.54,0,0,0-6.22-1.68V278.42a12.45,12.45,0,0,0,6.22-1.69l100.92-58.46a12.48,12.48,0,0,0,3.95-3.62A12.45,12.45,0,0,0,274.24,211Z"/><path class="cls-11" d="M273.25,211,172.33,152.57a12.57,12.57,0,0,0-6.22-1.68V278.42a12.48,12.48,0,0,0,6.22-1.69l100.92-58.46a12.59,12.59,0,0,0,3.95-3.62A12.56,12.56,0,0,0,273.25,211Z"/><path class="cls-12" d="M272.26,211,171.33,152.57a12.53,12.53,0,0,0-6.21-1.68V278.42a12.44,12.44,0,0,0,6.21-1.69l100.93-58.46a12.59,12.59,0,0,0,3.95-3.62A12.56,12.56,0,0,0,272.26,211Z"/><path class="cls-13" d="M271.26,211,170.34,152.57a12.54,12.54,0,0,0-6.22-1.68V278.42a12.45,12.45,0,0,0,6.22-1.69l100.92-58.46a12.48,12.48,0,0,0,3.95-3.62A12.45,12.45,0,0,0,271.26,211Z"/><path class="cls-14" d="M270.27,211,169.35,152.57a12.57,12.57,0,0,0-6.22-1.68V278.42a12.48,12.48,0,0,0,6.22-1.69l100.92-58.46a12.59,12.59,0,0,0,4-3.62A12.56,12.56,0,0,0,270.27,211Z"/><path class="cls-15" d="M269.28,211,168.35,152.57a12.53,12.53,0,0,0-6.21-1.68V278.42a12.44,12.44,0,0,0,6.21-1.69l100.93-58.46a12.59,12.59,0,0,0,4-3.62A12.56,12.56,0,0,0,269.28,211Z"/><path class="cls-16" d="M268.28,211,167.36,152.57a12.54,12.54,0,0,0-6.22-1.68V278.42a12.45,12.45,0,0,0,6.22-1.69l100.92-58.46a12.48,12.48,0,0,0,4-3.62A12.45,12.45,0,0,0,268.28,211Z"/><path class="cls-17" d="M267.29,211,166.37,152.57a12.57,12.57,0,0,0-6.22-1.68V278.42a12.48,12.48,0,0,0,6.22-1.69l100.92-58.46a12.59,12.59,0,0,0,3.95-3.62A12.56,12.56,0,0,0,267.29,211Z"/><path class="cls-18" d="M266.3,211,165.37,152.57a12.53,12.53,0,0,0-6.21-1.68V278.42a12.44,12.44,0,0,0,6.21-1.69L266.3,218.27a12.59,12.59,0,0,0,3.95-3.62A12.56,12.56,0,0,0,266.3,211Z"/><path class="cls-19" d="M265.3,211,164.38,152.57a12.54,12.54,0,0,0-6.22-1.68V278.42a12.45,12.45,0,0,0,6.22-1.69L265.3,218.27a12.48,12.48,0,0,0,3.95-3.62A12.45,12.45,0,0,0,265.3,211Z"/><path class="cls-20" d="M264.31,211,163.39,152.57a12.57,12.57,0,0,0-6.22-1.68V278.42a12.48,12.48,0,0,0,6.22-1.69l100.92-58.46a12.59,12.59,0,0,0,3.95-3.62A12.56,12.56,0,0,0,264.31,211Z"/><path class="cls-21" d="M263.32,211,162.39,152.57a12.53,12.53,0,0,0-6.21-1.68V278.42a12.44,12.44,0,0,0,6.21-1.69l100.93-58.46a12.59,12.59,0,0,0,3.95-3.62A12.56,12.56,0,0,0,263.32,211Z"/><path class="cls-22" d="M262.32,211,161.4,152.57a12.54,12.54,0,0,0-6.22-1.68V278.42a12.45,12.45,0,0,0,6.22-1.69l100.92-58.46a12.48,12.48,0,0,0,3.95-3.62A12.45,12.45,0,0,0,262.32,211Z"/><path class="cls-23" d="M261.33,211,160.41,152.57a12.57,12.57,0,0,0-6.22-1.68V278.42a12.48,12.48,0,0,0,6.22-1.69l100.92-58.46a12.59,12.59,0,0,0,3.95-3.62A12.56,12.56,0,0,0,261.33,211Z"/><path class="cls-24" d="M260.34,211,159.41,152.57a12.53,12.53,0,0,0-6.21-1.68V278.42a12.44,12.44,0,0,0,6.21-1.69l100.93-58.46a12.59,12.59,0,0,0,4-3.62A12.56,12.56,0,0,0,260.34,211Z"/><path class="cls-25" d="M259.34,211,158.42,152.57a12.54,12.54,0,0,0-6.22-1.68V278.42a12.45,12.45,0,0,0,6.22-1.69l100.92-58.46a12.48,12.48,0,0,0,4-3.62A12.45,12.45,0,0,0,259.34,211Z"/><path class="cls-26" d="M258.35,211,157.43,152.57a12.57,12.57,0,0,0-6.22-1.68V278.42a12.48,12.48,0,0,0,6.22-1.69l100.92-58.46a12.59,12.59,0,0,0,3.95-3.62A12.56,12.56,0,0,0,258.35,211Z"/><path class="cls-27" d="M257.36,211,156.43,152.57a12.54,12.54,0,0,0-6.22-1.68V278.42a12.45,12.45,0,0,0,6.22-1.69l100.93-58.46a12.59,12.59,0,0,0,3.95-3.62A12.56,12.56,0,0,0,257.36,211Z"/><path class="cls-28" d="M256.36,211,155.44,152.57a12.57,12.57,0,0,0-6.22-1.68V278.42a12.48,12.48,0,0,0,6.22-1.69l100.92-58.46a12.48,12.48,0,0,0,3.95-3.62A12.45,12.45,0,0,0,256.36,211Z"/><path class="cls-29" d="M255.37,211,154.44,152.57a12.51,12.51,0,0,0-6.21-1.68V278.42a12.41,12.41,0,0,0,6.21-1.69l100.93-58.46a12.59,12.59,0,0,0,3.95-3.62A12.56,12.56,0,0,0,255.37,211Z"/><path class="cls-30" d="M254.38,211,153.45,152.57a12.54,12.54,0,0,0-6.22-1.68V278.42a12.45,12.45,0,0,0,6.22-1.69l100.93-58.46a12.59,12.59,0,0,0,3.95-3.62A12.56,12.56,0,0,0,254.38,211Z"/><path class="cls-31" d="M253.38,211,152.46,152.57a12.57,12.57,0,0,0-6.22-1.68V278.42a12.48,12.48,0,0,0,6.22-1.69l100.92-58.46a12.48,12.48,0,0,0,3.95-3.62A12.45,12.45,0,0,0,253.38,211Z"/><path class="cls-32" d="M252.39,211,151.46,152.57a12.51,12.51,0,0,0-6.21-1.68V278.42a12.41,12.41,0,0,0,6.21-1.69l100.93-58.46a12.59,12.59,0,0,0,3.95-3.62A12.56,12.56,0,0,0,252.39,211Z"/><path class="cls-33" d="M251.4,211,150.47,152.57a12.54,12.54,0,0,0-6.22-1.68V278.42a12.45,12.45,0,0,0,6.22-1.69L251.4,218.27a12.59,12.59,0,0,0,3.95-3.62A12.56,12.56,0,0,0,251.4,211Z"/><path class="cls-34" d="M250.4,211,149.48,152.57a12.57,12.57,0,0,0-6.22-1.68V278.42a12.48,12.48,0,0,0,6.22-1.69L250.4,218.27a12.48,12.48,0,0,0,3.95-3.62A12.45,12.45,0,0,0,250.4,211Z"/><path class="cls-35" d="M249.41,211,148.48,152.57a12.51,12.51,0,0,0-6.21-1.68V278.42a12.41,12.41,0,0,0,6.21-1.69l100.93-58.46a12.59,12.59,0,0,0,4-3.62A12.56,12.56,0,0,0,249.41,211Z"/><path class="cls-36" d="M248.42,211,147.49,152.57a12.54,12.54,0,0,0-6.22-1.68V278.42a12.45,12.45,0,0,0,6.22-1.69l100.93-58.46a12.44,12.44,0,0,0,3.94-3.62A12.41,12.41,0,0,0,248.42,211Z"/><path class="cls-37" d="M247.42,211,146.5,152.57a12.57,12.57,0,0,0-6.22-1.68V278.42a12.48,12.48,0,0,0,6.22-1.69l100.92-58.46a12.48,12.48,0,0,0,4-3.62A12.45,12.45,0,0,0,247.42,211Z"/><path class="cls-38" d="M246.43,211,145.5,152.57a12.51,12.51,0,0,0-6.21-1.68V278.42a12.41,12.41,0,0,0,6.21-1.69l100.93-58.46a12.59,12.59,0,0,0,3.95-3.62A12.56,12.56,0,0,0,246.43,211Z"/><path class="cls-39" d="M245.44,211,144.51,152.57a12.54,12.54,0,0,0-6.22-1.68V278.42a12.45,12.45,0,0,0,6.22-1.69l100.93-58.46a12.44,12.44,0,0,0,3.94-3.62A12.41,12.41,0,0,0,245.44,211Z"/><path class="cls-40" d="M244.44,211,143.52,152.57a12.57,12.57,0,0,0-6.22-1.68V278.42a12.48,12.48,0,0,0,6.22-1.69l100.92-58.46a12.48,12.48,0,0,0,3.95-3.62A12.45,12.45,0,0,0,244.44,211Z"/><path class="cls-41" d="M243.45,211,142.52,152.57a12.53,12.53,0,0,0-6.21-1.68V278.42a12.44,12.44,0,0,0,6.21-1.69l100.93-58.46a12.59,12.59,0,0,0,4-3.62A12.56,12.56,0,0,0,243.45,211Z"/><path class="cls-42" d="M242.46,211,141.53,152.57a12.54,12.54,0,0,0-6.22-1.68V278.42a12.45,12.45,0,0,0,6.22-1.69l100.93-58.46a12.44,12.44,0,0,0,3.94-3.62A12.41,12.41,0,0,0,242.46,211Z"/><path class="cls-43" d="M241.46,211,140.54,152.57a12.57,12.57,0,0,0-6.22-1.68V278.42a12.48,12.48,0,0,0,6.22-1.69l100.92-58.46a12.48,12.48,0,0,0,3.95-3.62A12.45,12.45,0,0,0,241.46,211Z"/><path class="cls-44" d="M240.47,211,139.54,152.57a12.53,12.53,0,0,0-6.21-1.68V278.42a12.44,12.44,0,0,0,6.21-1.69l100.93-58.46a12.59,12.59,0,0,0,3.95-3.62A12.56,12.56,0,0,0,240.47,211Z"/><path class="cls-45" d="M239.48,211,138.55,152.57a12.54,12.54,0,0,0-6.22-1.68V278.42a12.45,12.45,0,0,0,6.22-1.69l100.93-58.46a12.44,12.44,0,0,0,3.94-3.62A12.41,12.41,0,0,0,239.48,211Z"/><path class="cls-46" d="M238.48,211,137.56,152.57a12.57,12.57,0,0,0-6.22-1.68V278.42a12.48,12.48,0,0,0,6.22-1.69l100.92-58.46a12.48,12.48,0,0,0,4-3.62A12.45,12.45,0,0,0,238.48,211Z"/><path class="cls-47" d="M237.49,211,136.56,152.57a12.53,12.53,0,0,0-6.21-1.68V278.42a12.44,12.44,0,0,0,6.21-1.69l100.93-58.46a12.59,12.59,0,0,0,3.95-3.62A12.56,12.56,0,0,0,237.49,211Z"/><path class="cls-48" d="M236.49,211,135.57,152.57a12.54,12.54,0,0,0-6.22-1.68V278.42a12.45,12.45,0,0,0,6.22-1.69l100.92-58.46a12.48,12.48,0,0,0,3.95-3.62A12.45,12.45,0,0,0,236.49,211Z"/><path class="cls-49" d="M235.5,211,134.58,152.57a12.57,12.57,0,0,0-6.22-1.68V278.42a12.48,12.48,0,0,0,6.22-1.69L235.5,218.27a12.59,12.59,0,0,0,3.95-3.62A12.56,12.56,0,0,0,235.5,211Z"/><path class="cls-50" d="M234.51,211,133.58,152.57a12.53,12.53,0,0,0-6.21-1.68V278.42a12.44,12.44,0,0,0,6.21-1.69l100.93-58.46a12.59,12.59,0,0,0,4-3.62A12.56,12.56,0,0,0,234.51,211Z"/><path class="cls-51" d="M233.51,211,132.59,152.57a12.54,12.54,0,0,0-6.22-1.68V278.42a12.45,12.45,0,0,0,6.22-1.69l100.92-58.46a12.48,12.48,0,0,0,4-3.62A12.45,12.45,0,0,0,233.51,211Z"/><path class="cls-52" d="M232.52,211,131.6,152.57a12.57,12.57,0,0,0-6.22-1.68V278.42a12.48,12.48,0,0,0,6.22-1.69l100.92-58.46a12.59,12.59,0,0,0,3.95-3.62A12.56,12.56,0,0,0,232.52,211Z"/><path class="cls-53" d="M231.53,211,130.6,152.57a12.53,12.53,0,0,0-6.21-1.68V278.42a12.44,12.44,0,0,0,6.21-1.69l100.93-58.46a12.59,12.59,0,0,0,3.95-3.62A12.56,12.56,0,0,0,231.53,211Z"/><path class="cls-54" d="M230.53,211,129.61,152.57a12.54,12.54,0,0,0-6.22-1.68V278.42a12.45,12.45,0,0,0,6.22-1.69l100.92-58.46a12.48,12.48,0,0,0,3.95-3.62A12.45,12.45,0,0,0,230.53,211Z"/><path class="cls-55" d="M229.54,211,128.62,152.57a12.57,12.57,0,0,0-6.22-1.68V278.42a12.48,12.48,0,0,0,6.22-1.69l100.92-58.46a12.59,12.59,0,0,0,4-3.62A12.56,12.56,0,0,0,229.54,211Z"/><path class="cls-56" d="M228.55,211,127.62,152.57a12.53,12.53,0,0,0-6.21-1.68V278.42a12.44,12.44,0,0,0,6.21-1.69l100.93-58.46a12.59,12.59,0,0,0,3.95-3.62A12.56,12.56,0,0,0,228.55,211Z"/><path class="cls-57" d="M227.55,211,126.63,152.57a12.54,12.54,0,0,0-6.22-1.68V278.42a12.45,12.45,0,0,0,6.22-1.69l100.92-58.46a12.48,12.48,0,0,0,3.95-3.62A12.45,12.45,0,0,0,227.55,211Z"/><path class="cls-58" d="M226.56,211,125.64,152.57a12.57,12.57,0,0,0-6.22-1.68V278.42a12.48,12.48,0,0,0,6.22-1.69l100.92-58.46a12.59,12.59,0,0,0,3.95-3.62A12.56,12.56,0,0,0,226.56,211Z"/><path class="cls-59" d="M225.57,211,124.64,152.57a12.53,12.53,0,0,0-6.21-1.68V278.42a12.44,12.44,0,0,0,6.21-1.69l100.93-58.46a12.59,12.59,0,0,0,4-3.62A12.56,12.56,0,0,0,225.57,211Z"/><path class="cls-60" d="M224.57,211,123.65,152.57a12.54,12.54,0,0,0-6.22-1.68V278.42a12.45,12.45,0,0,0,6.22-1.69l100.92-58.46a12.48,12.48,0,0,0,4-3.62A12.45,12.45,0,0,0,224.57,211Z"/><path class="cls-61" d="M223.58,211,122.66,152.57a12.57,12.57,0,0,0-6.22-1.68V278.42a12.48,12.48,0,0,0,6.22-1.69l100.92-58.46a12.59,12.59,0,0,0,3.95-3.62A12.56,12.56,0,0,0,223.58,211Z"/><path class="cls-62" d="M222.59,211,121.66,152.57a12.53,12.53,0,0,0-6.21-1.68V278.42a12.44,12.44,0,0,0,6.21-1.69l100.93-58.46a12.59,12.59,0,0,0,3.95-3.62A12.56,12.56,0,0,0,222.59,211Z"/><path class="cls-63" d="M221.59,211,120.67,152.57a12.54,12.54,0,0,0-6.22-1.68V278.42a12.45,12.45,0,0,0,6.22-1.69l100.92-58.46a12.48,12.48,0,0,0,3.95-3.62A12.45,12.45,0,0,0,221.59,211Z"/><path d="M220.6,211,119.68,152.57a12.57,12.57,0,0,0-6.22-1.68V278.42a12.48,12.48,0,0,0,6.22-1.69L220.6,218.27a12.59,12.59,0,0,0,4-3.62A12.56,12.56,0,0,0,220.6,211Z"/></g><path class="cls-64" d="M113.46,148.93,0,83.21V207.43a12.52,12.52,0,0,0,6.25,10.84l100.93,58.46a12.53,12.53,0,0,0,12.56,0l100.93-58.46a12.54,12.54,0,0,0,6.25-10.85V83.21Z"/><path class="cls-65" d="M0,83.21V207.43a12.52,12.52,0,0,0,6.25,10.84l100.93,58.46a12.57,12.57,0,0,0,6.28,1.69V148.93Z"/><path class="cls-66" d="M113.46,278.42a12.57,12.57,0,0,0,6.28-1.69l100.93-58.46a12.54,12.54,0,0,0,6.25-10.85V83.21L113.46,148.93Z"/><polygon class="cls-64" points="113.46 17.49 0 83.21 113.46 148.93 226.92 83.21 113.46 17.49"/><g class="cls-67"><g class="cls-68"><path d="M58,214.77V200.53L31.49,185.25v-9.1l22.6-23.33,17.09,9.87v35l7.17,4.14V212.3l-7.17-4.14v14.25Zm0-24.72V176.82c0-3.58.19-7.15.46-10.85l-.37-.21c-1.93,2.74-3.49,5.33-5.51,7.93l-8,8.43v.19Z"/></g><path class="cls-69" d="M56,213.77V199.53L29.49,184.25v-9.1l22.6-23.33,17.09,9.87v35l7.17,4.14V211.3l-7.17-4.14v14.25Zm0-24.72V175.82c0-3.58.19-7.15.46-10.85l-.37-.21c-1.93,2.74-3.49,5.33-5.51,7.93l-8,8.43v.19Z"/></g><path class="cls-70" d="M169,90.42c0,3.67-21.74,6.63-48.54,6.61s-48.54-3-48.54-6.68,21.74-6.63,48.55-6.61S169,86.75,169,90.42Z"/><path class="cls-69" d="M107.49,41.89c0,.13,0,.26,0,.4a.31.31,0,0,1,0,.1c0,.11,0,.22,0,.33v0h0c.69,8.61,6.21,16.4,12.91,16.4s12.38-8,12.94-16.78h0v0c0-.08,0-.16,0-.23a1.09,1.09,0,0,1,0-.18v-.21a1.34,1.34,0,0,0,0-.2v-.2a1.62,1.62,0,0,0,0-.22v-.16c0-5.52-1.64-9.93-4.72-12.61a12.23,12.23,0,0,0-8.27-2.84,13.64,13.64,0,0,0-5.22,1c-5,2.09-7.77,7.36-7.77,14.48,0,.3,0,.6,0,.9Zm17.72-6.1c2.53,5.24,4.58,5.94,6.11,7.05A20.33,20.33,0,0,1,128,52.37a12.85,12.85,0,0,1-3.54,3.52,7.05,7.05,0,0,1-7.93,0A12.58,12.58,0,0,1,113,52.37a20.35,20.35,0,0,1-3.37-9.7C112.79,43.34,122.62,44.61,125.21,35.79Z"/><path class="cls-69" d="M81.26,51.37c0,.11,0,.22,0,.32v.08c0,.09,0,.18,0,.28v0h0c.56,7,5,13.24,10.43,13.24s10-6.48,10.44-13.55h0v0a1.15,1.15,0,0,1,0-.19V51.4a.91.91,0,0,0,0-.17.92.92,0,0,1,0-.16V50.6c0-4.45-1.32-8-3.8-10.17a9.89,9.89,0,0,0-6.68-2.3,10.83,10.83,0,0,0-4.22.79c-4,1.68-6.27,5.94-6.27,11.68,0,.25,0,.49,0,.73Zm14.3-4.92c2,4.22,3.7,4.8,4.93,5.69a16.35,16.35,0,0,1-2.7,7.69,10.27,10.27,0,0,1-2.86,2.84,5.67,5.67,0,0,1-6.4,0,10,10,0,0,1-2.86-2.84A16.33,16.33,0,0,1,83,52C85.54,52.54,93.47,53.57,95.56,46.45Z"/><path class="cls-69" d="M162.4,69.91l-7-2a50.27,50.27,0,0,1-2.88,13.89l-1.83-10.4a2,2,0,0,0,.79-1.6V69.3a2,2,0,0,0-2-2h-.53a2,2,0,0,0-2,2v.51a2,2,0,0,0,.8,1.6l-1.84,10.47c-.32-.84-.61-1.69-.88-2.54-.08-3-1.09-5.64-1.77-8.11a9.88,9.88,0,0,0-1.69-2.89,9.21,9.21,0,0,0-4.72-3.48l-8.67-2.48a62.48,62.48,0,0,1-3.57,17.22L122.3,66.72a2.5,2.5,0,0,0,1-2V64.1a2.48,2.48,0,0,0-2.49-2.49h-.66a2.48,2.48,0,0,0-2.49,2.49v.63a2.5,2.5,0,0,0,1,2l-2.28,13a52.05,52.05,0,0,1-3.56-17.3l-8.67,2.48a9.11,9.11,0,0,0-4.71,3.48,10.91,10.91,0,0,0-1.82,3.17A32.2,32.2,0,0,0,96,79c-.28.93-.58,1.87-.91,2.8l-1.83-10.4a2,2,0,0,0,.8-1.6V69.3a2,2,0,0,0-2-2h-.53a2,2,0,0,0-2,2v.51a2,2,0,0,0,.79,1.6L88.4,81.88a42,42,0,0,1-2.87-14l-7,2C74.7,71,71.92,76.14,71.92,82.14v6.35A2.4,2.4,0,0,0,74,91.1h92.86A2.4,2.4,0,0,0,169,88.49V82.14C169,76.14,166.22,71,162.4,69.91Z"/><path class="cls-69" d="M145,38.92c-4,1.68-6.27,5.94-6.27,11.68,0,.25,0,.49,0,.73v0c0,.11,0,.22,0,.32v.08c0,.09,0,.18,0,.28v0h0c.56,7,5,13.24,10.42,13.24s10-6.48,10.45-13.55h0v0a1.28,1.28,0,0,0,0-.19.76.76,0,0,0,0-.15,1,1,0,0,1,0-.17v-.16a.92.92,0,0,1,0-.16V50.6c0-4.45-1.32-8-3.81-10.17a9.87,9.87,0,0,0-6.68-2.3A10.82,10.82,0,0,0,145,38.92ZM153,46.45c2,4.22,3.7,4.8,4.93,5.69a16.25,16.25,0,0,1-2.71,7.69,10,10,0,0,1-2.86,2.84,5.67,5.67,0,0,1-6.4,0,10.27,10.27,0,0,1-2.86-2.84A16.42,16.42,0,0,1,140.42,52C143,52.54,150.94,53.57,153,46.45Z"/><path class="cls-71" d="M133.46,24.31c0,.08,0,.17,0,.26v.07c0,.07,0,.14,0,.22v0h0c.46,5.69,4.1,10.84,8.54,10.84s8.19-5.3,8.55-11.1h0v0a.76.76,0,0,1,0-.15v-.12a.71.71,0,0,1,0-.14v-.41s0-.07,0-.1c0-3.65-1.09-6.57-3.12-8.34A8.1,8.1,0,0,0,142,13.46a8.73,8.73,0,0,0-3.45.65c-3.32,1.37-5.14,4.86-5.14,9.57,0,.2,0,.4,0,.59Zm11.72-4a9.31,9.31,0,0,0,4,4.67A13.45,13.45,0,0,1,147,31.23a8.22,8.22,0,0,1-2.34,2.33,4.64,4.64,0,0,1-5.24,0,8.37,8.37,0,0,1-2.35-2.33,13.34,13.34,0,0,1-2.22-6.41C137,25.26,143.47,26.11,145.18,20.27Z"/><path class="cls-71" d="M112,10.85c0,.08,0,.17,0,.26v.06c0,.08,0,.15,0,.23v0h0c.46,5.69,4.11,10.84,8.54,10.84s8.19-5.3,8.56-11.1h0v0a.76.76,0,0,0,0-.15v-.26s0-.08,0-.13v-.38c0-3.65-1.08-6.57-3.12-8.34A8.08,8.08,0,0,0,120.55,0a8.8,8.8,0,0,0-3.45.65C113.79,2,112,5.51,112,10.22c0,.2,0,.4,0,.59Zm11.71-4a9.4,9.4,0,0,0,4,4.67,13.34,13.34,0,0,1-2.21,6.29,8.48,8.48,0,0,1-2.34,2.33,4.66,4.66,0,0,1-5.25,0,8.35,8.35,0,0,1-2.34-2.33,13.45,13.45,0,0,1-2.23-6.41C115.48,11.8,122,12.65,123.69,6.81Z"/><path class="cls-71" d="M90.31,24.31c0,.08,0,.17,0,.26v.07c0,.07,0,.14,0,.22v0h0c.46,5.69,4.11,10.84,8.54,10.84s8.19-5.3,8.56-11.1h0v0a.76.76,0,0,0,0-.15v-.26s0-.08,0-.13v-.38c0-3.65-1.08-6.57-3.12-8.34a8.08,8.08,0,0,0-5.47-1.88,8.8,8.8,0,0,0-3.45.65C92.12,15.48,90.3,19,90.3,23.68c0,.2,0,.4,0,.59Zm11.71-4a9.4,9.4,0,0,0,4,4.67,13.34,13.34,0,0,1-2.21,6.29,8.48,8.48,0,0,1-2.34,2.33,4.66,4.66,0,0,1-5.25,0,8.35,8.35,0,0,1-2.34-2.33,13.45,13.45,0,0,1-2.23-6.41C93.81,25.26,100.32,26.11,102,20.27Z"/></g></g></g></svg>