<svg xmlns="http://www.w3.org/2000/svg" viewBox="0 0 285.15 286.51"><defs><style>.cls-1{isolation:isolate;}.cls-2{opacity:0.3;}.cls-2,.cls-66,.cls-67,.cls-68{mix-blend-mode:multiply;}.cls-3{opacity:0;}.cls-4{opacity:0.02;}.cls-5{opacity:0.03;}.cls-6{opacity:0.05;}.cls-7{opacity:0.07;}.cls-8{opacity:0.08;}.cls-9{opacity:0.1;}.cls-10{opacity:0.11;}.cls-11{opacity:0.13;}.cls-12{opacity:0.15;}.cls-13{opacity:0.16;}.cls-14{opacity:0.18;}.cls-15{opacity:0.2;}.cls-16{opacity:0.21;}.cls-17{opacity:0.23;}.cls-18{opacity:0.25;}.cls-19{opacity:0.26;}.cls-20{opacity:0.28;}.cls-21{opacity:0.3;}.cls-22{opacity:0.31;}.cls-23{opacity:0.33;}.cls-24{opacity:0.34;}.cls-25{opacity:0.36;}.cls-26{opacity:0.38;}.cls-27{opacity:0.39;}.cls-28{opacity:0.41;}.cls-29{opacity:0.43;}.cls-30{opacity:0.44;}.cls-31{opacity:0.46;}.cls-32{opacity:0.48;}.cls-33{opacity:0.49;}.cls-34{opacity:0.51;}.cls-35{opacity:0.52;}.cls-36{opacity:0.54;}.cls-37{opacity:0.56;}.cls-38{opacity:0.57;}.cls-39{opacity:0.59;}.cls-40{opacity:0.61;}.cls-41{opacity:0.62;}.cls-42{opacity:0.64;}.cls-43{opacity:0.66;}.cls-44{opacity:0.67;}.cls-45{opacity:0.69;}.cls-46{opacity:0.7;}.cls-47{opacity:0.72;}.cls-48{opacity:0.74;}.cls-49{opacity:0.75;}.cls-50{opacity:0.77;}.cls-51{opacity:0.79;}.cls-52{opacity:0.8;}.cls-53{opacity:0.82;}.cls-54{opacity:0.84;}.cls-55{opacity:0.85;}.cls-56{opacity:0.87;}.cls-57{opacity:0.89;}.cls-58{opacity:0.9;}.cls-59{opacity:0.92;}.cls-60{opacity:0.93;}.cls-61{opacity:0.95;}.cls-62{opacity:0.97;}.cls-63{opacity:0.98;}.cls-64,.cls-65{fill:#fff;}.cls-65{opacity:0.15;}.cls-66{opacity:0.2;}.cls-67{opacity:0.6;}.cls-69,.cls-72{fill:#4169ea;}.cls-70{fill:#d5d4d4;}.cls-71{fill:#6787ee;}.cls-71,.cls-72{fill-rule:evenodd;}</style></defs><g class="cls-1"><g id="Layer_2" data-name="Layer 2"><g id="Layer_1-2" data-name="Layer 1"><g class="cls-2"><path class="cls-3" d="M281.2,219.13,180.27,160.67a12.44,12.44,0,0,0-6.21-1.69V286.51a12.44,12.44,0,0,0,6.21-1.69L281.2,226.36a12.47,12.47,0,0,0,3.95-3.62A12.56,12.56,0,0,0,281.2,219.13Z"/><path class="cls-4" d="M280.21,219.13,179.28,160.67a12.45,12.45,0,0,0-6.22-1.69V286.51a12.45,12.45,0,0,0,6.22-1.69l100.93-58.46a12.33,12.33,0,0,0,3.94-3.62A12.41,12.41,0,0,0,280.21,219.13Z"/><path class="cls-5" d="M279.21,219.13,178.29,160.67a12.48,12.48,0,0,0-6.22-1.69V286.51a12.48,12.48,0,0,0,6.22-1.69l100.92-58.46a12.36,12.36,0,0,0,4-3.62A12.45,12.45,0,0,0,279.21,219.13Z"/><path class="cls-6" d="M278.22,219.13,177.29,160.67a12.44,12.44,0,0,0-6.21-1.69V286.51a12.44,12.44,0,0,0,6.21-1.69l100.93-58.46a12.47,12.47,0,0,0,3.95-3.62A12.56,12.56,0,0,0,278.22,219.13Z"/><path class="cls-7" d="M277.22,219.13,176.3,160.67a12.45,12.45,0,0,0-6.22-1.69V286.51a12.45,12.45,0,0,0,6.22-1.69l100.92-58.46a12.36,12.36,0,0,0,3.95-3.62A12.45,12.45,0,0,0,277.22,219.13Z"/><path class="cls-8" d="M276.23,219.13,175.31,160.67a12.48,12.48,0,0,0-6.22-1.69V286.51a12.48,12.48,0,0,0,6.22-1.69l100.92-58.46a12.47,12.47,0,0,0,3.95-3.62A12.56,12.56,0,0,0,276.23,219.13Z"/><path class="cls-9" d="M275.24,219.13,174.31,160.67A12.44,12.44,0,0,0,168.1,159V286.51a12.44,12.44,0,0,0,6.21-1.69l100.93-58.46a12.47,12.47,0,0,0,3.95-3.62A12.56,12.56,0,0,0,275.24,219.13Z"/><path class="cls-10" d="M274.24,219.13,173.32,160.67A12.45,12.45,0,0,0,167.1,159V286.51a12.45,12.45,0,0,0,6.22-1.69l100.92-58.46a12.36,12.36,0,0,0,3.95-3.62A12.45,12.45,0,0,0,274.24,219.13Z"/><path class="cls-11" d="M273.25,219.13,172.33,160.67a12.48,12.48,0,0,0-6.22-1.69V286.51a12.48,12.48,0,0,0,6.22-1.69l100.92-58.46a12.47,12.47,0,0,0,3.95-3.62A12.56,12.56,0,0,0,273.25,219.13Z"/><path class="cls-12" d="M272.26,219.13,171.33,160.67a12.44,12.44,0,0,0-6.21-1.69V286.51a12.44,12.44,0,0,0,6.21-1.69l100.93-58.46a12.47,12.47,0,0,0,3.95-3.62A12.56,12.56,0,0,0,272.26,219.13Z"/><path class="cls-13" d="M271.26,219.13,170.34,160.67a12.45,12.45,0,0,0-6.22-1.69V286.51a12.45,12.45,0,0,0,6.22-1.69l100.92-58.46a12.36,12.36,0,0,0,3.95-3.62A12.45,12.45,0,0,0,271.26,219.13Z"/><path class="cls-14" d="M270.27,219.13,169.35,160.67a12.48,12.48,0,0,0-6.22-1.69V286.51a12.48,12.48,0,0,0,6.22-1.69l100.92-58.46a12.47,12.47,0,0,0,4-3.62A12.56,12.56,0,0,0,270.27,219.13Z"/><path class="cls-15" d="M269.28,219.13,168.35,160.67a12.44,12.44,0,0,0-6.21-1.69V286.51a12.44,12.44,0,0,0,6.21-1.69l100.93-58.46a12.47,12.47,0,0,0,4-3.62A12.56,12.56,0,0,0,269.28,219.13Z"/><path class="cls-16" d="M268.28,219.13,167.36,160.67a12.45,12.45,0,0,0-6.22-1.69V286.51a12.45,12.45,0,0,0,6.22-1.69l100.92-58.46a12.36,12.36,0,0,0,4-3.62A12.45,12.45,0,0,0,268.28,219.13Z"/><path class="cls-17" d="M267.29,219.13,166.37,160.67a12.48,12.48,0,0,0-6.22-1.69V286.51a12.48,12.48,0,0,0,6.22-1.69l100.92-58.46a12.47,12.47,0,0,0,3.95-3.62A12.56,12.56,0,0,0,267.29,219.13Z"/><path class="cls-18" d="M266.3,219.13,165.37,160.67a12.44,12.44,0,0,0-6.21-1.69V286.51a12.44,12.44,0,0,0,6.21-1.69L266.3,226.36a12.47,12.47,0,0,0,3.95-3.62A12.56,12.56,0,0,0,266.3,219.13Z"/><path class="cls-19" d="M265.3,219.13,164.38,160.67a12.45,12.45,0,0,0-6.22-1.69V286.51a12.45,12.45,0,0,0,6.22-1.69L265.3,226.36a12.36,12.36,0,0,0,3.95-3.62A12.45,12.45,0,0,0,265.3,219.13Z"/><path class="cls-20" d="M264.31,219.13,163.39,160.67a12.48,12.48,0,0,0-6.22-1.69V286.51a12.48,12.48,0,0,0,6.22-1.69l100.92-58.46a12.47,12.47,0,0,0,3.95-3.62A12.56,12.56,0,0,0,264.31,219.13Z"/><path class="cls-21" d="M263.32,219.13,162.39,160.67a12.44,12.44,0,0,0-6.21-1.69V286.51a12.44,12.44,0,0,0,6.21-1.69l100.93-58.46a12.47,12.47,0,0,0,3.95-3.62A12.56,12.56,0,0,0,263.32,219.13Z"/><path class="cls-22" d="M262.32,219.13,161.4,160.67a12.45,12.45,0,0,0-6.22-1.69V286.51a12.45,12.45,0,0,0,6.22-1.69l100.92-58.46a12.36,12.36,0,0,0,3.95-3.62A12.45,12.45,0,0,0,262.32,219.13Z"/><path class="cls-23" d="M261.33,219.13,160.41,160.67a12.48,12.48,0,0,0-6.22-1.69V286.51a12.48,12.48,0,0,0,6.22-1.69l100.92-58.46a12.47,12.47,0,0,0,3.95-3.62A12.56,12.56,0,0,0,261.33,219.13Z"/><path class="cls-24" d="M260.34,219.13,159.41,160.67A12.44,12.44,0,0,0,153.2,159V286.51a12.44,12.44,0,0,0,6.21-1.69l100.93-58.46a12.47,12.47,0,0,0,4-3.62A12.56,12.56,0,0,0,260.34,219.13Z"/><path class="cls-25" d="M259.34,219.13,158.42,160.67A12.45,12.45,0,0,0,152.2,159V286.51a12.45,12.45,0,0,0,6.22-1.69l100.92-58.46a12.36,12.36,0,0,0,4-3.62A12.45,12.45,0,0,0,259.34,219.13Z"/><path class="cls-26" d="M258.35,219.13,157.43,160.67a12.48,12.48,0,0,0-6.22-1.69V286.51a12.48,12.48,0,0,0,6.22-1.69l100.92-58.46a12.47,12.47,0,0,0,3.95-3.62A12.56,12.56,0,0,0,258.35,219.13Z"/><path class="cls-27" d="M257.36,219.13,156.43,160.67a12.45,12.45,0,0,0-6.22-1.69V286.51a12.45,12.45,0,0,0,6.22-1.69l100.93-58.46a12.47,12.47,0,0,0,3.95-3.62A12.56,12.56,0,0,0,257.36,219.13Z"/><path class="cls-28" d="M256.36,219.13,155.44,160.67a12.45,12.45,0,0,0-6.22-1.69V286.51a12.45,12.45,0,0,0,6.22-1.69l100.92-58.46a12.36,12.36,0,0,0,3.95-3.62A12.45,12.45,0,0,0,256.36,219.13Z"/><path class="cls-29" d="M255.37,219.13,154.45,160.67a12.48,12.48,0,0,0-6.22-1.69V286.51a12.48,12.48,0,0,0,6.22-1.69l100.92-58.46a12.47,12.47,0,0,0,3.95-3.62A12.56,12.56,0,0,0,255.37,219.13Z"/><path class="cls-30" d="M254.38,219.13,153.45,160.67a12.45,12.45,0,0,0-6.22-1.69V286.51a12.45,12.45,0,0,0,6.22-1.69l100.93-58.46a12.47,12.47,0,0,0,3.95-3.62A12.56,12.56,0,0,0,254.38,219.13Z"/><path class="cls-31" d="M253.38,219.13,152.46,160.67a12.48,12.48,0,0,0-6.22-1.69V286.51a12.48,12.48,0,0,0,6.22-1.69l100.92-58.46a12.36,12.36,0,0,0,3.95-3.62A12.45,12.45,0,0,0,253.38,219.13Z"/><path class="cls-32" d="M252.39,219.13,151.46,160.67a12.41,12.41,0,0,0-6.21-1.69V286.51a12.41,12.41,0,0,0,6.21-1.69l100.93-58.46a12.47,12.47,0,0,0,3.95-3.62A12.56,12.56,0,0,0,252.39,219.13Z"/><path class="cls-33" d="M251.4,219.13,150.47,160.67a12.45,12.45,0,0,0-6.22-1.69V286.51a12.45,12.45,0,0,0,6.22-1.69L251.4,226.36a12.47,12.47,0,0,0,3.95-3.62A12.56,12.56,0,0,0,251.4,219.13Z"/><path class="cls-34" d="M250.4,219.13,149.48,160.67a12.48,12.48,0,0,0-6.22-1.69V286.51a12.48,12.48,0,0,0,6.22-1.69L250.4,226.36a12.36,12.36,0,0,0,3.95-3.62A12.45,12.45,0,0,0,250.4,219.13Z"/><path class="cls-35" d="M249.41,219.13,148.48,160.67a12.41,12.41,0,0,0-6.21-1.69V286.51a12.41,12.41,0,0,0,6.21-1.69l100.93-58.46a12.47,12.47,0,0,0,4-3.62A12.56,12.56,0,0,0,249.41,219.13Z"/><path class="cls-36" d="M248.42,219.13,147.49,160.67a12.45,12.45,0,0,0-6.22-1.69V286.51a12.45,12.45,0,0,0,6.22-1.69l100.93-58.46a12.33,12.33,0,0,0,3.94-3.62A12.41,12.41,0,0,0,248.42,219.13Z"/><path class="cls-37" d="M247.42,219.13,146.5,160.67a12.48,12.48,0,0,0-6.22-1.69V286.51a12.48,12.48,0,0,0,6.22-1.69l100.92-58.46a12.36,12.36,0,0,0,4-3.62A12.45,12.45,0,0,0,247.42,219.13Z"/><path class="cls-38" d="M246.43,219.13,145.5,160.67a12.41,12.41,0,0,0-6.21-1.69V286.51a12.41,12.41,0,0,0,6.21-1.69l100.93-58.46a12.47,12.47,0,0,0,3.95-3.62A12.56,12.56,0,0,0,246.43,219.13Z"/><path class="cls-39" d="M245.44,219.13,144.51,160.67a12.45,12.45,0,0,0-6.22-1.69V286.51a12.45,12.45,0,0,0,6.22-1.69l100.93-58.46a12.33,12.33,0,0,0,3.94-3.62A12.41,12.41,0,0,0,245.44,219.13Z"/><path class="cls-40" d="M244.44,219.13,143.52,160.67A12.48,12.48,0,0,0,137.3,159V286.51a12.48,12.48,0,0,0,6.22-1.69l100.92-58.46a12.36,12.36,0,0,0,3.95-3.62A12.45,12.45,0,0,0,244.44,219.13Z"/><path class="cls-41" d="M243.45,219.13,142.52,160.67a12.44,12.44,0,0,0-6.21-1.69V286.51a12.44,12.44,0,0,0,6.21-1.69l100.93-58.46a12.47,12.47,0,0,0,4-3.62A12.56,12.56,0,0,0,243.45,219.13Z"/><path class="cls-42" d="M242.46,219.13,141.53,160.67a12.45,12.45,0,0,0-6.22-1.69V286.51a12.45,12.45,0,0,0,6.22-1.69l100.93-58.46a12.33,12.33,0,0,0,3.94-3.62A12.41,12.41,0,0,0,242.46,219.13Z"/><path class="cls-43" d="M241.46,219.13,140.54,160.67a12.48,12.48,0,0,0-6.22-1.69V286.51a12.48,12.48,0,0,0,6.22-1.69l100.92-58.46a12.36,12.36,0,0,0,3.95-3.62A12.45,12.45,0,0,0,241.46,219.13Z"/><path class="cls-44" d="M240.47,219.13,139.54,160.67a12.44,12.44,0,0,0-6.21-1.69V286.51a12.44,12.44,0,0,0,6.21-1.69l100.93-58.46a12.47,12.47,0,0,0,3.95-3.62A12.56,12.56,0,0,0,240.47,219.13Z"/><path class="cls-45" d="M239.48,219.13,138.55,160.67a12.45,12.45,0,0,0-6.22-1.69V286.51a12.45,12.45,0,0,0,6.22-1.69l100.93-58.46a12.33,12.33,0,0,0,3.94-3.62A12.41,12.41,0,0,0,239.48,219.13Z"/><path class="cls-46" d="M238.48,219.13,137.56,160.67a12.48,12.48,0,0,0-6.22-1.69V286.51a12.48,12.48,0,0,0,6.22-1.69l100.92-58.46a12.36,12.36,0,0,0,4-3.62A12.45,12.45,0,0,0,238.48,219.13Z"/><path class="cls-47" d="M237.49,219.13,136.56,160.67a12.44,12.44,0,0,0-6.21-1.69V286.51a12.44,12.44,0,0,0,6.21-1.69l100.93-58.46a12.47,12.47,0,0,0,3.95-3.62A12.56,12.56,0,0,0,237.49,219.13Z"/><path class="cls-48" d="M236.49,219.13,135.57,160.67a12.45,12.45,0,0,0-6.22-1.69V286.51a12.45,12.45,0,0,0,6.22-1.69l100.92-58.46a12.36,12.36,0,0,0,3.95-3.62A12.45,12.45,0,0,0,236.49,219.13Z"/><path class="cls-49" d="M235.5,219.13,134.58,160.67a12.48,12.48,0,0,0-6.22-1.69V286.51a12.48,12.48,0,0,0,6.22-1.69L235.5,226.36a12.47,12.47,0,0,0,3.95-3.62A12.56,12.56,0,0,0,235.5,219.13Z"/><path class="cls-50" d="M234.51,219.13,133.58,160.67a12.44,12.44,0,0,0-6.21-1.69V286.51a12.44,12.44,0,0,0,6.21-1.69l100.93-58.46a12.47,12.47,0,0,0,4-3.62A12.56,12.56,0,0,0,234.51,219.13Z"/><path class="cls-51" d="M233.51,219.13,132.59,160.67a12.45,12.45,0,0,0-6.22-1.69V286.51a12.45,12.45,0,0,0,6.22-1.69l100.92-58.46a12.36,12.36,0,0,0,4-3.62A12.45,12.45,0,0,0,233.51,219.13Z"/><path class="cls-52" d="M232.52,219.13,131.6,160.67a12.48,12.48,0,0,0-6.22-1.69V286.51a12.48,12.48,0,0,0,6.22-1.69l100.92-58.46a12.47,12.47,0,0,0,3.95-3.62A12.56,12.56,0,0,0,232.52,219.13Z"/><path class="cls-53" d="M231.53,219.13,130.6,160.67a12.44,12.44,0,0,0-6.21-1.69V286.51a12.44,12.44,0,0,0,6.21-1.69l100.93-58.46a12.47,12.47,0,0,0,3.95-3.62A12.56,12.56,0,0,0,231.53,219.13Z"/><path class="cls-54" d="M230.53,219.13,129.61,160.67a12.45,12.45,0,0,0-6.22-1.69V286.51a12.45,12.45,0,0,0,6.22-1.69l100.92-58.46a12.36,12.36,0,0,0,3.95-3.62A12.45,12.45,0,0,0,230.53,219.13Z"/><path class="cls-55" d="M229.54,219.13,128.62,160.67A12.48,12.48,0,0,0,122.4,159V286.51a12.48,12.48,0,0,0,6.22-1.69l100.92-58.46a12.47,12.47,0,0,0,4-3.62A12.56,12.56,0,0,0,229.54,219.13Z"/><path class="cls-56" d="M228.55,219.13,127.62,160.67a12.44,12.44,0,0,0-6.21-1.69V286.51a12.44,12.44,0,0,0,6.21-1.69l100.93-58.46a12.47,12.47,0,0,0,3.95-3.62A12.56,12.56,0,0,0,228.55,219.13Z"/><path class="cls-57" d="M227.55,219.13,126.63,160.67a12.45,12.45,0,0,0-6.22-1.69V286.51a12.45,12.45,0,0,0,6.22-1.69l100.92-58.46a12.36,12.36,0,0,0,3.95-3.62A12.45,12.45,0,0,0,227.55,219.13Z"/><path class="cls-58" d="M226.56,219.13,125.64,160.67a12.48,12.48,0,0,0-6.22-1.69V286.51a12.48,12.48,0,0,0,6.22-1.69l100.92-58.46a12.47,12.47,0,0,0,3.95-3.62A12.56,12.56,0,0,0,226.56,219.13Z"/><path class="cls-59" d="M225.57,219.13,124.64,160.67a12.44,12.44,0,0,0-6.21-1.69V286.51a12.44,12.44,0,0,0,6.21-1.69l100.93-58.46a12.47,12.47,0,0,0,4-3.62A12.56,12.56,0,0,0,225.57,219.13Z"/><path class="cls-60" d="M224.57,219.13,123.65,160.67a12.45,12.45,0,0,0-6.22-1.69V286.51a12.45,12.45,0,0,0,6.22-1.69l100.92-58.46a12.36,12.36,0,0,0,4-3.62A12.45,12.45,0,0,0,224.57,219.13Z"/><path class="cls-61" d="M223.58,219.13,122.66,160.67a12.48,12.48,0,0,0-6.22-1.69V286.51a12.48,12.48,0,0,0,6.22-1.69l100.92-58.46a12.47,12.47,0,0,0,3.95-3.62A12.56,12.56,0,0,0,223.58,219.13Z"/><path class="cls-62" d="M222.59,219.13,121.66,160.67a12.44,12.44,0,0,0-6.21-1.69V286.51a12.44,12.44,0,0,0,6.21-1.69l100.93-58.46a12.47,12.47,0,0,0,3.95-3.62A12.56,12.56,0,0,0,222.59,219.13Z"/><path class="cls-63" d="M221.59,219.13,120.67,160.67a12.45,12.45,0,0,0-6.22-1.69V286.51a12.45,12.45,0,0,0,6.22-1.69l100.92-58.46a12.36,12.36,0,0,0,3.95-3.62A12.45,12.45,0,0,0,221.59,219.13Z"/><path d="M220.6,219.13,119.68,160.67a12.48,12.48,0,0,0-6.22-1.69V286.51a12.48,12.48,0,0,0,6.22-1.69L220.6,226.36a12.47,12.47,0,0,0,4-3.62A12.56,12.56,0,0,0,220.6,219.13Z"/></g><path class="cls-64" d="M113.46,157,0,91.3V215.52a12.52,12.52,0,0,0,6.25,10.84l100.93,58.46a12.53,12.53,0,0,0,12.56,0l100.93-58.46a12.52,12.52,0,0,0,6.25-10.84V91.3Z"/><path class="cls-65" d="M0,91.3V215.52a12.52,12.52,0,0,0,6.25,10.84l100.93,58.46a12.46,12.46,0,0,0,6.28,1.69V157Z"/><path class="cls-66" d="M113.46,286.51a12.46,12.46,0,0,0,6.28-1.69l100.93-58.46a12.52,12.52,0,0,0,6.25-10.84V91.3L113.46,157Z"/><polygon class="cls-64" points="113.46 25.58 0 91.3 113.46 157.02 226.92 91.3 113.46 25.58"/><g class="cls-67"><g class="cls-68"><path d="M51.06,171.56l-.18-.1-11.4-1.16-2.29-11.8L53,160.27,64.57,167v59.72l-13.51-7.8Z"/></g><path class="cls-69" d="M49.06,170.56l-.18-.1-11.4-1.16-2.29-11.8L51,159.27,62.57,166v59.72l-13.51-7.8Z"/></g><ellipse class="cls-70" cx="113.46" cy="105.72" rx="43.46" ry="5.79"/><path class="cls-71" d="M91.56,7.26A4.06,4.06,0,0,1,95,5.38a3.77,3.77,0,0,1,.76.07c.76-1,1.56-2,2.41-3l.25-.27A51.49,51.49,0,0,0,87.7,6.8c1.29.11,2.58.26,3.86.46m25,8.62a4.08,4.08,0,0,1,2.62-1,4,4,0,0,1,2.68,1C129,12.4,137,10.12,145,10.71A51.76,51.76,0,0,0,118.29.23a52.7,52.7,0,0,0-9.89,0,4.06,4.06,0,0,1-3.75,2.5,4.08,4.08,0,0,1-2.08-.57c-.77.72-1.52,1.47-2.23,2.26S98.9,6.11,98.24,7A4,4,0,0,1,99,8.87a86.89,86.89,0,0,1,15.47,6Z"/><path class="cls-72" d="M154,49.24a64.74,64.74,0,0,1,4,7.21h.15a4,4,0,0,1,1.29.21,55.45,55.45,0,0,0,4.82-7,4.05,4.05,0,0,1,.51-5.88,51.74,51.74,0,0,0-12.65-26.5,4.2,4.2,0,0,1-.72.06,4.06,4.06,0,0,1-4-3.39c-8.28-1.32-16.7,1-24.12,4.61l0,.47-.06.67q4.07,2.52,7.89,5.39A93.15,93.15,0,0,1,154,49.24m1.27,8.37a62.46,62.46,0,0,0-3.74-6.81,90.38,90.38,0,0,0-22.2-23.41c-2.46-1.85-5-3.59-7.62-5.21a4.09,4.09,0,0,1-2.52.87,4,4,0,0,1-2.48-.85A95.17,95.17,0,0,0,94.85,41.91c-1.06,1.29-2.1,2.61-3.1,4a4.06,4.06,0,0,1-1.47,5.85,97.34,97.34,0,0,0,1.9,9.59,100,100,0,0,0,4.65,14.14H97a4.06,4.06,0,0,1,4.06,4.06h0a96.47,96.47,0,0,0,15.1,4.25l.51.1a4.07,4.07,0,0,1,6.57-.79q3.41-1.47,6.69-3.18A103.9,103.9,0,0,0,146,69.64a87.14,87.14,0,0,0,8.41-7.42,3.93,3.93,0,0,1-.38-1.71A4.06,4.06,0,0,1,155.26,57.61ZM87,29.45A56.85,56.85,0,0,1,91.85,12,4,4,0,0,1,91,10.13c-1.74-.26-3.48-.45-5.24-.54a4.07,4.07,0,0,1-5.44,2.31A51.67,51.67,0,0,0,61.76,46.29a4.06,4.06,0,0,1,.94,5.79,56.33,56.33,0,0,0,7.57,8.81c1.62,1.54,3.32,3,5.07,4.4a4.18,4.18,0,0,1,2-.59,92.15,92.15,0,0,1,4.15-8.47q1.65-3,3.49-5.82a4,4,0,0,1-.71-2.28,4.06,4.06,0,0,1,2.27-3.64A81.26,81.26,0,0,1,87,29.45Zm.43,22.68q-1.74,2.7-3.29,5.52a85.84,85.84,0,0,0-4,8.05,4,4,0,0,1,1.39,3.06,3.91,3.91,0,0,1-.1.91,94.9,94.9,0,0,0,12.7,7l0,0A102.64,102.64,0,0,1,89.34,62C88.53,58.75,87.87,55.45,87.39,52.13Zm25.8-34.69a84.64,84.64,0,0,0-14.83-5.72A4.09,4.09,0,0,1,95,13.5l-.58,0a53.43,53.43,0,0,0-4.54,16.35A77.41,77.41,0,0,0,89.48,44c1-1.34,2-2.66,3.11-4A98.21,98.21,0,0,1,115.18,19.7a4.17,4.17,0,0,1-.06-.71l0-.55Z"/><path class="cls-71" d="M147.81,71.94a107,107,0,0,1-16.53,10.55q-2.62,1.37-5.34,2.59c1.9.13,3.8.2,5.7.19,8.87-.07,18-1.9,25.52-6.81a4.24,4.24,0,0,1-.16-1.14,4.07,4.07,0,0,1,2.55-3.77,39.68,39.68,0,0,0-1.63-9,4.34,4.34,0,0,1-1.4-.32,88.35,88.35,0,0,1-8.71,7.69m7.06,11.2c-7.14,3.58-15.26,5-23.21,5a74.09,74.09,0,0,1-7.88-.37,4.07,4.07,0,0,1-6.53.73,92,92,0,0,1-10,2.88,4.16,4.16,0,0,1-.59,1.55l.39.52a55.14,55.14,0,0,0,8.6,9.14,3.41,3.41,0,0,1,1.94-.38,3.47,3.47,0,0,1,2.24,1.11A52.07,52.07,0,0,0,154.87,83.14ZM104.26,94.7a3.79,3.79,0,0,1-1.07.15,4.08,4.08,0,0,1-3.55-2.08l-1.33.15a55.18,55.18,0,0,1-17.62-.74,51.8,51.8,0,0,0,27.83,11.35c1.3.12,2.6.19,3.9.22a59.28,59.28,0,0,1-7.74-8.49Zm2.34-6.13c2.66-.59,5.28-1.33,7.87-2.17A98.29,98.29,0,0,1,100,82.23l0,0q1.19,2.3,2.51,4.53a4.07,4.07,0,0,1,4.1,1.78Zm-34.35-5a58,58,0,0,1,2.06-10.28l.44-1.46a4.08,4.08,0,0,1-1.36-3,4,4,0,0,1,.17-1.15c-1.84-1.46-3.62-3-5.31-4.61a59.92,59.92,0,0,1-6.67-7.47A51.63,51.63,0,0,0,72.25,83.53ZM93,79.32a99.59,99.59,0,0,1-13.17-7.23,4.1,4.1,0,0,1-2.29.73l-.37,1.25a54.18,54.18,0,0,0-2,10.49,4.05,4.05,0,0,1,2.44,3.73A48.86,48.86,0,0,0,98,90l1.23-.14a4.07,4.07,0,0,1,.76-1.58c-.93-1.56-1.8-3.14-2.63-4.75l-.35,0a4.07,4.07,0,0,1-4.07-4.06ZM160.7,63.63a45.65,45.65,0,0,1,1.42,6.31,51.78,51.78,0,0,0,3-13.18q.16-1.68.21-3.36a59.73,59.73,0,0,1-3.68,5.12,4.05,4.05,0,0,1-1,5.11Z"/></g></g></g></svg>