<svg xmlns="http://www.w3.org/2000/svg" viewBox="0 0 285.15 286.51"><defs><style>.cls-1{isolation:isolate;}.cls-2{opacity:0.3;}.cls-2,.cls-66,.cls-67,.cls-68{mix-blend-mode:multiply;}.cls-3{opacity:0;}.cls-4{opacity:0.02;}.cls-5{opacity:0.03;}.cls-6{opacity:0.05;}.cls-7{opacity:0.07;}.cls-8{opacity:0.08;}.cls-9{opacity:0.1;}.cls-10{opacity:0.11;}.cls-11{opacity:0.13;}.cls-12{opacity:0.15;}.cls-13{opacity:0.16;}.cls-14{opacity:0.18;}.cls-15{opacity:0.2;}.cls-16{opacity:0.21;}.cls-17{opacity:0.23;}.cls-18{opacity:0.25;}.cls-19{opacity:0.26;}.cls-20{opacity:0.28;}.cls-21{opacity:0.3;}.cls-22{opacity:0.31;}.cls-23{opacity:0.33;}.cls-24{opacity:0.34;}.cls-25{opacity:0.36;}.cls-26{opacity:0.38;}.cls-27{opacity:0.39;}.cls-28{opacity:0.41;}.cls-29{opacity:0.43;}.cls-30{opacity:0.44;}.cls-31{opacity:0.46;}.cls-32{opacity:0.48;}.cls-33{opacity:0.49;}.cls-34{opacity:0.51;}.cls-35{opacity:0.52;}.cls-36{opacity:0.54;}.cls-37{opacity:0.56;}.cls-38{opacity:0.57;}.cls-39{opacity:0.59;}.cls-40{opacity:0.61;}.cls-41{opacity:0.62;}.cls-42{opacity:0.64;}.cls-43{opacity:0.66;}.cls-44{opacity:0.67;}.cls-45{opacity:0.69;}.cls-46{opacity:0.7;}.cls-47{opacity:0.72;}.cls-48{opacity:0.74;}.cls-49{opacity:0.75;}.cls-50{opacity:0.77;}.cls-51{opacity:0.79;}.cls-52{opacity:0.8;}.cls-53{opacity:0.82;}.cls-54{opacity:0.84;}.cls-55{opacity:0.85;}.cls-56{opacity:0.87;}.cls-57{opacity:0.89;}.cls-58{opacity:0.9;}.cls-59{opacity:0.92;}.cls-60{opacity:0.93;}.cls-61{opacity:0.95;}.cls-62{opacity:0.97;}.cls-63{opacity:0.98;}.cls-64,.cls-65{fill:#fff;}.cls-65{opacity:0.15;}.cls-66{opacity:0.2;}.cls-67{opacity:0.6;}.cls-69{fill:#4169ea;}.cls-70{fill:#d5d4d4;}.cls-71{fill:#5069b0;}.cls-72{fill:#6787ee;}</style></defs><g class="cls-1"><g id="Layer_2" data-name="Layer 2"><g id="Layer_1-2" data-name="Layer 1"><g class="cls-2"><path class="cls-3" d="M281.2,219.13,180.27,160.67a12.44,12.44,0,0,0-6.21-1.69V286.51a12.44,12.44,0,0,0,6.21-1.69L281.2,226.36a12.47,12.47,0,0,0,3.95-3.62A12.56,12.56,0,0,0,281.2,219.13Z"/><path class="cls-4" d="M280.21,219.13,179.28,160.67a12.45,12.45,0,0,0-6.22-1.69V286.51a12.45,12.45,0,0,0,6.22-1.69l100.93-58.46a12.33,12.33,0,0,0,3.94-3.62A12.41,12.41,0,0,0,280.21,219.13Z"/><path class="cls-5" d="M279.21,219.13,178.29,160.67a12.48,12.48,0,0,0-6.22-1.69V286.51a12.48,12.48,0,0,0,6.22-1.69l100.92-58.46a12.36,12.36,0,0,0,4-3.62A12.45,12.45,0,0,0,279.21,219.13Z"/><path class="cls-6" d="M278.22,219.13,177.29,160.67a12.44,12.44,0,0,0-6.21-1.69V286.51a12.44,12.44,0,0,0,6.21-1.69l100.93-58.46a12.47,12.47,0,0,0,3.95-3.62A12.56,12.56,0,0,0,278.22,219.13Z"/><path class="cls-7" d="M277.22,219.13,176.3,160.67a12.45,12.45,0,0,0-6.22-1.69V286.51a12.45,12.45,0,0,0,6.22-1.69l100.92-58.46a12.36,12.36,0,0,0,3.95-3.62A12.45,12.45,0,0,0,277.22,219.13Z"/><path class="cls-8" d="M276.23,219.13,175.31,160.67a12.48,12.48,0,0,0-6.22-1.69V286.51a12.48,12.48,0,0,0,6.22-1.69l100.92-58.46a12.47,12.47,0,0,0,3.95-3.62A12.56,12.56,0,0,0,276.23,219.13Z"/><path class="cls-9" d="M275.24,219.13,174.31,160.67A12.44,12.44,0,0,0,168.1,159V286.51a12.44,12.44,0,0,0,6.21-1.69l100.93-58.46a12.47,12.47,0,0,0,3.95-3.62A12.56,12.56,0,0,0,275.24,219.13Z"/><path class="cls-10" d="M274.24,219.13,173.32,160.67A12.45,12.45,0,0,0,167.1,159V286.51a12.45,12.45,0,0,0,6.22-1.69l100.92-58.46a12.36,12.36,0,0,0,3.95-3.62A12.45,12.45,0,0,0,274.24,219.13Z"/><path class="cls-11" d="M273.25,219.13,172.33,160.67a12.48,12.48,0,0,0-6.22-1.69V286.51a12.48,12.48,0,0,0,6.22-1.69l100.92-58.46a12.47,12.47,0,0,0,3.95-3.62A12.56,12.56,0,0,0,273.25,219.13Z"/><path class="cls-12" d="M272.26,219.13,171.33,160.67a12.44,12.44,0,0,0-6.21-1.69V286.51a12.44,12.44,0,0,0,6.21-1.69l100.93-58.46a12.47,12.47,0,0,0,3.95-3.62A12.56,12.56,0,0,0,272.26,219.13Z"/><path class="cls-13" d="M271.26,219.13,170.34,160.67a12.45,12.45,0,0,0-6.22-1.69V286.51a12.45,12.45,0,0,0,6.22-1.69l100.92-58.46a12.36,12.36,0,0,0,3.95-3.62A12.45,12.45,0,0,0,271.26,219.13Z"/><path class="cls-14" d="M270.27,219.13,169.35,160.67a12.48,12.48,0,0,0-6.22-1.69V286.51a12.48,12.48,0,0,0,6.22-1.69l100.92-58.46a12.47,12.47,0,0,0,4-3.62A12.56,12.56,0,0,0,270.27,219.13Z"/><path class="cls-15" d="M269.28,219.13,168.35,160.67a12.44,12.44,0,0,0-6.21-1.69V286.51a12.44,12.44,0,0,0,6.21-1.69l100.93-58.46a12.47,12.47,0,0,0,4-3.62A12.56,12.56,0,0,0,269.28,219.13Z"/><path class="cls-16" d="M268.28,219.13,167.36,160.67a12.45,12.45,0,0,0-6.22-1.69V286.51a12.45,12.45,0,0,0,6.22-1.69l100.92-58.46a12.36,12.36,0,0,0,4-3.62A12.45,12.45,0,0,0,268.28,219.13Z"/><path class="cls-17" d="M267.29,219.13,166.37,160.67a12.48,12.48,0,0,0-6.22-1.69V286.51a12.48,12.48,0,0,0,6.22-1.69l100.92-58.46a12.47,12.47,0,0,0,3.95-3.62A12.56,12.56,0,0,0,267.29,219.13Z"/><path class="cls-18" d="M266.3,219.13,165.37,160.67a12.44,12.44,0,0,0-6.21-1.69V286.51a12.44,12.44,0,0,0,6.21-1.69L266.3,226.36a12.47,12.47,0,0,0,3.95-3.62A12.56,12.56,0,0,0,266.3,219.13Z"/><path class="cls-19" d="M265.3,219.13,164.38,160.67a12.45,12.45,0,0,0-6.22-1.69V286.51a12.45,12.45,0,0,0,6.22-1.69L265.3,226.36a12.36,12.36,0,0,0,3.95-3.62A12.45,12.45,0,0,0,265.3,219.13Z"/><path class="cls-20" d="M264.31,219.13,163.39,160.67a12.48,12.48,0,0,0-6.22-1.69V286.51a12.48,12.48,0,0,0,6.22-1.69l100.92-58.46a12.47,12.47,0,0,0,3.95-3.62A12.56,12.56,0,0,0,264.31,219.13Z"/><path class="cls-21" d="M263.32,219.13,162.39,160.67a12.44,12.44,0,0,0-6.21-1.69V286.51a12.44,12.44,0,0,0,6.21-1.69l100.93-58.46a12.47,12.47,0,0,0,3.95-3.62A12.56,12.56,0,0,0,263.32,219.13Z"/><path class="cls-22" d="M262.32,219.13,161.4,160.67a12.45,12.45,0,0,0-6.22-1.69V286.51a12.45,12.45,0,0,0,6.22-1.69l100.92-58.46a12.36,12.36,0,0,0,3.95-3.62A12.45,12.45,0,0,0,262.32,219.13Z"/><path class="cls-23" d="M261.33,219.13,160.41,160.67a12.48,12.48,0,0,0-6.22-1.69V286.51a12.48,12.48,0,0,0,6.22-1.69l100.92-58.46a12.47,12.47,0,0,0,3.95-3.62A12.56,12.56,0,0,0,261.33,219.13Z"/><path class="cls-24" d="M260.34,219.13,159.41,160.67A12.44,12.44,0,0,0,153.2,159V286.51a12.44,12.44,0,0,0,6.21-1.69l100.93-58.46a12.47,12.47,0,0,0,4-3.62A12.56,12.56,0,0,0,260.34,219.13Z"/><path class="cls-25" d="M259.34,219.13,158.42,160.67A12.45,12.45,0,0,0,152.2,159V286.51a12.45,12.45,0,0,0,6.22-1.69l100.92-58.46a12.36,12.36,0,0,0,4-3.62A12.45,12.45,0,0,0,259.34,219.13Z"/><path class="cls-26" d="M258.35,219.13,157.43,160.67a12.48,12.48,0,0,0-6.22-1.69V286.51a12.48,12.48,0,0,0,6.22-1.69l100.92-58.46a12.47,12.47,0,0,0,3.95-3.62A12.56,12.56,0,0,0,258.35,219.13Z"/><path class="cls-27" d="M257.36,219.13,156.43,160.67a12.45,12.45,0,0,0-6.22-1.69V286.51a12.45,12.45,0,0,0,6.22-1.69l100.93-58.46a12.47,12.47,0,0,0,3.95-3.62A12.56,12.56,0,0,0,257.36,219.13Z"/><path class="cls-28" d="M256.36,219.13,155.44,160.67a12.45,12.45,0,0,0-6.22-1.69V286.51a12.45,12.45,0,0,0,6.22-1.69l100.92-58.46a12.36,12.36,0,0,0,3.95-3.62A12.45,12.45,0,0,0,256.36,219.13Z"/><path class="cls-29" d="M255.37,219.13,154.45,160.67a12.48,12.48,0,0,0-6.22-1.69V286.51a12.48,12.48,0,0,0,6.22-1.69l100.92-58.46a12.47,12.47,0,0,0,3.95-3.62A12.56,12.56,0,0,0,255.37,219.13Z"/><path class="cls-30" d="M254.38,219.13,153.45,160.67a12.45,12.45,0,0,0-6.22-1.69V286.51a12.45,12.45,0,0,0,6.22-1.69l100.93-58.46a12.47,12.47,0,0,0,3.95-3.62A12.56,12.56,0,0,0,254.38,219.13Z"/><path class="cls-31" d="M253.38,219.13,152.46,160.67a12.48,12.48,0,0,0-6.22-1.69V286.51a12.48,12.48,0,0,0,6.22-1.69l100.92-58.46a12.36,12.36,0,0,0,3.95-3.62A12.45,12.45,0,0,0,253.38,219.13Z"/><path class="cls-32" d="M252.39,219.13,151.46,160.67a12.41,12.41,0,0,0-6.21-1.69V286.51a12.41,12.41,0,0,0,6.21-1.69l100.93-58.46a12.47,12.47,0,0,0,3.95-3.62A12.56,12.56,0,0,0,252.39,219.13Z"/><path class="cls-33" d="M251.4,219.13,150.47,160.67a12.45,12.45,0,0,0-6.22-1.69V286.51a12.45,12.45,0,0,0,6.22-1.69L251.4,226.36a12.47,12.47,0,0,0,3.95-3.62A12.56,12.56,0,0,0,251.4,219.13Z"/><path class="cls-34" d="M250.4,219.13,149.48,160.67a12.48,12.48,0,0,0-6.22-1.69V286.51a12.48,12.48,0,0,0,6.22-1.69L250.4,226.36a12.36,12.36,0,0,0,3.95-3.62A12.45,12.45,0,0,0,250.4,219.13Z"/><path class="cls-35" d="M249.41,219.13,148.48,160.67a12.41,12.41,0,0,0-6.21-1.69V286.51a12.41,12.41,0,0,0,6.21-1.69l100.93-58.46a12.47,12.47,0,0,0,4-3.62A12.56,12.56,0,0,0,249.41,219.13Z"/><path class="cls-36" d="M248.42,219.13,147.49,160.67a12.45,12.45,0,0,0-6.22-1.69V286.51a12.45,12.45,0,0,0,6.22-1.69l100.93-58.46a12.33,12.33,0,0,0,3.94-3.62A12.41,12.41,0,0,0,248.42,219.13Z"/><path class="cls-37" d="M247.42,219.13,146.5,160.67a12.48,12.48,0,0,0-6.22-1.69V286.51a12.48,12.48,0,0,0,6.22-1.69l100.92-58.46a12.36,12.36,0,0,0,4-3.62A12.45,12.45,0,0,0,247.42,219.13Z"/><path class="cls-38" d="M246.43,219.13,145.5,160.67a12.41,12.41,0,0,0-6.21-1.69V286.51a12.41,12.41,0,0,0,6.21-1.69l100.93-58.46a12.47,12.47,0,0,0,3.95-3.62A12.56,12.56,0,0,0,246.43,219.13Z"/><path class="cls-39" d="M245.44,219.13,144.51,160.67a12.45,12.45,0,0,0-6.22-1.69V286.51a12.45,12.45,0,0,0,6.22-1.69l100.93-58.46a12.33,12.33,0,0,0,3.94-3.62A12.41,12.41,0,0,0,245.44,219.13Z"/><path class="cls-40" d="M244.44,219.13,143.52,160.67A12.48,12.48,0,0,0,137.3,159V286.51a12.48,12.48,0,0,0,6.22-1.69l100.92-58.46a12.36,12.36,0,0,0,3.95-3.62A12.45,12.45,0,0,0,244.44,219.13Z"/><path class="cls-41" d="M243.45,219.13,142.52,160.67a12.44,12.44,0,0,0-6.21-1.69V286.51a12.44,12.44,0,0,0,6.21-1.69l100.93-58.46a12.47,12.47,0,0,0,4-3.62A12.56,12.56,0,0,0,243.45,219.13Z"/><path class="cls-42" d="M242.46,219.13,141.53,160.67a12.45,12.45,0,0,0-6.22-1.69V286.51a12.45,12.45,0,0,0,6.22-1.69l100.93-58.46a12.33,12.33,0,0,0,3.94-3.62A12.41,12.41,0,0,0,242.46,219.13Z"/><path class="cls-43" d="M241.46,219.13,140.54,160.67a12.48,12.48,0,0,0-6.22-1.69V286.51a12.48,12.48,0,0,0,6.22-1.69l100.92-58.46a12.36,12.36,0,0,0,3.95-3.62A12.45,12.45,0,0,0,241.46,219.13Z"/><path class="cls-44" d="M240.47,219.13,139.54,160.67a12.44,12.44,0,0,0-6.21-1.69V286.51a12.44,12.44,0,0,0,6.21-1.69l100.93-58.46a12.47,12.47,0,0,0,3.95-3.62A12.56,12.56,0,0,0,240.47,219.13Z"/><path class="cls-45" d="M239.48,219.13,138.55,160.67a12.45,12.45,0,0,0-6.22-1.69V286.51a12.45,12.45,0,0,0,6.22-1.69l100.93-58.46a12.33,12.33,0,0,0,3.94-3.62A12.41,12.41,0,0,0,239.48,219.13Z"/><path class="cls-46" d="M238.48,219.13,137.56,160.67a12.48,12.48,0,0,0-6.22-1.69V286.51a12.48,12.48,0,0,0,6.22-1.69l100.92-58.46a12.36,12.36,0,0,0,4-3.62A12.45,12.45,0,0,0,238.48,219.13Z"/><path class="cls-47" d="M237.49,219.13,136.56,160.67a12.44,12.44,0,0,0-6.21-1.69V286.51a12.44,12.44,0,0,0,6.21-1.69l100.93-58.46a12.47,12.47,0,0,0,3.95-3.62A12.56,12.56,0,0,0,237.49,219.13Z"/><path class="cls-48" d="M236.49,219.13,135.57,160.67a12.45,12.45,0,0,0-6.22-1.69V286.51a12.45,12.45,0,0,0,6.22-1.69l100.92-58.46a12.36,12.36,0,0,0,3.95-3.62A12.45,12.45,0,0,0,236.49,219.13Z"/><path class="cls-49" d="M235.5,219.13,134.58,160.67a12.48,12.48,0,0,0-6.22-1.69V286.51a12.48,12.48,0,0,0,6.22-1.69L235.5,226.36a12.47,12.47,0,0,0,3.95-3.62A12.56,12.56,0,0,0,235.5,219.13Z"/><path class="cls-50" d="M234.51,219.13,133.58,160.67a12.44,12.44,0,0,0-6.21-1.69V286.51a12.44,12.44,0,0,0,6.21-1.69l100.93-58.46a12.47,12.47,0,0,0,4-3.62A12.56,12.56,0,0,0,234.51,219.13Z"/><path class="cls-51" d="M233.51,219.13,132.59,160.67a12.45,12.45,0,0,0-6.22-1.69V286.51a12.45,12.45,0,0,0,6.22-1.69l100.92-58.46a12.36,12.36,0,0,0,4-3.62A12.45,12.45,0,0,0,233.51,219.13Z"/><path class="cls-52" d="M232.52,219.13,131.6,160.67a12.48,12.48,0,0,0-6.22-1.69V286.51a12.48,12.48,0,0,0,6.22-1.69l100.92-58.46a12.47,12.47,0,0,0,3.95-3.62A12.56,12.56,0,0,0,232.52,219.13Z"/><path class="cls-53" d="M231.53,219.13,130.6,160.67a12.44,12.44,0,0,0-6.21-1.69V286.51a12.44,12.44,0,0,0,6.21-1.69l100.93-58.46a12.47,12.47,0,0,0,3.95-3.62A12.56,12.56,0,0,0,231.53,219.13Z"/><path class="cls-54" d="M230.53,219.13,129.61,160.67a12.45,12.45,0,0,0-6.22-1.69V286.51a12.45,12.45,0,0,0,6.22-1.69l100.92-58.46a12.36,12.36,0,0,0,3.95-3.62A12.45,12.45,0,0,0,230.53,219.13Z"/><path class="cls-55" d="M229.54,219.13,128.62,160.67A12.48,12.48,0,0,0,122.4,159V286.51a12.48,12.48,0,0,0,6.22-1.69l100.92-58.46a12.47,12.47,0,0,0,4-3.62A12.56,12.56,0,0,0,229.54,219.13Z"/><path class="cls-56" d="M228.55,219.13,127.62,160.67a12.44,12.44,0,0,0-6.21-1.69V286.51a12.44,12.44,0,0,0,6.21-1.69l100.93-58.46a12.47,12.47,0,0,0,3.95-3.62A12.56,12.56,0,0,0,228.55,219.13Z"/><path class="cls-57" d="M227.55,219.13,126.63,160.67a12.45,12.45,0,0,0-6.22-1.69V286.51a12.45,12.45,0,0,0,6.22-1.69l100.92-58.46a12.36,12.36,0,0,0,3.95-3.62A12.45,12.45,0,0,0,227.55,219.13Z"/><path class="cls-58" d="M226.56,219.13,125.64,160.67a12.48,12.48,0,0,0-6.22-1.69V286.51a12.48,12.48,0,0,0,6.22-1.69l100.92-58.46a12.47,12.47,0,0,0,3.95-3.62A12.56,12.56,0,0,0,226.56,219.13Z"/><path class="cls-59" d="M225.57,219.13,124.64,160.67a12.44,12.44,0,0,0-6.21-1.69V286.51a12.44,12.44,0,0,0,6.21-1.69l100.93-58.46a12.47,12.47,0,0,0,4-3.62A12.56,12.56,0,0,0,225.57,219.13Z"/><path class="cls-60" d="M224.57,219.13,123.65,160.67a12.45,12.45,0,0,0-6.22-1.69V286.51a12.45,12.45,0,0,0,6.22-1.69l100.92-58.46a12.36,12.36,0,0,0,4-3.62A12.45,12.45,0,0,0,224.57,219.13Z"/><path class="cls-61" d="M223.58,219.13,122.66,160.67a12.48,12.48,0,0,0-6.22-1.69V286.51a12.48,12.48,0,0,0,6.22-1.69l100.92-58.46a12.47,12.47,0,0,0,3.95-3.62A12.56,12.56,0,0,0,223.58,219.13Z"/><path class="cls-62" d="M222.59,219.13,121.66,160.67a12.44,12.44,0,0,0-6.21-1.69V286.51a12.44,12.44,0,0,0,6.21-1.69l100.93-58.46a12.47,12.47,0,0,0,3.95-3.62A12.56,12.56,0,0,0,222.59,219.13Z"/><path class="cls-63" d="M221.59,219.13,120.67,160.67a12.45,12.45,0,0,0-6.22-1.69V286.51a12.45,12.45,0,0,0,6.22-1.69l100.92-58.46a12.36,12.36,0,0,0,3.95-3.62A12.45,12.45,0,0,0,221.59,219.13Z"/><path d="M220.6,219.13,119.68,160.67a12.48,12.48,0,0,0-6.22-1.69V286.51a12.48,12.48,0,0,0,6.22-1.69L220.6,226.36a12.47,12.47,0,0,0,4-3.62A12.56,12.56,0,0,0,220.6,219.13Z"/></g><path class="cls-64" d="M113.46,157,0,91.3V215.52a12.52,12.52,0,0,0,6.25,10.84l100.93,58.46a12.53,12.53,0,0,0,12.56,0l100.93-58.46a12.52,12.52,0,0,0,6.25-10.84V91.3Z"/><path class="cls-65" d="M0,91.3V215.52a12.52,12.52,0,0,0,6.25,10.84l100.93,58.46a12.46,12.46,0,0,0,6.28,1.69V157Z"/><path class="cls-66" d="M113.46,286.51a12.46,12.46,0,0,0,6.28-1.69l100.93-58.46a12.52,12.52,0,0,0,6.25-10.84V91.3L113.46,157Z"/><polygon class="cls-64" points="113.46 25.58 0 91.3 113.46 157.02 226.92 91.3 113.46 25.58"/><g class="cls-67"><g class="cls-68"><path d="M33.24,208.59v-8.45L41,197.61c13-4.14,19.39-7.18,19.57-14.06,0-4.87-2.94-10.43-9.83-14.4a18.28,18.28,0,0,0-12.77-2.42l-4-12.29c4.5-.8,11.49.47,19.57,5.14,13.51,7.8,20.95,20,20.95,30.84,0,10-7.26,13.82-15.9,16.55l-5.51,1.41v.18l22.51,13V233Z"/></g><path class="cls-69" d="M31.24,207.59v-8.45L39,196.61c13-4.14,19.39-7.18,19.57-14.06,0-4.87-2.94-10.43-9.83-14.4a18.28,18.28,0,0,0-12.77-2.42l-4-12.29c4.5-.8,11.49.47,19.57,5.14,13.51,7.8,20.95,20,20.95,30.84,0,10-7.26,13.82-15.9,16.55l-5.51,1.41v.18l22.51,13V232Z"/></g><ellipse class="cls-70" cx="113.46" cy="102.76" rx="49.27" ry="5.79"/><path class="cls-71" d="M156.9,76.55a4.53,4.53,0,0,1-1.55,5.92l-26.81,18.21a11.46,11.46,0,0,1-10,1.38L99.17,95.61a11.36,11.36,0,0,0-9.07.83L78.19,78.56l9.3-5.72a17.8,17.8,0,0,1,15-1.71L126,79a5.1,5.1,0,0,1,3.2,6.5l0,.07a5.12,5.12,0,0,1-4.8,3.38,5.31,5.31,0,0,1-1.36-.19l-17-5.62a1.47,1.47,0,0,0-1.85.94,1.45,1.45,0,0,0,.93,1.84l17.09,5.63.06,0a8.18,8.18,0,0,0,2.18.3,8,8,0,0,0,7.36-4.83L150.5,74.91a4.5,4.5,0,0,1,6.4,1.64Z"/><path class="cls-71" d="M89.24,100.42a.54.54,0,0,1,.07.36.47.47,0,0,1-.21.31l-3.87,2.57a.49.49,0,0,1-.36.08.55.55,0,0,1-.3-.21L69.57,81a.48.48,0,0,1,.14-.66l3.87-2.58a.48.48,0,0,1,.26-.08h.1a.47.47,0,0,1,.3.2Z"/><path class="cls-72" d="M156.9,76.55a4.53,4.53,0,0,1-1.55,5.92l-26.81,18.21a11.46,11.46,0,0,1-10,1.38L99.17,95.61a11.36,11.36,0,0,0-9.07.83L78.19,78.56l9.3-5.72a17.8,17.8,0,0,1,15-1.71L126,79a5.1,5.1,0,0,1,3.2,6.5l0,.07a5.12,5.12,0,0,1-4.8,3.38,5.31,5.31,0,0,1-1.36-.19l-17-5.62a1.47,1.47,0,0,0-1.85.94,1.45,1.45,0,0,0,.93,1.84l17.09,5.63.06,0a8.18,8.18,0,0,0,2.18.3,8,8,0,0,0,7.36-4.83L150.5,74.91a4.5,4.5,0,0,1,6.4,1.64Z"/><path class="cls-72" d="M89.24,100.42a.54.54,0,0,1,.07.36.47.47,0,0,1-.21.31l-3.87,2.57a.49.49,0,0,1-.36.08.55.55,0,0,1-.3-.21L69.57,81a.48.48,0,0,1,.14-.66l3.87-2.58a.48.48,0,0,1,.26-.08h.1a.47.47,0,0,1,.3.2Z"/><path class="cls-69" d="M152.24,28.17a.8.8,0,0,1-.3.92L129.81,45.17a1.46,1.46,0,0,0-.53,1.64l8.45,26a.82.82,0,0,1-.3.93.8.8,0,0,1-1,0L114.32,57.67a1.47,1.47,0,0,0-1.72,0L99.21,67.41a20.58,20.58,0,0,0-8.51.79l7-21.39a1.46,1.46,0,0,0-.53-1.64L75,29.09a.82.82,0,0,1,.49-1.49h27.35a1.46,1.46,0,0,0,1.39-1l8.46-26a.77.77,0,0,1,.78-.57.79.79,0,0,1,.79.57l8.45,26a1.47,1.47,0,0,0,1.39,1h27.36A.8.8,0,0,1,152.24,28.17Z"/></g></g></g></svg>