<?xml version="1.0" encoding="UTF-8"?>
<svg id="Layer_1" data-name="Layer 1" xmlns="http://www.w3.org/2000/svg" viewBox="0 0 58.28 60.14">
  <defs>
    <style>
      .cls-1 {
        stroke: #231f20;
      }

      .cls-1, .cls-2 {
        stroke-width: 2px;
      }

      .cls-1, .cls-2, .cls-3 {
        fill: none;
        stroke-linecap: round;
        stroke-linejoin: round;
      }

      .cls-2, .cls-3 {
        stroke: #4169ea;
      }

      .cls-3 {
        stroke-width: 2px;
      }
    </style>
  </defs>
  <path class="cls-1" d="M32.64,59.14H1v-3.8c0-6.96,5.64-12.59,12.59-12.59h6.45c6.96,0,12.59,5.64,12.59,12.59v3.8h0Z"/>
  <circle class="cls-1" cx="16.82" cy="34.09" r="8.67"/>
  <path class="cls-1" d="M28.71,39.99c2.31-2.67,5.72-4.36,9.53-4.36h6.45c6.96,0,12.59,5.64,12.59,12.59v3.8h-25.09"/>
  <path class="cls-1" d="M50.12,26.96c0-4.79-3.88-8.67-8.66-8.67s-8.67,3.88-8.67,8.67,3.88,8.66,8.67,8.66c4.78,0,8.66-3.87,8.66-8.66Z"/>
  <circle class="cls-3" cx="23.47" cy="10.18" r="9.18"/>
  <g>
    <path class="cls-2" d="M23.46,5.61v9.13"/>
    <path class="cls-2" d="M28.03,10.17h-9.13"/>
  </g>
  <path class="cls-1" d="M36.02,56.96h16.83"/>
</svg>