<?xml version="1.0" encoding="utf-8"?>
<!-- Generator: Adobe Illustrator 22.0.1, SVG Export Plug-In . SVG Version: 6.00 Build 0)  -->
<svg version="1.1" id="Layer_1" xmlns="http://www.w3.org/2000/svg" xmlns:xlink="http://www.w3.org/1999/xlink" x="0px" y="0px"
	 viewBox="0 0 400 400" style="enable-background:new 0 0 400 400;" xml:space="preserve">
<style type="text/css">
	.st0{fill:#042D46;}
	.st1{fill:#4169EA;}
</style>
<g>
	<path class="st0" d="M392,244.5c-2,3.1-5.3,3.5-8.5,3.9c-10.7,1.3-21.3,2.6-32,3.6c-2.9,0.3-4,1.6-5,4.1
		c-8.2,21.6-20.5,40.6-37.2,56.6C284,336.9,254,352.1,219,355.7C157,362,107.6,339.2,70.9,289c-2.4-3.3-4.7-4.1-8.4-3.7
		c-15.7,2-31.5,3.8-47.2,5.7c-3.1,0.4-5.3-1.1-7.3-3c0-44,0-88,0-132c1.5-2,3.4-3.1,6-3.4c11.4-1.3,22.8-2.9,34.2-4
		c3.2-0.3,4.4-1.8,5.5-4.5c16.3-41.4,45.1-70.8,85.8-88.5c20.7-9,42.5-12.9,65-12.2c27.2,0.9,52.7,8.3,76.1,22.3
		c2.3,1.4,4.3,3,4.3,6.1c0,4.8-4.9,7.4-9.5,4.9c-5.5-3-10.9-6.1-16.6-8.7c-21.8-9.7-44.7-14.2-68.3-12.1
		C133.4,61,92.2,89.7,67.6,141.8c-2,4.2-1.7,4.5,3,4.2c0.5,0,1-0.2,1.5-0.1c8.8,0.6,13.1-4,17.6-11.4c21.7-35.9,53.7-57.1,95.5-61.8
		c44.6-5,82,10.1,112,43.5c2.2,2.5,4.5,3.3,7.5,2.8c3.6-0.5,7.2-1.1,10.8-1.3c2.9-0.2,2.3-1.3,1.1-2.9c-5.2-6.9-10.7-13.5-17.1-19.4
		c-1.8-1.7-3.7-3.3-5.5-5.1c-2.7-2.7-2.8-6.3-0.6-8.7c2.4-2.6,5.6-2.7,8.7-0.1c10.5,8.8,19.5,19,27.1,30.4c2,3,4.1,3.9,7.4,3.4
		c15.9-2,31.7-3.8,47.6-5.7c3.2-0.4,5.6,0.9,7.7,3C392,156.5,392,200.5,392,244.5z M285.1,121c-0.5-0.9-0.6-1.3-0.9-1.6
		c-0.8-0.9-1.7-1.8-2.6-2.7c-34-31.3-73.4-40.8-117.6-27.3c-27.1,8.3-47.9,25.4-63,49.3c-0.6,0.9-1.7,1.9-1.1,3
		c0.6,1.1,2.1,0.6,3.1,0.5c4.8-0.5,9.7-1.1,14.5-1.6c4.2-0.4,7.3,1.8,7.7,5.3c0.3,3.3-2.1,6-6.3,6.5c-9,1.1-18.1,2.1-27.1,3.2
		c-22.7,2.7-45.3,5.4-68,7.9c-3.3,0.4-4.2,1.4-4.2,4.6c0.1,15,0.1,30,0.1,45c0,20.4,0,40.7,0,61.1c0,2.5,0.3,4.1,3.5,3.7
		c9-1.1,18.1-2.1,27.1-3.2c20.3-2.4,40.6-4.8,61-7.2c20.6-2.4,41.2-4.7,61.7-7c20.6-2.4,41.1-4.8,61.7-7.2c20.3-2.4,40.7-4.6,61-7
		c26.9-3.1,53.8-6.4,80.7-9.4c3.5-0.4,4.3-1.6,4.3-4.8c-0.1-35.1-0.1-70.2-0.1-105.4c0-4.5-0.3-4.6-4.7-4
		c-11.8,1.4-23.5,2.8-35.3,4.2c-18.3,2.1-36.7,4.2-55,6.3c-20.7,2.4-41.4,4.8-62.1,7.2c-18.3,2.1-36.7,4.3-55,6.4
		c-8.4,1-16.9,1.9-25.3,2.6c-3.6,0.3-5.8-2-6.1-5.2c-0.3-3.1,1.7-5.7,5.1-6.4c1.6-0.3,3.2-0.5,4.8-0.7c16.2-1.9,32.5-3.7,48.7-5.5
		c20.8-2.4,41.6-4.8,62.5-7.3C266.8,123.2,275.7,122.1,285.1,121z M199.8,344.9c8.3,0.1,16.5-0.7,24.7-2.1
		c27.9-4.8,52.5-16.8,73.4-35.9c15.2-13.9,26.9-30.5,35.1-49.5c1.2-2.7,0.3-3.4-2.3-3.1c-3.7,0.4-7.4,1-11.2,1.2
		c-2.8,0.1-4.1,1.5-5.3,3.8c-8.5,16.6-20.2,30.6-34.8,42.1c-4.8,3.8-8.3,4.1-10.8,1c-2.6-3.2-1.4-6.8,3.5-10.6
		c10.9-8.6,20-18.8,27.3-30.6c0.5-0.8,1.5-1.7,0.9-2.7c-0.6-1-1.8-0.4-2.8-0.4c-0.9,0-1.7,0.2-2.6,0.3c-11.8,1.4-23.5,2.8-35.3,4.1
		c-16.2,1.9-32.5,3.7-48.7,5.6c-18.2,2.1-36.4,4.3-54.6,6.4c-12.9,1.5-25.8,3-38.7,4.5c-0.7,0.1-1.7-0.2-2,0.7
		c-0.3,0.8,0.5,1.4,1,1.9c2.4,2.2,4.6,4.5,7.1,6.6c28.2,23.9,60.7,32.5,97.1,26.6c10.1-1.6,19.6-4.9,28.9-9.1c4-1.8,7.6-0.6,8.9,2.7
		c1.3,3.3-0.1,6.3-3.9,8.2c-13.9,6.7-28.6,10.7-43.9,11.8c-39.6,2.7-74.1-9.6-101.9-38c-7-7.2-13.3-10.8-22.8-7.7
		c-1.1,0.4-2.9-0.5-3.4,0.8c-0.6,1.4,1,2.4,1.8,3.4C113.4,325,152.2,343.8,199.8,344.9z"/>
	<path class="st1" d="M233.1,238.9c0,5.2-4.6,7.9-9.3,5.6c-6.7-3.3-13.4-6.8-19.9-10.4c-2.7-1.5-5-1.4-7.7,0
		c-6.1,3.4-12.4,6.5-18.6,9.8c-2.6,1.4-5.3,2.5-8.1,0.4c-2.6-2-2.8-4.7-2.2-7.8c1.4-7.1,2.4-14.3,3.7-21.4c0.5-2.6-0.1-4.5-2.1-6.3
		c-5.3-4.9-10.4-10-15.6-15.1c-2.2-2.1-3.8-4.4-2.7-7.6c1.1-3,3.6-3.9,6.5-4.3c7-0.9,14.1-2.1,21.1-3c3-0.4,4.8-1.7,6.1-4.6
		c3-6.5,6.3-12.8,9.4-19.2c1.3-2.6,3-4.7,6.2-4.7c3.2,0,4.9,2.1,6.1,4.7c3.1,6.4,6.5,12.7,9.4,19.2c1.4,3.1,3.5,4.2,6.6,4.6
		c6.9,0.9,13.8,2,20.7,2.9c3.1,0.4,5.6,1.5,6.5,4.7c0.9,3.1-0.8,5.3-2.8,7.2c-5.1,4.9-10.2,10-15.4,14.8c-2.2,2-2.8,4.1-2.2,7
		C230.5,223.5,231.8,231.3,233.1,238.9z M230.2,192.3c-5.3-0.8-10-1.8-14.7-2.2c-4.6-0.3-7.2-2.7-9-6.7c-1.9-4.3-4.1-8.4-6.5-13.4
		c-2.6,5.2-4.9,9.6-7,14.1c-1.6,3.5-4,5.3-7.9,5.9c-5,0.7-10.1,1-15.3,2.6c4,4,7.6,7.7,11.4,11.4c2.2,2.2,3.2,4.6,2.6,7.7
		c-0.9,4.3-1.5,8.6-2.2,12.9c-0.1,0.8-0.4,1.9,0.3,2.5c0.8,0.6,1.7-0.1,2.4-0.4c3.7-1.9,7.4-3.7,10.9-5.8c3.3-1.9,6.3-1.8,9.5,0
		c3.4,1.9,6.8,3.7,10.3,5.4c0.9,0.5,1.9,1.6,3,0.6c0.8-0.7,0.3-1.9,0.2-2.9c-0.7-3.9-1.2-7.9-2.1-11.8c-0.8-3.6,0.3-6.2,2.9-8.7
		C222.8,200.2,226.2,196.4,230.2,192.3z"/>
	<path class="st1" d="M70,234.6c0.5-3.2,1-7.2,1.9-11.1c0.4-1.8-0.1-3.1-1.4-4.3c-2.6-2.5-5.4-4.9-7.8-7.5c-4.4-4.7-2.7-9.7,3.6-11
		c2.6-0.5,5.2-1.2,7.8-1.2c4.2,0,6.7-1.9,8.1-5.8c0.8-2.3,2.2-4.5,3.3-6.7c1.2-2.5,2.9-4.3,6-4.3c3.1,0,4.8,1.9,6,4.3
		c1.5,2.9,2.9,5.8,4.2,8.8c1,2.2,2.5,3.2,4.9,3.4c3.5,0.4,6.9,0.9,10.4,1.5c5.5,1.1,7.2,6.3,3.5,10.5c-2.4,2.7-5,5.2-7.7,7.6
		c-1.7,1.5-2.2,3.1-1.7,5.3c0.7,3.5,1.3,7.1,1.8,10.7c0.7,5.4-3.9,8.8-8.9,6.5c-3.4-1.6-6.7-3.4-9.9-5.2c-1.9-1.1-3.4-0.9-5.2,0.1
		c-3.1,1.8-6.3,3.5-9.6,5C74.1,243.6,69.9,240.8,70,234.6z M102.5,211.2c-5.6-0.4-9-3.2-11.2-9.4c-2,6.5-5.9,8.9-12.5,9.1
		c5,3.5,6.8,7.2,5.4,12c-0.4,1.2,0.6,1.7,1.5,1.1c3.6-2.3,7.1-2.6,10.8-0.1c1.1,0.7,2.2,0.2,1.8-1.2C96.8,218,99,214.6,102.5,211.2z
		"/>
	<path class="st1" d="M287.2,206.4c0.6-3.6,1.1-7.6,1.9-11.5c0.4-2.1-0.2-3.5-1.7-4.9c-2.4-2.2-4.6-4.5-7-6.8
		c-2.2-2-3.3-4.4-2.3-7.4c1-2.9,3.4-3.8,6.1-4.2c3.2-0.5,6.4-1,9.6-1.4c2.2-0.2,3.6-1.3,4.5-3.3c1.3-3,2.9-5.8,4.3-8.7
		c1.2-2.5,2.9-4.5,5.9-4.5c3.1,0,4.9,2,6.2,4.7c1.2,2.5,2.7,4.8,3.6,7.4c1.2,3.3,3.5,4.5,6.7,4.8c3,0.3,6,0.6,8.9,1.2
		c6,1.2,7.6,6.4,3.5,10.8c-2.4,2.6-4.9,5-7.5,7.4c-1.6,1.5-2.3,2.9-1.8,5.3c0.8,3.1,1.2,6.4,1.7,9.6c0.4,2.8,0.4,5.6-2.4,7.4
		c-2.5,1.6-5.2,1.4-7.4-0.3c-7.7-5.8-15-5.7-23-0.1C292.2,215.4,287,212.2,287.2,206.4z M316,195.1c-1.6-4.4-0.8-8.3,3.2-11.4
		c1.3-1,0.5-1.9-0.8-1.9c-4-0.1-6.8-2-8.4-5.7c-0.9-2.1-1.9-1.5-2.7,0.2c-1.5,3.5-4,5.3-7.8,5.5c-2,0.1-2.6,1-1,2.4
		c2.9,2.5,4.3,5.4,3.1,9.3c-0.6,1.8,0.2,2.8,2.1,1.6c3.5-2.2,6.8-2,10.2,0.2C314.4,195.5,315,195.8,316,195.1z"/>
	<path class="st1" d="M200,123.2c-9.7,0-19.5,0.1-29.2,0c-4,0-6.6-2.3-6.8-5.6c-0.2-3.2,2.3-5.8,6-6.4c1.2-0.2,2.5-0.2,3.7-0.2
		c6.1,0,12.2,0,18.4,0c11.1,0,22.2,0,33.3,0c1.2,0,2.5,0,3.7,0.1c4.3,0.4,7,3.1,6.8,6.5c-0.2,3.4-2.9,5.6-7.2,5.6
		C219.2,123.2,209.6,123.2,200,123.2z"/>
	<path class="st1" d="M199.8,106.2c-4.7,0-9.5,0.2-14.2-0.1c-4.2-0.2-6.6-2.8-6.4-6.3c0.2-3.5,2.8-5.6,7-5.6
		c9.2-0.1,18.4-0.1,27.7,0c4.3,0,6.8,2.2,7,5.7c0.1,3.4-2.2,6-6.5,6.2C209.5,106.4,204.6,106.2,199.8,106.2z"/>
	<path class="st1" d="M200,291c-8.9,0-17.7,0-26.6,0c-1.4,0-2.8,0-4.1-0.3c-3.3-0.7-5.5-3.4-5.3-6.3c0.2-3,2.6-5.3,6-5.6
		c1.4-0.1,2.7-0.1,4.1-0.1c17.5,0,35,0,52.5,0c1.2,0,2.5-0.1,3.7,0.1c3.2,0.4,5.4,2.3,5.6,5.6c0.2,3.3-1.7,5.4-4.9,6.2
		c-1.3,0.3-2.7,0.4-4.1,0.4C218,291,209,291,200,291z"/>
	<path class="st1" d="M200.4,295.9c4.7,0,9.5-0.1,14.2,0c3.7,0.1,6.1,2.4,6.2,5.6c0.1,3.4-2.4,6-6.2,6.1c-9.7,0.1-19.5,0.1-29.2,0
		c-3.8,0-6.3-2.7-6.2-6.1c0.1-3.3,2.5-5.6,6.2-5.6C190.4,295.8,195.4,295.9,200.4,295.9z"/>
</g>
</svg>
