<?xml version="1.0" encoding="utf-8"?>
<!-- Generator: Adobe Illustrator 22.0.1, SVG Export Plug-In . SVG Version: 6.00 Build 0)  -->
<svg version="1.1" id="Layer_1" xmlns="http://www.w3.org/2000/svg" xmlns:xlink="http://www.w3.org/1999/xlink" x="0px" y="0px"
	 viewBox="0 0 200 200" style="enable-background:new 0 0 200 200;" xml:space="preserve">
<style type="text/css">
	.st0{fill:#102E46;}
	.st1{fill:#4169EA;}
	.st2{fill:none;stroke:#4169EA;stroke-miterlimit:10;}
</style>
<g>
	<path class="st0" d="M50.3,153.7h135.6V34.8H50.3v57.3h2.2c1.3,0,2.4,1.1,2.4,2.4v33.7c0,1.3-1.1,2.4-2.4,2.4h-2.2V153.7
		L50.3,153.7z M188.2,158.4H47.9c-1.3,0-2.4-1.1-2.4-2.4v-27.9c0-1.3,1.1-2.4,2.4-2.4h2.2v-29h-2.2c-1.3,0-2.4-1.1-2.4-2.4v-62
		c0-1.3,1.1-2.4,2.4-2.4h140.3c1.3,0,2.4,1.1,2.4,2.4v123.6C190.5,157.4,189.5,158.4,188.2,158.4L188.2,158.4z"/>
	<path class="st1" d="M20.7,134h18.1v-3.4H20.7V134L20.7,134z M41.2,138.7H18.4c-1.3,0-2.4-1.1-2.4-2.4v-8.1c0-1.3,1.1-2.4,2.4-2.4
		h22.8c1.3,0,2.4,1.1,2.4,2.4v8.1C43.5,137.6,42.5,138.7,41.2,138.7L41.2,138.7z"/>
	<path class="st1" d="M25,138.7v19.9c0,2.5,2,4.6,4.6,4.6c2.5,0,4.6-2,4.6-4.6v-19.9H25L25,138.7z M29.5,167.9
		c-5.1,0-9.3-4.2-9.3-9.3v-22.3c0-1.3,1.1-2.4,2.4-2.4h13.8c1.3,0,2.4,1.1,2.4,2.4v22.3C38.8,163.7,34.6,167.9,29.5,167.9
		L29.5,167.9z"/>
	<path class="st1" d="M54.8,127.1L79,145.9l0,0c0.9,0.7,2.1,0.9,3.2,0.3c1.1-0.5,1.7-1.5,1.7-2.7V79.2c0-1.2-0.6-2.2-1.7-2.7
		s-2.3-0.4-3.2,0.3L54.8,95.6V127.1L54.8,127.1z M80.8,151.2c-1.7,0-3.4-0.6-4.7-1.6l-25-19.5c-0.6-0.4-0.9-1.1-0.9-1.9V94.5
		c0-0.7,0.3-1.4,0.9-1.9l25-19.5c2.4-1.8,5.5-2.2,8.2-0.9c2.7,1.3,4.3,4,4.3,7v64.2c0,3-1.7,5.6-4.3,7C83.1,151,82,151.2,80.8,151.2
		L80.8,151.2z"/>
	<path class="st1" d="M86.2,122.6c-1.3,0-2.4-1.1-2.4-2.4s1.1-2.4,2.4-2.4c3.1,0,5.6-2.5,5.6-5.6s-2.5-5.6-5.6-5.6
		c-1.3,0-2.4-1.1-2.4-2.4s1.1-2.4,2.4-2.4c5.7,0,10.3,4.6,10.3,10.3C96.6,118,91.9,122.6,86.2,122.6L86.2,122.6z"/>
	<path class="st1" d="M16.7,96.8c-1.4,0-2.5,1.1-2.5,2.5v24c0,1.4,1.1,2.5,2.5,2.5h33.5v-29H16.7L16.7,96.8z M52.5,130.6H16.7
		c-4,0-7.2-3.2-7.2-7.2v-24c0-4,3.2-7.2,7.2-7.2h35.8c1.3,0,2.4,1.1,2.4,2.4v33.7C54.8,129.5,53.8,130.6,52.5,130.6L52.5,130.6z"/>
	<path class="st0" d="M114.2,73.5c-0.6,0-1.2-0.2-1.7-0.7l-8.5-8.5c-0.9-0.9-0.9-2.4,0-3.3c0.9-0.9,2.4-0.9,3.3,0l8.5,8.5
		c0.9,0.9,0.9,2.4,0,3.3C115.4,73.3,114.8,73.5,114.2,73.5L114.2,73.5z"/>
	<path class="st0" d="M105.7,73.5c-0.6,0-1.2-0.2-1.7-0.7c-0.9-0.9-0.9-2.4,0-3.3l8.5-8.5c0.9-0.9,2.4-0.9,3.3,0s0.9,2.4,0,3.3
		l-8.5,8.5C106.9,73.3,106.3,73.5,105.7,73.5L105.7,73.5z"/>
	<path class="st0" d="M151.5,108.9c-0.6,0-1.2-0.2-1.7-0.7l-8.5-8.5c-0.9-0.9-0.9-2.4,0-3.3s2.4-0.9,3.3,0l8.5,8.5
		c0.9,0.9,0.9,2.4,0,3.3C152.7,108.7,152.1,108.9,151.5,108.9L151.5,108.9z"/>
	<path class="st0" d="M143,108.9c-0.6,0-1.2-0.2-1.7-0.7c-0.9-0.9-0.9-2.4,0-3.3l8.5-8.5c0.9-0.9,2.4-0.9,3.3,0
		c0.9,0.9,0.9,2.4,0,3.3l-8.5,8.5C144.2,108.7,143.6,108.9,143,108.9L143,108.9z"/>
	<path class="st0" d="M167.9,141.8c-0.6,0-1.2-0.2-1.7-0.7l-8.5-8.5c-0.9-0.9-0.9-2.4,0-3.3c0.9-0.9,2.4-0.9,3.3,0l8.5,8.5
		c0.9,0.9,0.9,2.4,0,3.3C169.2,141.6,168.5,141.8,167.9,141.8L167.9,141.8z"/>
	<path class="st0" d="M159.5,141.8c-0.6,0-1.2-0.2-1.7-0.7c-0.9-0.9-0.9-2.4,0-3.3l8.5-8.5c0.9-0.9,2.4-0.9,3.3,0
		c0.9,0.9,0.9,2.4,0,3.3l-8.5,8.5C160.7,141.6,160.1,141.8,159.5,141.8L159.5,141.8z"/>
	<path class="st1" d="M118,129.2c-2.3,0-4.2,1.9-4.2,4.2s1.9,4.2,4.2,4.2c2.3,0,4.2-1.9,4.2-4.2S120.3,129.2,118,129.2L118,129.2z
		 M118,142.3c-4.9,0-8.9-4-8.9-8.9s4-8.9,8.9-8.9s8.9,4,8.9,8.9S122.9,142.3,118,142.3L118,142.3z"/>
	<path class="st1" d="M128.1,85.4c-2.3,0-4.2,1.9-4.2,4.2c0,2.3,1.9,4.2,4.2,4.2c2.3,0,4.2-1.9,4.2-4.2
		C132.3,87.2,130.4,85.4,128.1,85.4L128.1,85.4z M128.1,98.4c-4.9,0-8.9-4-8.9-8.9s4-8.9,8.9-8.9c4.9,0,8.9,4,8.9,8.9
		S133,98.4,128.1,98.4L128.1,98.4z"/>
	<path class="st1" d="M157.2,69.7c-2.3,0-4.2,1.9-4.2,4.2c0,2.3,1.9,4.2,4.2,4.2s4.2-1.9,4.2-4.2C161.4,71.5,159.5,69.7,157.2,69.7
		L157.2,69.7z M157.2,82.7c-4.9,0-8.9-4-8.9-8.9s4-8.9,8.9-8.9s8.9,4,8.9,8.9C166.1,78.7,162.1,82.7,157.2,82.7L157.2,82.7z"/>
	<path class="st1" d="M160.8,70.8c-0.4,0-0.8-0.1-1.1-0.3c-1.1-0.6-1.6-2.1-0.9-3.2c2.8-5.1,3.5-10.9,3.5-10.9
		c0.1-1.3,1.3-2.2,2.6-2.1c1.3,0.1,2.2,1.3,2.1,2.6c0,0.3-0.7,6.7-4,12.7C162.4,70.3,161.6,70.8,160.8,70.8L160.8,70.8z"/>
	<path class="st1" d="M133.2,87.1c-0.7,0-1.4-0.3-1.9-0.9c-0.8-1-0.6-2.5,0.4-3.3c5.3-4.1,10.4-5.6,14.8-7.1
		c1.4-0.4,2.7-0.8,3.9-1.3s2.6,0.2,3,1.4c0.5,1.2-0.2,2.6-1.4,3c-1.3,0.5-2.7,0.9-4.1,1.4c-4.1,1.3-8.7,2.8-13.4,6.3
		C134.2,87,133.7,87.1,133.2,87.1L133.2,87.1z"/>
	<path class="st1" d="M117.9,129.2C117.9,129.2,117.8,129.2,117.9,129.2c-1.3,0-2.4-1.1-2.4-2.4c0.1-7.8,1.2-22.4,6.8-33
		c0.6-1.1,2-1.6,3.2-1s1.6,2,1,3.2c-5.3,10.1-6.1,25-6.2,30.9C120.2,128.2,119.1,129.2,117.9,129.2L117.9,129.2z"/>
	<path class="st1" d="M172.3,58.1c-0.8,0-1.5-0.4-2-1l-5.4-8l-6.7,7.3c-0.9,1-2.4,1-3.3,0.1c-1-0.9-1-2.4-0.1-3.3l8.7-9.4
		c0.5-0.5,1.2-0.8,1.9-0.8c0.7,0.1,1.4,0.4,1.8,1l7,10.4c0.7,1.1,0.4,2.5-0.6,3.3C173.2,58,172.8,58.1,172.3,58.1L172.3,58.1z"/>
	<path class="st0" d="M61,47.7c-1.3,0-2.4-1.1-2.4-2.4c0-1.3,1-2.4,2.3-2.4l0,0c1.3,0,2.4,1.1,2.4,2.4C63.4,46.7,62.3,47.7,61,47.7
		L61,47.7z"/>
	<path class="st0" d="M70,47.7c-1.3,0-2.4-1.1-2.4-2.4c0-1.3,1-2.4,2.3-2.4H70c1.3,0,2.4,1.1,2.4,2.4C72.4,46.7,71.3,47.7,70,47.7
		L70,47.7z M79.1,47.7c-1.3,0-2.4-1.1-2.4-2.4c0-1.3,1-2.4,2.3-2.4h0.1c1.3,0,2.4,1.1,2.4,2.4C81.4,46.7,80.4,47.7,79.1,47.7
		L79.1,47.7z M88.1,47.7c-1.3,0-2.4-1.1-2.4-2.4c0-1.3,1-2.4,2.3-2.4h0.1c1.3,0,2.4,1.1,2.4,2.4C90.5,46.7,89.4,47.7,88.1,47.7
		L88.1,47.7z M97.1,47.7c-1.3,0-2.4-1.1-2.4-2.4c0-1.3,1-2.4,2.3-2.4h0.1c1.3,0,2.4,1.1,2.4,2.4C99.5,46.7,98.4,47.7,97.1,47.7
		L97.1,47.7z M106.2,47.7c-1.3,0-2.4-1.1-2.4-2.4c0-1.3,1-2.4,2.3-2.4h0.1c1.3,0,2.4,1.1,2.4,2.4C108.5,46.7,107.5,47.7,106.2,47.7
		L106.2,47.7z M115.2,47.7c-1.3,0-2.4-1.1-2.4-2.4c0-1.3,1-2.4,2.3-2.4h0.1c1.3,0,2.4,1.1,2.4,2.4C117.6,46.7,116.5,47.7,115.2,47.7
		L115.2,47.7z M124.2,47.7c-1.3,0-2.4-1.1-2.4-2.4c0-1.3,1-2.4,2.3-2.4h0.1c1.3,0,2.4,1.1,2.4,2.4C126.6,46.7,125.5,47.7,124.2,47.7
		L124.2,47.7z"/>
	<path class="st0" d="M133.2,47.7c-1.3,0-2.4-1.1-2.4-2.4c0-1.3,1-2.4,2.3-2.4l0,0c1.3,0,2.4,1.1,2.4,2.4
		C135.6,46.7,134.5,47.7,133.2,47.7L133.2,47.7z"/>
</g>
<path class="st2" d="M49.6,130.6H14.8c-2.9,0-5.3-2.4-5.3-5.3V97.6c0-2.9,2.4-5.3,5.3-5.3h34.7c2.9,0,5.3,2.4,5.3,5.3v27.7
	C54.9,128.2,52.5,130.6,49.6,130.6z"/>
</svg>
