<?xml version="1.0" encoding="UTF-8"?>
<svg id="Layer_1" xmlns="http://www.w3.org/2000/svg" version="1.1" viewBox="0 0 512 512">
  <!-- Generator: Adobe Illustrator 29.0.0, SVG Export Plug-In . SVG Version: 2.1.0 Build 186)  -->
  <defs>
    <style>
      .st0 {
        fill: #4169ea;
      }
    </style>
  </defs>
  <path class="st0" d="M336,120c4.4,0,8-3.6,8-8v-32.1c0-4.4-3.6-8-8-8h-12.2c-.8-2.4-1.8-4.7-2.9-6.9l8.6-8.6c1.5-1.5,2.3-3.5,2.3-5.7s-.8-4.2-2.3-5.7l-22.7-22.7c-3-3-8.3-3-11.3,0l-8.6,8.6c-2.2-1.1-4.6-2-6.9-2.9v-12.2c0-4.4-3.6-8-8-8h-32.1c-4.4,0-8,3.6-8,8v12.2c-2.4.8-4.7,1.8-6.9,2.9l-8.6-8.6c-1.5-1.5-3.5-2.3-5.7-2.3s-4.2.8-5.7,2.3l-22.7,22.7c-1.5,1.5-2.3,3.5-2.3,5.7s.8,4.2,2.3,5.7l8.6,8.6c-1.1,2.3-2,4.6-2.9,7h-12.2c-4.4,0-8,3.6-8,8v32.1c0,4.4,3.6,8,8,8h12.2c.8,2.4,1.8,4.7,2.9,6.9l-8.6,8.6c-1.5,1.5-2.3,3.5-2.3,5.7s.8,4.2,2.3,5.7l22.7,22.7c3,3,8.3,3,11.3,0l8.6-8.6c2.3,1.1,4.6,2,6.9,2.9v12.2c0,4.4,3.6,8,8,8h32.1c4.4,0,8-3.6,8-8v-12.2c2.4-.8,4.7-1.8,6.9-2.9l8.6,8.6c1.5,1.5,3.5,2.3,5.7,2.3s4.2-.8,5.7-2.3l22.7-22.7c1.5-1.5,2.3-3.5,2.3-5.7s-.8-4.2-2.3-5.7l-8.6-8.6c1.1-2.2,2-4.6,2.9-6.9h12.2ZM317.9,104c-3.6,0-6.8,2.5-7.7,6-1.3,5-3.3,9.9-5.9,14.3-1.9,3.1-1.3,7.1,1.2,9.7l7.2,7.2-11.4,11.4-7.2-7.2c-2.6-2.6-6.6-3.1-9.7-1.2-4.5,2.6-9.3,4.6-14.3,5.9-3.5.9-6,4.1-6,7.7v10.1h-16.1v-10.1c0-3.6-2.5-6.8-6-7.7-5-1.3-9.9-3.3-14.3-5.9-3.2-1.9-7.1-1.3-9.7,1.2l-7.1,7.1-11.4-11.4,7.1-7.1c2.6-2.6,3.1-6.6,1.2-9.7-2.6-4.5-4.6-9.3-5.9-14.4-.9-3.5-4.1-6-7.7-6h-10.1v-16.1h10.1c3.6,0,6.8-2.5,7.7-6,1.3-5,3.3-9.9,5.9-14.4,1.9-3.1,1.3-7.1-1.2-9.7l-7.1-7.1,11.4-11.4,7.1,7.1c2.6,2.6,6.6,3.1,9.7,1.2,4.5-2.6,9.3-4.6,14.3-5.9,3.5-.9,6-4.1,6-7.7v-10.1h16.1v10.1c0,3.6,2.5,6.8,6,7.7,5.1,1.3,9.9,3.3,14.3,5.9,3.1,1.8,7.1,1.3,9.7-1.2l7.2-7.2,11.4,11.4-7.2,7.2c-2.6,2.6-3.1,6.6-1.2,9.7,2.6,4.5,4.6,9.3,5.9,14.3.9,3.5,4.1,6,7.7,6h10.2v16.1h-10.1Z"/>
  <path d="M256,56c-22.1,0-40,17.9-40,40s17.9,40,40,40,40-17.9,40-40-17.9-40-40-40ZM256,120c-13.2,0-24-10.8-24-24s10.8-24,24-24,24,10.8,24,24-10.8,24-24,24Z"/>
  <path d="M16,408h16v88c0,4.4,3.6,8,8,8h64c4.4,0,8-3.6,8-8v-163.2l73.4-40,.9.9c1.5,1.5,3.6,2.4,5.7,2.4s4.2-.9,5.7-2.4l41.5-42c11.7-11.8,11.7-31,0-42.7-11.4-11.5-31.2-11.5-42.5,0l-4.7,4.8-4.7-4.7c-11.3-11.5-31.2-11.5-42.5,0-11.7,11.8-11.7,31,0,42.7l10,10.1-49.7,24.9c4.4-6.4,7-14.2,7-22.6,0-22.1-17.9-40-40-40s-40,17.9-40,40,3.1,17.3,8.2,24h-.2c-17.6,0-32,14.4-32,32v80c0,4.4,3.6,8,8,8ZM156.1,220.2c2.6-2.7,6.2-4.2,9.9-4.2s7.2,1.5,9.9,4.2l10.4,10.5c3,3,8.4,3,11.4,0l10.4-10.5c5.3-5.4,14.5-5.4,19.8,0,5.5,5.6,5.5,14.7,0,20.2l-35.9,36.2-35.9-36.2c-5.5-5.6-5.5-14.7,0-20.2ZM72,240c13.2,0,24,10.8,24,24s-10.8,24-24,24-24-10.8-24-24,10.8-24,24-24ZM24,320c0-8.8,7.2-16,16-16h64c1.2,0,2.5-.3,3.6-.8l59-29.5,7.1,7.2-73.5,40.1c-2.6,1.4-4.2,4.1-4.2,7v160h-16v-96h-16v96h-16v-168h-16v72h-8v-72Z"/>
  <path d="M472,288h-.2c5.1-6.7,8.2-15,8.2-24,0-22.1-17.9-40-40-40s-40,17.9-40,40,2.6,16.1,7,22.6l-49.7-24.9,10-10.1c11.7-11.8,11.7-31,0-42.7-11.4-11.5-31.2-11.5-42.5,0l-4.7,4.8-4.7-4.7c-11.3-11.5-31.2-11.5-42.5,0-11.7,11.8-11.7,31,0,42.7l41.5,42c1.5,1.5,3.6,2.4,5.7,2.4s4.2-.9,5.7-2.4l.9-.9,73.4,40v163.2c0,4.4,3.6,8,8,8h64c4.4,0,8-3.6,8-8v-88h16c4.4,0,8-3.6,8-8v-80c0-17.6-14.4-32-32-32h0ZM440,240c13.2,0,24,10.8,24,24s-10.8,24-24,24-24-10.8-24-24,10.8-24,24-24ZM320,276.6l-35.9-36.2c-5.5-5.6-5.5-14.7,0-20.2,2.6-2.7,6.2-4.2,9.9-4.2s7.2,1.5,9.9,4.2l10.4,10.5c3,3,8.4,3,11.4,0l10.4-10.5c5.3-5.4,14.5-5.4,19.8,0,5.5,5.6,5.5,14.7,0,20.2l-35.9,36.2ZM488,392h-8v-72h-16v168h-16v-96h-16v96h-16v-160c0-2.9-1.6-5.6-4.2-7l-73.5-40.1,7.1-7.2,59,29.5c1.1.6,2.3.8,3.6.8h64c8.8,0,16,7.2,16,16v72Z"/>
</svg>