<?xml version="1.0" encoding="utf-8"?>
<!-- Generator: Adobe Illustrator 22.0.1, SVG Export Plug-In . SVG Version: 6.00 Build 0)  -->
<svg version="1.1" id="Layer_1" xmlns="http://www.w3.org/2000/svg" xmlns:xlink="http://www.w3.org/1999/xlink" x="0px" y="0px"
	 viewBox="0 0 400 400" style="enable-background:new 0 0 400 400;" xml:space="preserve">
<style type="text/css">
	.st0{fill:#042D46;}
	.st1{fill:#4169EA;}
</style>
<g>
	<path class="st0" d="M9.7,168.7c1.8-4.1,2.9-8.4,5.7-12.1c5.7-7.5,13.2-12,22.5-13.2c2.6-0.3,3.5-1.4,3.8-4
		c1.3-14,13.5-26.1,27.5-27.7c9.8-1.1,19.6-0.7,29.4-0.5c10.9,0.2,17.8,6.9,19.9,18.6c22.2-24.3,49.5-37.4,82.3-37.4
		c32.7,0,59.9,13,82,37.3c0.7-2.5,1.1-4.8,2-6.9c3.5-7.5,9.7-11.4,17.7-11.6c10-0.2,20.1-0.6,30.2,0.5c13.4,1.5,25.9,13.9,27,27.4
		c0.2,3,1.4,3.9,4.2,4.4c14,2.3,23,10.3,27.1,24c0.8,2.7,1,5.4,0.9,8.1c-0.2,3.5-2.8,6.1-6.1,6.4c-3.1,0.2-6.1-1.9-6.9-5.1
		c-0.4-1.6-0.6-3.2-0.8-4.8c-1.2-8-8.1-14.5-16.2-15.1c-3-0.2-6-0.1-8.9-0.5c-4.1-0.6-6-2.9-6.2-7.1c-0.2-3.3,0.2-6.7-0.6-10
		c-2-8.3-9.1-14.2-17.7-14.4c-8.2-0.1-16.4-0.1-24.6,0c-4.6,0-6.8,2.1-7.2,6.7c-0.1,1.5-0.1,3,0,4.5c0.4,4.8,2.6,6.9,7.5,7
		c5.2,0.1,10.4,0,15.7,0c5.4,0,8.6,2.5,8.7,6.6c0.1,4-3.1,6.9-8.4,7c-8.3,0.2-16.7,0.1-25,0.1c-9.8,0-19.6,0-29.5,0
		c-4.3,0-6.9,2.2-7,5.6c-0.1,3.5,2.8,6,7.1,6c11.4,0.1,22.9,0,34.3,0c1.6,0,3.2,0,4.8,0.6c2.8,1.1,4.4,3.1,4.4,6.3
		c0,3.1-1.6,5.1-4.5,6.2c-1.8,0.7-3.6,0.7-5.5,0.7c-11.4,0-22.9,0-34.3,0c-3.7,0-6.2,2.5-6.3,5.5c-0.1,3.3,2.5,5.8,6.3,6
		c1.1,0.1,2.2,0,3.4,0c10.3,0,20.6,0,31,0c1.2,0,2.5,0,3.7,0.1c3.9,0.6,6.3,3.1,6.3,6.7c0,3.6-2.2,6.2-6.1,6.8
		c-1.3,0.2-2.7,0.2-4.1,0.2c-11.2,0-22.4,0-33.6,0c-4.2,0-6.8,2.4-6.8,5.9c0,3.3,2.7,5.6,6.9,5.7c1.1,0,2.2,0,3.4,0
		c10.2,0,20.4,0,30.6,0c1.8,0,3.5,0,5.2,0.6c2.8,1,4.5,3,4.6,6.1c0.1,3.3-1.6,5.4-4.6,6.5c-1.6,0.6-3.2,0.5-4.8,0.5
		c-11.4,0-22.9-0.1-34.3,0c-5.3,0-8.2,4.2-6.2,8.3c0.9,1.8,2.2,2.9,4.3,3.2c0.9,0.1,1.7,0.1,2.6,0.1c31.1,0,62.2,0.1,93.2,0
		c10.7,0,17.3-6,18.9-16.7c0.1-1,0.3-2,0.5-2.9c0.8-3.5,3.7-5.7,7-5.5c3.5,0.3,6,3,6.1,6.8c0.6,14.2-10.9,28.4-25.4,31.3
		c-2.9,0.6-5.9,0.8-8.9,0.8c-20.4,0-40.8,0-61.2-0.1c-2.6,0-4.3,0.8-5.8,3c-23.8,33.6-56.6,50-97.5,47.5
		c-34.2-2.1-61.5-18.2-81.4-46.2c-2.2-3.1-4.4-4.3-8.2-4.3c-19.5,0.2-39-0.3-58.6,0.2c-16.5,0.4-30.6-9.1-34.5-24
		c-0.2-0.6-0.5-1.1-0.8-1.7c0-3.2,0-6.5,0-9.7c2.3-2.4,4.8-4.4,8.5-3.2c3.8,1.3,4.6,4.6,4.9,8.1c0.3,3.3,1.3,6.3,3.3,9
		c4,5.5,9.4,7.7,16.1,7.7c30.8-0.1,61.7,0,92.5,0c1,0,2,0,3-0.1c2-0.2,3.4-1.4,4.3-3.2c2-4.2-1-8.3-6.2-8.3c-11.4-0.1-22.9,0-34.3,0
		c-1.6,0-3.2,0.1-4.8-0.5c-3-1.1-4.7-3.2-4.6-6.5c0.1-3.1,1.8-5.1,4.6-6.1c1.7-0.6,3.4-0.6,5.2-0.6c8,0,15.9,0,23.9,0
		c3.9,0,7.7,0.1,11.6-0.1c3.2-0.2,4.9-2.3,5.3-5.3c0.4-2.8-1.9-5.6-4.9-6.1c-1.2-0.2-2.5-0.2-3.7-0.2c-10.3,0-20.6,0-31,0
		c-1,0-2,0-3,0c-5.1-0.2-8-2.8-8-6.9c0-4,2.9-6.5,7.8-6.8c1,0,2,0,3,0c10.1,0,20.1,0,30.2,0c1.1,0,2.2,0,3.4,0
		c3.8-0.2,6.4-2.7,6.3-6c-0.1-3.1-2.7-5.5-6.3-5.5c-11.4-0.1-22.9-0.1-34.3,0c-1.9,0-3.7,0-5.5-0.7c-2.8-1.1-4.5-3.1-4.5-6.2
		c0-3.1,1.6-5.1,4.4-6.2c1.5-0.6,3.2-0.6,4.8-0.6c10.9,0,21.9,0,32.8,0c1.2,0,2.5,0.1,3.7-0.2c3-0.7,4.7-2.8,4.8-5.8
		c0.1-2.9-2.3-5.2-5.5-5.5c-1.4-0.1-2.7-0.1-4.1-0.1c-16.3,0-32.6,0-48.9,0c-1.4,0-2.7,0-4.1-0.1c-4.6-0.6-7.4-3.3-7.3-6.9
		c0.1-3.9,3.2-6.5,8-6.6c4.6-0.1,9.2,0,13.8,0c8.4,0,10.6-2.3,10.1-10.7c-0.3-5.3-2.5-7.5-7.7-7.5c-8,0-15.9-0.1-23.9,0
		C64.2,125,57.1,131,55.1,140c-0.6,3-0.3,5.9-0.5,8.9c-0.2,4.6-2.1,6.9-6.6,7.6c-1.7,0.3-3.5,0.3-5.2,0.3
		c-11.5,0.2-17.9,5.7-19.8,17.1c-0.3,1.7-0.4,3.5-1.4,5c-2.8,4.1-7.2,4-12-0.4C9.7,175.2,9.7,171.9,9.7,168.7z M203.1,295.8
		c12-0.1,26.4-3.1,39.8-9.9c12-6,22.5-14.1,31-24.6c0.5-0.6,1.5-1.2,1.1-2.2c-0.4-1-1.5-0.5-2.4-0.6c-2.7-0.1-5.5,0-8.2,0
		c-15.7-0.4-24.5-16.5-16.4-29.9c1.1-1.8,1-2.9-0.1-4.6c-4-6.6-4.1-13.4-0.3-20.2c1.2-2.1,1.3-3.6,0.1-5.7
		c-3.9-6.7-3.8-13.5,0.2-20.2c1.1-1.9,1.2-3,0-5c-8.1-13.2,0.8-29.3,16.3-29.7c2.9-0.1,5.7,0,8.6,0c0.7,0,1.6,0.3,2.1-0.4
		c0.6-1-0.4-1.6-0.9-2.2c-19.2-22.9-44-34.4-73.7-34.7c-18.1-0.2-35.1,4.9-50.5,14.8c-8.5,5.5-16.2,12-22.5,20
		c-0.5,0.6-1.6,1.3-0.9,2.2c0.3,0.4,1.3,0.4,2.1,0.4c2.9,0.1,5.7,0,8.6,0c15.5,0.4,24.3,16.6,16.3,29.8c-1.2,1.9-1,3.1,0.1,5
		c3.9,6.5,4,13.2,0.3,19.8c-1.2,2.2-1.4,3.8-0.1,6.1c3.8,6.5,3.7,13.3-0.2,19.8c-1.2,2-1.2,3.2,0,5.3c7.9,13-1,29.1-16.2,29.6
		c-3,0.1-6,0-8.9,0.1c-0.7,0-1.6-0.3-2,0.6c-0.3,0.8,0.5,1.3,0.9,1.9c4.3,5.4,9.2,10.1,14.6,14.3C159,288.7,178.5,295.5,203.1,295.8
		z"/>
	<path class="st1" d="M9.7,325.4c1.9-3.1,4.7-4.1,8.2-4c6.3,0.1,12.7-0.1,19,0.1c3.1,0.1,4.1-1.1,4-4.1c-0.1-12.2-0.1-24.4,0-36.5
		c0-1.7,0.1-3.5,0.6-5.2c0.9-3.4,3.5-5.2,6.9-5c3.5,0.2,5.3,2.4,6.1,5.6c0.2,1.1,0.2,2.2,0.2,3.3c0,15.4,0,30.8,0,46.2
		c0,6.5-2.4,9-9,9.2c-3.4,0.1-6.8,0-10.2,0c-0.2,1.6,0.7,2.1,1.3,2.6c13.5,12.1,27,24.2,40.5,36.4c1.6,1.4,2.8,2,4.7,0.3
		c13.8-12.5,27.7-24.9,41.6-37.4c0.3-0.3,0.5-0.7,1-1.4c-3.5-0.8-6.7-0.3-9.8-0.4c-7.6-0.2-9.8-2.3-9.8-9.8c0-7.2,0-14.4,0-21.6
		c0-4.9,2.6-7.7,6.8-7.6c4,0.1,6.4,2.8,6.4,7.5c0.1,4.8,0.1,9.7,0,14.5c-0.1,2.4,0.9,3.3,3.3,3.3c6.6-0.1,13.2,0,19.8-0.1
		c3.8-0.1,7,0.6,8.4,4.6c1.4,3.9-0.8,6.4-3.4,8.7c-21,18.8-42,37.7-63,56.5c-0.2,0.2-0.3,0.4-0.5,0.6c-2,0-4,0-6,0
		c-18.6-16.7-37.2-33.3-55.7-50c-3.9-3.6-8.4-6.6-11.4-11.1C9.7,328.9,9.7,327.1,9.7,325.4z"/>
	<path class="st0" d="M197.7,391.8c-3-2.3-4-5.4-3.9-9.1c0.2-4.9,0-9.9,0.1-14.9c0.1-5,2.9-8.2,6.8-8.2c4,0,6.7,3.1,6.8,8.2
		c0.1,5.4,0,10.9,0,16.4c0,3.3-1.5,5.6-3.9,7.7C201.7,391.8,199.7,391.8,197.7,391.8z"/>
	<path class="st1" d="M263.5,66.5c4.4,0,7.7-0.1,11.1,0c6.9,0.2,9.1,2.5,9.2,9.3c0,7.2,0,14.4,0,21.6c0,5.1-2.3,7.9-6.4,8
		c-4,0.1-6.8-2.5-7.1-7.5c-0.3-4.6-0.3-9.2-0.1-13.8c0.1-3-0.9-4.2-4.1-4.1c-6.3,0.2-12.7,0-19,0.1c-3.7,0.1-6.7-0.8-8.1-4.5
		c-1.3-3.6,0.6-6.2,3.1-8.5c18.2-16.4,36.4-32.7,54.6-49.1c2-1.8,4-3.7,6.1-5.5c4.7-4.1,7.7-4.1,12.4,0.1
		c12.9,11.5,25.7,23.1,38.5,34.7c7.2,6.5,14.4,13,21.6,19.4c2.7,2.4,4.9,5.1,3.5,9c-1.5,4-4.9,4.4-8.6,4.4c-6.3-0.1-12.7,0.1-19-0.1
		c-2.6,0-3.6,0.9-3.5,3.5c0.1,4.3,0.1,8.7,0,13c-0.1,2.5-0.3,5-2.2,6.9c-1.9,2-4.3,2.4-6.9,1.6c-2.6-0.8-4.3-2.9-4.4-5.5
		c-0.2-8.9-0.2-17.9,0-26.8c0.1-3.7,2.8-5.8,7.2-6.1c3.9-0.3,7.9-0.1,11.8-0.1c0.1-0.3,0.3-0.7,0.4-1c-2.9-2.7-5.9-5.5-8.9-8.1
		c-11-9.9-22.1-19.7-33-29.7c-2.3-2.1-3.6-1.9-5.8,0.1c-13.3,12.1-26.8,24.1-40.2,36.1C265.2,64.6,264.8,65.1,263.5,66.5z"/>
	<path class="st0" d="M207.5,25.8c0,3,0.2,6,0,8.9c-0.3,4.5-3.2,7.4-6.9,7.3c-3.6-0.1-6.5-2.9-6.6-7.2c-0.2-6.1-0.2-12.1,0-18.2
		c0.2-4.3,3-7,6.7-7c3.8,0,6.5,2.6,6.8,6.9C207.7,19.6,207.5,22.7,207.5,25.8z"/>
	<path class="st0" d="M207.4,67.3c0,2.2,0.2,4.5-0.1,6.7c-0.5,3.7-3.5,6.2-6.8,6.1c-3.2-0.1-6.2-2.5-6.4-6.1
		c-0.3-4.6-0.4-9.2,0-13.8c0.3-3.9,3.3-6.2,6.8-6.1c3.4,0.1,5.9,2.3,6.4,6.1C207.6,62.5,207.4,64.9,207.4,67.3
		C207.4,67.3,207.4,67.3,207.4,67.3z"/>
	<path class="st0" d="M207.5,334.6c0,2.1,0.2,4.2,0,6.3c-0.5,4.1-3.2,6.6-6.8,6.5c-3.5-0.1-6.3-2.4-6.6-6.4c-0.3-4.3-0.3-8.7,0-13
		c0.3-3.9,3.3-6.6,6.8-6.5c3.5,0.1,6.3,2.8,6.7,6.8C207.7,330.4,207.5,332.5,207.5,334.6C207.5,334.6,207.5,334.6,207.5,334.6z"/>
	<path class="st1" d="M202.4,283.9c-16,0-29.4-3.6-41.9-10.5c-4-2.3-5.4-5.8-3.7-9.3c1.7-3.4,5.5-4.8,9.6-2.8
		c7.9,3.9,15.9,7,24.6,8.1c13.4,1.7,26.2,0.1,38.6-5.5c2.3-1,4.5-2.2,6.8-3c3.5-1.2,7,0.3,8.4,3.5c1.4,3.2,0.4,6.6-3.1,8.6
		c-6.4,3.7-13.1,6.6-20.3,8.4C214.6,282.9,207.8,284.2,202.4,283.9z"/>
	<path class="st1" d="M199.4,117.8c15.7,0.3,29.3,3.7,42,10.7c3.8,2.1,5.1,5.5,3.4,9.1c-1.6,3.5-5.2,4.9-9.1,3
		c-8.1-3.9-16.3-7.3-25.3-8.4c-13.2-1.7-26-0.1-38.2,5.4c-2.3,1-4.5,2.2-6.8,3.1c-3.7,1.4-7.3-0.1-8.7-3.4c-1.5-3.3-0.2-6.7,3.5-8.8
		c7.4-4.1,15.3-7,23.7-8.8C189.4,118.5,195.1,118.3,199.4,117.8z"/>
	<path class="st1" d="M166.1,203.6c0-10.4,4.9-15.6,15.1-15.8c3.1-0.1,3.7-1.3,3.8-4c0.2-8.9,5.3-14.6,13-14.9
		c12.2-0.4,17.7,3.7,18.3,14c0.2,3.7,1.2,4.9,5,4.9c9.2,0,14.2,6.2,14.1,16.5c-0.1,9.1-5.4,14.6-14.4,14.5c-3.4,0-4.4,1-4.6,4.4
		c-0.7,12.4-11.6,18.8-23.1,13.8c-6-2.6-8.5-7.6-8.3-13.9c0.1-3.3-0.9-4.3-4.3-4.3C171,218.9,166.1,213.7,166.1,203.6z M200.7,180.7
		c-2.3-0.2-3.4,0.9-3.4,3.3c0,2.1,0.1,4.2,0,6.4c-0.3,5.7-3.8,9.2-9.5,9.6c-2.1,0.1-4.2,0.1-6.4,0.1c-2.3-0.1-3.5,0.9-3.5,3.3
		c0,2.3,0.9,3.8,3.5,3.8c2.1,0,4.2,0,6.4,0c5.4,0.2,8.9,3.3,9.4,8.7c0.2,2.1,0.2,4.2,0.1,6.4c-0.1,2.7,0.9,3.9,3.7,3.8
		c2.6,0,3.5-1.2,3.4-3.7c-0.1-2.2-0.1-4.5,0-6.7c0.4-5,3.8-8.2,8.8-8.4c2.1-0.1,4.2-0.1,6.4,0c2.8,0.2,3.7-1.1,3.7-3.8
		c0-2.7-1.3-3.5-3.7-3.4c-2,0.1-4,0.1-6-0.1c-5.7-0.4-9.1-4-9.2-9.8c0-2-0.1-4,0-6C204.4,181.7,203.2,180.5,200.7,180.7z"/>
</g>
</svg>
