<?xml version="1.0" encoding="utf-8"?>
<!-- Generator: Adobe Illustrator 22.0.1, SVG Export Plug-In . SVG Version: 6.00 Build 0)  -->
<svg version="1.1" id="Layer_1" xmlns="http://www.w3.org/2000/svg" xmlns:xlink="http://www.w3.org/1999/xlink" x="0px" y="0px"
	 viewBox="0 0 200 200" style="enable-background:new 0 0 200 200;" xml:space="preserve">
<style type="text/css">
	.st0{fill:#102E46;}
	.st1{fill:#4169EA;}
</style>
<g>
	<path class="st0" d="M32,140.3c0-6,0-11.9,0-18c-2,0-3.9,0-5.9,0c-2.6-0.1-3.7-1.2-3.7-3.7c0-11-0.1-22,0-32.9
		c0-6.7,4.9-12.5,11.6-14.3c0.7-0.2,1.4-0.4,2.1-0.5c-3.8-8.9-2.7-15.2,3.2-19.9c5.2-4,12.4-4.1,17.6-0.1c6,4.6,7.1,11,3.4,19.9
		c1.3,0.4,2.6,0.7,3.8,1.2c6.1,2.4,9.9,7.8,9.9,14.4c0,10.6,0,21.3,0,31.9c0,3-1.1,4.1-4.1,4.1c-1.6,0-3.2,0-4.8,0
		c-0.1,0-0.3,0.1-0.5,0.1c0,5.8,0,11.7,0,17.5c3.5,1.3,7.1,2.5,10.5,4c5,2.2,9.5,5.3,13.1,9.6c7.4,8.9,7.2,19.8-0.6,28.4
		c-5.8,6.5-13.3,10.2-21.6,12.2c-15.9,3.9-31.4,3.2-46.2-4.2c-3.3-1.6-6.4-3.8-9-6.3c-10.6-10-10.1-23.8,0.8-33.3
		c5.4-4.8,11.8-7.7,18.7-9.6C30.7,140.7,31.3,140.5,32,140.3z M67.7,115.8c0-0.8,0-1.5,0-2.2c0-8.8,0-17.6,0-26.5
		c0-5.9-3.4-9.8-9.3-10c-6.7-0.2-13.5-0.2-20.2,0c-5.9,0.2-9.3,4.1-9.3,10c0,8.8,0,17.6,0,26.5c0,0.7,0,1.4,0,2.2c1.2,0,2.1,0,3.3,0
		c0-9.7,0-19.3,0-28.9c2.2,0,4.2,0,6.5,0c0,24.8,0,49.6,0,74.3c2.3,0,4.2,0,6.4,0c0-14,0-27.9,0-41.9c2.2,0,4.3,0,6.5,0
		c0,14,0,27.8,0,41.8c2.2,0,4.2,0,6.4,0c0-24.8,0-49.4,0-74.1c2.2,0,4.3,0,6.5,0c0,9.7,0,19.2,0,28.9
		C65.6,115.8,66.5,115.8,67.7,115.8z M32.1,147c-7.5,2.2-14.2,5.2-19,11.2c-4.9,6-4.9,13,0.2,18.7c2.4,2.7,5.3,5.1,8.4,6.7
		c12.5,6.8,26,7.9,39.7,5c7.7-1.6,14.9-4.6,20.6-10.3c6.6-6.7,6.6-14.9,0.1-21.7c-3.4-3.6-7.6-6-12.1-7.8c-1.8-0.7-3.6-1.3-5.6-1.9
		c0,4.8,0,9.3,0,13.7c0,4.3-2.5,6.9-6.9,7c-6.2,0.1-12.4,0.1-18.6,0c-4.3,0-6.9-2.6-6.9-7C32.1,156.2,32.1,151.8,32.1,147z
		 M56.4,62.4c0-4.4-3.6-8.1-8.1-8.1c-4.4,0-8.1,3.6-8.1,8.1c0,4.4,3.6,8.1,8.1,8.1C52.7,70.5,56.3,66.9,56.4,62.4z"/>
	<path class="st0" d="M135.5,140.3c0-6.1,0-11.9,0-18c-2,0-3.8,0-5.7,0c-2.8-0.1-3.9-1.2-3.9-4c0-10.6,0-21.3,0-31.9
		c0-7.3,4.6-13.2,11.6-15.1c0.7-0.2,1.4-0.4,2.1-0.5c-3.8-8.8-2.8-15.2,3.2-19.9c5.2-4,12.4-4.1,17.6-0.1c6,4.6,7.1,11,3.4,19.8
		c1.9,0.8,4,1.3,5.7,2.3c5.2,2.9,7.9,7.4,7.9,13.4c0,10.7,0,21.4,0,32.1c0,2.8-1.1,3.9-3.9,4c-1.9,0-3.7,0-5.7,0
		c0,6.1,0,11.9,0,17.7c3.5,1.3,7.1,2.5,10.5,4c5,2.2,9.5,5.3,13.1,9.6c7.5,9,7.2,19.9-0.6,28.6c-5.8,6.4-13.3,10.1-21.5,12.1
		c-15.9,4-31.5,3.2-46.4-4.2c-3.3-1.7-6.5-3.9-9.2-6.5c-10.4-9.9-9.9-23.5,0.9-33c5.4-4.8,11.8-7.7,18.6-9.7
		C134.1,140.7,134.8,140.5,135.5,140.3z M161.5,161.1c0-24.8,0-49.4,0-74.2c2.2,0,4.2,0,6.5,0c0,9.7,0,19.3,0,28.9
		c1.2,0,2.1,0,3.2,0c0-0.8,0-1.4,0-2.1c0-8.9,0-17.8,0-26.7c0-5.8-3.5-9.7-9.4-9.9c-6.7-0.2-13.3-0.2-20,0c-5.9,0.2-9.4,4-9.4,9.9
		c0,8.9,0,17.8,0,26.7c0,0.7,0,1.4,0,2.1c1.2,0,2.2,0,3.2,0c0-9.7,0-19.2,0-28.8c2.2,0,4.3,0,6.5,0c0,24.8,0,49.5,0,74.2
		c2.2,0,4.3,0,6.5,0c0-14.1,0-28,0-41.9c2.2,0,4.2,0,6.4,0c0,14,0,27.9,0,41.8C157.2,161.1,159.2,161.1,161.5,161.1z M135.6,147
		c-7.6,2.2-14.3,5.3-19.2,11.4c-4.8,6.1-4.8,13,0.5,18.7c2.4,2.6,5.3,5,8.5,6.7c13.7,7.2,28.1,8,42.9,4.1c6.6-1.8,12.8-4.7,17.6-9.8
		c6.2-6.5,6.2-14.4,0.2-20.9c-3.3-3.6-7.4-6.2-12-8c-1.9-0.8-4-1.4-6.2-2.2c0,4.9,0,9.3,0,13.7c0,4.3-2.5,6.9-6.9,7
		c-6.2,0.1-12.4,0.1-18.6,0c-4.3,0-6.9-2.6-6.9-7C135.6,156.2,135.6,151.8,135.6,147z M159.8,62.4c0-4.4-3.6-8.1-8.1-8.1
		c-4.4,0-8.1,3.6-8.1,8.1c0,4.4,3.6,8.1,8.1,8.1C156.1,70.5,159.8,66.9,159.8,62.4z"/>
	<path class="st1" d="M60.9,22.1c3.1,2.5,5.8,4.7,8.8,7.1c-1.4,1.7-2.7,3.3-4,5c-5.5-4.4-10.9-8.6-16.2-13c-1.7-1.4-1.7-3.5,0-4.9
		c5.3-4.3,10.7-8.6,16.2-13c1.4,1.7,2.7,3.3,4,5c-2.9,2.3-5.7,4.6-8.7,7c26.1,0,51.9,0,78,0c-2.9-2.4-5.7-4.6-8.7-7
		c1.3-1.6,2.6-3.2,4-5c2,1.6,3.8,3,5.7,4.5c3.4,2.7,6.7,5.4,10.1,8.1c2.1,1.8,2.2,3.9,0,5.6c-5.2,4.2-10.4,8.3-15.8,12.6
		c-1.3-1.6-2.6-3.2-4-5c2.9-2.3,5.7-4.6,8.7-7.1C112.9,22.1,87.1,22.1,60.9,22.1z"/>
	<path class="st1" d="M27.2,152.8c1.2,2.2,2.2,3.9,3.2,5.7c-1.1,0.9-2.1,1.6-3,2.5c-2.3,2.3-2.3,4.5,0,6.8c2.8,2.7,6.3,4,10,4.9
		c8.6,2.1,17.2,1.9,25.6-1.3c2-0.8,4-1.9,5.7-3.3c3-2.5,2.9-5,0-7.6c-0.7-0.7-1.6-1.2-2.6-2c1-1.8,2-3.5,3-5.3
		c7.1,3.1,12.6,12.4,3.5,20.2c-4.3,3.7-9.6,5.4-15.1,6.3c-9.4,1.5-18.7,1.2-27.5-2.7c-2.9-1.3-5.7-3.2-7.9-5.4
		c-4.3-4.4-4.1-10.1,0.1-14.7C23.7,155.5,25.4,154.4,27.2,152.8z"/>
	<path class="st1" d="M130.5,152.7c1.3,2.3,2.3,4,3.3,5.8c-1,0.8-2,1.6-2.9,2.4c-2.4,2.4-2.4,4.6,0,7c2.8,2.7,6.3,4,10,4.9
		c8.6,2,17.1,1.9,25.4-1.2c2.1-0.8,4.1-2,5.9-3.4c2.9-2.4,2.8-4.9,0-7.5c-0.8-0.7-1.7-1.3-2.6-2.1c1-1.8,2-3.5,3-5.2
		c7.9,2.6,10.7,12,5.4,18.2c-3.8,4.5-9.1,6.6-14.7,7.8c-10.9,2.2-21.6,2-31.7-3.1c-2.5-1.3-4.8-3.2-6.7-5.4
		c-3.2-3.7-3.2-8.8-0.1-12.6C126.4,156.2,128.5,154.7,130.5,152.7z"/>
</g>
</svg>
