<?xml version="1.0" encoding="utf-8"?>
<!-- Generator: Adobe Illustrator 22.0.1, SVG Export Plug-In . SVG Version: 6.00 Build 0)  -->
<svg version="1.1" id="Layer_1" xmlns="http://www.w3.org/2000/svg" xmlns:xlink="http://www.w3.org/1999/xlink" x="0px" y="0px"
	 viewBox="0 0 1920 600" style="enable-background:new 0 0 1920 600;" xml:space="preserve">
<style type="text/css">
	.st0{fill:#ECF0FD;}
</style>
<path class="st0" d="M1710.9,362.6c84,12.8,132.9,80,223.8,40.8c71.8-31,103.6-103.6,105.6-178c3.6-133.4-119.2-343.7-267.6-356.1
	c-178.2-14.9-208.6,177.4-253.8,300.1C1480.5,274.1,1615.4,348.1,1710.9,362.6z"/>
<path class="st0" d="M348.3,184.6C242.2,138.4,201.3,32.9,67.9,52.8C-37.4,68.6-104.7,153.1-133.2,250.2
	c-51.3,174.4,36.9,494,228,562.1c229.4,81.8,336.5-160.8,438.8-306.5C620.8,381.5,469,237.1,348.3,184.6z"/>
<ellipse class="st0" cx="460" cy="72" rx="60.6" ry="58.3"/>
<ellipse class="st0" cx="520.6" cy="174.1" rx="33.3" ry="32.1"/>
<ellipse class="st0" cx="1833.6" cy="567.9" rx="100.6" ry="96.8"/>
<g>
	<path class="st0" d="M1290.2,431.8c39.6,67.9,207.4,104.7,213.8,176.9c7.3,82.3-120,132.9-183,137.9c-83.5,6.7-164.9-27-248.4-6
		c-91.8,23.1-144.6,70.6-243.5,22.2c-191.9-93.9-98-336.2,92.9-357.3c48.8-5.4,93.4,23.8,141.3,16.7c36.9-5.5,58.8-31.2,89.7-47.4
		C1249.9,323.9,1251.1,364.8,1290.2,431.8z"/>
</g>
<g>
	<path class="st0" d="M1256.2-231.5c39.6,67.9,207.4,104.7,213.8,176.9c7.3,82.3-120,132.9-183,137.9c-83.5,6.7-164.9-27-248.4-6
		c-91.8,23.1-144.6,70.6-243.5,22.2c-191.9-93.9-98-336.2,92.9-357.3c48.8-5.4,93.4,23.8,141.3,16.7c36.9-5.5,58.8-31.2,89.7-47.4
		C1215.9-339.4,1217.1-298.6,1256.2-231.5z"/>
</g>
</svg>
