<?xml version="1.0" encoding="utf-8"?>
<!-- Generator: Adobe Illustrator 22.0.1, SVG Export Plug-In . SVG Version: 6.00 Build 0)  -->
<svg version="1.1" id="Layer_1" xmlns="http://www.w3.org/2000/svg" xmlns:xlink="http://www.w3.org/1999/xlink" x="0px" y="0px"
	 viewBox="0 0 1881.8 120.8" style="enable-background:new 0 0 1881.8 120.8;" xml:space="preserve">
<style type="text/css">
	.st0{fill:none;stroke:#4169EA;stroke-miterlimit:10;stroke-dasharray:12,3;}
	.st1{fill:#4169EA;}
</style>
<path class="st0" d="M0.4,120.6c15.3-22.4,33.4-42.8,54.3-60.1c22.1-18.3,47.1-33.2,74.1-43C156.5,7.3,185.7,2.3,215,0.8
	c31.4-1.7,63.1-0.1,94.3,3c31.3,3.1,62.4,8,93.4,13.7c31.7,5.9,63.3,12.6,94.8,19.3c8,1.7,15.9,3.4,23.9,5c4.1,0.9,8.1,1.7,12.2,2.5
	c1.7,0.3,3.7,0.5,5.3,1.1c1.1,0.4,1.9,1.3,2.9,1.7c3.4,1.4,7.8,1.6,11.4,2.4c4,0.8,8,1.7,12.1,2.5c7.9,1.7,15.8,3.4,23.7,5.1
	c30.7,6.7,61.3,13.7,92,20.4c31.4,6.8,63,13,94.4,19.9c15.7,3.5,31,5,47.1,5c16.4-0.1,32.8-0.7,49.1-1.8c16.2-1.1,32.4-2.6,48.6-4.5
	c16.1-1.8,32.6-3.1,48.5-6.5c29.8-6.3,59.4-12,88.4-21.6c28-9.2,55.4-20.3,83.3-29.9c29.7-10.2,59.9-18.8,91.3-21.9
	c31.8-3.1,63.8-1.7,95.5,1.2c32.2,2.9,64.3,7.1,96.1,12.9c31.4,5.8,62.6,11.9,93.9,18.2c32,6.4,63.9,13,96.1,18.6
	c31.5,5.5,63.4,9.7,95.4,8.2c31.2-1.5,62.1-8,91.7-17.7c14.1-4.6,28-9.9,41.6-15.6"/>
<g>
	<path class="st1" d="M1829.4,29.1l9.8,7.2c3.1,2.3,5.6,5.4,7.1,9l4.7,11.2c1.1,2.7,4.9,2.8,6.1,0.1l17.5-37c1.2-2.5-1-5.2-3.7-4.7
		l-40.2,8.2C1827.8,23.7,1827,27.4,1829.4,29.1z"/>
</g>
</svg>
