<?xml version="1.0" encoding="utf-8"?>
<!-- Generator: Adobe Illustrator 22.0.1, SVG Export Plug-In . SVG Version: 6.00 Build 0)  -->
<svg version="1.1" id="Layer_1" xmlns="http://www.w3.org/2000/svg" xmlns:xlink="http://www.w3.org/1999/xlink" x="0px" y="0px"
	 viewBox="0 0 200 200" style="enable-background:new 0 0 200 200;" xml:space="preserve">
<style type="text/css">
	.st0{fill:#102E46;}
	.st1{fill:#4169EA;}
</style>
<g>
	<path class="st0" d="M18.9,141.2c-2.1-0.2-4-0.2-5.9-0.5c-5.7-1.2-9.8-6.1-9.9-12c-0.1-7.8-0.1-15.7,0-23.5
		c0.3-13.8,9.3-26.5,22.3-31.3c0.5-0.2,1.1-0.5,1.6-0.7C15.1,62.3,18,47.7,25.3,40.4c8-8,20.7-8.8,29.6-1.7
		c7.7,6.1,12.9,20.2,1.9,32.9c3.2,0.2,6-0.5,8.6-1.9c2.2-1.2,4.3-2.5,6.4-3.9c0.5-0.3,0.9-1.2,0.9-1.9c-0.3-9.5,3.7-16.6,11.9-21.3
		c0.5-0.3,1-1.2,0.9-1.8C84,25.8,91.6,12,104.9,5.6c13.2-6.4,28.7-3.8,39.4,6.5c0.7,0.7,1.3,1.2,2.5,0.8
		c17.5-5.4,34.1,7.6,33.1,25.9c0,0.4,0,0.8,0,1.3c0.8,0.2,1.6,0.4,2.4,0.6c10.6,2.8,17.8,13.1,16.5,23.6
		c-1.4,11.3-10.3,19.8-21.5,19.8c-27.7,0.1-55.5,0-83.2,0c-1.4,0-2.8-0.1-4.1-0.6c-2-0.8-3.5-0.2-5.2,0.9c-4.6,3.1-9.2,6.1-13.9,9
		c-5.2,3.3-7.7,8-7.7,14.2c0,25.6,0,51.3,0,76.9c0,7.8-5.9,13.5-13.4,13.1c-2.8-0.2-4.7-1-8.4-3.9c-2.3,1.2-4.3,2.7-6.5,3.4
		c-8,2.4-15.8-3.7-15.9-12.2c-0.1-13.9,0-27.7,0-41.6C18.9,142.8,18.9,142,18.9,141.2z M78.9,61.2c1.1-0.6,1.7-1,2.3-1.3
		c6.4-4,12.8-8,19.3-11.9c6.7-4,14.6-0.5,16.1,6.9c1,4.9-0.8,9.4-5,12.2c-4.8,3.2-9.7,6.3-14.5,9.4c-0.5,0.3-1,0.7-1.7,1.2
		c0.6,0.1,0.7,0.1,0.8,0.1c27,0,53.9,0,80.9,0c7.8,0,14.2-5.9,15.3-13.8c1.1-7.3-3.8-14.7-11.1-17c-3-0.9-3-0.9-4.5,1.7
		c-0.3,0.5-0.6,1-0.9,1.5c-2.6,4-5.9,7.2-10.5,9.3c-0.9-1.9-1.8-3.7-2.6-5.5c11.9-6.8,12.4-18.9,8.6-26c-2.2-4.1-5.4-7.1-9.7-8.8
		c-6.3-2.5-12.2-1.5-17.8,1.8C134.8,9.8,123.4,5,109.8,10.6c-15.9,6.5-20.5,19.3-17,35.7C85,48.1,80.1,52.7,78.9,61.2z M41,110.9
		c-2.9-2.9-5.7-5.7-8.3-8.6c-0.6-0.7-1-1.8-1-2.7c0.2-3.5,0.6-6.9,0.9-10.4c0.3-3.6,0.7-7.2,1-10.8C20.3,80.1,9.7,92.1,9.5,105.5
		c-0.1,7.2,0.2,14.3-0.1,21.5c-0.2,5,3.1,8.9,9.6,7.4c0-11.4,0-22.9,0-34.3c2.2,0,4.1,0,6.2,0c0,0.9,0,1.6,0,2.4c0,27,0,54,0,81.1
		c0,0.7,0,1.3,0,2c0.2,3.1,2.6,5.6,5.6,5.9c3,0.3,5.9-1.6,6.7-4.6c0.3-0.9,0.3-1.9,0.3-2.9c0-17.8,0-35.5,0-53.3c0-0.8,0-1.5,0-2.2
		c2.3,0,4.2,0,6.3,0c0,0.9,0,1.7,0,2.4c0,17.6,0,35.1,0,52.7c0,0.7,0,1.3,0,2c0.2,3.2,2.8,5.8,6,5.9c3.2,0.1,6.1-2.2,6.5-5.4
		c0.1-0.8,0.1-1.6,0.1-2.4c0-25.2,0-50.5,0-75.7c0-2,0.2-4.1,0.6-6c1.3-5.9,4.7-10.3,9.7-13.6c13.6-8.8,27.1-17.6,40.7-26.3
		c2.6-1.7,3.4-4.9,1.9-7.4c-1.4-2.3-3.9-2.6-6.9-0.7c-10.7,6.6-21.4,13.1-32,19.8c-4.6,2.9-9.5,4.4-14.9,4.2c-2.5-0.1-5,0-7.5,0
		c0.1,0.9,0.1,1.6,0.1,2.2c0.6,6.3,1.2,12.6,1.8,18.8c0.1,0.9,0.1,2.2-0.4,2.7C47.2,104.8,44.1,107.7,41,110.9z M41.1,71.6
		c8.7,0,15.8-7.2,15.7-15.9c0-8.6-7.1-15.6-15.7-15.7c-8.7,0-15.8,7.1-15.8,15.8C25.3,64.5,32.4,71.6,41.1,71.6z M41.1,101.6
		c2.1-1.4,3.3-3.1,2.8-5.8c-0.6-3.3-0.7-6.7-1-10c-0.2-2.6-0.5-5.2-0.8-7.9C41.2,78,40.6,78,40,78c-0.6,5.9-1,11.7-1.7,17.4
		C37.9,98.2,38.5,100.2,41.1,101.6z"/>
	<path class="st1" d="M198.7,160c-4.1,0-8.1,0-12.1,0c-10.4,0-20.8,0.1-31.2-0.1c-2.1,0-3.5,0.6-4.6,2.3
		c14.9,7.1,20.8,19.3,19.5,35.5c-20.9,0-41.8,0-62.7,0c-1.6-12.3,2.2-27.6,19.4-35.5c-1.1-1.6-2.5-2.3-4.5-2.3
		C108,160,93.6,160,79,160c-0.5-7.4,0-14.6,3.6-21.2c3.6-6.6,9-11.4,16-14.4c-10.7-9.7-7.7-22.5-1.3-28.6c7.5-7.1,19-7,26.4,0.1
		c6.5,6.3,9.1,18.9-1.1,28.2c2.7,1.8,5.5,3.7,8.3,5.5c0.3,0.2,1,0.2,1.4,0c4.4-1.6,8.7-1.6,13.1,0c0.5,0.2,1.2,0.2,1.6-0.1
		c2.8-1.7,5.5-3.6,8.2-5.4c-8.8-10.3-9.1-20.8-0.6-28.7c7.5-6.9,19-6.5,26.2,0.7c6.4,6.4,8.6,18.9-1.6,28.1
		C194.1,131.5,200,143.6,198.7,160z M164.2,191.5c-0.5-10-4.9-17.6-13.6-22.2c-9-4.7-18.1-4-26.4,1.9c-6.9,4.9-10.3,11.8-10.5,20.3
		C130.5,191.5,147.2,191.5,164.2,191.5z M125.6,133.7c-6.2-5.8-17.7-6.9-26.3-2.7c-8.6,4.3-14.8,14.3-13.9,22.5
		c11.8,0,23.6,0,35.4,0C119.6,142.3,119.8,141.4,125.6,133.7z M156.8,153.6c12,0,23.8,0,35.6,0c0.8-8.5-5.3-18.3-14-22.5
		c-8.6-4.2-20-3.1-26.3,2.8C157.4,139.4,159,145.9,156.8,153.6z M123.1,109.5c0-7-5.7-12.7-12.6-12.6c-6.9,0-12.5,5.6-12.6,12.5
		c-0.1,7,5.6,12.7,12.5,12.7C117.4,122.1,123.1,116.5,123.1,109.5z M179.9,109.5c0-7-5.7-12.7-12.6-12.7c-6.9,0-12.5,5.6-12.6,12.5
		c-0.1,7,5.6,12.7,12.5,12.8C174.2,122.1,179.9,116.5,179.9,109.5z M138.9,160c7,0,12.6-5.8,12.6-12.7c-0.1-6.9-5.7-12.5-12.6-12.5
		c-7,0-12.7,5.7-12.6,12.6C126.3,154.3,132,160,138.9,160z"/>
	<path class="st0" d="M119.8,14.9c0,2.1,0,4,0,6.1c-4.2,0.3-8,1.7-11.1,4.7c-3,3-4.5,6.7-4.7,11c-2.1,0-4.1,0-6.1,0
		C97.4,26.3,106.8,14.8,119.8,14.9z"/>
	<path class="st0" d="M125.3,21.8c0.6-1.8,1.3-3.6,2.1-5.9c2.5,1.5,4.9,2.9,7.5,4.4c-1.6,1.8-3,3.3-4.3,4.8
		C128.8,23.9,127.1,22.9,125.3,21.8z"/>
	<path class="st0" d="M148.2,71.5c-2.1,0-4,0-6.1,0c0-2,0-4,0-6.1c2,0,4,0,6.1,0C148.2,67.4,148.2,69.4,148.2,71.5z"/>
	<path class="st0" d="M160.9,71.5c-2,0-4,0-6.1,0c0-2,0-4,0-6.1c2,0,4,0,6.1,0C160.9,67.4,160.9,69.3,160.9,71.5z"/>
	<path class="st0" d="M173.4,71.6c-2.1,0-4,0-6,0c0-2,0-4,0-6.1c2,0,3.9,0,6,0C173.4,67.5,173.4,69.5,173.4,71.6z"/>
</g>
</svg>
