<?xml version="1.0" encoding="utf-8"?>
<!-- Generator: Adobe Illustrator 22.0.1, SVG Export Plug-In . SVG Version: 6.00 Build 0)  -->
<svg version="1.1" id="Layer_1" xmlns="http://www.w3.org/2000/svg" xmlns:xlink="http://www.w3.org/1999/xlink" x="0px" y="0px"
	 viewBox="0 0 200 200" style="enable-background:new 0 0 200 200;" xml:space="preserve">
<style type="text/css">
	.st0{fill:#102E46;}
	.st1{fill:#4169EA;}
</style>
<g>
	<path class="st0" d="M137,90.7c-19.5,0-38.4,0-57.5,0c0-10.3,0-20.5,0-30.8c8.1,0,16.2,0,24.6,0c0,8.1,0,16.3,0,24.5
		c2.1,0,4,0,6.2,0c0-14.3,0-28.6,0-43.1c8.4,0,16.5,0,24.8,0c0,14.3,0,28.6,0,43.1c2.1,0,4.1,0,6.2,0c0-20.5,0-41.1,0-61.7
		c8.3,0,16.4,0,24.7,0c0,20.5,0,41.1,0,61.7c2.2,0,4.1,0,6.2,0c0-26.7,0-53.4,0-80.2c8.3,0,16.4,0,24.7,0c0,28.8,0,57.6,0,86.5
		c-12.8,0-25.4,0-37.8,0c0.2,2.6,0.7,5.1,0.5,7.5c-0.1,2.6-1.6,4.9-3.4,6.8c-8.6,8.6-17.1,17.2-25.7,25.7
		c-10.1,9.9-24.3,12.3-37.2,6.5c-0.4-0.2-0.8-0.4-1.4-0.6c0,0.8-0.1,1.5-0.1,2.2c0,8.5,0,17,0,25.5c0,4.6-2.4,7-7.1,7
		c-1.7,0-3.3,0-5.2,0c0,8.2,0,16.4,0,24.6c-18.7,0-37.2,0-55.8,0c0-0.7,0-1.4,0-2.1c0-11.4,0-22.8,0-34.3c0-1.6-0.4-2.4-2-3.1
		c-10.5-5-16.2-13.4-16.6-25.2c-0.2-6-0.4-12.1,0.4-18c1.3-9.9,7.3-16.5,16.7-19.8c2.4-0.8,5-1.4,7.6-2.1c0-4.6,0-9.3-0.1-13.9
		c0-0.6-0.8-1.3-1.3-1.7c-5-3.7-10.1-7.4-13.9-12.5C8.5,55.2,5.3,46.1,5.1,36C5.1,29.4,8,24.4,13.6,20.9c0.7-0.4,1.3-1.2,1.6-2
		C18.6,9.9,26.8,4.1,36.5,4c9.1,0,18.2,0,27.3,0c6.7,0,12.2,3.9,14.6,9.9c2.4,6.1,0.8,12.4-4.2,17.1c-0.5,0.5-0.9,1.4-0.9,2.1
		c-0.5,6.5,1.6,12,6.6,16.4c0.2,0.2,0.4,0.5,0.9,0.9c-2.1,2.1-4.1,4.2-6.2,6.2c-0.9,0.9-1.3,1.8-1.2,3c0.1,3.3,0,6.6,0,9.9
		c-0.1,9.6-7.7,16.1-17.2,14.6c-0.4-0.1-0.8-0.1-1.3-0.1c0,2.3,0,4.5,0,6.9c3.7,0.5,7.5,1,11.3,1.5c8.2,1.1,15.3,4.7,21.5,10.1
		c3.4,3,6.9,6,10.3,9.1c5.9,5.2,12.9,5,18.5-0.5C123.2,104.5,129.9,97.8,137,90.7z M48.5,134.1c0-4.2,0-8.3,0-12.3
		c0-3.5,2.6-6.2,6.1-6.2c10.4-0.1,20.8-0.1,31.2,0c3.4,0,5.9,2.7,6.1,6c0.1,1.9,0.1,3.9,0,5.8c-0.1,1.4,0.4,2.1,1.6,2.8
		c10.4,6.4,23.8,4.9,32.6-3.7c5.4-5.3,10.7-10.7,16-16c0.4-0.4,0.7-0.7,0.9-1c-2.7-2.7-5.3-5.2-7.9-7.9c-0.3,0.3-0.8,0.7-1.3,1.2
		c-4.2,4.2-8.5,8.5-12.7,12.7c-7.9,7.9-18.4,8.3-26.9,1c-4.2-3.6-8.3-7.4-12.6-10.9c-5.3-4.3-11.4-6.6-18.4-7.2
		c-1,5.1-2.1,10.2-3.1,15.4c-4.7-2.4-9.3-4.6-14.1-7c-3.3,3.4-6.6,6.7-10,10.1c-0.4-0.5-0.8-0.8-1.1-1.2c-3.9-4.7-7.9-9.4-11.7-14.1
		c-1-1.2-1.7-1.2-2.8-0.4c-4.6,3-7.9,7.1-8.5,12.6c-0.6,5.9-0.5,11.8-0.4,17.8c0.2,7.9,3.8,13.9,10.5,18.1c6.3,4,13.4,3,20.3,3.1
		c0-4.2,0-8.2,0-12.4c-3.1,0-6.2,0-9.2,0c-4.6-0.1-8.5-3.2-9.1-7.7c-0.4-3.5-0.1-7.2-0.1-10.7c2.1,0,4,0,6.1,0c0,3,0,5.9,0,8.8
		c0,2.2,1.2,3.4,3.4,3.4C38.2,134.1,43.2,134.1,48.5,134.1z M67,35c-3.5,0-6.7,0.1-9.9,0c-3.2-0.2-5.8-1.8-7.3-4.7
		c-0.7-1.5-1.7-1.5-2.9-1.3c-6.2,0.9-10.7,6-10.8,12.2c0,2,0,4.1,0,6.3c-0.9,0-1.6,0-2.3,0c-1.6-0.1-3,0.4-3.6,2
		c-0.6,1.6-0.2,3,1,4.2c1.2,1.1,2.2,2.3,3.4,3.4c1.1,1,1.5,2,1.5,3.5c-0.1,10.1,0,20.1,0,30.2c0,0.7,0.1,1.6,0.5,1.9
		c2.6,2.1,5.3,4,8.1,6.1c1.4-2.2,3.2-4,3.6-6.2c0.6-3.2,0.2-6.5,0.2-9.8c-2.3-0.5-4.4-0.9-6.8-1.4c0.4-2.1,0.8-4,1.2-6
		c4.9,1,9.7,2,14.4,2.9c4.3,0.8,8.4-1.8,9.2-6c-4.1-0.2-8.4,0.6-12.2-1.9c-3.7-2.5-5.7-5.9-5.9-10.5c2.1,0,4.1,0,6,0
		c0.4,2.9,1.8,5.3,4.8,5.8c2.5,0.4,5.1,0.1,7.7,0.1c0-2.8,0.1-5.5,0-8.2c-0.1-1.5,0.3-2.7,1.5-3.7c1.3-1,2.5-2.2,3.7-3.3
		C68.6,45.7,67,40.5,67,35z M60.8,22.6c-1,0-1.9,0-2.7,0c-2.1,0.1-3.4,1.3-3.4,3.2c0,1.7,1.4,3,3.4,3c1.9,0,3.9,0,5.8,0
		c5.3-0.1,9.4-4.1,9.4-9.3c0-5.1-4.1-9.2-9.4-9.3c-9.2,0-18.3-0.1-27.5,0c-7.8,0-14.1,5.3-15.8,12.9c-0.3,1.3-0.8,2.1-2.2,2.5
		c-4.6,1.6-7.2,5.4-7.1,10.2c0.2,10.7,4,19.9,11.5,27.4c2,2.1,4.4,3.8,7,6c0-1.4-0.1-2.2,0-2.9c0.5-3.5-0.6-6.2-3.3-8.8
		c-4.9-4.6-3.6-12,2.3-15.4c0.5-0.3,1-1,1-1.5c1-10.5,7.7-17.2,18-18c0.6,0,1.3-0.5,1.6-1c2.5-4.3,6.3-5.9,11.3-4.9
		C60.8,18.6,60.8,20.5,60.8,22.6z M178.6,10.3c0,24.8,0,49.4,0,74.1c4.1,0,8.2,0,12.2,0c0-24.8,0-49.4,0-74.1
		C186.7,10.3,182.8,10.3,178.6,10.3z M54.7,164.9c10.3,0,20.5,0,30.7,0c0-14.5,0-28.8,0-43.1c-10.3,0-20.5,0-30.7,0
		c0,4.1,0,8.2,0,11.7c3,1.2,5.7,2.3,8.6,3.5c4.9-3.6,9.1-3.8,12.9-0.5c3.3,2.9,4.1,7.6,2,11.4c-2.3,4.2-6.5,5.6-12.4,3.9
		c-2.3,4.4-6,6.8-11.1,7.1C54.7,160.9,54.7,162.8,54.7,164.9z M54.7,177.5c0,4.2,0,8.2,0,12.1c6.3,0,12.4,0,18.4,0
		c0-6.2,0-12.2,0-18.3c-14.4,0-28.8,0-43.1,0c0,6.2,0,12.3,0,18.3c6.2,0,12.3,0,18.5,0c0-4.1,0-8.1,0-12.1
		C50.6,177.5,52.5,177.5,54.7,177.5z M159.8,84.4c0-18.6,0-37.1,0-55.5c-4.2,0-8.2,0-12.1,0c0,18.6,0,37,0,55.5
		C151.7,84.4,155.7,84.4,159.8,84.4z M128.9,47.5c-4.2,0-8.2,0-12.1,0c0,12.4,0,24.7,0,36.9c4.1,0,8.1,0,12.1,0
		C128.9,72.1,128.9,59.9,128.9,47.5z M97.9,66.1c-4.2,0-8.2,0-12.1,0c0,6.2,0,12.3,0,18.3c4.1,0,8.1,0,12.1,0
		C97.9,78.3,97.9,72.3,97.9,66.1z M48.5,152.6c2.4,0,4.6,0.1,6.8,0c3.1-0.3,5.4-3,5.4-6c0-3.1-2.2-5.9-5.3-6.2c-2.3-0.2-4.6,0-7,0
		C48.5,144.4,48.5,148.4,48.5,152.6z M139.9,96.6c2.7,2.7,5.3,5.3,7.9,7.9c1.4-1.4,3.1-2.9,4.6-4.6c1.9-2.2,1.7-5.5-0.3-7.6
		c-2-2-5.3-2.2-7.6-0.3C142.8,93.5,141.3,95.2,139.9,96.6z M48.3,165c0-2.2,0-4.2,0-6.2c-6.2,0-12.2,0-18.3,0c0,2.1,0,4,0,6.1
		c0.4,0,0.7,0.1,1,0.1C36.7,165,42.5,165,48.3,165z M36,107.4c1.5-1.3,3-2.6,4.6-4.1c-2-1.5-3.9-2.7-5.6-4.3c-2-1.9-4-2.1-6.4-0.8
		c0.2,0.2,0.3,0.5,0.5,0.8C31.4,102,33.8,104.8,36,107.4z M50,101.9c1.9,0.9,3.6,1.8,5.5,2.7c0.3-1.3,0.5-2.4,0.7-3.5
		c0.2-1.1,0.4-2.2,0.6-3.3C53.3,96.6,53,96.8,50,101.9z M73.2,143.4c0-1.7-1.4-3.1-3.1-3.1c-1.7,0-3.1,1.4-3.1,3.1
		c0,1.7,1.4,3.1,3.1,3.1C71.8,146.4,73.2,145,73.2,143.4z"/>
	<path class="st1" d="M122.8,146.5c13.6,0,24.7,11.2,24.7,24.8c0,13.7-11.2,24.8-24.9,24.8C109,195.9,98,184.7,98,171.1
		C98,157.5,109.2,146.4,122.8,146.5z M125.9,153.1c0,5.2,0,10.3,0,15.4c0,0.5,0.5,1.1,1,1.4c1.9,1.2,3.8,2.2,5.7,3.3
		c2.5,1.4,4.9,2.9,7.4,4.3C144.6,167.6,136.5,153.7,125.9,153.1z M119.7,153.1c-12.1,1.5-18.6,15.5-14,24.4
		c4.4-2.5,8.8-5.1,13.2-7.6c0.4-0.2,0.8-0.9,0.8-1.3C119.7,163.4,119.7,158.3,119.7,153.1z M136.8,183c-0.1-0.1-0.2-0.2-0.3-0.3
		c-3-1.8-6.2-3.2-9-5.3c-3.4-2.5-6.2-2.5-9.6,0c-2.9,2.1-6.2,3.7-9.4,5.6C116.5,192.7,130.9,191.3,136.8,183z"/>
	<path class="st1" d="M147.6,146.3c0-2,0-4,0-6c14.4,0,28.7,0,43.1,0c0,1.9,0,3.9,0,6C176.4,146.3,162.1,146.3,147.6,146.3z"/>
	<path class="st1" d="M147.6,133.9c0-2.1,0-4,0-6c14.4,0,28.7,0,43.1,0c0,1.9,0,3.9,0,6C176.4,133.9,162.1,133.9,147.6,133.9z"/>
	<path class="st1" d="M197,152.8c0,2,0,3.9,0,5.9c-10.3,0-20.5,0-30.8,0c0-2,0-3.9,0-5.9C176.4,152.8,186.6,152.8,197,152.8z"/>
	<path class="st1" d="M166.2,171.1c0-2,0-3.9,0-5.9c10.3,0,20.5,0,30.8,0c0,2,0,3.9,0,5.9C186.8,171.1,176.6,171.1,166.2,171.1z"/>
	<path class="st1" d="M197,189.9c0,2,0,3.9,0,6c-10.2,0-20.4,0-30.7,0c0-1.9,0-3.9,0-6C176.4,189.9,186.6,189.9,197,189.9z"/>
	<path class="st1" d="M166.2,183.5c0-2,0-4,0-6c10.2,0,20.4,0,30.7,0c0,1.9,0,3.9,0,6C186.8,183.5,176.6,183.5,166.2,183.5z"/>
	<path class="st1" d="M172.4,121.6c0-2,0-3.9,0-6c6.1,0,12.1,0,18.3,0c0,1.9,0,3.9,0,6C184.7,121.6,178.6,121.6,172.4,121.6z"/>
	<path class="st1" d="M166.1,115.6c0,2.1,0,3.9,0,5.9c-4,0-8.1,0-12.2,0c0-1.9,0-3.9,0-5.9C157.9,115.6,161.9,115.6,166.1,115.6z"/>
	<path class="st1" d="M159.8,171.1c-2.1,0-4,0-6,0c0-2,0-3.9,0-6c1.9,0,3.9,0,6,0C159.8,167.1,159.8,169,159.8,171.1z"/>
	<path class="st1" d="M159.9,177.6c0,2,0,3.9,0,5.9c-2,0-4,0-6,0c0-2,0-3.9,0-5.9C155.8,177.6,157.7,177.6,159.9,177.6z"/>
	<path class="st1" d="M153.8,158.7c0-2,0-3.9,0-5.9c1.9,0,3.9,0,6,0c0,1.9,0,3.9,0,5.9C157.9,158.7,156,158.7,153.8,158.7z"/>
	<path class="st1" d="M159.9,190c0,2,0,3.9,0,5.9c-2,0-4,0-6,0c0-2,0-3.9,0-5.9C155.7,190,157.7,190,159.9,190z"/>
	<path class="st0" d="M60.8,44.3c0,1.7-1.5,3.1-3.1,3c-1.7,0-3.1-1.5-3-3.1c0-1.7,1.5-3.1,3.1-3C59.5,41.2,60.9,42.7,60.8,44.3z"/>
</g>
</svg>
