<?xml version="1.0" encoding="utf-8"?>
<!-- Generator: Adobe Illustrator 22.0.1, SVG Export Plug-In . SVG Version: 6.00 Build 0)  -->
<svg version="1.1" id="Layer_1" xmlns="http://www.w3.org/2000/svg" xmlns:xlink="http://www.w3.org/1999/xlink" x="0px" y="0px"
	 viewBox="0 0 400 400" style="enable-background:new 0 0 400 400;" xml:space="preserve">
<style type="text/css">
	.st0{fill:#FFFFFF;}
</style>
<g>
	<path class="st0" d="M393,334c-4.3,11.5-12.6,16.3-24.7,16c-12.4-0.3-24.7-0.1-37.1-0.1c-1.4,0-2.8,0-4.1-0.2
		c-3.2-0.6-5.2-2.6-5.2-5.9c0-3.3,2.1-5.3,5.3-5.9c1.3-0.3,2.7-0.2,4.1-0.2c12.6,0,25.2,0,37.9,0c9.5,0,12.4-2.9,12.4-12.6
		c0-45.9,0-91.7,0-137.6c0-23.5-0.1-47,0.1-70.5c0-3.9-1.2-4.8-4.9-4.8c-117.1,0.1-234.2,0.1-351.3,0c-3.7,0-4.9,0.9-4.9,4.8
		c0.1,69.5,0.1,139,0.1,208.5c0,9.3,3,12.2,12.4,12.2c88,0,176,0,264,0c2,0,4,0,5.9,0.4c2.9,0.6,4.6,2.8,4.6,5.7
		c0,2.9-1.7,5-4.5,5.7c-1.4,0.4-3,0.4-4.4,0.4c-89,0-178,0-267,0c-14.1,0-22.7-8.7-22.7-22.7c0-84.5,0-169,0-253.5
		c0-14,8.7-22.6,22.8-22.6c23.5,0,47,0,70.5,0c0.4,0,0.8,0,1.1,0c4.9,0.1,7.9,2.5,7.9,6.2c0,3.7-3,6.1-8,6.1c-23.5,0-47,0-70.5,0
		c-8.8,0-12,3.1-12,11.9c0,6.6,0.2,13.3-0.1,19.9c-0.2,3.9,1.3,5.2,4.9,4.7c0.4-0.1,0.7,0,1.1,0c116.4,0,232.7,0,349.1,0
		c5.9,0,5.9,0,5.9-5.9c0-6.1,0-12.2,0-18.4c0-9.1-3-12.2-12.1-12.2c-77.9,0-155.7,0-233.6,0c-1.9,0-3.8,0-5.6-0.3
		c-3-0.6-4.9-2.7-4.9-5.8c0-3.1,1.9-5.2,4.9-5.8c1.8-0.4,3.7-0.3,5.6-0.3c77.5,0,155,0.1,232.5-0.1c12.1,0,20.4,4.5,24.7,16
		C393,156,393,245,393,334z"/>
	<path class="st0" d="M191.7,296c0-7.8-0.1-15,0-22.2c0.1-3.3,2.6-5.7,5.7-5.8c3-0.1,5.6,2.3,6,5.6c0,0.2,0,0.5,0,0.7
		c0,9.4,0.1,18.7-0.1,28.1c-0.1,5.5-4.3,10.6-9.6,12.1c-2,0.6-4.1,0.8-6.3,0.8c-45.6,0-91.2,0-136.8,0c-2.5,0-5-0.2-7.3-1.3
		c-5.2-2.4-8.3-6.4-8.4-12.2c-0.1-31.9,0-63.7,0-95.6c0-4.2,2-7.4,4.9-10.2c7-6.6,13.9-13.3,21-19.8c2.4-2.2,3.7-4.4,3.5-7.8
		c-0.3-3.7-0.2-7.5,0-11.2c0.2-5.4,3.4-8.6,8.8-8.7c4.5-0.2,9-0.1,13.5,0c2.4,0.1,4.3-0.6,6-2.4c5.3-5.2,10.7-10.2,16-15.3
		c6.8-6.5,14.3-6.5,21.2,0c5.3,5,10.6,9.9,15.7,15c1.8,1.8,3.7,2.7,6.3,2.6c4.2-0.2,8.5-0.1,12.7,0c6.2,0.1,9.4,3.4,9.5,9.6
		c0.1,3.1,0.3,6.3,0,9.4c-0.5,4.2,1.3,7,4.3,9.7c6.8,6.1,13.3,12.5,20,18.7c3.5,3.3,5.2,7.1,5.2,12c-0.1,12.6,0,25.2,0,37.9
		c0,0.7,0,1.5-0.1,2.2c-0.3,3.3-2.8,5.7-5.8,5.8c-3.2,0-5.8-2.5-5.9-6.1c-0.1-9,0-18-0.1-27c0-1.2,0.7-2.9-0.6-3.5
		c-1.3-0.6-2.1,1-3,1.7c-14.8,11.7-29.5,23.5-44.3,35.2c-1.7,1.4-2.3,2.2-0.2,3.9c15.5,12.4,31,24.9,46.5,37.3
		C190.3,295.5,190.7,295.6,191.7,296z M119.2,160.9c-12.7,0-25.5,0.1-38.2-0.1c-3.5,0-4.5,1.2-4.5,4.6c0.1,18.4,0.1,36.7,0,55.1
		c0,2.8,0.9,4.7,3.1,6.4c8.3,6.4,16.5,13,24.6,19.6c2,1.6,3.3,1.4,5.2,0c7.2-5.5,12.5-5.5,19.7,0c2.2,1.7,3.5,1.4,5.5-0.2
		c8-6.6,16.1-13.1,24.3-19.4c2.2-1.7,3.1-3.6,3-6.3c-0.1-18.4-0.1-36.7,0-55.1c0-3.4-1-4.6-4.5-4.5C144.7,161,132,160.9,119.2,160.9
		z M179.1,302.9c-0.4-1.5-1.4-2-2.1-2.6C159,286,141,271.6,123.2,257.1c-3-2.5-5-2.5-8-0.1c-17.9,14.6-36,29-53.9,43.5
		c-0.7,0.6-1.9,0.9-1.6,2.4C99.4,302.9,139.1,302.9,179.1,302.9z M47.1,216.3c0,27.1,0,53.2,0,79.5c0.7-0.2,1.1-0.2,1.3-0.5
		c15.5-12.4,30.9-24.9,46.4-37.3c2.1-1.7,1.3-2.7-0.4-4c-10.9-8.6-21.7-17.3-32.5-25.9C57.2,224.3,52.4,220.6,47.1,216.3z
		 M64.3,214.5c0-8,0-14.9,0-21.9c0-0.6-0.1-1.4-0.5-1.7c-0.8-0.5-1.3,0.3-1.8,0.8c-3.3,3.2-6.6,6.4-10,9.6c-1.3,1.2-1.3,2.3,0.1,3.4
		C55.9,207.8,59.6,210.8,64.3,214.5z M174.2,214.5c4.6-3.6,8.4-6.6,12.2-9.6c1.3-1.1,1.6-2,0.2-3.3c-3.4-3.2-6.8-6.6-10.2-9.8
		c-1.4-1.3-2.2-0.9-2.2,1C174.2,199.6,174.2,206.5,174.2,214.5z M130.1,148.4c-3.3-3.4-6.1-6.2-8.9-9c-0.9-0.9-2.1-1.4-3-0.6
		c-3.3,2.9-6.4,5.9-10.3,9.6C115.9,148.4,122.6,148.4,130.1,148.4z"/>
	<path class="st0" d="M314.5,237.2c-2.9,0-5.8,0.1-8.5-1c-3.7-1.5-5.6-4.3-6.2-8.2c-0.5-3.7-2.1-4.3-5.2-2.1
		c-4.6,3.3-9.1,3.1-13.3-0.7c-2.5-2.3-4.9-4.7-7.2-7.2c-3.8-4.1-4-8.8-0.8-13.3c2.3-3.2,1.9-4.2-2.1-5.2c-6.4-1.5-9-4.7-9-11.4
		c0-2.9-0.1-5.8,0-8.6c0.2-5.5,3.5-9.1,8.9-10c3.9-0.7,4.5-1.8,2.3-5.1c-3.4-5-3.1-9.6,1-13.9c2.1-2.2,4.2-4.3,6.4-6.4
		c4.2-4,8.8-4.3,13.6-1.1c3.5,2.3,4.7,1.8,5.3-2.3c0.8-5.1,4.4-8.5,9.7-8.8c3.4-0.2,6.8-0.1,10.1,0c5.4,0.2,8.7,3.1,10,8.4
		c1.2,4.8,1.8,5.1,5.8,2.4c3.9-2.7,8.5-2.6,12.1,0.5c3,2.6,5.9,5.5,8.5,8.5c3.2,3.7,3.2,8.3,0.2,12.4c-2.4,3.4-2,4.6,2.1,5.3
		c5.6,1,8.6,4.4,8.7,10c0.1,3.2,0.1,6.5,0,9.7c-0.1,5.6-2.7,8.8-8.1,10.1c-4.9,1.2-5.1,1.6-2.5,5.7c2.8,4.2,2.7,8.6-0.7,12.4
		c-2.4,2.7-4.9,5.3-7.6,7.7c-4.4,3.9-8.4,4-13.6,0.3c-2.4-1.7-3.8-1.3-4.6,1.5c-2.5,8.3-4.7,9.9-13.2,10.1
		C316,237.2,315.2,237.2,314.5,237.2z M288.6,214.7c0.3-0.2,0.8-0.6,1.4-0.9c7.6-4.6,19.3-0.1,21.5,8.3c0.5,2,1.4,2.9,3.6,2.9
		c2.2,0,2.5-1.2,2.9-3c2-8,13.8-12.9,21-8.7c1.6,0.9,2.8,1.2,4.3-0.2c1.7-1.6,1.2-2.8,0.2-4.5c-4.1-7.2,0.9-18.9,9-20.9
		c1.9-0.5,2.8-0.9,2.9-3.1c0-2.3-1.1-2.9-3.1-3.4c-8.3-2.2-13-14.1-8.3-21.2c1-1.6,1.1-2.5-0.3-3.8c-1.4-1.3-2.3-2.1-4.4-0.7
		c-7,4.5-18.9-0.1-21.2-8.1c-0.5-1.9-1.1-3.1-3.4-3c-2.2,0.1-2.8,1.2-3.4,3.2c-2.1,7.6-13.8,12.3-20.6,8.4c-1.7-1-2.9-1.6-4.5,0.1
		c-1.5,1.6-1.6,2.9-0.3,4.5c1,1.2,1.4,2.6,1.6,4.2c0.7,6.5-4.3,14.7-10.5,16.7c-1.7,0.5-2.5,1.4-2.5,3.2c0,1.7,0.5,2.6,2.3,3.2
		c9,2.8,13.2,13.7,8.7,21.7C284.6,211.1,286.5,214.7,288.6,214.7z"/>
	<path class="st0" d="M303.8,303.1c18,0,36,0,53.9,0c1.5,0,3-0.1,4.5,0.3c3,0.7,4.8,2.6,4.8,5.8c0,3.2-1.8,5.1-4.7,5.9
		c-1.3,0.3-2.7,0.3-4.1,0.3c-36.3,0-72.7,0-109,0c-0.9,0-1.8,0-2.6-0.1c-3.9-0.4-6.2-2.8-6.2-6.2c0.1-3.2,2.4-5.5,6.1-5.9
		c1.2-0.1,2.5-0.1,3.7-0.1C268,303.1,285.9,303.1,303.8,303.1z"/>
	<path class="st0" d="M303.9,251.3c18.5,0,37,0,55.4,0c2.9,0,5.5,0.5,7,3.3c1.8,3.3,0.1,7.3-3.5,8.5c-1.8,0.6-3.7,0.6-5.6,0.6
		c-35.7,0-71.4,0-107.1,0c-1.7,0-3.5-0.1-5.2-0.5c-3.3-0.8-4.8-3-4.5-6.4c0.3-3.2,2.3-4.9,5.4-5.3c1.2-0.2,2.5-0.1,3.7-0.1
		C267.7,251.3,285.8,251.3,303.9,251.3z"/>
	<path class="st0" d="M303.8,289.2c-18.2,0-36.5,0-54.7,0c-1.4,0-2.8,0.1-4.1-0.2c-2.9-0.6-4.5-2.5-4.6-5.6c-0.1-3,1.3-5.1,4.2-5.8
		c1.9-0.5,4-0.6,5.9-0.6c35.5,0,70.9,0,106.4,0c1.9,0,3.8,0.1,5.6,0.5c3.1,0.7,4.6,2.8,4.5,6c-0.1,3.2-2,5-5.1,5.5
		c-1.2,0.2-2.5,0.1-3.7,0.1C340,289.2,321.9,289.2,303.8,289.2z"/>
	<path class="st0" d="M237.4,164.7c-3.4,0-6.7,0.1-10.1,0c-4.1-0.1-6.8-2.6-6.9-5.9c0-3.2,2.5-6.1,6.2-6.2c7.2-0.2,14.4-0.2,21.7,0
		c4.1,0.1,6.2,2.6,6.2,6.1c0,3.6-2.5,5.9-6.7,6C244.3,164.8,240.9,164.7,237.4,164.7z"/>
	<path class="st0" d="M237.8,178.6c3.5,0,7-0.1,10.5,0c3.7,0.1,6.1,2.3,6.3,5.6c0.2,3.4-1.7,6-5.4,6.3c-7.6,0.6-15.2,0.6-22.7,0
		c-3.8-0.3-6.2-3.3-5.9-6.5c0.3-3.1,2.8-5.2,6.5-5.5c0.2,0,0.5,0,0.7,0C231.1,178.5,234.4,178.5,237.8,178.6
		C237.8,178.5,237.8,178.6,237.8,178.6z"/>
	<path class="st0" d="M237.5,216.5c-3.5,0-7,0.1-10.5,0c-3.9-0.1-6.5-2.5-6.6-5.8c-0.1-3.1,2.2-5.7,5.9-6.1c7.5-0.7,15-0.7,22.4,0
		c4,0.3,6,2.9,5.7,6.5c-0.3,3.3-2.5,5.3-6.5,5.3C244.5,216.5,241,216.5,237.5,216.5z"/>
	<path class="st0" d="M352.5,87.5c-2.9,0-5.7,0.1-8.6,0c-3.3-0.2-5.7-2.6-5.8-5.7c-0.1-3.2,2.3-5.9,5.8-6c5.8-0.1,11.7-0.2,17.6,0
		c3.4,0.1,5.5,2.5,5.5,5.8c0,3.3-2.1,5.5-5.5,5.8c-0.2,0-0.5,0-0.7,0C358,87.5,355.2,87.5,352.5,87.5
		C352.5,87.5,352.5,87.5,352.5,87.5z"/>
	<path class="st0" d="M226.4,303.2c3.1,0,6,2.9,6.1,6c0,3.1-2.9,6-6,6c-3.1,0-6-2.9-6-6C220.4,306,223.2,303.2,226.4,303.2z"/>
	<path class="st0" d="M220.4,257.1c0.1-3.1,3-5.8,6.2-5.8c3.2,0.1,5.9,2.9,5.8,6.1c-0.1,3.2-2.9,5.9-6.1,5.8
		C223.1,263.1,220.4,260.3,220.4,257.1z"/>
	<path class="st0" d="M226.3,277.4c3.3-0.1,6.1,2.5,6.1,5.7c0.1,3.2-2.6,6-5.8,6.1c-3.2,0.1-6.1-2.6-6.2-5.8
		C220.4,280.3,223.1,277.5,226.3,277.4z"/>
	<path class="st0" d="M65.5,81.5c0.1,3.5-2.4,6-5.8,6c-3.4,0-5.9-2.5-5.9-5.9c0-3.3,2.4-5.7,5.6-5.8C62.9,75.7,65.4,78.1,65.5,81.5z
		"/>
	<path class="st0" d="M46.7,81.6c0,3.4-2.5,5.9-5.9,5.9c-3.4,0-5.9-2.5-5.8-6c0.1-3.3,2.4-5.7,5.7-5.7C44,75.7,46.7,78.3,46.7,81.6z
		"/>
	<path class="st0" d="M78.4,75.8c3.4,0,5.9,2.5,5.9,5.9c0,3.3-2.4,5.7-5.6,5.8c-3.3,0.1-6.1-2.4-6.2-5.7
		C72.5,78.5,75.1,75.8,78.4,75.8z"/>
	<path class="st0" d="M119.6,195.8c8.6,0,17.2,0,25.8,0c4.6,0,7.3,2,7.6,5.5c0.3,3.5-2.4,6.3-7.1,6.5c-9.6,0.3-19.2,0.2-28.8,0.2
		c-7,0-14,0-21,0c-1.5,0-3-0.1-4.5-0.3c-4.1-0.6-6.6-3.2-6.2-6.5c0.3-3.3,2.9-5.4,6.9-5.4C101.4,195.7,110.5,195.8,119.6,195.8z"/>
	<path class="st0" d="M118.9,229.2c-4.2,0-8.5,0.1-12.7,0c-4.3-0.1-7.1-2.5-7.2-6c0-3.4,2.6-6.1,6.7-6.1c9-0.1,18-0.2,27,0
		c4,0.1,6.7,2.9,6.6,6.2c-0.1,3.4-2.8,5.8-6.9,5.9C127.9,229.3,123.4,229.2,118.9,229.2C118.9,229.2,118.9,229.2,118.9,229.2z"/>
	<path class="st0" d="M133,186.4c-4.4,0-8.7,0.1-13.1,0c-4.2-0.1-6.8-2.4-6.8-5.9c-0.1-3.6,2.3-6.2,6.5-6.3c9-0.2,18-0.2,26.9,0
		c4,0.1,6.7,2.9,6.6,6.3c-0.1,3.4-2.8,5.7-7,5.8C141.7,186.5,137.4,186.4,133,186.4z"/>
	<path class="st0" d="M96.4,186.4c-1.7,0-3.5,0.1-5.2,0c-3.3-0.3-5.8-2.7-5.8-5.8c0-3.3,1.8-5.5,5-6c4-0.7,8.2-0.7,12.2,0
		c3.2,0.6,4.9,2.8,4.8,6.1c-0.1,3.4-2.3,5.1-5.5,5.6C100.2,186.5,98.3,186.3,96.4,186.4C96.4,186.3,96.4,186.3,96.4,186.4z"/>
	<path class="st0" d="M293,184.8c-0.1-12.1,9.7-22,21.8-22c11.9,0,21.7,9.9,21.7,21.7c0,12-9.6,21.6-21.6,21.9
		C303.3,206.6,293.1,196.6,293,184.8z M305.3,184.5c0,5.6,4.2,9.8,9.7,9.8c5-0.1,9.5-4.7,9.5-9.8c0-5.2-4.3-9.3-9.7-9.4
		C309.3,175.1,305.3,179,305.3,184.5z"/>
</g>
</svg>
