<?xml version="1.0" encoding="UTF-8"?>
<svg id="Layer_1" xmlns="http://www.w3.org/2000/svg" version="1.1" viewBox="0 0 512 512">
  <!-- Generator: Adobe Illustrator 29.0.0, SVG Export Plug-In . SVG Version: 2.1.0 Build 186)  -->
  <defs>
    <style>
      .st0 {
        fill: #4169ea;
      }
    </style>
  </defs>
  <g id="Outline_ok">
    <path class="st0" d="M285.8,280c-2.1,0-4.2-.8-5.7-2.3l-21.8-21.8c-3.1-3.1-3.1-8.2,0-11.3l140.5-140.5h-46.9c-4.4,0-8-3.6-8-8v-32c0-4.4,3.6-8,8-8h120c4.4,0,8,3.6,8,8v120c0,4.4-3.6,8-8,8h-32c-4.4,0-8-3.6-8-8v-46.9l-140.5,140.5c-1.5,1.5-3.5,2.3-5.7,2.3h0ZM275.3,250.2l10.5,10.5,148.5-148.5c3.1-3.1,8.2-3.1,11.3,0,1.5,1.5,2.3,3.5,2.3,5.7v58.2h16v-104h-104v16h58.2c4.4,0,8,3.6,8,8,0,2.1-.8,4.2-2.3,5.7l-148.5,148.5Z"/>
    <path d="M496,312H232c-4.4,0-8-3.6-8-8V32c0-4.4,3.6-8,8-8s8,3.6,8,8v264h256c4.4,0,8,3.6,8,8s-3.6,8-8,8Z"/>
    <path class="st0" d="M200,272h-32c-4.4,0-8-3.6-8-8s3.6-8,8-8h32c4.4,0,8,3.6,8,8s-3.6,8-8,8Z"/>
    <path class="st0" d="M200,240h-16c-4.4,0-8-3.6-8-8s3.6-8,8-8h16c4.4,0,8,3.6,8,8s-3.6,8-8,8Z"/>
    <path class="st0" d="M200,208h-32c-4.4,0-8-3.6-8-8s3.6-8,8-8h32c4.4,0,8,3.6,8,8s-3.6,8-8,8Z"/>
    <path class="st0" d="M200,176h-16c-4.4,0-8-3.6-8-8s3.6-8,8-8h16c4.4,0,8,3.6,8,8s-3.6,8-8,8Z"/>
    <path class="st0" d="M200,112h-16c-4.4,0-8-3.6-8-8s3.6-8,8-8h16c4.4,0,8,3.6,8,8s-3.6,8-8,8Z"/>
    <path class="st0" d="M200,80h-32c-4.4,0-8-3.6-8-8s3.6-8,8-8h32c4.4,0,8,3.6,8,8s-3.6,8-8,8Z"/>
    <path class="st0" d="M200,144h-32c-4.4,0-8-3.6-8-8s3.6-8,8-8h32c4.4,0,8,3.6,8,8s-3.6,8-8,8Z"/>
    <path d="M432,408c-17.7,0-32-14.3-32-32s14.3-32,32-32,32,14.3,32,32-14.3,32-32,32ZM432,360c-8.8,0-16,7.2-16,16s7.2,16,16,16,16-7.2,16-16-7.2-16-16-16Z"/>
    <path d="M496,504h-128c-4.4,0-8-3.6-8-8v-56c0-13.3,10.7-24,24-24h96c13.3,0,24,10.7,24,24v56c0,4.4-3.6,8-8,8ZM376,488h112v-48c0-4.4-3.6-8-8-8h-96c-4.4,0-8,3.6-8,8v48Z"/>
    <path d="M256,408c-17.7,0-32-14.3-32-32s14.3-32,32-32,32,14.3,32,32-14.3,32-32,32ZM256,360c-8.8,0-16,7.2-16,16s7.2,16,16,16,16-7.2,16-16-7.2-16-16-16Z"/>
    <path d="M320,504h-128c-4.4,0-8-3.6-8-8v-56c0-13.3,10.7-24,24-24h96c13.3,0,24,10.7,24,24v56c0,4.4-3.6,8-8,8ZM200,488h112v-48c0-4.4-3.6-8-8-8h-96c-4.4,0-8,3.6-8,8v48Z"/>
    <path d="M104,504h-48c-4.4,0-8-3.6-8-8v-88c0-4.4,3.6-8,8-8h48c4.4,0,8,3.6,8,8v88c0,4.4-3.6,8-8,8ZM64,488h32v-72h-32v72Z"/>
    <path d="M120,416H40c-4.4,0-8-3.6-8-8V136c0-4.4,3.6-8,8-8h80c4.4,0,8,3.6,8,8v272c0,4.4-3.6,8-8,8ZM48,400h64V144H48v256Z"/>
    <path d="M104,144h-48c-4.4,0-8-3.6-8-8v-32c0-13.3,10.7-24,24-24h16c13.3,0,24,10.7,24,24v32c0,4.4-3.6,8-8,8ZM64,128h32v-24c0-4.4-3.6-8-8-8h-16c-4.4,0-8,3.6-8,8v24Z"/>
    <path d="M80,96c-4.4,0-8-3.6-8-8V16c0-4.4,3.6-8,8-8s8,3.6,8,8v72c0,4.4-3.6,8-8,8Z"/>
    <path d="M144,416H16c-4.4,0-8-3.6-8-8s3.6-8,8-8h128c4.4,0,8,3.6,8,8s-3.6,8-8,8Z"/>
    <path d="M136,504H24c-4.4,0-8-3.6-8-8s3.6-8,8-8h112c4.4,0,8,3.6,8,8s-3.6,8-8,8Z"/>
    <path class="st0" d="M104,336h-24c-4.4,0-8-3.6-8-8s3.6-8,8-8h24c4.4,0,8,3.6,8,8s-3.6,8-8,8Z"/>
    <path class="st0" d="M104,368h-32c-4.4,0-8-3.6-8-8s3.6-8,8-8h32c4.4,0,8,3.6,8,8s-3.6,8-8,8Z"/>
    <path class="st0" d="M104,304h-32c-4.4,0-8-3.6-8-8s3.6-8,8-8h32c4.4,0,8,3.6,8,8s-3.6,8-8,8Z"/>
  </g>
</svg>