<svg id="Layer_1" data-name="Layer 1" xmlns="http://www.w3.org/2000/svg" xmlns:xlink="http://www.w3.org/1999/xlink" viewBox="0 0 29.86 37.52"><defs><style>.cls-1{fill:url(#linear-gradient);}.cls-2{fill:#ed5d9e;}.cls-3{fill:url(#linear-gradient-2);}.cls-4{fill:url(#linear-gradient-3);}.cls-5{fill:url(#linear-gradient-4);}.cls-6{fill:url(#linear-gradient-5);}.cls-7{fill:url(#linear-gradient-6);}.cls-8{fill:#0b3859;}.cls-9{fill:url(#linear-gradient-7);}.cls-10{fill:url(#linear-gradient-10);}.cls-11{fill:url(#linear-gradient-11);}</style><linearGradient id="linear-gradient" x1="15.65" y1="7.93" x2="24.27" y2="7.93" gradientUnits="userSpaceOnUse"><stop offset="0" stop-color="#0b3859"/><stop offset="1" stop-color="#2f72b3"/></linearGradient><linearGradient id="linear-gradient-2" x1="22.24" y1="27.31" x2="36.16" y2="30.97" gradientUnits="userSpaceOnUse"><stop offset="0.35" stop-color="#6aa442"/><stop offset="0.59" stop-color="#006937"/><stop offset="1" stop-color="#006937"/></linearGradient><linearGradient id="linear-gradient-3" x1="27.19" y1="24.65" x2="27.19" y2="24.65" xlink:href="#linear-gradient"/><linearGradient id="linear-gradient-4" x1="32.26" y1="25.83" x2="32.38" y2="25.83" xlink:href="#linear-gradient"/><linearGradient id="linear-gradient-5" x1="16.52" y1="27.27" x2="4.43" y2="34.94" xlink:href="#linear-gradient-2"/><linearGradient id="linear-gradient-6" x1="17.28" y1="25.98" x2="22.63" y2="25.98" gradientUnits="userSpaceOnUse"><stop offset="0" stop-color="#0b3859"/><stop offset="0.57" stop-color="#2f72b3"/></linearGradient><linearGradient id="linear-gradient-7" x1="20.87" y1="3.37" x2="25.12" y2="3.37" xlink:href="#linear-gradient-6"/><linearGradient id="linear-gradient-10" x1="5.07" y1="20.2" x2="34.84" y2="20.2" xlink:href="#linear-gradient-6"/><linearGradient id="linear-gradient-11" x1="12.3" y1="28.2" x2="12.35" y2="28.2" xlink:href="#linear-gradient-6"/></defs><path class="cls-1" d="M23.81,6.07a4.24,4.24,0,0,1-1.45,5.42,4.3,4.3,0,0,1-5.7-6.32A4.06,4.06,0,0,1,20,3.65a2.67,2.67,0,0,1,.4,0h.07A2.54,2.54,0,0,0,23,5.9a2.61,2.61,0,0,0,.69-.1A2.86,2.86,0,0,0,23.81,6.07Z" transform="translate(-5.07 -1.24)"/><path class="cls-2" d="M24.09,5a1,1,0,0,0-.38.36A2.08,2.08,0,0,1,23,5.5a2.13,2.13,0,0,1-2.13-2.06c0-.06,0-.14.06-.23a1.94,1.94,0,0,1,2.38-1.69,1.85,1.85,0,0,1,1.55,1.56A1.82,1.82,0,0,1,24.09,5Z" transform="translate(-5.07 -1.24)"/><path class="cls-3" d="M34.9,20.85a2.51,2.51,0,0,1,0,.54,17.18,17.18,0,0,1-3.83,9.16A27.64,27.64,0,0,1,24,37a33.26,33.26,0,0,1-2.9,1.65c-.4.2-.46.06-.52-.29a2.16,2.16,0,0,1,.5-1.9c1.07-1.22,2.35-2.21,3.52-3.32.31-.3.64-.6.92-.93a.82.82,0,0,0-.31-1.42,9.78,9.78,0,0,1-1-.52A1.25,1.25,0,0,1,23.53,29c.17-.46.7-.65,1.38-.65a7.62,7.62,0,0,0,3.51-.46,2.38,2.38,0,0,0,1.41-.36,8.74,8.74,0,0,0,2.43-1.62h0s0,0,.12-.11a18.15,18.15,0,0,0,1.67-2.47h0a9.38,9.38,0,0,0,.51-1.55v0c.06-.26.17-.89.24-1.12h0a8.08,8.08,0,0,0,0-1.1,6,6,0,0,0-.09-.74A5.21,5.21,0,0,1,34.9,20.85Z" transform="translate(-5.07 -1.24)"/><polygon class="cls-4" points="27.2 24.64 27.19 24.65 27.19 24.64 27.2 24.64"/><path class="cls-5" d="M32.38,25.77c-.08.09-.11.11-.12.11h0Z" transform="translate(-5.07 -1.24)"/><path class="cls-6" d="M19.35,38.35c-.06.4-.15.51-.56.31a27.57,27.57,0,0,1-4.87-3,25.93,25.93,0,0,1-6.83-7.69,13.93,13.93,0,0,1-2-6.56c.44.44.38,1.07.6,1.6a8.44,8.44,0,0,0,4.65,4.64,6.69,6.69,0,0,0,1.7.53h0l.23.05h.07c.25,0,.51,0,.75.06.74.08,1.48,0,2.22.07.48,0,1,.09,1.08.7a1.21,1.21,0,0,1-.66,1.28c-.34.2-.71.36-1.07.53a.78.78,0,0,0-.28,1.38c.84.93,1.83,1.7,2.74,2.56.56.53,1.12,1.07,1.67,1.63A2.15,2.15,0,0,1,19.35,38.35Z" transform="translate(-5.07 -1.24)"/><path class="cls-7" d="M19.93,28.64A2.72,2.72,0,0,1,17.28,26a2.68,2.68,0,0,1,5.35-.06A2.7,2.7,0,0,1,19.93,28.64Z" transform="translate(-5.07 -1.24)"/><path class="cls-8" d="M25.12,3.37a2.15,2.15,0,0,1-1.41,2A2.08,2.08,0,0,1,23,5.5a2.13,2.13,0,0,1-2.13-2.06V3.37a2.13,2.13,0,1,1,4.25,0Z" transform="translate(-5.07 -1.24)"/><path class="cls-9" d="M23,1.24a2.13,2.13,0,0,0-2.13,2.13v.07A2.13,2.13,0,0,0,23,5.5a2.08,2.08,0,0,0,.71-.12,2.15,2.15,0,0,0,1.41-2A2.12,2.12,0,0,0,23,1.24ZM23,5.1a1.73,1.73,0,1,1,1.73-1.73A1.73,1.73,0,0,1,23,5.1Z" transform="translate(-5.07 -1.24)"/><polygon class="cls-4" points="27.2 24.64 27.19 24.65 27.19 24.64 27.2 24.64"/><path class="cls-5" d="M32.38,25.77c-.08.09-.11.11-.12.11h0Z" transform="translate(-5.07 -1.24)"/><path class="cls-10" d="M34.81,20.61h0c-.07.23-.18.86-.24,1.12v0a9.38,9.38,0,0,1-.51,1.55h0a18.15,18.15,0,0,1-1.67,2.47l-.12.11h0a8.74,8.74,0,0,1-2.43,1.62,2.38,2.38,0,0,1-1.41.36,5.21,5.21,0,0,0,1.67-6.22A5.39,5.39,0,0,0,23,19a5.89,5.89,0,0,0-2.76,2.29c-.26.42-.35.26-.55,0a5.83,5.83,0,0,0-6.61-2.46,4.76,4.76,0,0,0-3.51,3.69,5,5,0,0,0,1.18,4.72h0a10.13,10.13,0,0,0,1.6,1h-.07L12,28.14h0a6.69,6.69,0,0,1-1.7-.53A8.44,8.44,0,0,1,5.67,23c-.22-.53-.16-1.16-.6-1.6a10.78,10.78,0,0,1,.55-4.13,8.29,8.29,0,0,1,13.92-2.15c.34.38.52.33.83,0a8.4,8.4,0,0,1,6.85-2.87,8.12,8.12,0,0,1,7.51,6.57h0a6,6,0,0,1,.09.74A8.08,8.08,0,0,1,34.81,20.61Z" transform="translate(-5.07 -1.24)"/><path class="cls-11" d="M12.35,28.2h0Z" transform="translate(-5.07 -1.24)"/></svg>