<?xml version="1.0" encoding="utf-8"?>
<!-- Generator: Adobe Illustrator 22.0.1, SVG Export Plug-In . SVG Version: 6.00 Build 0)  -->
<svg version="1.1" id="Layer_1" xmlns="http://www.w3.org/2000/svg" xmlns:xlink="http://www.w3.org/1999/xlink" x="0px" y="0px"
	 viewBox="0 0 400 400" style="enable-background:new 0 0 400 400;" xml:space="preserve">
<style type="text/css">
	.st0{fill:#FFFFFF;}
</style>
<g>
	<path class="st0" d="M261.8,8.5c7.5,0,15,0,22.5,0c0.4,0.1,0.7,0.3,1.1,0.4c31.5,5.1,54.6,21.9,69.1,50.3c1.1,2.2,2.5,3.2,5,3
		c2.6-0.2,5.2,0,7.9,0c14.2,0,20.7,4.4,25.8,17.5c0,78.5,0,157,0,235.5c-5.1,13.1-11.6,17.5-25.5,17.5c-38.1,0-76.2,0-114.4,0
		c-4.3,0-4.4,0.1-3.4,4.2c2.5,10.2,5.1,20.4,7.6,30.5c2.2,9,2.2,9,11.5,9.7c5.1,0.4,8.4,4.8,7.2,9.7c-0.9,3.9-4,5.8-9.3,5.8
		c-43.9,0-87.7,0-131.6,0c-0.7,0-1.5,0-2.2,0c-4.2-0.4-7.1-3.5-7.2-7.7c0-4.2,2.8-7.4,7-7.8c1.2-0.1,2.5-0.1,3.7-0.1
		c5.7,0,5.7,0,7.1-5.4c2.8-11.4,5.7-22.8,8.5-34.2c1.2-4.9,1.2-4.9-4-4.9c-38.4,0-76.7,0-115.1,0c-2.2,0-4.5,0.1-6.7-0.5
		c-10.7-2.7-17.6-11.5-17.6-22.7c0-66.7,0-133.5,0-200.2c0-8.5-0.1-17,0-25.5c0.2-11.4,9.9-21.3,21.3-21.6c5.4-0.1,10.8-0.1,16.1,0
		c4.8,0.1,8,3.1,8,7.6c0.1,4.6-3.1,7.8-8.1,7.9c-4.4,0.1-8.8,0-13.1,0.1c-5.7,0.1-8.6,3-8.7,8.6c-0.1,7.5,0,15-0.1,22.5
		c0,2.8,1.2,3.7,3.9,3.7c4.1-0.1,8.3,0.2,12.4-0.1c5.4-0.3,9,1.7,11.4,6.7c2.2,4.6,4.9,9,7.2,13.6c1.3,2.4,2.2,2.8,3.6,0.1
		c2.3-4.6,4.9-9,7.3-13.5c1.8-3.4,3.9-6.1,8.2-6.1c4.3,0,6.4,2.8,8.2,6.1c3.1,5.8,6.3,11.6,9.4,17.5c1.4,2.6,2.4,2.4,3.7-0.1
		c1.2-2.5,2.8-4.8,3.9-7.3c2.3-5.3,6.1-7.3,11.8-7.2c11,0.2,22,0,33,0.1c3.6,0.1,4.8-1.2,4.7-4.8c-0.2-11.5-0.1-23-0.1-34.5
		c0-5.3,0-5.3-5.2-5.3c-11,0-22,0-33,0c-5.6,0-9.1-4.1-8.2-9.2c0.7-4,3.8-6.3,8.8-6.3c23.4,0,46.7-0.1,70.1,0.1c3.5,0,5.4-1,6.9-4.2
		c7.4-15.1,18.4-26.9,32.5-36C236.1,14.8,248.6,10.8,261.8,8.5z M168.3,182.5c0,33,0,66,0,99c0,5.7,0,5.7,5.9,5.7c66,0,132,0,198,0
		c5.6,0,5.6,0,5.6-5.6c0-64.2,0-128.5,0-192.7c0-1.4,0-2.8-0.2-4.1c-0.6-3.8-2.7-6.1-6.5-6.7c-1.7-0.3-3.5-0.2-5.2-0.2
		c-4.6,0-4.7,0.1-3.8,4.7c1.9,10.3,2,20.6,0.2,30.9c-7.9,46.8-51.4,81-101.2,74.7c-43.6-5.5-78.1-44-78.3-87.8
		c0-6.4,0.1-12.7,1.6-19c0.6-2.6-0.2-3.7-3-3.6c-2.5,0.2-5,0-7.5,0c-5.5,0-5.5,0-5.5,5.4C168.3,116.3,168.3,149.4,168.3,182.5z
		 M273,23.8c-41.4,0.7-74.4,32.7-74.5,74.5C198.4,140,231.1,173,273,173c41.5,0,74.4-32.5,74.5-74.3C347.6,57.1,315,24.6,273,23.8z
		 M152.7,187.4c0-14.9-0.1-29.7,0.1-44.6c0-3.3-1.1-4.4-4.4-4.4c-9.4,0.1-18.7,0.1-28.1,0c-2.7,0-4.4,0.9-5.6,3.3
		c-3,5.9-6.3,11.7-9.4,17.5c-1.7,3.2-4,5.5-7.8,5.5c-3.9,0-6.1-2.4-7.7-5.6c-3.2-6.1-6.5-12.1-9.8-18.1c-0.5-0.8-0.6-2.2-1.8-2.1
		c-1.1,0.1-1.3,1.4-1.8,2.2c-2.7,4.8-5.3,9.6-7.9,14.5c-1.7,3.1-4.1,5.1-7.7,5c-3.5-0.1-5.7-2.1-7.3-5.1c-3.2-6.1-6.4-12.1-9.8-18.1
		c-5.9-10.4-2.4-8.5-15.1-8.8c-3-0.1-4.3,0.9-4.3,4.1c0.1,27.7,0.1,55.5,0,83.2c0,2.7,0.9,4,3.7,3.9c3.2-0.1,6.5-0.1,9.7,0
		c2.3,0.1,3.7-0.9,4.8-2.9c2.5-4.9,5.2-9.7,7.8-14.5c2-3.8,3.9-7.8,9.1-7.7c5,0.1,6.8,3.9,8.8,7.6c6.7,12.4,13.4,24.9,20.1,37.3
		c0.5,0.9,0.7,2.5,2,2.5c1.2,0,1.5-1.5,2-2.5c5.4-9.9,10.7-19.8,16-29.7c1.7-3.2,4.1-5.5,7.9-5.4c3.6,0,5.9,2.2,7.5,5.3
		c3.2,6.1,6.4,12.1,9.8,18.1c5.7,10.1,2.5,8.2,14.5,8.6c3.6,0.1,4.8-1.2,4.7-4.8C152.6,216.9,152.7,202.1,152.7,187.4z M88.5,287.2
		c19.9,0,39.7-0.1,59.6,0.1c3.7,0,4.8-1.2,4.7-4.8c-0.2-8.7-0.1-17.5,0-26.2c0-2.7-1-3.9-3.7-3.8c-4.4,0.1-8.7-0.1-13.1,0.1
		c-4.9,0.2-8.4-1.7-10.5-6.2c-1.7-3.5-3.6-6.9-5.5-10.2c-1.2-2-1.7-5.5-3.8-5.6c-2.1,0-2.7,3.5-3.8,5.5c-4.9,8.9-9.6,17.8-14.5,26.7
		c-3.9,7-11,7-15,0.2c-0.4-0.8-0.8-1.5-1.3-2.3c-6.8-12.6-13.6-25.3-20.5-37.9c-0.5-0.8-0.7-2.1-1.8-2.2c-1.2-0.1-1.4,1.3-1.8,2.1
		c-1.5,2.6-2.9,5.2-4.3,7.9c-1.9,3.8-5,5.4-9.1,5.4c-5.1,0-10.3,0.2-15.4,0c-3.5-0.1-4.5,1.3-4.5,4.6c0.1,13.9,0.1,27.7,0.1,41.6
		c0,5.1,0,5.1,5.3,5.1C49.2,287.2,68.9,287.2,88.5,287.2z M171.4,302.8c-47,0-94,0-141,0c-1.2,0-2.5,0-3.7,0.1
		c-1.1,0-1.8,0.6-2.2,1.7c-2.2,6.1,1.9,12.3,8.3,12.7c1.5,0.1,3,0,4.5,0c90.6,0,181.2,0,271.8,0c9.7,0,8.6,1.1,8.7-8.5
		c0-5.9,0-5.9-5.7-5.9C265.1,302.8,218.3,302.8,171.4,302.8z M201,377.2c12.7,0,25.5-0.1,38.2,0.1c3,0,4.1-0.7,3.2-3.8
		c-3.2-12.2-6.3-24.4-9.2-36.7c-0.7-3-2.1-4-5.2-4c-18.1,0.1-36.2,0.1-54.3,0c-3.1,0-4.4,1.1-5.1,4.1c-2.9,12.1-5.9,24.2-9.1,36.3
		c-0.8,3.2-0.2,4.2,3.2,4.2C175.6,377.1,188.3,377.2,201,377.2z M355.6,302.8c-4.1,0-8.2,0-12.4,0c-11.5,0.1-9.7-1.7-10,9.9
		c-0.1,3.4,1,4.7,4.5,4.6c9.9-0.2,19.7,0,29.6-0.1c7.8,0,10.6-3,10.4-10.7c0-2.8-1.1-3.8-3.8-3.7
		C367.8,302.9,361.7,302.8,355.6,302.8z"/>
	<path class="st0" d="M88,69.9c0,4.5-3.3,7.8-7.8,7.8c-4.5,0-7.8-3.4-7.7-7.9c0-4.3,3.3-7.6,7.6-7.7C84.6,62.2,88,65.5,88,69.9z"/>
	<path class="st0" d="M227.7,227c-9.5,0-19,0-28.5,0c-3.6,0-6.6-1.2-8.3-4.6c-2.1-4.2,0-9.2,4.5-10.7c1.6-0.5,3.4-0.7,5.2-0.7
		c18.3,0,36.7,0,55,0c1.1,0,2.3,0.1,3.3,0.3c4.5,0.9,7.1,4.1,6.8,8.4c-0.3,4-3.3,7-7.7,7.2c-5.2,0.2-10.5,0.1-15.7,0.1
		C237.5,227,232.6,227,227.7,227C227.7,227,227.7,227,227.7,227z"/>
	<path class="st0" d="M317.6,227c-9.5,0-19,0.1-28.5,0c-5.2,0-8.5-2.9-8.9-7.2c-0.3-3.9,1.8-7.2,5.6-8.2c1.8-0.5,3.7-0.6,5.5-0.6
		c17.7,0,35.4,0,53.2,0c1.4,0,2.8,0,4.1,0.3c4.6,0.8,7.2,3.9,7,8.2c-0.2,4.2-3.2,7.3-7.8,7.5c-6.2,0.2-12.5,0.1-18.7,0.1
		C325.3,227,321.5,227,317.6,227C317.6,227,317.6,227,317.6,227z"/>
	<path class="st0" d="M227.9,265.1c-8.6,0-17.2,0-25.8,0c-1.4,0-2.8,0-4.1-0.2c-5-0.7-7.9-3.9-7.7-8.4c0.2-4.3,3.4-7.3,8.3-7.4
		c4.4-0.1,8.7-0.1,13.1-0.1c14.5,0,28.9,0,43.4,0c1.7,0,3.5-0.1,5.2,0.5c3.5,1.2,5.6,4,5.5,7.6c-0.1,3.6-2.2,6.5-5.8,7.4
		c-1.7,0.4-3.4,0.6-5.2,0.6C245.8,265.1,236.9,265.1,227.9,265.1z"/>
	<path class="st0" d="M303,249c4.6,0,9.2-0.1,13.8,0c5.4,0.1,8.7,3.1,8.9,7.6c0.1,4.8-3.1,8.2-8.6,8.3c-9.5,0.2-18.9,0.2-28.4,0
		c-5.5-0.1-8.7-3.6-8.5-8.4c0.2-4.5,3.6-7.4,9-7.5C293.8,249,298.4,249,303,249z"/>
	<path class="st0" d="M273,151.3c-2.9,0-5.7,0-8.6,0c-9.6-0.1-16-6.3-16.3-15.8c-0.1-2.9-0.1-5.7,0-8.6c0-2.4-1-3.4-3.4-3.4
		c-2.9,0.1-5.7,0.1-8.6,0c-9.6-0.4-15.8-6.7-15.8-16.3c0-5.7,0-11.5,0-17.2c0.1-9.6,6.3-16,15.8-16.3c2.9-0.1,5.7-0.1,8.6,0
		c2.4,0,3.4-1,3.4-3.4c0-2.9-0.1-5.7,0-8.6c0.3-9.6,6.7-15.8,16.3-15.8c5.7,0,11.5,0,17.2,0c9.6,0.1,15.9,6.2,16.3,15.8
		c0.1,2.9,0.1,5.7,0,8.6c0,2.3,1,3.5,3.4,3.4c2.9,0,5.7-0.1,8.6,0c9.6,0.3,15.8,6.7,15.9,16.3c0,5.7,0,11.5,0,17.2
		c-0.1,9.6-6.2,15.9-15.8,16.3c-2.9,0.1-5.7,0.1-8.6,0c-2.4,0-3.4,1-3.4,3.4c0,2.9,0.1,5.7,0,8.6c-0.3,9.6-6.7,15.8-16.3,15.8
		C278.7,151.3,275.9,151.3,273,151.3z M264.2,124.3C264.2,124.3,264.2,124.3,264.2,124.3c0,2.6,0.1,5.2,0,7.9
		c-0.1,2.5,1,3.7,3.5,3.6c3.4-0.1,6.7-0.1,10.1,0c2.9,0.1,4.1-1,4-3.9c-0.1-4.9-0.1-9.7,0-14.6c0.1-6.7,3.2-9.7,10-9.8
		c4.9-0.1,9.7-0.1,14.6,0c2.7,0.1,3.9-1,3.8-3.8c-0.1-3.4-0.1-6.7,0-10.1c0.1-2.7-1-3.9-3.7-3.8c-5,0.1-10,0.1-15,0
		c-6.5-0.1-9.6-3.3-9.7-9.8c-0.1-5-0.1-10,0-15c0-2.5-1-3.7-3.5-3.6c-3.5,0.1-7,0.1-10.5,0c-2.5-0.1-3.6,1-3.6,3.5
		c0.1,5,0.1,10,0,15c-0.1,6.7-3.2,9.8-10,9.9c-5,0.1-10,0.1-15,0c-2.3,0-3.5,0.9-3.4,3.4c0.1,3.4,0.1,6.8,0,10.1
		c-0.2,3.1,1,4.3,4.1,4.2c4.9-0.1,9.7-0.1,14.6,0c6.5,0.1,9.5,3.2,9.7,9.8C264.2,119.5,264.2,121.9,264.2,124.3z"/>
</g>
</svg>
