<?xml version="1.0" encoding="utf-8"?>
<!-- Generator: Adobe Illustrator 22.0.1, SVG Export Plug-In . SVG Version: 6.00 Build 0)  -->
<svg version="1.1" id="Layer_1" xmlns="http://www.w3.org/2000/svg" xmlns:xlink="http://www.w3.org/1999/xlink" x="0px" y="0px"
	 viewBox="0 0 191.7 57.9" style="enable-background:new 0 0 191.7 57.9;" xml:space="preserve">
<style type="text/css">
	.st0{fill:none;stroke:#FE0303;stroke-width:1.2986;stroke-linecap:round;stroke-miterlimit:10;}
	.st1{fill:#326196;}
</style>
<g id="XMLID_28_">
	<g id="XMLID_682_">
		<path id="XMLID_683_" class="st0" d="M165.9,38.5C165.9,38.5,165.9,38.5,165.9,38.5c-0.5,0-0.9-0.3-1-0.8l-7.1-32.3l-3.4,15.1
			c-0.1,0.4-0.5,0.8-0.9,0.8h-45c-0.3,0-0.6-0.3-0.6-0.6s0.3-0.6,0.6-0.6h44.8l3.6-16c0.1-0.4,0.5-0.8,0.9-0.8c0,0,0,0,0,0
			c0.5,0,0.8,0.3,0.9,0.8l7.1,32.3l3.6-15.5c0.1-0.4,0.5-0.8,0.9-0.8l19.6-0.2c0.3,0,0.6,0.3,0.6,0.6c0,0.3-0.3,0.6-0.6,0.6
			l-19.4,0.2l-3.8,16.4C166.8,38.2,166.4,38.5,165.9,38.5z"/>
	</g>
	<g id="XMLID_674_">
		<path id="XMLID_680_" class="st1" d="M0,19.2C0,7.7,8.3,0,18.8,0c6.1,0,10.6,2.4,13.9,6.3l-2.4,1.7c-2.6-3.1-6.8-5.2-11.6-5.2
			c-8.7,0-15.4,6.6-15.4,16.3c0,9.6,6.8,16.3,15.4,16.3c4.9,0,8.9-2.4,10.9-4.5v-8.9h-14v-2.8h17.2v12.9c-3.3,3.7-8.2,6.2-14.1,6.2
			C8.3,38.4,0,30.6,0,19.2z"/>
		<path id="XMLID_678_" class="st1" d="M69.3,37.7V4.6L55.8,37.7h-1.2L41,4.6v33.1h-3.2V0.6h4.7l12.6,30.8L67.7,0.6h4.8v37.1H69.3z"
			/>
		<path id="XMLID_675_" class="st1" d="M100.4,37.7L90,22.3h-8.2v15.3h-3.2V0.6h13.8c6.4,0,11.3,4.1,11.3,10.8
			c0,6.7-4.7,10.4-10.3,10.7l10.7,15.6H100.4z M100.5,11.4c0-4.7-3.3-7.9-8.2-7.9H81.9v15.9h10.4C97.2,19.5,100.5,16.1,100.5,11.4z"
			/>
	</g>
	<g id="XMLID_665_">
		<g>
			<path id="XMLID_65_" class="st1" d="M118.3,16.7l-3.4-12l-3.4,12h-1.3l-4-14h1.3l3.4,12.3l3.4-12.3h1.1l3.4,12.3l3.4-12.3h1.3
				l-4,14H118.3z"/>
			<path id="XMLID_63_" class="st1" d="M125.8,16.7v-14h8.9v1.1H127V9h7.5v1.1H127v5.5h7.7v1.1H125.8z"/>
			<path id="XMLID_59_" class="st1" d="M137.6,16.7v-14h5.7c2.3,0,3.9,1.4,3.9,3.6c0,1.8-1.2,3-2.5,3.2c1.5,0.2,2.7,1.8,2.7,3.4
				c0,2.3-1.5,3.8-4,3.8H137.6z M145.9,6.5c0-1.4-0.9-2.6-2.7-2.6h-4.4V9h4.4C145,9,145.9,7.9,145.9,6.5z M146.2,12.9
				c0-1.4-1-2.8-2.9-2.8h-4.5v5.5h4.5C145.1,15.7,146.2,14.6,146.2,12.9z"/>
		</g>
	</g>
	<g id="XMLID_655_">
		<g>
			<path id="XMLID_73_" class="st1" d="M110.7,37.3V25.5h-4.2v-1h9.5v1h-4.2v11.8H110.7z"/>
			<path id="XMLID_71_" class="st1" d="M118.3,37.3V24.5h8.1v1h-7v4.7h6.9v1h-6.9v5.1h7v1H118.3z"/>
			<path id="XMLID_68_" class="st1" d="M138.4,37.3l-1.3-3.1h-6.8l-1.3,3.1h-1.3l5.2-12.8h1.4l5.2,12.8H138.4z M133.7,25.6l-3,7.5h6
				L133.7,25.6z"/>
			<path id="XMLID_66_" class="st1" d="M152.4,37.3V25.9l-4.7,11.4h-0.4l-4.7-11.4v11.4h-1.1V24.5h1.6l4.4,10.6l4.3-10.6h1.6v12.8
				H152.4z"/>
		</g>
	</g>
	<g id="XMLID_431_">
		<g>
			<path id="XMLID_713_" class="st1" d="M4,55.3l2.1-9.5h3.3c1.5,0,2.5,1.1,2.5,2.4c0,1.5-1,3.2-3.5,3.2H5.7l-0.9,3.9H4z M8.5,50.6
				c1.7,0,2.6-1.1,2.6-2.4c0-0.9-0.7-1.7-1.8-1.7H6.7l-0.9,4.1H8.5z"/>
			<path id="XMLID_710_" class="st1" d="M18.1,49.5l0.2-1.2h0.8l-1.5,6.9h-0.8l0.2-1c-0.6,0.7-1.4,1.2-2.4,1.2c-1.6,0-2.7-1-2.7-2.8
				c0-2.3,1.4-4.4,3.6-4.4C16.8,48.2,17.7,48.8,18.1,49.5z M12.9,52.5c0,1.4,0.8,2.3,2.1,2.3c1,0,1.9-0.6,2.3-1.3l0.7-3.3
				c-0.3-0.7-1.2-1.3-2.3-1.3C14,48.9,12.9,50.7,12.9,52.5z"/>
			<path id="XMLID_708_" class="st1" d="M20.3,54.3c0-0.1,0-0.2,0-0.4l1.1-4.9h-1.1l0.1-0.7h1.1l0.4-1.9h0.8l-0.4,1.9h1.4L23.6,49
				h-1.4l-1.1,4.8c0,0.1,0,0.2,0,0.3c0,0.4,0.2,0.7,0.7,0.7c0.3,0,0.6-0.1,0.7-0.3l0.1,0.6c-0.3,0.2-0.6,0.3-1,0.3
				C20.8,55.4,20.3,55.1,20.3,54.3z"/>
			<path id="XMLID_705_" class="st1" d="M23.8,55.3l1.5-6.9h0.7l-1.5,6.9H23.8z M25.5,46.8c0-0.4,0.3-0.6,0.6-0.6
				c0.3,0,0.5,0.2,0.5,0.5c0,0.4-0.3,0.6-0.6,0.6C25.7,47.3,25.5,47.1,25.5,46.8z"/>
			<path id="XMLID_702_" class="st1" d="M27.2,52.4c0-2.3,1.7-4.2,3.8-4.2c1.8,0,2.9,1.3,2.9,3c0,0.3-0.1,0.7-0.1,0.9H28
				c0,0.1,0,0.3,0,0.4c0,1.3,0.8,2.3,2.5,2.3c0.7,0,1.5-0.2,2.1-0.7l0.3,0.5c-0.6,0.5-1.5,0.8-2.4,0.8
				C28.4,55.4,27.2,54.2,27.2,52.4z M33.2,51.5c0-0.1,0-0.2,0-0.3c0-1.3-0.8-2.3-2.3-2.3c-1.4,0-2.6,1.2-2.9,2.6H33.2z"/>
			<path id="XMLID_698_" class="st1" d="M39.6,55.3l1-4.7c0-0.1,0.1-0.3,0.1-0.5c0-0.9-0.7-1.2-1.5-1.2c-0.9,0-1.8,0.6-2.4,1.2
				l-1.1,5.2H35l1.5-6.9h0.7l-0.2,1c0.6-0.6,1.5-1.2,2.5-1.2c1.2,0,2,0.6,2,1.7c0,0.1,0,0.4-0.1,0.6l-1.1,4.8H39.6z"/>
			<path id="XMLID_696_" class="st1" d="M43.1,54.3c0-0.1,0-0.2,0-0.4l1.1-4.9h-1.1l0.1-0.7h1.1l0.4-1.9h0.8l-0.4,1.9h1.4L46.3,49
				h-1.4l-1.1,4.8c0,0.1,0,0.2,0,0.3c0,0.4,0.2,0.7,0.7,0.7c0.3,0,0.6-0.1,0.7-0.3l0.1,0.6c-0.3,0.2-0.6,0.3-1,0.3
				C43.6,55.4,43.1,55.1,43.1,54.3z"/>
			<path id="XMLID_693_" class="st1" d="M57.2,55.3l-0.4-2.3h-5l-1.5,2.3h-1l6-9.5h1l1.8,9.5H57.2z M55.7,46.6l-3.5,5.6h4.5
				L55.7,46.6z"/>
			<path id="XMLID_691_" class="st1" d="M59.8,52.4c0-2.3,1.7-4.2,3.8-4.2c1.2,0,2,0.5,2.5,1.3l-0.6,0.4c-0.4-0.7-1.1-1-1.9-1
				c-1.9,0-3.1,1.7-3.1,3.5c0,1.6,1,2.4,2.4,2.4c0.8,0,1.4-0.4,1.9-0.9l0.4,0.5c-0.6,0.6-1.3,1-2.4,1C61.1,55.4,59.8,54.3,59.8,52.4
				z"/>
			<path id="XMLID_569_" class="st1" d="M72.9,49.5l0.2-1.2h0.8l-2.1,9.5H71l0.8-3.7c-0.6,0.7-1.4,1.2-2.4,1.2c-1.6,0-2.7-1-2.7-2.8
				c0-2.3,1.4-4.4,3.6-4.4C71.5,48.2,72.4,48.8,72.9,49.5z M67.6,52.5c0,1.4,0.8,2.3,2.1,2.3c1,0,1.9-0.6,2.3-1.3l0.7-3.3
				c-0.3-0.7-1.2-1.3-2.3-1.3C68.7,48.9,67.6,50.7,67.6,52.5z"/>
			<path id="XMLID_567_" class="st1" d="M76.9,48.4l-1,4.7c0,0.1-0.1,0.3-0.1,0.5c0,0.9,0.7,1.2,1.5,1.2c0.9,0,1.8-0.6,2.3-1.2
				l1.2-5.2h0.7L80,55.3h-0.7l0.2-1c-0.6,0.6-1.5,1.2-2.5,1.2c-1.2,0-2-0.6-2-1.7c0-0.1,0-0.4,0.1-0.6l1.1-4.8H76.9z"/>
			<path id="XMLID_564_" class="st1" d="M82.3,55.3l1.5-6.9h0.7l-1.5,6.9H82.3z M84,46.8c0-0.4,0.3-0.6,0.6-0.6
				c0.3,0,0.5,0.2,0.5,0.5c0,0.4-0.3,0.6-0.6,0.6C84.2,47.3,84,47.1,84,46.8z"/>
			<path id="XMLID_562_" class="st1" d="M85.1,54.2l0.5-0.5c0.4,0.6,1.2,1.1,2.3,1.1c1.1,0,1.8-0.7,1.8-1.4c0-1.5-3.7-1.3-3.7-3.1
				c0-1.1,0.9-2,2.5-2c1.2,0,2.1,0.5,2.5,1.1l-0.5,0.5c-0.3-0.5-1.2-1-2.1-1c-1,0-1.7,0.5-1.7,1.2c0,1.4,3.7,1.2,3.7,3.1
				c0,1.1-0.9,2.2-2.6,2.2C86.6,55.4,85.7,55,85.1,54.2z"/>
			<path id="XMLID_559_" class="st1" d="M91.9,55.3l1.5-6.9h0.7l-1.5,6.9H91.9z M93.6,46.8c0-0.4,0.3-0.6,0.6-0.6s0.5,0.2,0.5,0.5
				c0,0.4-0.3,0.6-0.6,0.6C93.8,47.3,93.6,47.1,93.6,46.8z"/>
			<path id="XMLID_557_" class="st1" d="M95.4,54.3c0-0.1,0-0.2,0-0.4l1.1-4.9h-1.1l0.1-0.7h1.1l0.4-1.9h0.8l-0.4,1.9h1.4L98.6,49
				h-1.4l-1.1,4.8c0,0.1,0,0.2,0,0.3c0,0.4,0.2,0.7,0.7,0.7c0.3,0,0.6-0.1,0.7-0.3l0.1,0.6c-0.3,0.2-0.6,0.3-1,0.3
				C95.9,55.4,95.4,55.1,95.4,54.3z"/>
			<path id="XMLID_554_" class="st1" d="M98.9,55.3l1.5-6.9h0.7l-1.5,6.9H98.9z M100.5,46.8c0-0.4,0.3-0.6,0.6-0.6
				c0.3,0,0.5,0.2,0.5,0.5c0,0.4-0.3,0.6-0.6,0.6C100.8,47.3,100.5,47.1,100.5,46.8z"/>
			<path id="XMLID_551_" class="st1" d="M102.2,52.4c0-2.2,1.6-4.2,3.8-4.2c1.9,0,3,1.2,3,3c0,2.2-1.6,4.2-3.8,4.2
				C103.4,55.4,102.2,54.2,102.2,52.4z M108.2,51.3c0-1.4-0.8-2.4-2.2-2.4c-1.7,0-3,1.7-3,3.5c0,1.4,0.8,2.4,2.2,2.4
				C107,54.8,108.2,53,108.2,51.3z"/>
			<path id="XMLID_549_" class="st1" d="M114.7,55.3l1-4.7c0-0.1,0.1-0.3,0.1-0.5c0-0.9-0.7-1.2-1.5-1.2c-0.9,0-1.8,0.6-2.4,1.2
				l-1.1,5.2h-0.7l1.5-6.9h0.7l-0.2,1c0.6-0.6,1.5-1.2,2.5-1.2c1.2,0,2,0.6,2,1.7c0,0.1,0,0.4-0.1,0.6l-1.1,4.8H114.7z"/>
			<path id="XMLID_545_" class="st1" d="M127.5,55.3c-0.2-0.3-0.5-0.6-0.7-0.9c-0.8,0.7-1.7,1.1-2.7,1.1c-1.5,0-2.8-0.8-2.8-2.3
				c0-1.9,1.4-2.6,2.8-3.2c-0.2-0.6-0.4-1.1-0.4-1.7c0-1.4,1.2-2.6,2.5-2.6c1.1,0,2,0.6,2,1.6c0,1.7-1.6,2.3-3.1,2.9
				c0.2,0.5,0.5,1,0.8,1.5c0.3,0.6,0.7,1.1,1,1.6c0.8-0.8,1.3-1.7,1.6-2.2l0.6,0.4c-0.5,0.8-1.1,1.7-1.8,2.5
				c0.3,0.5,0.7,0.9,1.2,1.5H127.5z M126.4,53.8c-0.4-0.6-0.9-1.3-1.1-1.7c-0.4-0.6-0.7-1.2-0.9-1.7c-1.2,0.5-2.2,1.2-2.2,2.6
				c0,1.2,0.9,1.8,2,1.8C125,54.8,125.8,54.3,126.4,53.8z M124.9,49.6c1.4-0.5,2.6-1,2.6-2.3c0-0.7-0.5-1.1-1.2-1.1
				c-0.8,0-1.7,0.7-1.7,1.9C124.6,48.6,124.7,49.1,124.9,49.6z"/>
			<path id="XMLID_542_" class="st1" d="M139.9,55.3l-1.8-3.9H136l-0.9,3.9h-0.8l2.1-9.5h3.3c1.3,0,2.6,0.9,2.6,2.4
				c0,1.8-1.3,3.1-3.2,3.1l1.9,4H139.9z M138.8,50.6c1.7,0,2.6-1.1,2.6-2.4c0-1-0.9-1.7-1.8-1.7H137l-0.9,4.1H138.8L138.8,50.6z"/>
			<path id="XMLID_539_" class="st1" d="M142.6,52.4c0-2.3,1.7-4.2,3.8-4.2c1.8,0,2.9,1.3,2.9,3c0,0.3-0.1,0.7-0.1,0.9h-5.8
				c0,0.1,0,0.3,0,0.4c0,1.3,0.8,2.3,2.5,2.3c0.7,0,1.5-0.2,2.1-0.7l0.3,0.5c-0.6,0.5-1.5,0.8-2.4,0.8
				C143.8,55.4,142.6,54.2,142.6,52.4z M148.6,51.5c0-0.1,0-0.2,0-0.3c0-1.3-0.8-2.3-2.3-2.3c-1.4,0-2.6,1.2-2.9,2.6H148.6z"/>
			<path id="XMLID_537_" class="st1" d="M150.8,54.3c0-0.1,0-0.2,0-0.4l1.1-4.9h-1.1l0.1-0.7h1.1l0.4-1.9h0.8l-0.4,1.9h1.4L154,49
				h-1.4l-1.1,4.8c0,0.1,0,0.2,0,0.3c0,0.4,0.2,0.7,0.7,0.7c0.3,0,0.6-0.1,0.7-0.3l0.1,0.6c-0.3,0.2-0.6,0.3-1,0.3
				C151.3,55.4,150.8,55.1,150.8,54.3z"/>
			<path id="XMLID_534_" class="st1" d="M154.6,52.4c0-2.3,1.7-4.2,3.8-4.2c1.8,0,2.9,1.3,2.9,3c0,0.3-0.1,0.7-0.1,0.9h-5.8
				c0,0.1,0,0.3,0,0.4c0,1.3,0.8,2.3,2.5,2.3c0.7,0,1.5-0.2,2.1-0.7l0.3,0.5c-0.6,0.5-1.5,0.8-2.4,0.8
				C155.8,55.4,154.6,54.2,154.6,52.4z M160.6,51.5c0-0.1,0-0.2,0-0.3c0-1.3-0.8-2.3-2.3-2.3c-1.4,0-2.6,1.2-2.9,2.6H160.6z"/>
			<path id="XMLID_532_" class="st1" d="M167,55.3l1-4.7c0-0.1,0.1-0.3,0.1-0.5c0-0.9-0.7-1.2-1.5-1.2c-0.9,0-1.8,0.6-2.4,1.2
				l-1.1,5.2h-0.7l1.5-6.9h0.7l-0.2,1c0.6-0.6,1.5-1.2,2.5-1.2c1.2,0,2,0.6,2,1.7c0,0.1,0,0.4-0.1,0.6l-1.1,4.8H167z"/>
			<path id="XMLID_530_" class="st1" d="M170.5,54.3c0-0.1,0-0.2,0-0.4l1.1-4.9h-1.1l0.1-0.7h1.1l0.4-1.9h0.8l-0.4,1.9h1.4l-0.2,0.7
				h-1.4l-1.1,4.8c0,0.1,0,0.2,0,0.3c0,0.4,0.2,0.7,0.7,0.7c0.3,0,0.6-0.1,0.7-0.3l0.1,0.6c-0.3,0.2-0.6,0.3-1,0.3
				C171,55.4,170.5,55.1,170.5,54.3z"/>
			<path id="XMLID_527_" class="st1" d="M174,55.3l1.5-6.9h0.7l-1.5,6.9H174z M175.6,46.8c0-0.4,0.3-0.6,0.6-0.6
				c0.3,0,0.5,0.2,0.5,0.5c0,0.4-0.3,0.6-0.6,0.6C175.9,47.3,175.6,47.1,175.6,46.8z"/>
			<path id="XMLID_524_" class="st1" d="M177.3,52.4c0-2.2,1.6-4.2,3.8-4.2c1.9,0,3,1.2,3,3c0,2.2-1.6,4.2-3.8,4.2
				C178.5,55.4,177.3,54.2,177.3,52.4z M183.3,51.3c0-1.4-0.8-2.4-2.2-2.4c-1.7,0-3,1.7-3,3.5c0,1.4,0.8,2.4,2.2,2.4
				C182.1,54.8,183.3,53,183.3,51.3z"/>
			<path id="XMLID_522_" class="st1" d="M189.8,55.3l1-4.7c0-0.1,0.1-0.3,0.1-0.5c0-0.9-0.7-1.2-1.5-1.2c-0.9,0-1.8,0.6-2.4,1.2
				l-1.1,5.2h-0.7l1.5-6.9h0.7l-0.2,1c0.6-0.6,1.5-1.2,2.5-1.2c1.2,0,2,0.6,2,1.7c0,0.1,0,0.4-0.1,0.6l-1.1,4.8H189.8z"/>
		</g>
	</g>
</g>
</svg>
