<?xml version="1.0" encoding="utf-8"?>
<!-- Generator: Adobe Illustrator 22.0.1, SVG Export Plug-In . SVG Version: 6.00 Build 0)  -->
<svg version="1.1" id="Layer_1" xmlns="http://www.w3.org/2000/svg" xmlns:xlink="http://www.w3.org/1999/xlink" x="0px" y="0px"
	 viewBox="0 0 776 180" style="enable-background:new 0 0 776 180;" xml:space="preserve">
<style type="text/css">
	.st0{enable-background:new    ;}
	.st1{fill:#FFFFFF;}
</style>
<g id="Layer_2_1_">
	<g>
		<g>
			<g>
				<g class="st0">
					<path class="st1" d="M260.4,104.5c0,0.4-0.1,0.7-0.4,1s-0.7,0.6-1.2,0.7c-0.6,0.2-1.3,0.3-2.3,0.5c-1,0.1-2.2,0.2-3.6,0.2
						c-1.5,0-2.7-0.1-3.7-0.2s-1.7-0.3-2.3-0.5s-1-0.4-1.2-0.7c-0.3-0.3-0.4-0.7-0.4-1V74.4h-27.8v30.1c0,0.4-0.1,0.7-0.3,1
						s-0.6,0.6-1.2,0.7c-0.6,0.2-1.3,0.3-2.3,0.5c-1,0.1-2.2,0.2-3.7,0.2s-2.7-0.1-3.7-0.2s-1.8-0.3-2.3-0.5c-0.6-0.2-1-0.4-1.2-0.7
						c-0.3-0.3-0.4-0.7-0.4-1V34.2c0-0.4,0.1-0.7,0.4-1c0.2-0.3,0.7-0.6,1.2-0.7c0.6-0.2,1.4-0.3,2.3-0.5c1-0.1,2.2-0.2,3.7-0.2
						s2.7,0.1,3.7,0.2c1,0.1,1.7,0.3,2.3,0.5s1,0.4,1.2,0.7s0.3,0.7,0.3,1v27.3h27.8V34.2c0-0.4,0.1-0.7,0.4-1
						c0.2-0.3,0.7-0.6,1.2-0.7c0.6-0.2,1.3-0.3,2.3-0.5c1-0.1,2.2-0.2,3.7-0.2s2.7,0.1,3.6,0.2c1,0.1,1.7,0.3,2.3,0.5
						c0.6,0.2,1,0.4,1.2,0.7s0.4,0.7,0.4,1V104.5z"/>
					<path class="st1" d="M323.1,77.5c0,1.8-0.4,3.1-1.2,3.9c-0.8,0.8-1.9,1.3-3.2,1.3h-31.2c0,2.2,0.3,4.2,0.8,5.9
						c0.5,1.8,1.3,3.3,2.5,4.5c1.1,1.2,2.6,2.2,4.4,2.8c1.8,0.7,3.9,1,6.4,1s4.8-0.2,6.7-0.5c1.9-0.4,3.6-0.8,5-1.2
						c1.4-0.4,2.6-0.8,3.5-1.2c0.9-0.4,1.7-0.5,2.2-0.5c0.3,0,0.6,0.1,0.9,0.2c0.2,0.1,0.4,0.4,0.6,0.7c0.2,0.3,0.3,0.8,0.3,1.5
						c0.1,0.6,0.1,1.4,0.1,2.4c0,0.8,0,1.6-0.1,2.2c0,0.6-0.1,1.1-0.2,1.5s-0.2,0.8-0.3,1.1c-0.2,0.3-0.4,0.6-0.6,0.8
						c-0.3,0.3-0.9,0.6-2,1.1s-2.5,0.9-4.3,1.4c-1.7,0.4-3.7,0.8-5.9,1.1c-2.2,0.3-4.6,0.5-7.1,0.5c-4.6,0-8.6-0.6-12-1.7
						s-6.3-2.9-8.6-5.2c-2.3-2.3-4-5.3-5.1-8.9s-1.7-7.7-1.7-12.5c0-4.6,0.6-8.7,1.8-12.3c1.2-3.7,2.9-6.8,5.2-9.3
						c2.3-2.5,5-4.5,8.2-5.8s6.9-2,11-2c4.3,0,8,0.6,11,1.9c3,1.3,5.5,3,7.5,5.3c2,2.2,3.4,4.9,4.3,8c0.9,3.1,1.4,6.4,1.4,10v2
						H323.1z M309.1,73.3c0.1-4.1-0.7-7.3-2.4-9.6c-1.7-2.3-4.4-3.5-8.1-3.5c-1.8,0-3.4,0.3-4.8,1s-2.5,1.6-3.4,2.8
						c-0.9,1.2-1.6,2.5-2.1,4.1s-0.8,3.3-0.8,5.1L309.1,73.3L309.1,73.3z"/>
					<path class="st1" d="M378.7,104.8c0,0.5-0.2,1-0.6,1.3s-1,0.5-1.8,0.7c-0.8,0.1-2,0.2-3.7,0.2s-3-0.1-3.8-0.2s-1.3-0.4-1.7-0.7
						c-0.3-0.3-0.5-0.7-0.5-1.3v-4.1c-2.1,2.3-4.5,4-7.2,5.3s-5.7,1.9-9,1.9c-2.7,0-5.2-0.4-7.5-1.1s-4.3-1.8-5.9-3.2
						c-1.7-1.4-3-3.1-3.9-5.2s-1.4-4.5-1.4-7.2c0-3,0.6-5.6,1.8-7.8c1.2-2.2,2.9-4,5.2-5.5c2.3-1.4,5.2-2.5,8.7-3.2
						c3.4-0.7,7.5-1,12-1h5v-3.1c0-1.6-0.2-3-0.5-4.2s-0.9-2.2-1.6-3c-0.7-0.8-1.7-1.4-3-1.8c-1.2-0.4-2.8-0.6-4.6-0.6
						c-2.4,0-4.6,0.3-6.5,0.8s-3.6,1.1-5,1.8c-1.5,0.7-2.7,1.2-3.6,1.8c-1,0.5-1.8,0.8-2.4,0.8c-0.4,0-0.8-0.1-1.1-0.4
						c-0.3-0.3-0.6-0.7-0.8-1.1c-0.2-0.5-0.4-1.1-0.5-1.8s-0.2-1.5-0.2-2.4c0-1.2,0.1-2.1,0.3-2.8c0.2-0.7,0.6-1.3,1.1-1.9
						c0.5-0.6,1.5-1.2,2.8-1.8c1.3-0.7,2.9-1.3,4.7-1.9c1.8-0.6,3.8-1,5.9-1.4s4.3-0.5,6.6-0.5c4,0,7.5,0.4,10.3,1.2
						c2.9,0.8,5.2,2,7,3.6s3.2,3.7,4,6.3s1.3,5.6,1.3,9.1v34.4H378.7z M364.5,82.8H359c-2.3,0-4.3,0.2-6,0.5c-1.6,0.3-3,0.9-4,1.6
						s-1.8,1.5-2.3,2.5s-0.7,2.1-0.7,3.4c0,2.1,0.7,3.8,2,5.1c1.4,1.2,3.2,1.8,5.7,1.8c2,0,3.9-0.5,5.6-1.6c1.7-1,3.4-2.5,5.2-4.5
						L364.5,82.8L364.5,82.8z"/>
					<path class="st1" d="M407.6,104.6c0,0.4-0.1,0.7-0.3,1c-0.2,0.3-0.6,0.5-1.2,0.7s-1.3,0.3-2.2,0.4c-0.9,0.1-2.1,0.1-3.5,0.1
						s-2.6,0-3.5-0.1s-1.7-0.2-2.2-0.4s-0.9-0.4-1.2-0.7c-0.2-0.3-0.3-0.6-0.3-1V29c0-0.4,0.1-0.7,0.3-1c0.2-0.3,0.6-0.6,1.2-0.8
						s1.3-0.4,2.2-0.5c0.9-0.1,2.1-0.2,3.5-0.2s2.6,0.1,3.5,0.2s1.7,0.3,2.2,0.5c0.6,0.2,0.9,0.5,1.2,0.8c0.2,0.3,0.3,0.7,0.3,1
						V104.6z"/>
					<path class="st1" d="M452.4,99.5c0,1.7-0.1,3-0.3,3.9c-0.2,0.9-0.5,1.5-0.8,1.9s-0.9,0.7-1.5,1c-0.7,0.3-1.5,0.5-2.4,0.7
						s-1.9,0.4-2.9,0.5c-1.1,0.1-2.1,0.2-3.2,0.2c-2.9,0-5.4-0.4-7.5-1.1s-3.9-1.8-5.2-3.4c-1.4-1.5-2.4-3.4-3-5.7
						c-0.7-2.3-1-5-1-8.2V63.1h-6.2c-0.7,0-1.3-0.5-1.7-1.4c-0.4-0.9-0.6-2.4-0.6-4.5c0-1.1,0-2,0.1-2.8s0.2-1.4,0.4-1.8
						c0.2-0.4,0.4-0.8,0.7-0.9s0.6-0.3,1-0.3h6.1V39.9c0-0.4,0.1-0.7,0.3-1c0.2-0.3,0.6-0.6,1.1-0.8c0.6-0.2,1.3-0.4,2.2-0.5
						c0.9-0.1,2.1-0.1,3.5-0.1s2.6,0,3.5,0.1s1.7,0.3,2.2,0.5s0.9,0.5,1.1,0.8s0.3,0.7,0.3,1v11.4h11.2c0.4,0,0.7,0.1,1,0.3
						s0.5,0.5,0.7,0.9s0.3,1,0.4,1.8s0.1,1.7,0.1,2.8c0,2.1-0.2,3.6-0.6,4.5s-0.9,1.4-1.7,1.4H439v24.1c0,2.8,0.4,4.9,1.3,6.3
						s2.5,2.1,4.7,2.1c0.8,0,1.5-0.1,2.1-0.2s1.2-0.3,1.6-0.5c0.5-0.2,0.9-0.3,1.2-0.5c0.3-0.1,0.6-0.2,0.9-0.2
						c0.2,0,0.5,0.1,0.7,0.2s0.4,0.4,0.5,0.8s0.2,0.9,0.3,1.6C452.4,97.6,452.4,98.5,452.4,99.5z"/>
					<path class="st1" d="M511.8,104.6c0,0.4-0.1,0.7-0.3,1c-0.2,0.3-0.6,0.5-1.1,0.7s-1.3,0.3-2.2,0.4c-0.9,0.1-2.1,0.1-3.5,0.1
						s-2.6,0-3.5-0.1s-1.7-0.2-2.2-0.4c-0.5-0.2-0.9-0.4-1.1-0.7c-0.2-0.3-0.3-0.6-0.3-1V75.3c0-2.5-0.2-4.4-0.5-5.9
						c-0.4-1.4-0.9-2.6-1.6-3.6s-1.6-1.8-2.7-2.4s-2.4-0.8-3.8-0.8c-1.8,0-3.7,0.7-5.6,2s-3.8,3.3-5.9,5.9v34.1c0,0.4-0.1,0.7-0.3,1
						c-0.2,0.3-0.6,0.5-1.2,0.7s-1.3,0.3-2.2,0.4c-0.9,0.1-2.1,0.1-3.5,0.1s-2.6,0-3.5-0.1s-1.7-0.2-2.2-0.4
						c-0.6-0.2-0.9-0.4-1.2-0.7c-0.2-0.3-0.3-0.6-0.3-1V29c0-0.4,0.1-0.7,0.3-1c0.2-0.3,0.6-0.6,1.2-0.8c0.6-0.2,1.3-0.4,2.2-0.5
						c0.9-0.1,2.1-0.2,3.5-0.2s2.6,0.1,3.5,0.2s1.7,0.3,2.2,0.5c0.6,0.2,0.9,0.5,1.2,0.8c0.2,0.3,0.3,0.7,0.3,1v28.3
						c2.5-2.5,5-4.3,7.6-5.5s5.3-1.8,8.1-1.8c3.5,0,6.4,0.6,8.8,1.7c2.4,1.2,4.3,2.7,5.8,4.7s2.5,4.3,3.2,7c0.7,2.7,1,5.9,1,9.7
						v31.5H511.8z"/>
				</g>
				<g class="st0">
					<path class="st1" d="M578.3,95.3c0,1,0,1.8-0.1,2.4c-0.1,0.7-0.1,1.2-0.3,1.7c-0.1,0.5-0.3,0.9-0.5,1.2
						c-0.2,0.3-0.5,0.7-0.9,1.2c-0.4,0.4-1.2,1-2.4,1.7s-2.7,1.4-4.4,2s-3.7,1.2-6,1.6c-2.2,0.4-4.7,0.6-7.3,0.6
						c-5.1,0-9.7-0.8-13.8-2.4s-7.6-3.9-10.5-7s-5.1-7-6.6-11.7s-2.3-10.1-2.3-16.3c0-6.3,0.8-11.9,2.5-16.8s4-9,7.1-12.4
						s6.7-5.9,10.9-7.6c4.2-1.7,8.9-2.6,14-2.6c2.1,0,4.1,0.2,6,0.5s3.7,0.8,5.3,1.4s3.1,1.2,4.4,1.9c1.3,0.7,2.2,1.4,2.7,1.9
						s0.9,0.9,1.1,1.3s0.3,0.8,0.5,1.3c0.1,0.5,0.2,1.2,0.3,1.9s0.1,1.6,0.1,2.7c0,1.1,0,2.1-0.1,2.9c-0.1,0.8-0.2,1.5-0.4,2
						s-0.4,0.9-0.7,1.1c-0.3,0.2-0.6,0.3-0.9,0.3c-0.6,0-1.3-0.3-2.2-1s-2-1.4-3.4-2.2s-3.1-1.6-5-2.2c-1.9-0.7-4.2-1-6.9-1
						c-3,0-5.6,0.6-7.9,1.8c-2.3,1.2-4.3,2.9-5.9,5.2c-1.6,2.2-2.9,5-3.7,8.1c-0.8,3.2-1.3,6.8-1.3,10.7c0,4.4,0.5,8.2,1.4,11.4
						c0.9,3.2,2.2,5.8,3.9,7.9s3.7,3.6,6,4.6c2.4,1,5,1.5,8,1.5c2.7,0,5-0.3,7-0.9s3.6-1.3,5-2.1c1.4-0.8,2.5-1.5,3.4-2.1
						s1.6-0.9,2.1-0.9c0.4,0,0.7,0.1,0.9,0.2c0.2,0.2,0.4,0.5,0.6,0.9c0.2,0.5,0.3,1.1,0.3,1.9C578.3,92.8,578.3,93.9,578.3,95.3z"
						/>
					<path class="st1" d="M632,104.8c0,0.5-0.2,1-0.6,1.3c-0.4,0.3-1,0.5-1.8,0.7c-0.8,0.1-2,0.2-3.7,0.2s-3-0.1-3.8-0.2
						s-1.3-0.4-1.7-0.7c-0.3-0.3-0.5-0.7-0.5-1.3v-4.1c-2.1,2.3-4.5,4-7.2,5.3s-5.7,1.9-9,1.9c-2.7,0-5.2-0.4-7.5-1.1
						s-4.3-1.8-5.9-3.2s-3-3.1-3.9-5.2s-1.4-4.5-1.4-7.2c0-3,0.6-5.6,1.8-7.8c1.2-2.2,2.9-4,5.2-5.5c2.3-1.4,5.2-2.5,8.7-3.2
						c3.4-0.7,7.5-1,12-1h5v-3.1c0-1.6-0.2-3-0.5-4.2s-0.9-2.2-1.6-3c-0.7-0.8-1.7-1.4-3-1.8c-1.2-0.4-2.8-0.6-4.6-0.6
						c-2.4,0-4.6,0.3-6.5,0.8s-3.6,1.1-5,1.8s-2.7,1.2-3.6,1.8c-1,0.5-1.8,0.8-2.4,0.8c-0.4,0-0.8-0.1-1.1-0.4s-0.6-0.7-0.8-1.1
						s-0.4-1.1-0.5-1.8s-0.2-1.5-0.2-2.4c0-1.2,0.1-2.1,0.3-2.8s0.6-1.3,1.1-1.9c0.5-0.6,1.5-1.2,2.8-1.8c1.3-0.7,2.9-1.3,4.7-1.9
						c1.8-0.6,3.8-1,5.9-1.4s4.3-0.5,6.6-0.5c4,0,7.5,0.4,10.3,1.2c2.9,0.8,5.2,2,7,3.6s3.2,3.7,4,6.3s1.3,5.6,1.3,9.1v34.4H632z
						 M617.8,82.8h-5.5c-2.3,0-4.3,0.2-6,0.5c-1.6,0.3-3,0.9-4,1.6s-1.8,1.5-2.3,2.5s-0.7,2.1-0.7,3.4c0,2.1,0.7,3.8,2,5.1
						c1.4,1.2,3.2,1.8,5.7,1.8c2,0,3.9-0.5,5.6-1.6c1.7-1,3.4-2.5,5.2-4.5V82.8z"/>
					<path class="st1" d="M679.4,58.1c0,1.4,0,2.5-0.1,3.4s-0.2,1.6-0.3,2.1c-0.2,0.5-0.4,0.8-0.6,1c-0.3,0.2-0.6,0.3-0.9,0.3
						c-0.3,0-0.7-0.1-1-0.2c-0.4-0.1-0.8-0.3-1.3-0.4c-0.5-0.2-1-0.3-1.6-0.4s-1.2-0.2-1.9-0.2c-0.8,0-1.6,0.2-2.4,0.5
						c-0.8,0.3-1.6,0.8-2.5,1.5s-1.8,1.6-2.7,2.8c-0.9,1.1-1.9,2.6-3,4.3v32c0,0.4-0.1,0.7-0.3,1s-0.6,0.5-1.2,0.7
						c-0.6,0.2-1.3,0.3-2.2,0.4s-2.1,0.1-3.5,0.1s-2.6,0-3.5-0.1s-1.7-0.2-2.2-0.4c-0.6-0.2-0.9-0.4-1.2-0.7c-0.2-0.3-0.3-0.6-0.3-1
						V53.3c0-0.4,0.1-0.7,0.3-1s0.5-0.5,1-0.7s1.1-0.3,1.9-0.4c0.8-0.1,1.8-0.1,3-0.1s2.2,0,3,0.1s1.4,0.2,1.9,0.4
						c0.4,0.2,0.8,0.4,0.9,0.7c0.2,0.3,0.3,0.6,0.3,1v6.4c1.3-1.9,2.6-3.5,3.8-4.7s2.3-2.2,3.4-3c1.1-0.7,2.1-1.2,3.2-1.5
						c1.1-0.3,2.1-0.4,3.2-0.4c0.5,0,1,0,1.6,0.1s1.2,0.2,1.8,0.3s1.1,0.3,1.6,0.5s0.8,0.4,1,0.5c0.2,0.2,0.4,0.4,0.5,0.6
						c0.1,0.2,0.2,0.5,0.3,0.9s0.1,1,0.2,1.8S679.4,56.7,679.4,58.1z"/>
					<path class="st1" d="M734.3,77.5c0,1.8-0.4,3.1-1.2,3.9s-1.9,1.3-3.2,1.3h-31.2c0,2.2,0.3,4.2,0.8,5.9c0.5,1.8,1.3,3.3,2.5,4.5
						c1.1,1.2,2.6,2.2,4.4,2.8s3.9,1,6.4,1s4.8-0.2,6.7-0.5c1.9-0.4,3.6-0.8,5-1.2c1.4-0.4,2.6-0.8,3.5-1.2c0.9-0.4,1.7-0.5,2.2-0.5
						c0.3,0,0.6,0.1,0.9,0.2c0.2,0.1,0.4,0.4,0.6,0.7c0.2,0.3,0.3,0.8,0.3,1.5c0.1,0.6,0.1,1.4,0.1,2.4c0,0.8,0,1.6-0.1,2.2
						s-0.1,1.1-0.2,1.5c-0.1,0.4-0.2,0.8-0.3,1.1c-0.2,0.3-0.4,0.6-0.6,0.8c-0.3,0.3-0.9,0.6-2,1.1s-2.5,0.9-4.3,1.4
						c-1.7,0.4-3.7,0.8-5.9,1.1c-2.2,0.3-4.6,0.5-7.1,0.5c-4.6,0-8.6-0.6-12-1.7s-6.3-2.9-8.6-5.2c-2.3-2.3-4-5.3-5.1-8.9
						s-1.7-7.7-1.7-12.5c0-4.6,0.6-8.7,1.8-12.3c1.2-3.7,2.9-6.8,5.2-9.3s5-4.5,8.2-5.8s6.9-2,11-2c4.3,0,8,0.6,11,1.9
						s5.5,3,7.5,5.3c2,2.2,3.4,4.9,4.3,8c0.9,3.1,1.4,6.4,1.4,10v2H734.3z M720.3,73.3c0.1-4.1-0.7-7.3-2.4-9.6
						c-1.7-2.3-4.4-3.5-8.1-3.5c-1.8,0-3.4,0.3-4.8,1s-2.5,1.6-3.4,2.8c-0.9,1.2-1.6,2.5-2.1,4.1s-0.8,3.3-0.8,5.1L720.3,73.3
						L720.3,73.3z"/>
				</g>
			</g>
			<g>
				<g>
					<path class="st1" d="M111.1,167.7c-31,6.7-63.1-5.8-81.4-31.8s-19.2-60.4-2.3-87.3c16.9-27,48.2-41.2,79.6-36.2
						C8.5,8.7,8.1,144,88.3,148.4c13.9-11.7,31-14.1,37.2-20.7c6.2-5.3,14.1-1.4,13,1.8c-2.7,3.9-5.2,6.5-9.4,9.5
						c-7,4.9-11,9-11.8,12c1.4-2.4,7.9-5.3,14.7-9.5c8.4-4.5,19.7-15.5,23.9-22.7c3.2-5.5,11-4.6,10.7-0.6
						c-3.2,8.9-14.4,20.9-24.5,33C135.1,159.6,123.8,165.2,111.1,167.7L111.1,167.7z"/>
				</g>
				<g>
					<path class="st1" d="M82.8,26.9h25.5c1.7,0,3.2,0.7,4.2,1.9c-0.5,13.3-5.7,24.1-15.7,34.7c-5,5.3-10.6,10-15.9,15
						c-5.1,4.8-10,10-13.1,16.3c-0.2,0.4-0.4,0.9-0.6,1.3h-17c-3.1,0-5.6-2.5-5.6-5.6V65.1c0-3.1,2.5-5.6,5.6-5.6h27v-27
						C77.2,29.4,79.8,26.9,82.8,26.9L82.8,26.9z"/>
				</g>
				<g>
					<path class="st1" d="M121.6,59.5h19.3c3.1,0,5.6,2.5,5.6,5.6v25.5c0,3.1-2.5,5.6-5.6,5.6h-27v27c0,3.1-2.5,5.6-5.6,5.6H82.8
						c-1.8,0-3.5-0.9-4.5-2.3c1.1-10.6,5.6-19.4,13.1-28.3c8.5-10,19.2-18.5,26-29.9C119.1,65.4,120.5,62.5,121.6,59.5L121.6,59.5z"
						/>
				</g>
			</g>
			<g>
				<path class="st1" d="M181.1,11.4c0.6,13.2,1,26.3,1.2,39.5c0.1,6.6,0.2,13.2,0.3,19.8l0.1,19.8l-0.1,19.8
					c-0.1,6.6-0.1,13.2-0.3,19.8c-0.1,6.6-0.3,13.2-0.5,19.8c-0.3,6.6-0.4,13.2-0.8,19.8c-0.4-6.6-0.5-13.2-0.8-19.8
					c-0.2-6.6-0.4-13.2-0.5-19.8c-0.1-6.6-0.2-13.2-0.3-19.8l-0.1-19.8l0.1-19.8c0.1-6.6,0.1-13.2,0.3-19.8
					C180.1,37.8,180.5,24.6,181.1,11.4z"/>
			</g>
			<path class="st1" d="M759.3,118.7c-0.4,0-0.8,0.2-1,0.5c-2.8,0-4.8,0-5-0.1c-0.1,0-0.4-1.5-0.6-2.6c-0.2-1-0.4-1.9-0.9-2.2
				c-0.5-0.3-1-0.3-1.3,0.3l0,0c-0.3,0.5-0.6,4.3-0.8,8.6c-0.1,1.3-0.2,2.7-0.3,4c-0.1-4.1-0.3-9.4-0.5-14.6
				c-0.3-10.3-0.6-20.3-1.3-20.9l0,0l0,0c-0.5-0.4-0.9-0.3-1.3,0.1l0,0c-0.5,0.6-1.4,8.7-2.3,16.8c-0.5,4.3-0.9,8.6-1.3,11.7
				c-0.1-0.5-0.1-0.9-0.2-1.3c-0.2-1.2-0.4-1.8-1.1-2c-0.7-0.1-1,0.4-1.5,1.6l-0.3,0.8l-0.3,0.7c-0.1-0.8-0.2-1.6-0.2-2.3
				c-0.2-1.9-0.3-3.7-0.9-4l0,0c-0.2-0.1-0.4-0.2-0.5-0.2c-0.3,0-0.5,0.2-0.7,0.5s-0.3,0.6-0.5,1c-0.8,1.5-2.1,3.9-2.7,3.9h-15.6
				H202.7v2h531.2c1.3,0,2.6-2.2,3.5-4c0,0.2,0,0.5,0,0.8c0.1,0.9,0.2,1.8,0.3,2.5c0.2,1.9,0.5,2.8,1.4,2.8c0.7,0,1.2-0.8,1.9-2.4
				l0.1-0.1v0.1c0.1,1,0.3,2.1,0.5,3s0.4,1.6,0.8,1.9c0.2,0.2,0.4,0.2,0.6,0.2c0.2,0,0.5-0.1,0.7-0.4l0,0c0.5-0.7,1.4-8.7,2.3-16.7
				c0.3-3.1,0.7-6.2,1-8.8c0.1,3.5,0.3,8.1,0.4,12.7c0.3,11.3,0.7,23,1.4,23.6c0.5,0.4,0.9,0.4,1.3-0.1c0.7-0.8,1.1-7.3,1.4-12.9
				c0.1-1.4,0.2-2.7,0.2-3.9c0.3,0.7,0.7,1.3,1.2,1.5c0.3,0.1,2.5,0.1,5.5,0.1c0.2,0.3,0.6,0.5,1,0.5c0.7,0,1.3-0.6,1.3-1.3
				C760.6,119.3,760,118.7,759.3,118.7z M759.7,120.5c-0.1,0.1-0.2,0.1-0.4,0.1c-0.3,0-0.6-0.3-0.6-0.6c0-0.4,0.3-0.6,0.6-0.6
				c0.2,0,0.3,0,0.4,0.1c0.2,0.1,0.2,0.3,0.2,0.5S759.8,120.4,759.7,120.5z"/>
			<g>
				<g>
					<path class="st1" d="M227.4,143.4c0,4.4-1.2,7.7-3.7,10.1c-2.4,2.3-5.9,3.5-10.5,3.5h-7.4v-26.6h8.2c4.2,0,7.5,1.1,9.9,3.4
						C226.2,136,227.4,139.2,227.4,143.4z M222.8,143.5c0-6.4-3-9.5-8.9-9.5h-3.8v19.3h3.1C219.6,153.3,222.8,150,222.8,143.5z"/>
				</g>
				<g>
					<path class="st1" d="M239.5,156.9h-4.3v-20.1h4.3V156.9z"/>
				</g>
				<g>
					<path class="st1" d="M265.2,136.8v2.3l-3.4,0.6c0.3,0.4,0.6,0.9,0.8,1.6c0.2,0.6,0.3,1.3,0.3,2c0,2.1-0.7,3.7-2.1,4.9
						s-3.4,1.8-5.9,1.8c-0.6,0-1.2,0-1.7-0.1c-0.9,0.6-1.4,1.2-1.4,2c0,0.5,0.2,0.8,0.6,1c0.4,0.2,1.2,0.3,2.4,0.3h3.5
						c2.2,0,3.9,0.5,5.1,1.4s1.7,2.3,1.7,4.1c0,2.3-0.9,4-2.8,5.3s-4.6,1.9-8.1,1.9c-2.7,0-4.8-0.5-6.3-1.5c-1.4-1-2.2-2.4-2.2-4.1
						c0-1.2,0.4-2.3,1.2-3.1s1.9-1.4,3.3-1.8c-0.6-0.2-1-0.6-1.4-1.2s-0.6-1.1-0.6-1.7c0-0.8,0.2-1.4,0.6-1.9c0.4-0.5,1.1-1,1.9-1.5
						c-1-0.4-1.9-1.2-2.5-2.2s-1-2.2-1-3.6c0-2.2,0.7-3.9,2.1-5.1c1.4-1.2,3.3-1.8,5.9-1.8c0.6,0,1.2,0,1.8,0.1
						c0.6,0.1,1.1,0.2,1.4,0.2h6.8L265.2,136.8L265.2,136.8z M249.4,160c0,0.9,0.4,1.6,1.2,2.1s2,0.7,3.5,0.7c2.3,0,4.1-0.3,5.2-1
						s1.7-1.6,1.7-2.7c0-0.9-0.3-1.5-0.9-1.9s-1.8-0.6-3.5-0.6h-3.2c-1.2,0-2.2,0.3-2.9,0.9C249.7,158.3,249.4,159.1,249.4,160z
						 M251.2,143.3c0,1.3,0.3,2.2,1,2.9c0.6,0.7,1.6,1,2.8,1c2.5,0,3.7-1.3,3.7-4c0-1.3-0.3-2.3-0.9-3s-1.5-1.1-2.8-1.1
						c-1.2,0-2.2,0.4-2.8,1.1S251.2,142,251.2,143.3z"/>
				</g>
				<g>
					<path class="st1" d="M275.8,156.9h-4.3v-20.1h4.3V156.9z"/>
				</g>
				<g>
					<path class="st1" d="M292,153.8c1,0,2.1-0.2,3.1-0.5v3.2c-0.5,0.2-1.1,0.4-1.8,0.5c-0.7,0.1-1.5,0.2-2.3,0.2
						c-4,0-6.1-2.1-6.1-6.4V140h-2.7v-1.9l2.9-1.6l1.5-4.3h2.6v4.5h5.7v3.2h-5.7v10.8c0,1,0.3,1.8,0.8,2.3
						C290.5,153.6,291.2,153.8,292,153.8z"/>
				</g>
				<g>
					<path class="st1" d="M314.3,156.9l-0.9-2.8h-0.1c-1,1.2-1.9,2.1-2.9,2.5s-2.2,0.7-3.8,0.7c-2,0-3.5-0.5-4.6-1.6
						s-1.7-2.6-1.7-4.5c0-2.1,0.8-3.6,2.3-4.7c1.5-1.1,3.9-1.6,7-1.7l3.5-0.1v-1.1c0-1.3-0.3-2.2-0.9-2.9c-0.6-0.6-1.5-1-2.8-1
						c-1,0-2,0.2-3,0.5s-1.9,0.7-2.7,1.1l-1.4-3.1c1.1-0.6,2.3-1,3.6-1.3s2.5-0.4,3.7-0.4c2.6,0,4.5,0.6,5.8,1.7s2,2.9,2,5.3V157
						L314.3,156.9L314.3,156.9z M308,154c1.6,0,2.8-0.4,3.7-1.3c0.9-0.9,1.4-2.1,1.4-3.6v-1.7l-2.6,0.1c-2,0.1-3.5,0.4-4.4,1
						s-1.4,1.5-1.4,2.8c0,0.9,0.3,1.6,0.8,2.1C306.1,153.8,306.9,154,308,154z"/>
				</g>
				<g>
					<path class="st1" d="M330.2,156.9h-4.3v-28.3h4.3V156.9z"/>
				</g>
				<g>
					<path class="st1" d="M363.1,156.9l-7.7-22.2h-0.1c0.2,3.3,0.3,6.4,0.3,9.3v12.9h-3.9v-26.6h6.1l7.4,21.1h0.1l7.6-21.1h6.1v26.6
						h-4.2v-13.1c0-1.3,0-3,0.1-5.2c0.1-2.1,0.1-3.4,0.2-3.9H375l-8,22.2H363.1z"/>
				</g>
				<g>
					<path class="st1" d="M400.7,156.9l-0.9-2.8h-0.1c-1,1.2-1.9,2.1-2.9,2.5s-2.2,0.7-3.8,0.7c-2,0-3.5-0.5-4.6-1.6
						s-1.7-2.6-1.7-4.5c0-2.1,0.8-3.6,2.3-4.7c1.5-1.1,3.9-1.6,7-1.7l3.5-0.1v-1.1c0-1.3-0.3-2.2-0.9-2.9c-0.6-0.6-1.5-1-2.8-1
						c-1,0-2,0.2-3,0.5s-1.9,0.7-2.7,1.1l-1.4-3.1c1.1-0.6,2.3-1,3.6-1.3s2.5-0.4,3.7-0.4c2.6,0,4.5,0.6,5.8,1.7s2,2.9,2,5.3V157
						L400.7,156.9L400.7,156.9z M394.4,154c1.6,0,2.8-0.4,3.7-1.3s1.4-2.1,1.4-3.6v-1.7l-2.6,0.1c-2,0.1-3.5,0.4-4.4,1
						s-1.4,1.5-1.4,2.8c0,0.9,0.3,1.6,0.8,2.1C392.5,153.8,393.3,154,394.4,154z"/>
				</g>
				<g>
					<path class="st1" d="M422.6,136.4c0.9,0,1.6,0.1,2.1,0.2l-0.4,4c-0.6-0.1-1.2-0.2-1.9-0.2c-1.7,0-3.1,0.6-4.2,1.7
						c-1.1,1.1-1.6,2.6-1.6,4.3v10.5h-4.3v-20.1h3.3l0.6,3.5h0.2c0.7-1.2,1.5-2.2,2.6-2.9C420.2,136.8,421.3,136.4,422.6,136.4z"/>
				</g>
				<g>
					<path class="st1" d="M435.2,146.3l2.4-3l6.1-6.5h4.9l-8.1,8.6l8.6,11.5h-5l-6.5-8.8l-2.3,1.9v6.9H431v-28.3h4.2v13.8l-0.2,3.9
						L435.2,146.3L435.2,146.3z"/>
				</g>
				<g>
					<path class="st1" d="M463.7,157.3c-3.1,0-5.6-0.9-7.3-2.7c-1.8-1.8-2.6-4.3-2.6-7.5c0-3.3,0.8-5.9,2.5-7.7
						c1.6-1.9,3.9-2.8,6.7-2.8c2.7,0,4.8,0.8,6.3,2.4c1.5,1.6,2.3,3.8,2.3,6.7v2.3h-13.4c0.1,2,0.6,3.5,1.6,4.5s2.4,1.6,4.2,1.6
						c1.2,0,2.3-0.1,3.3-0.3s2.1-0.6,3.3-1.1v3.5c-1,0.5-2.1,0.8-3.2,1.1S465.1,157.3,463.7,157.3z M462.9,139.7
						c-1.4,0-2.4,0.4-3.3,1.3c-0.8,0.9-1.3,2.1-1.5,3.8h9.1c0-1.7-0.4-2.9-1.2-3.8S464.3,139.7,462.9,139.7z"/>
				</g>
				<g>
					<path class="st1" d="M486.5,153.8c1,0,2.1-0.2,3.1-0.5v3.2c-0.5,0.2-1.1,0.4-1.8,0.5c-0.7,0.1-1.5,0.2-2.3,0.2
						c-4,0-6.1-2.1-6.1-6.4V140h-2.7v-1.9l2.9-1.6l1.5-4.3h2.6v4.5h5.7v3.2h-5.7v10.8c0,1,0.3,1.8,0.8,2.3
						C485,153.6,485.6,153.8,486.5,153.8z"/>
				</g>
				<g>
					<path class="st1" d="M500.5,156.9h-4.3v-20.1h4.3V156.9z"/>
				</g>
				<g>
					<path class="st1" d="M526.9,156.9h-4.3v-12.4c0-1.6-0.3-2.7-0.9-3.5s-1.6-1.1-3-1.1c-1.8,0-3.1,0.5-4,1.6
						c-0.8,1.1-1.3,2.9-1.3,5.4v10h-4.3v-20.1h3.3l0.6,2.6h0.2c0.6-1,1.5-1.7,2.6-2.2s2.4-0.8,3.7-0.8c4.8,0,7.2,2.5,7.2,7.4v13.1
						H526.9z"/>
				</g>
				<g>
					<path class="st1" d="M552.4,136.8v2.3l-3.4,0.6c0.3,0.4,0.6,0.9,0.8,1.6c0.2,0.6,0.3,1.3,0.3,2c0,2.1-0.7,3.7-2.1,4.9
						c-1.4,1.2-3.4,1.8-5.9,1.8c-0.6,0-1.2,0-1.7-0.1c-0.9,0.6-1.4,1.2-1.4,2c0,0.5,0.2,0.8,0.6,1c0.4,0.2,1.2,0.3,2.4,0.3h3.5
						c2.2,0,3.9,0.5,5.1,1.4s1.7,2.3,1.7,4.1c0,2.3-0.9,4-2.8,5.3c-1.9,1.2-4.6,1.9-8.1,1.9c-2.7,0-4.8-0.5-6.3-1.5
						s-2.2-2.4-2.2-4.1c0-1.2,0.4-2.3,1.2-3.1s1.9-1.4,3.3-1.8c-0.6-0.2-1-0.6-1.4-1.2s-0.6-1.1-0.6-1.7c0-0.8,0.2-1.4,0.6-1.9
						c0.4-0.5,1.1-1,1.9-1.5c-1-0.4-1.9-1.2-2.5-2.2s-1-2.2-1-3.6c0-2.2,0.7-3.9,2.1-5.1c1.4-1.2,3.3-1.8,5.9-1.8
						c0.6,0,1.2,0,1.8,0.1s1.1,0.2,1.4,0.2h6.8L552.4,136.8L552.4,136.8z M536.6,160c0,0.9,0.4,1.6,1.2,2.1s2,0.7,3.5,0.7
						c2.3,0,4.1-0.3,5.2-1c1.1-0.7,1.7-1.6,1.7-2.7c0-0.9-0.3-1.5-0.9-1.9c-0.6-0.4-1.8-0.6-3.5-0.6h-3.2c-1.2,0-2.2,0.3-2.9,0.9
						C537,158.3,536.6,159.1,536.6,160z M538.5,143.3c0,1.3,0.3,2.2,1,2.9c0.6,0.7,1.6,1,2.8,1c2.5,0,3.7-1.3,3.7-4
						c0-1.3-0.3-2.3-0.9-3s-1.5-1.1-2.8-1.1c-1.2,0-2.2,0.4-2.8,1.1C538.8,141,538.5,142,538.5,143.3z"/>
				</g>
				<g>
					<path class="st1" d="M586.8,149.7c0,2.4-0.9,4.2-2.6,5.6c-1.7,1.3-4.1,2-7.1,2s-5.5-0.5-7.4-1.4v-4.1c1.2,0.6,2.5,1,3.9,1.3
						s2.6,0.5,3.8,0.5c1.7,0,3-0.3,3.8-1s1.2-1.5,1.2-2.6c0-1-0.4-1.8-1.1-2.5c-0.8-0.7-2.3-1.5-4.7-2.5s-4.1-2.1-5.1-3.4
						c-1-1.3-1.5-2.8-1.5-4.5c0-2.2,0.8-4,2.4-5.2c1.6-1.3,3.7-1.9,6.3-1.9c2.5,0,5.1,0.6,7.6,1.7l-1.4,3.5c-2.4-1-4.5-1.5-6.3-1.5
						c-1.4,0-2.5,0.3-3.2,0.9c-0.7,0.6-1.1,1.4-1.1,2.4c0,0.7,0.1,1.3,0.4,1.8c0.3,0.5,0.8,1,1.4,1.4c0.7,0.4,1.9,1,3.6,1.7
						c2,0.8,3.4,1.6,4.3,2.3c0.9,0.7,1.6,1.5,2,2.4C586.6,147.5,586.8,148.5,586.8,149.7z"/>
				</g>
				<g>
					<path class="st1" d="M611.9,146.8c0,3.3-0.8,5.8-2.5,7.7s-4,2.8-7,2.8c-1.9,0-3.5-0.4-5-1.3c-1.4-0.8-2.6-2.1-3.3-3.7
						s-1.2-3.4-1.2-5.5c0-3.3,0.8-5.8,2.5-7.6s4-2.7,7.1-2.7c2.9,0,5.2,0.9,6.9,2.8C611.1,141.1,611.9,143.7,611.9,146.8z
						 M597.3,146.8c0,4.6,1.7,7,5.1,7c3.4,0,5.1-2.3,5.1-7c0-4.6-1.7-6.9-5.1-6.9c-1.8,0-3.1,0.6-3.9,1.8
						C597.7,142.9,597.3,144.6,597.3,146.8z"/>
				</g>
				<g>
					<path class="st1" d="M623.7,156.9h-4.3v-28.3h4.3V156.9z"/>
				</g>
				<g>
					<path class="st1" d="M646.6,156.9l-0.6-2.6h-0.2c-0.6,0.9-1.4,1.7-2.5,2.2s-2.3,0.8-3.8,0.8c-2.4,0-4.3-0.6-5.5-1.8
						s-1.8-3-1.8-5.5v-13.1h4.3v12.4c0,1.5,0.3,2.7,0.9,3.5c0.6,0.8,1.6,1.2,3,1.2c1.8,0,3.1-0.5,4-1.6c0.8-1.1,1.3-2.9,1.3-5.4v-10
						h4.3v20.1h-3.4V156.9z"/>
				</g>
				<g>
					<path class="st1" d="M666.2,153.8c1,0,2.1-0.2,3.1-0.5v3.2c-0.5,0.2-1.1,0.4-1.8,0.5s-1.5,0.2-2.3,0.2c-4,0-6.1-2.1-6.1-6.4
						V140h-2.7v-1.9l2.9-1.6l1.5-4.3h2.6v4.5h5.7v3.2h-5.7v10.8c0,1,0.3,1.8,0.8,2.3C664.7,153.6,665.3,153.8,666.2,153.8z"/>
				</g>
				<g>
					<path class="st1" d="M680.2,156.9h-4.3v-20.1h4.3V156.9z"/>
				</g>
				<g>
					<path class="st1" d="M706.7,146.8c0,3.3-0.8,5.8-2.5,7.7s-4,2.8-7,2.8c-1.9,0-3.5-0.4-5-1.3c-1.4-0.8-2.6-2.1-3.3-3.7
						s-1.2-3.4-1.2-5.5c0-3.3,0.8-5.8,2.5-7.6s4-2.7,7.1-2.7c2.9,0,5.2,0.9,6.9,2.8C705.9,141.1,706.7,143.7,706.7,146.8z
						 M692.1,146.8c0,4.6,1.7,7,5.1,7c3.4,0,5.1-2.3,5.1-7c0-4.6-1.7-6.9-5.1-6.9c-1.8,0-3.1,0.6-3.9,1.8
						C692.5,142.9,692.1,144.6,692.1,146.8z"/>
				</g>
				<g>
					<path class="st1" d="M731.9,156.9h-4.3v-12.4c0-1.6-0.3-2.7-0.9-3.5s-1.6-1.1-3-1.1c-1.8,0-3.1,0.5-4,1.6
						c-0.8,1.1-1.3,2.9-1.3,5.4v10h-4.3v-20.1h3.3l0.6,2.6h0.2c0.6-1,1.5-1.7,2.6-2.2s2.4-0.8,3.7-0.8c4.8,0,7.2,2.5,7.2,7.4v13.1
						H731.9z"/>
				</g>
				<g>
					<path class="st1" d="M271.3,131.5c0-0.8,0.2-1.4,0.6-1.8s1-0.6,1.8-0.6s1.3,0.2,1.8,0.6c0.4,0.4,0.6,1,0.6,1.8
						c0,0.7-0.2,1.3-0.6,1.7s-1,0.6-1.8,0.6s-1.4-0.2-1.8-0.6S271.3,132.2,271.3,131.5z"/>
				</g>
				<g>
					<path class="st1" d="M235,131.5c0-0.8,0.2-1.4,0.6-1.8s1-0.6,1.8-0.6s1.3,0.2,1.8,0.6c0.4,0.4,0.6,1,0.6,1.8
						c0,0.7-0.2,1.3-0.6,1.7c-0.4,0.4-1,0.6-1.8,0.6s-1.4-0.2-1.8-0.6S235,132.2,235,131.5z"/>
				</g>
			</g>
		</g>
		<g>
			<path class="st1" d="M496,131.5c0-0.8,0.2-1.4,0.6-1.8s1-0.6,1.8-0.6s1.3,0.2,1.8,0.6s0.6,1,0.6,1.8c0,0.7-0.2,1.3-0.6,1.7
				s-1,0.6-1.8,0.6s-1.4-0.2-1.8-0.6S496,132.2,496,131.5z"/>
		</g>
		<g>
			<path class="st1" d="M675.7,131.5c0-0.8,0.2-1.4,0.6-1.8s1-0.6,1.8-0.6s1.3,0.2,1.8,0.6s0.6,1,0.6,1.8c0,0.7-0.2,1.3-0.6,1.7
				s-1,0.6-1.8,0.6s-1.4-0.2-1.8-0.6S675.7,132.2,675.7,131.5z"/>
		</g>
	</g>
</g>
</svg>
