<?xml version="1.0" encoding="utf-8"?>
<!-- Generator: Adobe Illustrator 22.0.1, SVG Export Plug-In . SVG Version: 6.00 Build 0)  -->
<svg version="1.1" id="Layer_1" xmlns="http://www.w3.org/2000/svg" xmlns:xlink="http://www.w3.org/1999/xlink" x="0px" y="0px"
	 viewBox="0 0 2225 1464" style="enable-background:new 0 0 2225 1464;" xml:space="preserve">
<style type="text/css">
	.st0{fill:#F5FAFF;}
	.st1{fill:#C3DCFA;}
	.st2{fill:#3D7DDA;}
	.st3{fill:#000446;}
	.st4{clip-path:url(#SVGID_2_);fill:url(#SVGID_3_);}
	.st5{fill:#2A4589;}
	.st6{fill:#B1D2FC;}
	.st7{fill:#85B2EA;}
	.st8{fill:#679ADA;}
	.st9{fill:#F4AF8F;}
	.st10{fill:#1F3E7A;}
	.st11{fill:#F6C0C5;}
	.st12{fill:#B2CBFD;}
	.st13{fill:#3590FF;}
	.st14{fill:#FFFFFF;}
	.st15{fill:#577BC1;}
	.st16{fill:#9FC2FF;}
	.st17{fill:#F4FAFD;}
	.st18{fill:#F4B1B1;}
	.st19{fill:#E06B6C;}
	.st20{fill:#6497E1;}
	.st21{fill:#F6597B;}
	.st22{fill:#EF8200;}
	.st23{fill:#F09B9C;}
	.st24{fill:#62A5E4;}
	.st25{fill:#4B8FD0;}
	.st26{fill:#3882C8;}
	.st27{fill:#C1E1FF;}
	.st28{fill:#4D97DD;}
	.st29{fill:#105DC4;}
	.st30{fill:#FCA700;}
	.st31{fill:#E0E0DF;}
	.st32{fill:#F69B25;}
	.st33{fill:#2C3A64;}
	.st34{fill:#35488B;}
	.st35{fill:#F4AC75;}
	.st36{fill:#E9F2FF;}
	.st37{opacity:0.2;fill:#B2CBFD;enable-background:new    ;}
	.st38{fill:#C97C47;}
	.st39{fill:#B64C41;}
	.st40{fill:#D6716B;}
	.st41{opacity:0.5;fill:#B2CBFD;enable-background:new    ;}
	.st42{fill:#7A97F3;}
	.st43{fill:#8BB1E9;}
	.st44{fill:#C7E1F9;stroke:#ACBCDF;stroke-miterlimit:10;}
	.st45{fill:#4F638F;}
</style>
<path class="st0" d="M1126.4,121.5c106.4,40.2,207.5,126.4,287.2,206.7c165.9,167.2,190.7,202.4,395.3,342.9
	c119.3,81.9,213.4,151,259.6,243.7c130.1,260-24.9,541-349.8,541c-13.2,0-1320.7,0-1320.7,0s-155.4,3.5-268.7-135.4
	C-254.8,849.2,382.5-159.9,1126.4,121.5"/>
<path class="st1" d="M890.2,621.9l10.5-10.6c4.4-4.4,5.3-11.2,2.2-16.6c-6-10.4-10.6-21.4-13.8-32.7c-1.7-6-7.2-10.1-13.4-10
	l-14.9,0.1c-7.7,0.1-14-6.2-14.1-13.8l-0.2-28.5c0-7.7,6.2-14,13.9-14.1l14.9-0.1c6.2,0,11.7-4.2,13.3-10.2
	c3-11.3,7.5-22.4,13.3-32.9c3-5.4,2-12.2-2.5-16.6l-10.6-10.5c-5.5-5.4-5.5-14.3-0.1-19.7l20-20.3c5.4-5.5,14.3-5.5,19.7-0.1
	l10.6,10.5c4.4,4.4,11.2,5.3,16.6,2.2c10.4-6,21.4-10.6,32.7-13.8c6-1.7,10.1-7.2,10.1-13.4l-0.1-14.9c-0.1-7.7,6.2-14,13.9-14
	l28.5-0.2c7.7-0.1,14,6.2,14,13.9l0.1,14.9c0,6.2,4.2,11.7,10.2,13.3c11.3,3,22.4,7.5,32.9,13.3c5.4,3,12.2,2,16.6-2.4l10.5-10.6
	c5.4-5.5,14.3-5.5,19.7-0.1l20.3,20c5.5,5.4,5.5,14.3,0.1,19.7l-10.5,10.6c-4.4,4.5-5.3,11.2-2.2,16.7c6,10.4,10.6,21.3,13.8,32.7
	c1.7,6,7.2,10.1,13.4,10.1l14.9-0.1c7.7-0.1,14,6.2,14,13.9l0.2,28.5c0,7.7-6.2,14-13.9,14.1l-14.6-0.3c-6.3,0.1-11.7,4.2-13.3,10.2
	c-3,11.3-7.5,22.4-13.3,32.9c-3,5.4-2,12.3,2.4,16.6l10.6,10.5c5.5,5.4,5.5,14.3,0.1,19.7l-20,20.3c-5.4,5.4-14.3,5.5-19.7,0.1
	l-10.6-10.5c-4.4-4.4-11.2-5.3-16.7-2.2c-10.4,6-21.3,10.6-32.7,13.8c-6,1.7-10.1,7.2-10,13.4l0.1,14.9c0,7.7-6.2,14-13.9,14.1
	l-28.5,0.2c-7.7,0.1-14-6.2-14.1-13.9l-0.1-14.9c0-6.2-4.2-11.7-10.2-13.3c-11.3-3-22.4-7.5-32.9-13.3c-5.4-3-12.2-2-16.6,2.4
	l-10.5,10.6c-5.4,5.5-14.3,5.5-19.7,0.1l-20.3-20C884.9,636.3,884.8,627.5,890.2,621.9 M983.5,586.3c26.5,18.8,63.1,18.6,89.3-0.6
	c43.4-31.5,43-95.3-0.8-126.4c-26.5-18.8-63.1-18.6-89.3,0.6C939.4,491.5,939.8,555.3,983.5,586.3z"/>
<path class="st2" d="M592.3,515.2H1654c17.3,0,31.6,14.2,31.6,31.6v672.4c0,17.3-14.2,31.6-31.6,31.6H592.3
	c-17.3,0-31.6-14.2-31.6-31.6V546.8C560.6,529.4,574.8,515.2,592.3,515.2"/>
<rect x="247.9" y="1439.1" class="st3" width="1660.2" height="2.6"/>
<g>
	<g>
		<g>
			<g>
				<defs>
					<path id="SVGID_1_" d="M587.6,547.3h1069.9c0.5,0,0.8,0.4,0.8,0.9v594.4H586.7V548.1C586.7,547.7,587.1,547.3,587.6,547.3"/>
				</defs>
				<clipPath id="SVGID_2_">
					<use xlink:href="#SVGID_1_"  style="overflow:visible;"/>
				</clipPath>
				
					<linearGradient id="SVGID_3_" gradientUnits="userSpaceOnUse" x1="1122.4" y1="1024.3997" x2="1122.4" y2="1506.4967" gradientTransform="matrix(1 0 0 -1 0 2128)">
					<stop  offset="0" style="stop-color:#8BC1F6"/>
					<stop  offset="1" style="stop-color:#E8F4FB"/>
				</linearGradient>
				<rect x="586.7" y="547.3" class="st4" width="1071.4" height="595.3"/>
			</g>
		</g>
	</g>
</g>
<path class="st2" d="M1038.1,1239.6c-4.6,98.8-16.6,123.8-100.2,180.1H1123h185.1c-83.5-56.3-95.6-81.3-100.2-180.1l-85-8
	L1038.1,1239.6z"/>
<rect x="1035.2" y="1250.8" class="st5" width="175.7" height="31.4"/>
<path class="st6" d="M1123.1,1161.5c13.7,0,25,11.1,25,25c0,13.7-11.1,25-25,25c-13.7,0-25-11.1-25-25
	C1098.2,1172.6,1109.4,1161.5,1123.1,1161.5"/>
<path class="st7" d="M1993.2,1066.7c31.5,74.6,20.4,215.4-27.3,273.7c-47.6,58.4-173.5,140.3-355.6,63.5
	c-98.7-41.6-141.3-184.3,24.2-229.4c31.3-8.5,62.4-28.1,71.8-46.8c14.8-29.5,58.1-120.4,114.4-142.2
	C1897.1,955.8,1961.7,992,1993.2,1066.7"/>
<path class="st8" d="M1535.9,1335.7c-29.5-57.9-11.6-131.2,98.6-161.2c31.3-8.5,62.4-28.1,71.8-46.8
	c14.8-29.5,58.1-120.4,114.4-142.2c38.6-15,74.1-13.1,104,2c3.1,5.8,6.1,11.9,8.8,18.3c31.5,74.6,20.4,215.4-27.3,273.7
	c-47.6,58.3-173.5,140.3-355.6,63.5C1545.6,1340.7,1540.7,1338.2,1535.9,1335.7"/>
<polygon class="st9" points="1620.1,1403.1 1647.9,1350 1669.3,1359.4 1642.7,1409.6 "/>
<path class="st10" d="M1825.5,972c7.9,2.6,12.2,11.1,9.6,19s-11.1,12.2-19,9.6c-7.9-2.6-12.2-11.1-9.6-19
	C1809,973.7,1817.6,969.5,1825.5,972"/>
<path class="st11" d="M1773.3,1114.8c-16.4,18.4-36.3,96.1-75.4,81.6c6.8,8,41-89.5,46.6-95.6L1773.3,1114.8z"/>
<path class="st12" d="M1794.2,1081.2c-7.1,10-19.8,35.2-29,43.4l0.6-1l-30.3-12.2c11.5-27,30.5-70.1,61.2-76
	C1800.1,1034.1,1804.8,1070.7,1794.2,1081.2"/>
<path class="st13" d="M1771.7,1108.4c-0.5,0.5-3.3,13.3-4.4,14.2l-9.9-3.2c9.8-14.8,27-47.9,27-47.9L1771.7,1108.4z"/>
<polygon class="st14" points="1770.7,1121.1 1735.7,1109 1733.3,1115.8 1768.3,1127.8 "/>
<polygon class="st9" points="1536.8,1348.1 1577.7,1303 1597.7,1315.1 1558.3,1357.5 "/>
<path class="st5" d="M1535.3,1344.6c0,0-29,2.2-38.8,3.5c-7.6,1-13.6,6.7-9.3,11.9l66.1,21.5c0.1-0.1,0.2-0.3,0.4-0.5
	c2-3,8.2-25.4,1.1-27.2C1550.5,1352.9,1543.3,1352.6,1535.3,1344.6"/>
<path class="st15" d="M1514.8,1346.2c-0.9,0.1-1.6,0.2-2.5,0.2l1.6,6.4c0.2,0.7,0.9,1,1.5,0.9l0,0c0.7-0.2,1-0.9,0.9-1.5
	L1514.8,1346.2z M1521.4,1345.6c-0.9,0.1-1.6,0.1-2.5,0.2l1.6,6.6c0.2,0.7,0.9,1,1.5,0.9l0,0c0.7-0.2,1-0.9,0.9-1.5L1521.4,1345.6z
	 M1528.1,1345.1c-0.8,0.1-1.6,0.1-2.5,0.2l1.7,6.8c0.2,0.7,0.9,1,1.5,0.9l0,0c0.7-0.2,1-0.9,0.9-1.5L1528.1,1345.1z"/>
<path class="st15" d="M1486.7,1352.7L1486.7,1352.7l-0.8,2.7c-0.6,2.1-0.1,3,1.3,4.7l66.4,21.6c0.1-0.1,0.2-0.3,0.4-0.5
	c0.4-0.6-2.1-3.7-1.2-5.5L1486.7,1352.7z"/>
<path class="st5" d="M1804.7,1212.2l-40-21.9c0,0-43.8-9.5-83,0.1c-14.2,3.5-30.1,14.9-39.8,22.5c-36.5,29.1-91,119.7-91,119.7
	c6.1,10.1,11.4,11.6,19,13.3c11.1-6.4,90.4-80.4,90.6-80.4l131.5-32L1804.7,1212.2z"/>
<path class="st3" d="M1804.7,1212.2l-2.6,2.1c-12.4-3.8-69.6-6.2-79.2-6.1c-27.2,0.4-39.5,2.8-62.5,57.3l21.2-5.1l110.3-26.9
	L1804.7,1212.2z"/>
<path class="st5" d="M1854.9,1223.4c-5.8,80.4-67.7,62.3-132.3,54.6c-32.6,59.7-52.6,94.9-68.8,113.7c-5.4,0.7-26.6-1.6-23.1-12.1
	c14.3-42.6,29.5-107.9,55.6-144c8.3-11.4,17.6-19.7,34.5-21.9c9.1-1.1,83.8-1.5,83.8-1.5L1854.9,1223.4z"/>
<path class="st12" d="M1896.7,1064.7c-16,47.6-20.9,80.5-40.5,161.9c-31.8-0.2-116-19.2-115.3-33.4c14.6-50.9,31.9-106.7,50.3-156.3
	C1825.8,1026.5,1872.9,1035.3,1896.7,1064.7"/>
<path class="st14" d="M1820,1032.7c13-0.4,24.1,1.5,36.6,5.6c-0.6,7.3-7.1,26.4-31.4,20.6C1814.7,1056.2,1810.8,1041.2,1820,1032.7"
	/>
<path class="st13" d="M1800.9,1201.1c27.7-20.1,49.2-44.3,62.6-83.6c0,0,18.4,17.1,18,18.5s-13.8,21.3-13.2,21.5
	C1868.8,1157.7,1830.6,1208.5,1800.9,1201.1"/>
<path class="st5" d="M1706.1,1192.3l93.1,22.8l-0.6,2.2c-0.3,1.2-1.5,1.9-2.8,1.6l-88.7-21.7c-1.2-0.3-1.9-1.5-1.6-2.8
	L1706.1,1192.3z"/>
<path class="st5" d="M1682.6,1125.1l73.3,18c2.9,0.7,4.1,3.6,3.9,6.6l-3.1,56.2l-83.1-20.4l3.3-57
	C1677.1,1126,1680.1,1124.5,1682.6,1125.1"/>
<path class="st16" d="M1680,1124.5l73.3,18c2.9,0.7,4.1,3.6,3.9,6.6l-2.9,52h0.1l-0.3,3.8c-0.2,2.1-2.6,3.2-4.6,2.8l-75.9-18.6
	c-2-0.5-3-2.5-2.8-4.6l0.3-3.1l3-53.5C1674.6,1125.4,1677.5,1123.9,1680,1124.5"/>
<path class="st17" d="M1711.8,1161.9c1.8,0,3.3,1.8,3.3,4s-1.5,3.9-3.3,3.9s-3.3-1.8-3.3-4
	C1708.4,1163.7,1709.9,1161.9,1711.8,1161.9"/>
<path class="st11" d="M1889.8,1150.8c-11.1,40.6-70,71.8-107.6,64.9c-8.7-2.1-17-4.3-24.7-6.7c8.2-12.5,16.6-12.4,29.8-7.1
	c17.7-0.7,60.9-27.7,74.8-59.2L1889.8,1150.8z"/>
<path class="st12" d="M1892.2,1059.8c15.5,11.7,14.9,68.5-0.4,97.3l-36.3-9.1c6.6-24.1,16.2-70.3,23.1-85.7
	C1879.5,1060.4,1890.2,1058.3,1892.2,1059.8"/>
<path class="st18" d="M1821.3,1028.3l-0.2,9.1c-4.2,6.9-3.2,13.8,6.5,16.4c27.2,3.6,24-15.8,23.9-16.7l0.1-14.5
	c1.7,0.1,10.6-6.6,12.3-9.9c20.4-39.1-35-67.2-51.6-30.4C1805.5,997.2,1805.6,1019.1,1821.3,1028.3"/>
<path class="st19" d="M1842.5,1025c-3.5,7.3-12.9,14-21.2,10.3l0.2-7.1C1826.2,1029.5,1833,1030.3,1842.5,1025"/>
<path class="st10" d="M1847.5,1010.5c-1,2.8-0.2,5.2,4.2,2.9c3.2-1.7,7.3,0.3,5.3,4.2c-1.7,3.2-6.9,5.3-4.8,5.1
	c11.6-1.4,28.3-28.4,16.3-40.4c-0.6-30.1-40.3-32.3-56.6-15.8c-5.7,5.7-6.5,17.5,2.7,22.2c6,3,13.3,2.8,18.1,2.8
	C1845.2,991.3,1852.2,997.5,1847.5,1010.5"/>
<polygon class="st14" points="1893,1155.7 1855.9,1143.8 1853.6,1151.1 1890.7,1162.8 "/>
<path class="st5" d="M1619.3,1401.3c-9.4,7.7-22.1,13.5-18.8,24.8l34.7,14.3c0.1-0.1,0.3-0.3,0.4-0.5c0.9-1,2.7-0.9,3.3-5.5
	c1.2-8.7,0.3-23.2-1.5-24.6C1634,1407,1626.9,1408.1,1619.3,1401.3"/>
<path class="st15" d="M1600.8,1418.5L1600.8,1418.5c-1.1,2.6-1.9,5.1-0.1,7.6l34.7,14.3c2.2-0.3,3-0.9,3.7-5.9L1600.8,1418.5z"/>
<path class="st15" d="M1620.7,1407.8l11.3,4.7c0.6,0.2,0.9,0.9,0.6,1.4l0,0c-0.2,0.6-0.9,0.9-1.4,0.6l-11.3-4.7
	c-0.6-0.2-0.9-0.9-0.6-1.4l0,0C1619.4,1407.9,1620.1,1407.6,1620.7,1407.8"/>
<path class="st15" d="M1619,1412l11.3,4.7c0.6,0.2,0.9,0.9,0.6,1.4l0,0c-0.2,0.6-0.9,0.9-1.4,0.6l-11.3-4.7
	c-0.6-0.2-0.9-0.9-0.6-1.4l0,0C1617.7,1412,1618.3,1411.8,1619,1412"/>
<path class="st15" d="M1617.3,1415.7l11.3,4.7c0.6,0.2,0.9,0.9,0.6,1.4l0,0c-0.2,0.6-0.9,0.9-1.4,0.6l-11.3-4.7
	c-0.6-0.2-0.9-0.9-0.6-1.4l0,0C1616.1,1415.7,1616.8,1415.4,1617.3,1415.7"/>
<rect x="628" y="807.8" class="st5" width="434" height="296.4"/>
<path class="st18" d="M659.7,972.5c0,0,37.1-61.6,66.4-39.6s29.6,61.6,57.7,66.5c28,5,42.3-123.7,85.5-115.7
	c43.2,7.9,35.5,79.5,84.3,107.8c48.8,28.2,72.6-58.5,72.6-58.5v141.8H659.7V972.5z"/>
<path class="st20" d="M574.5,594.4h937.7c46.8,0,85.1,38.3,85.1,85.1l0,0c0,46.8-38.3,85.1-85.1,85.1H574.5
	c-46.8,0-85.1-38.3-85.1-85.1l0,0C489.5,632.7,527.8,594.4,574.5,594.4"/>
<rect x="1111.5" y="869.8" class="st21" width="18" height="205"/>
<rect x="1129.5" y="909" class="st2" width="18" height="165.7"/>
<rect x="1147.5" y="1034.5" class="st22" width="18" height="40.2"/>
<path class="st5" d="M1117.8,1091.6h39.1c3.4,0,6.3,2.8,6.3,6.3s-2.8,6.3-6.3,6.3h-39.1c-3.4,0-6.3-2.8-6.3-6.3
	S1114.4,1091.6,1117.8,1091.6"/>
<rect x="1202.4" y="826.7" class="st21" width="18" height="248"/>
<rect x="1220.4" y="878.3" class="st2" width="18" height="196.5"/>
<rect x="1238.4" y="1014.8" class="st22" width="18" height="59.9"/>
<path class="st5" d="M1208.6,1091.6h39.1c3.4,0,6.3,2.8,6.3,6.3s-2.8,6.3-6.3,6.3h-39.1c-3.4,0-6.3-2.8-6.3-6.3
	S1205.2,1091.6,1208.6,1091.6"/>
<rect x="1293.2" y="843.9" class="st21" width="18" height="230.9"/>
<rect x="1311.2" y="923.4" class="st2" width="18" height="151.3"/>
<rect x="1329.3" y="1054.6" class="st22" width="18" height="20.1"/>
<path class="st5" d="M1299.5,1091.6h39.1c3.4,0,6.3,2.8,6.3,6.3s-2.8,6.3-6.3,6.3h-39.1c-3.4,0-6.3-2.8-6.3-6.3
	S1296.1,1091.6,1299.5,1091.6"/>
<rect x="1384.1" y="804.3" class="st21" width="18" height="270.4"/>
<rect x="1402.1" y="909" class="st2" width="18" height="165.7"/>
<rect x="1420.2" y="1035.5" class="st22" width="18" height="39.3"/>
<path class="st5" d="M1390.3,1091.6h39.1c3.4,0,6.3,2.8,6.3,6.3s-2.8,6.3-6.3,6.3h-39.1c-3.4,0-6.3-2.8-6.3-6.3
	S1386.9,1091.6,1390.3,1091.6"/>
<rect x="1474.9" y="843.9" class="st21" width="18" height="230.9"/>
<rect x="1493" y="940.6" class="st2" width="18" height="134.2"/>
<rect x="1511" y="1035.5" class="st22" width="18" height="39.3"/>
<path class="st5" d="M1481.2,1091.6h39.1c3.4,0,6.3,2.8,6.3,6.3s-2.8,6.3-6.3,6.3h-39.1c-3.4,0-6.3-2.8-6.3-6.3
	S1477.8,1091.6,1481.2,1091.6"/>
<rect x="1565.9" y="826.7" class="st21" width="18" height="248"/>
<rect x="1583.9" y="922.3" class="st2" width="18" height="152.5"/>
<rect x="1601.9" y="1035.5" class="st22" width="18" height="39.3"/>
<path class="st5" d="M1572.1,1091.6h39.1c3.4,0,6.3,2.8,6.3,6.3s-2.8,6.3-6.3,6.3h-39.1c-3.4,0-6.3-2.8-6.3-6.3
	S1568.6,1091.6,1572.1,1091.6"/>
<path class="st23" d="M659.7,1052.1c0,0,37.1-61.6,66.4-39.6c29.3,21.9,29.6,36.1,57.7,41.1c28,5,42.3-146.5,85.5-138.5
	c43.2,7.9,32.2,58.9,82.6,92.5c50.4,33.6,74.3-47.3,74.3-47.3v117.2H659.7V1052.1z"/>
<path class="st24" d="M1814.4,647.1c66.8,26.9,99.2,102.7,72.3,169.5c-26.9,66.8-102.7,99.2-169.5,72.3s-99.2-102.7-72.3-169.5
	C1671.6,652.6,1747.6,620.2,1814.4,647.1"/>
<path class="st25" d="M1848.4,868.7c-35.6,29.2-85.6,38.5-131.3,20.2c-66.8-26.9-99.2-102.7-72.3-169.5
	c26.3-65.4,99.5-97.8,165.1-73.9C1732.3,674.1,1693.5,819.4,1848.4,868.7"/>
<path class="st25" d="M1813.2,889.4c-4,1.5-8.1,3-12.2,4.1l-19.4-60.5c4.4,3.8,9.2,7.5,14.5,11.1L1813.2,889.4z"/>
<path class="st26" d="M1813.2,889.4c-4,1.5-8.1,3-12.2,4.1l-19.4-60.5c4.4,3.8,9.2,7.5,14.5,11.1L1813.2,889.4z"/>
<path class="st14" d="M1803.3,674.4c51.6,20.8,76.7,79.5,55.9,131.2c-20.8,51.6-79.5,76.7-131.2,55.9
	c-51.6-20.8-76.7-79.5-55.9-131.2C1692.9,678.7,1751.7,653.7,1803.3,674.4"/>
<polygon class="st14" points="1762.3,767.9 1762.3,767.9 1756.8,796 1768.3,781.9 1787.1,785.5 1765.3,766.7 "/>
<path class="st27" d="M1802.7,861.9c-3.5,1.4-7.1,2.6-10.8,3.6l-27.6-86.1l6.8-0.9L1802.7,861.9z"/>
<path class="st24" d="M1792.4,701.8c36.6,14.7,54.3,56.3,39.6,92.9c-14.7,36.6-56.3,54.3-92.9,39.6s-54.3-56.3-39.6-92.9
	C1714.2,704.7,1755.8,687,1792.4,701.8"/>
<polygon class="st28" points="1762.3,767.9 1762.3,767.9 1756.8,796 1768.3,781.9 1787.1,785.5 1765.3,766.7 "/>
<path class="st28" d="M1792.3,834.3c-3,1.2-6.2,2.2-9.3,3l-18.7-58l6.8-0.9L1792.3,834.3z"/>
<path class="st25" d="M1785.7,836.5c-14.9,4.4-31.2,3.9-46.6-2.3c-36.6-14.7-54.3-56.3-39.6-92.9c9.7-24.1,31.1-40,55-43.9
	C1733.3,739.7,1736,796.5,1785.7,836.5"/>
<path class="st25" d="M1785.7,836.5c-1,0.3-1.9,0.5-2.8,0.8l-1.3-4.3C1782.9,834.2,1784.3,835.4,1785.7,836.5"/>
<path class="st14" d="M1781.4,729c21.5,8.7,31.9,33.1,23.3,54.6c-8.7,21.5-33.1,31.9-54.6,23.3c-21.5-8.7-31.9-33.1-23.3-54.6
	C1735.5,730.9,1759.9,720.5,1781.4,729"/>
<polygon class="st27" points="1762.3,767.9 1762.3,767.9 1756.8,796 1768.3,781.9 1787.1,785.5 1765.3,766.7 "/>
<path class="st27" d="M1781.8,806.7c-2.6,1-5.2,1.9-7.9,2.4l-9.6-29.9l6.8-0.9L1781.8,806.7z"/>
<polygon class="st29" points="1762.5,767.8 1762.5,767.8 1778.1,743.6 1776.6,761.8 1792.6,772.3 1763.9,770.7 "/>
<path class="st29" d="M1920.5,680.5c1.6-0.4,2.1-0.9,5,0.3c2.9,1.1,5.4,7.6,4.4,10.3s-1.4,2.4-2.5,3.2l-151.3,71.8l-4.3-5.3
	L1920.5,680.5z"/>
<polygon class="st29" points="1900.4,674.6 1943.3,650.3 1935.7,679.6 1965.2,693.8 1915.4,713.6 1895.6,701.3 "/>
<polygon class="st2" points="1900.4,674.6 1943.3,650.3 1935.7,679.6 1895.8,700.4 1897.1,693.3 "/>
<path class="st5" d="M535.2,1142.3"/>
<path class="st30" d="M550.4,1100.5"/>
<polygon class="st14" points="659.7,836.1 659.7,1074.7 1035.6,1074.7 1035.6,1077.5 656.9,1077.5 656.9,836.1 "/>
<path class="st29" d="M993,1358.1H784.3c-14.5,0-26.3,13.9-26.3,30.8l0,0c0,17,11.8,30.8,26.3,30.8H993c14.5,0,26.3-13.9,26.3-30.8
	l0,0C1019.4,1372,1007.5,1358.1,993,1358.1"/>
<path class="st5" d="M932.4,1358.1h-74.8c14.5,0,26.3,13.9,26.3,30.8l0,0c0,17-11.8,30.8-26.3,30.8h74.8c14.5,0,26.3-13.9,26.3-30.8
	l0,0C958.8,1372,946.8,1358.1,932.4,1358.1"/>
<path class="st14" d="M794.1,1422.8H596.8c8.2-11.1,11.3-26.7,0-42.9h197.3c6.6,0,12,9.6,12,21.4
	C806.1,1413,800.7,1422.8,794.1,1422.8"/>
<path class="st31" d="M604.1,1402.2c0.2-7.1-2-14.6-7.3-22.3h197.3c6.6,0,12,9.6,12,21.4c0,0.3,0,0.6,0,0.9H604.1z"/>
<path class="st5" d="M590.6,1419.7h204.2c9.5,0,19.5-14,19.5-31s-10.1-30.7-19.5-30.7H590.6l0.1,9.2l203.4,0.2c6.6,0,12,9.6,12,21.4
	s-5.4,21.4-12,21.4l-203.4-0.2L590.6,1419.7z"/>
<path class="st29" d="M780,1389.3c-8.3,0-14.3,0-22.6,0c-8.7,3.8-6.2,19-11.3,28.9l13.3-8.2l9.7,7.6
	C776.7,1408.7,772.4,1393.3,780,1389.3"/>
<path class="st32" d="M661.6,1296.4h208.7c14.5,0,26.3,13.9,26.3,30.8l0,0c0,17-11.8,30.8-26.3,30.8H661.6
	c-14.5,0-26.3-13.9-26.3-30.8l0,0C635.3,1310.3,647.2,1296.4,661.6,1296.4"/>
<path class="st22" d="M722.2,1296.4H797c-14.5,0-26.3,13.9-26.3,30.8l0,0c0,17,11.8,30.8,26.3,30.8h-74.8
	c-14.5,0-26.3-13.9-26.3-30.8l0,0C695.9,1310.3,707.8,1296.4,722.2,1296.4"/>
<path class="st14" d="M860.6,1348.7H1058c-8.2-11.1-11.3-26.7,0-42.9H860.6c-6.6,0-12,9.6-12,21.4
	C848.5,1339,853.9,1348.7,860.6,1348.7"/>
<path class="st31" d="M1050.6,1328.1c-0.2-7.1,2-14.6,7.3-22.3H860.6c-6.6,0-12,9.6-12,21.4c0,0.3,0,0.6,0,0.9H1050.6z"/>
<path class="st22" d="M1064.2,1358.1H859.9c-9.5,0-19.5-14-19.5-31s10.1-30.7,19.5-30.7h204.2l-0.1,9.2l-203.4,0.2
	c-6.6,0-12,9.6-12,21.4s5.4,21.4,12,21.4l203.4-0.2L1064.2,1358.1z"/>
<path class="st22" d="M874.7,1315.3c8.3,0,14.3,0,22.6,0c8.7,3.8,6.2,19,11.3,28.9l-13.3-8.2l-9.7,7.6
	C878,1334.6,882.3,1319.3,874.7,1315.3"/>
<path class="st22" d="M916,1327.2c8.3,0,14.3,0,22.6,0c8.7,1.5,6.2,7.7,11.3,11.8l-13.3-3.3l-9.7,3.1
	C919.3,1335.1,923.6,1328.8,916,1327.2"/>
<g>
	<g>
		<path class="st33" d="M281.7,1365.9c0,0-11.9,11.1-9.6,18.9c2.3,7.9,13.1,13.1,14.6,22.7c1.6,9.6,7.3,14.7,12.4,14.7
			c5.1,0,24.9,0,24.9,0s3.8-6.7-5.5-8.8c-9.3-2-12.7-13.3-12.3-23.7c0.6-10.4-0.9-24.3-0.9-24.3l-19.8-4.7L281.7,1365.9z"/>
		<path class="st33" d="M430.3,1421.9c0.2,0.1,0.4,0.2,0.8,0.3h66.7c-0.6-2.3-2.8-6.8-10.5-8c-10.4-1.7-28.4-7.8-32.5-21.1
			c-0.1-0.4-0.2-0.9-0.3-1.2c-3.2-14.3-26.4,4.4-26.4,4.4s-0.1,0.6-0.2,1.5C427.2,1402.7,425.9,1419.7,430.3,1421.9z"/>
		<path class="st34" d="M484.4,1041c0,0-3.5,44.1-7.7,96.9c-5.7,71.9-12.4,160.3-13.1,177c-1.1,29-5.8,75.6-5.8,75.6
			s-11.1,11.1-33.1,6.4c0,0-19.7-66.4-25.4-136.6c-0.1-1.1-0.2-2.3-0.2-3.5c-5.2-71.5-13.4-222-13.4-222L484.4,1041z"/>
		<path class="st33" d="M484.4,1041c0,0-3.5,44.1-7.7,96.9l-77.4,122.4c-0.1-1.1-0.2-2.3-0.2-3.5c-5.2-71.5-13.4-222-13.4-222
			L484.4,1041z"/>
		<path class="st34" d="M468.3,1046.2c0,0-63.7,159.5-105.4,234.4s-54.9,95.9-54.9,95.9s-23.9-9.6-26.1-16.2
			c0,0,16-144.7,44.1-179.9c15.9-19.9,34.5-79.7,35.3-100.6c0.8-20.9,5.7-62.3,5.7-62.3L468.3,1046.2z"/>
	</g>
	<g>
		<path class="st35" d="M448.9,751c-23.7,7.5-64.7-12.6-64.7-12.6s18.5-13.8,20.5-42.7c0-0.4,0.1-0.8,0.1-1.1
			c0.1-2.1,0.1-4.4,0.1-6.7l6.5,5.2l24.2,19.5c0,0-1.2,9.7-1.7,25.8c3.8,2.1,6.9,4.5,9.3,6.5C446.9,748.2,448.9,751,448.9,751z"/>
		<path class="st35" d="M357.8,735.2c0,0,62.6-9.9,104,17.4c0,0,28.1,183.4,3.6,200.7c-24.5,17.3-107.5,0-107.5,0L357.8,735.2
			L357.8,735.2z"/>
		<path class="st36" d="M441.4,1150.5H328.2c0,0,13.2-193.2,17-240.3c3.1-38.2,9.5-129.7,11.8-162.8c0.6-7.8,0.9-12.4,0.9-12.4
			l27-4.6l46.3,60.2c0,0,7.4,160.5,7.1,185.8c-0.2,25.4,3,123.8,3.1,140.5C441.5,1133.4,441.4,1150.5,441.4,1150.5z"/>
		<path class="st36" d="M431.3,790.7l10.2,359.8h53.3c0,0-2.5-236.6-2.7-258.4c-0.2-21.7,5.7-115.5-10.8-129.9
			c-14-12.2-47.3-24-47.3-24L431.3,790.7z"/>
		<path class="st36" d="M434.2,730c0,0,15.2,10.4,14.7,14.3c-0.6,3.7-2.7,9.7-2.7,9.7l-9.3-1.9l7.9,5.6c0,0-8.9,26-13.5,33.2
			L434.2,730z"/>
		<path class="st37" d="M350.5,837.2c6.7-41,83.6,19.5,77.3,73.3c-11.8,99.3-62.2,210.1-99.6,240.2L350.5,837.2z"/>
		<path class="st38" d="M404.7,695.4c-0.1-0.8-0.3-1.1-0.3-1.1l0.4-0.1l6.6-1.3l24.2,19.5c0,0-1.1,9.2-1.8,25.8
			C433.7,738.1,408.7,724.3,404.7,695.4z"/>
		<path class="st35" d="M445.5,718.5c0,0-42.2-1.1-41.2-27.5c1.1-26.2-3.5-44.1,23.6-44.6c27-0.3,31.8,9.9,33.6,18.9
			C463.2,674.1,456.5,718,445.5,718.5z"/>
		<path class="st33" d="M404.4,694.4c0,0,5.6,1.5,9.9-4.4c4.4-5.8,11.6-28.3,21.2-29.7c9.6-1.5,22.2,5.7,26.2,1.6
			c5.9-5.9,13.6-15.6,13.6-15.6s-47.6-33.9-66.7-18.2C389.8,643.9,383.1,666.7,404.4,694.4z"/>
		<g>
			<path class="st33" d="M461.4,788.4c-0.9-16.3-9.8-42.9-9.9-43.1l2.6,1.1c0.3,1.1,7.4,25.4,8.3,41.9h-0.9V788.4z"/>
		</g>
		<g>
			<path class="st33" d="M399.8,837.2c-0.9-1-22.7-21.8-18-36.5c1.8-5.7,5.1-7.9,8.7-9.6c3.4-1.1,10.9-2.5,15,0
				c7.3,4.6,10.9,17.1,12.1,38.1h-0.9c-1.2-24.9-7.7-33.8-12.4-35.8c-6-2.6-16.6-1.5-19.9,8.2c-2.3,6.6,2.2,16,6.4,22.2
				c4.7,7,9.7,13.3,9.7,13.4h-0.7V837.2z"/>
		</g>
		<path class="st39" d="M402.1,839.4L402.1,839.4c-0.9,0.9-2.2,0.9-3,0l-1.5-1.5c-0.9-0.9-0.9-2.2,0-3l0,0c0.9-0.9,2.2-0.9,3,0
			l1.5,1.5C403,837.3,403,838.5,402.1,839.4z"/>
		<path class="st39" d="M417.2,833.1L417.2,833.1c-1.1,0-2.1-1-2.1-2.1v-2.1c0-1.1,1-2.1,2.1-2.1l0,0c1.1,0,2.1,1,2.1,2.1v2.1
			C419.3,832.3,418.3,833.1,417.2,833.1z"/>
		<path class="st33" d="M455.8,788.4c0-3.2,2.6-5.8,5.8-5.8c3.2,0,5.8,2.6,5.8,5.8s-2.6,5.8-5.8,5.8
			C458.5,794.3,455.8,791.7,455.8,788.4z"/>
		<path class="st40" d="M459,788.4c0-1.6,1.2-3,3-3c1.6,0,3,1.2,3,3c0,1.6-1.2,3-3,3C460.3,791.4,459,790,459,788.4z"/>
		<g>
			<path class="st12" d="M435.4,1150.5c0-0.3-3.7-36.6-2.7-68.1c0.4-13.3,0.1-28.9-0.3-44.1c-0.6-21.6-1.7-42.3,0.1-55.9
				c3-23.2,2.3-128.6,1.1-140c-1.1-11.2,0-23.5,1.1-27c1.1-3.7-3.7-24.3-3.7-24.5l0.6-0.1c0.2,0.9,5.5,21.1,4.2,25
				c-1.1,3.6-2.8,15.5-1.5,26.6c1.2,11.4,3.6,116.8,0.6,140c-1.7,13.5-2.3,34.4-1.8,55.9c0.3,15.1,0.8,30.7,0.3,44.1
				c-1.1,31.5,4.2,67.7,4.4,68.1H435.4L435.4,1150.5z"/>
		</g>
		<path class="st36" d="M529.2,861.1c0,0,14.4,24.7-0.8,31.2c-15,6.5-16.6-0.3-16.6-0.3L529.2,861.1z"/>
		<path class="st36" d="M409,876.2c0,0,2.2,4.7,2,8.8c-0.3,4.4-2.3,10.9-2.3,10.9s-88.4,18.9-105.6,3.1
			c-18.4-17,15.7-143.8,30.5-156.3c6.3-5.4,19.5-8.6,31.9-10.5c6.8-1.1,13.2-1.8,18.1-2.1c5-0.4,8.2-0.6,8.2-0.6l-2,7.4l-7.8,28.6
			l-9,33.4c0,0-27,55.6-27.9,60.9C344.1,865.1,409,876.2,409,876.2z"/>
		<path class="st37" d="M421.4,781.8c0,0-22.6-9.8-38.8-18.8c-10.5-5.8-16-16.9-17.1-30.7c6.8-1.1,13.2-1.8,18.1-2.1
			c0.8,0.2,1.2,0.4,1.2,0.4l4.9,6.4L421.4,781.8z"/>
		<path class="st36" d="M431.3,790.7l-35.1-67c0,0-13.1,2.7-17.5,6.8c0,0,2.2,20.1,3.9,24.6c0,0,6.8-0.8,7.8-0.2c0,0-3.4,5-4.2,5.7
			C386,760.4,416.6,774.7,431.3,790.7z"/>
		<g>
			<path class="st33" d="M390.6,793.3c-2.5-5.4-23.6-50.5-18.2-62.1l2-0.2c-4,8.7,10.5,48,17,62.1L390.6,793.3z"/>
		</g>
		<path class="st41" d="M437.3,832.5c0-1.6,1.2-2.9,2.9-2.9c1.6,0,2.9,1.2,2.9,2.9c0,1.6-1.2,2.9-2.9,2.9
			C438.5,835.2,437.3,833.9,437.3,832.5z"/>
		<path class="st41" d="M437.3,990.4c0-1.6,1.2-2.9,2.9-2.9c1.6,0,2.9,1.2,2.9,2.9c0,1.7-1.2,2.9-2.9,2.9
			C438.5,993.2,437.3,991.9,437.3,990.4z"/>
		<path class="st41" d="M438.6,918.2c0-1.6,1.2-2.9,2.9-2.9c1.6,0,2.9,1.2,2.9,2.9c0,1.6-1.2,2.9-2.9,2.9
			C439.9,920.9,438.6,919.7,438.6,918.2z"/>
		<path class="st41" d="M438.6,1059.1c0-1.6,1.2-2.9,2.9-2.9c1.6,0,2.9,1.2,2.9,2.9c0,1.7-1.2,2.9-2.9,2.9
			C439.9,1061.9,438.6,1060.6,438.6,1059.1z"/>
		<path class="st42" d="M407.5,745.3c0,0,9.8,4.8,25.6,1.8l-1.8,43.6L407.5,745.3z"/>
		<g>
			<polygon class="st34" points="469.2,796.8 560.7,805.1 504.9,904.2 418.8,899.3 			"/>
			<path class="st12" d="M477.7,796.4c0,0,0-14.1,7.8-13.1c7.8,1,10.2,15,10.2,15L477.7,796.4z"/>
			<polygon class="st42" points="560,803.8 468.7,795.6 418.2,898 418.8,899.3 469.2,796.8 560.7,805.1 			"/>
			<path class="st36" d="M485.4,783.3c0,0,12.8,6.4,8.4,26.7c-4.6,20.3-10.2,31.5-6.9,43.6l61.6,5.7c0,0-6.7-16,0.8-32.2
				c7.5-16.2,2.1-34.7-4.7-36.3L485.4,783.3z"/>
		</g>
		<path class="st35" d="M516.3,885.7c0,0-9.4-11.3-7.5-19.3c1.9-8.2,8.9-10.1,13.2-7.1c4.2,2.9,10.4,9.5,9.3,14.5
			C530.1,878.7,520.9,888.1,516.3,885.7z"/>
		<path class="st35" d="M404.4,879c0,0,15.9-7,23.1-4.9c7.3,2,17,3.5,17.9,6c0.8,2.7-5.2,12.4-14.2,12.7c-8.9,0.6-24.6,4.7-28.4,0
			C399.1,888.3,404.4,879,404.4,879z"/>
	</g>
</g>
<rect x="1329.3" y="372.2" class="st1" width="62.5" height="142.9"/>
<rect x="1268" y="437.3" class="st1" width="191.2" height="54.9"/>
<g>
	<g>
		<path class="st43" d="M791.6,426.8l-13.8,6.8c-19.4,9.5-43,1.5-52.5-17.9l-29.5-60c-9.5-19.4-1.5-43,17.9-52.5l13.8-6.8
			c19.4-9.5,43-1.5,52.5,17.9l29.5,60C819.1,393.6,811.1,417.2,791.6,426.8z M714.5,304.9c-18.4,9.1-26,31.4-17,49.9l29.5,60
			c9.1,18.4,31.4,26,49.9,17l13.8-6.8c18.4-9.1,26-31.4,17-49.9l-29.5-60c-9.1-18.4-31.4-26-49.9-17L714.5,304.9z"/>
	</g>
	<g>
		<path class="st43" d="M738.6,293l-34.3,16.9L692.6,286l34.3-16.9L738.6,293z M705.2,307.3l30.8-15.2l-10-20.3L695.2,287
			L705.2,307.3z"/>
	</g>
	<g>
		<path class="st43" d="M810,375.1l-84.2,41.4l-30.4-61.7l84.2-41.5L810,375.1z M726.6,413.8l80.7-39.6L778.7,316L698,355.6
			L726.6,413.8z"/>
	</g>
</g>
<g>
	<g>
		<path class="st43" d="M1267.3,283.8l-46.4-46.4c-4.6-4.6-4.7-12-0.2-16.5l80.4-80.4c4.5-4.5,11.9-4.4,16.5,0.2l46.4,46.4
			c4.6,4.6,4.7,12,0.2,16.5l-80.4,80.4C1279.2,288.5,1271.9,288.5,1267.3,283.8z M1315.7,142.6c-3.5-3.5-9.3-3.6-12.8-0.2
			l-80.4,80.4c-3.5,3.5-3.4,9.2,0.2,12.8l46.4,46.4c3.5,3.5,9.3,3.6,12.8,0.2l80.4-80.4c3.5-3.5,3.4-9.2-0.2-12.8L1315.7,142.6z"/>
	</g>
	<g>
		<g>
			<path class="st43" d="M1242.2,235.1c-5.1-5.1-5.2-13.3-0.2-18.4c5.1-5.1,13.2-5,18.4,0.2c5.1,5.1,5.2,13.3,0.2,18.4
				C1255.5,240.3,1247.3,240.2,1242.2,235.1z M1258.4,218.8c-4.1-4.1-10.7-4.2-14.7-0.2s-3.9,10.6,0.2,14.7s10.7,4.2,14.7,0.2
				C1262.6,229.4,1262.6,222.9,1258.4,218.8z"/>
		</g>
		<g>
			<path class="st43" d="M1269.6,207.6c-5.1-5.1-5.2-13.3-0.2-18.4c5.1-5.1,13.2-5,18.4,0.2c5.1,5.1,5.2,13.3,0.2,18.4
				C1282.9,212.9,1274.7,212.8,1269.6,207.6z M1285.9,191.3c-4.1-4.1-10.7-4.2-14.7-0.2s-3.9,10.6,0.2,14.7
				c4.1,4.1,10.7,4.2,14.7,0.2S1290,195.4,1285.9,191.3z"/>
		</g>
		<g>
			<path class="st43" d="M1297,180.3c-5.1-5.1-5.2-13.3-0.2-18.4c5.1-5.1,13.2-5,18.4,0.2c5.1,5.1,5.2,13.3,0.2,18.4
				C1310.4,185.4,1302.1,185.3,1297,180.3z M1313.3,163.9c-4.1-4.1-10.7-4.2-14.7-0.2s-3.9,10.6,0.2,14.7c4.1,4.1,10.7,4.2,14.7,0.2
				C1317.5,174.5,1317.4,168,1313.3,163.9z"/>
		</g>
		<g>
			<path class="st43" d="M1297.4,235.5c-5.1-5.1-5.2-13.3-0.2-18.4c5.1-5.1,13.2-5,18.4,0.2c5.1,5.1,5.2,13.3,0.2,18.4
				C1310.9,240.8,1302.6,240.7,1297.4,235.5z M1313.8,219.1c-4.1-4.1-10.7-4.2-14.7-0.2s-3.9,10.6,0.2,14.7
				c4.1,4.1,10.7,4.2,14.7,0.2C1318,229.9,1317.9,223.2,1313.8,219.1z"/>
		</g>
		<g>
			<g>
				<path class="st43" d="M1270,263c-5.1-5.1-5.2-13.3-0.2-18.4c5.1-5.1,13.2-5,18.4,0.2c5.1,5.1,5.2,13.3,0.2,18.4
					C1283.4,268.2,1275.1,268.1,1270,263z M1286.4,246.6c-4.1-4.1-10.7-4.2-14.7-0.2s-3.9,10.6,0.2,14.7s10.7,4.2,14.7,0.2
					C1290.6,257.3,1290.5,250.7,1286.4,246.6z"/>
			</g>
			<g>
				<path class="st43" d="M1324.9,208.1c-5.1-5.1-5.2-13.3-0.2-18.4s13.2-5,18.4,0.2c5.1,5.1,5.2,13.3,0.2,18.4
					C1338.2,213.3,1330,213.2,1324.9,208.1z M1341.3,191.8c-4.1-4.1-10.7-4.2-14.7-0.2s-3.9,10.6,0.2,14.7
					c4.1,4.1,10.7,4.2,14.7,0.2S1345.4,195.9,1341.3,191.8z"/>
			</g>
		</g>
	</g>
</g>
<g>
	<path class="st43" d="M964.5,181.5c-0.6,0-1.2-0.2-1.7-0.6l-23.5-17.3l-6.5,6l-82.1-87.8l-2.3,2.1l-7-7.4l10.6-9.9l-23.3-24.7
		l-5.8,5.4l-7-7.4l19.7-18.5l7,7.4l-5.8,5.4L859.9,59l10.6-9.9l7,7.4l-2.3,2.1l82.1,87.8l-6.5,6l15.8,24.6c0.8,1.1,0.6,2.7-0.5,3.6
		C965.8,181.3,965.1,181.5,964.5,181.5z M938.9,158.9l22.9,16.9l-15.3-23.9l6-5.6l-82.1-87.8l2.3-2.1l-2.1-2.2l-10.7,9.9l-28.1-30
		l5.8-5.4l-2.1-2.2L821,40.1l2.1,2.2l5.8-5.4l28.1,30l-10.6,9.9l2.1,2.2l2.3-2.1l82.1,87.8L938.9,158.9z"/>
</g>
<polygon class="st1" points="434.3,300 391.7,300 391.7,257.4 365.2,257.4 365.2,300 322.6,300 322.6,326.5 365.2,326.5 
	365.2,369.1 391.7,369.1 391.7,326.5 434.3,326.5 "/>
<path class="st44" d="M593.4,612.5H1491c44.8,0,81.5,30.2,81.5,67.1l0,0c0,36.9-36.7,67.1-81.5,67.1H593.4
	c-44.8,0-81.5-30.2-81.5-67.1l0,0C511.9,642.7,548.6,612.5,593.4,612.5"/>
<path class="st14" d="M1505.2,612.5c37.1,0,67.1,30,67.1,67.1s-30,67.1-67.1,67.1s-67.1-30-67.1-67.1S1468.2,612.5,1505.2,612.5"/>
<polygon class="st1" points="247.9,845.9 222.7,832.5 236.1,807.3 220.4,798.9 207,824.1 181.8,810.7 173.4,826.4 198.6,839.8 
	185.2,865 200.9,873.4 214.3,848.2 239.5,861.6 "/>
<path class="st45" d="M1495.8,689.3L1495.8,689.3c3.9,3.9,9.1,6,14.6,6c5.4,0,10.6-2.1,14.4-5.8l0.2-0.2c3.9-3.9,6.1-9.1,6.1-14.6
	s-2.2-10.8-6-14.6c-3.9-3.9-9.1-6-14.6-6s-10.7,2.2-14.6,6.1c-3.9,3.9-6,9.1-6,14.6S1492,685.5,1495.8,689.3L1495.8,689.3z
	 M1538.4,647.6c7.1,7.2,11,17,11,27.2c0,10.4-4.1,20.2-11.4,27.5l-0.1,0.1l-0.3,0.2c-7.3,7.1-17,11.1-27.3,11.1
	c-7.2,0-14.2-2-20.3-5.7l-10.9,10.9c-3.5,3.5-9.3,3.5-13,0c-3.5-3.5-3.5-9.3,0-13L1477,695c-3.7-6.1-5.7-13.2-5.7-20.3
	c0-10.4,4.1-20.2,11.4-27.5s17.2-11.4,27.5-11.4s20.2,4.1,27.5,11.4L1538.4,647.6L1538.4,647.6z"/>
</svg>
