<?xml version="1.0" encoding="utf-8"?>
<!-- Generator: Adobe Illustrator 22.0.1, SVG Export Plug-In . SVG Version: 6.00 Build 0)  -->
<svg version="1.1" id="Layer_1" xmlns="http://www.w3.org/2000/svg" xmlns:xlink="http://www.w3.org/1999/xlink" x="0px" y="0px"
	 viewBox="0 0 350 350" style="enable-background:new 0 0 350 350;" xml:space="preserve">
<style type="text/css">
	.st0{fill:#DCF1FE;}
	.st1{fill:#FFFFFF;}
	.st2{fill:#6E7392;}
	.st3{fill:#C6C1EC;}
	.st4{fill:#7CA1CE;}
	.st5{fill:#E5E5F9;}
	.st6{fill:#FFC885;}
	.st7{fill:#F0A374;}
	.st8{fill:#F6F19D;}
	.st9{fill:#8BB4EE;}
	.st10{fill:#F6D42E;}
	.st11{fill:#ECF6FE;}
	.st12{fill:#CFD1E3;}
	.st13{clip-path:url(#SVGID_2_);fill:#8BB4EE;}
	.st14{clip-path:url(#SVGID_2_);fill:#7CA1CE;}
	.st15{clip-path:url(#SVGID_2_);fill:#6E7392;}
	.st16{clip-path:url(#SVGID_2_);fill:#FFFFFF;}
	.st17{fill:#909EC0;}
	.st18{fill:#C2E7FE;}
	.st19{fill:#FAC261;}
	.st20{fill:#97D4FE;}
</style>
<path class="st0" d="M735.6,322c16-5.7,33.9-3.8,48.2,4.6c11.1,6.6,24,10.9,38.2,12.1c43.4,3.9,83.5-22.6,95.2-62.9
	c8-27.3,1.3-54.5-15-74.7c-10.3-12.7-12.5-34.5,2.1-42.5c15.3-8.3,25-20.2,28.1-32.2c7.7-29.9-18-59.1-46.3-73.1
	c-3.1-1.5-6.1-2.7-9.2-3.7c-14.8-4.7-32.3-1.9-39.3-15.2C827,14.7,814.5,3.7,789.2,2.3c-50.3-2.8-62.3,21.3-78.7,47.5
	c-8,12.7-19.7,36.2-34.5,40.6c-21.5,6.4-65.7-2.3-80.7,43.3c-7.6,22.9,2,46.6,16.9,63.5c12.2,13.8,19,31.4,17.7,49.6
	c-0.1,1.6-0.2,3.2-0.2,4.9c0,34.8,24.9,65.3,60.3,73.1C705.8,328.3,721.5,327,735.6,322"/>
<path class="st1" d="M846.4,125.4C846.4,125.3,846.4,125.3,846.4,125.4c0.6-2.4,2.5-4.3,4.7-5.1c2.1-0.7,4-0.4,5.6,0.5
	c1.3-4.8,5.7-8.3,10.9-8.3c0.1,0,0.3,0,0.4,0c2.9-8.8,11.2-15.2,21.1-15.2c9.9,0,18.4,6.5,21.2,15.6c0.3,0,0.7-0.1,1-0.1
	c10.3,1,13.2,8.4,13.9,13.5c0.4,2.6-1.8,5-4.4,4.9l-70.4-1.1C847.8,130.1,845.7,127.8,846.4,125.4"/>
<path class="st2" d="M920.7,131.8C920.7,131.8,920.7,131.8,920.7,131.8l-70.5-1.1c-1.4,0-2.8-0.7-3.7-1.8c-0.8-1.1-1.1-2.4-0.8-3.7
	c0,0,0,0,0,0c0.7-2.6,2.6-4.7,5.2-5.5c1.8-0.6,3.7-0.5,5.4,0.2c1.6-4.8,6.1-8,11.2-8.1c3.2-9.1,11.8-15.2,21.5-15.2
	c9.9,0,18.5,6.2,21.6,15.5c0.2,0,0.4,0,0.6,0c11.1,1.1,13.8,9.3,14.5,14.1c0.2,1.4-0.2,2.9-1.2,4
	C923.5,131.2,922.2,131.8,920.7,131.8 M846.4,125.4l0.6,0.2c-0.2,0.9,0,1.8,0.6,2.6c0.6,0.8,1.7,1.3,2.7,1.3l70.4,1.1
	c1.1,0,2.1-0.4,2.9-1.3c0.7-0.8,1-1.9,0.9-2.9c-0.7-5.4-3.7-12-13.3-13c-0.1,0-0.3,0-0.5,0c-0.1,0-0.3,0.1-0.4,0.1
	c-0.3,0-0.6-0.2-0.7-0.5c-2.8-9-11.1-15.1-20.5-15.1c-9.3,0-17.5,5.9-20.4,14.8c-0.1,0.3-0.4,0.5-0.7,0.5c-0.1,0-0.2,0-0.2,0h0
	c-4.9,0-9,3.2-10.3,7.8c-0.1,0.2-0.2,0.4-0.4,0.4c-0.2,0.1-0.4,0.1-0.6,0c-1.6-0.9-3.4-1-5.1-0.4c-2.1,0.7-3.7,2.4-4.3,4.5
	L846.4,125.4z M846.4,125.4L846.4,125.4L846.4,125.4z"/>
<path class="st2" d="M856.9,120.6c-0.1,0-0.2,0-0.2,0c-0.3-0.1-0.5-0.5-0.4-0.8c1.7-4.7,6.2-7.9,11.3-7.9c0.4,0,0.7,0.3,0.7,0.7
	c0,0.4-0.3,0.7-0.7,0.7c-4.5,0-8.5,2.8-10,7C857.4,120.4,857.2,120.6,856.9,120.6"/>
<path class="st2" d="M866.8,120.1c-0.4,0-0.7-0.3-0.7-0.7c0-12.6,10.2-22.8,22.8-22.8c0.4,0,0.7,0.3,0.7,0.7c0,0.4-0.3,0.7-0.7,0.7
	c-11.9,0-21.5,9.7-21.5,21.5C867.5,119.8,867.2,120.1,866.8,120.1"/>
<path class="st1" d="M679.8,116c3.9,0,7.2-3,7.2-6.9c0,0,0-0.1,0-0.1c0-5.4-4.3-9.8-9.7-10v0c0.3-4.5-2.2-8.9-6.2-10.9
	c-6.9-3.4-13.7-0.6-16.8,4.7c-1.3-0.5-2.7-0.7-4.2-0.7c-6.8,0-12.3,5.5-12.3,12.3c-4.2,0-7.6,3.4-7.6,7.6c0,0,0,0,0,0
	c0,2.2,1.9,3.9,4.1,3.9L679.8,116z"/>
<path class="st2" d="M643.1,107.2c-0.1,0-0.2,0-0.3-0.1c-1.3-1.3-3.1-2.1-5-2.1c-1.3,0-2.6,0.4-3.7,1c-0.2,0.1-0.5,0.1-0.6-0.2
	c-0.1-0.2-0.1-0.5,0.2-0.6c1.3-0.8,2.7-1.2,4.2-1.2c2.1,0,4.2,0.8,5.7,2.4c0.2,0.2,0.2,0.5,0,0.7
	C643.4,107.1,643.2,107.2,643.1,107.2"/>
<path class="st2" d="M679.8,116.5l-45.6,0c-2.5,0-4.5-1.9-4.5-4.3c0-4.3,3.4-7.8,7.6-8.1c0.2-6.9,5.9-12.4,12.8-12.4
	c1.3,0,2.7,0.2,4,0.6c3.1-5,9.9-8.1,17.2-4.5c4.1,2,6.6,6.2,6.5,10.9c5.4,0.4,9.7,4.9,9.7,10.4C687.5,113.2,684,116.5,679.8,116.5
	 M637.8,105c-3.9,0-7.1,3.2-7.1,7.1c0,1.9,1.6,3.4,3.6,3.4l45.6,0c3.7,0,6.7-2.9,6.7-6.4c0-5.2-4.2-9.4-9.3-9.6l-0.5,0v-0.5
	c0.3-4.5-2.1-8.6-6-10.5c-6.9-3.4-13.4-0.3-16.2,4.5l-0.2,0.3l-0.4-0.1c-1.3-0.5-2.7-0.7-4-0.7c-6.6,0-11.9,5.3-11.9,11.9v0.5H637.8
	z"/>
<path class="st2" d="M687,109.5c-0.3,0-0.5-0.2-0.5-0.5c0-5.2-4.3-9.5-9.5-9.5c-2.2,0-4.4,0.8-6.1,2.2c-2.2,1.8-3.4,4.5-3.4,7.3
	c0,0.3-0.2,0.5-0.5,0.5c-0.3,0-0.5-0.2-0.5-0.5c0-3.1,1.4-6,3.8-8c1.9-1.6,4.2-2.4,6.7-2.4c5.8,0,10.4,4.7,10.4,10.4
	C687.5,109.3,687.3,109.5,687,109.5"/>
<path class="st2" d="M637.8,105c-0.3,0-0.5-0.2-0.5-0.5c0-7.1,5.7-12.8,12.8-12.8c2.9,0,5.6,0.9,7.9,2.7c0.2,0.2,0.2,0.5,0.1,0.7
	c-0.2,0.2-0.4,0.2-0.7,0.1c-2.1-1.6-4.6-2.5-7.3-2.5c-6.6,0-11.9,5.3-11.9,11.9C638.2,104.7,638,105,637.8,105"/>
<path class="st2" d="M677.8,99.1h-0.9c0-6.6-5.3-11.9-11.9-11.9c-4.2,0-8.2,2.3-10.3,5.9l-0.8-0.5c2.3-3.9,6.5-6.4,11.1-6.4
	C672,86.3,677.8,92,677.8,99.1"/>
<path class="st1" d="M633.5,149.3L633.5,149.3l-16.9-0.2c-0.9,0-1.7-0.8-1.7-1.7c0-0.9,0.8-1.7,1.7-1.7h0l16.9,0.2
	c0.9,0,1.7,0.8,1.7,1.7C635.2,148.6,634.4,149.3,633.5,149.3"/>
<path class="st1" d="M647.2,138.4L647.2,138.4l-34-0.3c-0.9,0-1.7-0.8-1.7-1.7c0-0.9,0.8-1.7,1.7-1.7h0l34,0.3
	c0.9,0,1.7,0.8,1.7,1.7C648.9,137.6,648.1,138.4,647.2,138.4"/>
<path class="st1" d="M880.3,277.3h-28.8c-0.9,0-1.7-0.8-1.7-1.7c0-0.9,0.8-1.7,1.7-1.7h28.8c0.9,0,1.7,0.8,1.7,1.7
	C882,276.6,881.3,277.3,880.3,277.3"/>
<path class="st1" d="M894.7,289.6h-49.8c-0.9,0-1.7-0.8-1.7-1.7c0-0.9,0.8-1.7,1.7-1.7h49.8c0.9,0,1.7,0.8,1.7,1.7
	C896.4,288.9,895.7,289.6,894.7,289.6"/>
<path class="st1" d="M320.5,282.8h-14c-0.9,0-1.7-0.8-1.7-1.7c0-0.9,0.8-1.7,1.7-1.7h14c0.9,0,1.7,0.8,1.7,1.7
	C322.2,282,321.5,282.8,320.5,282.8"/>
<path class="st1" d="M894.7,263.5h-14c-0.9,0-1.7-0.8-1.7-1.7s0.8-1.7,1.7-1.7h14c0.9,0,1.7,0.8,1.7,1.7S895.6,263.5,894.7,263.5"/>
<path class="st1" d="M831,100.7h-26.4c-0.9,0-1.7-0.8-1.7-1.7s0.8-1.7,1.7-1.7H831c0.9,0,1.7,0.8,1.7,1.7S832,100.7,831,100.7"/>
<path class="st1" d="M861.8,87.1h-6.2c-0.9,0-1.7-0.8-1.7-1.7c0-0.9,0.8-1.7,1.7-1.7h6.2c0.9,0,1.7,0.8,1.7,1.7
	C863.5,86.3,862.7,87.1,861.8,87.1"/>
<path class="st1" d="M847.5,87.1h-29.2c-0.9,0-1.7-0.8-1.7-1.7c0-0.9,0.8-1.7,1.7-1.7h29.2c0.9,0,1.7,0.8,1.7,1.7
	C849.2,86.3,848.5,87.1,847.5,87.1"/>
<path class="st1" d="M835.8,74.5h-30.1c-0.9,0-1.7-0.8-1.7-1.7c0-0.9,0.8-1.7,1.7-1.7h30.1c0.9,0,1.7,0.8,1.7,1.7
	C837.5,73.7,836.8,74.5,835.8,74.5"/>
<path class="st1" d="M834,325.3c2.7,0,5.1-2.1,5.1-4.9c0,0,0,0,0-0.1c0-4.6-4.4-8.3-9.8-8.3c-1,0-2,0.1-3,0.4
	c-1-8.3-8-14.7-16.5-14.7c-1.9,0-3.7,0.3-5.3,0.9c0.6-3,0.7-6.2,0-9.5c-1.9-9.5-9.7-16.9-19.3-18.5c-5.9-0.9-11.4,0.3-15.9,3.1
	l-3.4-25.2h-25.6l-4.3,28.8c-1.9-1.2-4.2-1.9-6.6-1.9c-6.4,0-11.7,4.8-12.5,10.9c-3.3-1.5-6.9-2.3-10.8-2.3
	c-13.7,0-24.9,10.4-26.3,23.7c-1.8-0.2-3.8,0.1-5.8,1.2c-3.3,1.8-5.6,5.1-5.8,8.8c-0.1,1.6,0.2,3.1,0.8,4.5c0.8,1.9,2.7,3,4.7,3H834
	z"/>
<path class="st2" d="M668,318.8c-0.3,0-0.5-0.2-0.5-0.5c0-6.1,5-11.1,11.1-11.1c4.1,0,7.8,2.2,9.7,5.8c0.1,0.3,0,0.6-0.2,0.7
	c-0.3,0.1-0.6,0-0.7-0.2c-1.8-3.2-5.1-5.2-8.8-5.2c-5.5,0-10,4.5-10,10C668.5,318.5,668.3,318.8,668,318.8"/>
<path class="st2" d="M839.1,320.9c-0.3,0-0.5-0.2-0.5-0.5c0-4.3-4.2-7.8-9.3-7.8c-5.1,0-9.3,3.5-9.3,7.8c0,0.3-0.2,0.5-0.5,0.5
	c-0.3,0-0.5-0.2-0.5-0.5c0-4.9,4.6-8.9,10.3-8.9c5.7,0,10.3,4,10.3,8.9C839.6,320.6,839.4,320.9,839.1,320.9"/>
<path class="st2" d="M804.9,294.5c-0.3,0-0.5-0.2-0.5-0.5c0-12.7-10.3-23.1-23.1-23.1c-6.2,0-12,2.4-16.3,6.8
	c-0.2,0.2-0.5,0.2-0.8,0c-0.2-0.2-0.2-0.5,0-0.8c4.6-4.6,10.6-7.1,17.1-7.1c13.3,0,24.1,10.8,24.1,24.1
	C805.5,294.2,805.2,294.5,804.9,294.5"/>
<path class="st2" d="M793.1,314.9c-0.3,0-0.5-0.2-0.5-0.5c0-9.5,7.7-17.2,17.2-17.2c8.7,0,16.1,6.5,17.1,15.2c0,0.3-0.2,0.6-0.5,0.6
	c-0.3,0-0.6-0.2-0.6-0.5c-0.9-8.1-7.8-14.3-16-14.3c-8.9,0-16.1,7.2-16.1,16.1C793.6,314.7,793.4,314.9,793.1,314.9"/>
<path class="st2" d="M679.7,307.9C679.7,307.9,679.6,307.9,679.7,307.9c-0.4,0-0.6-0.3-0.5-0.6c1.6-13.5,13.2-23.7,26.8-23.7
	c6.6,0,12.9,2.4,17.8,6.7c0.2,0.2,0.2,0.5,0,0.8c-0.2,0.2-0.5,0.2-0.8,0c-4.7-4.2-10.8-6.5-17.1-6.5c-13.1,0-24.2,9.8-25.7,22.8
	C680.2,307.7,680,307.9,679.7,307.9"/>
<path class="st2" d="M834,325.8H673.5c-2.3,0-4.3-1.3-5.2-3.3c-0.6-1.5-0.9-3.1-0.8-4.8c0.2-3.8,2.5-7.3,6.1-9.2
	c1.8-1,3.6-1.4,5.6-1.3c1.7-13.5,13.1-23.6,26.8-23.6c3.6,0,7.1,0.7,10.4,2.1c1.2-6.2,6.6-10.7,12.9-10.7c2.2,0,4.3,0.5,6.2,1.6
	l4.2-28c0-0.3,0.3-0.5,0.5-0.5h25.6c0.3,0,0.5,0.2,0.5,0.5l3.3,24.4c4.8-2.7,10.1-3.6,15.6-2.7c9.8,1.6,17.7,9.2,19.7,18.9
	c0.6,2.9,0.7,5.9,0.2,8.8c1.5-0.4,3.1-0.7,4.6-0.7c8.5,0,15.7,6.2,17,14.6c0.8-0.2,1.7-0.3,2.5-0.3c5.7,0,10.3,4,10.3,8.9
	C839.6,323.4,837.1,325.8,834,325.8 M678.5,308.3c-1.6,0-3,0.4-4.5,1.2c-3.2,1.7-5.3,4.9-5.5,8.3c-0.1,1.5,0.2,2.9,0.7,4.3
	c0.7,1.6,2.3,2.7,4.2,2.7H834c2.5,0,4.6-1.9,4.6-4.3c0-4.3-4.2-7.8-9.3-7.8c-1,0-1.9,0.1-2.8,0.4c-0.1,0-0.3,0-0.4-0.1
	c-0.1-0.1-0.2-0.2-0.2-0.4c-1-8.1-7.8-14.2-16-14.2c-1.7,0-3.5,0.3-5.2,0.9c-0.2,0.1-0.4,0-0.5-0.1c-0.1-0.1-0.2-0.3-0.2-0.5
	c0.6-3.1,0.6-6.2,0-9.3c-1.9-9.3-9.5-16.6-18.8-18.1c-5.5-0.9-10.9,0.2-15.6,3c-0.1,0.1-0.3,0.1-0.5,0c-0.2-0.1-0.3-0.2-0.3-0.4
	l-3.4-24.7h-24.6l-4.3,28.4c0,0.2-0.1,0.3-0.3,0.4c-0.2,0.1-0.3,0.1-0.5,0c-1.9-1.2-4.1-1.8-6.3-1.8c-6,0-11.2,4.5-12,10.5
	c0,0.2-0.1,0.3-0.3,0.4c-0.1,0.1-0.3,0.1-0.5,0c-3.4-1.5-6.9-2.3-10.6-2.3c-13.3,0-24.4,10-25.8,23.2c0,0.3-0.3,0.5-0.6,0.5
	C679.2,308.3,678.9,308.3,678.5,308.3"/>
<path class="st3" d="M713.7,197.9l17.3-20.3l21.1,66c-21.1-10.4-46.1-9.5-66.5,2.3l-17.8,10.3l2.8-32.5
	C687.4,220,702.5,210.9,713.7,197.9"/>
<path class="st3" d="M790.5,197.9l-17.3-20.3l-21.1,66c21.1-10.4,46.1-9.5,66.5,2.3l17.8,10.3l-2.8-32.5
	C816.7,220,801.6,210.9,790.5,197.9"/>
<path class="st4" d="M762.6,250.6h-23c-4.4,0-7.9-3.5-7.9-7.9v-0.9h38.8v0.9C770.6,247.1,767,250.6,762.6,250.6"/>
<path class="st2" d="M667.9,257.3c-0.2,0-0.4-0.1-0.6-0.2c-0.3-0.2-0.5-0.6-0.5-1l2.8-32.5c0-0.5,0.4-0.8,0.8-0.9
	c16.4-3.6,31.5-12.7,42.4-25.5l17.3-20.3c0.3-0.3,0.6-0.4,1-0.4c0.4,0.1,0.7,0.4,0.8,0.7l21.1,66c0.1,0.4,0,0.8-0.3,1.1
	c-0.3,0.3-0.8,0.3-1.2,0.1c-20.9-10.3-45.3-9.4-65.5,2.3l-17.8,10.3C668.2,257.3,668,257.3,667.9,257.3 M671.7,224.6l-2.6,29.7
	l16-9.3c20-11.6,44.2-12.8,65.2-3.4l-19.8-61.9l-16.1,18.8v0C703.4,211.5,688.3,220.7,671.7,224.6 M713.7,197.9L713.7,197.9
	L713.7,197.9z"/>
<path class="st2" d="M836.3,257.3c-0.2,0-0.4,0-0.5-0.1L818,246.8c-20.1-11.7-44.6-12.5-65.5-2.3c-0.4,0.2-0.8,0.1-1.2-0.1
	c-0.3-0.3-0.4-0.7-0.3-1.1l21.1-66c0.1-0.4,0.4-0.6,0.8-0.7c0.4-0.1,0.8,0.1,1,0.4l17.3,20.3c10.9,12.8,26,21.9,42.4,25.5
	c0.5,0.1,0.8,0.5,0.8,0.9l2.8,32.5c0,0.4-0.2,0.8-0.5,1C836.7,257.3,836.5,257.3,836.3,257.3 M783.2,235.3c12.4,0,24.8,3.2,35.9,9.7
	l16,9.3l-2.6-29.7c-16.6-3.8-31.8-13-42.8-26l-16.1-18.8l-19.8,61.9C763.2,237.4,773.2,235.3,783.2,235.3"/>
<path class="st5" d="M769.6,242.5c10.6-21.2,17.7-58.7,17.7-95.5c0-55.7-36.3-95.5-36.3-95.5s-36.3,39.9-36.3,95.5
	c0,36.8,7.1,74.2,17.7,95.4C744.8,244,757.3,244,769.6,242.5"/>
<path class="st3" d="M751,51.4c0,0-1.5,1.6-3.8,4.6c9.3,12,32.5,46.4,32.5,90.9c0,30.5-4.9,61.4-12.6,83.2
	c-2.7,7.8-10,13.1-18.2,13.4c-0.4,0-0.8,0-1.2,0c7.3,0.2,14.6-0.2,21.9-1c10.6-21.2,17.7-58.7,17.7-95.5
	C787.4,91.3,751,51.4,751,51.4"/>
<path class="st6" d="M779.1,100.5c-10.7-30.1-28-49.1-28-49.1s-17.2,18.9-27.9,48.8C741.6,97,760.6,97.1,779.1,100.5"/>
<path class="st7" d="M751,51.4C751,51.4,751,51.5,751,51.4C751,51.5,751,51.5,751,51.4c-0.1,0.1-0.1,0.1-0.1,0.1c0,0,0,0,0,0
	c-0.4,0.4-1.6,1.8-3.2,3.9c0,0,0,0,0,0c-0.1,0.2-0.3,0.3-0.4,0.5c0,0,0,0,0,0c5.6,7.2,16.2,22.5,23.8,43.2c2.7,0.4,5.4,0.8,8.1,1.3
	v0c-0.1-0.4-0.3-0.8-0.4-1.1c-0.1-0.2-0.1-0.3-0.2-0.5c-0.5-1.2-0.9-2.4-1.4-3.6c-0.1-0.1-0.1-0.3-0.2-0.4c-0.2-0.4-0.3-0.8-0.5-1.2
	c0,0,0-0.1,0-0.1c-0.3-0.8-0.6-1.6-1-2.3c0-0.1-0.1-0.2-0.1-0.3c-0.2-0.4-0.3-0.8-0.5-1.2c0-0.1-0.1-0.1-0.1-0.2
	c-0.3-0.8-0.7-1.6-1.1-2.3c0,0,0,0,0,0c-0.2-0.4-0.4-0.8-0.5-1.2c0-0.1-0.1-0.1-0.1-0.2c-0.5-1.1-1.1-2.3-1.6-3.4
	c0-0.1-0.1-0.1-0.1-0.2c-0.6-1.1-1.1-2.2-1.7-3.3c0,0,0-0.1-0.1-0.1c-0.6-1.1-1.1-2.1-1.7-3.2c0,0,0,0,0,0c-1.4-2.4-2.7-4.7-4-6.8
	c0,0,0,0,0,0c-0.6-0.9-1.1-1.7-1.6-2.6c0,0,0,0,0-0.1c-0.5-0.8-1.1-1.6-1.6-2.4c0,0,0,0,0,0c-0.7-1-1.4-2-2-2.9c0,0,0,0,0,0
	c-0.5-0.7-0.9-1.3-1.4-1.9c0,0,0-0.1-0.1-0.1c-0.4-0.6-0.8-1.1-1.2-1.6c0,0-0.1-0.1-0.1-0.1c-0.4-0.5-0.7-1-1.1-1.4
	c0,0-0.1-0.1-0.1-0.1c-0.1-0.1-0.2-0.3-0.3-0.4c0,0,0,0,0,0c-0.2-0.3-0.4-0.5-0.6-0.7c0,0-0.1-0.1-0.1-0.1c-0.1-0.1-0.2-0.2-0.3-0.3
	c0,0-0.1-0.1-0.1-0.1c-0.1-0.2-0.3-0.3-0.4-0.5c0,0-0.1-0.1-0.1-0.1c-0.1-0.1-0.1-0.2-0.2-0.2c0-0.1-0.1-0.1-0.1-0.1
	c-0.1-0.1-0.2-0.2-0.3-0.3c0-0.1-0.1-0.1-0.1-0.2c0-0.1-0.1-0.1-0.1-0.2c0,0-0.1-0.1-0.1-0.1c0,0-0.1-0.1-0.1-0.1
	c-0.1-0.1-0.1-0.1-0.2-0.2c0,0,0-0.1-0.1-0.1c0,0-0.1-0.1-0.1-0.1c0,0,0,0-0.1-0.1c0,0-0.1-0.1-0.1-0.1c0,0,0,0,0,0
	C751.1,51.5,751.1,51.5,751,51.4C751.1,51.4,751.1,51.4,751,51.4C751.1,51.4,751,51.4,751,51.4C751,51.4,751,51.4,751,51.4
	C751,51.4,751,51.4,751,51.4"/>
<path class="st8" d="M726.4,91.8c16.4-2.5,33-2.4,49.4,0.3C765.2,66.9,751,51.4,751,51.4S737,66.8,726.4,91.8"/>
<path class="st8" d="M671.2,262.3c0,7-9.2,29.6-9.2,29.6s-9.2-22.6-9.2-29.6c0-7,4.1-12.6,9.2-12.6
	C667,249.7,671.2,255.4,671.2,262.3"/>
<path class="st9" d="M671.2,260.2h-18.9c-0.3,0-0.6-0.3-0.6-0.6v-3.2c0-0.3,0.3-0.6,0.6-0.6h18.9c0.3,0,0.6,0.3,0.6,0.6v3.2
	C671.8,259.9,671.6,260.2,671.2,260.2"/>
<path class="st5" d="M671.9,256.2c5.7-10.3,9.5-28.5,9.5-46.3c0-27-19.4-46.3-19.4-46.3s-19.4,19.3-19.4,46.3
	c0,17.8,3.8,36,9.4,46.2C658.6,257,665.3,257,671.9,256.2"/>
<path class="st3" d="M660.9,164.9l-0.9,1c0,0,0,0,0,0c5,5.8,17.4,22.5,17.4,44.1c0,17.8-3.8,36-9.5,46.3c-2.5,0.3-5.1,0.4-7.6,0.5
	c3.9,0.1,7.8-0.1,11.7-0.5c5.7-10.3,9.5-28.5,9.5-46.3c0-23-14.1-40.5-18.3-45.1C662.5,164.2,661.5,164.2,660.9,164.9"/>
<path class="st6" d="M678.7,192.4c-5.3-17.4-16.7-28.7-16.7-28.7s-11.3,11.2-16.6,28.5C656.4,190.6,667.7,190.7,678.7,192.4"/>
<path class="st8" d="M677.2,188.1c-5.7-14.9-15.2-24.4-15.2-24.4s-9.4,9.4-15.1,24.2C657,186.8,667.1,186.8,677.2,188.1"/>
<path class="st7" d="M660,165.9c3.5,4.1,10.5,13.4,14.5,25.9c1.4,0.2,2.8,0.3,4.2,0.6c-0.2-0.5-0.3-1-0.5-1.5c0-0.1,0-0.1-0.1-0.2
	c-0.2-0.5-0.3-1-0.5-1.4c0,0,0-0.1,0-0.1c-0.4-1-0.7-1.9-1.1-2.9c0,0,0-0.1,0-0.1c-0.2-0.5-0.4-0.9-0.6-1.3c0-0.1,0-0.1-0.1-0.2
	c-0.2-0.4-0.4-0.9-0.6-1.3c0-0.1,0-0.1-0.1-0.2c-0.2-0.4-0.4-0.8-0.6-1.3c0,0,0-0.1,0-0.1c-0.4-0.9-0.9-1.7-1.3-2.5
	c0,0,0-0.1-0.1-0.1c-0.2-0.4-0.4-0.8-0.6-1.1c0,0-0.1-0.1-0.1-0.1c-0.2-0.4-0.4-0.7-0.6-1.1c0,0,0-0.1-0.1-0.1
	c-0.2-0.4-0.4-0.7-0.6-1.1c0,0,0,0,0,0c-0.4-0.7-0.9-1.4-1.3-2.1c0,0,0-0.1-0.1-0.1c-0.2-0.3-0.4-0.6-0.6-0.9c0,0-0.1-0.1-0.1-0.1
	c-0.2-0.3-0.4-0.6-0.6-0.9c0,0,0-0.1-0.1-0.1c-0.2-0.3-0.4-0.6-0.6-0.9c0,0,0,0,0,0c-0.2-0.3-0.4-0.6-0.6-0.8c0,0,0,0,0,0
	c-0.2-0.3-0.4-0.5-0.6-0.8c0,0,0-0.1-0.1-0.1c-0.2-0.2-0.4-0.5-0.5-0.7c0,0,0-0.1-0.1-0.1c-0.2-0.2-0.3-0.4-0.5-0.6c0,0,0,0,0-0.1
	c-0.2-0.2-0.3-0.4-0.5-0.6c0,0,0,0,0,0c-0.2-0.2-0.3-0.4-0.5-0.6c0,0,0,0,0,0c-0.1-0.2-0.3-0.3-0.4-0.5c0,0,0,0,0-0.1
	c-0.1-0.1-0.3-0.3-0.4-0.4c0,0,0,0,0-0.1c-0.9-1-1.4-1.5-1.4-1.5S661.2,164.4,660,165.9"/>
<path class="st10" d="M676.6,186.4c-0.1-0.3-0.2-0.6-0.4-0.9c-0.1-0.1-0.1-0.3-0.2-0.4c-0.1-0.3-0.3-0.6-0.4-0.9
	c0-0.1-0.1-0.2-0.1-0.3c-0.2-0.4-0.4-0.8-0.5-1.2c0,0,0-0.1-0.1-0.1c-0.2-0.3-0.3-0.7-0.5-1c-0.1-0.1-0.1-0.2-0.2-0.3
	c-0.1-0.3-0.3-0.5-0.4-0.8c-0.1-0.1-0.1-0.2-0.2-0.3c-0.2-0.3-0.3-0.6-0.5-0.9c0-0.1-0.1-0.1-0.1-0.2c-0.2-0.4-0.4-0.7-0.6-1.1
	c0,0-0.1-0.1-0.1-0.1c-0.2-0.3-0.3-0.6-0.5-0.9c-0.1-0.1-0.1-0.2-0.2-0.3c-0.2-0.3-0.3-0.5-0.4-0.8c-0.1-0.1-0.1-0.2-0.2-0.2
	c-0.2-0.3-0.4-0.6-0.5-0.9c0,0,0-0.1-0.1-0.1c-0.2-0.3-0.4-0.6-0.6-0.9c0,0-0.1-0.1-0.1-0.1c-0.2-0.3-0.3-0.5-0.5-0.7
	c-0.1-0.1-0.1-0.1-0.2-0.2c-0.2-0.2-0.3-0.4-0.4-0.7c0-0.1-0.1-0.1-0.1-0.2c-0.4-0.5-0.7-1.1-1.1-1.6c0-0.1-0.1-0.1-0.1-0.2
	c-0.1-0.2-0.3-0.4-0.4-0.5c-0.1-0.1-0.1-0.1-0.2-0.2c-0.1-0.2-0.3-0.3-0.4-0.5c0-0.1-0.1-0.1-0.1-0.2c-0.2-0.2-0.3-0.4-0.5-0.6
	c0,0,0,0-0.1-0.1c-0.1-0.2-0.3-0.3-0.4-0.5c-0.1-0.1-0.1-0.1-0.2-0.2c-0.1-0.1-0.2-0.2-0.3-0.3c-0.1-0.1-0.1-0.2-0.2-0.2
	c-0.1-0.1-0.2-0.2-0.2-0.3c-0.1-0.1-0.1-0.2-0.2-0.2c-0.1-0.1-0.1-0.1-0.2-0.2c-0.1-0.2-0.3-0.3-0.4-0.5c0,0-0.1-0.1-0.1-0.1
	c-0.1-0.1-0.2-0.2-0.2-0.3c0,0,0,0-0.1-0.1c-0.1-0.1-0.2-0.2-0.2-0.3l0,0c-0.7-0.8-1.1-1.2-1.1-1.2s-0.4,0.4-1.1,1.2
	c-0.3,0.3-0.6,0.6-0.9,1l0,0c3.1,3.6,8.9,11.3,13,21.7c0.7,0.1,1.4,0.1,2.1,0.2c0,0,0.1,0,0.1,0c0.7,0.1,1.4,0.2,2.1,0.2
	c-0.2-0.4-0.3-0.8-0.5-1.3C676.7,186.7,676.6,186.6,676.6,186.4"/>
<path class="st2" d="M662.2,257.8c-3.4,0-6.9-0.2-10.3-0.6l-0.5-0.1l-0.3-0.5c-5.8-10.6-9.6-28.9-9.6-46.8
	c0-27.1,19.5-46.9,19.7-47.1l0.7-0.7l0.7,0.7c0.2,0.2,19.7,20,19.7,47.1c0,17.9-3.8,36.3-9.6,46.8l-0.3,0.5l-0.5,0.1
	C668.8,257.7,665.5,257.8,662.2,257.8 M652.7,255.2c6.1,0.7,12.4,0.7,18.5,0.1c5.5-10.3,9.1-28,9.1-45.3c0-23.2-14.8-40.9-18.3-44.8
	c-3.5,3.9-18.3,21.6-18.3,44.8C643.7,227.2,647.2,244.8,652.7,255.2"/>
<path class="st8" d="M851.4,262.3c0,7-9.2,29.6-9.2,29.6s-9.2-22.6-9.2-29.6c0-7,4.1-12.6,9.2-12.6
	C847.2,249.7,851.4,255.4,851.4,262.3"/>
<path class="st9" d="M851.4,260.2h-18.9c-0.3,0-0.6-0.3-0.6-0.6v-3.2c0-0.3,0.3-0.6,0.6-0.6h18.9c0.3,0,0.6,0.3,0.6,0.6v3.2
	C852,259.9,851.8,260.2,851.4,260.2"/>
<path class="st5" d="M852.1,256.2c5.7-10.3,9.5-28.5,9.5-46.3c0-27-19.4-46.3-19.4-46.3s-19.4,19.3-19.4,46.3
	c0,17.8,3.8,36,9.4,46.2C838.8,257,845.5,257,852.1,256.2"/>
<path class="st3" d="M841.1,164.9l-0.9,1c0,0,0,0,0,0c5,5.8,17.4,22.5,17.4,44.1c0,17.8-3.8,36-9.5,46.3c-2.5,0.3-5.1,0.4-7.6,0.5
	c3.9,0.1,7.8-0.1,11.7-0.5c5.7-10.3,9.5-28.5,9.5-46.3c0-23-14.1-40.5-18.3-45.1C842.7,164.2,841.7,164.2,841.1,164.9"/>
<path class="st6" d="M858.9,192.4c-5.3-17.4-16.7-28.7-16.7-28.7s-11.3,11.2-16.6,28.5C836.6,190.6,847.8,190.7,858.9,192.4"/>
<path class="st8" d="M857.4,188.1c-5.7-14.9-15.2-24.4-15.2-24.4s-9.4,9.4-15.1,24.2C837.1,186.8,847.3,186.8,857.4,188.1"/>
<path class="st7" d="M840.2,165.9c3.5,4.1,10.5,13.4,14.5,25.9c1.4,0.2,2.8,0.3,4.2,0.6l0,0c-0.2-0.5-0.3-1-0.5-1.5
	c0-0.1,0-0.1-0.1-0.2c-0.2-0.5-0.3-1-0.5-1.4c0,0,0-0.1,0-0.1c-0.4-1-0.7-1.9-1.1-2.9c0,0,0-0.1,0-0.1c-0.2-0.5-0.4-0.9-0.6-1.3
	c0-0.1,0-0.1-0.1-0.2c-0.2-0.4-0.4-0.9-0.6-1.3c0-0.1,0-0.1-0.1-0.2c-0.2-0.4-0.4-0.8-0.6-1.3c0,0,0-0.1,0-0.1
	c-0.4-0.9-0.9-1.7-1.3-2.5c0,0,0-0.1-0.1-0.1c-0.2-0.4-0.4-0.8-0.6-1.1c0,0-0.1-0.1-0.1-0.1c-0.2-0.4-0.4-0.7-0.6-1.1
	c0,0,0-0.1-0.1-0.1c-0.2-0.4-0.4-0.7-0.6-1.1c0,0,0,0,0,0c-0.4-0.7-0.9-1.4-1.3-2.1c0,0,0-0.1-0.1-0.1c-0.2-0.3-0.4-0.6-0.6-0.9
	c0,0-0.1-0.1-0.1-0.1c-0.2-0.3-0.4-0.6-0.6-0.9c0,0,0-0.1-0.1-0.1c-0.2-0.3-0.4-0.6-0.6-0.9c0,0,0,0,0,0c-0.2-0.3-0.4-0.6-0.6-0.8
	c0,0,0,0,0,0c-0.2-0.3-0.4-0.5-0.6-0.8c0,0,0-0.1-0.1-0.1c-0.2-0.2-0.4-0.5-0.5-0.7c0,0,0-0.1-0.1-0.1c-0.2-0.2-0.3-0.4-0.5-0.6
	c0,0,0,0,0-0.1c-0.2-0.2-0.3-0.4-0.5-0.6c0,0,0,0,0,0c-0.2-0.2-0.3-0.4-0.5-0.6c0,0,0,0,0,0c-0.1-0.2-0.3-0.3-0.4-0.5c0,0,0,0,0-0.1
	c-0.1-0.1-0.3-0.3-0.4-0.4c0,0,0,0,0-0.1c-0.9-1-1.4-1.5-1.4-1.5S841.4,164.4,840.2,165.9"/>
<path class="st10" d="M856.7,186.4c-0.1-0.3-0.2-0.6-0.4-0.9c-0.1-0.1-0.1-0.3-0.2-0.4c-0.1-0.3-0.3-0.6-0.4-0.9
	c0-0.1-0.1-0.2-0.1-0.3c-0.2-0.4-0.4-0.8-0.5-1.2c0,0,0-0.1-0.1-0.1c-0.2-0.3-0.3-0.7-0.5-1c-0.1-0.1-0.1-0.2-0.2-0.3
	c-0.1-0.3-0.3-0.5-0.4-0.8c-0.1-0.1-0.1-0.2-0.2-0.3c-0.2-0.3-0.3-0.6-0.5-0.9c0-0.1-0.1-0.1-0.1-0.2c-0.2-0.4-0.4-0.7-0.6-1.1
	c0,0-0.1-0.1-0.1-0.1c-0.2-0.3-0.3-0.6-0.5-0.9c-0.1-0.1-0.1-0.2-0.2-0.3c-0.2-0.3-0.3-0.5-0.4-0.8c-0.1-0.1-0.1-0.2-0.2-0.2
	c-0.2-0.3-0.4-0.6-0.5-0.9c0,0,0-0.1-0.1-0.1c-0.2-0.3-0.4-0.6-0.6-0.9c0,0-0.1-0.1-0.1-0.1c-0.2-0.3-0.3-0.5-0.5-0.7
	c-0.1-0.1-0.1-0.1-0.2-0.2c-0.1-0.2-0.3-0.4-0.4-0.7c0-0.1-0.1-0.1-0.1-0.2c-0.4-0.5-0.7-1.1-1.1-1.6c0-0.1-0.1-0.1-0.1-0.2
	c-0.1-0.2-0.3-0.4-0.4-0.5c-0.1-0.1-0.1-0.1-0.2-0.2c-0.1-0.2-0.3-0.3-0.4-0.5c0-0.1-0.1-0.1-0.1-0.2c-0.2-0.2-0.3-0.4-0.5-0.6
	c0,0,0,0-0.1-0.1c-0.1-0.2-0.3-0.3-0.4-0.5c-0.1-0.1-0.1-0.1-0.2-0.2c-0.1-0.1-0.2-0.2-0.3-0.3c-0.1-0.1-0.1-0.2-0.2-0.2
	c-0.1-0.1-0.2-0.2-0.2-0.3c-0.1-0.1-0.1-0.2-0.2-0.2c-0.1-0.1-0.1-0.1-0.2-0.2c-0.1-0.2-0.3-0.3-0.4-0.5c0,0-0.1-0.1-0.1-0.1
	c-0.1-0.1-0.2-0.2-0.2-0.3c0,0,0,0-0.1-0.1c-0.1-0.1-0.2-0.2-0.2-0.3h0c-0.7-0.8-1.1-1.2-1.1-1.2s-0.4,0.4-1.1,1.2
	c-0.3,0.3-0.6,0.6-0.9,1l0,0c3.1,3.6,8.9,11.3,13,21.7c0.7,0.1,1.4,0.1,2.1,0.2c0,0,0.1,0,0.1,0c0.7,0.1,1.4,0.2,2.1,0.2
	c-0.2-0.4-0.3-0.8-0.5-1.3C856.9,186.7,856.8,186.6,856.7,186.4"/>
<path class="st2" d="M842.4,257.8c-3.4,0-6.9-0.2-10.3-0.6l-0.5-0.1l-0.3-0.5c-5.8-10.6-9.6-28.9-9.6-46.8
	c0-27.1,19.5-46.9,19.7-47.1l0.7-0.7l0.7,0.7c0.2,0.2,19.7,20,19.7,47.1c0,17.9-3.8,36.3-9.6,46.8l-0.3,0.5l-0.5,0.1
	C849,257.7,845.7,257.8,842.4,257.8 M832.9,255.2c6.1,0.7,12.4,0.7,18.5,0.1c5.5-10.3,9.1-28,9.1-45.3c0-23.2-14.8-40.9-18.3-44.8
	c-3.5,3.9-18.3,21.6-18.3,44.8C823.8,227.2,827.4,244.8,832.9,255.2"/>
<path class="st10" d="M767.7,91c2.7,0.3,5.4,0.7,8.1,1.1c-8.1-19.3-18.3-32.9-22.7-38.2c0,0,0,0,0,0c-0.3-0.3-0.5-0.6-0.7-0.8
	c0,0,0-0.1-0.1-0.1c-0.1-0.1-0.2-0.3-0.3-0.4c0,0,0,0-0.1-0.1c-0.1-0.1-0.1-0.1-0.1-0.2c0,0-0.1-0.1-0.1-0.1
	c-0.1-0.1-0.1-0.1-0.2-0.2c0,0-0.1-0.1-0.1-0.1c0,0-0.1-0.1-0.1-0.1c0-0.1-0.1-0.1-0.1-0.1c0,0,0,0-0.1-0.1c0,0-0.1-0.1-0.1-0.1
	c0,0,0,0,0,0c-0.1-0.1-0.1-0.1-0.1-0.1s0,0,0,0c0,0,0,0,0,0c0,0,0,0,0,0c-0.1,0.1-0.2,0.2-0.3,0.4c0,0,0,0,0,0
	c-0.2,0.2-0.5,0.6-0.9,1c0,0,0,0,0,0c-0.2,0.2-0.4,0.5-0.6,0.7c0,0,0,0,0,0c-0.1,0.1-0.2,0.3-0.3,0.4c0,0,0,0-0.1,0.1
	c-0.1,0.1-0.2,0.3-0.3,0.4c0,0,0,0,0,0c-0.1,0.1-0.2,0.3-0.4,0.5c0,0,0,0,0,0c-0.1,0.1-0.2,0.3-0.3,0.4c0,0.1-0.1,0.1-0.1,0.2
	c-0.1,0.1-0.2,0.2-0.3,0.3c0,0-0.1,0.1-0.1,0.1C752.1,62.3,760.6,74.5,767.7,91"/>
<path class="st2" d="M751.5,244.7c-6.4,0-12.8-0.4-19.2-1.2l-0.6-0.1l-0.3-0.5c-10.8-21.6-17.8-59.3-17.8-95.9
	c0-55.4,36.2-95.9,36.6-96.3l0.8-0.9l0.8,0.9c0.4,0.4,36.6,40.8,36.6,96.3c0,36.7-7,74.4-17.9,96l-0.3,0.5l-0.6,0.1
	C763.7,244.3,757.6,244.7,751.5,244.7 M733.1,241.4c11.9,1.5,23.9,1.5,35.8,0.1c10.6-21.4,17.4-58.5,17.4-94.6
	c0-50-30-87.7-35.3-93.9c-5.3,6.2-35.3,43.9-35.3,93.9C715.8,183,722.6,219.9,733.1,241.4"/>
<path class="st3" d="M774.7,142.8c0,13.3-10.8,24.1-24.1,24.1c-13.3,0-24.1-10.8-24.1-24.1c0-13.3,10.8-24.1,24.1-24.1
	C763.9,118.7,774.7,129.5,774.7,142.8"/>
<path class="st11" d="M767.4,142.8c0,9.3-7.5,16.8-16.8,16.8c-9.3,0-16.8-7.5-16.8-16.8c0-9.3,7.5-16.8,16.8-16.8
	C759.9,126,767.4,133.6,767.4,142.8"/>
<path class="st2" d="M750.7,161.4c-4.9,0-9.6-1.9-13.1-5.4c-3.6-3.5-5.6-8.3-5.6-13.3c0-10.2,8.3-18.5,18.5-18.5
	c4.9,0,9.6,1.9,13.1,5.4c3.6,3.5,5.6,8.3,5.6,13.3C769.2,153.1,760.9,161.4,750.7,161.4 M750.5,125.8c-9.3,0-16.9,7.6-16.9,16.9
	c0,4.6,1.8,8.9,5.1,12.1c3.2,3.2,7.5,4.9,12,4.9c9.3,0,16.9-7.6,16.9-16.9c0-4.6-1.8-8.9-5.1-12.1
	C759.3,127.6,755,125.8,750.5,125.8"/>
<path class="st2" d="M751.5,122c0,0.7-0.5,1.2-1.2,1.2s-1.2-0.5-1.2-1.2c0-0.7,0.5-1.2,1.2-1.2S751.5,121.4,751.5,122"/>
<path class="st2" d="M743.5,123.3c0.3,0.6,0,1.3-0.7,1.6c-0.6,0.3-1.3,0-1.6-0.7c-0.3-0.6,0-1.3,0.7-1.6
	C742.5,122.4,743.2,122.6,743.5,123.3"/>
<path class="st2" d="M736.5,127.5c0.5,0.5,0.5,1.2,0,1.7c-0.5,0.5-1.2,0.5-1.7,0c-0.5-0.5-0.5-1.2,0-1.7
	C735.3,127,736,127,736.5,127.5"/>
<path class="st2" d="M731.7,134c0.6,0.3,0.9,1,0.7,1.6c-0.3,0.6-1,0.9-1.6,0.7c-0.6-0.3-0.9-1-0.7-1.6
	C730.4,134.1,731.1,133.8,731.7,134"/>
<path class="st2" d="M729.8,141.9c0.7,0,1.2,0.5,1.2,1.2c0,0.7-0.5,1.2-1.2,1.2c-0.7,0-1.2-0.5-1.2-1.2
	C728.6,142.5,729.1,141.9,729.8,141.9"/>
<path class="st2" d="M731,150c0.6-0.3,1.3,0,1.6,0.7c0.3,0.6,0,1.3-0.7,1.6c-0.6,0.3-1.3,0-1.6-0.7C730.1,150.9,730.4,150.2,731,150
	"/>
<path class="st2" d="M735.2,156.9c0.5-0.5,1.2-0.5,1.7,0c0.5,0.5,0.5,1.2,0,1.7c-0.5,0.5-1.2,0.5-1.7,0
	C734.8,158.1,734.8,157.4,735.2,156.9"/>
<path class="st2" d="M741.8,161.7c0.3-0.6,1-0.9,1.6-0.7c0.6,0.3,0.9,1,0.7,1.6c-0.3,0.6-1,0.9-1.6,0.7
	C741.8,163,741.5,162.3,741.8,161.7"/>
<path class="st2" d="M749.7,163.6c0-0.7,0.5-1.2,1.2-1.2c0.7,0,1.2,0.5,1.2,1.2c0,0.7-0.5,1.2-1.2,1.2
	C750.2,164.8,749.7,164.3,749.7,163.6"/>
<path class="st2" d="M757.7,162.4c-0.3-0.6,0-1.3,0.7-1.6c0.6-0.3,1.3,0,1.6,0.7c0.3,0.6,0,1.3-0.7,1.6
	C758.7,163.3,758,163,757.7,162.4"/>
<path class="st2" d="M764.7,158.2c-0.5-0.5-0.5-1.2,0-1.7c0.5-0.5,1.2-0.5,1.7,0c0.5,0.5,0.5,1.2,0,1.7
	C765.9,158.7,765.1,158.7,764.7,158.2"/>
<path class="st2" d="M769.5,151.6c-0.6-0.3-0.9-1-0.7-1.6c0.3-0.6,1-0.9,1.6-0.7c0.6,0.3,0.9,1,0.7,1.6
	C770.8,151.6,770.1,151.9,769.5,151.6"/>
<path class="st2" d="M771.4,143.7c-0.7,0-1.2-0.5-1.2-1.2s0.5-1.2,1.2-1.2c0.7,0,1.2,0.5,1.2,1.2S772.1,143.7,771.4,143.7"/>
<path class="st2" d="M770.2,135.7c-0.6,0.3-1.3,0-1.6-0.7c-0.3-0.6,0-1.3,0.7-1.6c0.6-0.3,1.3,0,1.6,0.7
	C771.1,134.7,770.8,135.4,770.2,135.7"/>
<path class="st2" d="M765.9,128.8c-0.5,0.5-1.2,0.5-1.7,0c-0.5-0.5-0.5-1.2,0-1.7c0.5-0.5,1.2-0.5,1.7,0
	C766.4,127.5,766.4,128.3,765.9,128.8"/>
<path class="st2" d="M759.4,124c-0.3,0.6-1,0.9-1.6,0.7c-0.6-0.3-0.9-1-0.7-1.6c0.3-0.6,1-0.9,1.6-0.7
	C759.3,122.6,759.6,123.3,759.4,124"/>
<path class="st1" d="M763.5,138.9c-0.3,0-0.6-0.2-0.7-0.5c-0.7-1.8-1.7-3.4-3.1-4.8c-1.9-1.8-4.2-3.1-6.8-3.6
	c-0.4-0.1-0.7-0.5-0.6-0.9c0.1-0.4,0.5-0.7,0.9-0.6c2.9,0.5,5.5,1.9,7.6,4c1.5,1.5,2.7,3.3,3.5,5.3c0.2,0.4-0.1,0.9-0.5,1
	C763.7,138.9,763.6,138.9,763.5,138.9"/>
<path class="st2" d="M750.6,167.7c-13.7,0-24.9-11.2-24.9-24.9c0-13.7,11.2-24.9,24.9-24.9c13.7,0,24.9,11.2,24.9,24.9
	C775.5,156.6,764.3,167.7,750.6,167.7 M750.6,119.5c-12.9,0-23.3,10.5-23.3,23.3s10.5,23.3,23.3,23.3c12.9,0,23.3-10.5,23.3-23.3
	S763.4,119.5,750.6,119.5"/>
<path class="st3" d="M763.2,190.7c0,6.9-5.6,12.6-12.6,12.6c-6.9,0-12.6-5.6-12.6-12.6c0-6.9,5.6-12.6,12.6-12.6
	C757.5,178.1,763.2,183.7,763.2,190.7"/>
<path class="st11" d="M759.3,190.7c0,4.8-3.9,8.8-8.8,8.8c-4.8,0-8.8-3.9-8.8-8.8c0-4.8,3.9-8.8,8.8-8.8
	C755.4,181.9,759.3,185.8,759.3,190.7"/>
<path class="st2" d="M750.6,200.4c-2.6,0-5-1-6.8-2.8c-1.9-1.8-2.9-4.3-2.9-6.9c0-5.3,4.3-9.7,9.7-9.7c2.6,0,5,1,6.8,2.8
	c1.9,1.8,2.9,4.3,2.9,6.9C760.3,196,756,200.4,750.6,200.4 M750.5,181.8c-4.9,0-8.8,4-8.8,8.8c0,2.4,0.9,4.6,2.7,6.3
	c1.7,1.7,3.9,2.6,6.3,2.6c4.9,0,8.8-4,8.8-8.8c0-2.4-0.9-4.6-2.7-6.3C755.1,182.7,752.9,181.8,750.5,181.8"/>
<path class="st1" d="M757.3,188.6c-0.2,0-0.3-0.1-0.4-0.3c-0.3-0.9-0.9-1.8-1.6-2.5c-1-1-2.2-1.6-3.5-1.9c-0.2,0-0.4-0.3-0.3-0.5
	c0-0.2,0.2-0.4,0.5-0.3c1.5,0.3,2.9,1,4,2.1c0.8,0.8,1.4,1.7,1.8,2.8c0.1,0.2,0,0.5-0.2,0.5C757.4,188.6,757.4,188.6,757.3,188.6"/>
<path class="st2" d="M750.6,203.7c-7.2,0-13-5.8-13-13c0-7.2,5.8-13,13-13c7.2,0,13,5.8,13,13C763.6,197.8,757.7,203.7,750.6,203.7
	 M750.6,178.5c-6.7,0-12.2,5.5-12.2,12.2c0,6.7,5.5,12.2,12.2,12.2c6.7,0,12.2-5.5,12.2-12.2C762.7,184,757.3,178.5,750.6,178.5"/>
<path class="st2" d="M910.2,327.5h-26.3c-0.9,0-1.7-0.7-1.7-1.7c0-0.9,0.7-1.7,1.7-1.7h26.3c0.9,0,1.7,0.7,1.7,1.7
	C911.9,326.7,911.1,327.5,910.2,327.5"/>
<path class="st2" d="M630.2,324.1h243.4c0.9,0,1.7,0.7,1.7,1.7c0,0.9-0.7,1.7-1.7,1.7"/>
<path class="st2" d="M873.6,327.5H630.2"/>
<path class="st0" d="M228.3,29.8C162.4,63.2,143.9-11,81.6,10.9c-22,7.7-47.6,29-38.9,82.9c2.9,17.5-2.7,35.6-16,47.5
	c-3,2.7-5.9,5.8-8.4,9.2c-17.3,23.7-13.9,57.3,7.8,77c8.6,7.9,18.9,12.6,29.5,14.4c13.9,2.3,22.2,16.8,16.4,29.6
	c0,0.1-0.1,0.2-0.1,0.3c-24.7,53.7,51.6,84.6,95.1,65.8c37.6-16.3,54.5-19.2,74.9-15.3c64.8,12.3,120.7-39.1,97.7-90.6
	c-24.3-54.4,8.5-99.4,5.1-144.2C339.7,20.4,280.6,3.2,228.3,29.8"/>
<path class="st1" d="M157.1,298.6h-47.9c-0.9,0-1.7-0.7-1.7-1.7c0-0.9,0.7-1.7,1.7-1.7h47.9c0.9,0,1.7,0.7,1.7,1.7
	C158.8,297.8,158,298.6,157.1,298.6"/>
<path class="st1" d="M171.2,310.6h-48.7c-0.9,0-1.7-0.7-1.7-1.7c0-0.9,0.7-1.7,1.7-1.7h48.7c0.9,0,1.7,0.7,1.7,1.7
	C172.9,309.9,172.1,310.6,171.2,310.6"/>
<path class="st1" d="M184.7,298.6H171c-0.9,0-1.7-0.7-1.7-1.7c0-0.9,0.7-1.7,1.7-1.7h13.7c0.9,0,1.7,0.7,1.7,1.7
	C186.4,297.8,185.6,298.6,184.7,298.6"/>
<path class="st1" d="M278.9,305.7L278.9,305.7l-16.5-0.2c-0.9,0-1.7-0.8-1.7-1.7c0-0.9,0.8-1.7,1.7-1.7h0l16.4,0.2
	c0.9,0,1.7,0.8,1.7,1.7C280.6,304.9,279.8,305.7,278.9,305.7"/>
<path class="st1" d="M304,291.8L304,291.8l-33.1-0.3c-0.9,0-1.7-0.8-1.7-1.7c0-0.9,0.7-1.7,1.7-1.7l33.1,0.3c0.9,0,1.7,0.8,1.7,1.7
	C305.6,291.1,304.9,291.8,304,291.8"/>
<path class="st1" d="M128.1,47h-28c-0.9,0-1.7-0.7-1.7-1.7c0-0.9,0.7-1.7,1.7-1.7h28c0.9,0,1.7,0.7,1.7,1.7
	C129.8,46.2,129,47,128.1,47"/>
<path class="st1" d="M130.4,72.1h-14.2c-0.9,0-1.7-0.7-1.7-1.7c0-0.9,0.7-1.7,1.7-1.7h14.2c0.9,0,1.7,0.7,1.7,1.7
	C132.1,71.3,131.3,72.1,130.4,72.1"/>
<path class="st1" d="M153.6,59.6H89.2c-0.9,0-1.7-0.7-1.7-1.7c0-0.9,0.7-1.7,1.7-1.7h64.4c0.9,0,1.7,0.7,1.7,1.7
	C155.3,58.9,154.5,59.6,153.6,59.6"/>
<path class="st1" d="M150.7,47h-7c-0.9,0-1.7-0.7-1.7-1.7c0-0.9,0.7-1.7,1.7-1.7h7c0.9,0,1.7,0.7,1.7,1.7
	C152.4,46.2,151.7,47,150.7,47"/>
<path class="st12" d="M304.4,259.7H66.7c-3.6,0-6.5-2.9-6.5-6.5V96.2c0-3.6,2.9-6.5,6.5-6.5h237.7c3.6,0,6.5,2.9,6.5,6.5v157.1
	C310.9,256.8,308,259.7,304.4,259.7"/>
<path class="st1" d="M293,241.4H78c-3.1,0-5.5-2.5-5.5-5.5V109.8c0-3.1,2.5-5.5,5.5-5.5h215c3.1,0,5.5,2.5,5.5,5.5v126.1
	C298.6,238.9,296.1,241.4,293,241.4"/>
<path class="st5" d="M72.5,121.4h226.1v-11.6c0-3.1-2.5-5.5-5.5-5.5H78c-3.1,0-5.5,2.5-5.5,5.5V121.4z"/>
<path class="st2" d="M85.8,112.8c0,1.7-1.4,3-3,3c-1.7,0-3-1.3-3-3c0-1.6,1.4-3,3-3C84.4,109.8,85.8,111.2,85.8,112.8"/>
<path class="st2" d="M95.8,112.8c0,1.7-1.4,3-3,3c-1.7,0-3-1.3-3-3c0-1.6,1.4-3,3-3C94.4,109.8,95.8,111.2,95.8,112.8"/>
<path class="st2" d="M105.8,112.8c0,1.7-1.4,3-3,3c-1.7,0-3-1.3-3-3c0-1.6,1.4-3,3-3C104.4,109.8,105.8,111.2,105.8,112.8"/>
<path class="st2" d="M304.4,261.4H66.7c-4.5,0-8.2-3.7-8.2-8.2V96.2c0-4.5,3.7-8.2,8.2-8.2h237.7c4.5,0,8.2,3.7,8.2,8.2v157.1
	C312.6,257.8,308.9,261.4,304.4,261.4 M66.7,91.4c-2.6,0-4.8,2.1-4.8,4.8v157.1c0,2.6,2.1,4.8,4.8,4.8h237.7c2.6,0,4.8-2.1,4.8-4.8
	V96.2c0-2.6-2.1-4.8-4.8-4.8H66.7z"/>
<path class="st2" d="M188.3,97.8c0,1.5-1.2,2.8-2.8,2.8c-1.5,0-2.8-1.2-2.8-2.8c0-1.5,1.2-2.8,2.8-2.8
	C187.1,95.1,188.3,96.3,188.3,97.8"/>
<g>
	<defs>
		<path id="SVGID_1_" d="M78,104.2c-3.1,0-5.5,2.5-5.5,5.5v126.1c0,3.1,2.5,5.5,5.5,5.5h215c3.1,0,5.5-2.5,5.5-5.5V109.8
			c0-3.1-2.5-5.5-5.5-5.5H78z"/>
	</defs>
	<clipPath id="SVGID_2_">
		<use xlink:href="#SVGID_1_"  style="overflow:visible;"/>
	</clipPath>
	<path class="st13" d="M205.9,254.9L205.9,254.9c-7.5,2.4-15.6-1.8-18-9.3l-28.4-89.7c-2.4-7.5,1.8-15.6,9.3-18
		c7.5-2.4,15.6,1.8,18,9.3l28.4,89.7C217.7,244.5,213.5,252.5,205.9,254.9"/>
	<path class="st14" d="M171.1,137.4c4.6,1.2,8.5,4.7,10,9.5l28.4,89.7c2.4,7.5-1.8,15.6-9.3,18c-0.7,0.2-1.5,0.4-2.2,0.5
		c2.5,0.7,5.3,0.7,8-0.2c7.5-2.4,11.7-10.4,9.3-18l-28.4-89.7C184.7,140.5,177.9,136.4,171.1,137.4"/>
	<path class="st15" d="M201.6,257.1c-2.5,0-5-0.6-7.3-1.8c-3.8-1.9-6.5-5.2-7.8-9.3l-28.4-89.7c-2.6-8.3,2-17.2,10.3-19.9
		c4-1.3,8.3-0.9,12.1,1c3.8,1.9,6.5,5.2,7.8,9.3l28.4,89.6c2.6,8.3-2,17.2-10.3,19.9C204.8,256.8,203.2,257.1,201.6,257.1
		 M173.2,138.7c-1.3,0-2.6,0.2-3.9,0.6c-6.7,2.1-10.5,9.4-8.4,16.1l28.4,89.6c1,3.3,3.3,5.9,6.3,7.5c3,1.6,6.5,1.9,9.8,0.8
		c6.7-2.1,10.5-9.4,8.4-16.1l-28.4-89.7c-1-3.3-3.3-5.9-6.3-7.5C177.2,139.2,175.2,138.7,173.2,138.7"/>
	<path class="st16" d="M186.8,221.3c-0.6,0-1.2-0.4-1.4-1l-22.5-71c-0.3-0.8,0.2-1.6,1-1.9c0.8-0.3,1.6,0.2,1.9,1l22.5,71
		c0.3,0.8-0.2,1.6-1,1.9C187.1,221.3,186.9,221.3,186.8,221.3"/>
	<path class="st16" d="M192.7,239.9c-0.6,0-1.2-0.4-1.4-1l-3.5-11c-0.3-0.8,0.2-1.6,1-1.9c0.8-0.2,1.6,0.2,1.9,1l3.5,11
		c0.3,0.8-0.2,1.6-1,1.9C193,239.9,192.8,239.9,192.7,239.9"/>
</g>
<path class="st2" d="M293,242.2H78c-3.5,0-6.4-2.9-6.4-6.4V109.8c0-3.5,2.9-6.4,6.4-6.4h215c3.5,0,6.4,2.9,6.4,6.4v126.1
	C299.4,239.4,296.5,242.2,293,242.2 M78,105.1c-2.6,0-4.7,2.1-4.7,4.7v126.1c0,2.6,2.1,4.7,4.7,4.7h215c2.6,0,4.7-2.1,4.7-4.7V109.8
	c0-2.6-2.1-4.7-4.7-4.7H78z"/>
<path class="st12" d="M320.5,251.3H206.6c-1.6,0-2.9,1.3-2.9,2.9c0,1.8-1.3,3.3-2.9,3.3h-30.4c-1.6,0-2.9-1.5-2.9-3.3
	c0-1.6-1.3-2.9-2.9-2.9H50.6c-1.3,0-2.4,1.1-2.4,2.4v2.2c0,6.8,5.5,12.3,12.3,12.3h250c6.8,0,12.3-5.5,12.3-12.3v-2.2
	C322.8,252.3,321.8,251.3,320.5,251.3"/>
<path class="st17" d="M310.1,262H50.7c-0.3,0-0.6,0-0.8,0c2.1,3.7,6.1,6.2,10.7,6.2h250c6.8,0,12.3-5.5,12.3-12.3v-2.2
	c0-0.5-0.1-0.9-0.4-1.3C321.1,257.9,316.1,262,310.1,262"/>
<path class="st2" d="M310.5,269.9h-250c-7.7,0-14-6.3-14-14v-2.2c0-2.2,1.8-4.1,4.1-4.1h113.9c2.5,0,4.6,2.1,4.6,4.6
	c0,0.8,0.5,1.6,1.2,1.6h30.4c0.6,0,1.2-0.7,1.2-1.6c0-2.5,2.1-4.6,4.6-4.6h113.9c2.2,0,4.1,1.8,4.1,4.1v2.2
	C324.5,263.6,318.3,269.9,310.5,269.9 M50.6,253c-0.4,0-0.7,0.3-0.7,0.7v2.2c0,5.8,4.8,10.6,10.6,10.6h250c5.8,0,10.6-4.8,10.6-10.6
	v-2.2c0-0.4-0.3-0.7-0.7-0.7H206.6c-0.7,0-1.2,0.5-1.2,1.2c0,2.7-2.1,5-4.6,5h-30.4c-2.5,0-4.6-2.2-4.6-5c0-0.7-0.5-1.2-1.2-1.2
	H50.6z"/>
<path class="st2" d="M298.6,122.3H72.5c-0.5,0-0.8-0.4-0.8-0.8c0-0.5,0.4-0.8,0.8-0.8h226.1c0.5,0,0.8,0.4,0.8,0.8
	C299.4,121.9,299,122.3,298.6,122.3"/>
<path class="st9" d="M154.1,188.4L154.1,188.4c-5.6,2.5-12.1-0.1-14.6-5.6l-5-11.3c-2.4-5.5,0.1-12.1,5.6-14.5l0.1,0
	c5.5-2.4,12.1,0.1,14.5,5.6l5,11.3C162.2,179.4,159.6,186,154.1,188.4"/>
<path class="st2" d="M149.6,190.9c-4.8,0-9.4-2.8-11.5-7.5l-5-11.3c-2.8-6.3,0.1-13.7,6.4-16.5c6.4-2.8,13.8,0.1,16.6,6.4l5,11.3
	c2.8,6.3-0.1,13.7-6.4,16.5l-0.1,0C153,190.5,151.3,190.9,149.6,190.9 M153.4,187.1l0.7,1.3L153.4,187.1c4.9-2.1,7-7.8,4.9-12.6
	l-5-11.3c-2.1-4.8-7.7-7-12.5-4.9c-4.9,2.1-7,7.8-4.9,12.6l5,11.3c1,2.3,2.9,4.1,5.3,5C148.5,188.1,151.1,188.1,153.4,187.1"/>
<path class="st18" d="M300.7,184.9l-21.3-1.4c-29-2-58.1-0.6-86.8,4l-16.4,2.7l-18.8-49.9l14-8.8c24.6-15.5,47.4-33.7,67.8-54.3
	l15-15.2L300.7,184.9z"/>
<path class="st19" d="M254.3,62l-15,15.2c-1.9,2-3.9,3.9-5.9,5.8c0.5,14.5,4.4,32.6,11.5,51.5c7.6,20.3,17.6,37.4,27.4,48.7
	c2.4,0.1,4.8,0.2,7.2,0.4l21.3,1.4L254.3,62z"/>
<path class="st20" d="M300.7,184.9l-2.4-6.4c-8.2-7.6-15.6-13.6-18.1-13.2c-6.5,1.2-72.3,10.1-97.1,15.4c-3.6,0.8-6.9,1.3-9.9,1.7
	l2.9,7.8l16.4-2.7c28.7-4.6,57.8-6,86.8-4L300.7,184.9z"/>
<path class="st19" d="M176.4,170.6l-5.9-15.7c-3.2-8.5-1.8-17.6,2.9-24.7c-0.6,0.4-1.3,0.8-1.9,1.2l-14.9,8.2
	c-10.6,4-16,15.8-12,26.5l5,13.2c4,10.6,15.8,16,26.5,12l16.6-3.7c0.7-0.1,1.5-0.2,2.2-0.3C186.7,185.1,179.6,179.1,176.4,170.6"/>
<path class="st7" d="M183.2,180.7c-17.2,3.7-27.6,2.2-32.4,0.9c4.8,9,15.6,13.2,25.3,9.6l16.6-3.7c0.7-0.1,1.5-0.2,2.2-0.3
	C190.5,186.1,186.5,183.8,183.2,180.7"/>
<path class="st2" d="M168.8,194c-8.9,0-17.3-5.4-20.6-14.3l-5-13.2c-4.3-11.3,1.4-24,12.7-28.3l14.8-8.1c0.3-0.2,0.6-0.4,0.9-0.6
	l0.9-0.6c23.8-15.1,45.9-32.9,65.7-52.9l16.7-16.8l48,127.3l-23.6-1.6c-28.8-2-57.9-0.6-86.4,4l-16.4,3.6
	C174,193.6,171.4,194,168.8,194 M253.7,64.7l-13.4,13.5c-19.9,20.1-42.2,38-66.2,53.3l-0.9,0.6c-0.3,0.2-0.7,0.5-1,0.7l-15.1,8.3
	c-9.8,3.7-14.8,14.7-11.1,24.5l5,13.2c3.7,9.8,14.7,14.8,24.5,11.1l0.2-0.1l16.6-3.7c28.8-4.7,58.2-6,87.2-4.1l18.9,1.3L253.7,64.7z
	"/>
<path class="st7" d="M261.4,168.2c3.3,5.6,6.7,10.6,9.9,14.9c2.7,0.1,5.5,0.3,8.2,0.5l21.3,1.4l-2.4-6.4
	c-8.2-7.6-15.6-13.6-18.1-13.2C278.3,165.7,271.1,166.8,261.4,168.2"/>
<path class="st9" d="M305.2,113c13.2,34.9,13.6,67.1,0.9,71.9c-12.7,4.8-33.7-19.6-46.9-54.6c-13.2-34.9-13.6-67.1-0.9-71.9
	C271,53.7,292,78.1,305.2,113"/>
<path class="st4" d="M258.3,58.5c-4,1.5-6.7,5.7-8.1,11.8c1.2-1.4,2.5-2.4,4.1-3C267,62.6,288,87,301.1,121.9c9,24,12.1,46.6,9,60.1
	c8.3-9.8,6.6-38.3-4.9-68.9C292,78.1,271,53.7,258.3,58.5"/>
<path class="st20" d="M277.7,119.3c-4.5-10.4-15.7-15.6-24.9-11.4c-0.4,0.2-0.8,0.4-1.1,0.6c1.7,6.8,4.1,14.2,7.5,22
	c2.5,5.9,5.3,11.2,8.1,16c0.6-0.2,1.3-0.4,1.9-0.7C278.3,141.6,282.2,129.8,277.7,119.3"/>
<path class="st18" d="M265.8,142.6c9.3-4.1,13.1-16,8.6-26.4c-0.9-2.1-2.1-4-3.5-5.7c-5.3-4.1-12.1-5.3-18.2-2.6
	c-0.4,0.2-0.8,0.4-1.1,0.6c1.7,6.8,4.1,14.2,7.5,22c1.9,4.5,4,8.6,6.1,12.5C265.4,142.8,265.6,142.7,265.8,142.6"/>
<path class="st2" d="M302.6,187c-6.1,0-13.4-4.7-21-13.5c-9-10.4-17.4-25.6-23.9-42.6c-6.4-17-10.1-34-10.2-47.8
	c-0.2-14.3,3.5-23.5,10.3-26.1c6.8-2.6,15.6,2,24.9,12.8c9,10.4,17.4,25.6,23.9,42.6c13.7,36.2,13.7,68.7,0,73.8
	C305.3,186.8,304,187,302.6,187 M261.6,59.4c-1,0-1.9,0.2-2.8,0.5c-5.4,2.1-8.5,10.5-8.3,23.2c0.2,13.4,3.7,30,10,46.7
	c6.3,16.7,14.6,31.5,23.3,41.7c8.3,9.6,16.2,14,21.6,12c11.7-4.4,10.9-36.5-1.7-70c-6.3-16.7-14.6-31.5-23.3-41.7
	C273.5,63.8,266.8,59.4,261.6,59.4"/>
<path class="st1" d="M256.7,149.5c-0.6,0-1.1-0.3-1.4-0.8c-2.3-4.8-4.5-9.9-6.5-15.1c-6.7-17.9-10.4-35.5-10.2-49.5
	c0-0.8,0.7-1.4,1.5-1.5c0.8,0,1.5,0.7,1.5,1.5c-0.1,13.5,3.5,31.2,10,48.4c1.9,5.1,4.1,10.1,6.4,14.9c0.4,0.7,0,1.6-0.7,2
	C257.2,149.5,256.9,149.5,256.7,149.5"/>
<path class="st1" d="M265.4,165.1c-0.5,0-1-0.2-1.3-0.7c-1.9-2.9-3.7-6.1-5.5-9.3c-0.4-0.7-0.1-1.6,0.6-2c0.7-0.4,1.6-0.1,2,0.6
	c1.7,3.2,3.5,6.3,5.4,9.1c0.4,0.7,0.2,1.6-0.5,2.1C265.9,165,265.6,165.1,265.4,165.1"/>
<path class="st2" d="M151.3,159.8c-0.3,0-0.6-0.2-0.7-0.5c-0.1-0.4,0.1-0.8,0.4-1l10.3-3.9c0.4-0.1,0.8,0.1,1,0.4
	c0.1,0.4-0.1,0.8-0.4,1l-10.3,3.9C151.5,159.8,151.4,159.8,151.3,159.8"/>
<path class="st2" d="M155.1,169.7c-0.3,0-0.6-0.2-0.7-0.5c-0.1-0.4,0-0.8,0.4-1l10.3-3.9c0.4-0.1,0.8,0.1,1,0.4
	c0.1,0.4-0.1,0.8-0.4,1l-10.3,3.9C155.2,169.7,155.1,169.7,155.1,169.7"/>
<path class="st2" d="M158.8,179.6c-0.3,0-0.6-0.2-0.7-0.5c-0.1-0.4,0.1-0.8,0.4-1l10.3-3.9c0.4-0.1,0.8,0.1,1,0.4
	c0.1,0.4-0.1,0.8-0.4,1l-10.3,3.9C159,179.6,158.9,179.6,158.8,179.6"/>
</svg>
