<?xml version="1.0" encoding="utf-8"?>
<!-- Generator: Adobe Illustrator 22.0.1, SVG Export Plug-In . SVG Version: 6.00 Build 0)  -->
<svg version="1.1" id="Layer_1" xmlns="http://www.w3.org/2000/svg" xmlns:xlink="http://www.w3.org/1999/xlink" x="0px" y="0px"
	 viewBox="0 0 200 200" style="enable-background:new 0 0 200 200;" xml:space="preserve">
<style type="text/css">
	.st0{fill:#102E46;}
	.st1{fill:#4169EA;}
</style>
<path class="st0" d="M104.1,43.7c-15.7,0-30.4,6.1-41.4,17.2c-22.9,22.9-22.9,60,0,82.9c11.1,11.1,25.8,17.2,41.4,17.2
	s30.4-6.1,41.4-17.2l0,0c22.9-22.9,22.9-60,0-82.9C134.4,49.8,119.7,43.7,104.1,43.7L104.1,43.7z M104.1,165.7
	c-16.9,0-32.9-6.6-44.9-18.6c-24.7-24.7-24.7-65,0-89.7c12-12,27.9-18.6,44.9-18.6S137,45.4,149,57.4c24.7,24.7,24.7,65,0,89.7l0,0
	C136.9,159.1,121,165.7,104.1,165.7L104.1,165.7z"/>
<path class="st0" d="M104.1,28.5c-19.7,0-38.3,7.7-52.2,21.6c-14,13.9-21.6,32.5-21.6,52.2s7.7,38.3,21.6,52.2s32.5,21.6,52.2,21.6
	s38.3-7.7,52.2-21.6c13.9-13.9,21.6-32.5,21.6-52.2s-7.7-38.3-21.6-52.2S123.8,28.5,104.1,28.5L104.1,28.5z M104.1,180.9
	c-21,0-40.7-8.2-55.6-23c-30.7-30.7-30.7-80.5,0-111.2c14.9-14.9,34.6-23,55.6-23s40.7,8.2,55.6,23c30.7,30.7,30.7,80.5,0,111.2
	l-1.7-1.7l1.7,1.7C144.8,172.7,125.1,180.9,104.1,180.9L104.1,180.9z"/>
<path class="st1" d="M168,168.6c-0.6,0-1.2-0.2-1.7-0.7c-0.9-0.9-0.9-2.5,0-3.4s2.5-1,3.4,0c0.9,0.9,1,2.5,0,3.4l0,0
	C169.2,168.4,168.6,168.6,168,168.6L168,168.6z"/>
<path class="st1" d="M160.8,175.1c-0.7,0-1.4-0.3-1.9-0.9c-0.8-1.1-0.6-2.6,0.4-3.4c1-0.8,2.5-0.7,3.4,0.3c0.8,1,0.7,2.5-0.3,3.4
	l-0.1,0.1C161.8,174.9,161.3,175.1,160.8,175.1L160.8,175.1z M153,180.7c-0.8,0-1.6-0.4-2-1.1c-0.7-1.1-0.4-2.6,0.7-3.3
	c0,0,0.1,0,0.1-0.1c1.1-0.7,2.6-0.4,3.3,0.7c0.7,1.1,0.4,2.6-0.7,3.3l-1.3-2l1.3,2C153.9,180.6,153.4,180.7,153,180.7L153,180.7z
	 M144.6,185.5c-0.9,0-1.8-0.5-2.2-1.4c-0.6-1.2-0.1-2.6,1.1-3.2c1.2-0.6,2.6-0.1,3.2,1c0.6,1.2,0.1,2.6-1,3.2c0,0-0.1,0-0.1,0.1
	C145.3,185.4,145,185.5,144.6,185.5L144.6,185.5z M70,188.4c-0.3,0-0.6-0.1-0.9-0.2L70,186l-0.9,2.2c-1.2-0.5-1.8-1.9-1.3-3.1
	c0.5-1.2,1.9-1.8,3.1-1.4H71c1.2,0.5,1.8,1.9,1.3,3.2C71.8,187.9,70.9,188.4,70,188.4L70,188.4z M135.8,189.3c-1,0-1.9-0.6-2.2-1.5
	c-0.5-1.2,0.1-2.6,1.4-3.1h0.1c1.2-0.5,2.6,0.2,3.1,1.4s-0.2,2.6-1.4,3.1l-0.8-2.3l0.8,2.3C136.4,189.3,136.1,189.3,135.8,189.3
	L135.8,189.3z M79.1,191.6c-0.2,0-0.4,0-0.7-0.1l0.7-2.3l-0.7,2.3c-1.3-0.4-2-1.7-1.7-3c0.4-1.3,1.7-2,3-1.7h0.1
	c1.3,0.4,2,1.7,1.6,3C81.1,190.9,80.1,191.6,79.1,191.6L79.1,191.6z M126.6,192.2c-1.1,0-2.1-0.7-2.3-1.8c-0.3-1.3,0.4-2.6,1.7-2.9
	c1.3-0.3,2.6,0.4,3,1.7c0.3,1.3-0.4,2.6-1.7,2.9h-0.1C127,192.2,126.8,192.2,126.6,192.2L126.6,192.2z M88.4,193.7
	c-0.1,0-0.3,0-0.4,0l0.4-2.4l-0.4,2.4c-1.3-0.2-2.2-1.5-2-2.8s1.4-2.2,2.8-2h0.1c1.3,0.2,2.2,1.5,1.9,2.8
	C90.6,192.9,89.6,193.7,88.4,193.7L88.4,193.7z M117.2,194.1c-1.2,0-2.2-0.9-2.4-2.1c-0.2-1.3,0.7-2.5,2.1-2.7
	c1.3-0.2,2.6,0.7,2.7,2c0.2,1.3-0.7,2.5-2,2.7h-0.1C117.4,194.1,117.3,194.1,117.2,194.1L117.2,194.1z M98,194.9c-0.1,0-0.1,0-0.2,0
	l0.2-2.4l-0.2,2.4c-1.3-0.1-2.3-1.2-2.3-2.6c0.1-1.3,1.2-2.3,2.5-2.3h0.1c1.3,0.1,2.3,1.3,2.2,2.6C100.3,193.9,99.3,194.9,98,194.9
	L98,194.9z M107.6,195c-1.3,0-2.4-1-2.4-2.3s1-2.4,2.3-2.5c1.4,0,2.5,1,2.5,2.3S109.1,194.9,107.6,195
	C107.7,195,107.7,195,107.6,195L107.6,195L107.6,195z"/>
<path class="st1" d="M61.2,184.3c-0.4,0-0.8-0.1-1.1-0.3l0,0c-1.2-0.6-1.6-2-1-3.2s2-1.7,3.2-1.1h0.1c1.2,0.6,1.6,2.1,1,3.3
	C62.9,183.9,62.1,184.3,61.2,184.3L61.2,184.3z"/>
<path class="st1" d="M40.2,40.8c-0.6,0-1.2-0.2-1.7-0.7c-0.9-0.9-1-2.5,0-3.4l0,0c0.9-0.9,2.5-0.9,3.4,0s0.9,2.5,0,3.4
	C41.4,40.5,40.8,40.8,40.2,40.8L40.2,40.8z"/>
<path class="st1" d="M99.3,14.4c-1.3,0-2.3-1-2.4-2.3s1-2.5,2.3-2.5l0.1,2.4l-0.1-2.4c1.3-0.1,2.5,0.9,2.5,2.3
	C101.8,13.2,100.8,14.4,99.3,14.4L99.3,14.4C99.4,14.4,99.3,14.4,99.3,14.4L99.3,14.4z M108.8,14.4L108.8,14.4h-0.2
	c-1.3-0.1-2.3-1.2-2.3-2.6c0.1-1.3,1.2-2.3,2.6-2.3l-0.1,2.4l0.2-2.4c1.3,0.1,2.4,1.2,2.3,2.5C111.1,13.4,110.1,14.4,108.8,14.4
	L108.8,14.4z M89.9,15.4c-1.2,0-2.2-0.9-2.4-2c-0.2-1.3,0.7-2.5,2-2.7l0.4,2.4l-0.3-2.4c1.3-0.2,2.6,0.7,2.8,2
	c0.2,1.3-0.7,2.5-2,2.8h-0.1C90.1,15.4,90,15.4,89.9,15.4L89.9,15.4z M118.2,15.5c-0.1,0-0.3,0-0.4,0c-1.3-0.2-2.2-1.5-2-2.8
	s1.4-2.2,2.7-2h0.1c1.3,0.2,2.2,1.5,2,2.8C120.4,14.6,119.4,15.5,118.2,15.5L118.2,15.5z M80.6,17.3c-1.1,0-2-0.7-2.3-1.8
	c-0.3-1.3,0.4-2.6,1.7-2.9l0.6,2.3L80,12.6c1.3-0.4,2.6,0.4,3,1.7s-0.4,2.6-1.7,3h-0.1C81,17.3,80.8,17.3,80.6,17.3L80.6,17.3z
	 M127.5,17.4c-0.2,0-0.4,0-0.6-0.1c-1.3-0.3-2.1-1.7-1.7-3c0.3-1.3,1.6-2.1,2.9-1.7h0.1c1.3,0.3,2.1,1.7,1.7,2.9
	S128.5,17.4,127.5,17.4L127.5,17.4z M71.7,20.3c-1,0-1.9-0.6-2.3-1.5c-0.5-1.2,0.1-2.6,1.4-3.1h0.1c1.2-0.5,2.6,0.1,3.1,1.4
	c0.5,1.2-0.1,2.6-1.4,3.1C72.3,20.2,72,20.3,71.7,20.3L71.7,20.3z M136.5,20.3c-0.3,0-0.6,0-0.8-0.2h-0.1c-1.2-0.5-1.9-1.9-1.4-3.1
	s1.9-1.9,3.1-1.4l-0.9,2.2l0.9-2.2c1.2,0.5,1.9,1.9,1.4,3.1C138.4,19.7,137.4,20.3,136.5,20.3L136.5,20.3z M63,24.1
	c-0.9,0-1.7-0.5-2.2-1.3c-0.6-1.2-0.1-2.6,1.1-3.2l1.1,2.2l-1.1-2.2c1.2-0.6,2.6-0.1,3.2,1c0.6,1.2,0.2,2.6-1,3.2c0,0-0.1,0-0.1,0.1
	C63.7,24,63.4,24.1,63,24.1L63,24.1z M145.1,24.2c-0.4,0-0.8-0.1-1.1-0.3c-1.2-0.6-1.7-2.1-1.1-3.2c0.6-1.2,2-1.7,3.2-1.1h0.1
	c1.2,0.6,1.6,2.1,1,3.2C146.8,23.7,146,24.2,145.1,24.2L145.1,24.2z M54.8,28.9c-0.8,0-1.6-0.4-2-1.1c-0.7-1.1-0.5-2.6,0.7-3.3l0,0
	c1.1-0.7,2.6-0.4,3.3,0.7s0.4,2.6-0.7,3.3C55.8,28.7,55.3,28.9,54.8,28.9L54.8,28.9z M153.3,28.9c-0.4,0-0.9-0.1-1.3-0.4
	c-1.1-0.7-1.5-2.2-0.7-3.3c0.7-1.1,2.2-1.5,3.3-0.7l0,0c1.1,0.7,1.4,2.2,0.7,3.3C154.9,28.5,154.1,28.9,153.3,28.9L153.3,28.9z
	 M47.2,34.4c-0.7,0-1.4-0.3-1.9-0.9c-0.8-1-0.7-2.5,0.3-3.4l0,0c1-0.8,2.6-0.7,3.4,0.4c0.8,1,0.7,2.6-0.4,3.4
	C48.3,34.2,47.7,34.4,47.2,34.4L47.2,34.4z M161,34.4c-0.5,0-1.1-0.2-1.5-0.5c-1-0.8-1.2-2.4-0.4-3.4s2.3-1.2,3.4-0.4h0.1
	c1,0.8,1.2,2.4,0.3,3.4C162.3,34.1,161.6,34.4,161,34.4L161,34.4z"/>
<path class="st0" d="M40.7,148.8l-15.1,15c-2.2,2.2-3.5,5.2-3.5,8.4s1.2,6.2,3.5,8.4c2.2,2.2,5.2,3.5,8.4,3.5s6.2-1.2,8.4-3.5
	l15.1-15.1c-3.2-2.4-6.2-5-9-7.8l0,0C45.7,155.1,43.1,152,40.7,148.8L40.7,148.8z M34,189c-4.5,0-8.7-1.7-11.8-4.9
	c-3.2-3.2-4.9-7.3-4.9-11.8s1.7-8.7,4.9-11.8l17.1-17.1c0.5-0.5,1.2-0.8,1.9-0.7s1.4,0.4,1.8,1c2.6,3.8,5.6,7.4,8.9,10.7
	s6.9,6.3,10.7,8.9c0.6,0.4,1,1.1,1,1.8c0.1,0.7-0.2,1.4-0.7,1.9l-17.1,17.1C42.7,187.3,38.5,189,34,189L34,189z"/>
<path class="st1" d="M104.6,82.1c-5.5,0-10,4.5-10,10v3c0,5.5,4.5,10,10,10s10-4.5,10-10v-3C114.6,86.6,110.1,82.1,104.6,82.1
	L104.6,82.1z M104.6,109.3c-7.8,0-14.2-6.4-14.2-14.2v-3c0-7.8,6.4-14.2,14.2-14.2s14.2,6.4,14.2,14.2v3
	C118.8,102.9,112.4,109.3,104.6,109.3L104.6,109.3z"/>
<path class="st1" d="M73.8,80.7c-4.7,0-8.5,3.8-8.5,8.5v2.6c0,4.7,3.8,8.5,8.5,8.5s8.5-3.8,8.5-8.5v-2.6
	C82.3,84.5,78.5,80.7,73.8,80.7L73.8,80.7z M73.8,104.5c-7,0-12.7-5.7-12.7-12.7v-2.6c0-7,5.7-12.6,12.7-12.6s12.6,5.7,12.6,12.6
	v2.6C86.5,98.8,80.8,104.5,73.8,104.5L73.8,104.5z"/>
<path class="st1" d="M135.4,80.7c-4.7,0-8.5,3.8-8.5,8.5v2.6c0,4.7,3.8,8.5,8.5,8.5s8.5-3.8,8.5-8.5v-2.6
	C143.8,84.5,140,80.7,135.4,80.7L135.4,80.7z M135.4,104.5c-7,0-12.7-5.7-12.7-12.7v-2.6c0-7,5.7-12.6,12.7-12.6s12.7,5.7,12.7,12.6
	v2.6C148,98.8,142.4,104.5,135.4,104.5L135.4,104.5z"/>
<path class="st1" d="M122.7,133.7c-1.2,0-2.1-0.9-2.1-2.1v-14c0-1.1-0.5-2.1-1.3-2.8c-2.5-2.1-7.6-5.5-14.7-5.5s-12.2,3.4-14.7,5.5
	c-0.8,0.7-1.3,1.7-1.3,2.8v14c0,1.2-0.9,2.1-2.1,2.1s-2.1-0.9-2.1-2.1v-14c0-2.3,1-4.5,2.8-6c2.9-2.4,9-6.5,17.4-6.5
	s14.5,4.1,17.4,6.5c1.8,1.5,2.8,3.7,2.8,6v14C124.8,132.8,123.8,133.7,122.7,133.7L122.7,133.7z"/>
<path class="st1" d="M151.2,125.8c-1.2,0-2.1-0.9-2.1-2.1v-12.2c0-0.9-0.4-1.7-1.1-2.3c-2.1-1.8-6.6-4.7-12.7-4.7
	c-6.1,0-10.6,3-12.7,4.7c-0.6,0.5-1,1.3-1,2.1c0.1,0.1,0.2,0.2,0.3,0.3c1.8,1.5,2.8,3.7,2.8,6v6.1c0,1.2-0.9,2.1-2.1,2.1
	s-2.1-0.9-2.1-2.1v-6.1c0-1.1-0.5-2.1-1.3-2.8c-0.3-0.3-0.6-0.5-1-0.8c-0.5-0.4-0.8-1-0.8-1.7v-0.8c0-2.1,0.9-4.1,2.6-5.5
	c2.6-2.1,7.9-5.7,15.4-5.7c7.4,0,12.8,3.6,15.4,5.7c1.6,1.4,2.6,3.4,2.6,5.5v12.2C153.3,124.9,152.4,125.8,151.2,125.8L151.2,125.8z
	"/>
<path class="st1" d="M86.5,125.8c-1.2,0-2.1-0.9-2.1-2.1v-6.1c0-2.3,1-4.5,2.8-6c0.1-0.1,0.2-0.2,0.3-0.3c-0.1-0.8-0.4-1.6-1-2.1
	c-2.1-1.8-6.6-4.7-12.7-4.7s-10.6,3-12.7,4.7c-0.7,0.6-1.1,1.4-1.1,2.3v12.2c0,1.2-0.9,2.1-2.1,2.1c-1.2,0-2.1-0.9-2.1-2.1v-12.2
	c0-2.1,0.9-4.1,2.6-5.5c2.6-2.1,7.9-5.7,15.4-5.7c7.4,0,12.8,3.6,15.4,5.7c1.6,1.4,2.6,3.4,2.6,5.5v0.8c0,0.7-0.3,1.3-0.8,1.7
	c-0.4,0.3-0.7,0.5-1,0.8c-0.8,0.7-1.3,1.7-1.3,2.8v6.1C88.6,124.9,87.6,125.8,86.5,125.8L86.5,125.8z"/>
</svg>
