<?xml version="1.0" encoding="utf-8"?>
<!-- Generator: Adobe Illustrator 22.0.1, SVG Export Plug-In . SVG Version: 6.00 Build 0)  -->
<svg version="1.1" id="Layer_1" xmlns="http://www.w3.org/2000/svg" xmlns:xlink="http://www.w3.org/1999/xlink" x="0px" y="0px"
	 viewBox="0 0 200 200" style="enable-background:new 0 0 200 200;" xml:space="preserve">
<style type="text/css">
	.st0{fill:#102E46;}
	.st1{fill:#4169EA;}
</style>
<path class="st0" d="M104.6,45L104.6,45h-0.2c-1.3-0.1-2.2-1.2-2.1-2.5s1.2-2.2,2.5-2.1l-0.2,2.3l0.2-2.3c1.3,0.1,2.2,1.2,2.1,2.5
	C106.8,44,105.8,45,104.6,45L104.6,45z M95.3,45c-1.2,0-2.2-0.9-2.3-2.1c-0.1-1.3,0.8-2.4,2.1-2.5h0.1c1.3-0.1,2.4,0.8,2.5,2.1
	s-0.8,2.4-2.1,2.5C95.4,45,95.4,45,95.3,45L95.3,45z M113.8,46.5c-0.2,0-0.4,0-0.6-0.1c-1.2-0.3-2-1.6-1.7-2.8s1.6-2,2.8-1.7h0.1
	c1.2,0.3,2,1.6,1.6,2.9C115.8,45.8,114.9,46.5,113.8,46.5L113.8,46.5z M86,46.5c-1,0-2-0.7-2.3-1.8c-0.3-1.2,0.5-2.5,1.7-2.8
	l0.5,2.3l-0.5-2.3c1.2-0.3,2.5,0.4,2.8,1.7c0.3,1.2-0.4,2.5-1.6,2.8h-0.1C86.4,46.5,86.2,46.5,86,46.5L86,46.5z M122.7,49.5
	c-0.3,0-0.6-0.1-0.9-0.2l-0.1-0.1c-1.2-0.5-1.7-1.9-1.2-3.1c0.5-1.2,1.9-1.7,3.1-1.2l-1,2.1l1-2.1c1.2,0.5,1.7,1.8,1.3,3
	C124.5,49,123.6,49.5,122.7,49.5L122.7,49.5z M77.2,49.6c-0.9,0-1.7-0.5-2.1-1.4c-0.5-1.2,0-2.5,1.2-3.1h0.1c1.2-0.5,2.5,0.1,3,1.2
	c0.5,1.2-0.1,2.5-1.2,3C77.8,49.5,77.5,49.6,77.2,49.6L77.2,49.6z M130.9,54c-0.4,0-0.9-0.1-1.3-0.4h-0.1c-1.1-0.7-1.4-2.1-0.7-3.2
	c0.7-1.1,2.1-1.4,3.2-0.7l0,0c1.1,0.7,1.4,2.1,0.7,3.2C132.4,53.6,131.6,54,130.9,54L130.9,54z M69,54.1c-0.7,0-1.5-0.4-1.9-1
	c-0.7-1.1-0.4-2.5,0.6-3.2l0.1-0.1c1.1-0.7,2.5-0.3,3.2,0.7c0.7,1.1,0.3,2.5-0.7,3.2C69.9,53.9,69.4,54.1,69,54.1L69,54.1z
	 M138.2,59.7c-0.6,0-1.1-0.2-1.6-0.6c-0.9-0.9-1-2.4-0.2-3.3c0.9-0.9,2.3-1,3.3-0.2l0,0c0.9,0.9,1,2.3,0.1,3.3
	C139.5,59.4,138.9,59.7,138.2,59.7L138.2,59.7z M61.7,59.8c-0.6,0-1.3-0.2-1.7-0.7c-0.9-0.9-0.8-2.4,0.1-3.3l0,0
	c0.9-0.9,2.4-0.8,3.3,0.1c0.9,0.9,0.8,2.4-0.1,3.3C62.8,59.6,62.2,59.8,61.7,59.8L61.7,59.8z M144.6,66.6c-0.7,0-1.3-0.3-1.8-0.9
	l-0.1-0.1c-0.8-1-0.6-2.5,0.4-3.3s2.5-0.6,3.3,0.4l-1.8,1.4l1.8-1.4c0.8,1,0.6,2.5-0.4,3.3C145.6,66.4,145.1,66.6,144.6,66.6
	L144.6,66.6z M55.3,66.7c-0.5,0-1-0.2-1.4-0.5c-1-0.8-1.2-2.2-0.4-3.3l0,0c0.8-1,2.2-1.2,3.3-0.4c1,0.8,1.2,2.2,0.4,3.3l0,0
	C56.7,66.4,56,66.7,55.3,66.7L55.3,66.7z M149.7,74.4c-0.8,0-1.6-0.4-2-1.2l-0.1-0.1c-0.6-1.1-0.2-2.5,1-3.1c1.1-0.6,2.5-0.2,3.1,1
	l-2.1,1.1l2.1-1.1c0.6,1.1,0.3,2.5-0.8,3.2C150.5,74.3,150.1,74.4,149.7,74.4L149.7,74.4z M50.2,74.5c-0.4,0-0.7-0.1-1.1-0.3
	c-1.1-0.6-1.6-2-1-3.1l0.1-0.1c0.6-1.1,2.1-1.5,3.2-0.9c1.1,0.6,1.5,2.1,0.9,3.2C51.9,74,51.1,74.5,50.2,74.5L50.2,74.5z
	 M153.5,82.9c-1,0-1.9-0.6-2.2-1.6c-0.4-1.2,0.2-2.6,1.4-3s2.5,0.2,2.9,1.4v0.1c0.4,1.2-0.3,2.5-1.5,2.9
	C154,82.9,153.7,82.9,153.5,82.9L153.5,82.9z M46.5,83c-0.3,0-0.5,0-0.8-0.1c-1.2-0.4-1.9-1.7-1.4-3l0,0c0.4-1.2,1.7-1.9,2.9-1.5
	s1.9,1.7,1.5,2.9v0.1C48.4,82.4,47.5,83,46.5,83L46.5,83z M155.8,91.9c-1.1,0-2.1-0.8-2.3-2c-0.2-1.3,0.6-2.5,1.9-2.7
	c1.3-0.2,2.5,0.6,2.7,1.9v0.1c0.2,1.3-0.7,2.5-2,2.6C156,91.9,155.9,91.9,155.8,91.9L155.8,91.9z M44.2,92.1c-0.1,0-0.3,0-0.4,0
	c-1.3-0.2-2.1-1.4-1.9-2.7l2.3,0.4l-2.3-0.4c0.2-1.3,1.4-2.1,2.7-1.9s2.1,1.4,1.9,2.6v0.1C46.3,91.3,45.3,92.1,44.2,92.1L44.2,92.1z
	 M43.5,101.4c-1.3,0-2.3-1-2.3-2.3V99c0-1.3,1-2.3,2.3-2.3s2.3,1,2.3,2.3S44.8,101.4,43.5,101.4L43.5,101.4z M156.5,101.4
	c-1.3,0-2.3-1-2.3-2.3c0,0,0,0,0-0.1v-0.1c0-1.3,1-2.4,2.3-2.4s2.3,1,2.3,2.3v0.1l0,0c0,0,0,0,0,0.1v0.1
	C158.9,100.3,157.8,101.4,156.5,101.4L156.5,101.4z M155.8,110.7c-0.1,0-0.2,0-0.4,0c-1.3-0.2-2.1-1.4-1.9-2.6V108
	c0.2-1.3,1.4-2.1,2.7-1.9s2.1,1.4,1.9,2.7l-2.3-0.4l2.3,0.4C157.9,109.9,156.9,110.7,155.8,110.7L155.8,110.7z M44.2,110.7
	c-1.1,0-2.1-0.8-2.3-1.9v-0.1c-0.2-1.3,0.7-2.5,2-2.6c1.3-0.2,2.5,0.7,2.6,2c0.2,1.3-0.6,2.5-1.9,2.7
	C44.5,110.7,44.4,110.7,44.2,110.7L44.2,110.7z M46.5,119.7c-1,0-1.9-0.6-2.2-1.6V118c-0.4-1.2,0.3-2.5,1.5-2.9s2.5,0.3,2.9,1.5
	s-0.2,2.6-1.4,3C47,119.7,46.8,119.7,46.5,119.7L46.5,119.7z M153.5,119.7c-0.2,0-0.5,0-0.7-0.1c-1.2-0.4-1.9-1.7-1.5-2.9v-0.1
	c0.4-1.2,1.7-1.9,3-1.4c1.2,0.4,1.9,1.7,1.4,3l0,0C155.3,119.1,154.4,119.7,153.5,119.7L153.5,119.7z M50.3,128.3
	c-0.8,0-1.6-0.4-2.1-1.2l2.1-1.1l-2.1,1.1c-0.6-1.1-0.2-2.5,0.9-3.2c1.1-0.6,2.5-0.2,3.1,0.9l0.1,0.1c0.6,1.1,0.2,2.5-1,3.1
	C51,128.2,50.7,128.3,50.3,128.3L50.3,128.3z M149.7,128.3c-0.4,0-0.8-0.1-1.1-0.3c-1.1-0.6-1.5-2.1-0.9-3.2s2-1.6,3.1-1
	s1.6,2,1,3.1l-0.1,0.1C151.3,127.9,150.5,128.3,149.7,128.3L149.7,128.3z M55.4,136.1c-0.7,0-1.4-0.3-1.8-0.9l1.8-1.4l-1.8,1.4
	c-0.8-1-0.6-2.5,0.4-3.3s2.5-0.6,3.3,0.3l0.1,0.1c0.8,1,0.6,2.5-0.4,3.3C56.4,135.9,55.9,136.1,55.4,136.1L55.4,136.1z M144.6,136.1
	c-0.5,0-1-0.2-1.4-0.5c-1-0.8-1.2-2.2-0.4-3.3l0,0c0.8-1,2.2-1.2,3.3-0.4c1,0.8,1.2,2.2,0.4,3.3l0,0
	C146,135.8,145.3,136.1,144.6,136.1L144.6,136.1z M61.7,142.9c-0.6,0-1.1-0.2-1.5-0.6l0,0c-0.9-0.9-1-2.3-0.1-3.3
	c0.9-0.9,2.3-1,3.3-0.1c0.9,0.9,1,2.4,0.2,3.3C63,142.7,62.3,142.9,61.7,142.9L61.7,142.9z M138.3,142.9c-0.6,0-1.3-0.3-1.7-0.8
	c-0.9-0.9-0.8-2.4,0.1-3.3c0.9-0.9,2.4-0.8,3.3,0.1c0.9,0.9,0.8,2.4-0.1,3.3l0,0C139.4,142.7,138.8,142.9,138.3,142.9L138.3,142.9z
	 M69.1,148.7c-0.4,0-0.9-0.1-1.3-0.4l0,0c-1.1-0.7-1.4-2.1-0.7-3.2c0.7-1.1,2.1-1.4,3.2-0.7h0.1c1.1,0.7,1.4,2.1,0.7,3.2
	C70.6,148.3,69.9,148.7,69.1,148.7L69.1,148.7z M130.9,148.7c-0.8,0-1.5-0.4-2-1.1c-0.7-1.1-0.3-2.5,0.7-3.2
	c1.1-0.7,2.5-0.4,3.2,0.6c0.7,1.1,0.4,2.5-0.6,3.2l-0.1,0.1C131.7,148.6,131.3,148.7,130.9,148.7L130.9,148.7z M122.7,153.1
	c-0.9,0-1.8-0.5-2.1-1.4c-0.5-1.2,0.1-2.5,1.2-3c1.2-0.5,2.5,0,3.1,1.2c0.5,1.2,0,2.5-1.2,3.1h-0.1
	C123.3,153.1,123,153.1,122.7,153.1L122.7,153.1z M77.3,153.1c-0.3,0-0.6-0.1-1-0.2l1-2.1l-1,2.1c-1.2-0.5-1.7-1.8-1.3-3
	c0.5-1.2,1.9-1.8,3-1.3l0.1,0.1c1.2,0.5,1.7,1.9,1.2,3.1C79.1,152.6,78.2,153.1,77.3,153.1L77.3,153.1z M113.9,156.1
	c-1,0-2-0.7-2.3-1.7c-0.3-1.2,0.4-2.5,1.6-2.8h0.1c1.2-0.3,2.5,0.5,2.8,1.7s-0.5,2.5-1.7,2.8l-0.5-2.3l0.5,2.3
	C114.3,156.1,114.1,156.1,113.9,156.1L113.9,156.1z M86.2,156.1c-0.2,0-0.4,0-0.6-0.1h-0.1c-1.2-0.3-2-1.6-1.6-2.9
	c0.3-1.2,1.6-2,2.9-1.6c1.2,0.3,2,1.6,1.7,2.8C88.2,155.4,87.2,156.1,86.2,156.1L86.2,156.1z M104.6,157.7c-1.2,0-2.2-1-2.3-2.2
	c-0.1-1.3,0.9-2.4,2.2-2.5c1.3-0.1,2.4,0.8,2.5,2.1s-0.8,2.4-2.1,2.5h-0.1C104.7,157.7,104.7,157.7,104.6,157.7L104.6,157.7z
	 M95.4,157.7c-0.1,0-0.1,0-0.2,0l0.2-2.3l-0.2,2.3c-1.3-0.1-2.2-1.2-2.1-2.5s1.2-2.2,2.4-2.2h0.1c1.3,0.1,2.2,1.2,2.1,2.5
	C97.6,156.8,96.6,157.7,95.4,157.7L95.4,157.7z"/>
<path class="st0" d="M100,14.1c-5.2,0-9.4,4.2-9.4,9.4s4.2,9.4,9.4,9.4s9.4-4.2,9.4-9.4S105.2,14.1,100,14.1L100,14.1z M100,37.5
	c-7.7,0-14-6.3-14-14s6.3-14,14-14s14,6.3,14,14S107.7,37.5,100,37.5L100,37.5z"/>
<path class="st0" d="M100,165.1c-5.2,0-9.4,4.2-9.4,9.4s4.2,9.4,9.4,9.4s9.4-4.2,9.4-9.4S105.2,165.1,100,165.1L100,165.1z
	 M100,188.5c-7.7,0-14-6.3-14-14s6.3-14,14-14s14,6.3,14,14S107.7,188.5,100,188.5L100,188.5z"/>
<path class="st1" d="M46.6,36.2c-2.4,0-4.8,0.9-6.6,2.7c-3.7,3.7-3.7,9.6,0,13.3c1.8,1.8,4.1,2.7,6.6,2.7s4.9-1,6.6-2.7
	c1.8-1.8,2.7-4.1,2.7-6.6s-1-4.9-2.7-6.6C51.4,37.1,49,36.2,46.6,36.2L46.6,36.2z M46.6,59.6c-3.7,0-7.3-1.5-9.9-4.1
	c-5.5-5.5-5.5-14.4,0-19.8c5.5-5.5,14.4-5.5,19.8,0c2.7,2.7,4.1,6.2,4.1,9.9c0,3.7-1.5,7.3-4.1,9.9C53.9,58.2,50.4,59.6,46.6,59.6
	L46.6,59.6z"/>
<path class="st1" d="M153.4,143c-2.5,0-4.9,1-6.6,2.7c-1.8,1.8-2.7,4.1-2.7,6.6s1,4.9,2.7,6.6c3.7,3.7,9.6,3.7,13.3,0
	s3.7-9.6,0-13.3C158.3,144,155.9,143,153.4,143L153.4,143z M153.4,166.4c-3.6,0-7.2-1.4-9.9-4.1c-2.7-2.7-4.1-6.2-4.1-9.9
	s1.5-7.3,4.1-9.9c2.6-2.7,6.2-4.1,9.9-4.1s7.3,1.5,9.9,4.1c5.5,5.5,5.5,14.4,0,19.8C160.6,165,157,166.4,153.4,166.4L153.4,166.4z"
	/>
<path class="st0" d="M24.5,89.6c-5.2,0-9.4,4.2-9.4,9.4s4.2,9.4,9.4,9.4s9.4-4.2,9.4-9.4S29.7,89.6,24.5,89.6L24.5,89.6z M24.5,113
	c-7.7,0-14-6.3-14-14s6.3-14,14-14s14,6.3,14,14S32.2,113,24.5,113L24.5,113z"/>
<path class="st0" d="M175.5,89.6c-5.2,0-9.4,4.2-9.4,9.4s4.2,9.4,9.4,9.4s9.4-4.2,9.4-9.4S180.7,89.6,175.5,89.6L175.5,89.6z
	 M175.5,113c-7.7,0-14-6.3-14-14s6.3-14,14-14s14,6.3,14,14S183.2,113,175.5,113L175.5,113z"/>
<path class="st1" d="M46.6,143c-2.4,0-4.8,0.9-6.6,2.7c-3.7,3.7-3.7,9.6,0,13.3c1.8,1.8,4.1,2.7,6.6,2.7s4.9-1,6.6-2.7
	c3.7-3.7,3.7-9.6,0-13.3C51.4,143.9,49,143,46.6,143L46.6,143z M46.6,166.4c-3.7,0-7.3-1.5-9.9-4.1c-5.5-5.5-5.5-14.4,0-19.8
	c5.5-5.5,14.4-5.5,19.8,0c5.5,5.5,5.5,14.4,0,19.8C53.9,165,50.4,166.4,46.6,166.4L46.6,166.4z"/>
<path class="st1" d="M146.8,39c-3.7,3.7-3.7,9.6,0,13.3s9.6,3.7,13.3,0c1.8-1.8,2.7-4.1,2.7-6.6s-1-4.9-2.7-6.6
	C156.4,35.3,150.4,35.3,146.8,39L146.8,39L146.8,39z M153.4,59.6c-3.6,0-7.2-1.4-9.9-4.1c-5.5-5.5-5.5-14.4,0-19.8l0,0
	c5.5-5.5,14.4-5.5,19.8,0c2.7,2.7,4.1,6.2,4.1,9.9c0,3.7-1.5,7.3-4.1,9.9C160.6,58.3,157,59.6,153.4,59.6L153.4,59.6z"/>
<path class="st1" d="M100,84.8c-3.9,0-7,3.2-7,7v2.1c0,3.9,3.2,7,7,7s7-3.2,7-7v-2.1C107,87.9,103.9,84.8,100,84.8L100,84.8z
	 M100,103.9c-5.5,0-10-4.5-10-10v-2.1c0-5.5,4.5-10,10-10s10,4.5,10,10v2.1C110,99.4,105.5,103.9,100,103.9L100,103.9z"/>
<path class="st1" d="M78.4,83.8c-3.3,0-5.9,2.7-5.9,5.9v1.9c0,3.3,2.7,5.9,5.9,5.9s5.9-2.7,5.9-5.9v-1.9
	C84.4,86.5,81.6,83.8,78.4,83.8L78.4,83.8z M78.4,100.5c-4.9,0-8.9-4-8.9-8.9v-1.9c0-4.9,4-8.9,8.9-8.9s8.9,4,8.9,8.9v1.9
	C87.3,96.5,83.3,100.5,78.4,100.5L78.4,100.5z"/>
<path class="st1" d="M121.6,83.8c-3.3,0-5.9,2.7-5.9,5.9v1.9c0,3.3,2.7,5.9,5.9,5.9c3.3,0,5.9-2.7,5.9-5.9v-1.9
	C127.6,86.5,124.9,83.8,121.6,83.8L121.6,83.8z M121.6,100.5c-4.9,0-8.9-4-8.9-8.9v-1.9c0-4.9,4-8.9,8.9-8.9s8.9,4,8.9,8.9v1.9
	C130.5,96.5,126.5,100.5,121.6,100.5L121.6,100.5z"/>
<path class="st1" d="M112.7,121c-0.8,0-1.5-0.7-1.5-1.5v-9.8c0-0.8-0.3-1.5-0.9-2c-1.7-1.4-5.4-3.8-10.3-3.8s-8.6,2.4-10.3,3.8
	c-0.6,0.5-0.9,1.2-0.9,2v9.8c0,0.8-0.7,1.5-1.5,1.5s-1.5-0.7-1.5-1.5v-9.8c0-1.7,0.7-3.2,2-4.3c2-1.7,6.3-4.5,12.2-4.5
	c5.9,0,10.2,2.8,12.2,4.5c1.2,1.1,2,2.6,2,4.3v9.8C114.2,120.3,113.5,121,112.7,121L112.7,121z"/>
<path class="st1" d="M100,55.2c-11.7,0-22.7,4.6-31,12.8c-8.3,8.3-12.8,19.3-12.8,31s4.6,22.7,12.8,31c8.3,8.3,19.3,12.8,31,12.8
	s22.7-4.6,31-12.8c8.3-8.3,12.8-19.3,12.8-31s-4.6-22.7-12.8-31C122.7,59.7,111.7,55.2,100,55.2L100,55.2z M100,145.8
	c-12.5,0-24.2-4.9-33-13.7s-13.7-20.6-13.7-33S58.2,74.8,67,66s20.5-13.8,33-13.8s24.2,4.9,33,13.7s13.7,20.6,13.7,33
	s-4.9,24.2-13.7,33C124.2,140.9,112.5,145.8,100,145.8L100,145.8z"/>
<path class="st1" d="M100,63.9c-0.8,0-1.5-0.7-1.5-1.5v-8.7c0-0.8,0.7-1.5,1.5-1.5s1.5,0.7,1.5,1.5v8.8
	C101.5,63.3,100.8,63.9,100,63.9L100,63.9z"/>
<path class="st1" d="M100,145.8c-0.8,0-1.5-0.7-1.5-1.5v-8.8c0-0.8,0.7-1.5,1.5-1.5s1.5,0.7,1.5,1.5v8.8
	C101.5,145.1,100.8,145.8,100,145.8L100,145.8z"/>
<path class="st1" d="M63.5,100.5h-8.8c-0.8,0-1.5-0.7-1.5-1.5s0.7-1.5,1.5-1.5h8.8c0.8,0,1.5,0.7,1.5,1.5S64.3,100.5,63.5,100.5
	L63.5,100.5z"/>
<path class="st1" d="M145.3,100.5h-8.8c-0.8,0-1.5-0.7-1.5-1.5s0.7-1.5,1.5-1.5h8.8c0.8,0,1.5,0.7,1.5,1.5S146.1,100.5,145.3,100.5
	L145.3,100.5z"/>
<path class="st1" d="M132.7,115.5c-0.8,0-1.5-0.7-1.5-1.5v-8.6c0-0.6-0.2-1.2-0.7-1.6c-1.5-1.2-4.6-3.3-8.9-3.3s-7.4,2.1-8.9,3.3
	c-0.4,0.4-0.7,0.9-0.7,1.5c0.1,0.1,0.1,0.1,0.2,0.2c1.2,1.1,2,2.6,2,4.3v4.3c0,0.8-0.7,1.5-1.5,1.5s-1.5-0.7-1.5-1.5v-4.3
	c0-0.8-0.3-1.5-0.9-2c-0.2-0.2-0.4-0.4-0.7-0.6c-0.4-0.2-0.6-0.7-0.6-1.2v-0.6c0-1.5,0.7-2.9,1.8-3.8c1.8-1.5,5.6-4,10.8-4
	c5.2,0,9,2.5,10.8,4c1.1,0.9,1.8,2.4,1.8,3.8v8.6C134.2,114.8,133.5,115.5,132.7,115.5L132.7,115.5z"/>
<path class="st1" d="M87.3,115.5c-0.8,0-1.5-0.7-1.5-1.5v-4.3c0-1.7,0.7-3.2,2-4.3c0.1-0.1,0.1-0.1,0.2-0.2
	c-0.1-0.6-0.3-1.1-0.7-1.5c-1.5-1.2-4.6-3.3-8.9-3.3s-7.4,2.1-8.9,3.3c-0.5,0.4-0.7,1-0.7,1.6v8.6c0,0.8-0.7,1.5-1.5,1.5
	s-1.5-0.7-1.5-1.5v-8.6c0-1.5,0.7-2.9,1.8-3.8c1.8-1.5,5.6-4,10.8-4s9,2.5,10.8,4c1.1,0.9,1.8,2.4,1.8,3.8v0.6
	c0,0.4-0.2,0.9-0.6,1.2c-0.2,0.2-0.5,0.4-0.7,0.6c-0.6,0.5-0.9,1.2-0.9,2v4.3C88.7,114.8,88.1,115.5,87.3,115.5L87.3,115.5z"/>
</svg>
