<?xml version="1.0" encoding="utf-8"?>
<!-- Generator: Adobe Illustrator 22.0.1, SVG Export Plug-In . SVG Version: 6.00 Build 0)  -->
<svg version="1.1" id="Layer_1" xmlns="http://www.w3.org/2000/svg" xmlns:xlink="http://www.w3.org/1999/xlink" x="0px" y="0px"
	 viewBox="0 0 350 350" style="enable-background:new 0 0 350 350;" xml:space="preserve">
<style type="text/css">
	.st0{fill:#FFFFFF;}
	.st1{fill:#DCF1FE;}
	.st2{fill:#CFD1E3;}
	.st3{fill:#E5E5F9;}
	.st4{fill:#6E7392;}
	.st5{clip-path:url(#SVGID_2_);fill:#8BB4EE;}
	.st6{clip-path:url(#SVGID_2_);fill:#7CA1CE;}
	.st7{clip-path:url(#SVGID_2_);fill:#6E7392;}
	.st8{clip-path:url(#SVGID_2_);fill:#FFFFFF;}
	.st9{fill:#909EC0;}
	.st10{fill:#8BB4EE;}
	.st11{fill:#C2E7FE;}
	.st12{fill:#FAC261;}
	.st13{fill:#97D4FE;}
	.st14{fill:#F0A374;}
	.st15{fill:#7CA1CE;}
	.st16{fill:#FE979B;}
	.st17{fill:#D19297;}
	.st18{fill:#F6F19D;}
	.st19{fill:#C6C1EC;}
	.st20{fill:#FFC885;}
	.st21{fill:#F6D42E;}
	.st22{fill:#ECF6FE;}
	.st23{fill:#554EDD;}
	.st24{fill:#ADEEAA;}
	.st25{fill:#8DE37F;}
	.st26{fill:#F8FBFF;}
	.st27{fill:#FEDEDB;}
</style>
<path class="st0" d="M947.2-118.2h-14c-0.9,0-1.7-0.8-1.7-1.7c0-0.9,0.8-1.7,1.7-1.7h14c0.9,0,1.7,0.8,1.7,1.7
	C948.9-119,948.2-118.2,947.2-118.2"/>
<path class="st1" d="M855-371.2c-65.9,33.4-84.4-40.8-146.7-18.9c-22,7.7-47.6,29-38.9,82.9c2.9,17.5-2.7,35.6-16,47.5
	c-3,2.7-5.9,5.8-8.4,9.2c-17.3,23.7-13.9,57.3,7.8,77c8.6,7.9,18.9,12.6,29.5,14.4c13.9,2.3,22.2,16.8,16.4,29.6
	c0,0.1-0.1,0.2-0.1,0.3c-24.7,53.7,51.6,84.6,95.1,65.8c37.6-16.3,54.5-19.2,74.9-15.3c64.8,12.3,120.7-39.1,97.7-90.6
	c-24.3-54.4,8.5-99.4,5.1-144.2C966.4-380.6,907.3-397.8,855-371.2"/>
<path class="st0" d="M783.8-102.4h-47.9c-0.9,0-1.7-0.7-1.7-1.7c0-0.9,0.7-1.7,1.7-1.7h47.9c0.9,0,1.7,0.7,1.7,1.7
	C785.5-103.2,784.7-102.4,783.8-102.4"/>
<path class="st0" d="M797.9-90.4h-48.7c-0.9,0-1.7-0.7-1.7-1.7c0-0.9,0.7-1.7,1.7-1.7h48.7c0.9,0,1.7,0.7,1.7,1.7
	C799.6-91.1,798.8-90.4,797.9-90.4"/>
<path class="st0" d="M811.4-102.4h-13.7c-0.9,0-1.7-0.7-1.7-1.7c0-0.9,0.7-1.7,1.7-1.7h13.7c0.9,0,1.7,0.7,1.7,1.7
	C813-103.2,812.3-102.4,811.4-102.4"/>
<path class="st0" d="M905.6-95.3L905.6-95.3l-16.5-0.2c-0.9,0-1.7-0.8-1.7-1.7c0-0.9,0.8-1.7,1.7-1.7h0l16.4,0.2
	c0.9,0,1.7,0.8,1.7,1.7C907.3-96.1,906.5-95.3,905.6-95.3"/>
<path class="st0" d="M930.6-109.2L930.6-109.2l-33.1-0.3c-0.9,0-1.7-0.8-1.7-1.7c0-0.9,0.7-1.7,1.7-1.7l33.1,0.3
	c0.9,0,1.7,0.8,1.7,1.7C932.3-109.9,931.6-109.2,930.6-109.2"/>
<path class="st0" d="M754.8-354h-28c-0.9,0-1.7-0.7-1.7-1.7c0-0.9,0.7-1.7,1.7-1.7h28c0.9,0,1.7,0.7,1.7,1.7
	C756.5-354.8,755.7-354,754.8-354"/>
<path class="st0" d="M757.1-328.9h-14.2c-0.9,0-1.7-0.7-1.7-1.7c0-0.9,0.7-1.7,1.7-1.7h14.2c0.9,0,1.7,0.7,1.7,1.7
	C758.7-329.7,758-328.9,757.1-328.9"/>
<path class="st0" d="M780.3-341.4h-64.4c-0.9,0-1.7-0.7-1.7-1.7c0-0.9,0.7-1.7,1.7-1.7h64.4c0.9,0,1.7,0.7,1.7,1.7
	C782-342.1,781.2-341.4,780.3-341.4"/>
<path class="st0" d="M777.4-354h-7c-0.9,0-1.7-0.7-1.7-1.7c0-0.9,0.7-1.7,1.7-1.7h7c0.9,0,1.7,0.7,1.7,1.7
	C779.1-354.8,778.3-354,777.4-354"/>
<path class="st2" d="M931.1-141.3H693.4c-3.6,0-6.5-2.9-6.5-6.5v-157.1c0-3.6,2.9-6.5,6.5-6.5h237.7c3.6,0,6.5,2.9,6.5,6.5v157.1
	C937.6-144.2,934.7-141.3,931.1-141.3"/>
<path class="st0" d="M919.7-159.6h-215c-3.1,0-5.5-2.5-5.5-5.5v-126.1c0-3.1,2.5-5.5,5.5-5.5h215c3.1,0,5.5,2.5,5.5,5.5v126.1
	C925.3-162.1,922.8-159.6,919.7-159.6"/>
<path class="st3" d="M699.2-279.6h226.1v-11.6c0-3.1-2.5-5.5-5.5-5.5h-215c-3.1,0-5.5,2.5-5.5,5.5V-279.6z"/>
<path class="st4" d="M712.5-288.2c0,1.7-1.4,3-3,3c-1.7,0-3-1.3-3-3c0-1.6,1.4-3,3-3C711.1-291.2,712.5-289.8,712.5-288.2"/>
<path class="st4" d="M722.5-288.2c0,1.7-1.4,3-3,3c-1.7,0-3-1.3-3-3c0-1.6,1.4-3,3-3C721.1-291.2,722.5-289.8,722.5-288.2"/>
<path class="st4" d="M732.5-288.2c0,1.7-1.4,3-3,3c-1.7,0-3-1.3-3-3c0-1.6,1.4-3,3-3C731.1-291.2,732.5-289.8,732.5-288.2"/>
<path class="st4" d="M931.1-139.6H693.4c-4.5,0-8.2-3.7-8.2-8.2v-157.1c0-4.5,3.7-8.2,8.2-8.2h237.7c4.5,0,8.2,3.7,8.2,8.2v157.1
	C939.3-143.2,935.6-139.6,931.1-139.6 M693.4-309.6c-2.6,0-4.8,2.1-4.8,4.8v157.1c0,2.6,2.1,4.8,4.8,4.8h237.7
	c2.6,0,4.8-2.1,4.8-4.8v-157.1c0-2.6-2.1-4.8-4.8-4.8H693.4z"/>
<path class="st4" d="M815-303.2c0,1.5-1.2,2.8-2.8,2.8c-1.5,0-2.8-1.2-2.8-2.8c0-1.5,1.2-2.8,2.8-2.8
	C813.8-305.9,815-304.7,815-303.2"/>
<g>
	<defs>
		<path id="SVGID_1_" d="M704.7-296.8c-3.1,0-5.5,2.5-5.5,5.5v126.1c0,3.1,2.5,5.5,5.5,5.5h215c3.1,0,5.5-2.5,5.5-5.5v-126.1
			c0-3.1-2.5-5.5-5.5-5.5H704.7z"/>
	</defs>
	<clipPath id="SVGID_2_">
		<use xlink:href="#SVGID_1_"  style="overflow:visible;"/>
	</clipPath>
	<path class="st5" d="M832.6-146.1L832.6-146.1c-7.5,2.4-15.6-1.8-18-9.3l-28.4-89.7c-2.4-7.5,1.8-15.6,9.3-18
		c7.5-2.4,15.6,1.8,18,9.3l28.4,89.7C844.3-156.5,840.2-148.5,832.6-146.1"/>
	<path class="st6" d="M797.8-263.6c4.6,1.2,8.5,4.7,10,9.5l28.4,89.7c2.4,7.5-1.8,15.6-9.3,18c-0.7,0.2-1.5,0.4-2.2,0.5
		c2.5,0.7,5.3,0.7,8-0.2c7.5-2.4,11.7-10.4,9.3-18l-28.4-89.7C811.4-260.5,804.6-264.6,797.8-263.6"/>
	<path class="st7" d="M828.3-143.9c-2.5,0-5-0.6-7.3-1.8c-3.8-1.9-6.5-5.2-7.8-9.3l-28.4-89.7c-2.6-8.3,2-17.2,10.3-19.9
		c4-1.3,8.3-0.9,12.1,1c3.8,1.9,6.5,5.2,7.8,9.3l28.4,89.6c2.6,8.3-2,17.2-10.3,19.9C831.5-144.2,829.9-143.9,828.3-143.9
		 M799.9-262.3c-1.3,0-2.6,0.2-3.9,0.6c-6.7,2.1-10.5,9.4-8.4,16.1l28.4,89.6c1,3.3,3.3,5.9,6.3,7.5c3,1.6,6.5,1.9,9.8,0.8
		c6.7-2.1,10.5-9.4,8.4-16.1l-28.4-89.7c-1-3.3-3.3-5.9-6.3-7.5C803.9-261.8,801.9-262.3,799.9-262.3"/>
	<path class="st8" d="M813.5-179.7c-0.6,0-1.2-0.4-1.4-1l-22.5-71c-0.3-0.8,0.2-1.6,1-1.9c0.8-0.3,1.6,0.2,1.9,1l22.5,71
		c0.3,0.8-0.2,1.6-1,1.9C813.8-179.7,813.6-179.7,813.5-179.7"/>
	<path class="st8" d="M819.4-161.1c-0.6,0-1.2-0.4-1.4-1l-3.5-11c-0.3-0.8,0.2-1.6,1-1.9c0.8-0.2,1.6,0.2,1.9,1l3.5,11
		c0.3,0.8-0.2,1.6-1,1.9C819.7-161.1,819.5-161.1,819.4-161.1"/>
</g>
<path class="st4" d="M919.7-158.8h-215c-3.5,0-6.4-2.9-6.4-6.4v-126.1c0-3.5,2.9-6.4,6.4-6.4h215c3.5,0,6.4,2.9,6.4,6.4v126.1
	C926.1-161.6,923.2-158.8,919.7-158.8 M704.7-295.9c-2.6,0-4.7,2.1-4.7,4.7v126.1c0,2.6,2.1,4.7,4.7,4.7h215c2.6,0,4.7-2.1,4.7-4.7
	v-126.1c0-2.6-2.1-4.7-4.7-4.7H704.7z"/>
<path class="st2" d="M947.2-149.7H833.2c-1.6,0-2.9,1.3-2.9,2.9c0,1.8-1.3,3.3-2.9,3.3H797c-1.6,0-2.9-1.5-2.9-3.3
	c0-1.6-1.3-2.9-2.9-2.9H677.3c-1.3,0-2.4,1.1-2.4,2.4v2.2c0,6.8,5.5,12.3,12.3,12.3h250c6.8,0,12.3-5.5,12.3-12.3v-2.2
	C949.5-148.7,948.5-149.7,947.2-149.7"/>
<path class="st9" d="M936.8-139H677.4c-0.3,0-0.6,0-0.8,0c2.1,3.7,6.1,6.2,10.7,6.2h250c6.8,0,12.3-5.5,12.3-12.3v-2.2
	c0-0.5-0.1-0.9-0.4-1.3C947.8-143.1,942.7-139,936.8-139"/>
<path class="st4" d="M937.2-131.1h-250c-7.7,0-14-6.3-14-14v-2.2c0-2.2,1.8-4.1,4.1-4.1h113.9c2.5,0,4.6,2.1,4.6,4.6
	c0,0.8,0.5,1.6,1.2,1.6h30.4c0.6,0,1.2-0.7,1.2-1.6c0-2.5,2.1-4.6,4.6-4.6h113.9c2.2,0,4.1,1.8,4.1,4.1v2.2
	C951.2-137.4,945-131.1,937.2-131.1 M677.3-148c-0.4,0-0.7,0.3-0.7,0.7v2.2c0,5.8,4.8,10.6,10.6,10.6h250c5.8,0,10.6-4.8,10.6-10.6
	v-2.2c0-0.4-0.3-0.7-0.7-0.7H833.2c-0.7,0-1.2,0.5-1.2,1.2c0,2.7-2.1,5-4.6,5H797c-2.5,0-4.6-2.2-4.6-5c0-0.7-0.5-1.2-1.2-1.2H677.3
	z"/>
<path class="st4" d="M925.3-278.7H699.2c-0.5,0-0.8-0.4-0.8-0.8c0-0.5,0.4-0.8,0.8-0.8h226.1c0.5,0,0.8,0.4,0.8,0.8
	C926.1-279.1,925.7-278.7,925.3-278.7"/>
<path class="st10" d="M780.8-212.6L780.8-212.6c-5.6,2.5-12.1-0.1-14.6-5.6l-5-11.3c-2.4-5.5,0.1-12.1,5.6-14.5l0.1,0
	c5.5-2.4,12.1,0.1,14.5,5.6l5,11.3C788.9-221.6,786.3-215,780.8-212.6"/>
<path class="st4" d="M776.3-210.1c-4.8,0-9.4-2.8-11.5-7.5l-5-11.3c-2.8-6.3,0.1-13.7,6.4-16.5c6.4-2.8,13.8,0.1,16.6,6.4l5,11.3
	c2.8,6.3-0.1,13.7-6.4,16.5l-0.1,0C779.7-210.5,778-210.1,776.3-210.1 M780.1-213.9l0.7,1.3L780.1-213.9c4.9-2.1,7-7.8,4.9-12.6
	l-5-11.3c-2.1-4.8-7.7-7-12.5-4.9c-4.9,2.1-7,7.8-4.9,12.6l5,11.3c1,2.3,2.9,4.1,5.3,5C775.2-212.9,777.8-212.9,780.1-213.9"/>
<path class="st11" d="M927.4-216.1l-21.3-1.4c-29-2-58.1-0.6-86.8,4l-16.4,2.7l-18.8-49.9l14-8.8c24.6-15.5,47.4-33.7,67.8-54.3
	l15-15.2L927.4-216.1z"/>
<path class="st12" d="M881-339l-15,15.2c-1.9,2-3.9,3.9-5.9,5.8c0.5,14.5,4.4,32.6,11.5,51.5c7.6,20.3,17.6,37.4,27.4,48.7
	c2.4,0.1,4.8,0.2,7.2,0.4l21.3,1.4L881-339z"/>
<path class="st13" d="M927.4-216.1l-2.4-6.4c-8.2-7.6-15.6-13.6-18.1-13.2c-6.5,1.2-72.3,10.1-97.1,15.4c-3.6,0.8-6.9,1.3-9.9,1.7
	l2.9,7.8l16.4-2.7c28.7-4.6,57.8-6,86.8-4L927.4-216.1z"/>
<path class="st12" d="M803.1-230.4l-5.9-15.7c-3.2-8.5-1.8-17.6,2.9-24.7c-0.6,0.4-1.3,0.8-1.9,1.2l-14.9,8.2
	c-10.6,4-16,15.8-12,26.5l5,13.2c4,10.6,15.8,16,26.5,12l16.6-3.7c0.7-0.1,1.5-0.2,2.2-0.3C813.4-215.9,806.3-221.9,803.1-230.4"/>
<path class="st14" d="M809.9-220.3c-17.2,3.7-27.6,2.2-32.4,0.9c4.8,9,15.6,13.2,25.3,9.6l16.6-3.7c0.7-0.1,1.5-0.2,2.2-0.3
	C817.2-214.9,813.2-217.2,809.9-220.3"/>
<path class="st4" d="M795.5-207c-8.9,0-17.3-5.4-20.6-14.3l-5-13.2c-4.3-11.3,1.4-24,12.7-28.3l14.8-8.1c0.3-0.2,0.6-0.4,0.9-0.6
	l0.9-0.6c23.8-15.1,45.9-32.9,65.7-52.9l16.7-16.8l48,127.3L906-216c-28.8-2-57.9-0.6-86.4,4l-16.4,3.6
	C800.7-207.4,798.1-207,795.5-207 M880.4-336.3L867-322.8c-19.9,20.1-42.2,38-66.2,53.3L800-269c-0.3,0.2-0.7,0.5-1,0.7l-15.1,8.3
	c-9.8,3.7-14.8,14.7-11.1,24.5l5,13.2c3.7,9.8,14.7,14.8,24.5,11.1l0.2-0.1l16.6-3.7c28.8-4.7,58.2-6,87.2-4.1l18.9,1.3L880.4-336.3
	z"/>
<path class="st14" d="M888.1-232.8c3.3,5.6,6.7,10.6,9.9,14.9c2.7,0.1,5.5,0.3,8.2,0.5l21.3,1.4l-2.4-6.4
	c-8.2-7.6-15.6-13.6-18.1-13.2C905-235.3,897.8-234.2,888.1-232.8"/>
<path class="st10" d="M931.8-288c13.2,34.9,13.6,67.1,0.9,71.9c-12.7,4.8-33.7-19.6-46.9-54.6c-13.2-34.9-13.6-67.1-0.9-71.9
	C897.7-347.3,918.7-322.9,931.8-288"/>
<path class="st15" d="M885-342.5c-4,1.5-6.7,5.7-8.1,11.8c1.2-1.4,2.5-2.4,4.1-3c12.7-4.8,33.7,19.6,46.9,54.6
	c9,24,12.1,46.6,9,60.1c8.3-9.8,6.6-38.3-4.9-68.9C918.7-322.9,897.7-347.3,885-342.5"/>
<path class="st13" d="M904.3-281.7c-4.5-10.4-15.7-15.6-24.9-11.4c-0.4,0.2-0.8,0.4-1.1,0.6c1.7,6.8,4.1,14.2,7.5,22
	c2.5,5.9,5.3,11.2,8.1,16c0.6-0.2,1.3-0.4,1.9-0.7C905-259.4,908.9-271.2,904.3-281.7"/>
<path class="st11" d="M892.5-258.4c9.3-4.1,13.1-16,8.6-26.4c-0.9-2.1-2.1-4-3.5-5.7c-5.3-4.1-12.1-5.3-18.2-2.6
	c-0.4,0.2-0.8,0.4-1.1,0.6c1.7,6.8,4.1,14.2,7.5,22c1.9,4.5,4,8.6,6.1,12.5C892.1-258.2,892.3-258.3,892.5-258.4"/>
<path class="st4" d="M929.3-214c-6.1,0-13.4-4.7-21-13.5c-9-10.4-17.4-25.6-23.9-42.6c-6.4-17-10.1-34-10.2-47.8
	c-0.2-14.3,3.5-23.5,10.3-26.1c6.8-2.6,15.6,2,24.9,12.8c9,10.4,17.4,25.6,23.9,42.6c13.7,36.2,13.7,68.7,0,73.8
	C932-214.2,930.7-214,929.3-214 M888.3-341.6c-1,0-1.9,0.2-2.8,0.5c-5.4,2.1-8.5,10.5-8.3,23.2c0.2,13.4,3.7,30,10,46.7
	c6.3,16.7,14.6,31.5,23.3,41.7c8.3,9.6,16.2,14,21.6,12c11.7-4.4,10.9-36.5-1.7-70c-6.3-16.7-14.6-31.5-23.3-41.7
	C900.2-337.2,893.5-341.6,888.3-341.6"/>
<path class="st0" d="M883.4-251.5c-0.6,0-1.1-0.3-1.4-0.8c-2.3-4.8-4.5-9.9-6.5-15.1c-6.7-17.9-10.4-35.5-10.2-49.5
	c0-0.8,0.7-1.4,1.5-1.5c0.8,0,1.5,0.7,1.5,1.5c-0.1,13.5,3.5,31.2,10,48.4c1.9,5.1,4.1,10.1,6.4,14.9c0.4,0.7,0,1.6-0.7,2
	C883.9-251.5,883.6-251.5,883.4-251.5"/>
<path class="st0" d="M892.1-235.9c-0.5,0-1-0.2-1.3-0.7c-1.9-2.9-3.7-6.1-5.5-9.3c-0.4-0.7-0.1-1.6,0.6-2c0.7-0.4,1.6-0.1,2,0.6
	c1.7,3.2,3.5,6.3,5.4,9.1c0.4,0.7,0.2,1.6-0.5,2.1C892.6-236,892.3-235.9,892.1-235.9"/>
<path class="st4" d="M778-241.2c-0.3,0-0.6-0.2-0.7-0.5c-0.1-0.4,0-0.8,0.4-1l10.3-3.9c0.4-0.1,0.8,0.1,1,0.4c0.1,0.4-0.1,0.8-0.4,1
	l-10.3,3.9C778.2-241.2,778.1-241.2,778-241.2"/>
<path class="st4" d="M781.8-231.3c-0.3,0-0.6-0.2-0.7-0.5c-0.1-0.4,0-0.8,0.4-1l10.3-3.9c0.4-0.1,0.8,0.1,1,0.4c0.1,0.4,0,0.8-0.4,1
	l-10.3,3.9C781.9-231.3,781.8-231.3,781.8-231.3"/>
<path class="st4" d="M785.5-221.4c-0.3,0-0.6-0.2-0.7-0.5c-0.1-0.4,0.1-0.8,0.4-1l10.3-3.9c0.4-0.1,0.8,0.1,1,0.4
	c0.1,0.4,0,0.8-0.4,1l-10.3,3.9C785.7-221.4,785.6-221.4,785.5-221.4"/>
<path class="st3" d="M1017.6,357.6c-27.4-7.8-86.3-45.2-47.1-121.1c29.6-57.4,12.3-99.5-1.2-132.8"/>
<path class="st3" d="M969.2,103.7c-17.2-42.2,23.2-87.3,68.4-83.1c68.6,6.4,51.8,71.1,186.1,72.1c50.6,0.4,85.7,21.4,69.7,82.3
	c-15.5,59.1-95.7,36.7-61.8,126.8c18.1,48.2-4,71.7-56.8,52.5c-66.4-24.1-108.7,17.1-157.1,3.2"/>
<path class="st11" d="M1191.5,97.9l-14,0.7l-38.8,1.8c-3.1,0.1-6.2,1.2-8.8,2.9l-118.6,80.3c-3.5,2.4-4.4,7.2-2.1,10.7l39.6,58.5
	c2.4,3.5,7.2,4.4,10.7,2.1l118.6-80.3c2.6-1.8,4.7-4.2,6-7l21.9-48C1210.8,109.1,1202.9,97.4,1191.5,97.9 M1165.8,129.6
	c-4.4-6.5-2.7-15.4,3.8-19.8c6.5-4.4,15.4-2.7,19.8,3.8c4.4,6.5,2.7,15.4-3.8,19.8C1179,137.9,1170.2,136.1,1165.8,129.6"/>
<path class="st13" d="M1184.2,167.5l21.9-48c2-4.5,1.7-9.2-0.2-13.1c-0.1,0.1-0.1,0.2-0.1,0.4l-21.9,48c-1.3,2.8-3.4,5.3-6,7
	l-118.6,80.3c-3.5,2.4-8.3,1.5-10.7-2.1l-37.8-55.9c-2.9,2.5-3.6,6.9-1.4,10.1l39.6,58.5c2.4,3.5,7.2,4.4,10.7,2.1l118.6-80.3
	C1180.8,172.8,1182.9,170.4,1184.2,167.5"/>
<path class="st4" d="M1054.7,256.7c-0.6,0-1.2-0.1-1.8-0.2c-2.4-0.5-4.5-1.9-5.9-3.9l-39.6-58.5c-2.9-4.2-1.7-10,2.5-12.8
	l118.6-80.3c2.8-1.9,6.1-3,9.5-3.2l52.7-2.5c5.9-0.3,11.4,2.5,14.7,7.4c3.3,4.9,3.8,11,1.4,16.4l-21.9,48c-1.4,3.1-3.7,5.8-6.5,7.7
	l-118.6,80.3C1058.3,256.2,1056.5,256.7,1054.7,256.7 M1190.9,98.5l-52.7,2.5c-2.8,0.1-5.6,1.1-8,2.6l-118.6,80.3
	c-2.8,1.9-3.6,5.8-1.7,8.6l39.6,58.5c0.9,1.4,2.3,2.3,3.9,2.6c1.6,0.3,3.3,0,4.6-1l118.6-80.3c2.4-1.6,4.2-3.8,5.4-6.4l21.9-48
	c2-4.4,1.6-9.4-1.1-13.4C1200.2,100.5,1195.7,98.3,1190.9,98.5z M1190.8,97L1190.8,97L1190.8,97z M1177.6,137.4
	c-5.1,0-10-2.4-13.1-6.9c-4.9-7.2-3-17,4.2-21.9c3.5-2.4,7.7-3.2,11.8-2.4c4.1,0.8,7.7,3.2,10.1,6.6c2.4,3.5,3.2,7.7,2.4,11.8
	c-0.8,4.1-3.2,7.7-6.6,10.1C1183.7,136.5,1180.6,137.4,1177.6,137.4 M1167,128.8c3.9,5.8,11.8,7.3,17.6,3.4c2.8-1.9,4.7-4.8,5.4-8.1
	c0.6-3.3-0.1-6.7-2-9.5c-1.9-2.8-4.8-4.7-8.1-5.4c-3.3-0.6-6.7,0.1-9.5,2C1164.6,115.1,1163.1,123,1167,128.8L1167,128.8z"/>
<path class="st4" d="M1145.1,180.5c-0.5,0-1-0.2-1.3-0.7l-33.8-49.9c-0.5-0.7-0.3-1.7,0.4-2.1c0.7-0.5,1.7-0.3,2.1,0.4l33.8,49.9
	c0.5,0.7,0.3,1.7-0.4,2.1C1145.7,180.4,1145.4,180.5,1145.1,180.5"/>
<path class="st4" d="M1125.2,179.9c-0.5,0-1-0.2-1.3-0.7l-27.2-40.2c-0.5-0.7-0.3-1.7,0.4-2.1c0.7-0.5,1.7-0.3,2.1,0.4l27.2,40.2
	c0.5,0.7,0.3,1.7-0.4,2.1C1125.8,179.8,1125.5,179.9,1125.2,179.9"/>
<path class="st4" d="M1101.9,174.4c-0.5,0-1-0.2-1.3-0.7l-17.3-25.6c-0.5-0.7-0.3-1.7,0.4-2.1c0.7-0.5,1.7-0.3,2.1,0.4l17.3,25.6
	c0.5,0.7,0.3,1.7-0.4,2.1C1102.5,174.3,1102.2,174.4,1101.9,174.4"/>
<path class="st4" d="M1103.9,206.1c-0.5,0-1-0.2-1.3-0.7l-32.7-48.3c-0.5-0.7-0.3-1.7,0.4-2.1c0.7-0.5,1.7-0.3,2.1,0.4l32.7,48.3
	c0.5,0.7,0.3,1.7-0.4,2.1C1104.5,206,1104.2,206.1,1103.9,206.1"/>
<path class="st16" d="M1179.7,105.1l-49.1,26.3c-2.9,1.6-5.3,3.9-7,6.7L1047,268.5c-2.3,3.9-1,8.9,2.9,11.1l64.3,37.8
	c3.9,2.3,8.9,1,11.1-2.9l76.6-130.3c1.7-2.9,2.5-6.1,2.5-9.4l-0.9-55.7C1203.2,107,1190.3,99.4,1179.7,105.1 M1169.6,147
	c-7.2-4.2-9.5-13.4-5.3-20.6c4.2-7.2,13.4-9.5,20.6-5.3c7.2,4.2,9.5,13.4,5.3,20.6C1186,148.8,1176.8,151.2,1169.6,147"/>
<path class="st4" d="M1177.2,149.9c-2.8,0-5.5-0.7-8-2.2c-3.6-2.1-6.2-5.6-7.3-9.7c-1.1-4.1-0.5-8.4,1.7-12c2.1-3.6,5.6-6.2,9.7-7.3
	c4.1-1.1,8.4-0.5,12,1.7c3.6,2.1,6.2,5.6,7.3,9.7c1.1,4.1,0.5,8.4-1.7,12c-2.1,3.6-5.6,6.2-9.7,7.3
	C1179.9,149.7,1178.5,149.9,1177.2,149.9 M1177.2,119.8c-1.2,0-2.4,0.2-3.6,0.5c-3.7,1-6.8,3.3-8.7,6.6c-4,6.8-1.7,15.5,5.1,19.5
	c3.3,1.9,7.1,2.5,10.8,1.5c3.7-1,6.8-3.3,8.7-6.6c1.9-3.3,2.5-7.1,1.5-10.8c-1-3.7-3.3-6.8-6.6-8.7
	C1182.2,120.5,1179.7,119.8,1177.2,119.8"/>
<path class="st17" d="M1204.4,174.8l-0.9-55.7c-0.1-5.2-2.5-9.6-6.2-12.4c0,0.1,0,0.3,0,0.4l0.9,55.7c0.1,3.3-0.8,6.6-2.5,9.4
	l-76.6,130.3c-2.3,3.9-7.3,5.2-11.1,2.9l-61.4-36.1c-1.7,3.7-0.3,8.2,3.3,10.3l64.3,37.8c3.9,2.3,8.9,1,11.1-2.9l76.6-130.3
	C1203.5,181.3,1204.4,178.1,1204.4,174.8"/>
<path class="st4" d="M1117.2,319.5c-1.7,0-3.4-0.5-4.9-1.3l-64.3-37.8c-4.6-2.7-6.2-8.7-3.5-13.4l76.6-130.3
	c1.8-3.1,4.5-5.7,7.7-7.4l49.1-26.3c5.5-2.9,12-2.8,17.3,0.3c5.4,3.2,8.6,8.8,8.7,15l0.9,55.7c0.1,3.6-0.9,7.2-2.7,10.3l-76.6,130.3
	c-1.3,2.2-3.4,3.8-6,4.5C1118.8,319.4,1118,319.5,1117.2,319.5 M1179.4,105.9l-49.1,26.3c-2.7,1.4-4.9,3.5-6.4,6.1l-76.6,130.3
	c-1.8,3.1-0.8,7.1,2.3,8.9l64.3,37.8c1.5,0.9,3.3,1.1,4.9,0.7c1.7-0.4,3.1-1.5,4-3l76.6-130.3c1.5-2.6,2.3-5.6,2.3-8.6l-0.9-55.7
	c-0.1-5.1-2.8-9.7-7.1-12.2C1189.2,103.6,1183.9,103.5,1179.4,105.9 M1177.2,150.7c-2.9,0-5.8-0.8-8.4-2.3
	c-3.8-2.3-6.6-5.9-7.7-10.2c-1.1-4.3-0.5-8.8,1.8-12.6c2.3-3.8,5.9-6.6,10.2-7.7c4.3-1.1,8.8-0.5,12.6,1.8c3.8,2.3,6.6,5.9,7.7,10.2
	c1.1,4.3,0.5,8.8-1.8,12.6c-2.3,3.8-5.9,6.6-10.2,7.7C1180,150.5,1178.6,150.7,1177.2,150.7 M1177.2,120.6c-1.1,0-2.3,0.1-3.4,0.4
	c-3.5,0.9-6.4,3.1-8.2,6.2c-1.8,3.1-2.3,6.7-1.4,10.2c0.9,3.5,3.1,6.4,6.2,8.2h0c3.1,1.8,6.7,2.3,10.2,1.4c3.5-0.9,6.4-3.1,8.2-6.2
	c1.8-3.1,2.3-6.7,1.4-10.2c-0.9-3.5-3.1-6.4-6.2-8.2C1181.9,121.3,1179.6,120.6,1177.2,120.6"/>
<path class="st4" d="M1187.9,130c-6,0-12.1-1.4-17.8-4.3c-1.8-0.9-2.5-3.1-1.6-4.8c0.9-1.8,3.1-2.5,4.8-1.6
	c15.4,7.8,34.1,2.1,42.6-13c4.2-7.5,5.2-16.2,2.9-24.4c-2.3-8.3-7.8-15.1-15.3-19.3c-15.5-8.6-35.1-3.1-43.7,12.4
	c-3.5,6.3-4.8,13.4-3.7,20.5c0.3,2-1,3.8-3,4.1c-2,0.3-3.8-1.1-4.1-3c-1.3-8.7,0.2-17.4,4.5-25.1c10.6-18.9,34.6-25.8,53.6-15.2
	c9.2,5.1,15.8,13.5,18.7,23.6c2.9,10.1,1.6,20.7-3.5,29.9C1215,122.7,1201.7,130,1187.9,130"/>
<path class="st18" d="M1124.1,255.6l-28.7,20.6c-0.8,0.6-1.9,0.6-2.8,0.1l-4.9-2.9c-0.9-0.5-1.4-1.5-1.2-2.5l4.6-35
	c0.2-1.8,2.3-2.8,3.8-1.9l4.3,2.6c0.9,0.5,1.4,1.6,1.2,2.6l-3.4,19.4c-0.4,2.3,2.2,3.9,4.1,2.5l15.8-12.1c0.8-0.6,2-0.7,2.9-0.2
	l4.2,2.5C1125.5,252.2,1125.6,254.5,1124.1,255.6"/>
<path class="st18" d="M1140.6,245.1l-40.2-39.3c-0.8-0.8-1-2.1-0.4-3.1l3-5l40.1,39.4c0.8,0.8,1,2.1,0.4,3.1L1140.6,245.1z"/>
<path class="st18" d="M1149.2,209.2l-4.2-2.5c-0.9-0.5-1.4-1.6-1.2-2.6l3.3-19.6c0.4-2.3-2.3-3.9-4.1-2.4l-15.7,12.2
	c-0.8,0.6-2,0.7-2.9,0.2l-4.2-2.5c-1.6-0.9-1.7-3.2-0.2-4.3l28.7-20.6c0.8-0.6,1.9-0.6,2.8-0.1l4.8,2.9c0.9,0.5,1.4,1.5,1.2,2.5
	l-4.5,35.1C1152.8,209.1,1150.8,210.1,1149.2,209.2"/>
<path class="st4" d="M1093.9,277.3c-0.6,0-1.1-0.2-1.7-0.5l-4.9-2.9c-1.1-0.7-1.7-1.9-1.5-3.2l4.6-35c0.1-1.1,0.8-2,1.8-2.5
	c1-0.5,2.1-0.4,3.1,0.1l4.3,2.6c1.1,0.7,1.8,2,1.5,3.3l-3.4,19.4c-0.2,0.9,0.3,1.6,0.9,1.9c0.5,0.3,1.4,0.5,2.1-0.1l15.8-12.1
	c1.1-0.8,2.5-0.9,3.6-0.2l4.2,2.5c0.9,0.6,1.5,1.5,1.6,2.6c0,1.1-0.5,2.1-1.3,2.8l-28.7,20.6
	C1095.3,277.1,1094.6,277.3,1093.9,277.3 M1093.6,234.3c-0.3,0-0.6,0.1-0.8,0.2c-0.6,0.3-1,0.8-1,1.4l-4.6,35
	c-0.1,0.7,0.3,1.5,0.9,1.9l4.9,2.9c0.6,0.4,1.5,0.4,2.1-0.1l28.7-20.6c0.5-0.4,0.8-1,0.8-1.6c0-0.6-0.4-1.2-0.9-1.5l-4.2-2.5
	c-0.7-0.4-1.5-0.3-2.1,0.1l-15.8,12.1c-1.1,0.8-2.5,0.9-3.6,0.2c-1.2-0.7-1.7-2-1.5-3.3l3.4-19.4c0.1-0.8-0.2-1.5-0.9-1.9l-4.3-2.6
	C1094.3,234.3,1094,234.3,1093.6,234.3"/>
<path class="st4" d="M1140.6,245.8c-0.2,0-0.3-0.1-0.5-0.2l-40.2-39.3c-1.1-1-1.3-2.7-0.5-4l3-5c0.1-0.2,0.3-0.3,0.5-0.3
	c0.2,0,0.4,0,0.6,0.2l40.1,39.4c1.1,1,1.3,2.7,0.5,4l-2.9,4.9C1141,245.6,1140.8,245.7,1140.6,245.8
	C1140.6,245.8,1140.6,245.8,1140.6,245.8 M1103.1,198.7l-2.6,4.3c-0.4,0.7-0.3,1.7,0.3,2.3l39.6,38.7l2.5-4.2
	c0.4-0.7,0.3-1.7-0.3-2.3L1103.1,198.7z"/>
<path class="st4" d="M1150.5,210.2c-0.6,0-1.1-0.2-1.7-0.5l-4.2-2.5c-1.1-0.7-1.7-2-1.5-3.3l3.3-19.6c0.2-0.9-0.4-1.6-0.9-1.9
	c-0.5-0.3-1.4-0.5-2.1,0.1l-15.7,12.2c-1.1,0.8-2.5,0.9-3.6,0.2l-4.2-2.5c-0.9-0.6-1.5-1.5-1.6-2.6c0-1.1,0.5-2.1,1.3-2.8l28.7-20.6
	c1-0.8,2.4-0.8,3.5-0.2l4.8,2.9c1.1,0.7,1.7,1.9,1.5,3.2l-4.5,35.1c-0.1,1.1-0.8,2-1.8,2.5C1151.5,210.1,1151,210.2,1150.5,210.2
	 M1149.5,208.6c0.6,0.3,1.2,0.4,1.8,0.1c0.6-0.3,1-0.8,1-1.5l4.5-35.1c0.1-0.7-0.3-1.5-0.9-1.9l-4.8-2.9c-0.6-0.4-1.5-0.4-2.1,0.1
	l-28.7,20.6c-0.5,0.4-0.8,1-0.8,1.6c0,0.6,0.4,1.2,0.9,1.5l4.2,2.5c0.7,0.4,1.5,0.3,2.1-0.1l15.7-12.2c1.1-0.8,2.5-0.9,3.6-0.2
	c1.2,0.7,1.8,2,1.5,3.3l-3.3,19.6c-0.1,0.8,0.2,1.5,0.9,1.9L1149.5,208.6z"/>
<path class="st0" d="M1038.5,70.9l-6.4,2.5c-0.7-0.6-1.4-1.2-2.1-1.7c-1-0.7-2.1-1.3-3.2-1.9l0.2-6.5c0-1-0.7-1.9-1.7-2.2l-5-1.1
	c-1-0.2-2,0.3-2.4,1.2l-2.6,6.1c-2.2,0.1-4.5,0.5-6.6,1.2l-4.2-4.5c-0.7-0.7-1.8-0.9-2.7-0.3l-4.4,2.8c-0.9,0.5-1.2,1.6-0.8,2.6
	l2.2,5.7c-0.8,0.8-1.6,1.7-2.3,2.7c-0.7,1.1-1.4,2.1-1.9,3.3l-5.6-0.2c-1,0-1.9,0.7-2.2,1.7l-1.1,5c-0.2,1,0.3,2,1.2,2.4l5.2,2.3
	c0.1,2.6,0.5,5.2,1.4,7.6l-3.8,3.6c-0.7,0.7-0.9,1.8-0.3,2.7l2.8,4.4c0.5,0.9,1.6,1.2,2.6,0.8l5.1-2c0.7,0.7,1.5,1.3,2.3,1.9
	c1.3,0.9,2.7,1.7,4.1,2.3l-0.2,5.2c0,1,0.7,1.9,1.7,2.2l5,1.1c1,0.2,2-0.3,2.4-1.2l2.3-5.3c2.5-0.2,4.9-0.7,7.2-1.6l3.9,4.2
	c0.7,0.7,1.8,0.9,2.7,0.4l4.4-2.8c0.9-0.5,1.2-1.6,0.8-2.6l-2.3-5.9c0.5-0.5,0.9-1.1,1.3-1.7c0.9-1.3,1.7-2.6,2.3-4l6.2,0.2
	c1,0,1.9-0.7,2.2-1.7l1.1-5c0.2-1-0.3-2-1.2-2.4l-6.2-2.7c-0.2-2.1-0.6-4.2-1.3-6.2l4.8-4.5c0.7-0.7,0.9-1.8,0.4-2.7l-2.8-4.4
	C1040.5,70.8,1039.5,70.5,1038.5,70.9 M1020.8,98.7c-4.1,2.6-9.6,1.4-12.1-2.8c-2.6-4.1-1.4-9.6,2.8-12.1s9.6-1.4,12.1,2.8
	C1026.2,90.7,1025,96.1,1020.8,98.7"/>
<path class="st4" d="M1013.4,122.6c-0.2,0-0.4,0-0.7-0.1l-5-1.1c-1.4-0.3-2.4-1.6-2.3-3l0.2-4.7c-1.3-0.6-2.6-1.4-3.8-2.2
	c-0.7-0.5-1.3-1-2-1.6l-4.7,1.8c-1.3,0.5-2.8,0-3.6-1.2l-2.8-4.4c-0.8-1.2-0.6-2.8,0.5-3.8l3.4-3.2c-0.7-2.2-1.2-4.5-1.3-6.8l-4.7-2
	c-1.3-0.6-2-2-1.7-3.4l1.1-5c0.3-1.4,1.6-2.3,3-2.3l5,0.2c0.6-1.1,1.1-2,1.7-2.9c0.6-0.8,1.2-1.6,2-2.4l-2-5.2
	c-0.5-1.3,0-2.8,1.2-3.6l4.4-2.8c1.2-0.8,2.8-0.6,3.8,0.5l3.8,4.1c1.9-0.6,3.8-0.9,5.8-1l2.4-5.6c0.6-1.3,2-2,3.4-1.7l5,1.1
	c1.4,0.3,2.4,1.6,2.3,3l-0.2,6c1.1,0.5,2,1.1,2.8,1.7c0.6,0.4,1.2,0.9,1.8,1.4l5.9-2.3c1.3-0.5,2.8,0,3.6,1.2l2.8,4.4
	c0.8,1.2,0.6,2.8-0.5,3.8l-4.4,4.1c0.6,1.8,1,3.6,1.2,5.4l5.8,2.5c1.3,0.6,2,2,1.7,3.4l-1.1,5c-0.3,1.4-1.6,2.3-3,2.3l-5.6-0.2
	c-0.6,1.3-1.3,2.5-2.1,3.7c-0.3,0.5-0.7,0.9-1.1,1.4l2.1,5.4c0.5,1.3,0,2.8-1.2,3.6l-4.4,2.8c-1.2,0.8-2.8,0.6-3.8-0.5l-3.5-3.7
	c-2.1,0.8-4.2,1.2-6.4,1.4l-2.1,4.9C1015.7,121.9,1014.6,122.6,1013.4,122.6 M1000.1,107.9l0.4,0.4c0.8,0.8,1.5,1.3,2.3,1.9
	c1.2,0.9,2.6,1.6,4,2.3l0.5,0.2l-0.2,5.8c0,0.6,0.4,1.2,1,1.3l5,1.1c0.6,0.1,1.2-0.2,1.5-0.7l2.5-5.8l0.5,0c2.4-0.2,4.7-0.7,6.9-1.6
	l0.5-0.2l4.3,4.6c0.4,0.5,1.1,0.5,1.6,0.2l4.4-2.8c0.5-0.3,0.7-1,0.5-1.6l-2.5-6.4l0.3-0.4c0.4-0.5,0.9-1.1,1.3-1.7
	c0.9-1.2,1.6-2.5,2.2-3.9l0.2-0.5l6.7,0.2c0.6,0.1,1.2-0.4,1.3-1l1.1-5c0.1-0.6-0.2-1.2-0.7-1.5l-6.7-2.9l0-0.5c-0.2-2-0.6-4-1.3-6
	l-0.2-0.5l5.2-4.8c0.5-0.4,0.5-1.1,0.2-1.6l-2.8-4.4c-0.3-0.5-1-0.7-1.6-0.5l-6.9,2.7l-0.4-0.3c-0.7-0.6-1.4-1.2-2-1.6
	c-0.9-0.6-1.9-1.2-3.1-1.8l-0.5-0.2l0.2-7c0-0.6-0.4-1.2-1-1.3l-5-1.1c-0.6-0.1-1.2,0.2-1.5,0.7l-2.9,6.5l-0.5,0
	c-2.2,0.1-4.3,0.5-6.4,1.1l-0.5,0.2l-4.5-4.9c-0.4-0.5-1.1-0.5-1.6-0.2l-4.4,2.8c-0.5,0.3-0.7,1-0.5,1.6l2.4,6.2l-0.4,0.4
	c-0.9,0.9-1.6,1.8-2.2,2.6c-0.6,0.9-1.2,1.9-1.8,3.2l-0.2,0.5l-6.1-0.2c-0.6-0.1-1.2,0.4-1.3,1l-1.1,5c-0.1,0.6,0.2,1.2,0.7,1.5
	l5.7,2.5l0,0.5c0.1,2.5,0.5,5,1.4,7.3l0.2,0.5l-4.2,3.9c-0.5,0.4-0.5,1.1-0.2,1.6l2.8,4.4c0.3,0.5,1,0.7,1.6,0.5L1000.1,107.9z
	 M1016.2,100.9c-3.2,0-6.3-1.6-8.2-4.5c-2.8-4.5-1.5-10.5,3-13.3c2.2-1.4,4.8-1.8,7.3-1.2c2.5,0.6,4.7,2.1,6,4.3
	c2.8,4.5,1.5,10.5-3,13.3C1019.7,100.4,1017.9,100.9,1016.2,100.9 M1016.1,83.3c-1.5,0-2.9,0.4-4.2,1.2c-3.7,2.3-4.8,7.3-2.5,11
	c2.3,3.7,7.3,4.8,11,2.5c3.7-2.3,4.8-7.3,2.5-11c-1.1-1.8-2.9-3.1-5-3.5C1017.3,83.4,1016.7,83.3,1016.1,83.3"/>
<path class="st0" d="M1220,287.6l-5.6-1.1c-0.2-0.7-0.4-1.4-0.7-2.1c-0.4-1-0.9-1.9-1.4-2.7l3-4.5c0.5-0.7,0.4-1.6-0.2-2.2l-3-3
	c-0.6-0.6-1.5-0.7-2.2-0.2l-4.5,3.1c-1.6-0.9-3.3-1.6-5.2-2.1l-0.9-5c-0.2-0.8-0.9-1.4-1.7-1.4h-4.3c-0.9,0-1.6,0.6-1.7,1.4l-0.9,5
	c-0.9,0.2-1.9,0.5-2.8,0.9c-1,0.4-1.9,0.9-2.8,1.5l-3.8-2.6c-0.7-0.5-1.6-0.4-2.3,0.2l-3,3c-0.6,0.6-0.7,1.5-0.2,2.3l2.6,3.9
	c-1.1,1.9-1.9,3.9-2.4,6l-4.3,0.8c-0.8,0.2-1.4,0.9-1.4,1.7v4.3c0,0.9,0.6,1.6,1.4,1.7l4.5,0.9c0.2,0.8,0.5,1.6,0.8,2.4
	c0.5,1.2,1.1,2.4,1.9,3.5l-2.5,3.6c-0.5,0.7-0.4,1.6,0.2,2.2l3,3c0.6,0.6,1.5,0.7,2.2,0.2l4-2.7c1.8,1,3.8,1.7,5.8,2.1l0.9,4.6
	c0.2,0.8,0.9,1.4,1.7,1.4h4.3c0.9,0,1.6-0.6,1.7-1.4l1-5.2c0.6-0.2,1.1-0.4,1.7-0.6c1.2-0.5,2.3-1.1,3.4-1.8l4.3,2.9
	c0.7,0.5,1.6,0.4,2.2-0.2l3-3c0.6-0.6,0.7-1.5,0.2-2.2l-3.2-4.7c0.8-1.6,1.4-3.2,1.8-5l5.3-1c0.8-0.2,1.4-0.9,1.4-1.7v-4.3
	C1221.4,288.5,1220.8,287.8,1220,287.6 M1195.2,299.4c-4,0-7.3-3.3-7.3-7.3s3.3-7.3,7.3-7.3c4,0,7.3,3.3,7.3,7.3
	S1199.3,299.4,1195.2,299.4"/>
<path class="st4" d="M1198.4,318.4h-4.3c-1.2,0-2.2-0.8-2.4-2l-0.8-4.2c-1.8-0.4-3.5-1-5.1-1.8l-3.7,2.5c-1,0.7-2.3,0.5-3.1-0.3
	l-3-3c-0.8-0.8-1-2.2-0.3-3.1l2.2-3.2c-0.7-1-1.2-2.1-1.7-3.2c-0.3-0.6-0.5-1.3-0.7-2.1l-4.1-0.8c-1.2-0.2-2-1.2-2-2.4v-4.3
	c0-1.2,0.8-2.2,2-2.4l3.8-0.7c0.4-1.9,1.2-3.6,2.1-5.3l-2.4-3.5c-0.7-1-0.5-2.3,0.3-3.1l3-3c0.8-0.8,2.2-1,3.1-0.3l3.4,2.3
	c0.9-0.5,1.7-0.9,2.5-1.3c0.7-0.3,1.5-0.6,2.5-0.8l0.9-4.5c0.2-1.2,1.2-2,2.4-2h4.3c1.2,0,2.2,0.8,2.4,2l0.9,4.5
	c1.6,0.4,3.1,1.1,4.5,1.8l4.2-2.8c1-0.7,2.3-0.5,3.1,0.3l3,3c0.8,0.8,1,2.2,0.3,3.1l-2.8,4.1c0.5,0.9,0.9,1.6,1.2,2.4
	c0.2,0.6,0.4,1.1,0.6,1.8l5.2,1c1.2,0.2,2,1.2,2,2.4v4.3c0,1.2-0.8,2.2-2,2.4l-4.9,0.9c-0.4,1.5-0.9,3-1.6,4.3l2.9,4.3
	c0.7,1,0.5,2.3-0.3,3.1l-3,3c-0.8,0.8-2.2,1-3.1,0.3l-3.9-2.6c-1,0.6-2.1,1.2-3.1,1.6c-0.5,0.2-0.9,0.3-1.4,0.5l-0.9,4.8
	C1200.6,317.5,1199.6,318.4,1198.4,318.4 M1185.7,308.7l0.4,0.2c1.7,0.9,3.6,1.6,5.6,2l0.5,0.1l1,5.1c0.1,0.5,0.5,0.9,1.1,0.9h4.3
	c0.5,0,1-0.4,1.1-0.9l1.1-5.6l0.4-0.1c0.6-0.2,1.1-0.4,1.6-0.6c1.1-0.5,2.2-1.1,3.3-1.8l0.4-0.3l4.6,3.2c0.4,0.3,1,0.2,1.4-0.1l3-3
	c0.4-0.4,0.4-0.9,0.1-1.4l-3.4-5l0.2-0.4c0.8-1.5,1.4-3.1,1.8-4.8l0.1-0.4l5.8-1.1c0.5-0.1,0.9-0.5,0.9-1.1v-4.3
	c0-0.5-0.4-1-0.9-1.1l-6-1.2l-0.1-0.4c-0.2-0.7-0.4-1.4-0.7-2c-0.3-0.8-0.8-1.7-1.4-2.6l-0.2-0.4l3.3-4.8c0.3-0.4,0.2-1-0.1-1.4
	l-3-3c-0.4-0.4-0.9-0.4-1.4-0.1l-4.9,3.3l-0.4-0.2c-1.6-0.9-3.2-1.6-5-2l-0.4-0.1l-1-5.4c-0.1-0.5-0.5-0.9-1.1-0.9h-4.3
	c-0.5,0-1,0.4-1.1,0.9l-1,5.4l-0.4,0.1c-1.1,0.3-1.9,0.5-2.7,0.9c-0.9,0.4-1.7,0.8-2.7,1.4l-0.4,0.2l-4.2-2.9
	c-0.4-0.3-1-0.2-1.4,0.1l-3,3c-0.4,0.4-0.4,0.9-0.1,1.4l2.9,4.2l-0.2,0.4c-1.1,1.8-1.8,3.7-2.3,5.8l-0.1,0.5l-4.7,0.9
	c-0.5,0.1-0.9,0.5-0.9,1.1v4.3c0,0.5,0.4,1,0.9,1.1l4.9,0.9l0.1,0.4c0.2,0.9,0.5,1.6,0.8,2.3c0.5,1.2,1.1,2.3,1.8,3.4l0.3,0.4
	l-2.7,4c-0.3,0.4-0.2,1,0.1,1.4l3,3c0.4,0.4,0.9,0.4,1.4,0.1L1185.7,308.7z M1195.2,300.1c-4.4,0-8-3.6-8-8c0-4.4,3.6-8,8-8
	s8,3.6,8,8C1203.3,296.5,1199.7,300.1,1195.2,300.1 M1195.2,285.4c-3.7,0-6.6,3-6.6,6.6c0,3.7,3,6.6,6.6,6.6c3.7,0,6.6-3,6.6-6.6
	C1201.9,288.4,1198.9,285.4,1195.2,285.4"/>
<path class="st0" d="M1263.7,158.1h-25.1c-0.9,0-1.6-0.7-1.6-1.6c0-0.9,0.7-1.6,1.6-1.6h25.1c0.9,0,1.6,0.7,1.6,1.6
	C1265.3,157.3,1264.6,158.1,1263.7,158.1"/>
<path class="st0" d="M1265.7,180.5h-12.8c-0.9,0-1.6-0.7-1.6-1.6c0-0.9,0.7-1.6,1.6-1.6h12.8c0.9,0,1.6,0.7,1.6,1.6
	C1267.3,179.8,1266.6,180.5,1265.7,180.5"/>
<path class="st0" d="M1286.5,169.4h-57.6c-0.9,0-1.6-0.7-1.6-1.6c0-0.9,0.7-1.6,1.6-1.6h57.6c0.9,0,1.6,0.7,1.6,1.6
	C1288.1,168.7,1287.4,169.4,1286.5,169.4"/>
<path class="st0" d="M1019.3,520.2h-6.3c-0.9,0-1.6-0.7-1.6-1.6c0-0.9,0.7-1.6,1.6-1.6h6.3c0.9,0,1.6,0.7,1.6,1.6
	C1020.9,519.4,1020.2,520.2,1019.3,520.2"/>
<path class="st0" d="M1042.5,299.4L1042.5,299.4l-22.7-0.2c-0.9,0-1.7-0.8-1.7-1.7c0-0.9,0.8-1.7,1.7-1.7h0l22.7,0.2
	c0.9,0,1.7,0.8,1.7,1.7C1044.2,298.6,1043.4,299.4,1042.5,299.4"/>
<path class="st0" d="M1067.4,323.3L1067.4,323.3l-46.3-0.2c-0.9,0-1.7-0.8-1.7-1.7c0-0.9,0.8-1.7,1.7-1.7h0l46.3,0.2
	c0.9,0,1.7,0.8,1.7,1.7C1069.1,322.5,1068.3,323.3,1067.4,323.3"/>
<path class="st0" d="M1029.5,310.3L1029.5,310.3l-33.4-0.3c-0.9,0-1.7-0.8-1.7-1.7c0-0.9,0.8-1.7,1.7-1.7h0l33.4,0.3
	c0.9,0,1.7,0.8,1.7,1.7C1031.2,309.6,1030.4,310.3,1029.5,310.3"/>
<path class="st0" d="M1000.9,298.9L1000.9,298.9l-8.8-0.2c-0.9,0-1.7-0.8-1.7-1.7c0-0.9,0.8-1.7,1.7-1.7l8.7,0.2
	c0.9,0,1.7,0.8,1.7,1.7C1002.5,298.2,1001.8,298.9,1000.9,298.9"/>
<path class="st1" d="M790.9,718.3c6.6,1.1,14.3-0.3,22.1-3.1c31.2-11.2,59.7-6,90.7,4.4c20.9,7,47.6,1.9,57.4-16.4
	c11.4-21.3,25.5-44.2,39.5-58.5c32-32.5,52.2-64.4,12.1-111c-40-46.6-32.4-101.3-64.6-127.6c-32.2-26.4-91.5-28.6-129.3,13.4"/>
<path class="st1" d="M818.8,419.4c-37.7,42-79.8,28.5-98.5,43.7c-22.5,18.3-50.5,70.6,0.3,115.8c11.6,10.3,17.2,26.3,14.4,42.3
	l-0.2,1c-8.1,46.4,16.9,89.5,56,96.1"/>
<path class="st0" d="M788.9,475.7c-0.9,0-1.7-0.7-1.7-1.7c0-0.9,0.7-1.7,1.7-1.7l16.5-0.2h0c0.9,0,1.7,0.7,1.7,1.7
	c0,0.9-0.7,1.7-1.7,1.7L788.9,475.7L788.9,475.7z"/>
<path class="st0" d="M800.3,452c-0.9,0-1.7-0.7-1.7-1.7c0-0.9,0.7-1.7,1.7-1.7l24.9-0.2h0c0.9,0,1.7,0.7,1.7,1.7
	c0,0.9-0.7,1.7-1.7,1.7L800.3,452L800.3,452z"/>
<path class="st0" d="M775.5,465c-0.9,0-1.7-0.7-1.7-1.7c0-0.9,0.7-1.7,1.7-1.7l33.2-0.3h0c0.9,0,1.7,0.7,1.7,1.7
	c0,0.9-0.7,1.7-1.7,1.7L775.5,465L775.5,465z"/>
<path class="st0" d="M915.6,711.9c-0.9,0-1.7-0.7-1.7-1.7c0-0.9,0.7-1.7,1.7-1.7l16.5-0.2h0c0.9,0,1.7,0.7,1.7,1.7
	c0,0.9-0.7,1.7-1.7,1.7L915.6,711.9L915.6,711.9z"/>
<path class="st0" d="M902.2,701.1c-0.9,0-1.7-0.7-1.7-1.7c0-0.9,0.7-1.7,1.7-1.7l33.2-0.3h0c0.9,0,1.7,0.7,1.7,1.7
	c0,0.9-0.7,1.7-1.7,1.7L902.2,701.1L902.2,701.1z"/>
<path class="st2" d="M994.8,676.9H742c-3.8,0-6.9-3.1-6.9-6.9V502.9c0-3.8,3.1-6.9,6.9-6.9h252.8c3.8,0,6.9,3.1,6.9,6.9V670
	C1001.7,673.8,998.6,676.9,994.8,676.9"/>
<path class="st0" d="M982.7,657.4H754.1c-3.3,0-5.9-2.6-5.9-5.9V517.4c0-3.3,2.6-5.9,5.9-5.9h228.6c3.3,0,5.9,2.6,5.9,5.9v134.1
	C988.6,654.7,985.9,657.4,982.7,657.4"/>
<path class="st3" d="M748.2,529.8h240.4v-12.4c0-3.3-2.6-5.9-5.9-5.9H754.1c-3.3,0-5.9,2.6-5.9,5.9V529.8z"/>
<path class="st4" d="M762.3,520.6c0,1.8-1.5,3.2-3.2,3.2c-1.8,0-3.2-1.4-3.2-3.2c0-1.8,1.5-3.2,3.2-3.2
	C760.9,517.5,762.3,518.9,762.3,520.6"/>
<path class="st4" d="M772.9,520.6c0,1.8-1.5,3.2-3.2,3.2c-1.8,0-3.2-1.4-3.2-3.2c0-1.8,1.5-3.2,3.2-3.2
	C771.5,517.5,772.9,518.9,772.9,520.6"/>
<path class="st4" d="M783.6,520.6c0,1.8-1.5,3.2-3.2,3.2c-1.8,0-3.2-1.4-3.2-3.2c0-1.8,1.5-3.2,3.2-3.2
	C782.1,517.5,783.6,518.9,783.6,520.6"/>
<path class="st4" d="M994.8,678.7H742c-4.8,0-8.7-3.9-8.7-8.7V502.9c0-4.8,3.9-8.7,8.7-8.7h252.8c4.8,0,8.7,3.9,8.7,8.7V670
	C1003.5,674.8,999.6,678.7,994.8,678.7 M742,497.9c-2.8,0-5.1,2.3-5.1,5.1V670c0,2.8,2.3,5.1,5.1,5.1h252.8c2.8,0,5.1-2.3,5.1-5.1
	V502.9c0-2.8-2.3-5.1-5.1-5.1H742z"/>
<path class="st4" d="M871.3,504.7c0,1.6-1.3,2.9-2.9,2.9c-1.6,0-2.9-1.3-2.9-2.9c0-1.6,1.3-2.9,2.9-2.9
	C870,501.7,871.3,503.1,871.3,504.7"/>
<path class="st4" d="M982.7,658.3H754.1c-3.7,0-6.8-3-6.8-6.8V517.4c0-3.7,3-6.8,6.8-6.8h228.6c3.7,0,6.8,3,6.8,6.8v134.1
	C989.5,655.2,986.4,658.3,982.7,658.3 M754.1,512.4c-2.8,0-5,2.2-5,5v134.1c0,2.8,2.2,5,5,5h228.6c2.8,0,5-2.2,5-5V517.4
	c0-2.8-2.2-5-5-5H754.1z"/>
<path class="st4" d="M988.6,530.7H748.2c-0.5,0-0.9-0.4-0.9-0.9c0-0.5,0.4-0.9,0.9-0.9h240.4c0.5,0,0.9,0.4,0.9,0.9
	C989.5,530.3,989.1,530.7,988.6,530.7"/>
<path class="st0" d="M948,673.8c2.8,0,5.2-2.1,5.2-4.9c0,0,0,0,0-0.1c0-4.6-4.4-8.4-9.9-8.4c-1,0-2.1,0.1-3,0.4
	c-1-8.3-8.1-14.8-16.7-14.8c-1.9,0-3.7,0.3-5.4,0.9c0.6-3,0.7-6.2,0-9.6c-2-9.6-9.8-17.1-19.4-18.6c-5.9-0.9-11.5,0.3-16.1,3.1
	l-9.4-40.9h-19.8l-4.4,44.6c-1.9-1.2-4.2-1.9-6.7-1.9c-6.5,0-11.8,4.8-12.6,11c-3.3-1.5-7-2.3-10.9-2.3c-13.8,0-25.1,10.5-26.5,23.9
	c-1.8-0.2-3.8,0.1-5.9,1.2c-3.3,1.8-5.7,5.1-5.8,8.9c-0.1,1.6,0.2,3.2,0.8,4.6c0.8,1.9,2.7,3,4.7,3H948z"/>
<path class="st4" d="M780.6,667.2c-0.3,0-0.5-0.2-0.5-0.5c0-6.2,5-11.2,11.2-11.2c4.1,0,7.9,2.2,9.8,5.8c0.1,0.3,0,0.6-0.2,0.7
	c-0.3,0.1-0.6,0-0.7-0.2c-1.8-3.3-5.2-5.3-8.9-5.3c-5.6,0-10.1,4.5-10.1,10.1C781.2,666.9,780.9,667.2,780.6,667.2"/>
<path class="st4" d="M953.2,669.3c-0.3,0-0.5-0.2-0.5-0.5c0-4.3-4.2-7.9-9.3-7.9c-5.2,0-9.3,3.5-9.3,7.9c0,0.3-0.2,0.5-0.5,0.5
	c-0.3,0-0.5-0.2-0.5-0.5c0-4.9,4.7-8.9,10.4-8.9c5.7,0,10.4,4,10.4,8.9C953.8,669,953.5,669.3,953.2,669.3"/>
<path class="st4" d="M918.7,642.6c-0.3,0-0.5-0.2-0.5-0.5c0-12.8-10.4-23.3-23.3-23.3c-6.2,0-12.1,2.4-16.5,6.9
	c-0.2,0.2-0.5,0.2-0.8,0c-0.2-0.2-0.2-0.5,0-0.8c4.6-4.6,10.7-7.2,17.3-7.2c13.4,0,24.3,10.9,24.3,24.3
	C919.3,642.4,919,642.6,918.7,642.6"/>
<path class="st4" d="M906.8,663.3c-0.3,0-0.5-0.2-0.5-0.5c0-9.6,7.8-17.3,17.3-17.3c8.8,0,16.2,6.6,17.2,15.4c0,0.3-0.2,0.6-0.5,0.6
	c-0.3,0-0.6-0.2-0.6-0.5c-0.9-8.2-7.9-14.4-16.2-14.4c-9,0-16.3,7.3-16.3,16.3C907.4,663,907.1,663.3,906.8,663.3"/>
<path class="st4" d="M792.4,656.2C792.4,656.2,792.4,656.2,792.4,656.2c-0.4,0-0.6-0.3-0.5-0.6c1.7-13.6,13.3-23.9,27-23.9
	c6.6,0,13,2.4,18,6.8c0.2,0.2,0.2,0.5,0.1,0.8c-0.2,0.2-0.5,0.2-0.8,0c-4.8-4.2-10.9-6.5-17.3-6.5c-13.2,0-24.4,9.9-26,23
	C792.9,656,792.7,656.2,792.4,656.2"/>
<path class="st4" d="M948,674.3H786.1c-2.3,0-4.4-1.3-5.2-3.4c-0.6-1.5-0.9-3.1-0.8-4.8c0.2-3.8,2.5-7.4,6.1-9.3
	c1.8-1,3.7-1.4,5.7-1.3c1.7-13.6,13.2-23.8,27-23.8c3.6,0,7.1,0.7,10.5,2.1c1.2-6.2,6.7-10.8,13.1-10.8c2.2,0,4.3,0.5,6.2,1.5
	l4.3-43.7c0-0.3,0.3-0.5,0.5-0.5h19.8c0.3,0,0.5,0.2,0.5,0.4l9.3,40.2c4.8-2.7,10.3-3.7,15.8-2.8c9.9,1.6,17.9,9.2,19.9,19.1
	c0.6,3,0.7,6,0.2,8.9c1.5-0.4,3.1-0.7,4.7-0.7c8.6,0,15.8,6.3,17.1,14.7c0.8-0.2,1.7-0.3,2.6-0.3c5.7,0,10.4,4,10.4,8.9
	C953.7,671.9,951.2,674.3,948,674.3 M791.3,656.6c-1.6,0-3.1,0.4-4.5,1.2c-3.3,1.7-5.4,5-5.6,8.4c-0.1,1.5,0.2,3,0.7,4.3
	c0.7,1.6,2.4,2.7,4.2,2.7H948c2.5,0,4.6-2,4.6-4.4c0-4.4-4.2-7.9-9.3-7.9c-1,0-1.9,0.1-2.9,0.4c-0.1,0-0.3,0-0.4-0.1
	c-0.1-0.1-0.2-0.2-0.2-0.4c-1-8.2-7.9-14.3-16.1-14.3c-1.8,0-3.5,0.3-5.2,0.9c-0.2,0.1-0.4,0-0.5-0.1c-0.1-0.1-0.2-0.3-0.2-0.5
	c0.6-3.1,0.6-6.2,0-9.4c-1.9-9.4-9.6-16.7-19-18.2c-5.5-0.9-11,0.2-15.7,3c-0.1,0.1-0.3,0.1-0.5,0c-0.2-0.1-0.3-0.2-0.3-0.4
	l-9.3-40.5h-18.9l-4.3,44.1c0,0.2-0.1,0.3-0.3,0.4c-0.2,0.1-0.4,0.1-0.5,0c-1.9-1.2-4.1-1.8-6.4-1.8c-6.1,0-11.3,4.5-12.1,10.6
	c0,0.2-0.1,0.3-0.3,0.4c-0.1,0.1-0.3,0.1-0.5,0c-3.4-1.5-7-2.3-10.7-2.3c-13.4,0-24.6,10.1-26,23.4c0,0.3-0.3,0.5-0.6,0.5
	C792,656.6,791.6,656.6,791.3,656.6"/>
<path class="st19" d="M830.1,535.6L846,517l19.4,60.8c-19.5-9.6-42.4-8.8-61.2,2.1l-16.4,9.5l2.6-30
	C805.9,556,819.8,547.7,830.1,535.6"/>
<path class="st19" d="M900.8,535.6L884.9,517l-19.4,60.8c19.5-9.6,42.4-8.8,61.2,2.1l16.4,9.5l-2.6-30
	C925,556,911.1,547.7,900.8,535.6"/>
<path class="st15" d="M875.2,584.2H854c-4,0-7.3-3.3-7.3-7.3v-0.9h35.7v0.9C882.4,581,879.2,584.2,875.2,584.2"/>
<path class="st4" d="M787.9,590.4c-0.2,0-0.4-0.1-0.5-0.2c-0.3-0.2-0.5-0.5-0.5-0.9l2.6-30c0-0.4,0.3-0.8,0.8-0.9
	c15.1-3.3,29-11.7,39.1-23.5v0l15.9-18.7c0.2-0.3,0.6-0.4,0.9-0.3c0.3,0.1,0.6,0.3,0.7,0.7l19.4,60.8c0.1,0.4,0,0.8-0.3,1
	c-0.3,0.3-0.7,0.3-1.1,0.1c-19.2-9.4-41.7-8.7-60.3,2.1l-16.4,9.5C788.2,590.3,788.1,590.4,787.9,590.4 M791.4,560.2l-2.4,27.4
	l14.8-8.6c18.4-10.7,40.7-11.8,60.1-3.1l-18.2-57l-14.8,17.3C820.7,548.2,806.7,556.7,791.4,560.2"/>
<path class="st4" d="M943,590.4c-0.2,0-0.3,0-0.5-0.1l-16.4-9.5c-18.5-10.8-41-11.5-60.3-2.1c-0.3,0.2-0.8,0.1-1.1-0.1
	c-0.3-0.3-0.4-0.7-0.3-1l19.4-60.8c0.1-0.3,0.4-0.6,0.7-0.7c0.4-0.1,0.7,0.1,0.9,0.3l15.9,18.7c10.1,11.8,23.9,20.1,39.1,23.5
	c0.4,0.1,0.7,0.4,0.8,0.9l2.6,30c0,0.4-0.1,0.7-0.4,0.9C943.4,590.3,943.2,590.4,943,590.4 M894.1,570.1c11.4,0,22.8,3,33.1,8.9
	l14.8,8.6l-2.4-27.4c-15.3-3.5-29.3-12-39.4-23.9l-14.8-17.3l-18.2,57C875.7,572,884.9,570.1,894.1,570.1"/>
<path class="st3" d="M881.6,576.7c9.8-19.5,16.3-54.1,16.3-88c0-51.2-33.4-88-33.4-88s-33.4,36.7-33.4,88c0,33.8,6.5,68.3,16.3,87.9
	C858.7,578.1,870.2,578.1,881.6,576.7"/>
<path class="st19" d="M864.5,400.8c0,0-1.3,1.5-3.5,4.3c8.6,11.1,29.9,42.8,29.9,83.7c0,28-4.5,56.5-11.6,76.6
	c-2.5,7.1-9.2,12-16.8,12.3c-0.4,0-0.8,0-1.1,0c6.7,0.2,13.5-0.2,20.2-1c9.8-19.5,16.3-54.1,16.3-88
	C897.9,437.5,864.5,400.8,864.5,400.8"/>
<path class="st20" d="M890.3,446c-9.9-27.7-25.8-45.2-25.8-45.2s-15.8,17.4-25.7,44.9C855.8,442.8,873.3,442.9,890.3,446"/>
<path class="st14" d="M864.5,400.8C864.5,400.8,864.4,400.8,864.5,400.8C864.4,400.9,864.4,400.9,864.5,400.8
	c-0.1,0.1-0.1,0.1-0.1,0.1c0,0,0,0,0,0c-0.4,0.4-1.4,1.6-3,3.6c0,0,0,0,0,0c-0.1,0.2-0.2,0.3-0.4,0.5c0,0,0,0,0,0
	c5.2,6.6,14.9,20.7,21.9,39.8c2.5,0.3,5,0.7,7.4,1.2c0,0,0,0,0,0c-0.1-0.4-0.3-0.7-0.4-1.1c-0.1-0.2-0.1-0.3-0.2-0.5
	c-0.4-1.1-0.8-2.2-1.3-3.3c-0.1-0.1-0.1-0.3-0.2-0.4c-0.1-0.4-0.3-0.7-0.4-1.1c0,0,0-0.1,0-0.1c-0.3-0.7-0.6-1.4-0.9-2.1
	c0-0.1-0.1-0.2-0.1-0.3c-0.2-0.4-0.3-0.7-0.5-1.1c0-0.1-0.1-0.1-0.1-0.2c-0.3-0.7-0.6-1.4-1-2.2c0,0,0,0,0,0
	c-0.2-0.4-0.3-0.7-0.5-1.1c0-0.1-0.1-0.1-0.1-0.2c-0.5-1.1-1-2.1-1.5-3.1c0-0.1-0.1-0.1-0.1-0.2c-0.5-1-1-2-1.5-3c0,0,0-0.1-0.1-0.1
	c-0.5-1-1.1-2-1.6-2.9c0,0,0,0,0,0c-1.3-2.2-2.5-4.3-3.7-6.3c0,0,0,0,0,0c-0.5-0.8-1-1.6-1.5-2.4c0,0,0,0,0,0
	c-0.5-0.8-1-1.5-1.5-2.2c0,0,0,0,0,0c-0.6-0.9-1.3-1.8-1.9-2.7c0,0,0,0,0,0c-0.4-0.6-0.9-1.2-1.3-1.8c0,0,0-0.1-0.1-0.1
	c-0.4-0.5-0.8-1-1.1-1.5c0,0-0.1-0.1-0.1-0.1c-0.3-0.5-0.7-0.9-1-1.3c0,0-0.1-0.1-0.1-0.1c-0.1-0.1-0.2-0.3-0.3-0.4c0,0,0,0,0,0
	c-0.2-0.2-0.4-0.4-0.5-0.7c0,0-0.1-0.1-0.1-0.1c-0.1-0.1-0.2-0.2-0.2-0.3c0,0-0.1-0.1-0.1-0.1c-0.1-0.2-0.2-0.3-0.4-0.4
	c0,0-0.1-0.1-0.1-0.1c-0.1-0.1-0.1-0.1-0.2-0.2c0,0-0.1-0.1-0.1-0.1c-0.1-0.1-0.2-0.2-0.2-0.3c0,0-0.1-0.1-0.1-0.1
	c0-0.1-0.1-0.1-0.1-0.1c0,0-0.1-0.1-0.1-0.1c0,0-0.1-0.1-0.1-0.1c-0.1-0.1-0.1-0.1-0.2-0.2c0,0,0-0.1-0.1-0.1c0,0-0.1-0.1-0.1-0.1
	c0,0,0,0-0.1-0.1c0,0-0.1-0.1-0.1-0.1C864.6,400.9,864.6,400.9,864.5,400.8C864.5,400.9,864.5,400.8,864.5,400.8
	C864.5,400.8,864.5,400.8,864.5,400.8C864.5,400.8,864.5,400.8,864.5,400.8C864.5,400.8,864.5,400.8,864.5,400.8
	C864.5,400.8,864.5,400.8,864.5,400.8"/>
<path class="st18" d="M841.8,438c15.1-2.3,30.4-2.2,45.5,0.3c-9.8-23.2-22.8-37.5-22.8-37.5S851.6,415,841.8,438"/>
<path class="st18" d="M790.9,595c0,6.4-8.5,27.2-8.5,27.2S774,601.4,774,595c0-6.4,3.8-11.6,8.5-11.6S790.9,588.6,790.9,595"/>
<path class="st10" d="M791,593h-17.4c-0.3,0-0.6-0.2-0.6-0.5v-2.9c0-0.3,0.2-0.5,0.6-0.5H791c0.3,0,0.6,0.2,0.6,0.5v2.9
	C791.6,592.8,791.3,593,791,593"/>
<path class="st3" d="M791.6,589.4c5.2-9.5,8.7-26.2,8.7-42.6c0-24.8-17.9-42.6-17.9-42.6s-17.9,17.8-17.9,42.6
	c0,16.4,3.5,33.1,8.7,42.6C779.4,590,785.6,590.1,791.6,589.4"/>
<path class="st19" d="M781.5,505.2l-0.8,0.9c0,0,0,0,0,0c4.6,5.4,16,20.7,16,40.6c0,16.4-3.5,33.2-8.7,42.6c-2.3,0.3-4.7,0.4-7,0.5
	c3.6,0.1,7.2-0.1,10.8-0.5c5.2-9.5,8.7-26.2,8.7-42.6c0-21.2-13-37.3-16.8-41.5C783,504.6,782,504.6,781.5,505.2"/>
<path class="st20" d="M797.9,530.6c-4.9-16-15.4-26.4-15.4-26.4s-10.4,10.3-15.3,26.2C777.4,528.9,787.7,529,797.9,530.6"/>
<path class="st18" d="M796.5,526.6c-5.3-13.8-14-22.5-14-22.5s-8.7,8.7-13.9,22.3C777.9,525.4,787.2,525.5,796.5,526.6"/>
<path class="st14" d="M780.6,506.2c3.2,3.7,9.7,12.3,13.3,23.9c1.3,0.1,2.6,0.3,3.9,0.5l0,0c-0.1-0.5-0.3-0.9-0.4-1.4
	c0-0.1,0-0.1-0.1-0.2c-0.1-0.4-0.3-0.9-0.5-1.3c0,0,0-0.1,0-0.1c-0.3-0.9-0.7-1.8-1-2.7c0,0,0-0.1,0-0.1c-0.2-0.4-0.3-0.8-0.5-1.2
	c0-0.1,0-0.1-0.1-0.2c-0.2-0.4-0.4-0.8-0.5-1.2c0,0,0-0.1-0.1-0.1c-0.2-0.4-0.4-0.8-0.6-1.2c0,0,0-0.1,0-0.1
	c-0.4-0.8-0.8-1.6-1.2-2.3c0,0,0-0.1,0-0.1c-0.2-0.4-0.4-0.7-0.6-1.1c0,0,0-0.1-0.1-0.1c-0.2-0.3-0.4-0.7-0.6-1c0,0,0-0.1-0.1-0.1
	c-0.2-0.3-0.4-0.7-0.6-1c0,0,0,0,0,0c-0.4-0.7-0.8-1.3-1.2-1.9c0,0,0-0.1-0.1-0.1c-0.2-0.3-0.4-0.6-0.6-0.9c0,0,0-0.1-0.1-0.1
	c-0.2-0.3-0.4-0.5-0.6-0.8c0,0,0-0.1-0.1-0.1c-0.2-0.3-0.4-0.5-0.6-0.8c0,0,0,0,0,0c-0.2-0.3-0.4-0.5-0.6-0.8c0,0,0,0,0,0
	c-0.2-0.2-0.4-0.5-0.5-0.7c0,0,0,0-0.1-0.1c-0.2-0.2-0.3-0.4-0.5-0.6c0,0,0-0.1-0.1-0.1c-0.2-0.2-0.3-0.4-0.5-0.6c0,0,0,0,0-0.1
	c-0.2-0.2-0.3-0.4-0.5-0.6c0,0,0,0,0,0c-0.2-0.2-0.3-0.4-0.4-0.5c0,0,0,0,0,0c-0.1-0.2-0.3-0.3-0.4-0.5c0,0,0,0,0-0.1
	c-0.1-0.1-0.2-0.3-0.3-0.4c0,0,0,0,0-0.1c-0.8-0.9-1.3-1.4-1.3-1.4S781.8,504.8,780.6,506.2"/>
<path class="st21" d="M795.9,525.1c-0.1-0.3-0.2-0.5-0.3-0.8c-0.1-0.1-0.1-0.3-0.2-0.4c-0.1-0.3-0.2-0.5-0.4-0.8
	c0-0.1-0.1-0.2-0.1-0.3c-0.2-0.4-0.3-0.7-0.5-1.1c0,0,0-0.1-0.1-0.1c-0.2-0.3-0.3-0.6-0.5-0.9c-0.1-0.1-0.1-0.2-0.2-0.3
	c-0.1-0.3-0.3-0.5-0.4-0.7c-0.1-0.1-0.1-0.2-0.2-0.3c-0.1-0.3-0.3-0.5-0.4-0.8c0-0.1-0.1-0.1-0.1-0.2c-0.2-0.3-0.4-0.7-0.5-1
	c0,0,0-0.1-0.1-0.1c-0.2-0.3-0.3-0.5-0.5-0.8c0-0.1-0.1-0.2-0.1-0.2c-0.1-0.2-0.3-0.5-0.4-0.7c0-0.1-0.1-0.2-0.1-0.2
	c-0.2-0.3-0.3-0.5-0.5-0.8c0,0,0-0.1,0-0.1c-0.2-0.3-0.4-0.6-0.6-0.9c0,0-0.1-0.1-0.1-0.1c-0.2-0.2-0.3-0.5-0.4-0.7
	c0-0.1-0.1-0.1-0.1-0.2c-0.1-0.2-0.3-0.4-0.4-0.6c0-0.1-0.1-0.1-0.1-0.2c-0.3-0.5-0.7-1-1-1.4c0-0.1-0.1-0.1-0.1-0.2
	c-0.1-0.2-0.2-0.3-0.4-0.5c0-0.1-0.1-0.1-0.1-0.2c-0.1-0.2-0.2-0.3-0.3-0.5c0-0.1-0.1-0.1-0.1-0.2c-0.2-0.2-0.3-0.4-0.4-0.6
	c0,0,0,0-0.1-0.1c-0.1-0.2-0.3-0.3-0.4-0.5c-0.1-0.1-0.1-0.1-0.2-0.2c-0.1-0.1-0.2-0.2-0.2-0.3c-0.1-0.1-0.1-0.1-0.2-0.2
	c-0.1-0.1-0.1-0.2-0.2-0.2c-0.1-0.1-0.1-0.1-0.2-0.2c-0.1-0.1-0.1-0.1-0.2-0.2c-0.1-0.2-0.3-0.3-0.4-0.4c0,0-0.1-0.1-0.1-0.1
	c-0.1-0.1-0.1-0.2-0.2-0.3c0,0,0,0-0.1-0.1c-0.1-0.1-0.1-0.2-0.2-0.2l0,0c-0.7-0.7-1-1.1-1-1.1s-0.4,0.4-1,1.1
	c-0.2,0.3-0.5,0.6-0.8,1l0,0c2.8,3.3,8.2,10.4,12,20c0.6,0.1,1.3,0.1,1.9,0.2c0,0,0,0,0.1,0c0.6,0.1,1.3,0.1,1.9,0.2
	c-0.2-0.4-0.3-0.8-0.5-1.2C796,525.3,795.9,525.2,795.9,525.1"/>
<path class="st4" d="M782.7,590.9c-3.2,0-6.3-0.2-9.5-0.5l-0.5-0.1l-0.2-0.4c-5.4-9.7-8.8-26.6-8.8-43.1c0-25,18-43.1,18.2-43.3
	l0.7-0.7l0.7,0.7c0.2,0.2,18.2,18.4,18.2,43.3c0,16.5-3.5,33.4-8.9,43.1l-0.2,0.4l-0.5,0.1C788.7,590.7,785.7,590.9,782.7,590.9
	 M773.9,588.4c5.7,0.6,11.4,0.6,17.1,0c5.1-9.5,8.4-25.8,8.4-41.7c0-21.3-13.6-37.6-16.9-41.2c-3.3,3.6-16.9,19.9-16.9,41.2
	C765.6,562.6,768.9,578.9,773.9,588.4"/>
<path class="st18" d="M956.8,595c0,6.4-8.5,27.2-8.5,27.2s-8.5-20.8-8.5-27.2c0-6.4,3.8-11.6,8.5-11.6S956.8,588.6,956.8,595"/>
<path class="st10" d="M956.9,593h-17.4c-0.3,0-0.6-0.2-0.6-0.5v-2.9c0-0.3,0.2-0.5,0.6-0.5h17.4c0.3,0,0.6,0.2,0.6,0.5v2.9
	C957.5,592.8,957.2,593,956.9,593"/>
<path class="st3" d="M957.5,589.4c5.2-9.5,8.7-26.2,8.7-42.6c0-24.8-17.9-42.6-17.9-42.6s-17.9,17.8-17.9,42.6
	c0,16.4,3.5,33.1,8.7,42.6C945.3,590,951.5,590.1,957.5,589.4"/>
<path class="st19" d="M947.4,505.2l-0.8,0.9c0,0,0,0,0,0c4.6,5.4,16,20.7,16,40.6c0,16.4-3.5,33.2-8.7,42.6c-2.3,0.3-4.7,0.4-7,0.5
	c3.6,0.1,7.2-0.1,10.8-0.5c5.2-9.5,8.7-26.2,8.7-42.6c0-21.2-13-37.3-16.8-41.5C948.9,504.6,947.9,504.6,947.4,505.2"/>
<path class="st20" d="M963.8,530.6c-4.9-16-15.4-26.4-15.4-26.4s-10.4,10.3-15.3,26.2C943.3,528.9,953.6,529,963.8,530.6"/>
<path class="st18" d="M962.4,526.6c-5.3-13.8-14-22.5-14-22.5s-8.7,8.7-13.9,22.3C943.8,525.4,953.1,525.5,962.4,526.6"/>
<path class="st14" d="M946.5,506.2c3.2,3.7,9.7,12.3,13.3,23.9c1.3,0.1,2.6,0.3,3.9,0.5l0,0c-0.1-0.5-0.3-0.9-0.4-1.4
	c0-0.1,0-0.1-0.1-0.2c-0.1-0.4-0.3-0.9-0.5-1.3c0,0,0-0.1,0-0.1c-0.3-0.9-0.7-1.8-1-2.7c0,0,0-0.1,0-0.1c-0.2-0.4-0.3-0.8-0.5-1.2
	c0-0.1,0-0.1-0.1-0.2c-0.2-0.4-0.4-0.8-0.5-1.2c0,0,0-0.1-0.1-0.1c-0.2-0.4-0.4-0.8-0.6-1.2c0,0,0-0.1,0-0.1
	c-0.4-0.8-0.8-1.6-1.2-2.3c0,0,0-0.1,0-0.1c-0.2-0.4-0.4-0.7-0.6-1.1c0,0,0-0.1-0.1-0.1c-0.2-0.3-0.4-0.7-0.6-1c0,0,0-0.1-0.1-0.1
	c-0.2-0.3-0.4-0.7-0.6-1c0,0,0,0,0,0c-0.4-0.7-0.8-1.3-1.2-1.9c0,0,0-0.1-0.1-0.1c-0.2-0.3-0.4-0.6-0.6-0.9c0,0,0-0.1-0.1-0.1
	c-0.2-0.3-0.4-0.5-0.6-0.8c0,0,0-0.1-0.1-0.1c-0.2-0.3-0.4-0.5-0.6-0.8c0,0,0,0,0,0c-0.2-0.3-0.4-0.5-0.6-0.8c0,0,0,0,0,0
	c-0.2-0.2-0.4-0.5-0.5-0.7c0,0,0,0-0.1-0.1c-0.2-0.2-0.3-0.4-0.5-0.6c0,0,0-0.1-0.1-0.1c-0.2-0.2-0.3-0.4-0.5-0.6c0,0,0,0,0-0.1
	c-0.2-0.2-0.3-0.4-0.5-0.6c0,0,0,0,0,0c-0.2-0.2-0.3-0.4-0.4-0.5c0,0,0,0,0,0c-0.1-0.2-0.3-0.3-0.4-0.5c0,0,0,0,0-0.1
	c-0.1-0.1-0.2-0.3-0.3-0.4c0,0,0,0,0-0.1c-0.8-0.9-1.3-1.4-1.3-1.4S947.7,504.8,946.5,506.2"/>
<path class="st21" d="M961.8,525.1c-0.1-0.3-0.2-0.5-0.3-0.8c-0.1-0.1-0.1-0.3-0.2-0.4c-0.1-0.3-0.2-0.5-0.4-0.8
	c0-0.1-0.1-0.2-0.1-0.3c-0.2-0.4-0.3-0.7-0.5-1.1c0,0,0-0.1-0.1-0.1c-0.2-0.3-0.3-0.6-0.5-0.9c-0.1-0.1-0.1-0.2-0.2-0.3
	c-0.1-0.3-0.3-0.5-0.4-0.7c-0.1-0.1-0.1-0.2-0.2-0.3c-0.1-0.3-0.3-0.5-0.4-0.8c0-0.1-0.1-0.1-0.1-0.2c-0.2-0.3-0.4-0.7-0.5-1
	c0,0,0-0.1-0.1-0.1c-0.2-0.3-0.3-0.5-0.5-0.8c0-0.1-0.1-0.2-0.1-0.2c-0.1-0.2-0.3-0.5-0.4-0.7c0-0.1-0.1-0.2-0.1-0.2
	c-0.2-0.3-0.3-0.5-0.5-0.8c0,0,0-0.1,0-0.1c-0.2-0.3-0.4-0.6-0.6-0.9c0,0-0.1-0.1-0.1-0.1c-0.2-0.2-0.3-0.5-0.4-0.7
	c0-0.1-0.1-0.1-0.1-0.2c-0.1-0.2-0.3-0.4-0.4-0.6c0-0.1-0.1-0.1-0.1-0.2c-0.3-0.5-0.7-1-1-1.4c0-0.1-0.1-0.1-0.1-0.2
	c-0.1-0.2-0.3-0.3-0.4-0.5c0-0.1-0.1-0.1-0.1-0.2c-0.1-0.2-0.2-0.3-0.3-0.5c0-0.1-0.1-0.1-0.1-0.2c-0.2-0.2-0.3-0.4-0.4-0.6
	c0,0,0,0-0.1-0.1c-0.1-0.2-0.3-0.3-0.4-0.5c-0.1-0.1-0.1-0.1-0.2-0.2c-0.1-0.1-0.2-0.2-0.2-0.3c-0.1-0.1-0.1-0.1-0.2-0.2
	c-0.1-0.1-0.1-0.2-0.2-0.2c-0.1-0.1-0.1-0.1-0.2-0.2c-0.1-0.1-0.1-0.1-0.2-0.2c-0.1-0.2-0.3-0.3-0.4-0.4c0,0-0.1-0.1-0.1-0.1
	c-0.1-0.1-0.1-0.2-0.2-0.3c0,0,0,0-0.1-0.1c-0.1-0.1-0.1-0.2-0.2-0.2l0,0c-0.7-0.7-1-1.1-1-1.1s-0.4,0.4-1,1.1
	c-0.2,0.3-0.5,0.6-0.8,1c0,0,0,0,0,0c2.8,3.3,8.2,10.4,12,20c0.6,0.1,1.3,0.1,1.9,0.2c0,0,0,0,0.1,0c0.6,0.1,1.3,0.1,1.9,0.2
	c-0.2-0.4-0.3-0.8-0.5-1.2C961.9,525.3,961.9,525.2,961.8,525.1"/>
<path class="st4" d="M948.6,590.9c-3.2,0-6.3-0.2-9.5-0.5l-0.5-0.1l-0.2-0.4c-5.4-9.7-8.8-26.6-8.8-43.1c0-25,18-43.1,18.2-43.3
	l0.7-0.7l0.7,0.7c0.2,0.2,18.2,18.4,18.2,43.3c0,16.5-3.5,33.4-8.9,43.1l-0.2,0.4l-0.5,0.1C954.7,590.7,951.6,590.9,948.6,590.9
	 M939.9,588.4c5.7,0.6,11.4,0.6,17.1,0c5.1-9.5,8.4-25.8,8.4-41.7c0-21.3-13.6-37.6-16.9-41.2c-3.3,3.6-16.9,19.9-16.9,41.2
	C931.5,562.6,934.8,578.9,939.9,588.4"/>
<path class="st21" d="M879.8,437.3c2.5,0.3,5,0.6,7.4,1c-7.5-17.7-16.9-30.3-20.9-35.2c0,0,0,0,0,0c-0.2-0.3-0.4-0.5-0.6-0.8
	c0,0,0,0-0.1-0.1c-0.1-0.1-0.2-0.2-0.3-0.4c0,0,0,0,0-0.1c0-0.1-0.1-0.1-0.1-0.2c0,0-0.1-0.1-0.1-0.1c-0.1-0.1-0.1-0.1-0.2-0.2
	c0,0-0.1-0.1-0.1-0.1c0,0-0.1-0.1-0.1-0.1c0,0-0.1-0.1-0.1-0.1c0,0,0,0,0-0.1c0,0,0-0.1-0.1-0.1c0,0,0,0,0,0
	c-0.1-0.1-0.1-0.1-0.1-0.1s0,0,0,0c0,0,0,0,0,0c0,0,0,0,0,0c-0.1,0.1-0.2,0.2-0.3,0.4c0,0,0,0,0,0c-0.2,0.2-0.5,0.5-0.8,0.9
	c0,0,0,0,0,0c-0.2,0.2-0.4,0.4-0.5,0.7c0,0,0,0,0,0c-0.1,0.1-0.2,0.2-0.3,0.4c0,0,0,0,0,0.1c-0.1,0.1-0.2,0.2-0.3,0.4c0,0,0,0,0,0
	c-0.1,0.1-0.2,0.3-0.3,0.4c0,0,0,0,0,0c-0.1,0.1-0.2,0.3-0.3,0.4c0,0-0.1,0.1-0.1,0.1c-0.1,0.1-0.2,0.2-0.2,0.3c0,0-0.1,0.1-0.1,0.1
	C865.4,410.8,873.3,422,879.8,437.3"/>
<path class="st4" d="M864.9,578.7c-5.9,0-11.8-0.4-17.7-1.1l-0.5-0.1l-0.2-0.5c-10-19.9-16.4-54.6-16.4-88.3
	c0-51,33.4-88.3,33.7-88.6l0.7-0.8l0.7,0.8c0.3,0.4,33.7,37.6,33.7,88.6c0,33.8-6.5,68.5-16.4,88.4l-0.2,0.5l-0.5,0.1
	C876.1,578.4,870.5,578.7,864.9,578.7 M848,575.7c10.9,1.4,22,1.4,33,0.1c9.7-19.7,16-53.8,16-87.1c0-46.1-27.6-80.7-32.5-86.5
	c-4.9,5.7-32.5,40.4-32.5,86.5C832,521.9,838.3,556,848,575.7"/>
<path class="st19" d="M886.3,485c0,12.3-9.9,22.2-22.2,22.2s-22.2-9.9-22.2-22.2s9.9-22.2,22.2-22.2S886.3,472.7,886.3,485"/>
<path class="st22" d="M879.5,485c0,8.5-6.9,15.5-15.5,15.5s-15.5-6.9-15.5-15.5s6.9-15.5,15.5-15.5S879.5,476.4,879.5,485"/>
<path class="st4" d="M864.1,502.1c-4.5,0-8.8-1.8-12.1-5c-3.3-3.3-5.1-7.6-5.1-12.2c0-9.4,7.7-17.1,17.1-17.1c4.5,0,8.8,1.8,12.1,5
	c3.3,3.3,5.1,7.6,5.1,12.2C881.2,494.4,873.5,502.1,864.1,502.1 M864,469.3c-8.6,0-15.6,7-15.6,15.6c0,4.2,1.7,8.2,4.7,11.2
	c3,2.9,6.9,4.5,11.1,4.5c8.6,0,15.6-7,15.6-15.6c0-4.2-1.7-8.2-4.7-11.2C872.1,470.9,868.1,469.3,864,469.3"/>
<path class="st4" d="M864.9,465.8c0,0.6-0.5,1.1-1.1,1.1c-0.6,0-1.1-0.5-1.1-1.1s0.5-1.1,1.1-1.1
	C864.4,464.7,864.9,465.2,864.9,465.8"/>
<path class="st4" d="M857.5,466.9c0.2,0.6,0,1.2-0.6,1.5c-0.6,0.2-1.2,0-1.5-0.6c-0.2-0.6,0-1.2,0.6-1.5
	C856.6,466.1,857.3,466.4,857.5,466.9"/>
<path class="st4" d="M851.1,470.8c0.4,0.4,0.4,1.1,0,1.6c-0.4,0.4-1.1,0.4-1.6,0c-0.4-0.4-0.4-1.1,0-1.6
	C850,470.4,850.7,470.4,851.1,470.8"/>
<path class="st4" d="M846.7,476.9c0.6,0.2,0.8,0.9,0.6,1.5c-0.2,0.6-0.9,0.8-1.5,0.6c-0.6-0.2-0.8-0.9-0.6-1.5
	C845.5,476.9,846.1,476.6,846.7,476.9"/>
<path class="st4" d="M844.9,484.1c0.6,0,1.1,0.5,1.1,1.1s-0.5,1.1-1.1,1.1s-1.1-0.5-1.1-1.1S844.3,484.1,844.9,484.1"/>
<path class="st4" d="M846,491.5c0.6-0.2,1.2,0,1.5,0.6c0.2,0.6,0,1.2-0.6,1.5c-0.6,0.2-1.2,0-1.5-0.6
	C845.2,492.4,845.5,491.8,846,491.5"/>
<path class="st4" d="M849.9,497.9c0.4-0.4,1.1-0.4,1.6,0c0.4,0.4,0.4,1.1,0,1.6c-0.4,0.4-1.1,0.4-1.6,0
	C849.5,499.1,849.5,498.3,849.9,497.9"/>
<path class="st4" d="M856,502.3c0.2-0.6,0.9-0.8,1.5-0.6c0.6,0.2,0.8,0.9,0.6,1.5c-0.2,0.6-0.9,0.8-1.5,0.6
	C856,503.6,855.7,502.9,856,502.3"/>
<path class="st4" d="M863.2,504.1c0-0.6,0.5-1.1,1.1-1.1c0.6,0,1.1,0.5,1.1,1.1s-0.5,1.1-1.1,1.1
	C863.7,505.2,863.2,504.7,863.2,504.1"/>
<path class="st4" d="M870.6,503c-0.2-0.6,0-1.2,0.6-1.5c0.6-0.2,1.2,0,1.5,0.6c0.2,0.6,0,1.2-0.6,1.5
	C871.5,503.8,870.9,503.5,870.6,503"/>
<path class="st4" d="M877,499.1c-0.4-0.4-0.4-1.1,0-1.6c0.4-0.4,1.1-0.4,1.6,0c0.4,0.4,0.4,1.1,0,1.6
	C878.2,499.5,877.5,499.5,877,499.1"/>
<path class="st4" d="M881.4,493.1c-0.6-0.2-0.8-0.9-0.6-1.5c0.2-0.6,0.9-0.8,1.5-0.6c0.6,0.2,0.8,0.9,0.6,1.5
	C882.7,493,882,493.3,881.4,493.1"/>
<path class="st4" d="M883.2,485.8c-0.6,0-1.1-0.5-1.1-1.1s0.5-1.1,1.1-1.1s1.1,0.5,1.1,1.1S883.8,485.8,883.2,485.8"/>
<path class="st4" d="M882.1,478.4c-0.6,0.2-1.2,0-1.5-0.6c-0.2-0.6,0-1.2,0.6-1.5c0.6-0.2,1.2,0,1.5,0.6
	C882.9,477.5,882.6,478.2,882.1,478.4"/>
<path class="st4" d="M878.2,472c-0.4,0.4-1.1,0.4-1.6,0c-0.4-0.4-0.4-1.1,0-1.6c0.4-0.4,1.1-0.4,1.6,0
	C878.6,470.9,878.6,471.6,878.2,472"/>
<path class="st4" d="M872.2,467.6c-0.2,0.6-0.9,0.8-1.5,0.6c-0.6-0.2-0.8-0.9-0.6-1.5c0.2-0.6,0.9-0.8,1.5-0.6
	C872.1,466.4,872.4,467,872.2,467.6"/>
<path class="st0" d="M876,481.3c-0.3,0-0.6-0.2-0.7-0.5c-0.6-1.6-1.6-3.1-2.8-4.4c-1.7-1.7-3.9-2.8-6.2-3.3
	c-0.4-0.1-0.7-0.5-0.6-0.9c0.1-0.4,0.5-0.7,0.9-0.6c2.6,0.5,5.1,1.8,7,3.7c1.4,1.4,2.5,3.1,3.2,4.9c0.1,0.4-0.1,0.8-0.4,0.9
	C876.2,481.3,876.1,481.3,876,481.3"/>
<path class="st4" d="M864.1,507.9c-12.6,0-22.9-10.3-22.9-22.9c0-12.6,10.3-22.9,22.9-22.9S887,472.3,887,485
	C887,497.6,876.7,507.9,864.1,507.9 M864.1,463.5c-11.8,0-21.5,9.6-21.5,21.5c0,11.8,9.6,21.5,21.5,21.5s21.5-9.6,21.5-21.5
	C885.5,473.1,875.9,463.5,864.1,463.5"/>
<path class="st19" d="M875.6,529c0,6.4-5.2,11.6-11.6,11.6c-6.4,0-11.6-5.2-11.6-11.6c0-6.4,5.2-11.6,11.6-11.6
	C870.5,517.4,875.6,522.6,875.6,529"/>
<path class="st22" d="M872.1,529c0,4.5-3.6,8.1-8.1,8.1c-4.5,0-8.1-3.6-8.1-8.1c0-4.5,3.6-8.1,8.1-8.1
	C868.5,520.9,872.1,524.6,872.1,529"/>
<path class="st4" d="M864.1,537.9c-2.4,0-4.6-0.9-6.3-2.6c-1.7-1.7-2.7-4-2.7-6.4c0-4.9,4-8.9,8.9-8.9c2.4,0,4.6,0.9,6.3,2.6
	c1.7,1.7,2.7,4,2.7,6.4C873,534,869,537.9,864.1,537.9 M864,520.8c-4.5,0-8.1,3.7-8.1,8.1c0,2.2,0.9,4.3,2.4,5.8
	c1.5,1.5,3.6,2.4,5.8,2.4c4.5,0,8.1-3.6,8.1-8.1c0-2.2-0.9-4.3-2.4-5.8C868.2,521.7,866.2,520.8,864,520.8"/>
<path class="st0" d="M870.3,527.1c-0.2,0-0.3-0.1-0.4-0.2c-0.3-0.9-0.8-1.6-1.5-2.3c-0.9-0.9-2-1.5-3.3-1.7c-0.2,0-0.3-0.2-0.3-0.4
	c0-0.2,0.2-0.3,0.4-0.3c1.4,0.3,2.6,0.9,3.7,1.9c0.7,0.7,1.3,1.6,1.7,2.6c0.1,0.2,0,0.4-0.2,0.5
	C870.4,527.1,870.3,527.1,870.3,527.1"/>
<path class="st4" d="M864.1,541c-6.6,0-12-5.4-12-12s5.4-12,12-12s12,5.4,12,12S870.7,541,864.1,541 M864.1,517.8
	c-6.2,0-11.2,5-11.2,11.2c0,6.2,5,11.2,11.2,11.2s11.2-5,11.2-11.2C875.3,522.8,870.2,517.8,864.1,517.8"/>
<path class="st2" d="M1011.9,667.9H890.7c-1.7,0-3.1,1.4-3.1,3.1c0,1.9-1.4,3.5-3.1,3.5h-32.4c-1.7,0-3.1-1.6-3.1-3.5
	c0-1.7-1.4-3.1-3.1-3.1H724.9c-1.4,0-2.5,1.1-2.5,2.5v2.3c0,7.2,5.9,13.1,13.1,13.1h265.8c7.2,0,13.1-5.9,13.1-13.1v-2.3
	C1014.4,669,1013.3,667.9,1011.9,667.9"/>
<path class="st9" d="M1000.8,679.3H725c-0.3,0-0.6,0-0.9,0c2.3,3.9,6.5,6.6,11.3,6.6h265.8c7.2,0,13.1-5.9,13.1-13.1v-2.3
	c0-0.5-0.2-1-0.4-1.4C1012.5,674.9,1007.2,679.3,1000.8,679.3"/>
<path class="st4" d="M1001.3,687.6H735.5c-8.2,0-14.9-6.7-14.9-14.9v-2.3c0-2.4,1.9-4.3,4.3-4.3H846c2.7,0,4.9,2.2,4.9,4.9
	c0,0.9,0.6,1.7,1.3,1.7h32.4c0.7,0,1.3-0.8,1.3-1.7c0-2.7,2.2-4.9,4.9-4.9h121.1c2.4,0,4.3,1.9,4.3,4.3v2.3
	C1016.2,681,1009.5,687.6,1001.3,687.6 M724.9,669.7c-0.4,0-0.7,0.3-0.7,0.7v2.3c0,6.2,5.1,11.3,11.3,11.3h265.8
	c6.2,0,11.3-5.1,11.3-11.3v-2.3c0-0.4-0.3-0.7-0.7-0.7H890.7c-0.7,0-1.3,0.6-1.3,1.3c0,2.9-2.2,5.3-4.9,5.3h-32.4
	c-2.7,0-4.9-2.4-4.9-5.3c0-0.7-0.6-1.3-1.3-1.3H724.9z"/>
<path class="st0" d="M754.6,460.1l-4.8-0.8c-0.2-0.5-0.4-1.1-0.6-1.6c-0.3-0.7-0.7-1.4-1.2-2.1l2.6-3.4c0.4-0.5,0.3-1.3-0.2-1.7
	l-2.6-2.3c-0.5-0.5-1.3-0.5-1.9-0.2l-3.9,2.4c-1.4-0.7-2.8-1.3-4.4-1.6l-0.8-3.8c-0.1-0.6-0.8-1.1-1.5-1.1h-3.6
	c-0.7,0-1.3,0.5-1.5,1.1l-0.8,3.8c-0.8,0.2-1.6,0.4-2.4,0.7c-0.8,0.3-1.6,0.7-2.4,1.1l-3.2-2c-0.6-0.4-1.4-0.3-1.9,0.2l-2.6,2.3
	c-0.5,0.5-0.6,1.2-0.2,1.7l2.2,3c-0.9,1.4-1.6,3-2,4.6l-3.6,0.6c-0.7,0.1-1.2,0.7-1.2,1.3v3.3c0,0.7,0.5,1.2,1.2,1.3l3.8,0.7
	c0.2,0.6,0.4,1.2,0.7,1.8c0.4,1,1,1.9,1.6,2.7l-2.1,2.8c-0.4,0.5-0.3,1.3,0.2,1.7l2.6,2.3c0.5,0.5,1.3,0.5,1.9,0.2l3.4-2.1
	c1.5,0.8,3.2,1.3,4.9,1.6l0.7,3.6c0.1,0.6,0.8,1.1,1.5,1.1h3.6c0.7,0,1.3-0.5,1.5-1.1l0.8-4c0.5-0.1,1-0.3,1.4-0.5
	c1-0.4,2-0.9,2.9-1.4l3.6,2.2c0.6,0.4,1.4,0.3,1.9-0.2l2.6-2.3c0.5-0.5,0.6-1.2,0.2-1.7l-2.7-3.6c0.7-1.2,1.2-2.5,1.5-3.8l4.5-0.8
	c0.7-0.1,1.2-0.7,1.2-1.3v-3.3C755.9,460.8,755.3,460.3,754.6,460.1 M733.6,469.2c-3.4,0-6.2-2.5-6.2-5.6c0-3.1,2.8-5.6,6.2-5.6
	c3.4,0,6.2,2.5,6.2,5.6C739.8,466.7,737,469.2,733.6,469.2"/>
<path class="st4" d="M736.3,484.1h-3.6c-1.1,0-2-0.7-2.3-1.7l-0.6-3.1c-1.5-0.3-2.9-0.8-4.2-1.4l-3,1.9c-0.9,0.6-2.1,0.5-2.9-0.3
	l-2.6-2.3c-0.8-0.7-0.9-1.9-0.3-2.8l1.7-2.3c-0.5-0.7-1-1.5-1.3-2.3c-0.2-0.5-0.4-0.9-0.6-1.5l-3.3-0.6c-1.1-0.2-1.9-1.1-1.9-2.1
	v-3.3c0-1,0.8-1.9,1.9-2.1l3.1-0.5c0.4-1.3,0.9-2.6,1.7-3.9l-1.9-2.6c-0.7-0.9-0.5-2.1,0.3-2.8l2.6-2.3c0.8-0.7,2-0.8,2.9-0.3
	l2.8,1.8c0.7-0.4,1.4-0.7,2.1-0.9c0.6-0.2,1.2-0.4,2-0.6l0.7-3.3c0.2-1,1.2-1.7,2.3-1.7h3.6c1.1,0,2,0.7,2.3,1.7l0.7,3.3
	c1.3,0.3,2.5,0.8,3.7,1.4l3.5-2.1c0.9-0.6,2.1-0.5,2.9,0.3l2.6,2.3c0.8,0.7,0.9,1.9,0.3,2.8l-2.2,3c0.4,0.6,0.7,1.2,0.9,1.7
	c0.2,0.4,0.4,0.8,0.5,1.2l4.3,0.7c1.1,0.2,1.9,1.1,1.9,2.1v3.3c0,1-0.8,1.9-1.9,2.1l-4,0.7c-0.3,1.1-0.7,2.1-1.2,3.1l2.4,3.2
	c0.7,0.9,0.5,2.1-0.3,2.8L749,479c-0.8,0.7-2,0.8-2.9,0.3l-3.2-2c-0.8,0.5-1.7,0.9-2.6,1.2c-0.3,0.1-0.7,0.2-1,0.4l-0.7,3.5
	C738.4,483.4,737.4,484.1,736.3,484.1 M725.5,476.1l0.4,0.2c1.5,0.7,3,1.2,4.7,1.5l0.5,0.1l0.9,4.1c0.1,0.3,0.4,0.5,0.7,0.5h3.6
	c0.3,0,0.6-0.2,0.7-0.5l0.9-4.5l0.5-0.1c0.5-0.1,0.9-0.3,1.4-0.4c1-0.4,1.9-0.8,2.8-1.3l0.4-0.3l4,2.5c0.3,0.2,0.7,0.1,1-0.1
	l2.6-2.3c0.2-0.2,0.2-0.5,0.1-0.7l-3-4l0.3-0.5c0.7-1.1,1.1-2.3,1.5-3.6l0.1-0.5l5-0.9c0.3-0.1,0.6-0.3,0.6-0.6v-3.3
	c0-0.3-0.2-0.5-0.6-0.6l-5.2-0.9l-0.1-0.5c-0.2-0.5-0.4-1-0.6-1.5c-0.3-0.6-0.7-1.3-1.1-2l-0.3-0.5l2.9-3.9c0.2-0.2,0.1-0.5-0.1-0.7
	l-2.6-2.3c-0.2-0.2-0.7-0.3-1-0.1l-4.2,2.6l-0.4-0.2c-1.3-0.7-2.7-1.2-4.2-1.5l-0.5-0.1l-0.9-4.3c-0.1-0.3-0.4-0.5-0.7-0.5h-3.6
	c-0.3,0-0.6,0.2-0.7,0.5l-0.9,4.3l-0.5,0.1c-0.9,0.2-1.6,0.4-2.3,0.7c-0.7,0.3-1.5,0.6-2.3,1.1l-0.4,0.2l-3.6-2.2
	c-0.3-0.2-0.7-0.2-1,0.1l-2.6,2.3c-0.2,0.2-0.2,0.5-0.1,0.7l2.6,3.4l-0.3,0.5c-0.9,1.4-1.5,2.8-1.9,4.3l-0.1,0.5l-4.1,0.7
	c-0.3,0.1-0.6,0.3-0.6,0.6v3.3c0,0.3,0.2,0.5,0.6,0.6l4.3,0.7l0.1,0.5c0.2,0.7,0.4,1.2,0.6,1.7c0.4,0.9,0.9,1.7,1.5,2.5l0.4,0.5
	l-2.4,3.3c-0.2,0.2-0.1,0.5,0.1,0.7l2.6,2.3c0.3,0.2,0.7,0.3,1,0.1L725.5,476.1z M733.6,470c-3.9,0-7-2.9-7-6.4c0-3.6,3.1-6.4,7-6.4
	c3.9,0,7,2.9,7,6.4C740.6,467.1,737.5,470,733.6,470 M733.6,458.7c-3,0-5.4,2.2-5.4,4.8c0,2.7,2.4,4.9,5.4,4.9s5.4-2.2,5.4-4.9
	C739,460.9,736.6,458.7,733.6,458.7"/>
<path class="st0" d="M980.1,441.8l-6.7-1.3c-0.2-0.8-0.5-1.7-0.9-2.5c-0.5-1.1-1.1-2.2-1.7-3.2l3.6-5.3c0.6-0.8,0.5-2-0.3-2.7
	l-3.6-3.6c-0.7-0.7-1.8-0.8-2.7-0.3l-5.4,3.7c-1.9-1.1-4-2-6.2-2.5l-1.1-6c-0.2-1-1.1-1.7-2.1-1.7h-5.1c-1,0-1.9,0.7-2.1,1.7
	l-1.1,5.9c-1.1,0.3-2.2,0.6-3.3,1.1c-1.2,0.5-2.3,1.1-3.3,1.7l-4.6-3.1c-0.8-0.6-2-0.5-2.7,0.3l-3.6,3.6c-0.7,0.7-0.8,1.8-0.3,2.7
	l3.2,4.6c-1.3,2.2-2.3,4.6-2.8,7.1l-5.1,1c-1,0.2-1.7,1.1-1.7,2.1v5.1c0,1,0.7,1.9,1.7,2.1l5.4,1c0.3,1,0.6,1.9,1,2.9
	c0.6,1.5,1.4,2.9,2.2,4.2l-2.9,4.3c-0.6,0.8-0.5,2,0.3,2.7l3.6,3.6c0.7,0.7,1.8,0.8,2.7,0.3l4.8-3.3c2.2,1.2,4.5,2,6.9,2.5l1.1,5.5
	c0.2,1,1.1,1.7,2.1,1.7h5.1c1,0,1.9-0.7,2.1-1.7l1.2-6.2c0.7-0.2,1.4-0.4,2-0.7c1.5-0.6,2.8-1.3,4.1-2.2l5.1,3.5
	c0.8,0.6,2,0.5,2.7-0.3l3.6-3.6c0.7-0.7,0.8-1.8,0.3-2.7l-3.8-5.6c1-1.9,1.7-3.9,2.2-5.9l6.4-1.2c1-0.2,1.7-1.1,1.7-2.1v-5.1
	C981.8,442.9,981.1,442,980.1,441.8 M950.5,455.9c-4.8,0-8.8-3.9-8.8-8.8c0-4.8,3.9-8.8,8.8-8.8s8.8,3.9,8.8,8.8
	C959.3,451.9,955.3,455.9,950.5,455.9"/>
<path class="st4" d="M954.3,478.6h-5.1c-1.4,0-2.6-1-2.9-2.4l-1-5c-2.1-0.5-4.2-1.2-6.1-2.2l-4.4,3c-1.2,0.8-2.7,0.6-3.7-0.4
	l-3.6-3.6c-1-1-1.1-2.6-0.4-3.7l2.6-3.9c-0.8-1.2-1.5-2.5-2-3.8c-0.3-0.7-0.6-1.5-0.8-2.5l-4.9-0.9c-1.4-0.3-2.4-1.5-2.4-2.9v-5.1
	c0-1.4,1-2.6,2.4-2.9l4.6-0.9c0.5-2.2,1.4-4.4,2.5-6.4l-2.9-4.2c-0.8-1.2-0.6-2.7,0.4-3.7l3.6-3.6c1-1,2.6-1.2,3.7-0.4l4.1,2.8
	c1-0.6,2-1.1,3-1.5c0.9-0.4,1.8-0.7,2.9-1l1-5.4c0.3-1.4,1.5-2.4,2.9-2.4h5.1c1.4,0,2.6,1,2.9,2.4l1,5.4c1.9,0.5,3.7,1.3,5.4,2.2
	l5-3.4c1.2-0.8,2.7-0.6,3.8,0.4l3.6,3.6c1,1,1.2,2.6,0.4,3.7l-3.3,4.9c0.6,1,1.1,2,1.5,2.9c0.3,0.7,0.5,1.4,0.8,2.1l6.2,1.2
	c1.4,0.3,2.4,1.5,2.4,2.9v5.1c0,1.4-1,2.6-2.4,2.9l-5.8,1.1c-0.4,1.8-1.1,3.5-1.9,5.2l3.5,5.2c0.8,1.2,0.6,2.7-0.4,3.7l-3.6,3.6
	c-1,1-2.6,1.2-3.7,0.4l-4.6-3.1c-1.2,0.8-2.5,1.4-3.7,1.9c-0.5,0.2-1.1,0.4-1.6,0.6l-1.1,5.7C957,477.6,955.7,478.6,954.3,478.6
	 M939.1,467.1l0.4,0.2c2.1,1.1,4.3,1.9,6.7,2.4l0.6,0.1l1.2,6.1c0.1,0.6,0.6,1,1.3,1h5.1c0.6,0,1.1-0.4,1.3-1l1.3-6.7l0.5-0.2
	c0.7-0.2,1.3-0.4,2-0.7c1.3-0.6,2.7-1.3,3.9-2.1l0.5-0.3l5.5,3.8c0.5,0.3,1.2,0.3,1.6-0.2l3.6-3.6c0.4-0.4,0.5-1.1,0.2-1.6l-4.1-6
	l0.2-0.4c0.9-1.8,1.6-3.7,2.1-5.7l0.1-0.5l6.9-1.3c0.6-0.1,1-0.6,1-1.3v-5.1c0-0.6-0.4-1.1-1-1.3l-7.2-1.4l-0.1-0.5
	c-0.3-0.9-0.5-1.7-0.8-2.4c-0.4-1-0.9-2-1.6-3.1l-0.3-0.5l3.9-5.8c0.3-0.5,0.3-1.2-0.2-1.6l-3.6-3.6c-0.4-0.4-1.1-0.5-1.6-0.2
	l-5.9,4l-0.5-0.3c-1.9-1.1-3.9-1.9-6-2.4l-0.5-0.1l-1.2-6.5c-0.1-0.6-0.6-1-1.3-1h-5.1c-0.6,0-1.1,0.4-1.3,1l-1.2,6.5l-0.5,0.1
	c-1.3,0.3-2.3,0.6-3.2,1c-1,0.4-2.1,1-3.2,1.7l-0.5,0.3l-5-3.4c-0.5-0.3-1.2-0.3-1.6,0.2l-3.6,3.6c-0.4,0.4-0.5,1.1-0.2,1.6l3.5,5.1
	l-0.3,0.5c-1.3,2.2-2.2,4.5-2.7,6.9l-0.1,0.5l-5.6,1.1c-0.6,0.1-1,0.6-1,1.3v5.1c0,0.6,0.4,1.1,1,1.3l5.9,1.1l0.1,0.5
	c0.3,1.1,0.6,1.9,0.9,2.8c0.6,1.4,1.3,2.8,2.2,4l0.3,0.5l-3.3,4.8c-0.3,0.5-0.3,1.2,0.2,1.6l3.6,3.6c0.4,0.4,1.1,0.5,1.6,0.2
	L939.1,467.1z M950.5,456.7c-5.3,0-9.6-4.3-9.6-9.6c0-5.3,4.3-9.6,9.6-9.6c5.3,0,9.6,4.3,9.6,9.6
	C960.1,452.4,955.8,456.7,950.5,456.7 M950.5,439.2c-4.4,0-7.9,3.6-7.9,7.9c0,4.4,3.6,7.9,7.9,7.9c4.4,0,7.9-3.6,7.9-7.9
	C958.4,442.7,954.9,439.2,950.5,439.2"/>
<path class="st1" d="M334.6,185.5c-7.2-15.6-7-33.8,0.3-49.1c5.6-11.8,8.8-25.2,8.8-39.6c0-44.2-30.5-82.2-72.3-90.4
	c-28.3-5.5-55.2,3.7-74,22c-11.8,11.5-30.2,12.6-43.1,1.8c-9.2-7.8-20.4-13.2-32.7-15.2c-30.9-5-60.4,13.3-71.9,43.2
	c-1.2,3.2-2.2,6.5-2.9,9.7c-3.4,15.4,1,32.8-11.7,41.1C15.9,121.4,6,135,6.9,160.6c1.8,51,27.2,61,55.2,75.1
	c13.6,6.9,25.7,29.8,27.8,45.3c0.3,2.4,0.7,4.5,1.2,6.2c9.1,30,34.6,53.4,66.3,57.2c24.3,2.9,46.9-6.2,62.6-22.9
	c12.8-13.6,29.9-22.1,48.4-22.5c1.6,0,3.3-0.1,5-0.3c35.2-3.1,63.6-31.1,68.3-67.6C343.7,215,341,199.3,334.6,185.5"/>
<path class="st0" d="M301.2,74.5l-6.8-1.3c-0.2-0.9-0.5-1.7-0.9-2.5c-0.5-1.2-1.1-2.2-1.7-3.3l3.7-5.4c0.6-0.8,0.5-2-0.3-2.7
	l-3.7-3.7c-0.7-0.7-1.9-0.8-2.7-0.3l-5.5,3.7c-1.9-1.1-4-2-6.2-2.5l-1.1-6c-0.2-1-1.1-1.7-2.1-1.7h-5.2c-1,0-1.9,0.7-2.1,1.7l-1.1,6
	c-1.1,0.3-2.3,0.6-3.4,1.1c-1.2,0.5-2.3,1.1-3.4,1.7l-4.6-3.1c-0.8-0.6-2-0.5-2.7,0.3l-3.7,3.7c-0.7,0.7-0.8,1.9-0.3,2.7l3.2,4.7
	c-1.3,2.2-2.3,4.6-2.8,7.2l-5.1,1c-1,0.2-1.7,1.1-1.7,2.1V83c0,1,0.7,1.9,1.7,2.1l5.4,1c0.3,1,0.6,1.9,1,2.9
	c0.6,1.5,1.4,2.9,2.3,4.2l-3,4.3c-0.6,0.8-0.5,2,0.3,2.7l3.7,3.7c0.7,0.7,1.9,0.8,2.7,0.3l4.8-3.3c2.2,1.2,4.5,2,7,2.5l1.1,5.6
	c0.2,1,1.1,1.7,2.1,1.7h5.2c1,0,1.9-0.7,2.1-1.7l1.2-6.2c0.7-0.2,1.4-0.4,2-0.7c1.5-0.6,2.8-1.3,4.1-2.2l5.1,3.5
	c0.8,0.6,2,0.5,2.7-0.3l3.7-3.7c0.7-0.7,0.8-1.9,0.3-2.7l-3.8-5.6c1-1.9,1.7-3.9,2.2-6l6.4-1.2c1-0.2,1.7-1.1,1.7-2.1v-5.2
	C302.9,75.6,302.2,74.7,301.2,74.5 M271.4,88.7c-4.9,0-8.8-3.9-8.8-8.8c0-4.9,3.9-8.8,8.8-8.8c4.9,0,8.8,3.9,8.8,8.8
	C280.2,84.7,276.3,88.7,271.4,88.7"/>
<path class="st4" d="M275.2,111.6h-5.2c-1.4,0-2.7-1-2.9-2.4l-1-5c-2.2-0.5-4.2-1.2-6.2-2.2l-4.4,3c-1.2,0.8-2.8,0.7-3.8-0.4
	l-3.7-3.7c-1-1-1.2-2.6-0.4-3.8l2.6-3.9c-0.8-1.2-1.5-2.5-2-3.9c-0.3-0.8-0.6-1.5-0.9-2.5l-4.9-0.9c-1.4-0.3-2.4-1.5-2.4-2.9v-5.2
	c0-1.4,1-2.7,2.4-2.9l4.6-0.9c0.5-2.2,1.4-4.4,2.6-6.4l-2.9-4.2c-0.8-1.2-0.7-2.8,0.4-3.8l3.7-3.7c1-1,2.6-1.2,3.8-0.4l4.2,2.8
	c1-0.6,2-1.1,3-1.5c0.9-0.4,1.8-0.7,3-1l1-5.5c0.3-1.4,1.5-2.4,2.9-2.4h5.2c1.4,0,2.7,1,2.9,2.4l1,5.5c1.9,0.5,3.7,1.3,5.4,2.2
	l5-3.4c1.2-0.8,2.8-0.7,3.8,0.4l3.7,3.7c1,1,1.2,2.6,0.4,3.8l-3.3,4.9c0.6,1,1.1,2,1.5,2.9c0.3,0.7,0.5,1.4,0.8,2.1l6.3,1.2
	c1.4,0.3,2.4,1.5,2.4,2.9v5.2c0,1.4-1,2.7-2.4,2.9l-5.9,1.1c-0.4,1.8-1.1,3.6-1.9,5.2l3.5,5.2c0.8,1.2,0.7,2.8-0.4,3.8l-3.7,3.7
	c-1,1-2.6,1.2-3.8,0.4l-4.7-3.2c-1.2,0.8-2.5,1.4-3.8,2c-0.5,0.2-1.1,0.4-1.6,0.6l-1.1,5.8C277.9,110.6,276.7,111.6,275.2,111.6
	 M259.9,99.9l0.4,0.2c2.1,1.1,4.4,1.9,6.7,2.4l0.6,0.1l1.2,6.1c0.1,0.6,0.7,1.1,1.3,1.1h5.2c0.6,0,1.2-0.4,1.3-1l1.3-6.7l0.5-0.1
	c0.7-0.2,1.3-0.4,2-0.7c1.4-0.6,2.7-1.3,4-2.1l0.5-0.3l5.6,3.8c0.5,0.3,1.2,0.3,1.6-0.2l3.7-3.7c0.4-0.4,0.5-1.1,0.2-1.6l-4.1-6
	l0.2-0.4c0.9-1.8,1.7-3.7,2.1-5.8l0.1-0.5l7-1.3c0.6-0.1,1.1-0.7,1.1-1.3v-5.2c0-0.6-0.4-1.2-1.1-1.3l-7.3-1.4l-0.1-0.5
	c-0.3-0.9-0.5-1.7-0.8-2.4c-0.4-1-0.9-2-1.6-3.1l-0.3-0.5l4-5.8c0.3-0.5,0.3-1.2-0.2-1.6l-3.7-3.7c-0.4-0.4-1.1-0.5-1.6-0.2l-5.9,4
	l-0.5-0.3c-1.9-1.1-3.9-1.9-6-2.4l-0.5-0.1l-1.2-6.5c-0.1-0.6-0.7-1-1.3-1h-5.2c-0.6,0-1.2,0.4-1.3,1l-1.2,6.5l-0.5,0.1
	c-1.3,0.3-2.3,0.6-3.2,1c-1,0.4-2.1,1-3.2,1.7l-0.5,0.3l-5-3.4c-0.5-0.3-1.2-0.3-1.6,0.2l-3.7,3.7c-0.4,0.4-0.5,1.1-0.2,1.6l3.5,5.1
	l-0.3,0.5c-1.3,2.2-2.2,4.5-2.7,6.9l-0.1,0.5l-5.7,1.1c-0.6,0.1-1.1,0.6-1.1,1.3V83c0,0.6,0.4,1.2,1.1,1.3l5.9,1.1l0.1,0.5
	c0.3,1.1,0.6,2,0.9,2.8c0.6,1.4,1.3,2.8,2.2,4.1l0.3,0.5l-3.3,4.8c-0.3,0.5-0.3,1.2,0.2,1.6l3.7,3.7c0.4,0.4,1.1,0.5,1.6,0.2
	L259.9,99.9z M271.4,89.5c-5.3,0-9.7-4.3-9.7-9.7c0-5.3,4.3-9.7,9.7-9.7c5.3,0,9.7,4.3,9.7,9.7C281,85.2,276.7,89.5,271.4,89.5
	 M271.4,71.9c-4.4,0-8,3.6-8,8c0,4.4,3.6,8,8,8c4.4,0,8-3.6,8-8C279.4,75.5,275.8,71.9,271.4,71.9"/>
<path class="st0" d="M74.8,181.5H25.6c-1.1,0-1.9-0.9-1.9-1.9c0-1.1,0.9-1.9,1.9-1.9h49.2c1.1,0,1.9,0.9,1.9,1.9
	C76.7,180.7,75.9,181.5,74.8,181.5"/>
<path class="st0" d="M82.6,193.8H51.5c-1.1,0-1.9-0.9-1.9-1.9c0-1.1,0.9-1.9,1.9-1.9h31.1c1.1,0,1.9,0.9,1.9,1.9
	C84.5,192.9,83.7,193.8,82.6,193.8"/>
<path class="st0" d="M322.4,244.7h-25.8c-1.1,0-2-0.9-2-2c0-1.1,0.9-2,2-2h25.8c1.1,0,2,0.9,2,2
	C324.4,243.8,323.5,244.7,322.4,244.7"/>
<path class="st0" d="M318.9,220h-49.8c-1.1,0-2-0.9-2-2c0-1.1,0.9-2,2-2h49.8c1.1,0,2,0.9,2,2C320.9,219.1,320,220,318.9,220"/>
<path class="st0" d="M332.4,232.2H292c-1.1,0-2-0.9-2-2c0-1.1,0.9-2,2-2h40.4c1.1,0,2,0.9,2,2C334.4,231.3,333.5,232.2,332.4,232.2"
	/>
<path class="st0" d="M282.3,244.7h-10.8c-1.1,0-2-0.9-2-2c0-1.1,0.9-2,2-2h10.8c1.1,0,2,0.9,2,2
	C284.2,243.8,283.3,244.7,282.3,244.7"/>
<path class="st0" d="M247.5,313.8H103c-4.3,0-7.8-3.5-7.8-7.8V37.5c0-4.3,3.5-7.8,7.8-7.8h144.5c4.3,0,7.8,3.5,7.8,7.8V306
	C255.3,310.3,251.8,313.8,247.5,313.8"/>
<path class="st4" d="M247.5,315.9H103c-5.5,0-9.9-4.5-9.9-9.9V37.5c0-5.5,4.5-9.9,9.9-9.9h144.5c5.5,0,9.9,4.5,9.9,9.9V306
	C257.5,311.5,253,315.9,247.5,315.9 M103,31.9c-3.1,0-5.7,2.5-5.7,5.7V306c0,3.1,2.5,5.7,5.7,5.7h144.5c3.1,0,5.7-2.5,5.7-5.7V37.5
	c0-3.1-2.5-5.7-5.7-5.7H103z"/>
<path class="st23" d="M178.3,185.7c0,1.7-1.4,3.1-3.1,3.1c-1.7,0-3-1.4-3-3.1c0-1.7,1.4-3.1,3-3.1C177,182.7,178.3,184,178.3,185.7"
	/>
<path class="st19" d="M236,277.3H114.5c-2.8,0-5.2-2.3-5.2-5.2V55.3c0-2.8,2.3-5.2,5.2-5.2H236c2.8,0,5.2,2.3,5.2,5.2v216.8
	C241.1,275,238.8,277.3,236,277.3"/>
<path class="st2" d="M191,300.4h-31.5c-2.5,0-4.6-2-4.6-4.6v-3.8c0-2.5,2-4.6,4.6-4.6H191c2.5,0,4.6,2,4.6,4.6v3.8
	C195.6,298.4,193.6,300.4,191,300.4"/>
<path class="st4" d="M191,300.9h-31.5c-2.8,0-5.1-2.3-5.1-5.1v-3.8c0-2.8,2.3-5.1,5.1-5.1H191c2.8,0,5.1,2.3,5.1,5.1v3.8
	C196.1,298.6,193.9,300.9,191,300.9 M159.5,288c-2.2,0-4,1.8-4,4v3.8c0,2.2,1.8,4,4,4H191c2.2,0,4-1.8,4-4v-3.8c0-2.2-1.8-4-4-4
	H159.5z"/>
<path class="st3" d="M177.9,184.2c0,1.6-1.2,2.8-2.7,2.8c-1.5,0-2.7-1.3-2.7-2.8c0-1.6,1.2-2.8,2.7-2.8
	C176.7,181.3,177.9,182.6,177.9,184.2"/>
<path class="st3" d="M224.8,269.3h-99.2c-4.3,0-7.9-3.5-7.9-7.9V66c0-4.3,3.5-7.9,7.9-7.9h99.2c4.3,0,7.9,3.5,7.9,7.9v195.4
	C232.7,265.8,229.2,269.3,224.8,269.3"/>
<path class="st4" d="M179.2,50.2c0,2.2-1.8,4-4,4c-2.2,0-4-1.8-4-4c0-2.2,1.8-4,4-4C177.5,46.2,179.2,48,179.2,50.2"/>
<path class="st9" d="M206.1,233.2c-0.7,0-1.3-0.2-1.9-0.6l-72.8-52.9c-0.8-0.6-1.4-1.6-1.4-2.7c0-1.1,0.5-2,1.4-2.7l78.3-56.9
	c1.5-1.1,3.5-0.7,4.6,0.7c1.1,1.5,0.7,3.5-0.7,4.6L138.9,177l69.2,50.2c1.5,1.1,1.8,3.1,0.7,4.6
	C208.1,232.7,207.1,233.2,206.1,233.2"/>
<path class="st18" d="M225,236.2c0,9.6-7.8,17.4-17.4,17.4s-17.4-7.8-17.4-17.4s7.8-17.4,17.4-17.4S225,226.5,225,236.2"/>
<path class="st21" d="M217.3,221.7c3,3.1,4.9,7.4,4.9,12.1c0,9.6-7.8,17.4-17.4,17.4c-3.6,0-6.9-1.1-9.7-2.9
	c3.2,3.3,7.6,5.3,12.5,5.3c9.6,0,17.4-7.8,17.4-17.4C225,230.1,221.9,224.8,217.3,221.7"/>
<path class="st4" d="M207.6,254.5c-10.1,0-18.4-8.2-18.4-18.4c0-10.1,8.3-18.4,18.4-18.4c10.1,0,18.4,8.2,18.4,18.4
	C226,246.3,217.7,254.5,207.6,254.5 M207.6,219.7c-9.1,0-16.5,7.4-16.5,16.5c0,9.1,7.4,16.5,16.5,16.5c9.1,0,16.5-7.4,16.5-16.5
	C224,227.1,216.7,219.7,207.6,219.7"/>
<path class="st0" d="M194.8,237.1c-0.5,0-1-0.4-1-1c0-7.6,6.2-13.8,13.8-13.8c0.5,0,1,0.4,1,1c0,0.5-0.4,1-1,1
	c-6.5,0-11.8,5.3-11.8,11.8C195.7,236.7,195.3,237.1,194.8,237.1"/>
<path class="st16" d="M221.7,120.7c0,7.8-6.3,14.1-14.1,14.1c-7.8,0-14.1-6.3-14.1-14.1c0-7.8,6.3-14.1,14.1-14.1
	C215.4,106.6,221.7,112.9,221.7,120.7"/>
<path class="st17" d="M215.4,109c2.5,2.5,4,6,4,9.8c0,7.8-6.3,14.1-14.1,14.1c-2.9,0-5.6-0.9-7.8-2.4c2.6,2.6,6.1,4.3,10.1,4.3
	c7.8,0,14.1-6.3,14.1-14.1C221.7,115.8,219.2,111.5,215.4,109"/>
<path class="st4" d="M207.6,135.6c-8.2,0-14.9-6.7-14.9-14.9s6.7-14.9,14.9-14.9c8.2,0,14.9,6.7,14.9,14.9S215.8,135.6,207.6,135.6
	 M207.6,107.4c-7.3,0-13.3,6-13.3,13.3c0,7.3,6,13.3,13.3,13.3c7.3,0,13.3-6,13.3-13.3C220.9,113.4,214.9,107.4,207.6,107.4"/>
<path class="st0" d="M197.2,121.5c-0.4,0-0.8-0.3-0.8-0.8c0-6.1,5-11.1,11.1-11.1c0.4,0,0.8,0.3,0.8,0.8c0,0.4-0.3,0.8-0.8,0.8
	c-5.3,0-9.6,4.3-9.6,9.6C198,121.1,197.7,121.5,197.2,121.5"/>
<path class="st24" d="M153.1,174.5c0,10.9-8.8,19.8-19.8,19.8s-19.8-8.8-19.8-19.8c0-10.9,8.8-19.8,19.8-19.8
	S153.1,163.6,153.1,174.5"/>
<path class="st25" d="M144.3,158c3.5,3.6,5.6,8.4,5.6,13.8c0,10.9-8.8,19.8-19.8,19.8c-4.1,0-7.9-1.2-11-3.3c3.6,3.7,8.6,6,14.2,6
	c10.9,0,19.8-8.9,19.8-19.8C153.1,167.6,149.6,161.6,144.3,158"/>
<path class="st4" d="M133.3,195.3c-11.5,0-20.9-9.4-20.9-20.9c0-11.5,9.4-20.9,20.9-20.9c11.5,0,20.9,9.4,20.9,20.9
	C154.2,186,144.8,195.3,133.3,195.3 M133.3,155.8c-10.3,0-18.7,8.4-18.7,18.7c0,10.3,8.4,18.7,18.7,18.7c10.3,0,18.7-8.4,18.7-18.7
	C152,164.2,143.6,155.8,133.3,155.8"/>
<path class="st0" d="M118.8,175.6c-0.6,0-1.1-0.5-1.1-1.1c0-8.6,7-15.6,15.6-15.6c0.6,0,1.1,0.5,1.1,1.1c0,0.6-0.5,1.1-1.1,1.1
	c-7.4,0-13.4,6-13.4,13.4C119.9,175.1,119.4,175.6,118.8,175.6"/>
<path class="st0" d="M76.2,111.2l-5.2-1.6c-0.1-0.7-0.3-1.4-0.5-2.1c-0.3-0.9-0.6-1.8-1-2.7l3.3-3.9c0.5-0.6,0.5-1.5,0-2.1l-2.5-3.2
	c-0.5-0.6-1.4-0.8-2.1-0.4l-4.6,2.4c-1.4-1-3-1.9-4.6-2.5l-0.4-4.8c-0.1-0.8-0.7-1.5-1.5-1.5l-4-0.4c-0.8-0.1-1.6,0.4-1.8,1.2
	l-1.4,4.6c-0.9,0.1-1.8,0.3-2.7,0.6c-1,0.3-1.9,0.7-2.8,1.1l-3.3-2.8c-0.6-0.5-1.5-0.5-2.1,0l-3.2,2.5c-0.6,0.5-0.8,1.4-0.4,2.1
	l2.1,3.9c-1.2,1.6-2.2,3.4-2.8,5.4l-4.1,0.3c-0.8,0.1-1.5,0.7-1.5,1.5l-0.4,4c-0.1,0.8,0.4,1.6,1.2,1.8l4.2,1.3
	c0.1,0.8,0.3,1.6,0.5,2.3c0.4,1.2,0.8,2.4,1.4,3.5l-2.7,3.1c-0.5,0.6-0.5,1.5,0,2.1l2.5,3.2c0.5,0.6,1.4,0.8,2.1,0.4l4.1-2.1
	c1.6,1.1,3.4,2,5.2,2.5l0.3,4.5c0.1,0.8,0.7,1.5,1.5,1.5l4,0.4c0.8,0.1,1.6-0.4,1.8-1.2l1.5-4.8c0.6-0.1,1.1-0.2,1.7-0.4
	c1.2-0.3,2.3-0.8,3.4-1.4l3.7,3.2c0.6,0.5,1.5,0.5,2.1,0l3.2-2.5c0.6-0.5,0.8-1.4,0.4-2.1l-2.5-4.7c0.9-1.4,1.7-2.9,2.2-4.5l5.1-0.4
	c0.8-0.1,1.5-0.7,1.5-1.5l0.4-4C77.5,112.2,77,111.5,76.2,111.2 M51.7,119.8c-3.8-0.4-6.6-3.9-6.1-7.7c0.4-3.8,3.9-6.6,7.7-6.1
	c3.8,0.4,6.6,3.9,6.1,7.7C58.9,117.4,55.5,120.2,51.7,119.8"/>
<path class="st4" d="M53,138c-0.1,0-0.2,0-0.3,0l-4-0.4c-1.1-0.1-2-1-2.1-2.1l-0.3-4c-1.6-0.6-3.2-1.3-4.6-2.3l-3.7,2
	c-1,0.5-2.2,0.3-2.9-0.6l-2.5-3.2c-0.7-0.9-0.7-2.1,0-3l2.4-2.8c-0.5-1-0.9-2.1-1.2-3.2c-0.2-0.6-0.3-1.3-0.5-2l-3.8-1.2
	c-1.1-0.3-1.8-1.4-1.6-2.5l0.4-4c0.1-1.1,1-2,2.1-2.1l3.7-0.3c0.6-1.7,1.5-3.3,2.6-4.8l-1.9-3.6c-0.5-1-0.3-2.2,0.6-2.9l3.2-2.5
	c0.9-0.7,2.1-0.7,3,0l3,2.6c0.9-0.4,1.7-0.7,2.5-0.9c0.7-0.2,1.5-0.4,2.4-0.5l1.3-4.2c0.3-1.1,1.4-1.8,2.5-1.6l4,0.4
	c1.1,0.1,2,1,2.1,2.1l0.3,4.4c1.4,0.6,2.8,1.3,4.1,2.2l4.2-2.2c1-0.5,2.2-0.3,2.9,0.6l2.5,3.2c0.7,0.9,0.7,2.1,0,3l-3,3.6
	c0.4,0.9,0.7,1.6,0.9,2.4c0.2,0.5,0.3,1.1,0.4,1.7l4.8,1.5c1.1,0.3,1.8,1.4,1.6,2.5l-0.4,4c-0.1,1.1-1,2-2.1,2.1l-4.7,0.4
	c-0.5,1.4-1.2,2.7-1.9,3.9l2.3,4.4c0.5,1,0.3,2.2-0.6,2.9l-3.2,2.5c-0.9,0.7-2.1,0.7-3,0l-3.4-2.9c-1,0.5-2.1,0.9-3.1,1.2
	c-0.4,0.1-0.9,0.2-1.3,0.3l-1.4,4.4C54.9,137.4,54,138,53,138 M41.7,127.6l0.3,0.2c1.5,1.1,3.2,1.9,5,2.5l0.4,0.1l0.4,4.9
	c0,0.5,0.4,0.9,0.9,0.9l4,0.4c0.5,0.1,0.9-0.2,1.1-0.7l1.6-5.2l0.4-0.1c0.5-0.1,1.1-0.2,1.6-0.4c1.1-0.3,2.2-0.8,3.3-1.3l0.4-0.2
	l4,3.5c0.4,0.3,0.9,0.3,1.3,0l3.2-2.5c0.4-0.3,0.5-0.8,0.3-1.3l-2.7-5.1l0.2-0.3c0.9-1.3,1.6-2.8,2.2-4.3l0.1-0.4l5.6-0.4
	c0.5,0,0.9-0.4,0.9-0.9l0.4-4c0.1-0.5-0.2-0.9-0.7-1.1h0l-5.6-1.7l-0.1-0.4c-0.1-0.7-0.3-1.4-0.5-2c-0.2-0.8-0.6-1.6-1-2.6l-0.2-0.4
	l3.6-4.2c0.3-0.4,0.3-0.9,0-1.3l-2.5-3.2c-0.3-0.4-0.8-0.5-1.3-0.3l-5,2.6l-0.3-0.2c-1.4-1-2.9-1.8-4.5-2.4l-0.4-0.1L58,90.4
	c0-0.5-0.4-0.9-0.9-0.9l-4-0.4c-0.5-0.1-0.9,0.2-1.1,0.7l-1.5,5L50,94.8c-1,0.1-1.8,0.3-2.6,0.5c-0.8,0.2-1.7,0.6-2.7,1l-0.4,0.2
	l-3.7-3.1c-0.4-0.3-0.9-0.3-1.3,0L36.2,96c-0.4,0.3-0.5,0.8-0.3,1.3l2.3,4.3l-0.3,0.3c-1.2,1.6-2.1,3.3-2.8,5.2l-0.1,0.4l-4.5,0.4
	c-0.5,0-0.9,0.4-0.9,0.9l-0.4,4c-0.1,0.5,0.2,0.9,0.7,1.1l4.6,1.4l0.1,0.4c0.1,0.9,0.3,1.6,0.5,2.3c0.3,1.2,0.8,2.3,1.3,3.4l0.2,0.4
	l-3,3.5c-0.3,0.4-0.3,0.9,0,1.3l2.5,3.2c0.3,0.4,0.8,0.5,1.3,0.3L41.7,127.6z M52.5,120.5c-0.3,0-0.6,0-0.9,0
	c-2-0.2-3.8-1.2-5.1-2.8c-1.3-1.6-1.8-3.6-1.6-5.6c0.5-4.2,4.3-7.2,8.4-6.7c2,0.2,3.8,1.2,5.1,2.8c1.3,1.6,1.8,3.6,1.6,5.6
	c-0.2,2-1.2,3.8-2.8,5.1C55.8,119.9,54.2,120.5,52.5,120.5 M52.4,106.6c-3.2,0-5.9,2.4-6.2,5.6c-0.4,3.4,2.1,6.6,5.6,6.9
	c1.7,0.2,3.3-0.3,4.6-1.3c1.3-1,2.1-2.5,2.3-4.2c0.2-1.7-0.3-3.3-1.3-4.6c-1-1.3-2.5-2.1-4.2-2.3C52.9,106.6,52.7,106.6,52.4,106.6"
	/>
<path class="st18" d="M270.9,191.7h-40.2c-3.3,0-6-2.7-6-6v-40.2c0-3.3,2.7-6,6-6h40.2c3.3,0,6,2.7,6,6v40.2
	C276.8,189.1,274.2,191.7,270.9,191.7"/>
<path class="st4" d="M270.9,192.8h-40.2c-3.8,0-7-3.1-7-7v-40.2c0-3.8,3.1-7,7-7h40.2c3.8,0,7,3.1,7,7v40.2
	C277.9,189.6,274.7,192.8,270.9,192.8 M230.7,140.6c-2.7,0-4.9,2.2-4.9,4.9v40.2c0,2.7,2.2,4.9,4.9,4.9h40.2c2.7,0,4.9-2.2,4.9-4.9
	v-40.2c0-2.7-2.2-4.9-4.9-4.9H230.7z"/>
<path class="st12" d="M240.1,175.1h-2.8c-0.2,0-0.3-0.1-0.3-0.3v-5c0-0.2,0.1-0.3,0.3-0.3h4c0.1,0,0.3-0.1,0.3-0.2l1.4-6.9
	c0-0.2-0.1-0.4-0.3-0.4h-5.5c-0.2,0-0.3-0.1-0.3-0.3v-5c0-0.2,0.1-0.3,0.3-0.3h6.7c0.1,0,0.3-0.1,0.3-0.2l1.9-9.5
	c0-0.1,0.2-0.2,0.3-0.2h5.1c0.2,0,0.3,0.2,0.3,0.4l-1.9,9.2c0,0.2,0.1,0.4,0.3,0.4h5c0.1,0,0.3-0.1,0.3-0.2l1.9-9.5
	c0-0.1,0.2-0.2,0.3-0.2h5.3c0.2,0,0.3,0.2,0.3,0.4l-1.9,9.2c0,0.2,0.1,0.4,0.3,0.4h2.8c0.2,0,0.3,0.1,0.3,0.3v5
	c0,0.2-0.1,0.3-0.3,0.3h-4.1c-0.1,0-0.3,0.1-0.3,0.2l-1.4,6.9c0,0.2,0.1,0.4,0.3,0.4h5.5c0.2,0,0.3,0.1,0.3,0.3v5
	c0,0.2-0.1,0.3-0.3,0.3H258c-0.1,0-0.3,0.1-0.3,0.2l-1.9,9.5c0,0.1-0.2,0.2-0.3,0.2h-5.1c-0.2,0-0.3-0.2-0.3-0.4l1.8-9.2
	c0-0.2-0.1-0.4-0.3-0.4h-5.1c-0.1,0-0.3,0.1-0.3,0.2l-1.9,9.5c0,0.1-0.2,0.2-0.3,0.2h-5.2c-0.2,0-0.3-0.2-0.3-0.4l1.9-9.2
	C240.5,175.3,240.3,175.1,240.1,175.1 M248.9,162.2l-1.4,6.9c0,0.2,0.1,0.4,0.3,0.4h5.1c0.1,0,0.3-0.1,0.3-0.2l1.4-6.9
	c0-0.2-0.1-0.4-0.3-0.4h-5C249,161.9,248.9,162,248.9,162.2"/>
<path class="st4" d="M255.5,185.5h-5.1c-0.2,0-0.4-0.1-0.6-0.3c-0.1-0.2-0.2-0.4-0.2-0.6l1.8-9.1h-4.8l-1.9,9.4
	c-0.1,0.3-0.4,0.6-0.7,0.6h-5.2c-0.2,0-0.4-0.1-0.6-0.3c-0.1-0.2-0.2-0.4-0.1-0.6l1.8-9.1h-2.7c-0.4,0-0.7-0.3-0.7-0.7v-5
	c0-0.4,0.3-0.7,0.7-0.7h4l1.4-6.7h-5.3c-0.4,0-0.7-0.3-0.7-0.7v-5c0-0.4,0.3-0.7,0.7-0.7h6.6l1.9-9.4c0.1-0.3,0.4-0.6,0.7-0.6h5.1
	c0.2,0,0.4,0.1,0.6,0.3c0.1,0.2,0.2,0.4,0.1,0.6l-1.8,9.1h4.8l1.9-9.4c0.1-0.3,0.4-0.6,0.7-0.6h5.3c0.2,0,0.4,0.1,0.6,0.3
	c0.1,0.2,0.2,0.4,0.1,0.6l-1.9,9.1h2.7c0.4,0,0.7,0.3,0.7,0.7v5c0,0.4-0.3,0.7-0.7,0.7h-4l-1.4,6.7h5.4c0.4,0,0.7,0.3,0.7,0.7v5
	c0,0.4-0.3,0.7-0.7,0.7h-6.7l-1.9,9.4C256.1,185.3,255.8,185.5,255.5,185.5 M255.4,184.8L255.4,184.8L255.4,184.8z M250.5,184.7h4.9
	l1.9-9.4c0.1-0.3,0.4-0.6,0.7-0.6h6.7v-4.8h-5.4c-0.2,0-0.4-0.1-0.6-0.3c-0.1-0.2-0.2-0.4-0.1-0.6l1.4-6.9c0.1-0.3,0.4-0.6,0.7-0.6
	h4v-4.8H262c-0.2,0-0.4-0.1-0.6-0.3c-0.1-0.2-0.2-0.4-0.1-0.6l1.9-9.1H258l-1.9,9.4c-0.1,0.3-0.4,0.6-0.7,0.6h-5
	c-0.2,0-0.4-0.1-0.6-0.3c-0.1-0.2-0.2-0.4-0.1-0.6l1.8-9.1h-4.9l-1.9,9.4c-0.1,0.3-0.4,0.6-0.7,0.6h-6.6v4.8h5.3
	c0.2,0,0.4,0.1,0.6,0.3c0.1,0.2,0.2,0.4,0.2,0.6l-1.4,6.9c-0.1,0.3-0.4,0.6-0.7,0.6h-3.9v4.8h2.7c0.2,0,0.4,0.1,0.6,0.3
	c0.1,0.2,0.2,0.4,0.2,0.6l-1.8,9.1h4.9l1.9-9.4c0.1-0.3,0.4-0.6,0.7-0.6h5.1c0.2,0,0.4,0.1,0.6,0.3s0.2,0.4,0.2,0.6L250.5,184.7z
	 M244,155.9L244,155.9L244,155.9z M246.7,146.6L246.7,146.6L246.7,146.6z M252.9,169.9h-5.1c-0.2,0-0.4-0.1-0.6-0.3
	c-0.1-0.2-0.2-0.4-0.2-0.6l1.4-6.9c0.1-0.3,0.4-0.6,0.7-0.6h5c0.2,0,0.4,0.1,0.6,0.3c0.1,0.2,0.2,0.4,0.2,0.6l-1.4,6.9
	C253.5,169.7,253.2,169.9,252.9,169.9 M247.9,169.1h4.8l1.3-6.7h-4.8L247.9,169.1z"/>
<path class="st0" d="M337.7,142.6l-4.7-0.9c-0.2-0.6-0.4-1.2-0.6-1.7c-0.3-0.8-0.7-1.5-1.2-2.2l2.5-3.7c0.4-0.6,0.3-1.4-0.2-1.9
	l-2.5-2.5c-0.5-0.5-1.3-0.6-1.9-0.2l-3.8,2.6c-1.3-0.8-2.8-1.4-4.3-1.7l-0.8-4.1c-0.1-0.7-0.7-1.2-1.4-1.2h-3.6
	c-0.7,0-1.3,0.5-1.4,1.2l-0.8,4.1c-0.8,0.2-1.5,0.4-2.3,0.7c-0.8,0.3-1.6,0.8-2.3,1.2l-3.2-2.1c-0.6-0.4-1.4-0.3-1.9,0.2l-2.5,2.5
	c-0.5,0.5-0.6,1.3-0.2,1.9l2.2,3.2c-0.9,1.5-1.6,3.2-2,4.9l-3.5,0.7c-0.7,0.1-1.2,0.7-1.2,1.4v3.6c0,0.7,0.5,1.3,1.2,1.4l3.7,0.7
	c0.2,0.7,0.4,1.3,0.7,2c0.4,1,0.9,2,1.5,2.9l-2,3c-0.4,0.6-0.3,1.4,0.2,1.9l2.5,2.5c0.5,0.5,1.3,0.6,1.9,0.2l3.3-2.2
	c1.5,0.8,3.1,1.4,4.8,1.7l0.7,3.8c0.1,0.7,0.7,1.2,1.4,1.2h3.6c0.7,0,1.3-0.5,1.4-1.2l0.8-4.3c0.5-0.1,0.9-0.3,1.4-0.5
	c1-0.4,1.9-0.9,2.8-1.5l3.5,2.4c0.6,0.4,1.4,0.3,1.9-0.2l2.5-2.5c0.5-0.5,0.6-1.3,0.2-1.9l-2.6-3.9c0.7-1.3,1.2-2.7,1.5-4.1l4.4-0.8
	c0.7-0.1,1.2-0.7,1.2-1.4v-3.6C338.8,143.4,338.3,142.8,337.7,142.6 M317.2,154.9c-4.8,0-8.6-3.9-8.6-8.6s3.9-8.6,8.6-8.6
	c4.8,0,8.6,3.9,8.6,8.6S321.9,154.9,317.2,154.9"/>
<path class="st4" d="M319.8,168.4h-3.6c-1.1,0-2.1-0.8-2.3-1.9l-0.6-3.3c-1.4-0.3-2.7-0.8-4-1.4l-2.9,2c-0.9,0.6-2.1,0.5-2.9-0.3
	L301,161c-0.8-0.8-0.9-2-0.3-2.9l1.7-2.5c-0.5-0.8-1-1.7-1.3-2.6c-0.2-0.5-0.4-1-0.6-1.6l-3.2-0.6c-1.1-0.2-1.9-1.2-1.9-2.3v-3.6
	c0-1.1,0.8-2.1,1.9-2.3l3-0.6c0.4-1.4,0.9-2.8,1.7-4.2l-1.9-2.8c-0.6-0.9-0.5-2.1,0.3-2.9l2.5-2.5c0.8-0.8,2-0.9,2.9-0.3l2.7,1.8
	c0.7-0.4,1.3-0.7,2-1c0.6-0.2,1.2-0.4,1.9-0.6l0.7-3.6c0.2-1.1,1.2-1.9,2.3-1.9h3.6c1.1,0,2.1,0.8,2.3,1.9l0.7,3.6
	c1.2,0.3,2.4,0.8,3.5,1.4l3.3-2.3c0.9-0.6,2.1-0.5,2.9,0.3l2.5,2.5c0.8,0.8,0.9,2,0.3,2.9l-2.2,3.3c0.4,0.7,0.7,1.3,0.9,1.9
	c0.2,0.4,0.3,0.9,0.5,1.3l4.2,0.8c1.1,0.2,1.9,1.2,1.9,2.3v3.6c0,1.1-0.8,2.1-1.9,2.3l-3.9,0.7c-0.3,1.2-0.7,2.3-1.2,3.3l2.4,3.5
	c0.6,0.9,0.5,2.1-0.3,2.9l-2.5,2.5c-0.8,0.8-2,0.9-2.9,0.3l-3.1-2.1c-0.8,0.5-1.6,0.9-2.5,1.3c-0.3,0.1-0.7,0.3-1,0.4l-0.7,3.8
	C321.9,167.6,320.9,168.4,319.8,168.4 M309.3,159.8l0.4,0.2c1.4,0.8,2.9,1.3,4.5,1.6l0.6,0.1l0.8,4.4c0.1,0.3,0.3,0.5,0.6,0.5h3.6
	c0.3,0,0.6-0.2,0.6-0.5l0.9-4.8l0.5-0.2c0.4-0.1,0.9-0.3,1.3-0.5c0.9-0.4,1.8-0.9,2.7-1.4l0.5-0.3l4,2.7c0.2,0.2,0.6,0.1,0.8-0.1
	l2.5-2.5c0.2-0.2,0.2-0.5,0.1-0.8l-2.9-4.3l0.2-0.4c0.6-1.2,1.1-2.5,1.4-3.9l0.1-0.5l5-0.9c0.3-0.1,0.5-0.3,0.5-0.6v-3.6
	c0-0.3-0.2-0.6-0.5-0.6l-5.2-1l-0.1-0.5c-0.2-0.6-0.3-1.1-0.6-1.7c-0.3-0.7-0.6-1.4-1.1-2.1l-0.3-0.5l2.8-4.1
	c0.2-0.2,0.1-0.6-0.1-0.8l-2.5-2.5c-0.2-0.2-0.5-0.2-0.8-0.1l-4.2,2.9l-0.5-0.3c-1.3-0.7-2.6-1.3-4.1-1.6l-0.5-0.1l-0.9-4.6
	c-0.1-0.3-0.3-0.5-0.6-0.5h-3.6c-0.3,0-0.6,0.2-0.6,0.5l-0.9,4.6l-0.5,0.1c-0.9,0.2-1.6,0.4-2.2,0.7c-0.7,0.3-1.4,0.7-2.2,1.1
	l-0.5,0.3l-3.6-2.5c-0.3-0.2-0.6-0.1-0.8,0.1l-2.5,2.5c-0.2,0.2-0.2,0.5-0.1,0.8l2.5,3.7l-0.3,0.5c-0.9,1.5-1.5,3-1.9,4.7l-0.1,0.5
	l-4.1,0.8c-0.3,0.1-0.5,0.3-0.5,0.6v3.6c0,0.3,0.2,0.6,0.5,0.6l4.2,0.8l0.1,0.5c0.2,0.7,0.4,1.3,0.6,1.9c0.4,1,0.9,1.9,1.5,2.7
	l0.3,0.5l-2.4,3.5c-0.2,0.2-0.1,0.6,0.1,0.8l2.5,2.5c0.2,0.2,0.5,0.2,0.8,0.1L309.3,159.8z M317.2,155.8c-5.2,0-9.5-4.3-9.5-9.5
	c0-5.2,4.3-9.5,9.5-9.5c5.2,0,9.5,4.2,9.5,9.5C326.6,151.5,322.4,155.8,317.2,155.8 M317.2,138.5c-4.3,0-7.8,3.5-7.8,7.8
	s3.5,7.8,7.8,7.8c4.3,0,7.8-3.5,7.8-7.8S321.5,138.5,317.2,138.5"/>
<path class="st11" d="M150.9,102.7h-40.2c-3.3,0-6-2.7-6-6V56.6c0-3.3,2.7-6,6-6h40.2c3.3,0,6,2.7,6,6v40.2
	C156.9,100.1,154.2,102.7,150.9,102.7"/>
<path class="st4" d="M150.9,103.7h-40.2c-3.8,0-7-3.1-7-7V56.6c0-3.8,3.1-7,7-7h40.2c3.8,0,7,3.1,7,7v40.2
	C157.9,100.6,154.7,103.7,150.9,103.7 M110.7,51.6c-2.7,0-4.9,2.2-4.9,4.9v40.2c0,2.7,2.2,4.9,4.9,4.9h40.2c2.7,0,4.9-2.2,4.9-4.9
	V56.6c0-2.7-2.2-4.9-4.9-4.9H110.7z"/>
<path class="st26" d="M144.4,72.2L144.4,72.2c-2.5,0.2-4.9-1-6.2-3c-1.9-2.9-3.3-6.1-4.2-9.6l-0.5-2.1c-0.4-1.6-2-2.6-3.6-2
	c-5.5,2,0.5,16.7,0.6,16.8l-15.1-0.3c-1.6,0-3,1.3-3,2.9c0,1.2,0.7,2.2,1.7,2.7c-1.6,0.1-2.8,1.4-2.7,3.1c0.1,1.6,1.4,2.8,3,2.8h0
	c-0.9,0.5-1.5,1.5-1.4,2.6c0,1.6,1.4,2.9,3,2.9l0.2,0c-0.7,0.5-1.1,1.3-1.1,2.2c0,1.6,1.3,3,2.9,3l26.9,0.6c0,0,0,0,0,0L144.4,72.2z
	"/>
<path class="st4" d="M144.8,95.2L144.8,95.2l-27-0.6c-1.9,0-3.4-1.6-3.4-3.5c0-0.7,0.2-1.3,0.6-1.9c-1.5-0.4-2.7-1.7-2.7-3.3
	c0-0.8,0.3-1.6,0.8-2.3c-1.3-0.4-2.3-1.7-2.4-3.1c-0.1-1.5,0.8-2.8,2.1-3.3c-0.7-0.7-1-1.6-1-2.5c0-0.9,0.4-1.8,1.1-2.4
	c0.6-0.6,1.5-0.9,2.4-0.9c0,0,0.1,0,0.1,0l14.4,0.3c-1.3-3.6-3.7-11.1-2-14.8c0.4-1,1.1-1.6,2-1.9c0.8-0.3,1.7-0.2,2.5,0.2
	c0.8,0.4,1.4,1.2,1.7,2.2l0.5,2.1c0.8,3.4,2.2,6.6,4.1,9.5c1.3,1.9,3.5,3,5.8,2.8c0.1,0,0.3,0,0.4,0.1c0.1,0.1,0.2,0.2,0.2,0.4
	l0.4,22.5c0,0.1,0,0.2-0.1,0.2c0,0.1-0.1,0.2-0.2,0.2C144.9,95.2,144.9,95.2,144.8,95.2 M115.3,72.4c-0.6,0-1.2,0.2-1.7,0.7
	c-0.5,0.5-0.7,1.1-0.8,1.7c0,1,0.5,1.9,1.4,2.3c0.2,0.1,0.3,0.3,0.3,0.5c0,0.2-0.2,0.4-0.5,0.4c-1.3,0.1-2.3,1.2-2.3,2.6
	c0.1,1.3,1.2,2.3,2.5,2.3c0.2,0,0.4,0.2,0.5,0.4c0.1,0.2,0,0.4-0.2,0.5c-0.8,0.5-1.2,1.2-1.2,2.1c0,1.3,1.1,2.4,2.5,2.4l0.2,0
	c0.2,0,0.4,0.1,0.5,0.3c0.1,0.2,0,0.4-0.2,0.5c-0.6,0.5-0.9,1.1-0.9,1.9c0,1.4,1,2.5,2.4,2.5l26.4,0.6l-0.4-21.5h0
	c-2.5,0-4.8-1.2-6.1-3.3c-2-3-3.4-6.3-4.2-9.8l-0.5-2.1c-0.2-0.7-0.6-1.2-1.2-1.5c-0.6-0.3-1.2-0.3-1.7-0.1
	c-0.7,0.2-1.1,0.7-1.5,1.4c-1.7,3.7,1.3,12.1,2.3,14.6c0,0.1,0.1,0.2,0.1,0.2c0,0.1,0,0.3-0.1,0.4c-0.1,0.1-0.2,0.2-0.4,0.2
	L115.3,72.4L115.3,72.4z"/>
<path class="st4" d="M130.2,78.7L130.2,78.7L114,78c-0.3,0-0.5-0.2-0.5-0.5c0-0.3,0.3-0.5,0.5-0.5l16.2,0.7c0.3,0,0.5,0.2,0.5,0.5
	C130.7,78.5,130.4,78.7,130.2,78.7"/>
<path class="st4" d="M131.7,84.2L131.7,84.2l-17.4-0.3c-0.3,0-0.5-0.2-0.5-0.5c0-0.3,0.2-0.5,0.5-0.5l17.4,0.3
	c0.3,0,0.5,0.2,0.5,0.5C132.2,84,132,84.2,131.7,84.2"/>
<path class="st4" d="M133,89.6L133,89.6l-17.4-0.3c-0.3,0-0.5-0.2-0.5-0.5c0-0.3,0.3-0.5,0.5-0.5l17.4,0.3c0.3,0,0.5,0.2,0.5,0.5
	C133.5,89.4,133.3,89.6,133,89.6"/>
<path class="st10" d="M140.5,93.1V72.8c0-1,0.8-1.8,1.8-1.8h3.5c1,0,1.8,0.8,1.8,1.8v20.3c0,1-0.8,1.8-1.8,1.8h-3.5
	C141.3,94.9,140.5,94.1,140.5,93.1"/>
<path class="st4" d="M145.7,95.2h-3.5c-1.1,0-2.1-0.9-2.1-2.1V72.8c0-1.1,0.9-2.1,2.1-2.1h3.5c1.1,0,2.1,0.9,2.1,2.1v20.3
	C147.8,94.3,146.9,95.2,145.7,95.2 M142.3,71.3c-0.9,0-1.5,0.7-1.5,1.6v20.3c0,0.9,0.7,1.5,1.5,1.5h3.5c0.9,0,1.5-0.7,1.5-1.5V72.8
	c0-0.9-0.7-1.6-1.5-1.6H142.3z"/>
<path class="st0" d="M144,93.4c-0.9,0-1.6-0.7-1.6-1.6c0-0.9,0.7-1.6,1.6-1.6c0.9,0,1.6,0.7,1.6,1.6C145.6,92.6,144.9,93.4,144,93.4
	"/>
<path class="st4" d="M144,93.6c-1,0-1.9-0.8-1.9-1.9c0-1,0.9-1.9,1.9-1.9c1,0,1.9,0.8,1.9,1.9C145.9,92.8,145.1,93.6,144,93.6
	 M144,90.4c-0.8,0-1.4,0.6-1.4,1.4c0,0.8,0.6,1.4,1.4,1.4c0.8,0,1.4-0.6,1.4-1.4C145.4,91,144.8,90.4,144,90.4"/>
<path class="st27" d="M117.2,273.6h-36c-2.9,0-5.3-2.4-5.3-5.3v-36c0-2.9,2.4-5.3,5.3-5.3h36c2.9,0,5.3,2.4,5.3,5.3v36
	C122.5,271.2,120.1,273.6,117.2,273.6"/>
<path class="st4" d="M117.2,274.5h-36c-3.4,0-6.2-2.8-6.2-6.2v-36c0-3.4,2.8-6.2,6.2-6.2h36c3.4,0,6.2,2.8,6.2,6.2v36
	C123.4,271.7,120.6,274.5,117.2,274.5 M81.2,227.9c-2.4,0-4.4,2-4.4,4.4v36c0,2.4,2,4.4,4.4,4.4h36c2.4,0,4.4-2,4.4-4.4v-36
	c0-2.4-2-4.4-4.4-4.4H81.2z"/>
<path class="st16" d="M110.3,241.5c-3.8-1.9-8.7-0.4-11,3.4c-2.3-3.8-7.3-5.3-11-3.4c-3.8,1.9-4.9,6.6-2.6,10.4
	c2.1,3.5,13.9,12.9,14,12.9c1.6-0.6,11.1-9.4,13.2-12.9C115.2,248,114,243.4,110.3,241.5"/>
<path class="st17" d="M112.2,243.1c0.7,2.1,0.5,4.6-0.9,6.9c-2.1,3.4-11,11.8-13.6,13.5c1.1,0.9,1.8,1.5,1.8,1.5
	c1.6-0.6,11.1-9.4,13.2-12.9C114.7,249,114.3,245.4,112.2,243.1"/>
<path class="st4" d="M99.6,264.9L99.6,264.9c-0.2,0-3.9-3.1-6.4-5.2c-2.9-2.5-6.7-6-7.8-7.8c-1.2-1.9-1.5-4.2-1-6.2
	c0.5-1.9,1.8-3.5,3.6-4.4c3.7-1.9,8.7-0.5,11.1,3.2c2.4-3.7,7.4-5.1,11.1-3.2c1.8,0.9,3.1,2.5,3.6,4.4c0.6,2.1,0.2,4.3-1,6.2
	C110.8,255.5,101.3,264.3,99.6,264.9C99.6,264.9,99.6,264.9,99.6,264.9 M91.7,240.8c-1.2,0-2.4,0.3-3.4,0.8
	c-1.7,0.9-2.9,2.4-3.4,4.2c-0.6,2-0.2,4.1,0.9,6c2,3.3,12.9,12.1,13.9,12.8c1.7-0.8,11-9.5,13.1-12.8c1.2-1.9,1.5-4,0.9-6
	c-0.5-1.8-1.7-3.3-3.4-4.2c-3.7-1.9-8.5-0.4-10.8,3.3c-0.1,0.1-0.2,0.1-0.3,0C97.5,242.3,94.5,240.8,91.7,240.8"/>
</svg>
