<svg xmlns="http://www.w3.org/2000/svg" viewBox="0 0 55.32 55.32"><defs><style>.cls-1{fill:#717fb9;}.cls-1,.cls-2,.cls-3{fill-rule:evenodd;}.cls-2{fill:#5069b0;}.cls-3{fill:#606a99;}</style></defs><g id="Layer_2" data-name="Layer 2"><g id="Text"><path class="cls-1" d="M16,3.87a2.18,2.18,0,0,1,1.83-1,1.84,1.84,0,0,1,.41,0A19.77,19.77,0,0,1,19.5,1.32l.14-.15a28.33,28.33,0,0,0-5.72,2.45c.69.06,1.38.15,2.06.25m13.33,4.6a2.19,2.19,0,0,1,2.83,0A24.32,24.32,0,0,1,44.49,5.71,27.66,27.66,0,0,0,30.24.12,29.1,29.1,0,0,0,25,.12a2.17,2.17,0,0,1-2,1.33,2.16,2.16,0,0,1-1.1-.3c-.42.38-.82.79-1.2,1.21s-.76.9-1.11,1.37a2.22,2.22,0,0,1,.41,1,46.11,46.11,0,0,1,8.25,3.18Z"/><path class="cls-2" d="M49.27,26.26a34.89,34.89,0,0,1,2.11,3.84h.08a2.26,2.26,0,0,1,.69.11,30,30,0,0,0,2.57-3.75A2.17,2.17,0,0,1,55,23.32,27.62,27.62,0,0,0,48.25,9.19a1.72,1.72,0,0,1-.39,0,2.18,2.18,0,0,1-2.14-1.81c-4.41-.7-8.9.51-12.86,2.45l0,.25,0,.36c1.44.9,2.85,1.86,4.21,2.88a49.62,49.62,0,0,1,12.21,12.9M50,30.72a32.79,32.79,0,0,0-2-3.63A48,48,0,0,0,36.12,14.6c-1.32-1-2.67-1.91-4.07-2.78a2.15,2.15,0,0,1-2.66,0A50.49,50.49,0,0,0,17.74,22.35c-.57.69-1.12,1.39-1.66,2.1a2.11,2.11,0,0,1,.37,1.21,2.14,2.14,0,0,1-1.15,1.91q.38,2.58,1,5.12a53.93,53.93,0,0,0,2.48,7.53h.1a2.17,2.17,0,0,1,2.17,2.17h0a51.1,51.1,0,0,0,8,2.27l.28.05a2.17,2.17,0,0,1,3.5-.42c1.21-.52,2.4-1.09,3.57-1.69A56.06,56.06,0,0,0,45,37.13a46.69,46.69,0,0,0,4.48-4A2.17,2.17,0,0,1,50,30.72Zm-36.42-15a30.08,30.08,0,0,1,2.61-9.29,2.08,2.08,0,0,1-.46-1c-.93-.14-1.86-.24-2.79-.29a2.17,2.17,0,0,1-2,1.42A2.13,2.13,0,0,1,10,6.34,27.62,27.62,0,0,0,.09,24.68,2.15,2.15,0,0,1,1,26.46,2.19,2.19,0,0,1,.6,27.77a29.53,29.53,0,0,0,4,4.69c.87.83,1.77,1.61,2.71,2.35a2.19,2.19,0,0,1,1.08-.31A49.78,49.78,0,0,1,10.64,30c.58-1.05,1.2-2.09,1.85-3.1a2.22,2.22,0,0,1-.37-1.22,2.15,2.15,0,0,1,1.21-1.94A43,43,0,0,1,13.53,15.7Zm.23,12.1c-.62,1-1.2,1.94-1.76,2.94-.77,1.39-1.48,2.83-2.11,4.29a2.14,2.14,0,0,1,.74,1.63,2.63,2.63,0,0,1-.05.49,50,50,0,0,0,6.77,3.71h0a55,55,0,0,1-2.56-7.79C14.37,31.33,14,29.57,13.76,27.8ZM27.52,9.3a45.19,45.19,0,0,0-7.91-3.05,2.18,2.18,0,0,1-1.8,1l-.31,0a28.81,28.81,0,0,0-2.42,8.72,41.63,41.63,0,0,0-.21,7.57c.54-.71,1.09-1.41,1.66-2.1a52.17,52.17,0,0,1,12-10.86,1.58,1.58,0,0,1,0-.38l0-.29Z"/><path class="cls-3" d="M46,38.36A57.26,57.26,0,0,1,37.16,44c-.93.49-1.88,1-2.84,1.38,1,.08,2,.11,3,.1A25.08,25.08,0,0,0,51,41.83a2,2,0,0,1-.09-.6,2.17,2.17,0,0,1,1.37-2,21.61,21.61,0,0,0-.87-4.79,2.28,2.28,0,0,1-.75-.17A47.55,47.55,0,0,1,46,38.36m3.76,6A28.09,28.09,0,0,1,37.37,47c-1.41,0-2.81-.06-4.21-.19a2.16,2.16,0,0,1-3.48.38,49.52,49.52,0,0,1-5.35,1.54,2.1,2.1,0,0,1-.32.82l.21.28a28.62,28.62,0,0,0,4.59,4.87,1.86,1.86,0,0,1,2.23.4A27.78,27.78,0,0,0,49.74,44.33Zm-27,6.17a2.6,2.6,0,0,1-.56.07,2.17,2.17,0,0,1-1.9-1.11l-.71.08a29.33,29.33,0,0,1-9.39-.39A27.58,27.58,0,0,0,25,55.2c.69.06,1.38.1,2.08.12A31.11,31.11,0,0,1,23,50.79ZM24,47.23c1.42-.32,2.82-.71,4.2-1.16a53,53,0,0,1-7.71-2.22h0c.42.82.87,1.62,1.34,2.41a2.22,2.22,0,0,1,.37,0A2.13,2.13,0,0,1,24,47.23ZM5.69,44.54a30.74,30.74,0,0,1,1.09-5.48L7,38.28a2.19,2.19,0,0,1-.72-1.62,2,2,0,0,1,.09-.61c-1-.78-1.93-1.6-2.84-2.46a32.76,32.76,0,0,1-3.55-4A27.59,27.59,0,0,0,5.69,44.54Zm11-2.25a52.58,52.58,0,0,1-7-3.85,2.19,2.19,0,0,1-1.22.39l-.2.66a29.48,29.48,0,0,0-1.08,5.6,2.14,2.14,0,0,1,1.3,2A26,26,0,0,0,19.42,48l.65-.07a2.4,2.4,0,0,1,.41-.85c-.5-.82-1-1.67-1.4-2.53h-.19a2.17,2.17,0,0,1-2.17-2.16Zm36.13-8.36a22.94,22.94,0,0,1,.75,3.36,27.72,27.72,0,0,0,1.61-7c0-.59.09-1.19.11-1.79a31.56,31.56,0,0,1-2,2.73,2.12,2.12,0,0,1,.28,1.06A2.16,2.16,0,0,1,52.85,33.93Z"/></g></g></svg>