<?xml version="1.0" encoding="utf-8"?>
<!-- Generator: Adobe Illustrator 22.0.1, SVG Export Plug-In . SVG Version: 6.00 Build 0)  -->
<svg version="1.1" id="Layer_1" xmlns="http://www.w3.org/2000/svg" xmlns:xlink="http://www.w3.org/1999/xlink" x="0px" y="0px"
	 viewBox="0 0 200 200" style="enable-background:new 0 0 200 200;" xml:space="preserve">
<style type="text/css">
	.st0{fill:#4169EA;}
	.st1{fill:#102E46;}
</style>
<path class="st0" d="M100.2,67c-2.8,0-5.1,2.3-5.1,5.1v13.4c0,2.8,2.3,5.1,5.1,5.1h4.5c2.8,0,5.1-2.3,5.1-5.1V72.1
	c0-2.8-2.3-5.1-5.1-5.1H100.2L100.2,67z M104.6,93.9h-4.5c-4.6,0-8.4-3.7-8.4-8.4V72.1c0-4.6,3.7-8.4,8.4-8.4h4.5
	c4.6,0,8.4,3.7,8.4,8.4v13.4C113,90.1,109.3,93.9,104.6,93.9L104.6,93.9z"/>
<path class="st0" d="M55.2,80.4h-4.5c-4.6,0-8.4-3.7-8.4-8.4c0-4.6,3.7-8.4,8.4-8.4h4.5c4.6,0,8.4,3.7,8.4,8.4
	c0,0.9-0.7,1.6-1.6,1.6s-1.6-0.7-1.6-1.6c0-2.8-2.3-5.1-5.1-5.1h-4.5c-2.8,0-5.1,2.3-5.1,5.1c0,2.8,2.3,5.1,5.1,5.1h4.5
	c0.9,0,1.6,0.7,1.6,1.6S56.1,80.4,55.2,80.4L55.2,80.4z"/>
<path class="st0" d="M55.2,93.9h-4.5c-4.6,0-8.4-3.7-8.4-8.4c0-0.9,0.7-1.6,1.6-1.6s1.6,0.7,1.6,1.6c0,2.8,2.3,5.1,5.1,5.1h4.5
	c2.8,0,5.1-2.3,5.1-5.1c0-2.8-2.3-5.1-5.1-5.1h-4.5c-0.9,0-1.6-0.7-1.6-1.6s0.7-1.6,1.6-1.6h4.5c4.6,0,8.4,3.7,8.4,8.4
	S59.8,93.9,55.2,93.9L55.2,93.9z"/>
<path class="st0" d="M85.5,93.9H72.1c-0.9,0-1.6-0.7-1.6-1.6V65.4c0-0.9,0.7-1.6,1.6-1.6h13.4c0.9,0,1.6,0.7,1.6,1.6
	S86.4,67,85.5,67H73.8v23.6h11.7c0.9,0,1.6,0.7,1.6,1.6S86.4,93.9,85.5,93.9L85.5,93.9z"/>
<path class="st0" d="M81.9,80.4H73c-0.9,0-1.6-0.7-1.6-1.6s0.7-1.6,1.6-1.6h8.8c0.9,0,1.6,0.7,1.6,1.6S82.8,80.4,81.9,80.4
	L81.9,80.4z"/>
<path class="st1" d="M51.5,142.1c-16.5-6.9-29.3-19.7-36-36.2c-6.8-16.5-6.8-34.6,0.1-51.1s19.7-29.3,36.2-36
	c16.5-6.8,34.6-6.8,51.1,0.1s29.3,19.7,36,36.2c2.9,7.1,4.6,14.6,5,22.3c0.1,1.3-0.9,2.3-2.2,2.4s-2.3-0.9-2.4-2.2
	c-0.3-7.1-1.9-14.1-4.6-20.8c-6.3-15.4-18.3-27.3-33.6-33.7S68.9,16.7,53.5,23S26.2,41.2,19.8,56.5s-6.4,32.2-0.1,47.6
	s18.3,27.3,33.6,33.7c15.3,6.4,32.2,6.4,47.6,0.1c7.1-2.9,13.6-7.1,19.1-12.4c0.9-0.9,2.3-0.8,3.2,0.1c0.9,0.9,0.8,2.3-0.1,3.2
	c-6,5.6-12.9,10.1-20.5,13.3C86.1,149,68,148.9,51.5,142.1L51.5,142.1z"/>
<path class="st1" d="M66.3,126.8c-11.9-2.8-22.7-10.2-29.7-21.4C22.8,83,29.8,53.5,52.2,39.7s51.9-6.9,65.7,15.5
	c1.1,1.8,2.1,3.7,3,5.7c0.5,1.1,0,2.5-1.1,3s-2.5,0-3-1.1c-0.8-1.8-1.7-3.5-2.7-5.1C101.5,37.4,74.8,31,54.6,43.6
	C34.3,56.1,28,82.8,40.5,103.1s39.2,26.6,59.5,14.1c2.1-1.3,4.1-2.8,6-4.5c0.9-0.8,2.4-0.7,3.2,0.2c0.8,0.9,0.7,2.4-0.2,3.2
	c-2.1,1.8-4.3,3.5-6.6,4.9C91.2,127.9,78.2,129.6,66.3,126.8L66.3,126.8z"/>
<path class="st0" d="M160.5,177.8c6.1,8.8,18.7,10.5,26.9,3.2c6.4-5.6,8-15.3,3.7-22.6c-5-8.6-15.6-11.4-24-7.1L135.4,106l-7.8-11.2
	l-4.9-7c-0.7-0.9-1.9-1.4-2.9-1c-1.5,0.6-2,2.4-1.1,3.7l3.5,5.1l-9.6,6.7c-0.9,0.7-1.4,1.9-1,2.9c0.6,1.5,2.4,2,3.7,1.1l9.7-6.8
	l5,7.2l-3.8,2.6c-0.9,0.7-1.4,1.9-1,2.9c0.6,1.5,2.4,2,3.7,1.1l3.8-2.7l30.3,43.3C156.5,160.1,155.2,170.3,160.5,177.8z
	 M186.3,159.8c4.3,6.2,2.6,14.7-3.8,18.8c-5.7,3.6-13.3,2.3-17.5-2.9c-4.5-5.7-3.5-13.8,1.8-18.3c0.4,0,0.9-0.1,1.3-0.4
	c0.4-0.3,0.6-0.6,0.8-1C174.7,152.6,182.3,154.1,186.3,159.8z"/>
</svg>
