<?xml version="1.0" encoding="utf-8"?>
<!-- Generator: Adobe Illustrator 22.0.1, SVG Export Plug-In . SVG Version: 6.00 Build 0)  -->
<svg version="1.1" id="Layer_1" xmlns="http://www.w3.org/2000/svg" xmlns:xlink="http://www.w3.org/1999/xlink" x="0px" y="0px"
	 viewBox="0 0 500 500" style="enable-background:new 0 0 500 500;" xml:space="preserve">
<style type="text/css">
	.st0{fill:#D7DBF2;}
	.st1{fill:#E4E6F2;}
	.st2{fill:#89A1DE;}
	.st3{fill:#FFFFFF;}
	.st4{fill:#36518A;}
	.st5{fill:#E0E9FF;}
	.st6{opacity:0.39;fill:#99B0ED;enable-background:new    ;}
	.st7{fill:#2C4482;}
	.st8{fill:#4367C7;}
	.st9{fill:#FFCD53;}
	.st10{fill:#D6A033;}
	.st11{opacity:0.51;fill:#FFFFFF;enable-background:new    ;}
	.st12{fill:none;stroke:#1B2D54;stroke-width:3.7069;stroke-linecap:round;stroke-linejoin:round;stroke-miterlimit:10;}
	.st13{fill:#576CE6;}
	.st14{fill:none;stroke:#FFFFFF;stroke-width:8.523;stroke-linecap:round;stroke-linejoin:round;stroke-miterlimit:10;}
</style>
<path class="st0" d="M444,50.7c0.1-1.8-1-3.2-2.7-3.6l-171-34.5c-3.8-0.8-8.9,3.2-9.1,7.3l-15.8,280.6l0,0l-1.8,32.4
	c-0.1,1.8,1,3.2,2.7,3.6l171,34.5c3.8,0.8,8.9-3.2,9.1-7.3l15.8-280.5l0,0L444,50.7z"/>
<path class="st1" d="M329.9,481.5l-184.7-38.2c-5.3-1.1-5.2-5.2,0.1-8.9l59.7-43.1c5.3-3.9,14-6.2,19.3-5L409,424.4
	c5.3,1.1,5.2,5.2-0.1,8.9l-59.7,43.1C343.9,480.2,335.2,482.4,329.9,481.5z"/>
<path class="st2" d="M391,90.7c0.4-6.4-1.5-12.7-4.9-17.5v-0.1c-3.1-4.6-7.4-7.8-12.4-8.8L202.4,29.7c-4.3-0.8-8.4,0.1-11.7,2.5
	l-10.9,8.2L164.4,372c0,0.3,0,0.4,0,0.4c-0.6,12.3,7.1,23.9,17.3,26l175.7,35.8l5.3-4.1c6-4.8,9.6-9.2,10.1-17.3L391,90.7z"/>
<path class="st3" d="M346,436.6l-170.8-34.7c-10.2-2.1-17.6-13.8-16.9-26.3l18.2-323.5c0.7-12.3,9.4-20.7,19.6-18.6l170.8,34.7
	c10.2,2.1,17.5,14,16.8,26.3L365.4,418C364.7,430.4,356.2,438.5,346,436.6z"/>
<path class="st4" d="M344,437.6l-170.8-34.7c-10.2-2.1-17.6-13.8-16.9-26.3l18.2-323.5c0.7-12.3,9.4-20.7,19.6-18.6l170.7,34.7
	c10.2,2.1,17.5,14,16.8,26.3L363.3,419C362.8,431.4,354.2,439.7,344,437.6z"/>
<path class="st5" d="M367.7,90.8c0.1-1.8-1-3.2-2.7-3.6L194,52.8c-3.8-0.8-8.9,3.2-9.1,7.3l-15.8,280.5l0,0l-2,32.4
	c-0.1,1.8,1,3.2,2.7,3.6l171,34.5c3.8,0.8,8.9-3.2,9.1-7.3l15.8-280.5l0,0L367.7,90.8z"/>
<path class="st6" d="M261.1,139.8c-47.5-10.6-87.1,18.9-88.2,66.1c-0.7,25.9,10.3,51.6,28.2,71.4c9.2,13.4,13.4,28.2,15.4,39.1
	c-2.2,2.8-3.4,6-3.5,9.5l0,0l-0.4,15.9l0,0v0.8l0,0c0.1,6.2,3.8,13.1,10.8,19.6l-0.6,23.5l0,0c0,4.9,2.9,10.5,8.8,15.5
	c0.1,0,0.1,0.1,0.3,0.1c0,3.5,6.2,10.9,6.2,10.9l30.9,7c0,0,6.6-4.8,6.6-8.2c0,0,0,0,0.1,0c6.4-2.5,9.5-7.1,9.4-12.4l0,0l0.4-15.2
	c0,0,0,0,0.1,0l0.1-7.1c7.3-3.2,11-8.5,11.5-14.5l0,0l0.4-16.9l0,0c0-3.4-0.8-6.9-2.9-10.5c2.4-9.2,7.1-21.3,16.9-30.5
	c0.3-0.3,0.6-0.6,0.8-0.8c19.2-11.5,31.7-32.3,32.4-58.6C346.1,197.4,308.7,150.4,261.1,139.8z"/>
<g>
	<ellipse class="st1" cx="205.8" cy="451" rx="74.4" ry="36.9"/>
	
		<ellipse transform="matrix(5.257786e-03 -1 1 5.257786e-03 -279.3691 626.8039)" class="st7" cx="175.4" cy="453.8" rx="16.2" ry="28.1"/>
	<polygon class="st8" points="215.1,436.6 135.3,437.8 135.3,352.8 215.1,352.8 	"/>
	
		<ellipse transform="matrix(1 -2.670907e-03 2.670907e-03 1 -1.1677 0.4697)" class="st8" cx="175.3" cy="437.4" rx="40" ry="23.2"/>
	<path class="st7" d="M215.3,376c-0.6-0.4-1.1-0.7-1.7-1.1c-21.3-12.3-55.8-12.3-76.9-0.1c-0.4,0.3-0.8,0.6-1.3,0.8v42.6
		c0.6,0.3,1,0.6,1.5,1c21.3,12.3,55.8,12.3,76.9,0.1c0.6-0.3,1-0.6,1.5-0.8V376H215.3z"/>
	
		<ellipse transform="matrix(5.272716e-03 -1 1 5.272716e-03 -214.5616 561.943)" class="st8" cx="175.2" cy="388.8" rx="31.5" ry="54.4"/>
	<rect x="120.8" y="369.8" class="st8" width="108.8" height="20"/>
	
		<ellipse transform="matrix(5.272716e-03 -1 1 5.272716e-03 -195.5255 542.8896)" class="st3" cx="175.1" cy="369.7" rx="31.5" ry="54.4"/>
	<g>
		<path class="st9" d="M286.6,238.6c0-56.1-49.5-101.5-110.4-101.5S65.7,182.5,65.7,238.6c0,30.8,14.8,58.2,38.3,76.8
			c12.9,14.1,18.7,31.5,21.4,44c2.7,12.2,11.3,21.9,23.1,26c19,6.6,37.3,7.4,54.9,0.7c11-4.2,19.3-13.8,21.7-25.4
			c2.4-11.7,8-28.7,21.3-43.1c0.4-0.4,0.7-0.8,1-1.3C271.2,297.7,286.6,269.9,286.6,238.6z"/>
	</g>
	
		<ellipse transform="matrix(5.283169e-03 -1 1 5.283169e-03 -183.5124 530.8804)" class="st10" cx="175.1" cy="357.7" rx="22.1" ry="38.2"/>
	<g>
		<path class="st10" d="M181.6,366c-1.5,0-2.9-1.3-2.9-2.9V288c-0.3,0-0.7-0.1-1-0.1c-3.6-0.7-7.1-1.5-10.6-2.8v71.6
			c0,1.5-1.3,2.9-2.9,2.9c-1.5,0-2.9-1.3-2.9-2.9v-74c-5.9-2.8-11.3-6.6-15.9-11c-8-7.5-13-16.5-14-24.6c-0.8-7.8,2.4-13.8,8.8-16.6
			c6.3-2.7,11.6-2.5,16.1,0.3c10.2,6.6,10.6,25.3,10.8,26l0,0v22.1c3.6,1.4,7.4,2.7,11.6,3.4c0.1,0,0.3,0,0.4,0
			c1.8-20.1,6.2-32.2,13.3-36.5c3.9-2.4,8.4-2.5,13.3-0.3c10.2,4.5,15.1,13.7,12.4,23.6c-2.7,9.9-13.4,19.7-31,19.7
			c-0.8,0-1.8,0-2.7-0.1v74.4C184.4,364.7,183.1,366,181.6,366z M184.8,282.9c16.1,0.8,25.6-7.1,27.8-15.4c2-7.1-1.7-13.6-9.2-16.9
			c-3.2-1.4-5.7-1.4-8,0C191.5,253,186.7,260.6,184.8,282.9z M148.6,234.1c-1.8,0-3.9,0.4-6.2,1.4c-5.3,2.2-5.9,7.1-5.5,10.8
			c1,9.1,9.6,21.9,24.3,29.8v-19.2c-0.1-4.6-1.8-17.3-8.1-21.4C151.9,234.6,150.4,234.1,148.6,234.1z"/>
	</g>
	
		<ellipse transform="matrix(0.4345 -0.9007 0.9007 0.4345 -132.8173 220.3453)" class="st11" cx="109.1" cy="215.9" rx="39.1" ry="28.2"/>
</g>
<path class="st12" d="M227.3,359.4c2.4-11.7,8-28.7,21.3-43.1c0.4-0.4,0.7-0.8,1-1.3c24-18.6,39.4-46.6,39.4-77.7
	c0-42.1-27.8-78-67.4-93.5"/>
<ellipse transform="matrix(0.9025 -0.4306 0.4306 0.9025 -25.187 50.789)" class="st13" cx="99.6" cy="81" rx="48.2" ry="51.7"/>
<polyline class="st14" points="75.7,73.9 90.7,100.5 114.5,72.4 "/>
</svg>
