<?xml version="1.0" encoding="utf-8"?>
<!-- Generator: Adobe Illustrator 22.0.1, SVG Export Plug-In . SVG Version: 6.00 Build 0)  -->
<svg version="1.1" id="Layer_1" xmlns="http://www.w3.org/2000/svg" xmlns:xlink="http://www.w3.org/1999/xlink" x="0px" y="0px"
	 viewBox="0 0 350 350" style="enable-background:new 0 0 350 350;" xml:space="preserve">
<style type="text/css">
	.st0{fill:#DCF1FE;}
	.st1{fill:#FFFFFF;}
	.st2{fill:#6E7392;}
	.st3{fill:#C6C1EC;}
	.st4{fill:#7CA1CE;}
	.st5{fill:#E5E5F9;}
	.st6{fill:#FFC885;}
	.st7{fill:#F0A374;}
	.st8{fill:#F6F19D;}
	.st9{fill:#8BB4EE;}
	.st10{fill:#F6D42E;}
	.st11{fill:#ECF6FE;}
	.st12{fill:#CFD1E3;}
	.st13{clip-path:url(#SVGID_2_);fill:#8BB4EE;}
	.st14{clip-path:url(#SVGID_2_);fill:#7CA1CE;}
	.st15{clip-path:url(#SVGID_2_);fill:#6E7392;}
	.st16{clip-path:url(#SVGID_2_);fill:#FFFFFF;}
	.st17{fill:#909EC0;}
	.st18{fill:#C2E7FE;}
	.st19{fill:#FAC261;}
	.st20{fill:#97D4FE;}
	.st21{fill:#FE979B;}
	.st22{fill:#D19297;}
</style>
<path class="st0" d="M735.6,322c16-5.7,33.9-3.8,48.2,4.6c11.1,6.6,24,10.9,38.2,12.1c43.4,3.9,83.5-22.6,95.2-62.9
	c8-27.3,1.3-54.5-15-74.7c-10.3-12.7-12.5-34.5,2.1-42.5c15.3-8.3,25-20.2,28.1-32.2c7.7-29.9-18-59.1-46.3-73.1
	c-3.1-1.5-6.1-2.7-9.2-3.7c-14.8-4.7-32.3-1.9-39.3-15.2C827,14.7,814.5,3.7,789.2,2.3c-50.3-2.8-62.3,21.3-78.7,47.5
	c-8,12.7-19.7,36.2-34.5,40.6c-21.5,6.4-65.7-2.3-80.7,43.3c-7.6,22.9,2,46.6,16.9,63.5c12.2,13.8,19,31.4,17.7,49.6
	c-0.1,1.6-0.2,3.2-0.2,4.9c0,34.8,24.9,65.3,60.3,73.1C705.8,328.3,721.5,327,735.6,322"/>
<path class="st1" d="M846.4,125.4C846.4,125.3,846.4,125.3,846.4,125.4c0.6-2.4,2.5-4.3,4.7-5.1c2.1-0.7,4-0.4,5.6,0.5
	c1.3-4.8,5.7-8.3,10.9-8.3c0.1,0,0.3,0,0.4,0c2.9-8.8,11.2-15.2,21.1-15.2c9.9,0,18.4,6.5,21.2,15.6c0.3,0,0.7-0.1,1-0.1
	c10.3,1,13.2,8.4,13.9,13.5c0.4,2.6-1.8,5-4.4,4.9l-70.4-1.1C847.8,130.1,845.7,127.8,846.4,125.4"/>
<path class="st2" d="M920.7,131.8C920.7,131.8,920.7,131.8,920.7,131.8l-70.5-1.1c-1.4,0-2.8-0.7-3.7-1.8c-0.8-1.1-1.1-2.4-0.8-3.7
	c0,0,0,0,0,0c0.7-2.6,2.6-4.7,5.2-5.5c1.8-0.6,3.7-0.5,5.4,0.2c1.6-4.8,6.1-8,11.2-8.1c3.2-9.1,11.8-15.2,21.5-15.2
	c9.9,0,18.5,6.2,21.6,15.5c0.2,0,0.4,0,0.6,0c11.1,1.1,13.8,9.3,14.5,14.1c0.2,1.4-0.2,2.9-1.2,4
	C923.5,131.2,922.2,131.8,920.7,131.8 M846.4,125.4l0.6,0.2c-0.2,0.9,0,1.8,0.6,2.6c0.6,0.8,1.7,1.3,2.7,1.3l70.4,1.1
	c1.1,0,2.1-0.4,2.9-1.3c0.7-0.8,1-1.9,0.9-2.9c-0.7-5.4-3.7-12-13.3-13c-0.1,0-0.3,0-0.5,0c-0.1,0-0.3,0.1-0.4,0.1
	c-0.3,0-0.6-0.2-0.7-0.5c-2.8-9-11.1-15.1-20.5-15.1c-9.3,0-17.5,5.9-20.4,14.8c-0.1,0.3-0.4,0.5-0.7,0.5c-0.1,0-0.2,0-0.2,0h0
	c-4.9,0-9,3.2-10.3,7.8c-0.1,0.2-0.2,0.4-0.4,0.4c-0.2,0.1-0.4,0.1-0.6,0c-1.6-0.9-3.4-1-5.1-0.4c-2.1,0.7-3.7,2.4-4.3,4.5
	L846.4,125.4z M846.4,125.4L846.4,125.4L846.4,125.4z"/>
<path class="st2" d="M856.9,120.6c-0.1,0-0.2,0-0.2,0c-0.3-0.1-0.5-0.5-0.4-0.8c1.7-4.7,6.2-7.9,11.3-7.9c0.4,0,0.7,0.3,0.7,0.7
	c0,0.4-0.3,0.7-0.7,0.7c-4.5,0-8.5,2.8-10,7C857.4,120.4,857.2,120.6,856.9,120.6"/>
<path class="st2" d="M866.8,120.1c-0.4,0-0.7-0.3-0.7-0.7c0-12.6,10.2-22.8,22.8-22.8c0.4,0,0.7,0.3,0.7,0.7c0,0.4-0.3,0.7-0.7,0.7
	c-11.9,0-21.5,9.7-21.5,21.5C867.5,119.8,867.2,120.1,866.8,120.1"/>
<path class="st1" d="M679.8,116c3.9,0,7.2-3,7.2-6.9c0,0,0-0.1,0-0.1c0-5.4-4.3-9.8-9.7-10v0c0.3-4.5-2.2-8.9-6.2-10.9
	c-6.9-3.4-13.7-0.6-16.8,4.7c-1.3-0.5-2.7-0.7-4.2-0.7c-6.8,0-12.3,5.5-12.3,12.3c-4.2,0-7.6,3.4-7.6,7.6c0,0,0,0,0,0
	c0,2.2,1.9,3.9,4.1,3.9L679.8,116z"/>
<path class="st2" d="M643.1,107.2c-0.1,0-0.2,0-0.3-0.1c-1.3-1.3-3.1-2.1-5-2.1c-1.3,0-2.6,0.4-3.7,1c-0.2,0.1-0.5,0.1-0.6-0.2
	c-0.1-0.2-0.1-0.5,0.2-0.6c1.3-0.8,2.7-1.2,4.2-1.2c2.1,0,4.2,0.8,5.7,2.4c0.2,0.2,0.2,0.5,0,0.7
	C643.4,107.1,643.2,107.2,643.1,107.2"/>
<path class="st2" d="M679.8,116.5l-45.6,0c-2.5,0-4.5-1.9-4.5-4.3c0-4.3,3.4-7.8,7.6-8.1c0.2-6.9,5.9-12.4,12.8-12.4
	c1.3,0,2.7,0.2,4,0.6c3.1-5,9.9-8.1,17.2-4.5c4.1,2,6.6,6.2,6.5,10.9c5.4,0.4,9.7,4.9,9.7,10.4C687.5,113.2,684,116.5,679.8,116.5
	 M637.8,105c-3.9,0-7.1,3.2-7.1,7.1c0,1.9,1.6,3.4,3.6,3.4l45.6,0c3.7,0,6.7-2.9,6.7-6.4c0-5.2-4.2-9.4-9.3-9.6l-0.5,0v-0.5
	c0.3-4.5-2.1-8.6-6-10.5c-6.9-3.4-13.4-0.3-16.2,4.5l-0.2,0.3l-0.4-0.1c-1.3-0.5-2.7-0.7-4-0.7c-6.6,0-11.9,5.3-11.9,11.9v0.5H637.8
	z"/>
<path class="st2" d="M687,109.5c-0.3,0-0.5-0.2-0.5-0.5c0-5.2-4.3-9.5-9.5-9.5c-2.2,0-4.4,0.8-6.1,2.2c-2.2,1.8-3.4,4.5-3.4,7.3
	c0,0.3-0.2,0.5-0.5,0.5c-0.3,0-0.5-0.2-0.5-0.5c0-3.1,1.4-6,3.8-8c1.9-1.6,4.2-2.4,6.7-2.4c5.8,0,10.4,4.7,10.4,10.4
	C687.5,109.3,687.3,109.5,687,109.5"/>
<path class="st2" d="M637.8,105c-0.3,0-0.5-0.2-0.5-0.5c0-7.1,5.7-12.8,12.8-12.8c2.9,0,5.6,0.9,7.9,2.7c0.2,0.2,0.2,0.5,0.1,0.7
	c-0.2,0.2-0.4,0.2-0.7,0.1c-2.1-1.6-4.6-2.5-7.3-2.5c-6.6,0-11.9,5.3-11.9,11.9C638.2,104.7,638,105,637.8,105"/>
<path class="st2" d="M677.8,99.1h-0.9c0-6.6-5.3-11.9-11.9-11.9c-4.2,0-8.2,2.3-10.3,5.9l-0.8-0.5c2.3-3.9,6.5-6.4,11.1-6.4
	C672,86.3,677.8,92,677.8,99.1"/>
<path class="st1" d="M633.5,149.3L633.5,149.3l-16.9-0.2c-0.9,0-1.7-0.8-1.7-1.7c0-0.9,0.8-1.7,1.7-1.7h0l16.9,0.2
	c0.9,0,1.7,0.8,1.7,1.7C635.2,148.6,634.4,149.3,633.5,149.3"/>
<path class="st1" d="M647.2,138.4L647.2,138.4l-34-0.3c-0.9,0-1.7-0.8-1.7-1.7c0-0.9,0.8-1.7,1.7-1.7h0l34,0.3
	c0.9,0,1.7,0.8,1.7,1.7C648.9,137.6,648.1,138.4,647.2,138.4"/>
<path class="st1" d="M880.3,277.3h-28.8c-0.9,0-1.7-0.8-1.7-1.7c0-0.9,0.8-1.7,1.7-1.7h28.8c0.9,0,1.7,0.8,1.7,1.7
	C882,276.6,881.3,277.3,880.3,277.3"/>
<path class="st1" d="M894.7,289.6h-49.8c-0.9,0-1.7-0.8-1.7-1.7c0-0.9,0.8-1.7,1.7-1.7h49.8c0.9,0,1.7,0.8,1.7,1.7
	C896.4,288.9,895.7,289.6,894.7,289.6"/>
<path class="st1" d="M947.2-118.2h-14c-0.9,0-1.7-0.8-1.7-1.7c0-0.9,0.8-1.7,1.7-1.7h14c0.9,0,1.7,0.8,1.7,1.7
	C948.9-119,948.2-118.2,947.2-118.2"/>
<path class="st1" d="M894.7,263.5h-14c-0.9,0-1.7-0.8-1.7-1.7s0.8-1.7,1.7-1.7h14c0.9,0,1.7,0.8,1.7,1.7S895.6,263.5,894.7,263.5"/>
<path class="st1" d="M831,100.7h-26.4c-0.9,0-1.7-0.8-1.7-1.7s0.8-1.7,1.7-1.7H831c0.9,0,1.7,0.8,1.7,1.7S832,100.7,831,100.7"/>
<path class="st1" d="M861.8,87.1h-6.2c-0.9,0-1.7-0.8-1.7-1.7c0-0.9,0.8-1.7,1.7-1.7h6.2c0.9,0,1.7,0.8,1.7,1.7
	C863.5,86.3,862.7,87.1,861.8,87.1"/>
<path class="st1" d="M847.5,87.1h-29.2c-0.9,0-1.7-0.8-1.7-1.7c0-0.9,0.8-1.7,1.7-1.7h29.2c0.9,0,1.7,0.8,1.7,1.7
	C849.2,86.3,848.5,87.1,847.5,87.1"/>
<path class="st1" d="M835.8,74.5h-30.1c-0.9,0-1.7-0.8-1.7-1.7c0-0.9,0.8-1.7,1.7-1.7h30.1c0.9,0,1.7,0.8,1.7,1.7
	C837.5,73.7,836.8,74.5,835.8,74.5"/>
<path class="st1" d="M834,325.3c2.7,0,5.1-2.1,5.1-4.9c0,0,0,0,0-0.1c0-4.6-4.4-8.3-9.8-8.3c-1,0-2,0.1-3,0.4
	c-1-8.3-8-14.7-16.5-14.7c-1.9,0-3.7,0.3-5.3,0.9c0.6-3,0.7-6.2,0-9.5c-1.9-9.5-9.7-16.9-19.3-18.5c-5.9-0.9-11.4,0.3-15.9,3.1
	l-3.4-25.2h-25.6l-4.3,28.8c-1.9-1.2-4.2-1.9-6.6-1.9c-6.4,0-11.7,4.8-12.5,10.9c-3.3-1.5-6.9-2.3-10.8-2.3
	c-13.7,0-24.9,10.4-26.3,23.7c-1.8-0.2-3.8,0.1-5.8,1.2c-3.3,1.8-5.6,5.1-5.8,8.8c-0.1,1.6,0.2,3.1,0.8,4.5c0.8,1.9,2.7,3,4.7,3H834
	z"/>
<path class="st2" d="M668,318.8c-0.3,0-0.5-0.2-0.5-0.5c0-6.1,5-11.1,11.1-11.1c4.1,0,7.8,2.2,9.7,5.8c0.1,0.3,0,0.6-0.2,0.7
	c-0.3,0.1-0.6,0-0.7-0.2c-1.8-3.2-5.1-5.2-8.8-5.2c-5.5,0-10,4.5-10,10C668.5,318.5,668.3,318.8,668,318.8"/>
<path class="st2" d="M839.1,320.9c-0.3,0-0.5-0.2-0.5-0.5c0-4.3-4.2-7.8-9.3-7.8c-5.1,0-9.3,3.5-9.3,7.8c0,0.3-0.2,0.5-0.5,0.5
	c-0.3,0-0.5-0.2-0.5-0.5c0-4.9,4.6-8.9,10.3-8.9c5.7,0,10.3,4,10.3,8.9C839.6,320.6,839.4,320.9,839.1,320.9"/>
<path class="st2" d="M804.9,294.5c-0.3,0-0.5-0.2-0.5-0.5c0-12.7-10.3-23.1-23.1-23.1c-6.2,0-12,2.4-16.3,6.8
	c-0.2,0.2-0.5,0.2-0.8,0c-0.2-0.2-0.2-0.5,0-0.8c4.6-4.6,10.6-7.1,17.1-7.1c13.3,0,24.1,10.8,24.1,24.1
	C805.5,294.2,805.2,294.5,804.9,294.5"/>
<path class="st2" d="M793.1,314.9c-0.3,0-0.5-0.2-0.5-0.5c0-9.5,7.7-17.2,17.2-17.2c8.7,0,16.1,6.5,17.1,15.2c0,0.3-0.2,0.6-0.5,0.6
	c-0.3,0-0.6-0.2-0.6-0.5c-0.9-8.1-7.8-14.3-16-14.3c-8.9,0-16.1,7.2-16.1,16.1C793.6,314.7,793.4,314.9,793.1,314.9"/>
<path class="st2" d="M679.7,307.9C679.7,307.9,679.6,307.9,679.7,307.9c-0.4,0-0.6-0.3-0.5-0.6c1.6-13.5,13.2-23.7,26.8-23.7
	c6.6,0,12.9,2.4,17.8,6.7c0.2,0.2,0.2,0.5,0,0.8c-0.2,0.2-0.5,0.2-0.8,0c-4.7-4.2-10.8-6.5-17.1-6.5c-13.1,0-24.2,9.8-25.7,22.8
	C680.2,307.7,680,307.9,679.7,307.9"/>
<path class="st2" d="M834,325.8H673.5c-2.3,0-4.3-1.3-5.2-3.3c-0.6-1.5-0.9-3.1-0.8-4.8c0.2-3.8,2.5-7.3,6.1-9.2
	c1.8-1,3.6-1.4,5.6-1.3c1.7-13.5,13.1-23.6,26.8-23.6c3.6,0,7.1,0.7,10.4,2.1c1.2-6.2,6.6-10.7,12.9-10.7c2.2,0,4.3,0.5,6.2,1.6
	l4.2-28c0-0.3,0.3-0.5,0.5-0.5h25.6c0.3,0,0.5,0.2,0.5,0.5l3.3,24.4c4.8-2.7,10.1-3.6,15.6-2.7c9.8,1.6,17.7,9.2,19.7,18.9
	c0.6,2.9,0.7,5.9,0.2,8.8c1.5-0.4,3.1-0.7,4.6-0.7c8.5,0,15.7,6.2,17,14.6c0.8-0.2,1.7-0.3,2.5-0.3c5.7,0,10.3,4,10.3,8.9
	C839.6,323.4,837.1,325.8,834,325.8 M678.5,308.3c-1.6,0-3,0.4-4.5,1.2c-3.2,1.7-5.3,4.9-5.5,8.3c-0.1,1.5,0.2,2.9,0.7,4.3
	c0.7,1.6,2.3,2.7,4.2,2.7H834c2.5,0,4.6-1.9,4.6-4.3c0-4.3-4.2-7.8-9.3-7.8c-1,0-1.9,0.1-2.8,0.4c-0.1,0-0.3,0-0.4-0.1
	c-0.1-0.1-0.2-0.2-0.2-0.4c-1-8.1-7.8-14.2-16-14.2c-1.7,0-3.5,0.3-5.2,0.9c-0.2,0.1-0.4,0-0.5-0.1c-0.1-0.1-0.2-0.3-0.2-0.5
	c0.6-3.1,0.6-6.2,0-9.3c-1.9-9.3-9.5-16.6-18.8-18.1c-5.5-0.9-10.9,0.2-15.6,3c-0.1,0.1-0.3,0.1-0.5,0c-0.2-0.1-0.3-0.2-0.3-0.4
	l-3.4-24.7h-24.6l-4.3,28.4c0,0.2-0.1,0.3-0.3,0.4c-0.2,0.1-0.3,0.1-0.5,0c-1.9-1.2-4.1-1.8-6.3-1.8c-6,0-11.2,4.5-12,10.5
	c0,0.2-0.1,0.3-0.3,0.4c-0.1,0.1-0.3,0.1-0.5,0c-3.4-1.5-6.9-2.3-10.6-2.3c-13.3,0-24.4,10-25.8,23.2c0,0.3-0.3,0.5-0.6,0.5
	C679.2,308.3,678.9,308.3,678.5,308.3"/>
<path class="st3" d="M713.7,197.9l17.3-20.3l21.1,66c-21.1-10.4-46.1-9.5-66.5,2.3l-17.8,10.3l2.8-32.5
	C687.4,220,702.5,210.9,713.7,197.9"/>
<path class="st3" d="M790.5,197.9l-17.3-20.3l-21.1,66c21.1-10.4,46.1-9.5,66.5,2.3l17.8,10.3l-2.8-32.5
	C816.7,220,801.6,210.9,790.5,197.9"/>
<path class="st4" d="M762.6,250.6h-23c-4.4,0-7.9-3.5-7.9-7.9v-0.9h38.8v0.9C770.6,247.1,767,250.6,762.6,250.6"/>
<path class="st2" d="M667.9,257.3c-0.2,0-0.4-0.1-0.6-0.2c-0.3-0.2-0.5-0.6-0.5-1l2.8-32.5c0-0.5,0.4-0.8,0.8-0.9
	c16.4-3.6,31.5-12.7,42.4-25.5l17.3-20.3c0.3-0.3,0.6-0.4,1-0.4c0.4,0.1,0.7,0.4,0.8,0.7l21.1,66c0.1,0.4,0,0.8-0.3,1.1
	c-0.3,0.3-0.8,0.3-1.2,0.1c-20.9-10.3-45.3-9.4-65.5,2.3l-17.8,10.3C668.2,257.3,668,257.3,667.9,257.3 M671.7,224.6l-2.6,29.7
	l16-9.3c20-11.6,44.2-12.8,65.2-3.4l-19.8-61.9l-16.1,18.8v0C703.4,211.5,688.3,220.7,671.7,224.6 M713.7,197.9L713.7,197.9
	L713.7,197.9z"/>
<path class="st2" d="M836.3,257.3c-0.2,0-0.4,0-0.5-0.1L818,246.8c-20.1-11.7-44.6-12.5-65.5-2.3c-0.4,0.2-0.8,0.1-1.2-0.1
	c-0.3-0.3-0.4-0.7-0.3-1.1l21.1-66c0.1-0.4,0.4-0.6,0.8-0.7c0.4-0.1,0.8,0.1,1,0.4l17.3,20.3c10.9,12.8,26,21.9,42.4,25.5
	c0.5,0.1,0.8,0.5,0.8,0.9l2.8,32.5c0,0.4-0.2,0.8-0.5,1C836.7,257.3,836.5,257.3,836.3,257.3 M783.2,235.3c12.4,0,24.8,3.2,35.9,9.7
	l16,9.3l-2.6-29.7c-16.6-3.8-31.8-13-42.8-26l-16.1-18.8l-19.8,61.9C763.2,237.4,773.2,235.3,783.2,235.3"/>
<path class="st5" d="M769.6,242.5c10.6-21.2,17.7-58.7,17.7-95.5c0-55.7-36.3-95.5-36.3-95.5s-36.3,39.9-36.3,95.5
	c0,36.8,7.1,74.2,17.7,95.4C744.8,244,757.3,244,769.6,242.5"/>
<path class="st3" d="M751,51.4c0,0-1.5,1.6-3.8,4.6c9.3,12,32.5,46.4,32.5,90.9c0,30.5-4.9,61.4-12.6,83.2
	c-2.7,7.8-10,13.1-18.2,13.4c-0.4,0-0.8,0-1.2,0c7.3,0.2,14.6-0.2,21.9-1c10.6-21.2,17.7-58.7,17.7-95.5
	C787.4,91.3,751,51.4,751,51.4"/>
<path class="st6" d="M779.1,100.5c-10.7-30.1-28-49.1-28-49.1s-17.2,18.9-27.9,48.8C741.6,97,760.6,97.1,779.1,100.5"/>
<path class="st7" d="M751,51.4C751,51.4,751,51.5,751,51.4C751,51.5,751,51.5,751,51.4c-0.1,0.1-0.1,0.1-0.1,0.1c0,0,0,0,0,0
	c-0.4,0.4-1.6,1.8-3.2,3.9c0,0,0,0,0,0c-0.1,0.2-0.3,0.3-0.4,0.5c0,0,0,0,0,0c5.6,7.2,16.2,22.5,23.8,43.2c2.7,0.4,5.4,0.8,8.1,1.3
	v0c-0.1-0.4-0.3-0.8-0.4-1.1c-0.1-0.2-0.1-0.3-0.2-0.5c-0.5-1.2-0.9-2.4-1.4-3.6c-0.1-0.1-0.1-0.3-0.2-0.4c-0.2-0.4-0.3-0.8-0.5-1.2
	c0,0,0-0.1,0-0.1c-0.3-0.8-0.6-1.6-1-2.3c0-0.1-0.1-0.2-0.1-0.3c-0.2-0.4-0.3-0.8-0.5-1.2c0-0.1-0.1-0.1-0.1-0.2
	c-0.3-0.8-0.7-1.6-1.1-2.3c0,0,0,0,0,0c-0.2-0.4-0.4-0.8-0.5-1.2c0-0.1-0.1-0.1-0.1-0.2c-0.5-1.1-1.1-2.3-1.6-3.4
	c0-0.1-0.1-0.1-0.1-0.2c-0.6-1.1-1.1-2.2-1.7-3.3c0,0,0-0.1-0.1-0.1c-0.6-1.1-1.1-2.1-1.7-3.2c0,0,0,0,0,0c-1.4-2.4-2.7-4.7-4-6.8
	c0,0,0,0,0,0c-0.6-0.9-1.1-1.7-1.6-2.6c0,0,0,0,0-0.1c-0.5-0.8-1.1-1.6-1.6-2.4c0,0,0,0,0,0c-0.7-1-1.4-2-2-2.9c0,0,0,0,0,0
	c-0.5-0.7-0.9-1.3-1.4-1.9c0,0,0-0.1-0.1-0.1c-0.4-0.6-0.8-1.1-1.2-1.6c0,0-0.1-0.1-0.1-0.1c-0.4-0.5-0.7-1-1.1-1.4
	c0,0-0.1-0.1-0.1-0.1c-0.1-0.1-0.2-0.3-0.3-0.4c0,0,0,0,0,0c-0.2-0.3-0.4-0.5-0.6-0.7c0,0-0.1-0.1-0.1-0.1c-0.1-0.1-0.2-0.2-0.3-0.3
	c0,0-0.1-0.1-0.1-0.1c-0.1-0.2-0.3-0.3-0.4-0.5c0,0-0.1-0.1-0.1-0.1c-0.1-0.1-0.1-0.2-0.2-0.2c0-0.1-0.1-0.1-0.1-0.1
	c-0.1-0.1-0.2-0.2-0.3-0.3c0-0.1-0.1-0.1-0.1-0.2c0-0.1-0.1-0.1-0.1-0.2c0,0-0.1-0.1-0.1-0.1c0,0-0.1-0.1-0.1-0.1
	c-0.1-0.1-0.1-0.1-0.2-0.2c0,0,0-0.1-0.1-0.1c0,0-0.1-0.1-0.1-0.1c0,0,0,0-0.1-0.1c0,0-0.1-0.1-0.1-0.1c0,0,0,0,0,0
	C751.1,51.5,751.1,51.5,751,51.4C751.1,51.4,751.1,51.4,751,51.4C751.1,51.4,751,51.4,751,51.4C751,51.4,751,51.4,751,51.4
	C751,51.4,751,51.4,751,51.4"/>
<path class="st8" d="M726.4,91.8c16.4-2.5,33-2.4,49.4,0.3C765.2,66.9,751,51.4,751,51.4S737,66.8,726.4,91.8"/>
<path class="st8" d="M671.2,262.3c0,7-9.2,29.6-9.2,29.6s-9.2-22.6-9.2-29.6c0-7,4.1-12.6,9.2-12.6
	C667,249.7,671.2,255.4,671.2,262.3"/>
<path class="st9" d="M671.2,260.2h-18.9c-0.3,0-0.6-0.3-0.6-0.6v-3.2c0-0.3,0.3-0.6,0.6-0.6h18.9c0.3,0,0.6,0.3,0.6,0.6v3.2
	C671.8,259.9,671.6,260.2,671.2,260.2"/>
<path class="st5" d="M671.9,256.2c5.7-10.3,9.5-28.5,9.5-46.3c0-27-19.4-46.3-19.4-46.3s-19.4,19.3-19.4,46.3
	c0,17.8,3.8,36,9.4,46.2C658.6,257,665.3,257,671.9,256.2"/>
<path class="st3" d="M660.9,164.9l-0.9,1c0,0,0,0,0,0c5,5.8,17.4,22.5,17.4,44.1c0,17.8-3.8,36-9.5,46.3c-2.5,0.3-5.1,0.4-7.6,0.5
	c3.9,0.1,7.8-0.1,11.7-0.5c5.7-10.3,9.5-28.5,9.5-46.3c0-23-14.1-40.5-18.3-45.1C662.5,164.2,661.5,164.2,660.9,164.9"/>
<path class="st6" d="M678.7,192.4c-5.3-17.4-16.7-28.7-16.7-28.7s-11.3,11.2-16.6,28.5C656.4,190.6,667.7,190.7,678.7,192.4"/>
<path class="st8" d="M677.2,188.1c-5.7-14.9-15.2-24.4-15.2-24.4s-9.4,9.4-15.1,24.2C657,186.8,667.1,186.8,677.2,188.1"/>
<path class="st7" d="M660,165.9c3.5,4.1,10.5,13.4,14.5,25.9c1.4,0.2,2.8,0.3,4.2,0.6c-0.2-0.5-0.3-1-0.5-1.5c0-0.1,0-0.1-0.1-0.2
	c-0.2-0.5-0.3-1-0.5-1.4c0,0,0-0.1,0-0.1c-0.4-1-0.7-1.9-1.1-2.9c0,0,0-0.1,0-0.1c-0.2-0.5-0.4-0.9-0.6-1.3c0-0.1,0-0.1-0.1-0.2
	c-0.2-0.4-0.4-0.9-0.6-1.3c0-0.1,0-0.1-0.1-0.2c-0.2-0.4-0.4-0.8-0.6-1.3c0,0,0-0.1,0-0.1c-0.4-0.9-0.9-1.7-1.3-2.5
	c0,0,0-0.1-0.1-0.1c-0.2-0.4-0.4-0.8-0.6-1.1c0,0-0.1-0.1-0.1-0.1c-0.2-0.4-0.4-0.7-0.6-1.1c0,0,0-0.1-0.1-0.1
	c-0.2-0.4-0.4-0.7-0.6-1.1c0,0,0,0,0,0c-0.4-0.7-0.9-1.4-1.3-2.1c0,0,0-0.1-0.1-0.1c-0.2-0.3-0.4-0.6-0.6-0.9c0,0-0.1-0.1-0.1-0.1
	c-0.2-0.3-0.4-0.6-0.6-0.9c0,0,0-0.1-0.1-0.1c-0.2-0.3-0.4-0.6-0.6-0.9c0,0,0,0,0,0c-0.2-0.3-0.4-0.6-0.6-0.8c0,0,0,0,0,0
	c-0.2-0.3-0.4-0.5-0.6-0.8c0,0,0-0.1-0.1-0.1c-0.2-0.2-0.4-0.5-0.5-0.7c0,0,0-0.1-0.1-0.1c-0.2-0.2-0.3-0.4-0.5-0.6c0,0,0,0,0-0.1
	c-0.2-0.2-0.3-0.4-0.5-0.6c0,0,0,0,0,0c-0.2-0.2-0.3-0.4-0.5-0.6c0,0,0,0,0,0c-0.1-0.2-0.3-0.3-0.4-0.5c0,0,0,0,0-0.1
	c-0.1-0.1-0.3-0.3-0.4-0.4c0,0,0,0,0-0.1c-0.9-1-1.4-1.5-1.4-1.5S661.2,164.4,660,165.9"/>
<path class="st10" d="M676.6,186.4c-0.1-0.3-0.2-0.6-0.4-0.9c-0.1-0.1-0.1-0.3-0.2-0.4c-0.1-0.3-0.3-0.6-0.4-0.9
	c0-0.1-0.1-0.2-0.1-0.3c-0.2-0.4-0.4-0.8-0.5-1.2c0,0,0-0.1-0.1-0.1c-0.2-0.3-0.3-0.7-0.5-1c-0.1-0.1-0.1-0.2-0.2-0.3
	c-0.1-0.3-0.3-0.5-0.4-0.8c-0.1-0.1-0.1-0.2-0.2-0.3c-0.2-0.3-0.3-0.6-0.5-0.9c0-0.1-0.1-0.1-0.1-0.2c-0.2-0.4-0.4-0.7-0.6-1.1
	c0,0-0.1-0.1-0.1-0.1c-0.2-0.3-0.3-0.6-0.5-0.9c-0.1-0.1-0.1-0.2-0.2-0.3c-0.2-0.3-0.3-0.5-0.4-0.8c-0.1-0.1-0.1-0.2-0.2-0.2
	c-0.2-0.3-0.4-0.6-0.5-0.9c0,0,0-0.1-0.1-0.1c-0.2-0.3-0.4-0.6-0.6-0.9c0,0-0.1-0.1-0.1-0.1c-0.2-0.3-0.3-0.5-0.5-0.7
	c-0.1-0.1-0.1-0.1-0.2-0.2c-0.2-0.2-0.3-0.4-0.4-0.7c0-0.1-0.1-0.1-0.1-0.2c-0.4-0.5-0.7-1.1-1.1-1.6c0-0.1-0.1-0.1-0.1-0.2
	c-0.1-0.2-0.3-0.4-0.4-0.5c-0.1-0.1-0.1-0.1-0.2-0.2c-0.1-0.2-0.3-0.3-0.4-0.5c0-0.1-0.1-0.1-0.1-0.2c-0.2-0.2-0.3-0.4-0.5-0.6
	c0,0,0,0-0.1-0.1c-0.1-0.2-0.3-0.3-0.4-0.5c-0.1-0.1-0.1-0.1-0.2-0.2c-0.1-0.1-0.2-0.2-0.3-0.3c-0.1-0.1-0.1-0.2-0.2-0.2
	c-0.1-0.1-0.2-0.2-0.2-0.3c-0.1-0.1-0.1-0.2-0.2-0.2c-0.1-0.1-0.1-0.1-0.2-0.2c-0.1-0.2-0.3-0.3-0.4-0.5c0,0-0.1-0.1-0.1-0.1
	c-0.1-0.1-0.2-0.2-0.2-0.3c0,0,0,0-0.1-0.1c-0.1-0.1-0.2-0.2-0.2-0.3l0,0c-0.7-0.8-1.1-1.2-1.1-1.2s-0.4,0.4-1.1,1.2
	c-0.3,0.3-0.6,0.6-0.9,1l0,0c3.1,3.6,8.9,11.3,13,21.7c0.7,0.1,1.4,0.1,2.1,0.2c0,0,0.1,0,0.1,0c0.7,0.1,1.4,0.2,2.1,0.2
	c-0.2-0.4-0.3-0.8-0.5-1.3C676.7,186.7,676.6,186.6,676.6,186.4"/>
<path class="st2" d="M662.2,257.8c-3.4,0-6.9-0.2-10.3-0.6l-0.5-0.1l-0.3-0.5c-5.8-10.6-9.6-28.9-9.6-46.8
	c0-27.1,19.5-46.9,19.7-47.1l0.7-0.7l0.7,0.7c0.2,0.2,19.7,20,19.7,47.1c0,17.9-3.8,36.3-9.6,46.8l-0.3,0.5l-0.5,0.1
	C668.8,257.7,665.5,257.8,662.2,257.8 M652.7,255.2c6.1,0.7,12.4,0.7,18.5,0.1c5.5-10.3,9.1-28,9.1-45.3c0-23.2-14.8-40.9-18.3-44.8
	c-3.5,3.9-18.3,21.6-18.3,44.8C643.7,227.2,647.2,244.8,652.7,255.2"/>
<path class="st8" d="M851.4,262.3c0,7-9.2,29.6-9.2,29.6s-9.2-22.6-9.2-29.6c0-7,4.1-12.6,9.2-12.6
	C847.2,249.7,851.4,255.4,851.4,262.3"/>
<path class="st9" d="M851.4,260.2h-18.9c-0.3,0-0.6-0.3-0.6-0.6v-3.2c0-0.3,0.3-0.6,0.6-0.6h18.9c0.3,0,0.6,0.3,0.6,0.6v3.2
	C852,259.9,851.8,260.2,851.4,260.2"/>
<path class="st5" d="M852.1,256.2c5.7-10.3,9.5-28.5,9.5-46.3c0-27-19.4-46.3-19.4-46.3s-19.4,19.3-19.4,46.3
	c0,17.8,3.8,36,9.4,46.2C838.8,257,845.5,257,852.1,256.2"/>
<path class="st3" d="M841.1,164.9l-0.9,1c0,0,0,0,0,0c5,5.8,17.4,22.5,17.4,44.1c0,17.8-3.8,36-9.5,46.3c-2.5,0.3-5.1,0.4-7.6,0.5
	c3.9,0.1,7.8-0.1,11.7-0.5c5.7-10.3,9.5-28.5,9.5-46.3c0-23-14.1-40.5-18.3-45.1C842.7,164.2,841.7,164.2,841.1,164.9"/>
<path class="st6" d="M858.9,192.4c-5.3-17.4-16.7-28.7-16.7-28.7s-11.3,11.2-16.6,28.5C836.6,190.6,847.8,190.7,858.9,192.4"/>
<path class="st8" d="M857.4,188.1c-5.7-14.9-15.2-24.4-15.2-24.4s-9.4,9.4-15.1,24.2C837.1,186.8,847.3,186.8,857.4,188.1"/>
<path class="st7" d="M840.2,165.9c3.5,4.1,10.5,13.4,14.5,25.9c1.4,0.2,2.8,0.3,4.2,0.6l0,0c-0.2-0.5-0.3-1-0.5-1.5
	c0-0.1,0-0.1-0.1-0.2c-0.2-0.5-0.3-1-0.5-1.4c0,0,0-0.1,0-0.1c-0.4-1-0.7-1.9-1.1-2.9c0,0,0-0.1,0-0.1c-0.2-0.5-0.4-0.9-0.6-1.3
	c0-0.1,0-0.1-0.1-0.2c-0.2-0.4-0.4-0.9-0.6-1.3c0-0.1,0-0.1-0.1-0.2c-0.2-0.4-0.4-0.8-0.6-1.3c0,0,0-0.1,0-0.1
	c-0.4-0.9-0.9-1.7-1.3-2.5c0,0,0-0.1-0.1-0.1c-0.2-0.4-0.4-0.8-0.6-1.1c0,0-0.1-0.1-0.1-0.1c-0.2-0.4-0.4-0.7-0.6-1.1
	c0,0,0-0.1-0.1-0.1c-0.2-0.4-0.4-0.7-0.6-1.1c0,0,0,0,0,0c-0.4-0.7-0.9-1.4-1.3-2.1c0,0,0-0.1-0.1-0.1c-0.2-0.3-0.4-0.6-0.6-0.9
	c0,0-0.1-0.1-0.1-0.1c-0.2-0.3-0.4-0.6-0.6-0.9c0,0,0-0.1-0.1-0.1c-0.2-0.3-0.4-0.6-0.6-0.9c0,0,0,0,0,0c-0.2-0.3-0.4-0.6-0.6-0.8
	c0,0,0,0,0,0c-0.2-0.3-0.4-0.5-0.6-0.8c0,0,0-0.1-0.1-0.1c-0.2-0.2-0.4-0.5-0.5-0.7c0,0,0-0.1-0.1-0.1c-0.2-0.2-0.3-0.4-0.5-0.6
	c0,0,0,0,0-0.1c-0.2-0.2-0.3-0.4-0.5-0.6c0,0,0,0,0,0c-0.2-0.2-0.3-0.4-0.5-0.6c0,0,0,0,0,0c-0.1-0.2-0.3-0.3-0.4-0.5c0,0,0,0,0-0.1
	c-0.1-0.1-0.3-0.3-0.4-0.4c0,0,0,0,0-0.1c-0.9-1-1.4-1.5-1.4-1.5S841.4,164.4,840.2,165.9"/>
<path class="st10" d="M856.7,186.4c-0.1-0.3-0.2-0.6-0.4-0.9c-0.1-0.1-0.1-0.3-0.2-0.4c-0.1-0.3-0.3-0.6-0.4-0.9
	c0-0.1-0.1-0.2-0.1-0.3c-0.2-0.4-0.4-0.8-0.5-1.2c0,0,0-0.1-0.1-0.1c-0.2-0.3-0.3-0.7-0.5-1c-0.1-0.1-0.1-0.2-0.2-0.3
	c-0.1-0.3-0.3-0.5-0.4-0.8c-0.1-0.1-0.1-0.2-0.2-0.3c-0.2-0.3-0.3-0.6-0.5-0.9c0-0.1-0.1-0.1-0.1-0.2c-0.2-0.4-0.4-0.7-0.6-1.1
	c0,0-0.1-0.1-0.1-0.1c-0.2-0.3-0.3-0.6-0.5-0.9c-0.1-0.1-0.1-0.2-0.2-0.3c-0.2-0.3-0.3-0.5-0.4-0.8c-0.1-0.1-0.1-0.2-0.2-0.2
	c-0.2-0.3-0.4-0.6-0.5-0.9c0,0,0-0.1-0.1-0.1c-0.2-0.3-0.4-0.6-0.6-0.9c0,0-0.1-0.1-0.1-0.1c-0.2-0.3-0.3-0.5-0.5-0.7
	c-0.1-0.1-0.1-0.1-0.2-0.2c-0.1-0.2-0.3-0.4-0.4-0.7c0-0.1-0.1-0.1-0.1-0.2c-0.4-0.5-0.7-1.1-1.1-1.6c0-0.1-0.1-0.1-0.1-0.2
	c-0.1-0.2-0.3-0.4-0.4-0.5c-0.1-0.1-0.1-0.1-0.2-0.2c-0.1-0.2-0.3-0.3-0.4-0.5c0-0.1-0.1-0.1-0.1-0.2c-0.2-0.2-0.3-0.4-0.5-0.6
	c0,0,0,0-0.1-0.1c-0.1-0.2-0.3-0.3-0.4-0.5c-0.1-0.1-0.1-0.1-0.2-0.2c-0.1-0.1-0.2-0.2-0.3-0.3c-0.1-0.1-0.1-0.2-0.2-0.2
	c-0.1-0.1-0.2-0.2-0.2-0.3c-0.1-0.1-0.1-0.2-0.2-0.2c-0.1-0.1-0.1-0.1-0.2-0.2c-0.1-0.2-0.3-0.3-0.4-0.5c0,0-0.1-0.1-0.1-0.1
	c-0.1-0.1-0.2-0.2-0.2-0.3c0,0,0,0-0.1-0.1c-0.1-0.1-0.2-0.2-0.2-0.3h0c-0.7-0.8-1.1-1.2-1.1-1.2s-0.4,0.4-1.1,1.2
	c-0.3,0.3-0.6,0.6-0.9,1l0,0c3.1,3.6,8.9,11.3,13,21.7c0.7,0.1,1.4,0.1,2.1,0.2c0,0,0.1,0,0.1,0c0.7,0.1,1.4,0.2,2.1,0.2
	c-0.2-0.4-0.3-0.8-0.5-1.3C856.9,186.7,856.8,186.6,856.7,186.4"/>
<path class="st2" d="M842.4,257.8c-3.4,0-6.9-0.2-10.3-0.6l-0.5-0.1l-0.3-0.5c-5.8-10.6-9.6-28.9-9.6-46.8
	c0-27.1,19.5-46.9,19.7-47.1l0.7-0.7l0.7,0.7c0.2,0.2,19.7,20,19.7,47.1c0,17.9-3.8,36.3-9.6,46.8l-0.3,0.5l-0.5,0.1
	C849,257.7,845.7,257.8,842.4,257.8 M832.9,255.2c6.1,0.7,12.4,0.7,18.5,0.1c5.5-10.3,9.1-28,9.1-45.3c0-23.2-14.8-40.9-18.3-44.8
	c-3.5,3.9-18.3,21.6-18.3,44.8C823.8,227.2,827.4,244.8,832.9,255.2"/>
<path class="st10" d="M767.7,91c2.7,0.3,5.4,0.7,8.1,1.1c-8.1-19.3-18.3-32.9-22.7-38.2c0,0,0,0,0,0c-0.3-0.3-0.5-0.6-0.7-0.8
	c0,0,0-0.1-0.1-0.1c-0.1-0.1-0.2-0.3-0.3-0.4c0,0,0,0-0.1-0.1c-0.1-0.1-0.1-0.1-0.1-0.2c0,0-0.1-0.1-0.1-0.1
	c-0.1-0.1-0.1-0.1-0.2-0.2c0,0-0.1-0.1-0.1-0.1c0,0-0.1-0.1-0.1-0.1c0-0.1-0.1-0.1-0.1-0.1c0,0,0,0-0.1-0.1c0,0-0.1-0.1-0.1-0.1
	c0,0,0,0,0,0c-0.1-0.1-0.1-0.1-0.1-0.1s0,0,0,0c0,0,0,0,0,0c0,0,0,0,0,0c-0.1,0.1-0.2,0.2-0.3,0.4c0,0,0,0,0,0
	c-0.2,0.2-0.5,0.6-0.9,1c0,0,0,0,0,0c-0.2,0.2-0.4,0.5-0.6,0.7c0,0,0,0,0,0c-0.1,0.1-0.2,0.3-0.3,0.4c0,0,0,0-0.1,0.1
	c-0.1,0.1-0.2,0.3-0.3,0.4c0,0,0,0,0,0c-0.1,0.1-0.2,0.3-0.4,0.5c0,0,0,0,0,0c-0.1,0.1-0.2,0.3-0.3,0.4c0,0.1-0.1,0.1-0.1,0.2
	c-0.1,0.1-0.2,0.2-0.3,0.3c0,0-0.1,0.1-0.1,0.1C752.1,62.3,760.6,74.5,767.7,91"/>
<path class="st2" d="M751.5,244.7c-6.4,0-12.8-0.4-19.2-1.2l-0.6-0.1l-0.3-0.5c-10.8-21.6-17.8-59.3-17.8-95.9
	c0-55.4,36.2-95.9,36.6-96.3l0.8-0.9l0.8,0.9c0.4,0.4,36.6,40.8,36.6,96.3c0,36.7-7,74.4-17.9,96l-0.3,0.5l-0.6,0.1
	C763.7,244.3,757.6,244.7,751.5,244.7 M733.1,241.4c11.9,1.5,23.9,1.5,35.8,0.1c10.6-21.4,17.4-58.5,17.4-94.6
	c0-50-30-87.7-35.3-93.9c-5.3,6.2-35.3,43.9-35.3,93.9C715.8,183,722.6,219.9,733.1,241.4"/>
<path class="st3" d="M774.7,142.8c0,13.3-10.8,24.1-24.1,24.1c-13.3,0-24.1-10.8-24.1-24.1c0-13.3,10.8-24.1,24.1-24.1
	C763.9,118.7,774.7,129.5,774.7,142.8"/>
<path class="st11" d="M767.4,142.8c0,9.3-7.5,16.8-16.8,16.8c-9.3,0-16.8-7.5-16.8-16.8c0-9.3,7.5-16.8,16.8-16.8
	C759.9,126,767.4,133.6,767.4,142.8"/>
<path class="st2" d="M750.7,161.4c-4.9,0-9.6-1.9-13.1-5.4c-3.6-3.5-5.6-8.3-5.6-13.3c0-10.2,8.3-18.5,18.5-18.5
	c4.9,0,9.6,1.9,13.1,5.4c3.6,3.5,5.6,8.3,5.6,13.3C769.2,153.1,760.9,161.4,750.7,161.4 M750.5,125.8c-9.3,0-16.9,7.6-16.9,16.9
	c0,4.6,1.8,8.9,5.1,12.1c3.2,3.2,7.5,4.9,12,4.9c9.3,0,16.9-7.6,16.9-16.9c0-4.6-1.8-8.9-5.1-12.1
	C759.3,127.6,755,125.8,750.5,125.8"/>
<path class="st2" d="M751.5,122c0,0.7-0.5,1.2-1.2,1.2s-1.2-0.5-1.2-1.2c0-0.7,0.5-1.2,1.2-1.2S751.5,121.4,751.5,122"/>
<path class="st2" d="M743.5,123.3c0.3,0.6,0,1.3-0.7,1.6c-0.6,0.3-1.3,0-1.6-0.7c-0.3-0.6,0-1.3,0.7-1.6
	C742.5,122.4,743.2,122.6,743.5,123.3"/>
<path class="st2" d="M736.5,127.5c0.5,0.5,0.5,1.2,0,1.7c-0.5,0.5-1.2,0.5-1.7,0c-0.5-0.5-0.5-1.2,0-1.7
	C735.3,127,736,127,736.5,127.5"/>
<path class="st2" d="M731.7,134c0.6,0.3,0.9,1,0.7,1.6c-0.3,0.6-1,0.9-1.6,0.7c-0.6-0.3-0.9-1-0.7-1.6
	C730.4,134.1,731.1,133.8,731.7,134"/>
<path class="st2" d="M729.8,141.9c0.7,0,1.2,0.5,1.2,1.2c0,0.7-0.5,1.2-1.2,1.2c-0.7,0-1.2-0.5-1.2-1.2
	C728.6,142.5,729.1,141.9,729.8,141.9"/>
<path class="st2" d="M731,150c0.6-0.3,1.3,0,1.6,0.7c0.3,0.6,0,1.3-0.7,1.6c-0.6,0.3-1.3,0-1.6-0.7C730.1,150.9,730.4,150.2,731,150
	"/>
<path class="st2" d="M735.2,156.9c0.5-0.5,1.2-0.5,1.7,0c0.5,0.5,0.5,1.2,0,1.7c-0.5,0.5-1.2,0.5-1.7,0
	C734.8,158.1,734.8,157.4,735.2,156.9"/>
<path class="st2" d="M741.8,161.7c0.3-0.6,1-0.9,1.6-0.7c0.6,0.3,0.9,1,0.7,1.6c-0.3,0.6-1,0.9-1.6,0.7
	C741.8,163,741.5,162.3,741.8,161.7"/>
<path class="st2" d="M749.7,163.6c0-0.7,0.5-1.2,1.2-1.2c0.7,0,1.2,0.5,1.2,1.2c0,0.7-0.5,1.2-1.2,1.2
	C750.2,164.8,749.7,164.3,749.7,163.6"/>
<path class="st2" d="M757.7,162.4c-0.3-0.6,0-1.3,0.7-1.6c0.6-0.3,1.3,0,1.6,0.7c0.3,0.6,0,1.3-0.7,1.6
	C758.7,163.3,758,163,757.7,162.4"/>
<path class="st2" d="M764.7,158.2c-0.5-0.5-0.5-1.2,0-1.7c0.5-0.5,1.2-0.5,1.7,0c0.5,0.5,0.5,1.2,0,1.7
	C765.9,158.7,765.1,158.7,764.7,158.2"/>
<path class="st2" d="M769.5,151.6c-0.6-0.3-0.9-1-0.7-1.6c0.3-0.6,1-0.9,1.6-0.7c0.6,0.3,0.9,1,0.7,1.6
	C770.8,151.6,770.1,151.9,769.5,151.6"/>
<path class="st2" d="M771.4,143.7c-0.7,0-1.2-0.5-1.2-1.2s0.5-1.2,1.2-1.2c0.7,0,1.2,0.5,1.2,1.2S772.1,143.7,771.4,143.7"/>
<path class="st2" d="M770.2,135.7c-0.6,0.3-1.3,0-1.6-0.7c-0.3-0.6,0-1.3,0.7-1.6c0.6-0.3,1.3,0,1.6,0.7
	C771.1,134.7,770.8,135.4,770.2,135.7"/>
<path class="st2" d="M765.9,128.8c-0.5,0.5-1.2,0.5-1.7,0c-0.5-0.5-0.5-1.2,0-1.7c0.5-0.5,1.2-0.5,1.7,0
	C766.4,127.5,766.4,128.3,765.9,128.8"/>
<path class="st2" d="M759.4,124c-0.3,0.6-1,0.9-1.6,0.7c-0.6-0.3-0.9-1-0.7-1.6c0.3-0.6,1-0.9,1.6-0.7
	C759.3,122.6,759.6,123.3,759.4,124"/>
<path class="st1" d="M763.5,138.9c-0.3,0-0.6-0.2-0.7-0.5c-0.7-1.8-1.7-3.4-3.1-4.8c-1.9-1.8-4.2-3.1-6.8-3.6
	c-0.4-0.1-0.7-0.5-0.6-0.9c0.1-0.4,0.5-0.7,0.9-0.6c2.9,0.5,5.5,1.9,7.6,4c1.5,1.5,2.7,3.3,3.5,5.3c0.2,0.4-0.1,0.9-0.5,1
	C763.7,138.9,763.6,138.9,763.5,138.9"/>
<path class="st2" d="M750.6,167.7c-13.7,0-24.9-11.2-24.9-24.9c0-13.7,11.2-24.9,24.9-24.9c13.7,0,24.9,11.2,24.9,24.9
	C775.5,156.6,764.3,167.7,750.6,167.7 M750.6,119.5c-12.9,0-23.3,10.5-23.3,23.3s10.5,23.3,23.3,23.3c12.9,0,23.3-10.5,23.3-23.3
	S763.4,119.5,750.6,119.5"/>
<path class="st3" d="M763.2,190.7c0,6.9-5.6,12.6-12.6,12.6c-6.9,0-12.6-5.6-12.6-12.6c0-6.9,5.6-12.6,12.6-12.6
	C757.5,178.1,763.2,183.7,763.2,190.7"/>
<path class="st11" d="M759.3,190.7c0,4.8-3.9,8.8-8.8,8.8c-4.8,0-8.8-3.9-8.8-8.8c0-4.8,3.9-8.8,8.8-8.8
	C755.4,181.9,759.3,185.8,759.3,190.7"/>
<path class="st2" d="M750.6,200.4c-2.6,0-5-1-6.8-2.8c-1.9-1.8-2.9-4.3-2.9-6.9c0-5.3,4.3-9.7,9.7-9.7c2.6,0,5,1,6.8,2.8
	c1.9,1.8,2.9,4.3,2.9,6.9C760.3,196,756,200.4,750.6,200.4 M750.5,181.8c-4.9,0-8.8,4-8.8,8.8c0,2.4,0.9,4.6,2.7,6.3
	c1.7,1.7,3.9,2.6,6.3,2.6c4.9,0,8.8-4,8.8-8.8c0-2.4-0.9-4.6-2.7-6.3C755.1,182.7,752.9,181.8,750.5,181.8"/>
<path class="st1" d="M757.3,188.6c-0.2,0-0.3-0.1-0.4-0.3c-0.3-0.9-0.9-1.8-1.6-2.5c-1-1-2.2-1.6-3.5-1.9c-0.2,0-0.4-0.3-0.3-0.5
	c0-0.2,0.2-0.4,0.5-0.3c1.5,0.3,2.9,1,4,2.1c0.8,0.8,1.4,1.7,1.8,2.8c0.1,0.2,0,0.5-0.2,0.5C757.4,188.6,757.4,188.6,757.3,188.6"/>
<path class="st2" d="M750.6,203.7c-7.2,0-13-5.8-13-13c0-7.2,5.8-13,13-13c7.2,0,13,5.8,13,13C763.6,197.8,757.7,203.7,750.6,203.7
	 M750.6,178.5c-6.7,0-12.2,5.5-12.2,12.2c0,6.7,5.5,12.2,12.2,12.2c6.7,0,12.2-5.5,12.2-12.2C762.7,184,757.3,178.5,750.6,178.5"/>
<path class="st2" d="M910.2,327.5h-26.3c-0.9,0-1.7-0.7-1.7-1.7c0-0.9,0.7-1.7,1.7-1.7h26.3c0.9,0,1.7,0.7,1.7,1.7
	C911.9,326.7,911.1,327.5,910.2,327.5"/>
<path class="st2" d="M630.2,324.1h243.4c0.9,0,1.7,0.7,1.7,1.7c0,0.9-0.7,1.7-1.7,1.7"/>
<path class="st2" d="M873.6,327.5H630.2"/>
<path class="st0" d="M855-371.2c-65.9,33.4-84.4-40.8-146.7-18.9c-22,7.7-47.6,29-38.9,82.9c2.9,17.5-2.7,35.6-16,47.5
	c-3,2.7-5.9,5.8-8.4,9.2c-17.3,23.7-13.9,57.3,7.8,77c8.6,7.9,18.9,12.6,29.5,14.4c13.9,2.3,22.2,16.8,16.4,29.6
	c0,0.1-0.1,0.2-0.1,0.3c-24.7,53.7,51.6,84.6,95.1,65.8c37.6-16.3,54.5-19.2,74.9-15.3c64.8,12.3,120.7-39.1,97.7-90.6
	c-24.3-54.4,8.5-99.4,5.1-144.2C966.4-380.6,907.3-397.8,855-371.2"/>
<path class="st1" d="M783.8-102.4h-47.9c-0.9,0-1.7-0.7-1.7-1.7c0-0.9,0.7-1.7,1.7-1.7h47.9c0.9,0,1.7,0.7,1.7,1.7
	C785.5-103.2,784.7-102.4,783.8-102.4"/>
<path class="st1" d="M797.9-90.4h-48.7c-0.9,0-1.7-0.7-1.7-1.7c0-0.9,0.7-1.7,1.7-1.7h48.7c0.9,0,1.7,0.7,1.7,1.7
	C799.6-91.1,798.8-90.4,797.9-90.4"/>
<path class="st1" d="M811.4-102.4h-13.7c-0.9,0-1.7-0.7-1.7-1.7c0-0.9,0.7-1.7,1.7-1.7h13.7c0.9,0,1.7,0.7,1.7,1.7
	C813-103.2,812.3-102.4,811.4-102.4"/>
<path class="st1" d="M905.6-95.3L905.6-95.3l-16.5-0.2c-0.9,0-1.7-0.8-1.7-1.7c0-0.9,0.8-1.7,1.7-1.7h0l16.4,0.2
	c0.9,0,1.7,0.8,1.7,1.7C907.3-96.1,906.5-95.3,905.6-95.3"/>
<path class="st1" d="M930.6-109.2L930.6-109.2l-33.1-0.3c-0.9,0-1.7-0.8-1.7-1.7c0-0.9,0.7-1.7,1.7-1.7l33.1,0.3
	c0.9,0,1.7,0.8,1.7,1.7C932.3-109.9,931.6-109.2,930.6-109.2"/>
<path class="st1" d="M754.8-354h-28c-0.9,0-1.7-0.7-1.7-1.7c0-0.9,0.7-1.7,1.7-1.7h28c0.9,0,1.7,0.7,1.7,1.7
	C756.5-354.8,755.7-354,754.8-354"/>
<path class="st1" d="M757.1-328.9h-14.2c-0.9,0-1.7-0.7-1.7-1.7c0-0.9,0.7-1.7,1.7-1.7h14.2c0.9,0,1.7,0.7,1.7,1.7
	C758.7-329.7,758-328.9,757.1-328.9"/>
<path class="st1" d="M780.3-341.4h-64.4c-0.9,0-1.7-0.7-1.7-1.7c0-0.9,0.7-1.7,1.7-1.7h64.4c0.9,0,1.7,0.7,1.7,1.7
	C782-342.1,781.2-341.4,780.3-341.4"/>
<path class="st1" d="M777.4-354h-7c-0.9,0-1.7-0.7-1.7-1.7c0-0.9,0.7-1.7,1.7-1.7h7c0.9,0,1.7,0.7,1.7,1.7
	C779.1-354.8,778.3-354,777.4-354"/>
<path class="st12" d="M931.1-141.3H693.4c-3.6,0-6.5-2.9-6.5-6.5v-157.1c0-3.6,2.9-6.5,6.5-6.5h237.7c3.6,0,6.5,2.9,6.5,6.5v157.1
	C937.6-144.2,934.7-141.3,931.1-141.3"/>
<path class="st1" d="M919.7-159.6h-215c-3.1,0-5.5-2.5-5.5-5.5v-126.1c0-3.1,2.5-5.5,5.5-5.5h215c3.1,0,5.5,2.5,5.5,5.5v126.1
	C925.3-162.1,922.8-159.6,919.7-159.6"/>
<path class="st5" d="M699.2-279.6h226.1v-11.6c0-3.1-2.5-5.5-5.5-5.5h-215c-3.1,0-5.5,2.5-5.5,5.5V-279.6z"/>
<path class="st2" d="M712.5-288.2c0,1.7-1.4,3-3,3c-1.7,0-3-1.3-3-3c0-1.6,1.4-3,3-3C711.1-291.2,712.5-289.8,712.5-288.2"/>
<path class="st2" d="M722.5-288.2c0,1.7-1.4,3-3,3c-1.7,0-3-1.3-3-3c0-1.6,1.4-3,3-3C721.1-291.2,722.5-289.8,722.5-288.2"/>
<path class="st2" d="M732.5-288.2c0,1.7-1.4,3-3,3c-1.7,0-3-1.3-3-3c0-1.6,1.4-3,3-3C731.1-291.2,732.5-289.8,732.5-288.2"/>
<path class="st2" d="M931.1-139.6H693.4c-4.5,0-8.2-3.7-8.2-8.2v-157.1c0-4.5,3.7-8.2,8.2-8.2h237.7c4.5,0,8.2,3.7,8.2,8.2v157.1
	C939.3-143.2,935.6-139.6,931.1-139.6 M693.4-309.6c-2.6,0-4.8,2.1-4.8,4.8v157.1c0,2.6,2.1,4.8,4.8,4.8h237.7
	c2.6,0,4.8-2.1,4.8-4.8v-157.1c0-2.6-2.1-4.8-4.8-4.8H693.4z"/>
<path class="st2" d="M815-303.2c0,1.5-1.2,2.8-2.8,2.8c-1.5,0-2.8-1.2-2.8-2.8c0-1.5,1.2-2.8,2.8-2.8
	C813.8-305.9,815-304.7,815-303.2"/>
<g>
	<defs>
		<path id="SVGID_1_" d="M704.7-296.8c-3.1,0-5.5,2.5-5.5,5.5v126.1c0,3.1,2.5,5.5,5.5,5.5h215c3.1,0,5.5-2.5,5.5-5.5v-126.1
			c0-3.1-2.5-5.5-5.5-5.5H704.7z"/>
	</defs>
	<clipPath id="SVGID_2_">
		<use xlink:href="#SVGID_1_"  style="overflow:visible;"/>
	</clipPath>
	<path class="st13" d="M832.6-146.1L832.6-146.1c-7.5,2.4-15.6-1.8-18-9.3l-28.4-89.7c-2.4-7.5,1.8-15.6,9.3-18
		c7.5-2.4,15.6,1.8,18,9.3l28.4,89.7C844.3-156.5,840.2-148.5,832.6-146.1"/>
	<path class="st14" d="M797.8-263.6c4.6,1.2,8.5,4.7,10,9.5l28.4,89.7c2.4,7.5-1.8,15.6-9.3,18c-0.7,0.2-1.5,0.4-2.2,0.5
		c2.5,0.7,5.3,0.7,8-0.2c7.5-2.4,11.7-10.4,9.3-18l-28.4-89.7C811.4-260.5,804.6-264.6,797.8-263.6"/>
	<path class="st15" d="M828.3-143.9c-2.5,0-5-0.6-7.3-1.8c-3.8-1.9-6.5-5.2-7.8-9.3l-28.4-89.7c-2.6-8.3,2-17.2,10.3-19.9
		c4-1.3,8.3-0.9,12.1,1c3.8,1.9,6.5,5.2,7.8,9.3l28.4,89.6c2.6,8.3-2,17.2-10.3,19.9C831.5-144.2,829.9-143.9,828.3-143.9
		 M799.9-262.3c-1.3,0-2.6,0.2-3.9,0.6c-6.7,2.1-10.5,9.4-8.4,16.1l28.4,89.6c1,3.3,3.3,5.9,6.3,7.5c3,1.6,6.5,1.9,9.8,0.8
		c6.7-2.1,10.5-9.4,8.4-16.1l-28.4-89.7c-1-3.3-3.3-5.9-6.3-7.5C803.9-261.8,801.9-262.3,799.9-262.3"/>
	<path class="st16" d="M813.5-179.7c-0.6,0-1.2-0.4-1.4-1l-22.5-71c-0.3-0.8,0.2-1.6,1-1.9c0.8-0.3,1.6,0.2,1.9,1l22.5,71
		c0.3,0.8-0.2,1.6-1,1.9C813.8-179.7,813.6-179.7,813.5-179.7"/>
	<path class="st16" d="M819.4-161.1c-0.6,0-1.2-0.4-1.4-1l-3.5-11c-0.3-0.8,0.2-1.6,1-1.9c0.8-0.2,1.6,0.2,1.9,1l3.5,11
		c0.3,0.8-0.2,1.6-1,1.9C819.7-161.1,819.5-161.1,819.4-161.1"/>
</g>
<path class="st2" d="M919.7-158.8h-215c-3.5,0-6.4-2.9-6.4-6.4v-126.1c0-3.5,2.9-6.4,6.4-6.4h215c3.5,0,6.4,2.9,6.4,6.4v126.1
	C926.1-161.6,923.2-158.8,919.7-158.8 M704.7-295.9c-2.6,0-4.7,2.1-4.7,4.7v126.1c0,2.6,2.1,4.7,4.7,4.7h215c2.6,0,4.7-2.1,4.7-4.7
	v-126.1c0-2.6-2.1-4.7-4.7-4.7H704.7z"/>
<path class="st12" d="M947.2-149.7H833.2c-1.6,0-2.9,1.3-2.9,2.9c0,1.8-1.3,3.3-2.9,3.3H797c-1.6,0-2.9-1.5-2.9-3.3
	c0-1.6-1.3-2.9-2.9-2.9H677.3c-1.3,0-2.4,1.1-2.4,2.4v2.2c0,6.8,5.5,12.3,12.3,12.3h250c6.8,0,12.3-5.5,12.3-12.3v-2.2
	C949.5-148.7,948.5-149.7,947.2-149.7"/>
<path class="st17" d="M936.8-139H677.4c-0.3,0-0.6,0-0.8,0c2.1,3.7,6.1,6.2,10.7,6.2h250c6.8,0,12.3-5.5,12.3-12.3v-2.2
	c0-0.5-0.1-0.9-0.4-1.3C947.8-143.1,942.7-139,936.8-139"/>
<path class="st2" d="M937.2-131.1h-250c-7.7,0-14-6.3-14-14v-2.2c0-2.2,1.8-4.1,4.1-4.1h113.9c2.5,0,4.6,2.1,4.6,4.6
	c0,0.8,0.5,1.6,1.2,1.6h30.4c0.6,0,1.2-0.7,1.2-1.6c0-2.5,2.1-4.6,4.6-4.6h113.9c2.2,0,4.1,1.8,4.1,4.1v2.2
	C951.2-137.4,945-131.1,937.2-131.1 M677.3-148c-0.4,0-0.7,0.3-0.7,0.7v2.2c0,5.8,4.8,10.6,10.6,10.6h250c5.8,0,10.6-4.8,10.6-10.6
	v-2.2c0-0.4-0.3-0.7-0.7-0.7H833.2c-0.7,0-1.2,0.5-1.2,1.2c0,2.7-2.1,5-4.6,5H797c-2.5,0-4.6-2.2-4.6-5c0-0.7-0.5-1.2-1.2-1.2H677.3
	z"/>
<path class="st2" d="M925.3-278.7H699.2c-0.5,0-0.8-0.4-0.8-0.8c0-0.5,0.4-0.8,0.8-0.8h226.1c0.5,0,0.8,0.4,0.8,0.8
	C926.1-279.1,925.7-278.7,925.3-278.7"/>
<path class="st9" d="M780.8-212.6L780.8-212.6c-5.6,2.5-12.1-0.1-14.6-5.6l-5-11.3c-2.4-5.5,0.1-12.1,5.6-14.5l0.1,0
	c5.5-2.4,12.1,0.1,14.5,5.6l5,11.3C788.9-221.6,786.3-215,780.8-212.6"/>
<path class="st2" d="M776.3-210.1c-4.8,0-9.4-2.8-11.5-7.5l-5-11.3c-2.8-6.3,0.1-13.7,6.4-16.5c6.4-2.8,13.8,0.1,16.6,6.4l5,11.3
	c2.8,6.3-0.1,13.7-6.4,16.5l-0.1,0C779.7-210.5,778-210.1,776.3-210.1 M780.1-213.9l0.7,1.3L780.1-213.9c4.9-2.1,7-7.8,4.9-12.6
	l-5-11.3c-2.1-4.8-7.7-7-12.5-4.9c-4.9,2.1-7,7.8-4.9,12.6l5,11.3c1,2.3,2.9,4.1,5.3,5C775.2-212.9,777.8-212.9,780.1-213.9"/>
<path class="st18" d="M927.4-216.1l-21.3-1.4c-29-2-58.1-0.6-86.8,4l-16.4,2.7l-18.8-49.9l14-8.8c24.6-15.5,47.4-33.7,67.8-54.3
	l15-15.2L927.4-216.1z"/>
<path class="st19" d="M881-339l-15,15.2c-1.9,2-3.9,3.9-5.9,5.8c0.5,14.5,4.4,32.6,11.5,51.5c7.6,20.3,17.6,37.4,27.4,48.7
	c2.4,0.1,4.8,0.2,7.2,0.4l21.3,1.4L881-339z"/>
<path class="st20" d="M927.4-216.1l-2.4-6.4c-8.2-7.6-15.6-13.6-18.1-13.2c-6.5,1.2-72.3,10.1-97.1,15.4c-3.6,0.8-6.9,1.3-9.9,1.7
	l2.9,7.8l16.4-2.7c28.7-4.6,57.8-6,86.8-4L927.4-216.1z"/>
<path class="st19" d="M803.1-230.4l-5.9-15.7c-3.2-8.5-1.8-17.6,2.9-24.7c-0.6,0.4-1.3,0.8-1.9,1.2l-14.9,8.2
	c-10.6,4-16,15.8-12,26.5l5,13.2c4,10.6,15.8,16,26.5,12l16.6-3.7c0.7-0.1,1.5-0.2,2.2-0.3C813.4-215.9,806.3-221.9,803.1-230.4"/>
<path class="st7" d="M809.9-220.3c-17.2,3.7-27.6,2.2-32.4,0.9c4.8,9,15.6,13.2,25.3,9.6l16.6-3.7c0.7-0.1,1.5-0.2,2.2-0.3
	C817.2-214.9,813.2-217.2,809.9-220.3"/>
<path class="st2" d="M795.5-207c-8.9,0-17.3-5.4-20.6-14.3l-5-13.2c-4.3-11.3,1.4-24,12.7-28.3l14.8-8.1c0.3-0.2,0.6-0.4,0.9-0.6
	l0.9-0.6c23.8-15.1,45.9-32.9,65.7-52.9l16.7-16.8l48,127.3L906-216c-28.8-2-57.9-0.6-86.4,4l-16.4,3.6
	C800.7-207.4,798.1-207,795.5-207 M880.4-336.3L867-322.8c-19.9,20.1-42.2,38-66.2,53.3L800-269c-0.3,0.2-0.7,0.5-1,0.7l-15.1,8.3
	c-9.8,3.7-14.8,14.7-11.1,24.5l5,13.2c3.7,9.8,14.7,14.8,24.5,11.1l0.2-0.1l16.6-3.7c28.8-4.7,58.2-6,87.2-4.1l18.9,1.3L880.4-336.3
	z"/>
<path class="st7" d="M888.1-232.8c3.3,5.6,6.7,10.6,9.9,14.9c2.7,0.1,5.5,0.3,8.2,0.5l21.3,1.4l-2.4-6.4
	c-8.2-7.6-15.6-13.6-18.1-13.2C905-235.3,897.8-234.2,888.1-232.8"/>
<path class="st9" d="M931.8-288c13.2,34.9,13.6,67.1,0.9,71.9c-12.7,4.8-33.7-19.6-46.9-54.6c-13.2-34.9-13.6-67.1-0.9-71.9
	C897.7-347.3,918.7-322.9,931.8-288"/>
<path class="st4" d="M885-342.5c-4,1.5-6.7,5.7-8.1,11.8c1.2-1.4,2.5-2.4,4.1-3c12.7-4.8,33.7,19.6,46.9,54.6c9,24,12.1,46.6,9,60.1
	c8.3-9.8,6.6-38.3-4.9-68.9C918.7-322.9,897.7-347.3,885-342.5"/>
<path class="st20" d="M904.3-281.7c-4.5-10.4-15.7-15.6-24.9-11.4c-0.4,0.2-0.8,0.4-1.1,0.6c1.7,6.8,4.1,14.2,7.5,22
	c2.5,5.9,5.3,11.2,8.1,16c0.6-0.2,1.3-0.4,1.9-0.7C905-259.4,908.9-271.2,904.3-281.7"/>
<path class="st18" d="M892.5-258.4c9.3-4.1,13.1-16,8.6-26.4c-0.9-2.1-2.1-4-3.5-5.7c-5.3-4.1-12.1-5.3-18.2-2.6
	c-0.4,0.2-0.8,0.4-1.1,0.6c1.7,6.8,4.1,14.2,7.5,22c1.9,4.5,4,8.6,6.1,12.5C892.1-258.2,892.3-258.3,892.5-258.4"/>
<path class="st2" d="M929.3-214c-6.1,0-13.4-4.7-21-13.5c-9-10.4-17.4-25.6-23.9-42.6c-6.4-17-10.1-34-10.2-47.8
	c-0.2-14.3,3.5-23.5,10.3-26.1c6.8-2.6,15.6,2,24.9,12.8c9,10.4,17.4,25.6,23.9,42.6c13.7,36.2,13.7,68.7,0,73.8
	C932-214.2,930.7-214,929.3-214 M888.3-341.6c-1,0-1.9,0.2-2.8,0.5c-5.4,2.1-8.5,10.5-8.3,23.2c0.2,13.4,3.7,30,10,46.7
	c6.3,16.7,14.6,31.5,23.3,41.7c8.3,9.6,16.2,14,21.6,12c11.7-4.4,10.9-36.5-1.7-70c-6.3-16.7-14.6-31.5-23.3-41.7
	C900.2-337.2,893.5-341.6,888.3-341.6"/>
<path class="st1" d="M883.4-251.5c-0.6,0-1.1-0.3-1.4-0.8c-2.3-4.8-4.5-9.9-6.5-15.1c-6.7-17.9-10.4-35.5-10.2-49.5
	c0-0.8,0.7-1.4,1.5-1.5c0.8,0,1.5,0.7,1.5,1.5c-0.1,13.5,3.5,31.2,10,48.4c1.9,5.1,4.1,10.1,6.4,14.9c0.4,0.7,0,1.6-0.7,2
	C883.9-251.5,883.6-251.5,883.4-251.5"/>
<path class="st1" d="M892.1-235.9c-0.5,0-1-0.2-1.3-0.7c-1.9-2.9-3.7-6.1-5.5-9.3c-0.4-0.7-0.1-1.6,0.6-2c0.7-0.4,1.6-0.1,2,0.6
	c1.7,3.2,3.5,6.3,5.4,9.1c0.4,0.7,0.2,1.6-0.5,2.1C892.6-236,892.3-235.9,892.1-235.9"/>
<path class="st2" d="M778-241.2c-0.3,0-0.6-0.2-0.7-0.5c-0.1-0.4,0-0.8,0.4-1l10.3-3.9c0.4-0.1,0.8,0.1,1,0.4c0.1,0.4-0.1,0.8-0.4,1
	l-10.3,3.9C778.2-241.2,778.1-241.2,778-241.2"/>
<path class="st2" d="M781.8-231.3c-0.3,0-0.6-0.2-0.7-0.5c-0.1-0.4,0-0.8,0.4-1l10.3-3.9c0.4-0.1,0.8,0.1,1,0.4c0.1,0.4,0,0.8-0.4,1
	l-10.3,3.9C781.9-231.3,781.8-231.3,781.8-231.3"/>
<path class="st2" d="M785.5-221.4c-0.3,0-0.6-0.2-0.7-0.5c-0.1-0.4,0.1-0.8,0.4-1l10.3-3.9c0.4-0.1,0.8,0.1,1,0.4
	c0.1,0.4,0,0.8-0.4,1l-10.3,3.9C785.7-221.4,785.6-221.4,785.5-221.4"/>
<path class="st5" d="M1017.6,357.6c-27.4-7.8-86.3-45.2-47.1-121.1c29.6-57.4,12.3-99.5-1.2-132.8"/>
<path class="st5" d="M969.2,103.7c-17.2-42.2,23.2-87.3,68.4-83.1c68.6,6.4,51.8,71.1,186.1,72.1c50.6,0.4,85.7,21.4,69.7,82.3
	c-15.5,59.1-95.7,36.7-61.8,126.8c18.1,48.2-4,71.7-56.8,52.5c-66.4-24.1-108.7,17.1-157.1,3.2"/>
<path class="st18" d="M1191.5,97.9l-14,0.7l-38.8,1.8c-3.1,0.1-6.2,1.2-8.8,2.9l-118.6,80.3c-3.5,2.4-4.4,7.2-2.1,10.7l39.6,58.5
	c2.4,3.5,7.2,4.4,10.7,2.1l118.6-80.3c2.6-1.8,4.7-4.2,6-7l21.9-48C1210.8,109.1,1202.9,97.4,1191.5,97.9 M1165.8,129.6
	c-4.4-6.5-2.7-15.4,3.8-19.8c6.5-4.4,15.4-2.7,19.8,3.8c4.4,6.5,2.7,15.4-3.8,19.8C1179,137.9,1170.2,136.1,1165.8,129.6"/>
<path class="st20" d="M1184.2,167.5l21.9-48c2-4.5,1.7-9.2-0.2-13.1c-0.1,0.1-0.1,0.2-0.1,0.4l-21.9,48c-1.3,2.8-3.4,5.3-6,7
	l-118.6,80.3c-3.5,2.4-8.3,1.5-10.7-2.1l-37.8-55.9c-2.9,2.5-3.6,6.9-1.4,10.1l39.6,58.5c2.4,3.5,7.2,4.4,10.7,2.1l118.6-80.3
	C1180.8,172.8,1182.9,170.4,1184.2,167.5"/>
<path class="st2" d="M1054.7,256.7c-0.6,0-1.2-0.1-1.8-0.2c-2.4-0.5-4.5-1.9-5.9-3.9l-39.6-58.5c-2.9-4.2-1.7-10,2.5-12.8
	l118.6-80.3c2.8-1.9,6.1-3,9.5-3.2l52.7-2.5c5.9-0.3,11.4,2.5,14.7,7.4c3.3,4.9,3.8,11,1.4,16.4l-21.9,48c-1.4,3.1-3.7,5.8-6.5,7.7
	l-118.6,80.3C1058.3,256.2,1056.5,256.7,1054.7,256.7 M1190.9,98.5l-52.7,2.5c-2.8,0.1-5.6,1.1-8,2.6l-118.6,80.3
	c-2.8,1.9-3.6,5.8-1.7,8.6l39.6,58.5c0.9,1.4,2.3,2.3,3.9,2.6c1.6,0.3,3.3,0,4.6-1l118.6-80.3c2.4-1.6,4.2-3.8,5.4-6.4l21.9-48
	c2-4.4,1.6-9.4-1.1-13.4C1200.2,100.5,1195.7,98.3,1190.9,98.5z M1190.8,97L1190.8,97L1190.8,97z M1177.6,137.4
	c-5.1,0-10-2.4-13.1-6.9c-4.9-7.2-3-17,4.2-21.9c3.5-2.4,7.7-3.2,11.8-2.4c4.1,0.8,7.7,3.2,10.1,6.6c2.4,3.5,3.2,7.7,2.4,11.8
	c-0.8,4.1-3.2,7.7-6.6,10.1C1183.7,136.5,1180.6,137.4,1177.6,137.4 M1167,128.8c3.9,5.8,11.8,7.3,17.6,3.4c2.8-1.9,4.7-4.8,5.4-8.1
	c0.6-3.3-0.1-6.7-2-9.5c-1.9-2.8-4.8-4.7-8.1-5.4c-3.3-0.6-6.7,0.1-9.5,2C1164.6,115.1,1163.1,123,1167,128.8L1167,128.8z"/>
<path class="st2" d="M1145.1,180.5c-0.5,0-1-0.2-1.3-0.7l-33.8-49.9c-0.5-0.7-0.3-1.7,0.4-2.1c0.7-0.5,1.7-0.3,2.1,0.4l33.8,49.9
	c0.5,0.7,0.3,1.7-0.4,2.1C1145.7,180.4,1145.4,180.5,1145.1,180.5"/>
<path class="st2" d="M1125.2,179.9c-0.5,0-1-0.2-1.3-0.7l-27.2-40.2c-0.5-0.7-0.3-1.7,0.4-2.1c0.7-0.5,1.7-0.3,2.1,0.4l27.2,40.2
	c0.5,0.7,0.3,1.7-0.4,2.1C1125.8,179.8,1125.5,179.9,1125.2,179.9"/>
<path class="st2" d="M1101.9,174.4c-0.5,0-1-0.2-1.3-0.7l-17.3-25.6c-0.5-0.7-0.3-1.7,0.4-2.1c0.7-0.5,1.7-0.3,2.1,0.4l17.3,25.6
	c0.5,0.7,0.3,1.7-0.4,2.1C1102.5,174.3,1102.2,174.4,1101.9,174.4"/>
<path class="st2" d="M1103.9,206.1c-0.5,0-1-0.2-1.3-0.7l-32.7-48.3c-0.5-0.7-0.3-1.7,0.4-2.1c0.7-0.5,1.7-0.3,2.1,0.4l32.7,48.3
	c0.5,0.7,0.3,1.7-0.4,2.1C1104.5,206,1104.2,206.1,1103.9,206.1"/>
<path class="st21" d="M1179.7,105.1l-49.1,26.3c-2.9,1.6-5.3,3.9-7,6.7L1047,268.5c-2.3,3.9-1,8.9,2.9,11.1l64.3,37.8
	c3.9,2.3,8.9,1,11.1-2.9l76.6-130.3c1.7-2.9,2.5-6.1,2.5-9.4l-0.9-55.7C1203.2,107,1190.3,99.4,1179.7,105.1 M1169.6,147
	c-7.2-4.2-9.5-13.4-5.3-20.6c4.2-7.2,13.4-9.5,20.6-5.3c7.2,4.2,9.5,13.4,5.3,20.6C1186,148.8,1176.8,151.2,1169.6,147"/>
<path class="st2" d="M1177.2,149.9c-2.8,0-5.5-0.7-8-2.2c-3.6-2.1-6.2-5.6-7.3-9.7c-1.1-4.1-0.5-8.4,1.7-12c2.1-3.6,5.6-6.2,9.7-7.3
	c4.1-1.1,8.4-0.5,12,1.7c3.6,2.1,6.2,5.6,7.3,9.7c1.1,4.1,0.5,8.4-1.7,12c-2.1,3.6-5.6,6.2-9.7,7.3
	C1179.9,149.7,1178.5,149.9,1177.2,149.9 M1177.2,119.8c-1.2,0-2.4,0.2-3.6,0.5c-3.7,1-6.8,3.3-8.7,6.6c-4,6.8-1.7,15.5,5.1,19.5
	c3.3,1.9,7.1,2.5,10.8,1.5c3.7-1,6.8-3.3,8.7-6.6c1.9-3.3,2.5-7.1,1.5-10.8c-1-3.7-3.3-6.8-6.6-8.7
	C1182.2,120.5,1179.7,119.8,1177.2,119.8"/>
<path class="st22" d="M1204.4,174.8l-0.9-55.7c-0.1-5.2-2.5-9.6-6.2-12.4c0,0.1,0,0.3,0,0.4l0.9,55.7c0.1,3.3-0.8,6.6-2.5,9.4
	l-76.6,130.3c-2.3,3.9-7.3,5.2-11.1,2.9l-61.4-36.1c-1.7,3.7-0.3,8.2,3.3,10.3l64.3,37.8c3.9,2.3,8.9,1,11.1-2.9l76.6-130.3
	C1203.5,181.3,1204.4,178.1,1204.4,174.8"/>
<path class="st2" d="M1117.2,319.5c-1.7,0-3.4-0.5-4.9-1.3l-64.3-37.8c-4.6-2.7-6.2-8.7-3.5-13.4l76.6-130.3
	c1.8-3.1,4.5-5.7,7.7-7.4l49.1-26.3c5.5-2.9,12-2.8,17.3,0.3c5.4,3.2,8.6,8.8,8.7,15l0.9,55.7c0.1,3.6-0.9,7.2-2.7,10.3l-76.6,130.3
	c-1.3,2.2-3.4,3.8-6,4.5C1118.8,319.4,1118,319.5,1117.2,319.5 M1179.4,105.9l-49.1,26.3c-2.7,1.4-4.9,3.5-6.4,6.1l-76.6,130.3
	c-1.8,3.1-0.8,7.1,2.3,8.9l64.3,37.8c1.5,0.9,3.3,1.1,4.9,0.7c1.7-0.4,3.1-1.5,4-3l76.6-130.3c1.5-2.6,2.3-5.6,2.3-8.6l-0.9-55.7
	c-0.1-5.1-2.8-9.7-7.1-12.2C1189.2,103.6,1183.9,103.5,1179.4,105.9 M1177.2,150.7c-2.9,0-5.8-0.8-8.4-2.3
	c-3.8-2.3-6.6-5.9-7.7-10.2c-1.1-4.3-0.5-8.8,1.8-12.6c2.3-3.8,5.9-6.6,10.2-7.7c4.3-1.1,8.8-0.5,12.6,1.8c3.8,2.3,6.6,5.9,7.7,10.2
	c1.1,4.3,0.5,8.8-1.8,12.6c-2.3,3.8-5.9,6.6-10.2,7.7C1180,150.5,1178.6,150.7,1177.2,150.7 M1177.2,120.6c-1.1,0-2.3,0.1-3.4,0.4
	c-3.5,0.9-6.4,3.1-8.2,6.2c-1.8,3.1-2.3,6.7-1.4,10.2c0.9,3.5,3.1,6.4,6.2,8.2h0c3.1,1.8,6.7,2.3,10.2,1.4c3.5-0.9,6.4-3.1,8.2-6.2
	c1.8-3.1,2.3-6.7,1.4-10.2c-0.9-3.5-3.1-6.4-6.2-8.2C1181.9,121.3,1179.6,120.6,1177.2,120.6"/>
<path class="st2" d="M1187.9,130c-6,0-12.1-1.4-17.8-4.3c-1.8-0.9-2.5-3.1-1.6-4.8c0.9-1.8,3.1-2.5,4.8-1.6
	c15.4,7.8,34.1,2.1,42.6-13c4.2-7.5,5.2-16.2,2.9-24.4c-2.3-8.3-7.8-15.1-15.3-19.3c-15.5-8.6-35.1-3.1-43.7,12.4
	c-3.5,6.3-4.8,13.4-3.7,20.5c0.3,2-1,3.8-3,4.1c-2,0.3-3.8-1.1-4.1-3c-1.3-8.7,0.2-17.4,4.5-25.1c10.6-18.9,34.6-25.8,53.6-15.2
	c9.2,5.1,15.8,13.5,18.7,23.6c2.9,10.1,1.6,20.7-3.5,29.9C1215,122.7,1201.7,130,1187.9,130"/>
<path class="st8" d="M1124.1,255.6l-28.7,20.6c-0.8,0.6-1.9,0.6-2.8,0.1l-4.9-2.9c-0.9-0.5-1.4-1.5-1.2-2.5l4.6-35
	c0.2-1.8,2.3-2.8,3.8-1.9l4.3,2.6c0.9,0.5,1.4,1.6,1.2,2.6l-3.4,19.4c-0.4,2.3,2.2,3.9,4.1,2.5l15.8-12.1c0.8-0.6,2-0.7,2.9-0.2
	l4.2,2.5C1125.5,252.2,1125.6,254.5,1124.1,255.6"/>
<path class="st8" d="M1140.6,245.1l-40.2-39.3c-0.8-0.8-1-2.1-0.4-3.1l3-5l40.1,39.4c0.8,0.8,1,2.1,0.4,3.1L1140.6,245.1z"/>
<path class="st8" d="M1149.2,209.2l-4.2-2.5c-0.9-0.5-1.4-1.6-1.2-2.6l3.3-19.6c0.4-2.3-2.3-3.9-4.1-2.4l-15.7,12.2
	c-0.8,0.6-2,0.7-2.9,0.2l-4.2-2.5c-1.6-0.9-1.7-3.2-0.2-4.3l28.7-20.6c0.8-0.6,1.9-0.6,2.8-0.1l4.8,2.9c0.9,0.5,1.4,1.5,1.2,2.5
	l-4.5,35.1C1152.8,209.1,1150.8,210.1,1149.2,209.2"/>
<path class="st2" d="M1093.9,277.3c-0.6,0-1.1-0.2-1.7-0.5l-4.9-2.9c-1.1-0.7-1.7-1.9-1.5-3.2l4.6-35c0.1-1.1,0.8-2,1.8-2.5
	c1-0.5,2.1-0.4,3.1,0.1l4.3,2.6c1.1,0.7,1.8,2,1.5,3.3l-3.4,19.4c-0.2,0.9,0.3,1.6,0.9,1.9c0.5,0.3,1.4,0.5,2.1-0.1l15.8-12.1
	c1.1-0.8,2.5-0.9,3.6-0.2l4.2,2.5c0.9,0.6,1.5,1.5,1.6,2.6c0,1.1-0.5,2.1-1.3,2.8l-28.7,20.6
	C1095.3,277.1,1094.6,277.3,1093.9,277.3 M1093.6,234.3c-0.3,0-0.6,0.1-0.8,0.2c-0.6,0.3-1,0.8-1,1.4l-4.6,35
	c-0.1,0.7,0.3,1.5,0.9,1.9l4.9,2.9c0.6,0.4,1.5,0.4,2.1-0.1l28.7-20.6c0.5-0.4,0.8-1,0.8-1.6c0-0.6-0.4-1.2-0.9-1.5l-4.2-2.5
	c-0.7-0.4-1.5-0.3-2.1,0.1l-15.8,12.1c-1.1,0.8-2.5,0.9-3.6,0.2c-1.2-0.7-1.7-2-1.5-3.3l3.4-19.4c0.1-0.8-0.2-1.5-0.9-1.9l-4.3-2.6
	C1094.3,234.3,1094,234.3,1093.6,234.3"/>
<path class="st2" d="M1140.6,245.8c-0.2,0-0.3-0.1-0.5-0.2l-40.2-39.3c-1.1-1-1.3-2.7-0.5-4l3-5c0.1-0.2,0.3-0.3,0.5-0.3
	c0.2,0,0.4,0,0.6,0.2l40.1,39.4c1.1,1,1.3,2.7,0.5,4l-2.9,4.9C1141,245.6,1140.8,245.7,1140.6,245.8
	C1140.6,245.8,1140.6,245.8,1140.6,245.8 M1103.1,198.7l-2.6,4.3c-0.4,0.7-0.3,1.7,0.3,2.3l39.6,38.7l2.5-4.2
	c0.4-0.7,0.3-1.7-0.3-2.3L1103.1,198.7z"/>
<path class="st2" d="M1150.5,210.2c-0.6,0-1.1-0.2-1.7-0.5l-4.2-2.5c-1.1-0.7-1.7-2-1.5-3.3l3.3-19.6c0.2-0.9-0.4-1.6-0.9-1.9
	c-0.5-0.3-1.4-0.5-2.1,0.1l-15.7,12.2c-1.1,0.8-2.5,0.9-3.6,0.2l-4.2-2.5c-0.9-0.6-1.5-1.5-1.6-2.6c0-1.1,0.5-2.1,1.3-2.8l28.7-20.6
	c1-0.8,2.4-0.8,3.5-0.2l4.8,2.9c1.1,0.7,1.7,1.9,1.5,3.2l-4.5,35.1c-0.1,1.1-0.8,2-1.8,2.5C1151.5,210.1,1151,210.2,1150.5,210.2
	 M1149.5,208.6c0.6,0.3,1.2,0.4,1.8,0.1c0.6-0.3,1-0.8,1-1.5l4.5-35.1c0.1-0.7-0.3-1.5-0.9-1.9l-4.8-2.9c-0.6-0.4-1.5-0.4-2.1,0.1
	l-28.7,20.6c-0.5,0.4-0.8,1-0.8,1.6c0,0.6,0.4,1.2,0.9,1.5l4.2,2.5c0.7,0.4,1.5,0.3,2.1-0.1l15.7-12.2c1.1-0.8,2.5-0.9,3.6-0.2
	c1.2,0.7,1.8,2,1.5,3.3l-3.3,19.6c-0.1,0.8,0.2,1.5,0.9,1.9L1149.5,208.6z"/>
<path class="st1" d="M1038.5,70.9l-6.4,2.5c-0.7-0.6-1.4-1.2-2.1-1.7c-1-0.7-2.1-1.3-3.2-1.9l0.2-6.5c0-1-0.7-1.9-1.7-2.2l-5-1.1
	c-1-0.2-2,0.3-2.4,1.2l-2.6,6.1c-2.2,0.1-4.5,0.5-6.6,1.2l-4.2-4.5c-0.7-0.7-1.8-0.9-2.7-0.3l-4.4,2.8c-0.9,0.5-1.2,1.6-0.8,2.6
	l2.2,5.7c-0.8,0.8-1.6,1.7-2.3,2.7c-0.7,1.1-1.4,2.1-1.9,3.3l-5.6-0.2c-1,0-1.9,0.7-2.2,1.7l-1.1,5c-0.2,1,0.3,2,1.2,2.4l5.2,2.3
	c0.1,2.6,0.5,5.2,1.4,7.6l-3.8,3.6c-0.7,0.7-0.9,1.8-0.3,2.7l2.8,4.4c0.5,0.9,1.6,1.2,2.6,0.8l5.1-2c0.7,0.7,1.5,1.3,2.3,1.9
	c1.3,0.9,2.7,1.7,4.1,2.3l-0.2,5.2c0,1,0.7,1.9,1.7,2.2l5,1.1c1,0.2,2-0.3,2.4-1.2l2.3-5.3c2.5-0.2,4.9-0.7,7.2-1.6l3.9,4.2
	c0.7,0.7,1.8,0.9,2.7,0.4l4.4-2.8c0.9-0.5,1.2-1.6,0.8-2.6l-2.3-5.9c0.5-0.5,0.9-1.1,1.3-1.7c0.9-1.3,1.7-2.6,2.3-4l6.2,0.2
	c1,0,1.9-0.7,2.2-1.7l1.1-5c0.2-1-0.3-2-1.2-2.4l-6.2-2.7c-0.2-2.1-0.6-4.2-1.3-6.2l4.8-4.5c0.7-0.7,0.9-1.8,0.4-2.7l-2.8-4.4
	C1040.5,70.8,1039.5,70.5,1038.5,70.9 M1020.8,98.7c-4.1,2.6-9.6,1.4-12.1-2.8c-2.6-4.1-1.4-9.6,2.8-12.1s9.6-1.4,12.1,2.8
	C1026.2,90.7,1025,96.1,1020.8,98.7"/>
<path class="st2" d="M1013.4,122.6c-0.2,0-0.4,0-0.7-0.1l-5-1.1c-1.4-0.3-2.4-1.6-2.3-3l0.2-4.7c-1.3-0.6-2.6-1.4-3.8-2.2
	c-0.7-0.5-1.3-1-2-1.6l-4.7,1.8c-1.3,0.5-2.8,0-3.6-1.2l-2.8-4.4c-0.8-1.2-0.6-2.8,0.5-3.8l3.4-3.2c-0.7-2.2-1.2-4.5-1.3-6.8l-4.7-2
	c-1.3-0.6-2-2-1.7-3.4l1.1-5c0.3-1.4,1.6-2.3,3-2.3l5,0.2c0.6-1.1,1.1-2,1.7-2.9c0.6-0.8,1.2-1.6,2-2.4l-2-5.2
	c-0.5-1.3,0-2.8,1.2-3.6l4.4-2.8c1.2-0.8,2.8-0.6,3.8,0.5l3.8,4.1c1.9-0.6,3.8-0.9,5.8-1l2.4-5.6c0.6-1.3,2-2,3.4-1.7l5,1.1
	c1.4,0.3,2.4,1.6,2.3,3l-0.2,6c1.1,0.5,2,1.1,2.8,1.7c0.6,0.4,1.2,0.9,1.8,1.4l5.9-2.3c1.3-0.5,2.8,0,3.6,1.2l2.8,4.4
	c0.8,1.2,0.6,2.8-0.5,3.8l-4.4,4.1c0.6,1.8,1,3.6,1.2,5.4l5.8,2.5c1.3,0.6,2,2,1.7,3.4l-1.1,5c-0.3,1.4-1.6,2.3-3,2.3l-5.6-0.2
	c-0.6,1.3-1.3,2.5-2.1,3.7c-0.3,0.5-0.7,0.9-1.1,1.4l2.1,5.4c0.5,1.3,0,2.8-1.2,3.6l-4.4,2.8c-1.2,0.8-2.8,0.6-3.8-0.5l-3.5-3.7
	c-2.1,0.8-4.2,1.2-6.4,1.4l-2.1,4.9C1015.7,121.9,1014.6,122.6,1013.4,122.6 M1000.1,107.9l0.4,0.4c0.8,0.8,1.5,1.3,2.3,1.9
	c1.2,0.9,2.6,1.6,4,2.3l0.5,0.2l-0.2,5.8c0,0.6,0.4,1.2,1,1.3l5,1.1c0.6,0.1,1.2-0.2,1.5-0.7l2.5-5.8l0.5,0c2.4-0.2,4.7-0.7,6.9-1.6
	l0.5-0.2l4.3,4.6c0.4,0.5,1.1,0.5,1.6,0.2l4.4-2.8c0.5-0.3,0.7-1,0.5-1.6l-2.5-6.4l0.3-0.4c0.4-0.5,0.9-1.1,1.3-1.7
	c0.9-1.2,1.6-2.5,2.2-3.9l0.2-0.5l6.7,0.2c0.6,0.1,1.2-0.4,1.3-1l1.1-5c0.1-0.6-0.2-1.2-0.7-1.5l-6.7-2.9l0-0.5c-0.2-2-0.6-4-1.3-6
	l-0.2-0.5l5.2-4.8c0.5-0.4,0.5-1.1,0.2-1.6l-2.8-4.4c-0.3-0.5-1-0.7-1.6-0.5l-6.9,2.7l-0.4-0.3c-0.7-0.6-1.4-1.2-2-1.6
	c-0.9-0.6-1.9-1.2-3.1-1.8l-0.5-0.2l0.2-7c0-0.6-0.4-1.2-1-1.3l-5-1.1c-0.6-0.1-1.2,0.2-1.5,0.7l-2.9,6.5l-0.5,0
	c-2.2,0.1-4.3,0.5-6.4,1.1l-0.5,0.2l-4.5-4.9c-0.4-0.5-1.1-0.5-1.6-0.2l-4.4,2.8c-0.5,0.3-0.7,1-0.5,1.6l2.4,6.2l-0.4,0.4
	c-0.9,0.9-1.6,1.8-2.2,2.6c-0.6,0.9-1.2,1.9-1.8,3.2l-0.2,0.5l-6.1-0.2c-0.6-0.1-1.2,0.4-1.3,1l-1.1,5c-0.1,0.6,0.2,1.2,0.7,1.5
	l5.7,2.5l0,0.5c0.1,2.5,0.5,5,1.4,7.3l0.2,0.5l-4.2,3.9c-0.5,0.4-0.5,1.1-0.2,1.6l2.8,4.4c0.3,0.5,1,0.7,1.6,0.5L1000.1,107.9z
	 M1016.2,100.9c-3.2,0-6.3-1.6-8.2-4.5c-2.8-4.5-1.5-10.5,3-13.3c2.2-1.4,4.8-1.8,7.3-1.2c2.5,0.6,4.7,2.1,6,4.3
	c2.8,4.5,1.5,10.5-3,13.3C1019.7,100.4,1017.9,100.9,1016.2,100.9 M1016.1,83.3c-1.5,0-2.9,0.4-4.2,1.2c-3.7,2.3-4.8,7.3-2.5,11
	c2.3,3.7,7.3,4.8,11,2.5c3.7-2.3,4.8-7.3,2.5-11c-1.1-1.8-2.9-3.1-5-3.5C1017.3,83.4,1016.7,83.3,1016.1,83.3"/>
<path class="st1" d="M1220,287.6l-5.6-1.1c-0.2-0.7-0.4-1.4-0.7-2.1c-0.4-1-0.9-1.9-1.4-2.7l3-4.5c0.5-0.7,0.4-1.6-0.2-2.2l-3-3
	c-0.6-0.6-1.5-0.7-2.2-0.2l-4.5,3.1c-1.6-0.9-3.3-1.6-5.2-2.1l-0.9-5c-0.2-0.8-0.9-1.4-1.7-1.4h-4.3c-0.9,0-1.6,0.6-1.7,1.4l-0.9,5
	c-0.9,0.2-1.9,0.5-2.8,0.9c-1,0.4-1.9,0.9-2.8,1.5l-3.8-2.6c-0.7-0.5-1.6-0.4-2.3,0.2l-3,3c-0.6,0.6-0.7,1.5-0.2,2.3l2.6,3.9
	c-1.1,1.9-1.9,3.9-2.4,6l-4.3,0.8c-0.8,0.2-1.4,0.9-1.4,1.7v4.3c0,0.9,0.6,1.6,1.4,1.7l4.5,0.9c0.2,0.8,0.5,1.6,0.8,2.4
	c0.5,1.2,1.1,2.4,1.9,3.5l-2.5,3.6c-0.5,0.7-0.4,1.6,0.2,2.2l3,3c0.6,0.6,1.5,0.7,2.2,0.2l4-2.7c1.8,1,3.8,1.7,5.8,2.1l0.9,4.6
	c0.2,0.8,0.9,1.4,1.7,1.4h4.3c0.9,0,1.6-0.6,1.7-1.4l1-5.2c0.6-0.2,1.1-0.4,1.7-0.6c1.2-0.5,2.3-1.1,3.4-1.8l4.3,2.9
	c0.7,0.5,1.6,0.4,2.2-0.2l3-3c0.6-0.6,0.7-1.5,0.2-2.2l-3.2-4.7c0.8-1.6,1.4-3.2,1.8-5l5.3-1c0.8-0.2,1.4-0.9,1.4-1.7v-4.3
	C1221.4,288.5,1220.8,287.8,1220,287.6 M1195.2,299.4c-4,0-7.3-3.3-7.3-7.3s3.3-7.3,7.3-7.3c4,0,7.3,3.3,7.3,7.3
	S1199.3,299.4,1195.2,299.4"/>
<path class="st2" d="M1198.4,318.4h-4.3c-1.2,0-2.2-0.8-2.4-2l-0.8-4.2c-1.8-0.4-3.5-1-5.1-1.8l-3.7,2.5c-1,0.7-2.3,0.5-3.1-0.3
	l-3-3c-0.8-0.8-1-2.2-0.3-3.1l2.2-3.2c-0.7-1-1.2-2.1-1.7-3.2c-0.3-0.6-0.5-1.3-0.7-2.1l-4.1-0.8c-1.2-0.2-2-1.2-2-2.4v-4.3
	c0-1.2,0.8-2.2,2-2.4l3.8-0.7c0.4-1.9,1.2-3.6,2.1-5.3l-2.4-3.5c-0.7-1-0.5-2.3,0.3-3.1l3-3c0.8-0.8,2.2-1,3.1-0.3l3.4,2.3
	c0.9-0.5,1.7-0.9,2.5-1.3c0.7-0.3,1.5-0.6,2.5-0.8l0.9-4.5c0.2-1.2,1.2-2,2.4-2h4.3c1.2,0,2.2,0.8,2.4,2l0.9,4.5
	c1.6,0.4,3.1,1.1,4.5,1.8l4.2-2.8c1-0.7,2.3-0.5,3.1,0.3l3,3c0.8,0.8,1,2.2,0.3,3.1l-2.8,4.1c0.5,0.9,0.9,1.6,1.2,2.4
	c0.2,0.6,0.4,1.1,0.6,1.8l5.2,1c1.2,0.2,2,1.2,2,2.4v4.3c0,1.2-0.8,2.2-2,2.4l-4.9,0.9c-0.4,1.5-0.9,3-1.6,4.3l2.9,4.3
	c0.7,1,0.5,2.3-0.3,3.1l-3,3c-0.8,0.8-2.2,1-3.1,0.3l-3.9-2.6c-1,0.6-2.1,1.2-3.1,1.6c-0.5,0.2-0.9,0.3-1.4,0.5l-0.9,4.8
	C1200.6,317.5,1199.6,318.4,1198.4,318.4 M1185.7,308.7l0.4,0.2c1.7,0.9,3.6,1.6,5.6,2l0.5,0.1l1,5.1c0.1,0.5,0.5,0.9,1.1,0.9h4.3
	c0.5,0,1-0.4,1.1-0.9l1.1-5.6l0.4-0.1c0.6-0.2,1.1-0.4,1.6-0.6c1.1-0.5,2.2-1.1,3.3-1.8l0.4-0.3l4.6,3.2c0.4,0.3,1,0.2,1.4-0.1l3-3
	c0.4-0.4,0.4-0.9,0.1-1.4l-3.4-5l0.2-0.4c0.8-1.5,1.4-3.1,1.8-4.8l0.1-0.4l5.8-1.1c0.5-0.1,0.9-0.5,0.9-1.1v-4.3
	c0-0.5-0.4-1-0.9-1.1l-6-1.2l-0.1-0.4c-0.2-0.7-0.4-1.4-0.7-2c-0.3-0.8-0.8-1.7-1.4-2.6l-0.2-0.4l3.3-4.8c0.3-0.4,0.2-1-0.1-1.4
	l-3-3c-0.4-0.4-0.9-0.4-1.4-0.1l-4.9,3.3l-0.4-0.2c-1.6-0.9-3.2-1.6-5-2l-0.4-0.1l-1-5.4c-0.1-0.5-0.5-0.9-1.1-0.9h-4.3
	c-0.5,0-1,0.4-1.1,0.9l-1,5.4l-0.4,0.1c-1.1,0.3-1.9,0.5-2.7,0.9c-0.9,0.4-1.7,0.8-2.7,1.4l-0.4,0.2l-4.2-2.9
	c-0.4-0.3-1-0.2-1.4,0.1l-3,3c-0.4,0.4-0.4,0.9-0.1,1.4l2.9,4.2l-0.2,0.4c-1.1,1.8-1.8,3.7-2.3,5.8l-0.1,0.5l-4.7,0.9
	c-0.5,0.1-0.9,0.5-0.9,1.1v4.3c0,0.5,0.4,1,0.9,1.1l4.9,0.9l0.1,0.4c0.2,0.9,0.5,1.6,0.8,2.3c0.5,1.2,1.1,2.3,1.8,3.4l0.3,0.4
	l-2.7,4c-0.3,0.4-0.2,1,0.1,1.4l3,3c0.4,0.4,0.9,0.4,1.4,0.1L1185.7,308.7z M1195.2,300.1c-4.4,0-8-3.6-8-8c0-4.4,3.6-8,8-8
	s8,3.6,8,8C1203.3,296.5,1199.7,300.1,1195.2,300.1 M1195.2,285.4c-3.7,0-6.6,3-6.6,6.6c0,3.7,3,6.6,6.6,6.6c3.7,0,6.6-3,6.6-6.6
	C1201.9,288.4,1198.9,285.4,1195.2,285.4"/>
<path class="st1" d="M1263.7,158.1h-25.1c-0.9,0-1.6-0.7-1.6-1.6c0-0.9,0.7-1.6,1.6-1.6h25.1c0.9,0,1.6,0.7,1.6,1.6
	C1265.3,157.3,1264.6,158.1,1263.7,158.1"/>
<path class="st1" d="M1265.7,180.5h-12.8c-0.9,0-1.6-0.7-1.6-1.6c0-0.9,0.7-1.6,1.6-1.6h12.8c0.9,0,1.6,0.7,1.6,1.6
	C1267.3,179.8,1266.6,180.5,1265.7,180.5"/>
<path class="st1" d="M1286.5,169.4h-57.6c-0.9,0-1.6-0.7-1.6-1.6c0-0.9,0.7-1.6,1.6-1.6h57.6c0.9,0,1.6,0.7,1.6,1.6
	C1288.1,168.7,1287.4,169.4,1286.5,169.4"/>
<path class="st1" d="M331.9,141.8h-6.3c-0.9,0-1.6-0.7-1.6-1.6c0-0.9,0.7-1.6,1.6-1.6h6.3c0.9,0,1.6,0.7,1.6,1.6
	C333.5,141,332.8,141.8,331.9,141.8"/>
<path class="st1" d="M1042.5,299.4L1042.5,299.4l-22.7-0.2c-0.9,0-1.7-0.8-1.7-1.7c0-0.9,0.8-1.7,1.7-1.7h0l22.7,0.2
	c0.9,0,1.7,0.8,1.7,1.7C1044.2,298.6,1043.4,299.4,1042.5,299.4"/>
<path class="st1" d="M1067.4,323.3L1067.4,323.3l-46.3-0.2c-0.9,0-1.7-0.8-1.7-1.7c0-0.9,0.8-1.7,1.7-1.7h0l46.3,0.2
	c0.9,0,1.7,0.8,1.7,1.7C1069.1,322.5,1068.3,323.3,1067.4,323.3"/>
<path class="st1" d="M1029.5,310.3L1029.5,310.3l-33.4-0.3c-0.9,0-1.7-0.8-1.7-1.7c0-0.9,0.8-1.7,1.7-1.7h0l33.4,0.3
	c0.9,0,1.7,0.8,1.7,1.7C1031.2,309.6,1030.4,310.3,1029.5,310.3"/>
<path class="st1" d="M1000.9,298.9L1000.9,298.9l-8.8-0.2c-0.9,0-1.7-0.8-1.7-1.7c0-0.9,0.8-1.7,1.7-1.7l8.7,0.2
	c0.9,0,1.7,0.8,1.7,1.7C1002.5,298.2,1001.8,298.9,1000.9,298.9"/>
<path class="st0" d="M103.5,339.9c6.6,1.1,14.3-0.3,22.1-3.1c31.2-11.2,59.7-6,90.7,4.4c20.9,7,47.6,1.9,57.4-16.4
	c11.4-21.3,25.5-44.2,39.5-58.5c32-32.5,52.2-64.4,12.1-111c-40-46.6-32.4-101.3-64.6-127.6C228.6,1.2,169.2-1.1,131.5,41"/>
<path class="st0" d="M131.5,41C93.7,83,51.7,69.4,33,84.7c-22.5,18.3-50.5,70.6,0.3,115.8c11.6,10.3,17.2,26.3,14.4,42.3l-0.2,1
	c-8.1,46.4,16.9,89.5,56,96.1"/>
<path class="st1" d="M101.5,97.3c-0.9,0-1.7-0.7-1.7-1.7c0-0.9,0.7-1.7,1.7-1.7l16.5-0.2h0c0.9,0,1.7,0.7,1.7,1.7
	c0,0.9-0.7,1.7-1.7,1.7L101.5,97.3L101.5,97.3z"/>
<path class="st1" d="M113,73.6c-0.9,0-1.7-0.7-1.7-1.7c0-0.9,0.7-1.7,1.7-1.7l24.9-0.2h0c0.9,0,1.7,0.7,1.7,1.7
	c0,0.9-0.7,1.7-1.7,1.7L113,73.6L113,73.6z"/>
<path class="st1" d="M88.1,86.6c-0.9,0-1.7-0.7-1.7-1.7c0-0.9,0.7-1.7,1.7-1.7l33.2-0.3h0c0.9,0,1.7,0.7,1.7,1.7
	c0,0.9-0.7,1.7-1.7,1.7L88.1,86.6L88.1,86.6z"/>
<path class="st1" d="M228.2,333.5c-0.9,0-1.7-0.7-1.7-1.7c0-0.9,0.7-1.7,1.7-1.7l16.5-0.2h0c0.9,0,1.7,0.7,1.7,1.7
	c0,0.9-0.7,1.7-1.7,1.7L228.2,333.5L228.2,333.5z"/>
<path class="st1" d="M214.8,322.7c-0.9,0-1.7-0.7-1.7-1.7c0-0.9,0.7-1.7,1.7-1.7l33.2-0.3h0c0.9,0,1.7,0.7,1.7,1.7
	c0,0.9-0.7,1.7-1.7,1.7L214.8,322.7L214.8,322.7z"/>
<path class="st12" d="M307.4,298.5H54.6c-3.8,0-6.9-3.1-6.9-6.9V124.5c0-3.8,3.1-6.9,6.9-6.9h252.8c3.8,0,6.9,3.1,6.9,6.9v167.1
	C314.3,295.4,311.2,298.5,307.4,298.5"/>
<path class="st1" d="M295.3,279H66.7c-3.3,0-5.9-2.6-5.9-5.9V139c0-3.3,2.6-5.9,5.9-5.9h228.6c3.3,0,5.9,2.6,5.9,5.9v134.1
	C301.2,276.3,298.6,279,295.3,279"/>
<path class="st5" d="M60.8,151.4h240.4V139c0-3.3-2.6-5.9-5.9-5.9H66.7c-3.3,0-5.9,2.6-5.9,5.9V151.4z"/>
<path class="st2" d="M75,142.2c0,1.8-1.5,3.2-3.2,3.2c-1.8,0-3.2-1.4-3.2-3.2c0-1.8,1.5-3.2,3.2-3.2C73.5,139.1,75,140.5,75,142.2"
	/>
<path class="st2" d="M85.6,142.2c0,1.8-1.5,3.2-3.2,3.2c-1.8,0-3.2-1.4-3.2-3.2c0-1.8,1.5-3.2,3.2-3.2
	C84.1,139.1,85.6,140.5,85.6,142.2"/>
<path class="st2" d="M96.2,142.2c0,1.8-1.5,3.2-3.2,3.2c-1.8,0-3.2-1.4-3.2-3.2c0-1.8,1.5-3.2,3.2-3.2
	C94.8,139.1,96.2,140.5,96.2,142.2"/>
<path class="st2" d="M307.4,300.3H54.6c-4.8,0-8.7-3.9-8.7-8.7V124.5c0-4.8,3.9-8.7,8.7-8.7h252.8c4.8,0,8.7,3.9,8.7,8.7v167.1
	C316.1,296.4,312.2,300.3,307.4,300.3 M54.6,119.5c-2.8,0-5.1,2.3-5.1,5.1v167.1c0,2.8,2.3,5.1,5.1,5.1h252.8c2.8,0,5.1-2.3,5.1-5.1
	V124.5c0-2.8-2.3-5.1-5.1-5.1H54.6z"/>
<path class="st2" d="M184,126.3c0,1.6-1.3,2.9-2.9,2.9c-1.6,0-2.9-1.3-2.9-2.9c0-1.6,1.3-2.9,2.9-2.9
	C182.7,123.3,184,124.7,184,126.3"/>
<path class="st2" d="M295.3,279.9H66.7c-3.7,0-6.8-3-6.8-6.8V139c0-3.7,3-6.8,6.8-6.8h228.6c3.7,0,6.8,3,6.8,6.8v134.1
	C302.1,276.8,299.1,279.9,295.3,279.9 M66.7,134c-2.8,0-5,2.2-5,5v134.1c0,2.8,2.2,5,5,5h228.6c2.8,0,5-2.2,5-5V139c0-2.8-2.2-5-5-5
	H66.7z"/>
<path class="st2" d="M301.2,152.3H60.8c-0.5,0-0.9-0.4-0.9-0.9c0-0.5,0.4-0.9,0.9-0.9h240.4c0.5,0,0.9,0.4,0.9,0.9
	C302.1,151.9,301.7,152.3,301.2,152.3"/>
<path class="st1" d="M260.7,295.4c2.8,0,5.2-2.1,5.2-4.9c0,0,0,0,0-0.1c0-4.6-4.4-8.4-9.9-8.4c-1,0-2.1,0.1-3,0.4
	c-1-8.3-8.1-14.8-16.7-14.8c-1.9,0-3.7,0.3-5.4,0.9c0.6-3,0.7-6.2,0-9.6c-2-9.6-9.8-17.1-19.4-18.6c-5.9-0.9-11.5,0.3-16.1,3.1
	l-9.4-40.9h-19.8l-4.4,44.6c-1.9-1.2-4.2-1.9-6.7-1.9c-6.5,0-11.8,4.8-12.6,11c-3.3-1.5-7-2.3-10.9-2.3c-13.8,0-25.1,10.5-26.5,23.9
	c-1.8-0.2-3.8,0.1-5.9,1.2c-3.3,1.8-5.7,5.1-5.8,8.9c-0.1,1.6,0.2,3.2,0.8,4.6c0.8,1.9,2.7,3,4.7,3H260.7z"/>
<path class="st2" d="M93.3,288.8c-0.3,0-0.5-0.2-0.5-0.5c0-6.2,5-11.2,11.2-11.2c4.1,0,7.9,2.2,9.8,5.8c0.1,0.3,0,0.6-0.2,0.7
	c-0.3,0.1-0.6,0-0.7-0.2c-1.8-3.3-5.2-5.3-8.9-5.3c-5.6,0-10.1,4.5-10.1,10.1C93.8,288.5,93.6,288.8,93.3,288.8"/>
<path class="st2" d="M265.9,290.9c-0.3,0-0.5-0.2-0.5-0.5c0-4.3-4.2-7.9-9.3-7.9c-5.2,0-9.3,3.5-9.3,7.9c0,0.3-0.2,0.5-0.5,0.5
	c-0.3,0-0.5-0.2-0.5-0.5c0-4.9,4.7-8.9,10.4-8.9c5.7,0,10.4,4,10.4,8.9C266.4,290.6,266.2,290.9,265.9,290.9"/>
<path class="st2" d="M231.4,264.2c-0.3,0-0.5-0.2-0.5-0.5c0-12.8-10.4-23.3-23.3-23.3c-6.2,0-12.1,2.4-16.5,6.9
	c-0.2,0.2-0.5,0.2-0.8,0c-0.2-0.2-0.2-0.5,0-0.8c4.6-4.6,10.7-7.2,17.3-7.2c13.4,0,24.3,10.9,24.3,24.3
	C231.9,264,231.7,264.2,231.4,264.2"/>
<path class="st2" d="M219.5,284.9c-0.3,0-0.5-0.2-0.5-0.5c0-9.6,7.8-17.3,17.3-17.3c8.8,0,16.2,6.6,17.2,15.4c0,0.3-0.2,0.6-0.5,0.6
	c-0.3,0-0.6-0.2-0.6-0.5c-0.9-8.2-7.9-14.4-16.2-14.4c-9,0-16.3,7.3-16.3,16.3C220,284.6,219.8,284.9,219.5,284.9"/>
<path class="st2" d="M105.1,277.8C105,277.8,105,277.8,105.1,277.8c-0.4,0-0.6-0.3-0.5-0.6c1.7-13.6,13.3-23.9,27-23.9
	c6.6,0,13,2.4,18,6.8c0.2,0.2,0.2,0.5,0.1,0.8c-0.2,0.2-0.5,0.2-0.8,0c-4.8-4.2-10.9-6.5-17.3-6.5c-13.2,0-24.4,9.9-26,23
	C105.6,277.6,105.3,277.8,105.1,277.8"/>
<path class="st2" d="M260.7,295.9H98.8c-2.3,0-4.4-1.3-5.2-3.4c-0.6-1.5-0.9-3.1-0.8-4.8c0.2-3.8,2.5-7.4,6.1-9.3
	c1.8-1,3.7-1.4,5.7-1.3c1.7-13.6,13.2-23.8,27-23.8c3.6,0,7.1,0.7,10.5,2.1c1.2-6.2,6.7-10.8,13.1-10.8c2.2,0,4.3,0.5,6.2,1.5
	l4.3-43.7c0-0.3,0.3-0.5,0.5-0.5h19.8c0.3,0,0.5,0.2,0.5,0.4l9.3,40.2c4.8-2.7,10.3-3.7,15.8-2.8c9.9,1.6,17.9,9.2,19.9,19.1
	c0.6,3,0.7,6,0.2,8.9c1.5-0.4,3.1-0.7,4.7-0.7c8.6,0,15.8,6.3,17.1,14.7c0.8-0.2,1.7-0.3,2.6-0.3c5.7,0,10.4,4,10.4,8.9
	C266.4,293.5,263.8,295.9,260.7,295.9 M103.9,278.2c-1.6,0-3.1,0.4-4.5,1.2c-3.3,1.7-5.4,5-5.6,8.4c-0.1,1.5,0.2,3,0.7,4.3
	c0.7,1.6,2.4,2.7,4.2,2.7h161.9c2.5,0,4.6-2,4.6-4.4c0-4.4-4.2-7.9-9.3-7.9c-1,0-1.9,0.1-2.9,0.4c-0.1,0-0.3,0-0.4-0.1
	c-0.1-0.1-0.2-0.2-0.2-0.4c-1-8.2-7.9-14.3-16.1-14.3c-1.8,0-3.5,0.3-5.2,0.9c-0.2,0.1-0.4,0-0.5-0.1c-0.1-0.1-0.2-0.3-0.2-0.5
	c0.6-3.1,0.6-6.2,0-9.4c-1.9-9.4-9.6-16.7-19-18.2c-5.5-0.9-11,0.2-15.7,3c-0.1,0.1-0.3,0.1-0.5,0c-0.2-0.1-0.3-0.2-0.3-0.4
	l-9.3-40.5h-18.9l-4.3,44.1c0,0.2-0.1,0.3-0.3,0.4c-0.2,0.1-0.4,0.1-0.5,0c-1.9-1.2-4.1-1.8-6.4-1.8c-6.1,0-11.3,4.5-12.1,10.6
	c0,0.2-0.1,0.3-0.3,0.4c-0.1,0.1-0.3,0.1-0.5,0c-3.4-1.5-7-2.3-10.7-2.3c-13.4,0-24.6,10.1-26,23.4c0,0.3-0.3,0.5-0.6,0.5
	C104.6,278.2,104.2,278.2,103.9,278.2"/>
<path class="st3" d="M142.7,157.2l15.9-18.7l19.4,60.8c-19.5-9.6-42.4-8.8-61.2,2.1l-16.4,9.5l2.6-30
	C118.6,177.6,132.5,169.3,142.7,157.2"/>
<path class="st3" d="M213.5,157.2l-15.9-18.7l-19.4,60.8c19.5-9.6,42.4-8.8,61.2,2.1l16.4,9.5l-2.6-30
	C237.6,177.6,223.7,169.3,213.5,157.2"/>
<path class="st4" d="M187.8,205.8h-21.1c-4,0-7.3-3.3-7.3-7.3v-0.9h35.7v0.9C195.1,202.6,191.8,205.8,187.8,205.8"/>
<path class="st2" d="M100.5,212c-0.2,0-0.4-0.1-0.5-0.2c-0.3-0.2-0.5-0.5-0.5-0.9l2.6-30c0-0.4,0.3-0.8,0.8-0.9
	c15.1-3.3,29-11.7,39.1-23.5v0l15.9-18.7c0.2-0.3,0.6-0.4,0.9-0.3c0.3,0.1,0.6,0.3,0.7,0.7L179,199c0.1,0.4,0,0.8-0.3,1
	c-0.3,0.3-0.7,0.3-1.1,0.1c-19.2-9.4-41.7-8.7-60.3,2.1l-16.4,9.5C100.9,211.9,100.7,212,100.5,212 M104,181.8l-2.4,27.4l14.8-8.6
	c18.4-10.7,40.7-11.8,60.1-3.1l-18.2-57l-14.8,17.3C133.3,169.8,119.3,178.3,104,181.8"/>
<path class="st2" d="M255.7,212c-0.2,0-0.3,0-0.5-0.1l-16.4-9.5c-18.5-10.8-41-11.5-60.3-2.1c-0.3,0.2-0.8,0.1-1.1-0.1
	c-0.3-0.3-0.4-0.7-0.3-1l19.4-60.8c0.1-0.3,0.4-0.6,0.7-0.7c0.4-0.1,0.7,0.1,0.9,0.3l15.9,18.7c10.1,11.8,23.9,20.1,39.1,23.5
	c0.4,0.1,0.7,0.4,0.8,0.9l2.6,30c0,0.4-0.1,0.7-0.4,0.9C256,211.9,255.8,212,255.7,212 M206.7,191.7c11.4,0,22.8,3,33.1,8.9
	l14.8,8.6l-2.4-27.4c-15.3-3.5-29.3-12-39.4-23.9l-14.8-17.3l-18.2,57C188.3,193.6,197.5,191.7,206.7,191.7"/>
<path class="st5" d="M194.2,198.3c9.8-19.5,16.3-54.1,16.3-88c0-51.2-33.4-88-33.4-88s-33.4,36.7-33.4,88c0,33.8,6.5,68.3,16.3,87.9
	C171.3,199.7,182.9,199.7,194.2,198.3"/>
<path class="st3" d="M177.1,22.4c0,0-1.3,1.5-3.5,4.3c8.6,11.1,29.9,42.8,29.9,83.7c0,28-4.5,56.5-11.6,76.6
	c-2.5,7.1-9.2,12-16.8,12.3c-0.4,0-0.8,0-1.1,0c6.7,0.2,13.5-0.2,20.2-1c9.8-19.5,16.3-54.1,16.3-88
	C210.6,59.1,177.1,22.4,177.1,22.4"/>
<path class="st6" d="M202.9,67.6c-9.9-27.7-25.8-45.2-25.8-45.2s-15.8,17.4-25.7,44.9C168.5,64.4,185.9,64.5,202.9,67.6"/>
<path class="st7" d="M177.1,22.4C177.1,22.4,177.1,22.4,177.1,22.4C177.1,22.5,177.1,22.5,177.1,22.4c-0.1,0.1-0.1,0.1-0.1,0.1
	c0,0,0,0,0,0c-0.4,0.4-1.4,1.6-3,3.6c0,0,0,0,0,0c-0.1,0.2-0.2,0.3-0.4,0.5c0,0,0,0,0,0c5.2,6.6,14.9,20.7,21.9,39.8
	c2.5,0.3,5,0.7,7.4,1.2c0,0,0,0,0,0c-0.1-0.4-0.3-0.7-0.4-1.1c-0.1-0.2-0.1-0.3-0.2-0.5c-0.4-1.1-0.8-2.2-1.3-3.3
	c-0.1-0.1-0.1-0.3-0.2-0.4c-0.1-0.4-0.3-0.7-0.4-1.1c0,0,0-0.1,0-0.1c-0.3-0.7-0.6-1.4-0.9-2.1c0-0.1-0.1-0.2-0.1-0.3
	c-0.2-0.4-0.3-0.7-0.5-1.1c0-0.1-0.1-0.1-0.1-0.2c-0.3-0.7-0.6-1.4-1-2.2c0,0,0,0,0,0c-0.2-0.4-0.3-0.7-0.5-1.1
	c0-0.1-0.1-0.1-0.1-0.2c-0.5-1.1-1-2.1-1.5-3.1c0-0.1-0.1-0.1-0.1-0.2c-0.5-1-1-2-1.5-3c0,0,0-0.1-0.1-0.1c-0.5-1-1.1-2-1.6-2.9
	c0,0,0,0,0,0c-1.3-2.2-2.5-4.3-3.7-6.3c0,0,0,0,0,0c-0.5-0.8-1-1.6-1.5-2.4c0,0,0,0,0,0c-0.5-0.8-1-1.5-1.5-2.2c0,0,0,0,0,0
	c-0.6-0.9-1.3-1.8-1.9-2.7c0,0,0,0,0,0c-0.4-0.6-0.9-1.2-1.3-1.8c0,0,0-0.1-0.1-0.1c-0.4-0.5-0.8-1-1.1-1.5c0,0-0.1-0.1-0.1-0.1
	c-0.3-0.5-0.7-0.9-1-1.3c0,0-0.1-0.1-0.1-0.1c-0.1-0.1-0.2-0.3-0.3-0.4c0,0,0,0,0,0c-0.2-0.2-0.4-0.4-0.5-0.7c0,0-0.1-0.1-0.1-0.1
	c-0.1-0.1-0.2-0.2-0.2-0.3c0,0-0.1-0.1-0.1-0.1c-0.1-0.2-0.2-0.3-0.4-0.4c0,0-0.1-0.1-0.1-0.1c-0.1-0.1-0.1-0.1-0.2-0.2
	c0,0-0.1-0.1-0.1-0.1c-0.1-0.1-0.2-0.2-0.2-0.3c0,0-0.1-0.1-0.1-0.1c0-0.1-0.1-0.1-0.1-0.1c0,0-0.1-0.1-0.1-0.1c0,0-0.1-0.1-0.1-0.1
	c-0.1-0.1-0.1-0.1-0.2-0.2c0,0,0-0.1-0.1-0.1c0,0-0.1-0.1-0.1-0.1c0,0,0,0-0.1-0.1c0,0-0.1-0.1-0.1-0.1
	C177.2,22.5,177.2,22.5,177.1,22.4C177.2,22.5,177.2,22.4,177.1,22.4C177.2,22.4,177.2,22.4,177.1,22.4
	C177.1,22.4,177.1,22.4,177.1,22.4C177.1,22.4,177.1,22.4,177.1,22.4C177.1,22.4,177.1,22.4,177.1,22.4"/>
<path class="st8" d="M154.4,59.6c15.1-2.3,30.4-2.2,45.5,0.3c-9.8-23.2-22.8-37.5-22.8-37.5S164.2,36.6,154.4,59.6"/>
<path class="st8" d="M103.6,216.6c0,6.4-8.5,27.2-8.5,27.2s-8.5-20.8-8.5-27.2c0-6.4,3.8-11.6,8.5-11.6S103.6,210.2,103.6,216.6"/>
<path class="st9" d="M103.7,214.6H86.2c-0.3,0-0.6-0.2-0.6-0.5v-2.9c0-0.3,0.2-0.5,0.6-0.5h17.4c0.3,0,0.6,0.2,0.6,0.5v2.9
	C104.2,214.4,104,214.6,103.7,214.6"/>
<path class="st5" d="M104.3,211c5.2-9.5,8.7-26.2,8.7-42.6c0-24.8-17.9-42.6-17.9-42.6s-17.9,17.8-17.9,42.6
	c0,16.4,3.5,33.1,8.7,42.6C92.1,211.6,98.2,211.7,104.3,211"/>
<path class="st3" d="M94.1,126.8l-0.8,0.9c0,0,0,0,0,0c4.6,5.4,16,20.7,16,40.6c0,16.4-3.5,33.2-8.7,42.6c-2.3,0.3-4.7,0.4-7,0.5
	c3.6,0.1,7.2-0.1,10.8-0.5c5.2-9.5,8.7-26.2,8.7-42.6c0-21.2-13-37.3-16.8-41.5C95.6,126.2,94.7,126.2,94.1,126.8"/>
<path class="st6" d="M110.5,152.2c-4.9-16-15.4-26.4-15.4-26.4S84.8,136,79.8,151.9C90,150.5,100.3,150.6,110.5,152.2"/>
<path class="st8" d="M109.2,148.2c-5.3-13.8-14-22.5-14-22.5s-8.7,8.7-13.9,22.3C90.5,147,99.9,147.1,109.2,148.2"/>
<path class="st7" d="M93.3,127.8c3.2,3.7,9.7,12.3,13.3,23.9c1.3,0.1,2.6,0.3,3.9,0.5l0,0c-0.1-0.5-0.3-0.9-0.4-1.4
	c0-0.1,0-0.1-0.1-0.2c-0.1-0.4-0.3-0.9-0.5-1.3c0,0,0-0.1,0-0.1c-0.3-0.9-0.7-1.8-1-2.7c0,0,0-0.1,0-0.1c-0.2-0.4-0.3-0.8-0.5-1.2
	c0-0.1,0-0.1-0.1-0.2c-0.2-0.4-0.4-0.8-0.5-1.2c0,0,0-0.1-0.1-0.1c-0.2-0.4-0.4-0.8-0.6-1.2c0,0,0-0.1,0-0.1
	c-0.4-0.8-0.8-1.6-1.2-2.3c0,0,0-0.1,0-0.1c-0.2-0.4-0.4-0.7-0.6-1.1c0,0,0-0.1-0.1-0.1c-0.2-0.3-0.4-0.7-0.6-1c0,0,0-0.1-0.1-0.1
	c-0.2-0.3-0.4-0.7-0.6-1c0,0,0,0,0,0c-0.4-0.7-0.8-1.3-1.2-1.9c0,0,0-0.1-0.1-0.1c-0.2-0.3-0.4-0.6-0.6-0.9c0,0,0-0.1-0.1-0.1
	c-0.2-0.3-0.4-0.5-0.6-0.8c0,0,0-0.1-0.1-0.1c-0.2-0.3-0.4-0.5-0.6-0.8c0,0,0,0,0,0c-0.2-0.3-0.4-0.5-0.6-0.8c0,0,0,0,0,0
	c-0.2-0.2-0.4-0.5-0.5-0.7c0,0,0,0-0.1-0.1c-0.2-0.2-0.3-0.4-0.5-0.6c0,0,0-0.1-0.1-0.1c-0.2-0.2-0.3-0.4-0.5-0.6c0,0,0,0,0-0.1
	c-0.2-0.2-0.3-0.4-0.5-0.6c0,0,0,0,0,0c-0.2-0.2-0.3-0.4-0.4-0.5c0,0,0,0,0,0c-0.1-0.2-0.3-0.3-0.4-0.5c0,0,0,0,0-0.1
	c-0.1-0.1-0.2-0.3-0.3-0.4c0,0,0,0,0-0.1c-0.8-0.9-1.3-1.4-1.3-1.4S94.4,126.4,93.3,127.8"/>
<path class="st10" d="M108.5,146.7c-0.1-0.3-0.2-0.5-0.3-0.8c-0.1-0.1-0.1-0.3-0.2-0.4c-0.1-0.3-0.2-0.5-0.4-0.8
	c0-0.1-0.1-0.2-0.1-0.3c-0.2-0.4-0.3-0.7-0.5-1.1c0,0,0-0.1-0.1-0.1c-0.2-0.3-0.3-0.6-0.5-0.9c-0.1-0.1-0.1-0.2-0.2-0.3
	c-0.1-0.3-0.3-0.5-0.4-0.7c-0.1-0.1-0.1-0.2-0.2-0.3c-0.1-0.3-0.3-0.5-0.4-0.8c0-0.1-0.1-0.1-0.1-0.2c-0.2-0.3-0.4-0.7-0.5-1
	c0,0,0-0.1-0.1-0.1c-0.2-0.3-0.3-0.5-0.5-0.8c0-0.1-0.1-0.2-0.1-0.2c-0.1-0.2-0.3-0.5-0.4-0.7c0-0.1-0.1-0.2-0.1-0.2
	c-0.2-0.3-0.3-0.5-0.5-0.8c0,0,0-0.1,0-0.1c-0.2-0.3-0.4-0.6-0.6-0.9c0,0-0.1-0.1-0.1-0.1c-0.2-0.2-0.3-0.5-0.4-0.7
	c0-0.1-0.1-0.1-0.1-0.2c-0.1-0.2-0.3-0.4-0.4-0.6c0-0.1-0.1-0.1-0.1-0.2c-0.3-0.5-0.7-1-1-1.4c0-0.1-0.1-0.1-0.1-0.2
	c-0.1-0.2-0.2-0.3-0.4-0.5c0-0.1-0.1-0.1-0.1-0.2c-0.1-0.2-0.2-0.3-0.3-0.5c0-0.1-0.1-0.1-0.1-0.2c-0.2-0.2-0.3-0.4-0.4-0.6
	c0,0,0,0-0.1-0.1c-0.1-0.2-0.3-0.3-0.4-0.5c-0.1-0.1-0.1-0.1-0.2-0.2c-0.1-0.1-0.2-0.2-0.2-0.3c-0.1-0.1-0.1-0.1-0.2-0.2
	c-0.1-0.1-0.1-0.2-0.2-0.2c-0.1-0.1-0.1-0.1-0.2-0.2c-0.1-0.1-0.1-0.1-0.2-0.2c-0.1-0.2-0.3-0.3-0.4-0.4c0,0-0.1-0.1-0.1-0.1
	c-0.1-0.1-0.1-0.2-0.2-0.3c0,0,0,0-0.1-0.1c-0.1-0.1-0.1-0.2-0.2-0.2l0,0c-0.7-0.7-1-1.1-1-1.1s-0.4,0.4-1,1.1
	c-0.2,0.3-0.5,0.6-0.8,1l0,0c2.8,3.3,8.2,10.4,12,20c0.6,0.1,1.3,0.1,1.9,0.2c0,0,0,0,0.1,0c0.6,0.1,1.3,0.1,1.9,0.2
	c-0.2-0.4-0.3-0.8-0.5-1.2C108.6,146.9,108.6,146.8,108.5,146.7"/>
<path class="st2" d="M95.4,212.5c-3.2,0-6.3-0.2-9.5-0.5l-0.5-0.1l-0.2-0.4c-5.4-9.7-8.8-26.6-8.8-43.1c0-25,18-43.1,18.2-43.3
	l0.7-0.7l0.7,0.7c0.2,0.2,18.2,18.4,18.2,43.3c0,16.5-3.5,33.4-8.9,43.1l-0.2,0.4l-0.5,0.1C101.4,212.3,98.4,212.5,95.4,212.5
	 M86.6,210c5.7,0.6,11.4,0.6,17.1,0c5.1-9.5,8.4-25.8,8.4-41.7c0-21.3-13.6-37.6-16.9-41.2c-3.3,3.6-16.9,19.9-16.9,41.2
	C78.3,184.2,81.5,200.5,86.6,210"/>
<path class="st8" d="M269.5,216.6c0,6.4-8.5,27.2-8.5,27.2s-8.5-20.8-8.5-27.2c0-6.4,3.8-11.6,8.5-11.6
	C265.7,205,269.5,210.2,269.5,216.6"/>
<path class="st9" d="M269.6,214.6h-17.4c-0.3,0-0.6-0.2-0.6-0.5v-2.9c0-0.3,0.2-0.5,0.6-0.5h17.4c0.3,0,0.6,0.2,0.6,0.5v2.9
	C270.1,214.4,269.9,214.6,269.6,214.6"/>
<path class="st5" d="M270.2,211c5.2-9.5,8.7-26.2,8.7-42.6c0-24.8-17.9-42.6-17.9-42.6s-17.9,17.8-17.9,42.6
	c0,16.4,3.5,33.1,8.7,42.6C258,211.6,264.1,211.7,270.2,211"/>
<path class="st3" d="M260,126.8l-0.8,0.9c0,0,0,0,0,0c4.6,5.4,16,20.7,16,40.6c0,16.4-3.5,33.2-8.7,42.6c-2.3,0.3-4.7,0.4-7,0.5
	c3.6,0.1,7.2-0.1,10.8-0.5c5.2-9.5,8.7-26.2,8.7-42.6c0-21.2-13-37.3-16.8-41.5C261.5,126.2,260.6,126.2,260,126.8"/>
<path class="st6" d="M276.4,152.2c-4.9-16-15.4-26.4-15.4-26.4s-10.4,10.3-15.3,26.2C255.9,150.5,266.3,150.6,276.4,152.2"/>
<path class="st8" d="M275.1,148.2c-5.3-13.8-14-22.5-14-22.5s-8.7,8.7-13.9,22.3C256.4,147,265.8,147.1,275.1,148.2"/>
<path class="st7" d="M259.2,127.8c3.2,3.7,9.7,12.3,13.3,23.9c1.3,0.1,2.6,0.3,3.9,0.5l0,0c-0.1-0.5-0.3-0.9-0.4-1.4
	c0-0.1,0-0.1-0.1-0.2c-0.1-0.4-0.3-0.9-0.5-1.3c0,0,0-0.1,0-0.1c-0.3-0.9-0.7-1.8-1-2.7c0,0,0-0.1,0-0.1c-0.2-0.4-0.3-0.8-0.5-1.2
	c0-0.1,0-0.1-0.1-0.2c-0.2-0.4-0.4-0.8-0.5-1.2c0,0,0-0.1-0.1-0.1c-0.2-0.4-0.4-0.8-0.6-1.2c0,0,0-0.1,0-0.1
	c-0.4-0.8-0.8-1.6-1.2-2.3c0,0,0-0.1,0-0.1c-0.2-0.4-0.4-0.7-0.6-1.1c0,0,0-0.1-0.1-0.1c-0.2-0.3-0.4-0.7-0.6-1c0,0,0-0.1-0.1-0.1
	c-0.2-0.3-0.4-0.7-0.6-1c0,0,0,0,0,0c-0.4-0.7-0.8-1.3-1.2-1.9c0,0,0-0.1-0.1-0.1c-0.2-0.3-0.4-0.6-0.6-0.9c0,0,0-0.1-0.1-0.1
	c-0.2-0.3-0.4-0.5-0.6-0.8c0,0,0-0.1-0.1-0.1c-0.2-0.3-0.4-0.5-0.6-0.8c0,0,0,0,0,0c-0.2-0.3-0.4-0.5-0.6-0.8c0,0,0,0,0,0
	c-0.2-0.2-0.4-0.5-0.5-0.7c0,0,0,0-0.1-0.1c-0.2-0.2-0.3-0.4-0.5-0.6c0,0,0-0.1-0.1-0.1c-0.2-0.2-0.3-0.4-0.5-0.6c0,0,0,0,0-0.1
	c-0.2-0.2-0.3-0.4-0.5-0.6c0,0,0,0,0,0c-0.2-0.2-0.3-0.4-0.4-0.5c0,0,0,0,0,0c-0.1-0.2-0.3-0.3-0.4-0.5c0,0,0,0,0-0.1
	c-0.1-0.1-0.2-0.3-0.3-0.4c0,0,0,0,0-0.1c-0.8-0.9-1.3-1.4-1.3-1.4S260.3,126.4,259.2,127.8"/>
<path class="st10" d="M274.5,146.7c-0.1-0.3-0.2-0.5-0.3-0.8c-0.1-0.1-0.1-0.3-0.2-0.4c-0.1-0.3-0.2-0.5-0.4-0.8
	c0-0.1-0.1-0.2-0.1-0.3c-0.2-0.4-0.3-0.7-0.5-1.1c0,0,0-0.1-0.1-0.1c-0.2-0.3-0.3-0.6-0.5-0.9c-0.1-0.1-0.1-0.2-0.2-0.3
	c-0.1-0.3-0.3-0.5-0.4-0.7c-0.1-0.1-0.1-0.2-0.2-0.3c-0.1-0.3-0.3-0.5-0.4-0.8c0-0.1-0.1-0.1-0.1-0.2c-0.2-0.3-0.4-0.7-0.5-1
	c0,0,0-0.1-0.1-0.1c-0.2-0.3-0.3-0.5-0.5-0.8c0-0.1-0.1-0.2-0.1-0.2c-0.1-0.2-0.3-0.5-0.4-0.7c0-0.1-0.1-0.2-0.1-0.2
	c-0.2-0.3-0.3-0.5-0.5-0.8c0,0,0-0.1,0-0.1c-0.2-0.3-0.4-0.6-0.6-0.9c0,0-0.1-0.1-0.1-0.1c-0.2-0.2-0.3-0.5-0.4-0.7
	c0-0.1-0.1-0.1-0.1-0.2c-0.1-0.2-0.3-0.4-0.4-0.6c0-0.1-0.1-0.1-0.1-0.2c-0.3-0.5-0.7-1-1-1.4c0-0.1-0.1-0.1-0.1-0.2
	c-0.1-0.2-0.3-0.3-0.4-0.5c0-0.1-0.1-0.1-0.1-0.2c-0.1-0.2-0.2-0.3-0.3-0.5c0-0.1-0.1-0.1-0.1-0.2c-0.2-0.2-0.3-0.4-0.4-0.6
	c0,0,0,0-0.1-0.1c-0.1-0.2-0.3-0.3-0.4-0.5c-0.1-0.1-0.1-0.1-0.2-0.2c-0.1-0.1-0.2-0.2-0.2-0.3c-0.1-0.1-0.1-0.1-0.2-0.2
	c-0.1-0.1-0.1-0.2-0.2-0.2c-0.1-0.1-0.1-0.1-0.2-0.2c-0.1-0.1-0.1-0.1-0.2-0.2c-0.1-0.2-0.3-0.3-0.4-0.4c0,0-0.1-0.1-0.1-0.1
	c-0.1-0.1-0.1-0.2-0.2-0.3c0,0,0,0-0.1-0.1c-0.1-0.1-0.1-0.2-0.2-0.2l0,0c-0.7-0.7-1-1.1-1-1.1s-0.4,0.4-1,1.1
	c-0.2,0.3-0.5,0.6-0.8,1c0,0,0,0,0,0c2.8,3.3,8.2,10.4,12,20c0.6,0.1,1.3,0.1,1.9,0.2c0,0,0,0,0.1,0c0.6,0.1,1.3,0.1,1.9,0.2
	c-0.2-0.4-0.3-0.8-0.5-1.2C274.6,146.9,274.5,146.8,274.5,146.7"/>
<path class="st2" d="M261.3,212.5c-3.2,0-6.3-0.2-9.5-0.5l-0.5-0.1l-0.2-0.4c-5.4-9.7-8.8-26.6-8.8-43.1c0-25,18-43.1,18.2-43.3
	l0.7-0.7l0.7,0.7c0.2,0.2,18.2,18.4,18.2,43.3c0,16.5-3.5,33.4-8.9,43.1l-0.2,0.4l-0.5,0.1C267.3,212.3,264.3,212.5,261.3,212.5
	 M252.5,210c5.7,0.6,11.4,0.6,17.1,0c5.1-9.5,8.4-25.8,8.4-41.7c0-21.3-13.6-37.6-16.9-41.2c-3.3,3.6-16.9,19.9-16.9,41.2
	C244.2,184.2,247.4,200.5,252.5,210"/>
<path class="st10" d="M192.5,58.9c2.5,0.3,5,0.6,7.4,1c-7.5-17.7-16.9-30.3-20.9-35.2c0,0,0,0,0,0c-0.2-0.3-0.4-0.5-0.6-0.8
	c0,0,0,0-0.1-0.1c-0.1-0.1-0.2-0.2-0.3-0.4c0,0,0,0,0-0.1c0-0.1-0.1-0.1-0.1-0.2c0,0-0.1-0.1-0.1-0.1c-0.1-0.1-0.1-0.1-0.2-0.2
	c0,0-0.1-0.1-0.1-0.1c0,0-0.1-0.1-0.1-0.1c0,0-0.1-0.1-0.1-0.1c0,0,0,0,0-0.1c0,0,0-0.1-0.1-0.1c0,0,0,0,0,0
	c-0.1-0.1-0.1-0.1-0.1-0.1s0,0,0,0c0,0,0,0,0,0c0,0,0,0,0,0c-0.1,0.1-0.2,0.2-0.3,0.4c0,0,0,0,0,0c-0.2,0.2-0.5,0.5-0.8,0.9
	c0,0,0,0,0,0c-0.2,0.2-0.4,0.4-0.5,0.7c0,0,0,0,0,0c-0.1,0.1-0.2,0.2-0.3,0.4c0,0,0,0,0,0.1c-0.1,0.1-0.2,0.2-0.3,0.4c0,0,0,0,0,0
	c-0.1,0.1-0.2,0.3-0.3,0.4c0,0,0,0,0,0c-0.1,0.1-0.2,0.3-0.3,0.4c0,0-0.1,0.1-0.1,0.1c-0.1,0.1-0.2,0.2-0.2,0.3c0,0-0.1,0.1-0.1,0.1
	C178.1,32.4,185.9,43.6,192.5,58.9"/>
<path class="st2" d="M177.5,200.3c-5.9,0-11.8-0.4-17.7-1.1l-0.5-0.1l-0.2-0.5c-10-19.9-16.4-54.6-16.4-88.3
	c0-51,33.4-88.3,33.7-88.6l0.7-0.8l0.7,0.8c0.3,0.4,33.7,37.6,33.7,88.6c0,33.8-6.5,68.5-16.4,88.4l-0.2,0.5l-0.5,0.1
	C188.8,200,183.2,200.3,177.5,200.3 M160.6,197.3c10.9,1.4,22,1.4,33,0.1c9.7-19.7,16-53.8,16-87.1c0-46.1-27.6-80.7-32.5-86.5
	c-4.9,5.7-32.5,40.4-32.5,86.5C144.7,143.5,150.9,177.6,160.6,197.3"/>
<path class="st3" d="M198.9,106.6c0,12.3-9.9,22.2-22.2,22.2c-12.3,0-22.2-9.9-22.2-22.2c0-12.3,9.9-22.2,22.2-22.2
	C189,84.4,198.9,94.3,198.9,106.6"/>
<path class="st11" d="M192.2,106.6c0,8.5-6.9,15.5-15.5,15.5c-8.5,0-15.5-6.9-15.5-15.5c0-8.5,6.9-15.5,15.5-15.5
	C185.2,91.1,192.2,98,192.2,106.6"/>
<path class="st2" d="M176.8,123.7c-4.5,0-8.8-1.8-12.1-5c-3.3-3.3-5.1-7.6-5.1-12.2c0-9.4,7.7-17.1,17.1-17.1c4.5,0,8.8,1.8,12.1,5
	c3.3,3.3,5.1,7.6,5.1,12.2C193.8,116,186.2,123.7,176.8,123.7 M176.6,90.9c-8.6,0-15.6,7-15.6,15.6c0,4.2,1.7,8.2,4.7,11.2
	c3,2.9,6.9,4.5,11.1,4.5c8.6,0,15.6-7,15.6-15.6c0-4.2-1.7-8.2-4.7-11.2C184.7,92.5,180.8,90.9,176.6,90.9"/>
<path class="st2" d="M177.5,87.4c0,0.6-0.5,1.1-1.1,1.1s-1.1-0.5-1.1-1.1c0-0.6,0.5-1.1,1.1-1.1S177.5,86.8,177.5,87.4"/>
<path class="st2" d="M170.1,88.5c0.2,0.6,0,1.2-0.6,1.5c-0.6,0.2-1.2,0-1.5-0.6c-0.2-0.6,0-1.2,0.6-1.5
	C169.3,87.7,169.9,88,170.1,88.5"/>
<path class="st2" d="M163.7,92.4c0.4,0.4,0.4,1.1,0,1.6c-0.4,0.4-1.1,0.4-1.6,0c-0.4-0.4-0.4-1.1,0-1.6
	C162.6,92,163.3,92,163.7,92.4"/>
<path class="st2" d="M159.3,98.5c0.6,0.2,0.8,0.9,0.6,1.5c-0.2,0.6-0.9,0.8-1.5,0.6c-0.6-0.2-0.8-0.9-0.6-1.5
	C158.1,98.5,158.8,98.2,159.3,98.5"/>
<path class="st2" d="M157.5,105.7c0.6,0,1.1,0.5,1.1,1.1c0,0.6-0.5,1.1-1.1,1.1c-0.6,0-1.1-0.5-1.1-1.1
	C156.4,106.2,156.9,105.7,157.5,105.7"/>
<path class="st2" d="M158.7,113.1c0.6-0.2,1.2,0,1.5,0.6c0.2,0.6,0,1.2-0.6,1.5c-0.6,0.2-1.2,0-1.5-0.6
	C157.9,114,158.1,113.4,158.7,113.1"/>
<path class="st2" d="M162.6,119.5c0.4-0.4,1.1-0.4,1.6,0c0.4,0.4,0.4,1.1,0,1.6c-0.4,0.4-1.1,0.4-1.6,0
	C162.1,120.7,162.1,119.9,162.6,119.5"/>
<path class="st2" d="M168.6,123.9c0.2-0.6,0.9-0.8,1.5-0.6c0.6,0.2,0.8,0.9,0.6,1.5c-0.2,0.6-0.9,0.8-1.5,0.6
	C168.6,125.2,168.4,124.5,168.6,123.9"/>
<path class="st2" d="M175.9,125.7c0-0.6,0.5-1.1,1.1-1.1c0.6,0,1.1,0.5,1.1,1.1c0,0.6-0.5,1.1-1.1,1.1
	C176.4,126.8,175.9,126.3,175.9,125.7"/>
<path class="st2" d="M183.3,124.6c-0.2-0.6,0-1.2,0.6-1.5c0.6-0.2,1.2,0,1.5,0.6c0.2,0.6,0,1.2-0.6,1.5
	C184.2,125.4,183.5,125.1,183.3,124.6"/>
<path class="st2" d="M189.7,120.7c-0.4-0.4-0.4-1.1,0-1.6c0.4-0.4,1.1-0.4,1.6,0c0.4,0.4,0.4,1.1,0,1.6
	C190.8,121.1,190.1,121.1,189.7,120.7"/>
<path class="st2" d="M194.1,114.7c-0.6-0.2-0.8-0.9-0.6-1.5c0.2-0.6,0.9-0.8,1.5-0.6c0.6,0.2,0.8,0.9,0.6,1.5
	C195.3,114.6,194.7,114.9,194.1,114.7"/>
<path class="st2" d="M195.9,107.4c-0.6,0-1.1-0.5-1.1-1.1s0.5-1.1,1.1-1.1c0.6,0,1.1,0.5,1.1,1.1S196.5,107.4,195.9,107.4"/>
<path class="st2" d="M194.7,100c-0.6,0.2-1.2,0-1.5-0.6c-0.2-0.6,0-1.2,0.6-1.5c0.6-0.2,1.2,0,1.5,0.6
	C195.6,99.1,195.3,99.8,194.7,100"/>
<path class="st2" d="M190.8,93.6c-0.4,0.4-1.1,0.4-1.6,0c-0.4-0.4-0.4-1.1,0-1.6c0.4-0.4,1.1-0.4,1.6,0
	C191.3,92.5,191.3,93.2,190.8,93.6"/>
<path class="st2" d="M184.8,89.2c-0.2,0.6-0.9,0.8-1.5,0.6c-0.6-0.2-0.8-0.9-0.6-1.5c0.2-0.6,0.9-0.8,1.5-0.6
	C184.8,88,185,88.6,184.8,89.2"/>
<path class="st1" d="M188.6,102.9c-0.3,0-0.6-0.2-0.7-0.5c-0.6-1.6-1.6-3.1-2.8-4.4c-1.7-1.7-3.9-2.8-6.2-3.3
	c-0.4-0.1-0.7-0.5-0.6-0.9c0.1-0.4,0.5-0.7,0.9-0.6c2.6,0.5,5.1,1.8,7,3.7c1.4,1.4,2.5,3.1,3.2,4.9c0.1,0.4-0.1,0.8-0.4,0.9
	C188.8,102.9,188.7,102.9,188.6,102.9"/>
<path class="st2" d="M176.7,129.5c-12.6,0-22.9-10.3-22.9-22.9c0-12.6,10.3-22.9,22.9-22.9c12.6,0,22.9,10.3,22.9,22.9
	C199.6,119.2,189.3,129.5,176.7,129.5 M176.7,85.1c-11.8,0-21.5,9.6-21.5,21.5c0,11.8,9.6,21.5,21.5,21.5c11.8,0,21.5-9.6,21.5-21.5
	C198.2,94.7,188.5,85.1,176.7,85.1"/>
<path class="st3" d="M188.3,150.6c0,6.4-5.2,11.6-11.6,11.6c-6.4,0-11.6-5.2-11.6-11.6c0-6.4,5.2-11.6,11.6-11.6
	C183.1,139,188.3,144.2,188.3,150.6"/>
<path class="st11" d="M184.8,150.6c0,4.5-3.6,8.1-8.1,8.1c-4.5,0-8.1-3.6-8.1-8.1c0-4.5,3.6-8.1,8.1-8.1
	C181.2,142.6,184.8,146.2,184.8,150.6"/>
<path class="st2" d="M176.7,159.5c-2.4,0-4.6-0.9-6.3-2.6c-1.7-1.7-2.7-4-2.7-6.4c0-4.9,4-8.9,8.9-8.9c2.4,0,4.6,0.9,6.3,2.6
	c1.7,1.7,2.7,4,2.7,6.4C185.6,155.6,181.7,159.5,176.7,159.5 M176.7,142.4c-4.5,0-8.1,3.7-8.1,8.1c0,2.2,0.9,4.3,2.4,5.8
	c1.5,1.5,3.6,2.4,5.8,2.4c4.5,0,8.1-3.6,8.1-8.1c0-2.2-0.9-4.3-2.4-5.8C180.9,143.3,178.8,142.4,176.7,142.4"/>
<path class="st1" d="M182.9,148.7c-0.2,0-0.3-0.1-0.4-0.2c-0.3-0.9-0.8-1.6-1.5-2.3c-0.9-0.9-2-1.5-3.3-1.7c-0.2,0-0.3-0.2-0.3-0.4
	c0-0.2,0.2-0.3,0.4-0.3c1.4,0.3,2.6,0.9,3.7,1.9c0.7,0.7,1.3,1.6,1.7,2.6c0.1,0.2,0,0.4-0.2,0.5C183,148.7,183,148.7,182.9,148.7"/>
<path class="st2" d="M176.7,162.6c-6.6,0-12-5.4-12-12c0-6.6,5.4-12,12-12c6.6,0,12,5.4,12,12C188.7,157.2,183.3,162.6,176.7,162.6
	 M176.7,139.4c-6.2,0-11.2,5-11.2,11.2c0,6.2,5,11.2,11.2,11.2c6.2,0,11.2-5,11.2-11.2C187.9,144.4,182.9,139.4,176.7,139.4"/>
<path class="st12" d="M324.5,289.5H203.4c-1.7,0-3.1,1.4-3.1,3.1c0,1.9-1.4,3.5-3.1,3.5h-32.4c-1.7,0-3.1-1.6-3.1-3.5
	c0-1.7-1.4-3.1-3.1-3.1H37.6c-1.4,0-2.5,1.1-2.5,2.5v2.3c0,7.2,5.9,13.1,13.1,13.1H314c7.2,0,13.1-5.9,13.1-13.1V292
	C327,290.6,325.9,289.5,324.5,289.5"/>
<path class="st17" d="M313.5,300.9H37.7c-0.3,0-0.6,0-0.9,0c2.3,3.9,6.5,6.6,11.3,6.6H314c7.2,0,13.1-5.9,13.1-13.1V292
	c0-0.5-0.2-1-0.4-1.4C325.1,296.5,319.8,300.9,313.5,300.9"/>
<path class="st2" d="M314,309.2H48.1c-8.2,0-14.9-6.7-14.9-14.9V292c0-2.4,1.9-4.3,4.3-4.3h121.1c2.7,0,4.9,2.2,4.9,4.9
	c0,0.9,0.6,1.7,1.3,1.7h32.4c0.7,0,1.3-0.8,1.3-1.7c0-2.7,2.2-4.9,4.9-4.9h121.1c2.4,0,4.3,1.9,4.3,4.3v2.3
	C328.9,302.6,322.2,309.2,314,309.2 M37.6,291.3c-0.4,0-0.7,0.3-0.7,0.7v2.3c0,6.2,5.1,11.3,11.3,11.3H314c6.2,0,11.3-5.1,11.3-11.3
	V292c0-0.4-0.3-0.7-0.7-0.7H203.4c-0.7,0-1.3,0.6-1.3,1.3c0,2.9-2.2,5.3-4.9,5.3h-32.4c-2.7,0-4.9-2.4-4.9-5.3
	c0-0.7-0.6-1.3-1.3-1.3H37.6z"/>
<path class="st1" d="M67.3,81.7l-4.8-0.8c-0.2-0.5-0.4-1.1-0.6-1.6c-0.3-0.7-0.7-1.4-1.2-2.1l2.6-3.4c0.4-0.5,0.3-1.3-0.2-1.7
	l-2.6-2.3c-0.5-0.5-1.3-0.5-1.9-0.2l-3.9,2.4c-1.4-0.7-2.8-1.3-4.4-1.6l-0.8-3.8c-0.1-0.6-0.8-1.1-1.5-1.1h-3.6
	c-0.7,0-1.3,0.5-1.5,1.1l-0.8,3.8c-0.8,0.2-1.6,0.4-2.4,0.7c-0.8,0.3-1.6,0.7-2.4,1.1l-3.2-2c-0.6-0.4-1.4-0.3-1.9,0.2l-2.6,2.3
	c-0.5,0.5-0.6,1.2-0.2,1.7l2.2,3c-0.9,1.4-1.6,3-2,4.6l-3.6,0.6c-0.7,0.1-1.2,0.7-1.2,1.3v3.3c0,0.7,0.5,1.2,1.2,1.3l3.8,0.7
	c0.2,0.6,0.4,1.2,0.7,1.8c0.4,1,1,1.9,1.6,2.7l-2.1,2.8c-0.4,0.5-0.3,1.3,0.2,1.7l2.6,2.3c0.5,0.5,1.3,0.5,1.9,0.2l3.4-2.1
	c1.5,0.8,3.2,1.3,4.9,1.6l0.7,3.6c0.1,0.6,0.8,1.1,1.5,1.1H49c0.7,0,1.3-0.5,1.5-1.1l0.8-4c0.5-0.1,1-0.3,1.4-0.5
	c1-0.4,2-0.9,2.9-1.4l3.6,2.2c0.6,0.4,1.4,0.3,1.9-0.2l2.6-2.3c0.5-0.5,0.6-1.2,0.2-1.7l-2.7-3.6c0.7-1.2,1.2-2.5,1.5-3.8l4.5-0.8
	c0.7-0.1,1.2-0.7,1.2-1.3v-3.3C68.5,82.4,68,81.9,67.3,81.7 M46.3,90.8c-3.4,0-6.2-2.5-6.2-5.6c0-3.1,2.8-5.6,6.2-5.6
	c3.4,0,6.2,2.5,6.2,5.6C52.5,88.3,49.7,90.8,46.3,90.8"/>
<path class="st2" d="M49,105.7h-3.6c-1.1,0-2-0.7-2.3-1.7l-0.6-3.1c-1.5-0.3-2.9-0.8-4.2-1.4l-3,1.9c-0.9,0.6-2.1,0.5-2.9-0.3
	l-2.6-2.3c-0.8-0.7-0.9-1.9-0.3-2.8l1.7-2.3c-0.5-0.7-1-1.5-1.3-2.3c-0.2-0.5-0.4-0.9-0.6-1.5L26,89.3c-1.1-0.2-1.9-1.1-1.9-2.1
	v-3.3c0-1,0.8-1.9,1.9-2.1l3.1-0.5c0.4-1.3,0.9-2.6,1.7-3.9l-1.9-2.6c-0.7-0.9-0.5-2.1,0.3-2.8l2.6-2.3c0.8-0.7,2-0.8,2.9-0.3
	l2.8,1.8c0.7-0.4,1.4-0.7,2.1-0.9c0.6-0.2,1.2-0.4,2-0.6l0.7-3.3c0.2-1,1.2-1.7,2.3-1.7h3.6c1.1,0,2,0.7,2.3,1.7l0.7,3.3
	c1.3,0.3,2.5,0.8,3.7,1.4l3.5-2.1c0.9-0.6,2.1-0.5,2.9,0.3l2.6,2.3c0.8,0.7,0.9,1.9,0.3,2.8l-2.2,3c0.4,0.6,0.7,1.2,0.9,1.7
	c0.2,0.4,0.4,0.8,0.5,1.2l4.3,0.7c1.1,0.2,1.9,1.1,1.9,2.1v3.3c0,1-0.8,1.9-1.9,2.1l-4,0.7c-0.3,1.1-0.7,2.1-1.2,3.1l2.4,3.2
	c0.7,0.9,0.5,2.1-0.3,2.8l-2.6,2.3c-0.8,0.7-2,0.8-2.9,0.3l-3.2-2c-0.8,0.5-1.7,0.9-2.6,1.2c-0.3,0.1-0.7,0.2-1,0.4l-0.7,3.5
	C51,105,50.1,105.7,49,105.7 M38.2,97.7l0.4,0.2c1.5,0.7,3,1.2,4.7,1.5l0.5,0.1l0.9,4.1c0.1,0.3,0.4,0.5,0.7,0.5H49
	c0.3,0,0.6-0.2,0.7-0.5l0.9-4.5l0.5-0.1c0.5-0.1,0.9-0.3,1.4-0.4c1-0.4,1.9-0.8,2.8-1.3l0.4-0.3l4,2.5c0.3,0.2,0.7,0.1,1-0.1
	l2.6-2.3c0.2-0.2,0.2-0.5,0.1-0.7l-3-4l0.3-0.5c0.7-1.1,1.1-2.3,1.5-3.6l0.1-0.5l5-0.9c0.3-0.1,0.6-0.3,0.6-0.6v-3.3
	c0-0.3-0.2-0.5-0.6-0.6l-5.2-0.9l-0.1-0.5c-0.2-0.5-0.4-1-0.6-1.5c-0.3-0.6-0.7-1.3-1.1-2l-0.3-0.5l2.9-3.9c0.2-0.2,0.1-0.5-0.1-0.7
	L60,70.3c-0.2-0.2-0.7-0.3-1-0.1l-4.2,2.6l-0.4-0.2c-1.3-0.7-2.7-1.2-4.2-1.5L49.7,71l-0.9-4.3c-0.1-0.3-0.4-0.5-0.7-0.5h-3.6
	c-0.3,0-0.6,0.2-0.7,0.5l-0.9,4.3l-0.5,0.1c-0.9,0.2-1.6,0.4-2.3,0.7c-0.7,0.3-1.5,0.6-2.3,1.1L37.4,73l-3.6-2.2
	c-0.3-0.2-0.7-0.2-1,0.1l-2.6,2.3c-0.2,0.2-0.2,0.5-0.1,0.7l2.6,3.4l-0.3,0.5c-0.9,1.4-1.5,2.8-1.9,4.3l-0.1,0.5l-4.1,0.7
	c-0.3,0.1-0.6,0.3-0.6,0.6v3.3c0,0.3,0.2,0.5,0.6,0.6l4.3,0.7l0.1,0.5c0.2,0.7,0.4,1.2,0.6,1.7c0.4,0.9,0.9,1.7,1.5,2.5l0.4,0.5
	L30.8,97c-0.2,0.2-0.1,0.5,0.1,0.7l2.6,2.3c0.3,0.2,0.7,0.3,1,0.1L38.2,97.7z M46.3,91.6c-3.9,0-7-2.9-7-6.4c0-3.6,3.1-6.4,7-6.4
	c3.9,0,7,2.9,7,6.4C53.3,88.7,50.1,91.6,46.3,91.6 M46.3,80.3c-3,0-5.4,2.2-5.4,4.8c0,2.7,2.4,4.9,5.4,4.9c3,0,5.4-2.2,5.4-4.9
	C51.7,82.5,49.3,80.3,46.3,80.3"/>
<path class="st1" d="M292.8,63.4l-6.7-1.3c-0.2-0.8-0.5-1.7-0.9-2.5c-0.5-1.1-1.1-2.2-1.7-3.2l3.6-5.3c0.6-0.8,0.5-2-0.3-2.7
	l-3.6-3.6c-0.7-0.7-1.8-0.8-2.7-0.3l-5.4,3.7c-1.9-1.1-4-2-6.2-2.5l-1.1-6c-0.2-1-1.1-1.7-2.1-1.7h-5.1c-1,0-1.9,0.7-2.1,1.7
	l-1.1,5.9c-1.1,0.3-2.2,0.6-3.3,1.1c-1.2,0.5-2.3,1.1-3.3,1.7l-4.6-3.1c-0.8-0.6-2-0.5-2.7,0.3l-3.6,3.6c-0.7,0.7-0.8,1.8-0.3,2.7
	l3.2,4.6c-1.3,2.2-2.3,4.6-2.8,7.1l-5.1,1c-1,0.2-1.7,1.1-1.7,2.1v5.1c0,1,0.7,1.9,1.7,2.1l5.4,1c0.3,1,0.6,1.9,1,2.9
	c0.6,1.5,1.4,2.9,2.2,4.2l-2.9,4.3c-0.6,0.8-0.5,2,0.3,2.7l3.6,3.6c0.7,0.7,1.8,0.8,2.7,0.3l4.8-3.3c2.2,1.2,4.5,2,6.9,2.5l1.1,5.5
	c0.2,1,1.1,1.7,2.1,1.7h5.1c1,0,1.9-0.7,2.1-1.7l1.2-6.2c0.7-0.2,1.4-0.4,2-0.7c1.5-0.6,2.8-1.3,4.1-2.2l5.1,3.5
	c0.8,0.6,2,0.5,2.7-0.3l3.6-3.6c0.7-0.7,0.8-1.8,0.3-2.7l-3.8-5.6c1-1.9,1.7-3.9,2.2-5.9l6.4-1.2c1-0.2,1.7-1.1,1.7-2.1v-5.1
	C294.5,64.5,293.8,63.6,292.8,63.4 M263.2,77.5c-4.8,0-8.8-3.9-8.8-8.8c0-4.8,3.9-8.8,8.8-8.8c4.8,0,8.8,3.9,8.8,8.8
	C271.9,73.5,268,77.5,263.2,77.5"/>
<path class="st2" d="M267,100.2h-5.1c-1.4,0-2.6-1-2.9-2.4l-1-5c-2.1-0.5-4.2-1.2-6.1-2.2l-4.4,3c-1.2,0.8-2.7,0.6-3.7-0.4l-3.6-3.6
	c-1-1-1.1-2.6-0.4-3.7l2.6-3.9c-0.8-1.2-1.5-2.5-2-3.8c-0.3-0.7-0.6-1.5-0.8-2.5l-4.9-0.9c-1.4-0.3-2.4-1.5-2.4-2.9v-5.1
	c0-1.4,1-2.6,2.4-2.9l4.6-0.9c0.5-2.2,1.4-4.4,2.5-6.4l-2.9-4.2c-0.8-1.2-0.6-2.7,0.4-3.7l3.6-3.6c1-1,2.6-1.2,3.7-0.4l4.1,2.8
	c1-0.6,2-1.1,3-1.5c0.9-0.4,1.8-0.7,2.9-1l1-5.4c0.3-1.4,1.5-2.4,2.9-2.4h5.1c1.4,0,2.6,1,2.9,2.4l1,5.4c1.9,0.5,3.7,1.3,5.4,2.2
	l5-3.4c1.2-0.8,2.7-0.6,3.8,0.4l3.6,3.6c1,1,1.2,2.6,0.4,3.7l-3.3,4.9c0.6,1,1.1,2,1.5,2.9c0.3,0.7,0.5,1.4,0.8,2.1l6.2,1.2
	c1.4,0.3,2.4,1.5,2.4,2.9v5.1c0,1.4-1,2.6-2.4,2.9l-5.8,1.1c-0.4,1.8-1.1,3.5-1.9,5.2l3.5,5.2c0.8,1.2,0.6,2.7-0.4,3.7l-3.6,3.6
	c-1,1-2.6,1.2-3.7,0.4l-4.6-3.1c-1.2,0.8-2.5,1.4-3.7,1.9c-0.5,0.2-1.1,0.4-1.6,0.6l-1.1,5.7C269.6,99.2,268.4,100.2,267,100.2
	 M251.8,88.7l0.4,0.2c2.1,1.1,4.3,1.9,6.7,2.4l0.6,0.1l1.2,6.1c0.1,0.6,0.6,1,1.3,1h5.1c0.6,0,1.1-0.4,1.3-1l1.3-6.7l0.5-0.2
	c0.7-0.2,1.3-0.4,2-0.7c1.3-0.6,2.7-1.3,3.9-2.1l0.5-0.3l5.5,3.8c0.5,0.3,1.2,0.3,1.6-0.2l3.6-3.6c0.4-0.4,0.5-1.1,0.2-1.6l-4.1-6
	l0.2-0.4c0.9-1.8,1.6-3.7,2.1-5.7l0.1-0.5l6.9-1.3c0.6-0.1,1-0.6,1-1.3v-5.1c0-0.6-0.4-1.1-1-1.3l-7.2-1.4l-0.1-0.5
	c-0.3-0.9-0.5-1.7-0.8-2.4c-0.4-1-0.9-2-1.6-3.1l-0.3-0.5l3.9-5.8c0.3-0.5,0.3-1.2-0.2-1.6l-3.6-3.6c-0.4-0.4-1.1-0.5-1.6-0.2
	l-5.9,4l-0.5-0.3c-1.9-1.1-3.9-1.9-6-2.4l-0.5-0.1l-1.2-6.5c-0.1-0.6-0.6-1-1.3-1h-5.1c-0.6,0-1.1,0.4-1.3,1l-1.2,6.5l-0.5,0.1
	c-1.3,0.3-2.3,0.6-3.2,1c-1,0.4-2.1,1-3.2,1.7l-0.5,0.3l-5-3.4c-0.5-0.3-1.2-0.3-1.6,0.2l-3.6,3.6c-0.4,0.4-0.5,1.1-0.2,1.6l3.5,5.1
	l-0.3,0.5c-1.3,2.2-2.2,4.5-2.7,6.9l-0.1,0.5l-5.6,1.1c-0.6,0.1-1,0.6-1,1.3v5.1c0,0.6,0.4,1.1,1,1.3l5.9,1.1l0.1,0.5
	c0.3,1.1,0.6,1.9,0.9,2.8c0.6,1.4,1.3,2.8,2.2,4l0.3,0.5l-3.3,4.8c-0.3,0.5-0.3,1.2,0.2,1.6l3.6,3.6c0.4,0.4,1.1,0.5,1.6,0.2
	L251.8,88.7z M263.2,78.3c-5.3,0-9.6-4.3-9.6-9.6c0-5.3,4.3-9.6,9.6-9.6c5.3,0,9.6,4.3,9.6,9.6C272.7,74,268.4,78.3,263.2,78.3
	 M263.2,60.8c-4.4,0-7.9,3.6-7.9,7.9c0,4.4,3.6,7.9,7.9,7.9c4.4,0,7.9-3.6,7.9-7.9C271.1,64.3,267.5,60.8,263.2,60.8"/>
</svg>
