<svg id="Layer_1" data-name="Layer 1" xmlns="http://www.w3.org/2000/svg" viewBox="0 0 928.84 566.28"><defs><style>.cls-1{fill:#fff;}</style></defs><path class="cls-1" d="M218.49,629.19q-6.65-7.29-17.7-7.31c-7.47,0-13.43,2.45-17.85,7.24s-6.66,11.38-6.66,19.64,2.23,14.67,6.66,19.54,10.38,7.31,17.85,7.31,13.27-2.45,17.7-7.35,6.66-11.41,6.66-19.5S222.92,634.09,218.49,629.19Zm0,0q-6.65-7.29-17.7-7.31c-7.47,0-13.43,2.45-17.85,7.24s-6.66,11.38-6.66,19.64,2.23,14.67,6.66,19.54,10.38,7.31,17.85,7.31,13.27-2.45,17.7-7.35,6.66-11.41,6.66-19.5S222.92,634.09,218.49,629.19Zm0,0q-6.65-7.29-17.7-7.31c-7.47,0-13.43,2.45-17.85,7.24s-6.66,11.38-6.66,19.64,2.23,14.67,6.66,19.54,10.38,7.31,17.85,7.31,13.27-2.45,17.7-7.35,6.66-11.41,6.66-19.5S222.92,634.09,218.49,629.19Zm0,0q-6.65-7.29-17.7-7.31c-7.47,0-13.43,2.45-17.85,7.24s-6.66,11.38-6.66,19.64,2.23,14.67,6.66,19.54,10.38,7.31,17.85,7.31,13.27-2.45,17.7-7.35,6.66-11.41,6.66-19.5S222.92,634.09,218.49,629.19ZM44.92,575.64V708H507.24V575.64Zm99.75,45.21H120.2v74.4H97.67v-74.4H73.2V602.78h71.47Zm97.08,52.35a45.23,45.23,0,0,1-17.12,16.9,49.95,49.95,0,0,1-47.73,0,45.2,45.2,0,0,1-17.27-16.9,49.71,49.71,0,0,1,0-48.8,45.31,45.31,0,0,1,17.27-16.86,50,50,0,0,1,47.77,0,44.37,44.37,0,0,1,17.12,16.86,50.54,50.54,0,0,1,0,48.8Zm102.57,22H321.79l-37.64-57v57H261.62V602.78h22.53l37.64,57.29V602.78h22.53Zm39.91,0H361.7V602.78h22.53Zm42.91-27q6.47,7.25,16.86,7.24a22,22,0,0,0,11.52-3,19.9,19.9,0,0,0,7.83-8.82h24.76c-2.63,10-7.86,17.89-15.65,23.63s-17.23,8.63-28.21,8.63a48.2,48.2,0,0,1-24-6,42.29,42.29,0,0,1-16.5-16.68,53.16,53.16,0,0,1,0-48.76,42.66,42.66,0,0,1,16.5-16.75,48.18,48.18,0,0,1,24-6q16.47,0,28.21,8.67a41.94,41.94,0,0,1,15.65,23.7H463.35a19.82,19.82,0,0,0-7.83-8.81,22,22,0,0,0-11.52-3q-10.38,0-16.86,7.24c-4.28,4.83-6.44,11.31-6.44,19.35S422.86,663.43,427.14,668.26ZM200.79,621.88c-7.47,0-13.43,2.45-17.85,7.24s-6.66,11.38-6.66,19.64,2.23,14.67,6.66,19.54,10.38,7.31,17.85,7.31,13.27-2.45,17.7-7.35,6.66-11.41,6.66-19.5-2.23-14.67-6.66-19.57S208.17,621.88,200.79,621.88Zm17.7,7.31q-6.65-7.29-17.7-7.31c-7.47,0-13.43,2.45-17.85,7.24s-6.66,11.38-6.66,19.64,2.23,14.67,6.66,19.54,10.38,7.31,17.85,7.31,13.27-2.45,17.7-7.35,6.66-11.41,6.66-19.5S222.92,634.09,218.49,629.19Zm0,0q-6.65-7.29-17.7-7.31c-7.47,0-13.43,2.45-17.85,7.24s-6.66,11.38-6.66,19.64,2.23,14.67,6.66,19.54,10.38,7.31,17.85,7.31,13.27-2.45,17.7-7.35,6.66-11.41,6.66-19.5S222.92,634.09,218.49,629.19Z" transform="translate(-44.92 -216.86)"/><path class="cls-1" d="M537.25,261.12c9.64,18.19,1.75,39.55-13.32,49.74a39.41,39.41,0,0,1-52.24-58c7.84-9.45,18-14.09,30.68-13.91a22.33,22.33,0,0,1,3.66,0c.25,0,.49.08.73.1a23.17,23.17,0,0,0,29.41,19.58A14.34,14.34,0,0,0,537.25,261.12Z" transform="translate(-44.92 -216.86)"/><path class="cls-1" d="M539.85,251.49a10.45,10.45,0,0,0-3.51,3.3,19.53,19.53,0,0,1-26.07-17.73,13.31,13.31,0,0,0,.61-2.16c2.42-11.29,10.22-17.62,21.8-15.49,7.86,1.44,12.67,6.66,14.18,14.29C548.28,240.85,545.9,247.43,539.85,251.49Z" transform="translate(-44.92 -216.86)"/><path class="cls-1" d="M638.94,396.71a25.86,25.86,0,0,1,.13,5c-2.72,31.75-15.87,59.28-35.09,84a255.34,255.34,0,0,1-65,59.38,299.77,299.77,0,0,1-26.59,15.07c-3.66,1.84-4.23.6-4.78-2.65-1.09-6.57.1-12.23,4.65-17.43,9.79-11.18,21.54-20.24,32.22-30.43a103,103,0,0,0,8.44-8.54c4.45-5.33,3.32-9.93-2.84-13a98.85,98.85,0,0,1-9.29-4.74c-5-3.22-7.42-8.41-6.08-12.12,1.52-4.19,6.4-6,12.64-5.95,10.89,0,22,.8,32.23-4.27,4.8.85,8.87-1.38,12.93-3.24a80.86,80.86,0,0,0,22.28-14.84h0a7.47,7.47,0,0,0,1-1c1.79-2,6.16-7.58,15.39-22.69l0,0A86.31,86.31,0,0,0,635.93,405c0-.07,0-.14.05-.22.55-2.34,1.49-8.2,2.14-10.28h0a79.88,79.88,0,0,0,.16-10,67.83,67.83,0,0,0-.85-6.87A47.67,47.67,0,0,1,638.94,396.71Z" transform="translate(-44.92 -216.86)"/><path class="cls-1" d="M614.79,442.9h0Z" transform="translate(-44.92 -216.86)"/><path class="cls-1" d="M615.83,441.88a7.47,7.47,0,0,1-1,1h0C615.14,442.57,615.48,442.23,615.83,441.88Z" transform="translate(-44.92 -216.86)"/><path class="cls-1" d="M496.37,557.24c-.56,3.65-1.36,4.7-5.14,2.82a256.38,256.38,0,0,1-44.68-27.82c-25.14-19.68-46.9-42.5-62.63-70.55-10.5-18.69-18.12-38.36-18.56-60.19,4,4,3.47,9.82,5.55,14.65,8.75,20.39,23,34.37,42.64,42.56,2.69,2,10.92,3.9,15.6,4.86h.06a18.86,18.86,0,0,0,2.09.42l.38.06.31.05c2.28.3,4.61.37,6.89.6,6.74.7,13.58.18,20.36.58,4.34.25,9,.84,9.91,6.46.86,5.32-1.9,9.08-6.13,11.7a83,83,0,0,1-9.82,4.86c-5,2.27-7.71,6.89-2.54,12.66,7.69,8.57,16.78,15.64,25.12,23.52,5.19,4.88,10.33,9.84,15.32,15C495.93,544.38,497.4,550.39,496.37,557.24Z" transform="translate(-44.92 -216.86)"/><path class="cls-1" d="M501.65,468.16c-13.11-.12-24.41-11.57-24.26-24.38A24.26,24.26,0,0,1,503,419.49c13,.82,23.55,10.88,23.51,23.75A24.77,24.77,0,0,1,501.65,468.16Z" transform="translate(-44.92 -216.86)"/><path class="cls-1" d="M549.32,236.39a19.53,19.53,0,0,1-39.05.67c0-.22,0-.44,0-.67a19.53,19.53,0,0,1,39.06,0Z" transform="translate(-44.92 -216.86)"/><path class="cls-1" d="M529.79,216.86a19.52,19.52,0,0,0-19.53,19.53c0,.23,0,.45,0,.67a19.53,19.53,0,1,0,19.52-20.2Zm0,35.39a15.87,15.87,0,1,1,15.86-15.86A15.89,15.89,0,0,1,529.79,252.25Z" transform="translate(-44.92 -216.86)"/><path class="cls-1" d="M614.79,442.9h0Z" transform="translate(-44.92 -216.86)"/><path class="cls-1" d="M615.83,441.88a7.47,7.47,0,0,1-1,1h0C615.14,442.57,615.48,442.23,615.83,441.88Z" transform="translate(-44.92 -216.86)"/><path class="cls-1" d="M638.12,394.5h0c-.65,2.08-1.59,7.94-2.14,10.28,0,.08,0,.15-.05.22a86.31,86.31,0,0,1-4.69,14.15l0,0c-9.23,15.11-13.6,20.7-15.39,22.69-.35.35-.69.69-1,1h0a80.86,80.86,0,0,1-22.28,14.84c-4.06,1.86-8.13,4.09-12.93,3.24,18-14.74,24-37,15.31-57-10.55-24.26-40.5-35.37-65.26-24.35-10.47,4.66-19.25,11.26-25.26,21.06-2.37,3.88-3.23,2.41-5.1-.31-14.09-20.61-37.91-29.66-60.63-22.58-16.82,5.24-28.53,16.39-32.15,33.84-3.4,16.36-.58,31.32,10.79,43.3l0,0c.67.51,10.87,8.07,14.69,9.16l-.31-.05-.38-.06-2.09-.42h-.06c-4.68-1-12.91-2.87-15.6-4.86-19.61-8.19-33.89-22.17-42.64-42.56-2.08-4.83-1.54-10.62-5.55-14.65,0-12.85.06-25.52,5-37.89,10.48-26.17,37.82-45.44,66.09-46.16q37.06-1,61.63,26.47c3.13,3.5,4.8,3,7.64-.17,16.76-18.59,37.66-27.29,62.78-26.34,33.5,1.27,63.17,27.56,68.91,60.19h0a67.83,67.83,0,0,1,.85,6.87A79.88,79.88,0,0,1,638.12,394.5Z" transform="translate(-44.92 -216.86)"/><path class="cls-1" d="M432.11,464.15a3.73,3.73,0,0,1-.43-.09l.31.05Z" transform="translate(-44.92 -216.86)"/><path class="cls-1" d="M635.91,604.38v90.86H627V622.69l-31.42,72.55H589L557.62,623v72.29h-9V604.38h9.46l34.1,78.75,34.11-78.75Z" transform="translate(-44.92 -216.86)"/><path class="cls-1" d="M655,639.74a31.16,31.16,0,0,1,11.88-12.91,32.82,32.82,0,0,1,17.18-4.54A30.59,30.59,0,0,1,701.25,627a27.35,27.35,0,0,1,10.41,12.12V623.34h8.94v71.9h-8.94V679.31a28.54,28.54,0,0,1-10.54,12.18,30.21,30.21,0,0,1-17.18,4.81,32.27,32.27,0,0,1-17.05-4.61,31.51,31.51,0,0,1-11.88-13,46.36,46.36,0,0,1,0-38.91Zm53.2,4.28a24.85,24.85,0,0,0-22.48-13.7,25.89,25.89,0,0,0-13.28,3.43,23.85,23.85,0,0,0-9.26,9.94,33.09,33.09,0,0,0-3.39,15.47,33.68,33.68,0,0,0,3.39,15.48,24.12,24.12,0,0,0,9.26,10.13,25.45,25.45,0,0,0,13.28,3.49,24.82,24.82,0,0,0,22.48-13.69,35.54,35.54,0,0,0,0-30.55Z" transform="translate(-44.92 -216.86)"/><path class="cls-1" d="M792.77,630q7.92,8,7.92,23.12v42.13h-8.81V654.16q0-11.73-5.69-17.91t-15.52-6.19q-10.09,0-16.09,6.59t-6,19.35v39.24h-9v-71.9h9v12.25a23.1,23.1,0,0,1,9.58-10.07A28.54,28.54,0,0,1,772.33,622Q784.85,622,792.77,630Z" transform="translate(-44.92 -216.86)"/><path class="cls-1" d="M830.71,631.11v44.64c0,4.39.8,7.42,2.42,9.09s4.47,2.5,8.56,2.5h8.17v7.9h-9.58q-9.45,0-14-4.54t-4.59-15V631.11h-9.71v-7.77h9.71v-18h9.07v18h19.15v7.77Z" transform="translate(-44.92 -216.86)"/><path class="cls-1" d="M881.1,625.71Q887.16,622,896,622v9.61h-2.42q-9.7,0-15.58,5.4t-5.88,18v40.16h-8.94v-71.9h8.94v12.78A22.31,22.31,0,0,1,881.1,625.71Z" transform="translate(-44.92 -216.86)"/><path class="cls-1" d="M908.17,639.74a31.22,31.22,0,0,1,11.88-12.91,32.82,32.82,0,0,1,17.18-4.54A30.56,30.56,0,0,1,954.41,627a27.35,27.35,0,0,1,10.41,12.12V623.34h8.94v71.9h-8.94V679.31a28.59,28.59,0,0,1-10.53,12.18,30.26,30.26,0,0,1-17.19,4.81,32.27,32.27,0,0,1-17.05-4.61,31.57,31.57,0,0,1-11.88-13,46.36,46.36,0,0,1,0-38.91ZM961.38,644a24.88,24.88,0,0,0-22.49-13.7,25.89,25.89,0,0,0-13.28,3.43,23.85,23.85,0,0,0-9.26,9.94A33.09,33.09,0,0,0,913,659.16a33.68,33.68,0,0,0,3.39,15.48,24.12,24.12,0,0,0,9.26,10.13,25.45,25.45,0,0,0,13.28,3.49,24.85,24.85,0,0,0,22.49-13.69,35.63,35.63,0,0,0,0-30.55Z" transform="translate(-44.92 -216.86)"/><path class="cls-1" d="M49.28,722.07v35.66H54.4V722.07Z" transform="translate(-44.92 -216.86)"/><path class="cls-1" d="M99.57,722.07,87.24,752.83,74.92,722.07H69.43l14.82,35.66h5.92L105,722.07Z" transform="translate(-44.92 -216.86)"/><path class="cls-1" d="M142.22,725.83v-3.76H120v35.66h5.12V741.67H139v-3.8H125.14v-12Z" transform="translate(-44.92 -216.86)"/><path class="cls-1" d="M207.41,722.07v15.65h-20V722.07h-5.12v35.66h5.12V741.56h20v16.17h5.12V722.07Z" transform="translate(-44.92 -216.86)"/><path class="cls-1" d="M258.84,742.62a13.29,13.29,0,0,0-1.83-6.87,13.12,13.12,0,0,0-5.23-4.79,16.49,16.49,0,0,0-7.76-1.72,17.3,17.3,0,0,0-8,1.75,12.57,12.57,0,0,0-5.38,5,14.8,14.8,0,0,0-1.94,7.61,14.61,14.61,0,0,0,2,7.68,13.42,13.42,0,0,0,5.45,5.08,16.56,16.56,0,0,0,7.86,1.8,16,16,0,0,0,9.22-2.53,12.06,12.06,0,0,0,5-6.58h-5.52a7.73,7.73,0,0,1-3.14,3.77,10.38,10.38,0,0,1-5.53,1.39,10.62,10.62,0,0,1-6.91-2.31,8.92,8.92,0,0,1-3.15-6.51h24.69A25.36,25.36,0,0,0,258.84,742.62Zm-24.8-1a8.89,8.89,0,0,1,3.1-6.25,10.19,10.19,0,0,1,6.63-2.27,12,12,0,0,1,4.93,1,8,8,0,0,1,3.52,2.93,7.88,7.88,0,0,1,1.31,4.57Z" transform="translate(-44.92 -216.86)"/><path class="cls-1" d="M299.22,729.68v5.12a11.13,11.13,0,0,0-4.46-4,14.68,14.68,0,0,0-7-1.57,15.38,15.38,0,0,0-7.46,1.79,12.52,12.52,0,0,0-5.27,5.05,14.5,14.5,0,0,0-1.93,7.53,14.72,14.72,0,0,0,1.93,7.57,13.28,13.28,0,0,0,5.23,5.2,15.2,15.2,0,0,0,7.43,1.83,14.84,14.84,0,0,0,7-1.61,11.66,11.66,0,0,0,4.54-4.06v5.19h5.16V729.68Zm-1.43,19.53a9.11,9.11,0,0,1-3.8,3.66,11.73,11.73,0,0,1-10.5,0,9.53,9.53,0,0,1-3.77-3.66,10.62,10.62,0,0,1-1.42-5.6,10.43,10.43,0,0,1,1.42-5.52,9.42,9.42,0,0,1,3.77-3.59,11.57,11.57,0,0,1,10.5,0,9,9,0,0,1,3.8,3.59,11.45,11.45,0,0,1,0,11.08Z" transform="translate(-44.92 -216.86)"/><path class="cls-1" d="M322.48,719.84v37.89h5.12V719.84Z" transform="translate(-44.92 -216.86)"/><path class="cls-1" d="M360.05,733.52v-3.84H352v-7.06h-5.12v7.06h-4v3.84h4v16.53c0,2.74.7,4.72,2.12,5.89s3.59,1.79,6.44,1.79h4.61v-3.91h-3.77A5.22,5.22,0,0,1,353,753a3.72,3.72,0,0,1-.95-2.93V733.52Z" transform="translate(-44.92 -216.86)"/><path class="cls-1" d="M401.71,734.61a10.15,10.15,0,0,0-4.42-4.09,14.73,14.73,0,0,0-6.33-1.36,15.25,15.25,0,0,0-6,1.17,10.09,10.09,0,0,0-4.17,3.33V719.84h-5.12v37.89h5.12V742.22c0-2.92.77-5.16,2.38-6.69a9,9,0,0,1,6.44-2.31,8.69,8.69,0,0,1,6.32,2.23,8.48,8.48,0,0,1,2.31,6.41v15.87h5.08V741.2A12.77,12.77,0,0,0,401.71,734.61Z" transform="translate(-44.92 -216.86)"/><path class="cls-1" d="M439.86,752.83a10.27,10.27,0,0,1-5.63,1.43,9.5,9.5,0,0,1-7.09-2.75c-1.8-1.86-2.71-4.46-2.71-7.86s.91-5.93,2.71-7.76a9.49,9.49,0,0,1,7.09-2.74,10.18,10.18,0,0,1,5.67,1.5,7.25,7.25,0,0,1,3.07,4.06h5.53a12.07,12.07,0,0,0-4.87-7,16.68,16.68,0,0,0-9.4-2.48,16.3,16.3,0,0,0-7.79,1.79,12.87,12.87,0,0,0-5.34,5.05,14.53,14.53,0,0,0-1.9,7.57,14.78,14.78,0,0,0,1.9,7.68,13.2,13.2,0,0,0,5.34,5.08,16.31,16.31,0,0,0,7.79,1.8,15.6,15.6,0,0,0,9.29-2.6,12.37,12.37,0,0,0,5-6.88H443A7.31,7.31,0,0,1,439.86,752.83Z" transform="translate(-44.92 -216.86)"/><path class="cls-1" d="M488.92,729.68v5.12a11,11,0,0,0-4.43-4,14.88,14.88,0,0,0-7.06-1.57A15.38,15.38,0,0,0,470,731a12.94,12.94,0,0,0-5.27,5.05,14.48,14.48,0,0,0-1.9,7.53,14.7,14.7,0,0,0,1.9,7.57,13.75,13.75,0,0,0,5.23,5.2,15.4,15.4,0,0,0,7.46,1.83,14.6,14.6,0,0,0,7-1.61,11.52,11.52,0,0,0,4.54-4.06v5.19h5.19V729.68Zm-1.39,19.53a9.38,9.38,0,0,1-3.81,3.66,11.18,11.18,0,0,1-5.26,1.24,11,11,0,0,1-5.24-1.24,9.26,9.26,0,0,1-3.76-3.66,10.62,10.62,0,0,1-1.43-5.6,10.43,10.43,0,0,1,1.43-5.52,9.15,9.15,0,0,1,3.76-3.59,11,11,0,0,1,5.24-1.24,11.21,11.21,0,0,1,5.26,1.28,9.21,9.21,0,0,1,3.81,3.59,11.74,11.74,0,0,1,0,11.08Z" transform="translate(-44.92 -216.86)"/><path class="cls-1" d="M521.18,730.52a9,9,0,0,0-3.84,3.73v-4.57h-5.16v28.05h5.16V742.48c0-5.67,2.85-8.49,8.59-8.49h1.36v-4.83A12.59,12.59,0,0,0,521.18,730.52Z" transform="translate(-44.92 -216.86)"/><path class="cls-1" d="M570.61,745.46H545.94a8.75,8.75,0,0,0,3.13,6.48,10.53,10.53,0,0,0,6.9,2.33,10.15,10.15,0,0,0,5.54-1.41,7.56,7.56,0,0,0,3.13-3.77h5.52a12.11,12.11,0,0,1-5,6.58,16,16,0,0,1-9.23,2.54,16.92,16.92,0,0,1-7.86-1.79,13.44,13.44,0,0,1-5.44-5.1,14.67,14.67,0,0,1-2-7.65,14.88,14.88,0,0,1,1.91-7.63,12.92,12.92,0,0,1,5.38-5,17.33,17.33,0,0,1,8-1.77,16.72,16.72,0,0,1,7.77,1.74,12.8,12.8,0,0,1,5.21,4.79,13.12,13.12,0,0,1,1.83,6.89A25.63,25.63,0,0,1,570.61,745.46Zm-6.42-8.38a8.22,8.22,0,0,0-3.52-2.92,12,12,0,0,0-4.93-1,10.08,10.08,0,0,0-6.62,2.25,8.89,8.89,0,0,0-3.13,6.25h19.5A8.06,8.06,0,0,0,564.19,737.08Z" transform="translate(-44.92 -216.86)"/><path class="cls-1" d="M651.22,722.31v35.44H646.1V731.33l-13,26.42h-3.6l-13-26.48v26.48H611.4V722.31h5.52l14.42,29.29,14.42-29.29Z" transform="translate(-44.92 -216.86)"/><path class="cls-1" d="M669.3,736.06a13.24,13.24,0,0,1,5.27-5,15.57,15.57,0,0,1,7.47-1.8,14.78,14.78,0,0,1,7,1.59,11.24,11.24,0,0,1,4.45,4v-5.11h5.18v28.06h-5.18v-5.22a11.66,11.66,0,0,1-4.54,4.06,14.57,14.57,0,0,1-7,1.62,15.2,15.2,0,0,1-7.44-1.84,13.58,13.58,0,0,1-5.24-5.18,15,15,0,0,1-1.91-7.58A14.66,14.66,0,0,1,669.3,736.06Zm22.82,2.07a9.53,9.53,0,0,0-3.8-3.6,11.71,11.71,0,0,0-10.51,0,9.34,9.34,0,0,0-3.77,3.58,10.6,10.6,0,0,0-1.41,5.53,10.8,10.8,0,0,0,1.41,5.61,9.49,9.49,0,0,0,3.77,3.64,11.11,11.11,0,0,0,5.24,1.25,11.29,11.29,0,0,0,5.27-1.25,9.5,9.5,0,0,0,3.8-3.64,11.61,11.61,0,0,0,0-11.09Z" transform="translate(-44.92 -216.86)"/><path class="cls-1" d="M725.78,730.5a13,13,0,0,1,6.11-1.33V734h-1.35q-8.62,0-8.62,8.5v15.26h-5.13V729.69h5.13v4.55A9.4,9.4,0,0,1,725.78,730.5Z" transform="translate(-44.92 -216.86)"/><path class="cls-1" d="M764.45,757.75l-12.11-12.39v12.39h-5.13v-37.9h5.13v22.28l11.88-12.44h7.16l-14.54,14,14.59,14.08Z" transform="translate(-44.92 -216.86)"/><path class="cls-1" d="M813.63,745.46H789a8.75,8.75,0,0,0,3.13,6.48,10.57,10.57,0,0,0,6.9,2.33,10.16,10.16,0,0,0,5.55-1.41,7.6,7.6,0,0,0,3.12-3.77h5.53a12.11,12.11,0,0,1-5,6.58,16,16,0,0,1-9.24,2.54,16.92,16.92,0,0,1-7.86-1.79,13.35,13.35,0,0,1-5.43-5.1,14.58,14.58,0,0,1-2-7.65,14.78,14.78,0,0,1,1.92-7.63,12.86,12.86,0,0,1,5.38-5,17.26,17.26,0,0,1,8-1.77,16.72,16.72,0,0,1,7.77,1.74,12.82,12.82,0,0,1,5.22,4.79,13.21,13.21,0,0,1,1.82,6.89A25.53,25.53,0,0,1,813.63,745.46Zm-6.43-8.38a8.16,8.16,0,0,0-3.52-2.92,12,12,0,0,0-4.92-1,10,10,0,0,0-6.62,2.25,8.82,8.82,0,0,0-3.13,6.25H808.5A8,8,0,0,0,807.2,737.08Z" transform="translate(-44.92 -216.86)"/><path class="cls-1" d="M836.21,733.53v16.54a3.7,3.7,0,0,0,1,2.89,5.08,5.08,0,0,0,3.32.84h3.78v4h-4.62c-2.85,0-5-.6-6.42-1.79s-2.14-3.16-2.14-5.89V733.53h-4v-3.84h4v-7.07h5.12v7.07h8.06v3.84Z" transform="translate(-44.92 -216.86)"/><path class="cls-1" d="M860,724.21a3,3,0,0,1,0-4.51,3.53,3.53,0,0,1,2.48-.92,3.37,3.37,0,0,1,2.4.92,3.08,3.08,0,0,1,0,4.51,3.41,3.41,0,0,1-2.4.92A3.57,3.57,0,0,1,860,724.21Zm5,5.48v28.06h-5.13V729.69Z" transform="translate(-44.92 -216.86)"/><path class="cls-1" d="M907.3,732.27q3.5,3.11,3.5,8.94v16.54h-5.07V741.87a8.49,8.49,0,0,0-2.31-6.42,8.7,8.7,0,0,0-6.31-2.23,8.91,8.91,0,0,0-6.45,2.3c-1.6,1.54-2.4,3.77-2.4,6.71v15.52h-5.12V729.69h5.12v4a10.08,10.08,0,0,1,4.14-3.33,13.89,13.89,0,0,1,5.78-1.18A13.26,13.26,0,0,1,907.3,732.27Z" transform="translate(-44.92 -216.86)"/><path class="cls-1" d="M948.34,730.81a11.2,11.2,0,0,1,4.48,4v-5.11H958v28.67a13,13,0,0,1-1.8,6.84,12.31,12.31,0,0,1-5.16,4.69,17.17,17.17,0,0,1-7.8,1.69A18.41,18.41,0,0,1,933.1,769a10.13,10.13,0,0,1-4.79-7.11h5.08a7.48,7.48,0,0,0,3.49,4.12,12.29,12.29,0,0,0,6.36,1.56,9.89,9.89,0,0,0,6.9-2.41,8.6,8.6,0,0,0,2.68-6.76v-5.89a11.87,11.87,0,0,1-4.51,4.1,14.29,14.29,0,0,1-7,1.64,15.3,15.3,0,0,1-7.46-1.84,13.39,13.39,0,0,1-5.27-5.18,14.85,14.85,0,0,1-1.92-7.58,14.56,14.56,0,0,1,1.92-7.55,13.11,13.11,0,0,1,5.27-5,15.5,15.5,0,0,1,7.46-1.8A14.79,14.79,0,0,1,948.34,730.81Zm3.07,7.32a9.53,9.53,0,0,0-3.8-3.6,11.71,11.71,0,0,0-10.51,0,9.4,9.4,0,0,0-3.77,3.58,10.6,10.6,0,0,0-1.41,5.53,10.8,10.8,0,0,0,1.41,5.61,9.55,9.55,0,0,0,3.77,3.64,11.11,11.11,0,0,0,5.24,1.25,11.26,11.26,0,0,0,5.27-1.25,9.5,9.5,0,0,0,3.8-3.64,11.61,11.61,0,0,0,0-11.09Z" transform="translate(-44.92 -216.86)"/><path class="cls-1" d="M964.82,695.24v67.7a11.56,11.56,0,0,1-11.56,11.56H44.93v8.64H962.2a11.56,11.56,0,0,0,11.56-11.56h0V695.24Z" transform="translate(-44.92 -216.86)"/></svg>