<?xml version="1.0" encoding="utf-8"?>
<!-- Generator: Adobe Illustrator 22.0.1, SVG Export Plug-In . SVG Version: 6.00 Build 0)  -->
<svg version="1.1" id="Layer_1" xmlns="http://www.w3.org/2000/svg" xmlns:xlink="http://www.w3.org/1999/xlink" x="0px" y="0px"
	 viewBox="0 0 200 200" style="enable-background:new 0 0 200 200;" xml:space="preserve">
<style type="text/css">
	.st0{fill:#102E46;}
	.st1{fill:#4169EA;}
	.st2{font-family:'BigJohn';}
	.st3{font-size:37.5829px;}
</style>
<path class="st0" d="M12.8,177.1h174.4V52.4H12.8V177.1L12.8,177.1z M189.6,181.9H10.4c-1.3,0-2.4-1.1-2.4-2.4V50
	c0-1.3,1.1-2.4,2.4-2.4h179.1c1.3,0,2.4,1.1,2.4,2.4v129.5C192,180.8,190.9,181.9,189.6,181.9L189.6,181.9z"/>
<path class="st0" d="M12.8,47.6h174.4V22.9H12.8V47.6L12.8,47.6z M189.6,52.4H10.4C9.1,52.4,8,51.3,8,50V20.5c0-1.3,1.1-2.4,2.4-2.4
	h179.1c1.3,0,2.4,1.1,2.4,2.4V50C192,51.3,190.9,52.4,189.6,52.4L189.6,52.4z"/>
<path class="st1" d="M26.9,37.6c-1.3,0-2.4-1.1-2.4-2.4s1.1-2.4,2.4-2.4l0,0c1.3,0,2.4,1.1,2.4,2.4S28.2,37.6,26.9,37.6L26.9,37.6z"
	/>
<path class="st1" d="M37.9,37.6L37.9,37.6c-1.4,0-2.5-1.1-2.5-2.4s1.1-2.4,2.4-2.4h0.1c1.3,0,2.4,1.1,2.4,2.4S39.2,37.6,37.9,37.6
	L37.9,37.6z M48.9,37.6L48.9,37.6c-1.4,0-2.5-1.1-2.5-2.4s1.1-2.4,2.4-2.4h0.1c1.3,0,2.4,1.1,2.4,2.4S50.3,37.6,48.9,37.6L48.9,37.6
	z"/>
<path class="st1" d="M59.9,37.6c-1.3,0-2.4-1.1-2.4-2.4s1.1-2.4,2.4-2.4l0,0c1.3,0,2.4,1.1,2.4,2.4S61.2,37.6,59.9,37.6L59.9,37.6z"
	/>
<path class="st1" d="M30.4,119h126.5V70.5H30.4V119L30.4,119z M159.3,123.8H28c-1.3,0-2.4-1.1-2.4-2.4V68.1c0-1.3,1.1-2.4,2.4-2.4
	h131.3c1.3,0,2.4,1.1,2.4,2.4v53.3C161.7,122.7,160.6,123.8,159.3,123.8L159.3,123.8z"/>
<path class="st0" d="M137.7,160.3c-1.2,0-2.2-0.9-2.4-2.1l-2.2-18.4c-0.1-0.8,0.2-1.6,0.8-2.1s1.5-0.7,2.2-0.4l17.7,5.5
	c1.3,0.4,2,1.7,1.6,3s-1.7,2-3,1.6l-14.2-4.4l1.8,14.8c0.2,1.3-0.8,2.5-2.1,2.7C137.9,160.3,137.8,160.3,137.7,160.3L137.7,160.3z"
	/>
<path class="st0" d="M152.5,162.3c-0.7,0-1.4-0.3-1.8-0.9L135,142.6c-0.8-1-0.7-2.5,0.3-3.4c1-0.8,2.5-0.7,3.4,0.3l15.7,18.8
	c0.8,1,0.7,2.5-0.3,3.4C153.6,162.1,153.1,162.3,152.5,162.3L152.5,162.3z"/>
<text transform="matrix(1 0 0 1 49.4512 107.5479)" class="st1 st2 st3">ROI</text>
</svg>
