<?xml version="1.0" encoding="UTF-8"?>
<svg id="Layer_1" data-name="Layer 1" xmlns="http://www.w3.org/2000/svg" xmlns:xlink="http://www.w3.org/1999/xlink" viewBox="0 0 2100.54 1434.41">
  <defs>
    <style>
      .cls-1 {
        fill: #f69b25;
      }

      .cls-2 {
        fill: #b1d2fc;
      }

      .cls-3 {
        fill: #f4ac75;
      }

      .cls-4 {
        fill: #e0e0df;
      }

      .cls-5 {
        fill: #4b8fd0;
      }

      .cls-6 {
        fill: #a9c2ff;
      }

      .cls-7 {
        fill: #85b2ea;
      }

      .cls-8 {
        fill: #3590ff;
      }

      .cls-9 {
        fill: #8bb1e9;
      }

      .cls-10 {
        fill: #c1e1ff;
      }

      .cls-11 {
        fill: #4d97dd;
      }

      .cls-12 {
        fill: #2a4589;
      }

      .cls-13 {
        fill: #fff;
      }

      .cls-14 {
        fill: #c97c47;
      }

      .cls-15 {
        fill: #6b98f6;
      }

      .cls-16 {
        fill: #3882c8;
      }

      .cls-17 {
        fill: none;
      }

      .cls-18 {
        fill: #35488b;
      }

      .cls-19 {
        fill: #f5faff;
      }

      .cls-20 {
        fill: #3d7dda;
      }

      .cls-21 {
        fill: #b64c41;
      }

      .cls-22 {
        fill: #ef8200;
      }

      .cls-23 {
        fill: #d1e0ff;
      }

      .cls-24 {
        fill: #62a5e4;
      }

      .cls-25 {
        fill: #1f3e7a;
      }

      .cls-26, .cls-27 {
        fill: #e8f2fa;
      }

      .cls-26, .cls-28 {
        opacity: .5;
      }

      .cls-29 {
        fill: #f6c0c5;
      }

      .cls-30 {
        opacity: .2;
      }

      .cls-30, .cls-28 {
        isolation: isolate;
      }

      .cls-30, .cls-28, .cls-31 {
        fill: #b2cbfd;
      }

      .cls-32 {
        fill: #2c3a64;
      }

      .cls-33 {
        fill: #000446;
      }

      .cls-34 {
        fill: #f4af8f;
      }

      .cls-35 {
        fill: #e06b6c;
      }

      .cls-36 {
        fill: #d6716b;
      }

      .cls-37 {
        fill: #9fc2ff;
      }

      .cls-38 {
        fill: #e9f2ff;
      }

      .cls-39 {
        fill: #679ada;
      }

      .cls-40 {
        fill: #214d9a;
      }

      .cls-41 {
        fill: #1e3865;
      }

      .cls-42 {
        fill: url(#linear-gradient);
      }

      .cls-43 {
        clip-path: url(#clippath);
      }

      .cls-44 {
        fill: #577bc1;
      }

      .cls-45 {
        fill: #105dc4;
      }

      .cls-46 {
        fill: #7a97f3;
      }

      .cls-47 {
        fill: #c3dcfa;
      }

      .cls-48 {
        fill: #f4b1b1;
      }

      .cls-49 {
        fill: #f4fafd;
      }
    </style>
    <clipPath id="clippath">
      <path class="cls-17" d="M573.64,525.9h1069.9c.5,0,.8.4.8.9v594.4H572.74v-594.5c0-.4.4-.8.9-.8Z"/>
    </clipPath>
    <linearGradient id="linear-gradient" x1="1108.44" y1="34.2" x2="1108.44" y2="-447.9" gradientTransform="translate(0 1048)" gradientUnits="userSpaceOnUse">
      <stop offset="0" stop-color="#8bc1f6"/>
      <stop offset="1" stop-color="#e8f4fb"/>
    </linearGradient>
  </defs>
  <path class="cls-19" d="M1112.44,100.1c106.4,40.2,207.5,126.4,287.2,206.7,165.9,167.2,190.7,202.4,395.3,342.9,119.3,81.9,213.4,151,259.6,243.7,130.1,260-24.9,541-349.8,541H384.04s-155.4,3.5-268.7-135.4C-268.76,827.8,368.54-181.3,1112.44,100.1"/>
  <path class="cls-47" d="M876.24,600.5l10.5-10.6c4.4-4.4,5.3-11.2,2.2-16.6-6-10.4-10.6-21.4-13.8-32.7-1.7-6-7.2-10.1-13.4-10l-14.9.1c-7.7.1-14-6.2-14.1-13.8l-.2-28.5c0-7.7,6.2-14,13.9-14.1l14.9-.1c6.2,0,11.7-4.2,13.3-10.2,3-11.3,7.5-22.4,13.3-32.9,3-5.4,2-12.2-2.5-16.6l-10.6-10.5c-5.5-5.4-5.5-14.3-.1-19.7l20-20.3c5.4-5.5,14.3-5.5,19.7-.1l10.6,10.5c4.4,4.4,11.2,5.3,16.6,2.2,10.4-6,21.4-10.6,32.7-13.8,6-1.7,10.1-7.2,10.1-13.4l-.1-14.9c-.1-7.7,6.2-14,13.9-14l28.5-.2c7.7-.1,14,6.2,14,13.9l.1,14.9c0,6.2,4.2,11.7,10.2,13.3,11.3,3,22.4,7.5,32.9,13.3,5.4,3,12.2,2,16.6-2.4l10.5-10.6c5.4-5.5,14.3-5.5,19.7-.1l20.3,20c5.5,5.4,5.5,14.3.1,19.7l-10.5,10.6c-4.4,4.5-5.3,11.2-2.2,16.7,6,10.4,10.6,21.3,13.8,32.7,1.7,6,7.2,10.1,13.4,10.1l14.9-.1c7.7-.1,14,6.2,14,13.9l.2,28.5c0,7.7-6.2,14-13.9,14.1l-14.6-.3c-6.3.1-11.7,4.2-13.3,10.2-3,11.3-7.5,22.4-13.3,32.9-3,5.4-2,12.3,2.4,16.6l10.6,10.5c5.5,5.4,5.5,14.3.1,19.7l-20,20.3c-5.4,5.4-14.3,5.5-19.7.1l-10.6-10.5c-4.4-4.4-11.2-5.3-16.7-2.2-10.4,6-21.3,10.6-32.7,13.8-6,1.7-10.1,7.2-10,13.4l.1,14.9c0,7.7-6.2,14-13.9,14.1l-28.5.2c-7.7.1-14-6.2-14.1-13.9l-.1-14.9c0-6.2-4.2-11.7-10.2-13.3-11.3-3-22.4-7.5-32.9-13.3-5.4-3-12.2-2-16.6,2.4l-10.5,10.6c-5.4,5.5-14.3,5.5-19.7.1l-20.3-20c-5.4-5.3-5.5-14.1-.1-19.7M969.54,564.9c26.5,18.8,63.1,18.6,89.3-.6,43.4-31.5,43-95.3-.8-126.4-26.5-18.8-63.1-18.6-89.3.6-43.3,31.6-42.9,95.4.8,126.4Z"/>
  <path class="cls-20" d="M578.34,493.8h1061.7c17.3,0,31.6,14.2,31.6,31.6v672.4c0,17.3-14.2,31.6-31.6,31.6H578.34c-17.3,0-31.6-14.2-31.6-31.6v-672.4c-.1-17.4,14.1-31.6,31.6-31.6"/>
  <rect class="cls-33" x="233.94" y="1417.7" width="1660.2" height="2.6"/>
  <g class="cls-43">
    <rect class="cls-42" x="572.74" y="525.9" width="1071.4" height="595.3"/>
  </g>
  <path class="cls-20" d="M1024.14,1218.2c-4.6,98.8-16.6,123.8-100.2,180.1h370.2c-83.5-56.3-95.6-81.3-100.2-180.1l-85-8-84.8,8Z"/>
  <rect class="cls-12" x="1021.24" y="1229.4" width="175.7" height="31.4"/>
  <path class="cls-2" d="M1109.14,1140.1c13.7,0,25,11.1,25,25s-11.1,25-25,25-25-11.1-25-25c.1-13.9,11.3-25,25-25"/>
  <path class="cls-7" d="M1979.24,1045.3c31.5,74.6,20.4,215.4-27.3,273.7-47.6,58.4-173.5,140.3-355.6,63.5-98.7-41.6-141.3-184.3,24.2-229.4,31.3-8.5,62.4-28.1,71.8-46.8,14.8-29.5,58.1-120.4,114.4-142.2,76.4-29.7,141,6.5,172.5,81.2"/>
  <path class="cls-39" d="M1521.94,1314.3c-29.5-57.9-11.6-131.2,98.6-161.2,31.3-8.5,62.4-28.1,71.8-46.8,14.8-29.5,58.1-120.4,114.4-142.2,38.6-15,74.1-13.1,104,2,3.1,5.8,6.1,11.9,8.8,18.3,31.5,74.6,20.4,215.4-27.3,273.7-47.6,58.3-173.5,140.3-355.6,63.5-5-2.3-9.9-4.8-14.7-7.3"/>
  <polygon class="cls-34" points="1606.14 1381.7 1633.94 1328.6 1655.34 1338 1628.74 1388.2 1606.14 1381.7"/>
  <path class="cls-25" d="M1811.54,950.6c7.9,2.6,12.2,11.1,9.6,19s-11.1,12.2-19,9.6c-7.9-2.6-12.2-11.1-9.6-19,2.5-7.9,11.1-12.1,19-9.6"/>
  <path class="cls-29" d="M1759.34,1093.4c-16.4,18.4-36.3,96.1-75.4,81.6,6.8,8,41-89.5,46.6-95.6l28.8,14Z"/>
  <path class="cls-31" d="M1780.24,1059.8c-7.1,10-19.8,35.2-29,43.4l.6-1-30.3-12.2c11.5-27,30.5-70.1,61.2-76,3.4-1.3,8.1,35.3-2.5,45.8"/>
  <path class="cls-8" d="M1757.74,1087c-.5.5-3.3,13.3-4.4,14.2l-9.9-3.2c9.8-14.8,27-47.9,27-47.9l-12.7,36.9Z"/>
  <polygon class="cls-13" points="1756.74 1099.7 1721.74 1087.6 1719.34 1094.4 1754.34 1106.4 1756.74 1099.7"/>
  <polygon class="cls-34" points="1522.84 1326.7 1563.74 1281.6 1583.74 1293.7 1544.34 1336.1 1522.84 1326.7"/>
  <path class="cls-12" d="M1521.34,1323.2s-29,2.2-38.8,3.5c-7.6,1-13.6,6.7-9.3,11.9l66.1,21.5c.1-.1.2-.3.4-.5,2-3,8.2-25.4,1.1-27.2-4.3-.9-11.5-1.2-19.5-9.2"/>
  <path class="cls-44" d="M1500.84,1324.8c-.9.1-1.6.2-2.5.2l1.6,6.4c.2.7.9,1,1.5.9h0c.7-.2,1-.9.9-1.5l-1.5-6ZM1507.44,1324.2c-.9.1-1.6.1-2.5.2l1.6,6.6c.2.7.9,1,1.5.9h0c.7-.2,1-.9.9-1.5l-1.5-6.2ZM1514.14,1323.7c-.8.1-1.6.1-2.5.2l1.7,6.8c.2.7.9,1,1.5.9h0c.7-.2,1-.9.9-1.5l-1.6-6.4Z"/>
  <path class="cls-44" d="M1472.74,1331.3h0l-.8,2.7c-.6,2.1-.1,3,1.3,4.7l66.4,21.6c.1-.1.2-.3.4-.5.4-.6-2.1-3.7-1.2-5.5l-66.1-23Z"/>
  <path class="cls-12" d="M1790.74,1190.8l-40-21.9s-43.8-9.5-83,.1c-14.2,3.5-30.1,14.9-39.8,22.5-36.5,29.1-91,119.7-91,119.7,6.1,10.1,11.4,11.6,19,13.3,11.1-6.4,90.4-80.4,90.6-80.4l131.5-32,12.7-21.3Z"/>
  <path class="cls-33" d="M1790.74,1190.8l-2.6,2.1c-12.4-3.8-69.6-6.2-79.2-6.1-27.2.4-39.5,2.8-62.5,57.3l21.2-5.1,110.3-26.9,12.8-21.3Z"/>
  <path class="cls-12" d="M1840.94,1202c-5.8,80.4-67.7,62.3-132.3,54.6-32.6,59.7-52.6,94.9-68.8,113.7-5.4.7-26.6-1.6-23.1-12.1,14.3-42.6,29.5-107.9,55.6-144,8.3-11.4,17.6-19.7,34.5-21.9,9.1-1.1,83.8-1.5,83.8-1.5l50.3,11.2Z"/>
  <path class="cls-31" d="M1882.74,1043.3c-16,47.6-20.9,80.5-40.5,161.9-31.8-.2-116-19.2-115.3-33.4,14.6-50.9,31.9-106.7,50.3-156.3,34.6-10.4,81.7-1.6,105.5,27.8"/>
  <path class="cls-13" d="M1806.04,1011.3c13-.4,24.1,1.5,36.6,5.6-.6,7.3-7.1,26.4-31.4,20.6-10.5-2.7-14.4-17.7-5.2-26.2"/>
  <path class="cls-8" d="M1786.94,1179.7c27.7-20.1,49.2-44.3,62.6-83.6,0,0,18.4,17.1,18,18.5s-13.8,21.3-13.2,21.5c.5.2-37.7,51-67.4,43.6"/>
  <path class="cls-12" d="M1692.14,1170.9l93.1,22.8-.6,2.2c-.3,1.2-1.5,1.9-2.8,1.6l-88.7-21.7c-1.2-.3-1.9-1.5-1.6-2.8l.6-2.1Z"/>
  <path class="cls-12" d="M1668.64,1103.7l73.3,18c2.9.7,4.1,3.6,3.9,6.6l-3.1,56.2-83.1-20.4,3.3-57c.2-2.5,3.2-4,5.7-3.4"/>
  <path class="cls-37" d="M1666.04,1103.1l73.3,18c2.9.7,4.1,3.6,3.9,6.6l-2.9,52h.1l-.3,3.8c-.2,2.1-2.6,3.2-4.6,2.8l-75.9-18.6c-2-.5-3-2.5-2.8-4.6l.3-3.1,3-53.5c.5-2.5,3.4-4,5.9-3.4"/>
  <path class="cls-49" d="M1697.84,1140.5c1.8,0,3.3,1.8,3.3,4s-1.5,3.9-3.3,3.9-3.3-1.8-3.3-4c-.1-2.1,1.4-3.9,3.3-3.9"/>
  <path class="cls-29" d="M1875.84,1129.4c-11.1,40.6-70,71.8-107.6,64.9-8.7-2.1-17-4.3-24.7-6.7,8.2-12.5,16.6-12.4,29.8-7.1,17.7-.7,60.9-27.7,74.8-59.2l27.7,8.1Z"/>
  <path class="cls-31" d="M1878.24,1038.4c15.5,11.7,14.9,68.5-.4,97.3l-36.3-9.1c6.6-24.1,16.2-70.3,23.1-85.7.9-1.9,11.6-4,13.6-2.5"/>
  <path class="cls-48" d="M1807.34,1006.9l-.2,9.1c-4.2,6.9-3.2,13.8,6.5,16.4,27.2,3.6,24-15.8,23.9-16.7l.1-14.5c1.7.1,10.6-6.6,12.3-9.9,20.4-39.1-35-67.2-51.6-30.4-6.8,14.9-6.7,36.8,9,46"/>
  <path class="cls-35" d="M1828.54,1003.6c-3.5,7.3-12.9,14-21.2,10.3l.2-7.1c4.7,1.3,11.5,2.1,21-3.2"/>
  <path class="cls-25" d="M1833.54,989.1c-1,2.8-.2,5.2,4.2,2.9,3.2-1.7,7.3.3,5.3,4.2-1.7,3.2-6.9,5.3-4.8,5.1,11.6-1.4,28.3-28.4,16.3-40.4-.6-30.1-40.3-32.3-56.6-15.8-5.7,5.7-6.5,17.5,2.7,22.2,6,3,13.3,2.8,18.1,2.8,12.5-.2,19.5,6,14.8,19"/>
  <polygon class="cls-13" points="1879.04 1134.3 1841.94 1122.4 1839.64 1129.7 1876.74 1141.4 1879.04 1134.3"/>
  <path class="cls-12" d="M1605.34,1379.9c-9.4,7.7-22.1,13.5-18.8,24.8l34.7,14.3c.1-.1.3-.3.4-.5.9-1,2.7-.9,3.3-5.5,1.2-8.7.3-23.2-1.5-24.6-3.4-2.8-10.5-1.7-18.1-8.5"/>
  <path class="cls-44" d="M1586.84,1397.1h0c-1.1,2.6-1.9,5.1-.1,7.6l34.7,14.3c2.2-.3,3-.9,3.7-5.9l-38.3-16Z"/>
  <path class="cls-44" d="M1606.74,1386.4l11.3,4.7c.6.2.9.9.6,1.4h0c-.2.6-.9.9-1.4.6l-11.3-4.7c-.6-.2-.9-.9-.6-1.4h0c.1-.5.8-.8,1.4-.6"/>
  <path class="cls-44" d="M1605.04,1390.6l11.3,4.7c.6.2.9.9.6,1.4h0c-.2.6-.9.9-1.4.6l-11.3-4.7c-.6-.2-.9-.9-.6-1.4h0c.1-.6.7-.8,1.4-.6"/>
  <path class="cls-44" d="M1603.34,1394.3l11.3,4.7c.6.2.9.9.6,1.4h0c-.2.6-.9.9-1.4.6l-11.3-4.7c-.6-.2-.9-.9-.6-1.4h0c.2-.6.9-.9,1.4-.6"/>
  <g>
    <path class="cls-6" d="M1646.44,541.17v567.48c0,9.93-9.07,17.98-20.26,17.98H589.64c-11.19,0-20.26-8.05-20.26-17.98v-567.48c0-9.94,9.07-17.98,20.26-17.98h1036.54c11.19,0,20.26,8.04,20.26,17.98Z"/>
    <g>
      <polygon class="cls-40" points="990.56 618.11 989.79 617.78 1075.13 491.42 1075.9 491.75 990.56 618.11"/>
      <polygon class="cls-40" points="1387.83 573.61 1291.85 491.82 1292.49 491.35 1388.47 573.14 1387.83 573.61"/>
      <g>
        <path class="cls-27" d="M1447.8,597.25c1.42,8.19-1.42,16.09-7.16,22.22-5.74,6.13-14.36,10.47-24.49,11.57l-429.12,46.57c-21.9,2.38-42.15-9.08-45-25.47-1.43-8.19,1.75-16.13,8.04-22.31,6.27-6.18,15.65-10.61,26.6-11.8l429.12-46.57c20.26-2.2,39.16,9.41,42.01,25.79Z"/>
        <path class="cls-20" d="M1447.8,597.25c1.42,8.19-1.42,16.09-7.16,22.22-5.74,6.13-14.36,10.47-24.49,11.57l-77.65,8.43-10.36-59.58,77.65-8.43c20.26-2.2,39.16,9.41,42.01,25.79Z"/>
        <g>
          <path class="cls-13" d="M1400.54,613.42c-.95.1-1.93.15-2.91.14-5.18-.05-10.03-1.69-13.65-4.61-7.48-6.04-7.33-15.77.32-21.67h0c7.65-5.91,19.96-5.79,27.44.25,7.48,6.04,7.33,15.77-.32,21.67-3,2.32-6.79,3.78-10.88,4.22ZM1386.53,589.08c-6.39,4.93-6.51,13.05-.27,18.1,3.03,2.45,7.08,3.81,11.4,3.85,4.32.04,8.42-1.25,11.51-3.64,6.39-4.93,6.51-13.05.27-18.1-6.25-5.05-16.53-5.14-22.92-.21h0Z"/>
          <polygon class="cls-13" points="1367.3 623.58 1365.07 621.78 1384 607.16 1386.24 608.97 1367.3 623.58"/>
          <path class="cls-13" d="M1359.6,627.76h0c-1.1-.89-1.08-2.32.05-3.19l11.15-8.61c1.13-.87,2.93-.85,4.03.04h0c1.1.89,1.08,2.32-.05,3.19l-11.15,8.61c-1.13.87-2.93.85-4.03-.04Z"/>
        </g>
      </g>
    </g>
    <g>
      <path class="cls-20" d="M637.38,914.51h89.95c1.78,0,3.23,1.45,3.23,3.23h0c0,1.78-1.45,3.23-3.23,3.23h-89.95c-1.78,0-3.23-1.45-3.23-3.23h0c0-1.78,1.45-3.23,3.23-3.23Z"/>
      <g>
        <path class="cls-15" d="M681.18,943.19h-44.24c-1.54,0-2.79-.99-2.79-2.2h0c0-1.22,1.25-2.2,2.79-2.2h44.24c1.54,0,2.79.99,2.79,2.2h0c0,1.22-1.25,2.2-2.79,2.2Z"/>
        <g>
          <path class="cls-15" d="M636.35,929.53h79.09c1.22,0,2.2.99,2.2,2.2h0c0,1.22-.99,2.2-2.2,2.2h-79.09c-1.22,0-2.2-.99-2.2-2.2h0c0-1.22.99-2.2,2.2-2.2Z"/>
          <path class="cls-15" d="M727.46,929.53h73.56c1.22,0,2.2.99,2.2,2.2h0c0,1.22-.99,2.2-2.2,2.2h-73.56c-1.22,0-2.2-.99-2.2-2.2h0c0-1.22.99-2.2,2.2-2.2Z"/>
          <path class="cls-15" d="M736.35,943.19h-44.24c-1.54,0-2.79-.99-2.79-2.2h0c0-1.22,1.25-2.2,2.79-2.2h44.24c1.54,0,2.79.99,2.79,2.2h0c0,1.22-1.25,2.2-2.79,2.2Z"/>
        </g>
      </g>
      <path class="cls-20" d="M746.55,914.51h89.95c1.78,0,3.23,1.45,3.23,3.23h0c0,1.78-1.45,3.23-3.23,3.23h-89.95c-1.78,0-3.23-1.45-3.23-3.23h0c0-1.78,1.45-3.23,3.23-3.23Z"/>
    </g>
    <g>
      <path class="cls-20" d="M637.38,963.16h89.95c1.78,0,3.23,1.45,3.23,3.23h0c0,1.78-1.45,3.23-3.23,3.23h-89.95c-1.78,0-3.23-1.45-3.23-3.23h0c0-1.78,1.45-3.23,3.23-3.23Z"/>
      <g>
        <path class="cls-15" d="M681.18,991.84h-44.24c-1.54,0-2.79-.99-2.79-2.2h0c0-1.22,1.25-2.2,2.79-2.2h44.24c1.54,0,2.79.99,2.79,2.2h0c0,1.22-1.25,2.2-2.79,2.2Z"/>
        <g>
          <path class="cls-15" d="M636.35,978.18h79.09c1.22,0,2.2.99,2.2,2.2h0c0,1.22-.99,2.2-2.2,2.2h-79.09c-1.22,0-2.2-.99-2.2-2.2h0c0-1.22.99-2.2,2.2-2.2Z"/>
          <path class="cls-15" d="M727.46,978.18h73.56c1.22,0,2.2.99,2.2,2.2h0c0,1.22-.99,2.21-2.2,2.21h-73.56c-1.22,0-2.2-.99-2.2-2.2h0c0-1.22.99-2.2,2.2-2.2Z"/>
          <path class="cls-15" d="M736.35,991.84h-44.24c-1.54,0-2.79-.99-2.79-2.2h0c0-1.22,1.25-2.2,2.79-2.2h44.24c1.54,0,2.79.99,2.79,2.2h0c0,1.22-1.25,2.2-2.79,2.2Z"/>
        </g>
      </g>
      <path class="cls-20" d="M746.55,963.16h89.95c1.78,0,3.23,1.45,3.23,3.23h0c0,1.78-1.45,3.23-3.23,3.23h-89.95c-1.78,0-3.23-1.45-3.23-3.23h0c0-1.78,1.45-3.23,3.23-3.23Z"/>
    </g>
    <g>
      <polygon class="cls-41" points="1193.18 673.95 1141.98 683.36 1116.66 719.75 1097.33 636.82 1193.18 673.95"/>
      <polygon class="cls-41" points="1171.89 709.46 1164.43 713.93 1131.72 679.83 1139.18 675.37 1171.89 709.46"/>
    </g>
    <g>
      <rect class="cls-23" x="1024.53" y="731.35" width="144.36" height="114.03" rx="11.56" ry="11.56"/>
      <g>
        <path class="cls-15" d="M1042.97,821.53l28.05-39.95c3.27-4.65,11.53-5.06,15.51-.77l16.18,17.43c3.44,3.71,10.32,4,14.25.61h0c4.08-3.52,11.27-3.05,14.55.96l17.46,21.29c3.98,4.85-.43,11.25-7.74,11.25h-90.19c-7.03,0-11.48-5.97-8.07-10.82Z"/>
        <path class="cls-15" d="M1098.33,762.91c0-4.81,4.94-8.72,11.03-8.72s11.03,3.9,11.03,8.72-4.94,8.72-11.03,8.72-11.03-3.9-11.03-8.72Z"/>
      </g>
    </g>
    <g>
      <path class="cls-23" d="M1344.34,848.45l-124.75,13.44c-5.05.54-9.7-2.25-10.39-6.24l-17.02-98.54c-.69-3.99,2.85-7.66,7.89-8.21l124.75-13.44c5.05-.54,9.7,2.25,10.39,6.24l17.02,98.54c.69,3.99-2.85,7.66-7.9,8.21Z"/>
      <g>
        <path class="cls-15" d="M1224.64,837.28l20.96-42.57c2.44-4.96,10.56-6.25,15.24-2.42l19.01,15.54c4.05,3.31,10.91,2.86,14.22-.92h0c3.44-3.92,10.64-4.22,14.58-.6l20.94,19.23c4.77,4.38,1.5,11.19-5.75,11.97l-89.36,9.63c-6.97.75-12.39-4.69-9.85-9.86Z"/>
        <path class="cls-15" d="M1269.46,773.29c-.82-4.77,3.4-9.16,9.44-9.81,6.04-.65,11.6,2.69,12.42,7.46.82,4.77-3.4,9.16-9.44,9.81-6.04.65-11.6-2.69-12.42-7.46Z"/>
      </g>
    </g>
    <path class="cls-15" d="M946.05,849.86h-7.92c-.72,0-1.3-.46-1.3-1.03s.58-1.03,1.3-1.03h7.86c.72,0,1.33.46,1.33,1.03s-.56,1.03-1.27,1.03ZM930.27,849.86h-7.86c-.72,0-1.3-.46-1.3-1.03s.58-1.03,1.3-1.03h7.86c.72,0,1.3.46,1.3,1.03s-.58,1.03-1.3,1.03ZM914.54,849.86h-7.86c-.72,0-1.3-.46-1.3-1.03s.58-1.03,1.3-1.03h7.86c.72,0,1.3.46,1.3,1.03s-.58,1.03-1.3,1.03ZM898.82,849.86h-7.86c-.72,0-1.3-.46-1.3-1.03s.58-1.03,1.3-1.03h7.86c.72,0,1.3.46,1.3,1.03s-.58,1.03-1.3,1.03ZM883.09,849.86h-7.86c-.72,0-1.3-.46-1.3-1.03s.58-1.03,1.3-1.03h7.86c.72,0,1.3.46,1.3,1.03s-.58,1.03-1.3,1.03ZM867.36,849.86h-7.86c-.72,0-1.3-.46-1.3-1.03s.58-1.03,1.3-1.03h7.86c.72,0,1.3.46,1.3,1.03s-.58,1.03-1.3,1.03ZM851.64,849.86h-7.86c-.72,0-1.3-.46-1.3-1.03s.58-1.03,1.3-1.03h7.86c.72,0,1.3.46,1.3,1.03s-.58,1.03-1.3,1.03ZM835.91,849.86h-7.86c-.72,0-1.3-.46-1.3-1.03s.58-1.03,1.3-1.03h7.86c.72,0,1.3.46,1.3,1.03s-.58,1.03-1.3,1.03ZM820.19,849.86h-7.86c-.72,0-1.3-.46-1.3-1.03s.58-1.03,1.3-1.03h7.86c.72,0,1.3.46,1.3,1.03s-.58,1.03-1.3,1.03ZM804.46,849.86h-7.86c-.72,0-1.3-.46-1.3-1.03s.58-1.03,1.3-1.03h7.86c.72,0,1.3.46,1.3,1.03s-.58,1.03-1.3,1.03ZM788.74,849.86h-7.86c-.72,0-1.3-.46-1.3-1.03s.58-1.03,1.3-1.03h7.86c.72,0,1.3.46,1.3,1.03s-.58,1.03-1.3,1.03ZM773.01,849.86h-7.86c-.72,0-1.3-.46-1.3-1.03s.58-1.03,1.3-1.03h7.86c.72,0,1.3.46,1.3,1.03s-.58,1.03-1.3,1.03ZM757.28,849.86h-7.86c-.72,0-1.3-.46-1.3-1.03s.58-1.03,1.3-1.03h7.86c.72,0,1.3.46,1.3,1.03s-.58,1.03-1.3,1.03ZM741.56,849.86h-7.86c-.72,0-1.3-.46-1.3-1.03s.58-1.03,1.3-1.03h7.86c.72,0,1.3.46,1.3,1.03s-.58,1.03-1.3,1.03ZM725.83,849.86h-7.86c-.72,0-1.3-.46-1.3-1.03s.58-1.03,1.3-1.03h7.86c.72,0,1.3.46,1.3,1.03s-.58,1.03-1.3,1.03ZM710.11,849.86h-7.86c-.72,0-1.3-.46-1.3-1.03s.58-1.03,1.3-1.03h7.86c.72,0,1.3.46,1.3,1.03s-.58,1.03-1.3,1.03ZM694.38,849.86h-7.86c-.72,0-1.3-.46-1.3-1.03s.58-1.03,1.3-1.03h7.86c.72,0,1.3.46,1.3,1.03s-.58,1.03-1.3,1.03ZM678.66,849.86h-7.01c-.31,0-.63,0-.94-.02-.72-.04-1.26-.52-1.22-1.09.05-.57.66-1.01,1.38-.96.25.01.51.02.77.02h7.01c.72,0,1.3.46,1.3,1.03s-.58,1.03-1.3,1.03ZM953.45,848.05c-.42,0-.83-.16-1.08-.45-.4-.47-.25-1.11.34-1.43,1.98-1.06,3.5-2.55,4.39-4.3.27-.53,1.03-.78,1.69-.57.67.21.99.81.72,1.34-1.09,2.13-2.93,3.93-5.34,5.23-.22.12-.48.18-.73.18ZM663.54,847.68c-.28,0-.56-.07-.79-.21-2.31-1.41-4.02-3.3-4.94-5.47-.23-.54.14-1.12.82-1.3.68-.18,1.42.11,1.65.65.76,1.78,2.16,3.34,4.06,4.5.57.35.68.99.24,1.44-.26.26-.64.4-1.03.4ZM959.27,837.18c-.72,0-1.3-.46-1.3-1.03v-6.21c0-.57.58-1.03,1.3-1.03s1.3.46,1.3,1.03v6.21c0,.57-.58,1.03-1.3,1.03ZM658.37,836.55c-.72,0-1.3-.46-1.3-1.03v-6.21c0-.57.58-1.03,1.3-1.03s1.3.46,1.3,1.03v6.21c0,.57-.58,1.03-1.3,1.03ZM959.27,824.76c-.72,0-1.3-.46-1.3-1.03v-6.21c0-.57.58-1.03,1.3-1.03s1.3.46,1.3,1.03v6.21c0,.57-.58,1.03-1.3,1.03ZM658.37,824.12c-.72,0-1.3-.46-1.3-1.03v-6.21c0-.57.58-1.03,1.3-1.03s1.3.46,1.3,1.03v6.21c0,.57-.58,1.03-1.3,1.03ZM959.27,812.34c-.72,0-1.3-.46-1.3-1.03v-6.21c0-.57.58-1.03,1.3-1.03s1.3.46,1.3,1.03v6.21c0,.57-.58,1.03-1.3,1.03ZM658.37,811.7c-.72,0-1.3-.46-1.3-1.03v-6.21c0-.57.58-1.03,1.3-1.03s1.3.46,1.3,1.03v6.21c0,.57-.58,1.03-1.3,1.03ZM959.27,799.91c-.72,0-1.3-.46-1.3-1.03v-6.21c0-.57.58-1.03,1.3-1.03s1.3.46,1.3,1.03v6.21c0,.57-.58,1.03-1.3,1.03ZM658.37,799.28c-.72,0-1.3-.46-1.3-1.03v-6.21c0-.57.58-1.03,1.3-1.03s1.3.46,1.3,1.03v6.21c0,.57-.58,1.03-1.3,1.03ZM959.27,787.49c-.72,0-1.3-.46-1.3-1.03v-6.21c0-.57.58-1.03,1.3-1.03s1.3.46,1.3,1.03v6.21c0,.57-.58,1.03-1.3,1.03ZM658.37,786.86c-.72,0-1.3-.46-1.3-1.03v-6.21c0-.57.58-1.03,1.3-1.03s1.3.46,1.3,1.03v6.21c0,.57-.58,1.03-1.3,1.03ZM959.27,775.07c-.72,0-1.3-.46-1.3-1.03v-6.21c0-.57.58-1.03,1.3-1.03s1.3.46,1.3,1.03v6.21c0,.57-.58,1.03-1.3,1.03ZM658.37,774.44c-.72,0-1.3-.46-1.3-1.03v-6.21c0-.57.58-1.03,1.3-1.03s1.3.46,1.3,1.03v6.21c0,.57-.58,1.03-1.3,1.03ZM959.27,762.65c-.72,0-1.3-.46-1.3-1.03v-6.21c0-.57.58-1.03,1.3-1.03s1.3.46,1.3,1.03v6.21c0,.57-.58,1.03-1.3,1.03ZM658.37,762.02c-.72,0-1.3-.46-1.3-1.03v-6.21c0-.57.58-1.03,1.3-1.03s1.3.46,1.3,1.03v6.21c0,.57-.58,1.03-1.3,1.03ZM959.27,750.23c-.72,0-1.3-.46-1.3-1.03v-6.21c0-.57.58-1.03,1.3-1.03s1.3.46,1.3,1.03v6.21c0,.57-.58,1.03-1.3,1.03ZM658.37,749.6c-.72,0-1.3-.46-1.3-1.03v-6.21c0-.57.58-1.03,1.3-1.03s1.3.46,1.3,1.03v6.21c0,.57-.58,1.03-1.3,1.03ZM959.27,737.81c-.72,0-1.3-.46-1.3-1.03v-6.21c0-.57.58-1.03,1.3-1.03s1.3.46,1.3,1.03v6.21c0,.57-.58,1.03-1.3,1.03ZM658.37,737.17c-.72,0-1.3-.46-1.3-1.03v-6.21c0-.57.58-1.03,1.3-1.03s1.3.46,1.3,1.03v6.21c0,.57-.58,1.03-1.3,1.03ZM959.27,725.38c-.72,0-1.3-.46-1.3-1.03v-2.8c0-1.03-.21-2.05-.62-3.02-.23-.54.14-1.12.82-1.3.68-.18,1.42.11,1.65.65.5,1.18.76,2.42.76,3.68v2.8c0,.57-.58,1.03-1.3,1.03ZM658.37,724.75c-.72,0-1.3-.46-1.3-1.03v-2.17c0-1.49.36-2.95,1.06-4.33.27-.53,1.03-.78,1.7-.57.67.21.99.81.72,1.34-.58,1.13-.87,2.32-.87,3.55v2.17c0,.57-.58,1.03-1.3,1.03ZM954.07,714.26c-.28,0-.56-.07-.79-.21-1.9-1.15-4.16-1.82-6.54-1.93-.72-.03-1.26-.52-1.22-1.09.04-.57.67-1.01,1.38-.96,2.9.14,5.66.95,7.97,2.35.57.35.68.99.24,1.44-.26.26-.64.4-1.03.4ZM664.22,713.89c-.42,0-.83-.16-1.08-.45-.4-.47-.25-1.11.35-1.43,2.41-1.29,5.22-1.97,8.13-1.97h0c.72,0,1.3.46,1.3,1.03,0,.57-.58,1.03-1.3,1.03-2.39,0-4.7.56-6.68,1.62-.22.12-.48.18-.73.18ZM938.96,712.09h-7.86c-.72,0-1.3-.46-1.3-1.03s.58-1.03,1.3-1.03h7.86c.72,0,1.3.46,1.3,1.03s-.58,1.03-1.3,1.03ZM923.23,712.09h-7.86c-.72,0-1.3-.46-1.3-1.03s.58-1.03,1.3-1.03h7.86c.72,0,1.3.46,1.3,1.03s-.58,1.03-1.3,1.03ZM907.51,712.09h-7.86c-.72,0-1.3-.46-1.3-1.03s.58-1.03,1.3-1.03h7.86c.72,0,1.3.46,1.3,1.03s-.58,1.03-1.3,1.03ZM891.78,712.09h-7.86c-.72,0-1.3-.46-1.3-1.03s.58-1.03,1.3-1.03h7.86c.72,0,1.3.46,1.3,1.03s-.58,1.03-1.3,1.03ZM876.05,712.09h-7.86c-.72,0-1.3-.46-1.3-1.03s.58-1.03,1.3-1.03h7.86c.72,0,1.3.46,1.3,1.03s-.58,1.03-1.3,1.03ZM860.33,712.09h-7.86c-.72,0-1.3-.46-1.3-1.03s.58-1.03,1.3-1.03h7.86c.72,0,1.3.46,1.3,1.03s-.58,1.03-1.3,1.03ZM844.6,712.09h-7.86c-.72,0-1.3-.46-1.3-1.03s.58-1.03,1.3-1.03h7.86c.72,0,1.3.46,1.3,1.03s-.58,1.03-1.3,1.03ZM828.88,712.09h-7.86c-.72,0-1.3-.46-1.3-1.03s.58-1.03,1.3-1.03h7.86c.72,0,1.3.46,1.3,1.03s-.58,1.03-1.3,1.03ZM813.15,712.09h-7.86c-.72,0-1.3-.46-1.3-1.03s.58-1.03,1.3-1.03h7.86c.72,0,1.3.46,1.3,1.03s-.58,1.03-1.3,1.03ZM797.43,712.09h-7.86c-.72,0-1.3-.46-1.3-1.03s.58-1.03,1.3-1.03h7.86c.72,0,1.3.46,1.3,1.03s-.58,1.03-1.3,1.03ZM781.7,712.09h-7.86c-.72,0-1.3-.46-1.3-1.03s.58-1.03,1.3-1.03h7.86c.72,0,1.3.46,1.3,1.03s-.58,1.03-1.3,1.03ZM765.97,712.09h-7.86c-.72,0-1.3-.46-1.3-1.03s.58-1.03,1.3-1.03h7.86c.72,0,1.3.46,1.3,1.03s-.58,1.03-1.3,1.03ZM750.25,712.09h-7.86c-.72,0-1.3-.46-1.3-1.03s.58-1.03,1.3-1.03h7.86c.72,0,1.3.46,1.3,1.03s-.58,1.03-1.3,1.03ZM734.52,712.09h-7.86c-.72,0-1.3-.46-1.3-1.03s.58-1.03,1.3-1.03h7.86c.72,0,1.3.46,1.3,1.03s-.58,1.03-1.3,1.03ZM718.8,712.09h-7.86c-.72,0-1.3-.46-1.3-1.03s.58-1.03,1.3-1.03h7.86c.72,0,1.3.46,1.3,1.03s-.58,1.03-1.3,1.03ZM703.07,712.09h-7.86c-.72,0-1.3-.46-1.3-1.03s.58-1.03,1.3-1.03h7.86c.72,0,1.3.46,1.3,1.03s-.58,1.03-1.3,1.03ZM687.35,712.09h-7.86c-.72,0-1.3-.46-1.3-1.03s.58-1.03,1.3-1.03h7.86c.72,0,1.3.46,1.3,1.03s-.58,1.03-1.3,1.03Z"/>
    <path class="cls-15" d="M1393.01,1022.23h-7.02c-.64,0-1.15-.41-1.15-.91s.52-.91,1.15-.91h6.97c.64,0,1.18.41,1.18.91s-.49.91-1.13.91ZM1379.03,1022.23h-6.97c-.64,0-1.15-.41-1.15-.91s.52-.91,1.15-.91h6.97c.64,0,1.15.41,1.15.91s-.52.91-1.15.91ZM1365.1,1022.23h-6.97c-.64,0-1.15-.41-1.15-.91s.52-.91,1.15-.91h6.97c.64,0,1.15.41,1.15.91s-.52.91-1.15.91ZM1351.17,1022.23h-6.97c-.64,0-1.15-.41-1.15-.91s.52-.91,1.15-.91h6.97c.64,0,1.15.41,1.15.91s-.52.91-1.15.91ZM1337.24,1022.23h-6.97c-.64,0-1.15-.41-1.15-.91s.52-.91,1.15-.91h6.97c.64,0,1.15.41,1.15.91s-.52.91-1.15.91ZM1323.31,1022.23h-6.97c-.64,0-1.15-.41-1.15-.91s.52-.91,1.15-.91h6.97c.64,0,1.15.41,1.15.91s-.52.91-1.15.91ZM1309.38,1022.23h-6.97c-.64,0-1.15-.41-1.15-.91s.52-.91,1.15-.91h6.97c.64,0,1.15.41,1.15.91s-.52.91-1.15.91ZM1295.45,1022.23h-6.97c-.64,0-1.15-.41-1.15-.91s.52-.91,1.15-.91h6.97c.64,0,1.15.41,1.15.91s-.52.91-1.15.91ZM1281.52,1022.23h-6.97c-.64,0-1.15-.41-1.15-.91s.52-.91,1.15-.91h6.97c.64,0,1.15.41,1.15.91s-.52.91-1.15.91ZM1267.58,1022.23h-6.73c-.1,0-.2,0-.3,0-.64-.03-1.13-.45-1.1-.95.03-.5.55-.88,1.21-.87.06,0,.12,0,.18,0h6.73c.64,0,1.15.41,1.15.91s-.52.91-1.15.91ZM1397.52,1018.74h-.04c-.64-.02-1.14-.44-1.12-.94v-.09s0-5.39,0-5.39c0-.5.52-.91,1.15-.91s1.15.41,1.15.91v5.53c-.02.49-.53.88-1.15.88ZM1256.3,1018.59c-.64,0-1.15-.41-1.15-.91v-5.5c0-.5.52-.91,1.15-.91s1.15.41,1.15.91v5.5c0,.5-.52.91-1.15.91ZM1397.52,1007.74c-.64,0-1.15-.41-1.15-.91v-5.5c0-.5.52-.91,1.15-.91s1.15.41,1.15.91v5.5c0,.5-.52.91-1.15.91ZM1256.3,1007.59c-.64,0-1.15-.41-1.15-.91v-5.5c0-.5.52-.91,1.15-.91s1.15.41,1.15.91v5.5c0,.5-.52.91-1.15.91ZM1397.52,996.73c-.64,0-1.15-.41-1.15-.91v-5.5c0-.5.52-.91,1.15-.91s1.15.41,1.15.91v5.5c0,.5-.52.91-1.15.91ZM1256.3,996.59c-.64,0-1.15-.41-1.15-.91v-5.37c0-.06,0-.12,0-.17.03-.5.54-.9,1.2-.87.64.02,1.13.44,1.11.95v.1s0,5.37,0,5.37c0,.5-.52.91-1.15.91ZM1393.18,987.62s-.03,0-.05,0h-.16s-6.75,0-6.75,0c-.64,0-1.15-.41-1.15-.91s.52-.91,1.15-.91h6.75c.09,0,.18,0,.26,0,.64.02,1.13.45,1.1.95-.03.49-.54.87-1.15.87ZM1379.24,987.62h-6.97c-.64,0-1.15-.41-1.15-.91s.52-.91,1.15-.91h6.97c.64,0,1.15.41,1.15.91s-.52.91-1.15.91ZM1365.31,987.62h-6.97c-.64,0-1.15-.41-1.15-.91s.52-.91,1.15-.91h6.97c.64,0,1.15.41,1.15.91s-.52.91-1.15.91ZM1351.38,987.62h-6.97c-.64,0-1.15-.41-1.15-.91s.52-.91,1.15-.91h6.97c.64,0,1.15.41,1.15.91s-.52.91-1.15.91ZM1337.45,987.62h-6.97c-.64,0-1.15-.41-1.15-.91s.52-.91,1.15-.91h6.97c.64,0,1.15.41,1.15.91s-.52.91-1.15.91ZM1323.52,987.62h-6.97c-.64,0-1.15-.41-1.15-.91s.52-.91,1.15-.91h6.97c.64,0,1.15.41,1.15.91s-.52.91-1.15.91ZM1309.59,987.62h-6.97c-.64,0-1.15-.41-1.15-.91s.52-.91,1.15-.91h6.97c.64,0,1.15.41,1.15.91s-.52.91-1.15.91ZM1295.66,987.62h-6.97c-.64,0-1.15-.41-1.15-.91s.52-.91,1.15-.91h6.97c.64,0,1.15.41,1.15.91s-.52.91-1.15.91ZM1281.73,987.62h-6.97c-.64,0-1.15-.41-1.15-.91s.52-.91,1.15-.91h6.97c.64,0,1.15.41,1.15.91s-.52.91-1.15.91ZM1267.8,987.62h-6.94c-.64,0-1.17-.41-1.17-.91s.5-.91,1.14-.91h6.97c.64,0,1.15.41,1.15.91s-.52.91-1.15.91Z"/>
    <path class="cls-15" d="M895.49,693.88h-7.76c-.72,0-1.3-.46-1.3-1.03s.58-1.03,1.3-1.03h7.71c.72,0,1.33.46,1.33,1.03s-.56,1.03-1.28,1.03ZM880.03,693.88h-7.71c-.72,0-1.3-.46-1.3-1.03s.58-1.03,1.3-1.03h7.71c.72,0,1.3.46,1.3,1.03s-.58,1.03-1.3,1.03ZM864.61,693.88h-7.71c-.72,0-1.3-.46-1.3-1.03s.58-1.03,1.3-1.03h7.71c.72,0,1.3.46,1.3,1.03s-.58,1.03-1.3,1.03ZM849.2,693.88h-7.71c-.72,0-1.3-.46-1.3-1.03s.58-1.03,1.3-1.03h7.71c.72,0,1.3.46,1.3,1.03s-.58,1.03-1.3,1.03ZM833.78,693.88h-7.71c-.72,0-1.3-.46-1.3-1.03s.58-1.03,1.3-1.03h7.71c.72,0,1.3.46,1.3,1.03s-.58,1.03-1.3,1.03ZM818.36,693.88h-7.71c-.72,0-1.3-.46-1.3-1.03s.58-1.03,1.3-1.03h7.71c.72,0,1.3.46,1.3,1.03s-.58,1.03-1.3,1.03ZM802.95,693.88h-7.71c-.72,0-1.3-.46-1.3-1.03s.58-1.03,1.3-1.03h7.71c.72,0,1.3.46,1.3,1.03s-.58,1.03-1.3,1.03ZM787.68,693.23c-.22,0-.44-.04-.64-.13-2.41-1.08-3.91-3.11-3.91-5.3v-.75c0-.57.58-1.03,1.3-1.03s1.3.46,1.3,1.03v.75c0,1.45.99,2.79,2.59,3.51.63.28.84.91.49,1.4-.24.33-.68.52-1.13.52ZM901.44,690.61c-.15,0-.31-.02-.46-.07-.67-.2-1.01-.79-.76-1.32.22-.45.33-.93.33-1.42v-4.27c0-.57.58-1.03,1.3-1.03s1.3.46,1.3,1.03v4.27c0,.74-.17,1.46-.49,2.14-.2.41-.69.67-1.22.67ZM784.43,681.99c-.72,0-1.3-.46-1.3-1.03v-6.09c0-.57.58-1.03,1.3-1.03s1.3.46,1.3,1.03v6.09c0,.57-.58,1.03-1.3,1.03ZM901.84,678.47c-.72,0-1.3-.46-1.3-1.03v-6.09c0-.57.58-1.03,1.3-1.03s1.3.46,1.3,1.03v6.09c0,.57-.58,1.03-1.3,1.03ZM784.43,669.82c-.72,0-1.3-.46-1.3-1.03v-6.09c0-.57.58-1.03,1.3-1.03s1.3.46,1.3,1.03v6.09c0,.57-.58,1.03-1.3,1.03ZM901.84,666.29c-.72,0-1.3-.46-1.3-1.03v-6.09c0-.57.58-1.03,1.3-1.03s1.3.46,1.3,1.03v6.09c0,.57-.58,1.03-1.3,1.03ZM784.43,657.64c-.72,0-1.3-.46-1.3-1.03v-6.09c0-.57.58-1.03,1.3-1.03s1.3.46,1.3,1.03v6.09c0,.57-.58,1.03-1.3,1.03ZM901.84,654.12c-.72,0-1.3-.46-1.3-1.03v-6.09c0-.57.58-1.03,1.3-1.03s1.3.46,1.3,1.03v6.09c0,.57-.58,1.03-1.3,1.03ZM784.43,645.46c-.72,0-1.3-.46-1.3-1.03v-6.09c0-.57.58-1.03,1.3-1.03s1.3.46,1.3,1.03v6.09c0,.57-.58,1.03-1.3,1.03ZM901.84,641.94c-.72,0-1.3-.46-1.3-1.03v-6.09c0-.57.58-1.03,1.3-1.03s1.3.46,1.3,1.03v6.09c0,.57-.58,1.03-1.3,1.03ZM784.43,633.29c-.72,0-1.3-.46-1.3-1.03v-6.09c0-.57.58-1.03,1.3-1.03s1.3.46,1.3,1.03v6.09c0,.57-.58,1.03-1.3,1.03ZM901.84,629.77c-.72,0-1.3-.46-1.3-1.03v-6.09c0-.57.58-1.03,1.3-1.03s1.3.46,1.3,1.03v6.09c0,.57-.58,1.03-1.3,1.03ZM784.43,621.11c-.72,0-1.3-.46-1.3-1.03v-4.25c0-.74.17-1.47.5-2.17.26-.53,1.01-.8,1.68-.6.67.2,1.01.8.75,1.33-.22.46-.33.94-.33,1.43v4.25c0,.57-.58,1.03-1.3,1.03ZM901.84,617.59c-.72,0-1.3-.46-1.3-1.03v-.73c0-1.45-1-2.8-2.61-3.52-.63-.28-.85-.91-.5-1.4.35-.49,1.15-.67,1.77-.39,2.43,1.08,3.93,3.11,3.93,5.31v.73c0,.57-.58,1.03-1.3,1.03ZM891.01,611.8h-7.71c-.72,0-1.3-.46-1.3-1.03s.58-1.03,1.3-1.03h7.71c.72,0,1.3.46,1.3,1.03s-.58,1.03-1.3,1.03ZM875.59,611.8h-7.71c-.72,0-1.3-.46-1.3-1.03s.58-1.03,1.3-1.03h7.71c.72,0,1.3.46,1.3,1.03s-.58,1.03-1.3,1.03ZM860.18,611.8h-7.71c-.72,0-1.3-.46-1.3-1.03s.58-1.03,1.3-1.03h7.71c.72,0,1.3.46,1.3,1.03s-.58,1.03-1.3,1.03ZM844.76,611.8h-7.71c-.72,0-1.3-.46-1.3-1.03s.58-1.03,1.3-1.03h7.71c.72,0,1.3.46,1.3,1.03s-.58,1.03-1.3,1.03ZM829.35,611.8h-7.71c-.72,0-1.3-.46-1.3-1.03s.58-1.03,1.3-1.03h7.71c.72,0,1.3.46,1.3,1.03s-.58,1.03-1.3,1.03ZM813.93,611.8h-7.71c-.72,0-1.3-.46-1.3-1.03s.58-1.03,1.3-1.03h7.71c.72,0,1.3.46,1.3,1.03s-.58,1.03-1.3,1.03ZM798.52,611.8h-7.68c-.72,0-1.31-.46-1.31-1.03s.57-1.03,1.29-1.03h7.71c.72,0,1.3.46,1.3,1.03s-.58,1.03-1.3,1.03Z"/>
    <path class="cls-15" d="M1393.01,1073.01h-7.02c-.64,0-1.15-.41-1.15-.91s.52-.91,1.15-.91h6.97c.64,0,1.18.41,1.18.91s-.49.91-1.13.91ZM1379.03,1073.01h-6.97c-.64,0-1.15-.41-1.15-.91s.52-.91,1.15-.91h6.97c.64,0,1.15.41,1.15.91s-.52.91-1.15.91ZM1365.1,1073.01h-6.97c-.64,0-1.15-.41-1.15-.91s.52-.91,1.15-.91h6.97c.64,0,1.15.41,1.15.91s-.52.91-1.15.91ZM1351.17,1073.01h-6.97c-.64,0-1.15-.41-1.15-.91s.52-.91,1.15-.91h6.97c.64,0,1.15.41,1.15.91s-.52.91-1.15.91ZM1337.24,1073.01h-6.97c-.64,0-1.15-.41-1.15-.91s.52-.91,1.15-.91h6.97c.64,0,1.15.41,1.15.91s-.52.91-1.15.91ZM1323.31,1073.01h-6.97c-.64,0-1.15-.41-1.15-.91s.52-.91,1.15-.91h6.97c.64,0,1.15.41,1.15.91s-.52.91-1.15.91ZM1309.38,1073.01h-6.97c-.64,0-1.15-.41-1.15-.91s.52-.91,1.15-.91h6.97c.64,0,1.15.41,1.15.91s-.52.91-1.15.91ZM1295.45,1073.01h-6.97c-.64,0-1.15-.41-1.15-.91s.52-.91,1.15-.91h6.97c.64,0,1.15.41,1.15.91s-.52.91-1.15.91ZM1281.52,1073.01h-6.97c-.64,0-1.15-.41-1.15-.91s.52-.91,1.15-.91h6.97c.64,0,1.15.41,1.15.91s-.52.91-1.15.91ZM1267.58,1073.01h-6.73c-.1,0-.2,0-.3,0-.64-.03-1.13-.45-1.1-.95.03-.5.55-.9,1.21-.87.06,0,.12,0,.18,0h6.73c.64,0,1.15.41,1.15.91s-.52.91-1.15.91ZM1397.52,1069.52h-.04c-.64-.02-1.14-.44-1.12-.94v-.09s0-5.39,0-5.39c0-.5.52-.91,1.15-.91s1.15.41,1.15.91v5.53c-.02.49-.53.88-1.15.88ZM1256.3,1069.37c-.64,0-1.15-.41-1.15-.91v-5.5c0-.5.52-.91,1.15-.91s1.15.41,1.15.91v5.5c0,.5-.52.91-1.15.91ZM1397.52,1058.52c-.64,0-1.15-.41-1.15-.91v-5.5c0-.5.52-.91,1.15-.91s1.15.41,1.15.91v5.5c0,.5-.52.91-1.15.91ZM1256.3,1058.37c-.64,0-1.15-.41-1.15-.91v-5.5c0-.5.52-.91,1.15-.91s1.15.41,1.15.91v5.5c0,.5-.52.91-1.15.91ZM1397.52,1047.51c-.64,0-1.15-.41-1.15-.91v-5.5c0-.5.52-.91,1.15-.91s1.15.41,1.15.91v5.5c0,.5-.52.91-1.15.91ZM1256.3,1047.37c-.64,0-1.15-.41-1.15-.91v-5.37c0-.06,0-.12,0-.17.03-.5.54-.9,1.2-.87.64.02,1.13.44,1.11.95v.1s0,5.37,0,5.37c0,.5-.52.91-1.15.91ZM1393.18,1038.4s-.03,0-.05,0h-.16s-6.75,0-6.75,0c-.64,0-1.15-.41-1.15-.91s.52-.91,1.15-.91h6.75c.09,0,.18,0,.26,0,.64.02,1.13.45,1.1.95-.03.49-.54.87-1.15.87ZM1379.24,1038.4h-6.97c-.64,0-1.15-.41-1.15-.91s.52-.91,1.15-.91h6.97c.64,0,1.15.41,1.15.91s-.52.91-1.15.91ZM1365.31,1038.4h-6.97c-.64,0-1.15-.41-1.15-.91s.52-.91,1.15-.91h6.97c.64,0,1.15.41,1.15.91s-.52.91-1.15.91ZM1351.38,1038.4h-6.97c-.64,0-1.15-.41-1.15-.91s.52-.91,1.15-.91h6.97c.64,0,1.15.41,1.15.91s-.52.91-1.15.91ZM1337.45,1038.4h-6.97c-.64,0-1.15-.41-1.15-.91s.52-.91,1.15-.91h6.97c.64,0,1.15.41,1.15.91s-.52.91-1.15.91ZM1323.52,1038.4h-6.97c-.64,0-1.15-.41-1.15-.91s.52-.91,1.15-.91h6.97c.64,0,1.15.41,1.15.91s-.52.91-1.15.91ZM1309.59,1038.4h-6.97c-.64,0-1.15-.41-1.15-.91s.52-.91,1.15-.91h6.97c.64,0,1.15.41,1.15.91s-.52.91-1.15.91ZM1295.66,1038.4h-6.97c-.64,0-1.15-.41-1.15-.91s.52-.91,1.15-.91h6.97c.64,0,1.15.41,1.15.91s-.52.91-1.15.91ZM1281.73,1038.4h-6.97c-.64,0-1.15-.41-1.15-.91s.52-.91,1.15-.91h6.97c.64,0,1.15.41,1.15.91s-.52.91-1.15.91ZM1267.8,1038.4h-6.94c-.64,0-1.17-.41-1.17-.91s.5-.91,1.14-.91h6.97c.64,0,1.15.41,1.15.91s-.52.91-1.15.91Z"/>
    <path class="cls-15" d="M843.32,1034.75h-6.95c-.64,0-1.15-.41-1.15-.91s.52-.91,1.15-.91h6.91c.64,0,1.18.41,1.18.91s-.49.91-1.13.91ZM829.47,1034.75h-6.91c-.64,0-1.15-.41-1.15-.91s.52-.91,1.15-.91h6.91c.64,0,1.15.41,1.15.91s-.52.91-1.15.91ZM815.65,1034.75h-6.91c-.64,0-1.15-.41-1.15-.91s.52-.91,1.15-.91h6.91c.64,0,1.15.41,1.15.91s-.52.91-1.15.91ZM801.84,1034.75h-6.91c-.64,0-1.15-.41-1.15-.91s.52-.91,1.15-.91h6.91c.64,0,1.15.41,1.15.91s-.52.91-1.15.91ZM788.03,1034.75h-6.91c-.64,0-1.15-.41-1.15-.91s.52-.91,1.15-.91h6.91c.64,0,1.15.41,1.15.91s-.52.91-1.15.91ZM774.22,1034.75h-6.91c-.64,0-1.15-.41-1.15-.91s.52-.91,1.15-.91h6.91c.64,0,1.15.41,1.15.91s-.52.91-1.15.91ZM760.41,1034.75h-6.91c-.64,0-1.15-.41-1.15-.91s.52-.91,1.15-.91h6.91c.64,0,1.15.41,1.15.91s-.52.91-1.15.91ZM746.6,1034.75h-6.91c-.64,0-1.15-.41-1.15-.91s.52-.91,1.15-.91h6.91c.64,0,1.15.41,1.15.91s-.52.91-1.15.91ZM732.79,1034.75h-6.91c-.64,0-1.15-.41-1.15-.91s.52-.91,1.15-.91h6.91c.64,0,1.15.41,1.15.91s-.52.91-1.15.91ZM718.98,1034.75h-6.91c-.64,0-1.15-.41-1.15-.91s.52-.91,1.15-.91h6.91c.64,0,1.15.41,1.15.91s-.52.91-1.15.91ZM705.17,1034.75h-6.91c-.64,0-1.15-.41-1.15-.91s.52-.91,1.15-.91h6.91c.64,0,1.15.41,1.15.91s-.52.91-1.15.91ZM691.36,1034.75h-6.91c-.64,0-1.15-.41-1.15-.91s.52-.91,1.15-.91h6.91c.64,0,1.15.41,1.15.91s-.52.91-1.15.91ZM677.55,1034.75h-6.91c-.64,0-1.15-.41-1.15-.91s.52-.91,1.15-.91h6.91c.64,0,1.15.41,1.15.91s-.52.91-1.15.91ZM663.74,1034.75h-6.91c-.64,0-1.15-.41-1.15-.91s.52-.91,1.15-.91h6.91c.64,0,1.15.41,1.15.91s-.52.91-1.15.91ZM649.93,1034.75h-6.91c-.64,0-1.15-.41-1.15-.91s.52-.91,1.15-.91h6.91c.64,0,1.15.41,1.15.91s-.52.91-1.15.91ZM636.12,1034.75h-5.51c-.51,0-1.02-.02-1.52-.07-.63-.06-1.08-.51-1.01-1.01.07-.5.65-.86,1.28-.8.41.04.83.06,1.25.06h5.51c.64,0,1.15.41,1.15.91s-.52.91-1.15.91ZM849.83,1033.18c-.37,0-.74-.14-.96-.4-.36-.42-.21-.98.31-1.26,1.74-.93,3.09-2.22,3.89-3.75.24-.46.92-.68,1.51-.49.59.19.87.73.62,1.19-.98,1.86-2.62,3.44-4.74,4.56-.2.1-.42.16-.64.16ZM622.98,1032.54c-.26,0-.53-.07-.75-.22-1.95-1.31-3.35-3.03-4.05-4.96-.17-.48.18-.99.79-1.13.61-.14,1.25.14,1.43.62.57,1.59,1.73,3,3.33,4.07.49.33.54.9.13,1.28-.23.21-.55.32-.88.32ZM855.04,1023.66c-.64,0-1.15-.41-1.15-.91v-5.45c0-.5.52-.91,1.15-.91s1.15.41,1.15.91v5.45c0,.5-.52.91-1.15.91ZM618.84,1022.6c-.64,0-1.15-.41-1.15-.91v-5.45c0-.5.52-.91,1.15-.91s1.15.41,1.15.91v5.45c0,.5-.52.91-1.15.91ZM855.04,1012.75c-.64,0-1.15-.41-1.15-.91v-5.45c0-.5.52-.91,1.15-.91s1.15.41,1.15.91v5.45c0,.5-.52.91-1.15.91ZM618.84,1011.69c-.64,0-1.15-.41-1.15-.91v-5.45c0-.5.52-.91,1.15-.91s1.15.41,1.15.91v5.45c0,.5-.52.91-1.15.91ZM855.04,1001.84c-.64,0-1.15-.41-1.15-.91v-5.45c0-.5.52-.91,1.15-.91s1.15.41,1.15.91v5.45c0,.5-.52.91-1.15.91ZM618.84,1000.78c-.64,0-1.15-.41-1.15-.91v-5.45c0-.5.52-.91,1.15-.91s1.15.41,1.15.91v5.45c0,.5-.52.91-1.15.91ZM855.04,990.93c-.64,0-1.15-.41-1.15-.91v-5.46c0-.5.52-.91,1.15-.91s1.15.41,1.15.91v5.46c0,.5-.52.91-1.15.91ZM618.84,989.87c-.64,0-1.15-.41-1.15-.91v-5.45c0-.5.52-.91,1.15-.91s1.15.41,1.15.91v5.45c0,.5-.52.91-1.15.91ZM855.04,980.02c-.64,0-1.15-.41-1.15-.91v-5.45c0-.5.52-.91,1.15-.91s1.15.41,1.15.91v5.45c0,.5-.52.91-1.15.91ZM618.84,978.96c-.64,0-1.15-.41-1.15-.91v-5.45c0-.5.52-.91,1.15-.91s1.15.41,1.15.91v5.45c0,.5-.52.91-1.15.91ZM855.04,969.12c-.64,0-1.15-.41-1.15-.91v-5.45c0-.5.52-.91,1.15-.91s1.15.41,1.15.91v5.45c0,.5-.52.91-1.15.91ZM618.84,968.05c-.64,0-1.15-.41-1.15-.91v-5.45c0-.5.52-.91,1.15-.91s1.15.41,1.15.91v5.45c0,.5-.52.91-1.15.91ZM855.04,958.21c-.64,0-1.15-.41-1.15-.91v-5.45c0-.5.52-.91,1.15-.91s1.15.41,1.15.91v5.45c0,.5-.52.91-1.15.91ZM618.84,957.14c-.64,0-1.15-.41-1.15-.91v-5.45c0-.5.52-.91,1.15-.91s1.15.41,1.15.91v5.45c0,.5-.52.91-1.15.91ZM855.04,947.3c-.64,0-1.15-.41-1.15-.91v-5.45c0-.5.52-.91,1.15-.91s1.15.41,1.15.91v5.45c0,.5-.52.91-1.15.91ZM618.84,946.24c-.64,0-1.15-.41-1.15-.91v-5.45c0-.5.52-.91,1.15-.91s1.15.41,1.15.91v5.45c0,.5-.52.91-1.15.91ZM855.04,936.39c-.64,0-1.15-.41-1.15-.91v-5.45c0-.5.52-.91,1.15-.91s1.15.41,1.15.91v5.45c0,.5-.52.91-1.15.91ZM618.84,935.33c-.64,0-1.15-.41-1.15-.91v-5.45c0-.5.52-.91,1.15-.91s1.15.41,1.15.91v5.45c0,.5-.52.91-1.15.91ZM855.04,925.48c-.64,0-1.15-.41-1.15-.91v-5.45c0-.5.52-.91,1.15-.91s1.15.41,1.15.91v5.45c0,.5-.52.91-1.15.91ZM618.84,924.42c-.64,0-1.15-.41-1.15-.91v-5.45c0-.5.52-.91,1.15-.91s1.15.41,1.15.91v5.45c0,.5-.52.91-1.15.91ZM855.04,914.57c-.64,0-1.15-.41-1.15-.91v-5.45c0-.5.52-.91,1.15-.91s1.15.41,1.15.91v5.45c0,.5-.52.91-1.15.91ZM618.84,913.51c-.64,0-1.15-.41-1.15-.91v-5.45c0-.5.52-.91,1.15-.91s1.15.41,1.15.91v5.45c0,.5-.52.91-1.15.91ZM854.58,903.7c-.5,0-.96-.26-1.11-.66-.58-1.59-1.73-2.99-3.34-4.07-.49-.33-.55-.9-.13-1.28.41-.38,1.14-.43,1.63-.11,1.95,1.31,3.36,3.02,4.06,4.95.18.48-.18.99-.79,1.13-.11.02-.21.04-.32.04ZM619.74,902.7c-.15,0-.3-.02-.44-.07-.59-.19-.86-.73-.62-1.19.98-1.86,2.63-3.43,4.75-4.56.53-.28,1.24-.17,1.6.25.35.42.21.98-.32,1.26-1.75.92-3.1,2.22-3.9,3.74-.18.35-.61.56-1.06.56ZM844.64,897.05s-.09,0-.13,0c-.41-.04-.82-.06-1.23-.06h-5.54c-.64,0-1.15-.41-1.15-.91s.52-.91,1.15-.91h5.54c.5,0,1,.02,1.5.07.63.06,1.09.51,1.01,1.01-.07.46-.57.81-1.14.81ZM830.83,896.98h-6.91c-.64,0-1.15-.41-1.15-.91s.52-.91,1.15-.91h6.91c.64,0,1.15.41,1.15.91s-.52.91-1.15.91ZM817.02,896.98h-6.91c-.64,0-1.15-.41-1.15-.91s.52-.91,1.15-.91h6.91c.64,0,1.15.41,1.15.91s-.52.91-1.15.91ZM803.21,896.98h-6.91c-.64,0-1.15-.41-1.15-.91s.52-.91,1.15-.91h6.91c.64,0,1.15.41,1.15.91s-.52.91-1.15.91ZM789.4,896.98h-6.91c-.64,0-1.15-.41-1.15-.91s.52-.91,1.15-.91h6.91c.64,0,1.15.41,1.15.91s-.52.91-1.15.91ZM775.59,896.98h-6.91c-.64,0-1.15-.41-1.15-.91s.52-.91,1.15-.91h6.91c.64,0,1.15.41,1.15.91s-.52.91-1.15.91ZM761.78,896.98h-6.91c-.64,0-1.15-.41-1.15-.91s.52-.91,1.15-.91h6.91c.64,0,1.15.41,1.15.91s-.52.91-1.15.91ZM747.97,896.98h-6.91c-.64,0-1.15-.41-1.15-.91s.52-.91,1.15-.91h6.91c.64,0,1.15.41,1.15.91s-.52.91-1.15.91ZM734.16,896.98h-6.91c-.64,0-1.15-.41-1.15-.91s.52-.91,1.15-.91h6.91c.64,0,1.15.41,1.15.91s-.52.91-1.15.91ZM720.35,896.98h-6.91c-.64,0-1.15-.41-1.15-.91s.52-.91,1.15-.91h6.91c.64,0,1.15.41,1.15.91s-.52.91-1.15.91ZM706.54,896.98h-6.91c-.64,0-1.15-.41-1.15-.91s.52-.91,1.15-.91h6.91c.64,0,1.15.41,1.15.91s-.52.91-1.15.91ZM692.73,896.98h-6.91c-.64,0-1.15-.41-1.15-.91s.52-.91,1.15-.91h6.91c.64,0,1.15.41,1.15.91s-.52.91-1.15.91ZM678.92,896.98h-6.91c-.64,0-1.15-.41-1.15-.91s.52-.91,1.15-.91h6.91c.64,0,1.15.41,1.15.91s-.52.91-1.15.91ZM665.11,896.98h-6.91c-.64,0-1.15-.41-1.15-.91s.52-.91,1.15-.91h6.91c.64,0,1.15.41,1.15.91s-.52.91-1.15.91ZM651.3,896.98h-6.91c-.64,0-1.15-.41-1.15-.91s.52-.91,1.15-.91h6.91c.64,0,1.15.41,1.15.91s-.52.91-1.15.91ZM637.49,896.98h-6.88c-.64,0-1.16-.41-1.16-.91s.5-.91,1.14-.91h6.91c.64,0,1.15.41,1.15.91s-.52.91-1.15.91Z"/>
    <g>
      <path class="cls-23" d="M634.11,729.8h273.58c7.54,0,13.66,6.12,13.66,13.66v110.44c0,7.54-6.12,13.66-13.66,13.66h-273.58c-7.54,0-13.66-6.12-13.66-13.66v-110.44c0-7.54,6.12-13.66,13.66-13.66Z"/>
      <path class="cls-20" d="M736.94,771.35v54.65c0,3.42,4.81,5.47,8.42,3.59l52.59-27.33c3.26-1.7,3.26-5.48,0-7.17l-52.59-27.33c-3.61-1.88-8.42.17-8.42,3.59Z"/>
      <g>
        <path class="cls-6" d="M636.09,855.14c0-2.36,2.42-4.27,5.4-4.27s5.4,1.91,5.4,4.27-2.42,4.27-5.4,4.27-5.4-1.91-5.4-4.27Z"/>
        <path class="cls-6" d="M887.2,856.29h-244.26c-.8,0-1.45-.51-1.45-1.15h0c0-.63.65-1.15,1.45-1.15h244.26c.8,0,1.45.51,1.45,1.15h0c0,.63-.65,1.15-1.45,1.15Z"/>
      </g>
    </g>
    <rect class="cls-26" x="901.84" y="896.07" width="155.67" height="183.56"/>
    <g>
      <path class="cls-27" d="M1598.66,584.61h-53.79c-2.26,0-4.11-1.46-4.11-3.25h0c0-1.79,1.85-3.25,4.11-3.25h53.79c2.26,0,4.11,1.46,4.11,3.25h0c0,1.79-1.85,3.25-4.11,3.25Z"/>
      <path class="cls-27" d="M1598.66,597.3h-53.79c-2.26,0-4.11-1.46-4.11-3.25h0c0-1.79,1.85-3.25,4.11-3.25h53.79c2.26,0,4.11,1.46,4.11,3.25h0c0,1.79-1.85,3.25-4.11,3.25Z"/>
      <path class="cls-27" d="M1598.66,610.31h-53.79c-2.26,0-4.11-1.46-4.11-3.25h0c0-1.79,1.85-3.25,4.11-3.25h53.79c2.26,0,4.11,1.46,4.11,3.25h0c0,1.79-1.85,3.25-4.11,3.25Z"/>
    </g>
    <path class="cls-27" d="M1388.04,916.64h-128.05c-3,0-5.45-1.94-5.45-4.3h0c0-2.37,2.45-4.31,5.45-4.31h128.05c3,0,5.45,1.94,5.45,4.31h0c0,2.37-2.45,4.3-5.45,4.3Z"/>
    <path class="cls-27" d="M762.13,621.14h-128.05c-3,0-5.45-1.94-5.45-4.31h0c0-2.37,2.45-4.31,5.45-4.31h128.05c3,0,5.45,1.94,5.45,4.31h0c0,2.37-2.45,4.31-5.45,4.31Z"/>
    <path class="cls-27" d="M1388.04,959.35h-128.05c-3,0-5.45-1.94-5.45-4.3h0c0-2.37,2.45-4.31,5.45-4.31h128.05c3,0,5.45,1.94,5.45,4.31h0c0,2.37-2.45,4.3-5.45,4.3Z"/>
    <path class="cls-27" d="M1388.04,938h-153.14c-3,0-5.45-1.94-5.45-4.31h0c0-2.37,2.45-4.3,5.45-4.3h153.14c3,0,5.45,1.94,5.45,4.3h0c0,2.37-2.45,4.31-5.45,4.31Z"/>
    <g>
      <path class="cls-27" d="M652.02,639.6h71.94c2.38,0,4.31,1.93,4.31,4.31h0c0,2.38-1.93,4.31-4.31,4.31h-71.94c-2.38,0-4.31-1.93-4.31-4.31h0c0-2.38,1.93-4.31,4.31-4.31Z"/>
      <path class="cls-27" d="M623.79,643.9c0-2.38,2.44-4.31,5.45-4.31s5.45,1.93,5.45,4.31-2.44,4.31-5.45,4.31-5.45-1.93-5.45-4.31Z"/>
    </g>
    <g>
      <rect class="cls-27" x="647.72" y="656.73" width="94.61" height="8.61" rx="4.3" ry="4.3"/>
      <path class="cls-27" d="M623.79,661.04c0-2.38,2.44-4.31,5.45-4.31s5.45,1.93,5.45,4.31-2.44,4.31-5.45,4.31-5.45-1.93-5.45-4.31Z"/>
    </g>
    <g>
      <path class="cls-27" d="M652.02,675.33h71.94c2.38,0,4.31,1.93,4.31,4.31h0c0,2.38-1.93,4.31-4.31,4.31h-71.94c-2.38,0-4.31-1.93-4.31-4.31h0c0-2.38,1.93-4.31,4.31-4.31Z"/>
      <path class="cls-27" d="M623.79,679.64c0-2.38,2.44-4.31,5.45-4.31s5.45,1.93,5.45,4.31-2.44,4.31-5.45,4.31-5.45-1.93-5.45-4.31Z"/>
    </g>
    <g>
      <path class="cls-15" d="M855.55,657.85c-.95.1-1.91.15-2.88.14-5.14-.05-9.94-1.67-13.53-4.57-7.41-5.99-7.27-15.63.31-21.48h0c7.58-5.85,19.78-5.74,27.19.25,7.41,5.99,7.27,15.63-.32,21.48-2.98,2.3-6.73,3.74-10.78,4.18ZM841.66,633.73c-6.34,4.89-6.45,12.94-.26,17.94,3,2.42,7.01,3.78,11.3,3.82,4.29.04,8.34-1.24,11.41-3.61,6.34-4.89,6.45-12.94.26-17.94-6.19-5-16.38-5.1-22.71-.21h0Z"/>
      <polygon class="cls-15" points="822.6 667.93 820.39 666.14 839.16 651.65 841.37 653.44 822.6 667.93"/>
      <path class="cls-15" d="M814.97,672.07h0c-1.09-.88-1.07-2.3.05-3.16l11.05-8.53c1.12-.86,2.91-.85,4,.04h0c1.09.88,1.07,2.3-.05,3.16l-11.05,8.53c-1.12.86-2.91.85-4-.04Z"/>
    </g>
  </g>
  <path class="cls-24" d="M1800.44,625.7c66.8,26.9,99.2,102.7,72.3,169.5-26.9,66.8-102.7,99.2-169.5,72.3s-99.2-102.7-72.3-169.5c26.7-66.8,102.7-99.2,169.5-72.3"/>
  <path class="cls-5" d="M1834.44,847.3c-35.6,29.2-85.6,38.5-131.3,20.2-66.8-26.9-99.2-102.7-72.3-169.5,26.3-65.4,99.5-97.8,165.1-73.9-77.6,28.6-116.4,173.9,38.5,223.2"/>
  <path class="cls-5" d="M1799.24,868c-4,1.5-8.1,3-12.2,4.1l-19.4-60.5c4.4,3.8,9.2,7.5,14.5,11.1l17.1,45.3Z"/>
  <path class="cls-16" d="M1799.24,868c-4,1.5-8.1,3-12.2,4.1l-19.4-60.5c4.4,3.8,9.2,7.5,14.5,11.1l17.1,45.3Z"/>
  <path class="cls-13" d="M1789.34,653c51.6,20.8,76.7,79.5,55.9,131.2-20.8,51.6-79.5,76.7-131.2,55.9-51.6-20.8-76.7-79.5-55.9-131.2,20.8-51.6,79.6-76.6,131.2-55.9"/>
  <polygon class="cls-13" points="1748.34 746.5 1748.34 746.5 1742.84 774.6 1754.34 760.5 1773.14 764.1 1751.34 745.3 1748.34 746.5"/>
  <path class="cls-10" d="M1788.74,840.5c-3.5,1.4-7.1,2.6-10.8,3.6l-27.6-86.1,6.8-.9,31.6,83.4Z"/>
  <path class="cls-24" d="M1778.44,680.4c36.6,14.7,54.3,56.3,39.6,92.9-14.7,36.6-56.3,54.3-92.9,39.6s-54.3-56.3-39.6-92.9c14.7-36.7,56.3-54.4,92.9-39.6"/>
  <polygon class="cls-11" points="1748.34 746.5 1748.34 746.5 1742.84 774.6 1754.34 760.5 1773.14 764.1 1751.34 745.3 1748.34 746.5"/>
  <path class="cls-11" d="M1778.34,812.9c-3,1.2-6.2,2.2-9.3,3l-18.7-58,6.8-.9,21.2,55.9Z"/>
  <path class="cls-5" d="M1771.74,815.1c-14.9,4.4-31.2,3.9-46.6-2.3-36.6-14.7-54.3-56.3-39.6-92.9,9.7-24.1,31.1-40,55-43.9-21.2,42.3-18.5,99.1,31.2,139.1"/>
  <path class="cls-5" d="M1771.74,815.1c-1,.3-1.9.5-2.8.8l-1.3-4.3c1.3,1.2,2.7,2.4,4.1,3.5"/>
  <path class="cls-13" d="M1767.44,707.6c21.5,8.7,31.9,33.1,23.3,54.6-8.7,21.5-33.1,31.9-54.6,23.3-21.5-8.7-31.9-33.1-23.3-54.6,8.7-21.4,33.1-31.8,54.6-23.3"/>
  <polygon class="cls-10" points="1748.34 746.5 1748.34 746.5 1742.84 774.6 1754.34 760.5 1773.14 764.1 1751.34 745.3 1748.34 746.5"/>
  <path class="cls-10" d="M1767.84,785.3c-2.6,1-5.2,1.9-7.9,2.4l-9.6-29.9,6.8-.9,10.7,28.4Z"/>
  <polygon class="cls-45" points="1748.54 746.4 1748.54 746.4 1764.14 722.2 1762.64 740.4 1778.64 750.9 1749.94 749.3 1748.54 746.4"/>
  <path class="cls-45" d="M1906.54,659.1c1.6-.4,2.1-.9,5,.3,2.9,1.1,5.4,7.6,4.4,10.3s-1.4,2.4-2.5,3.2l-151.3,71.8-4.3-5.3,148.7-80.3Z"/>
  <polygon class="cls-45" points="1886.44 653.2 1929.34 628.9 1921.74 658.2 1951.24 672.4 1901.44 692.2 1881.64 679.9 1886.44 653.2"/>
  <polygon class="cls-20" points="1886.44 653.2 1929.34 628.9 1921.74 658.2 1881.84 679 1883.14 671.9 1886.44 653.2"/>
  <path class="cls-45" d="M979.04,1336.7h-208.7c-14.5,0-26.3,13.9-26.3,30.8h0c0,17,11.8,30.8,26.3,30.8h208.7c14.5,0,26.3-13.9,26.3-30.8h0c.1-16.9-11.8-30.8-26.3-30.8"/>
  <path class="cls-12" d="M918.44,1336.7h-74.8c14.5,0,26.3,13.9,26.3,30.8h0c0,17-11.8,30.8-26.3,30.8h74.8c14.5,0,26.3-13.9,26.3-30.8h0c.1-16.9-11.9-30.8-26.3-30.8"/>
  <path class="cls-13" d="M780.14,1401.4h-197.3c8.2-11.1,11.3-26.7,0-42.9h197.3c6.6,0,12,9.6,12,21.4s-5.4,21.5-12,21.5"/>
  <path class="cls-4" d="M590.14,1380.8c.2-7.1-2-14.6-7.3-22.3h197.3c6.6,0,12,9.6,12,21.4v.9h-202Z"/>
  <path class="cls-12" d="M576.64,1398.3h204.2c9.5,0,19.5-14,19.5-31s-10.1-30.7-19.5-30.7h-204.2l.1,9.2,203.4.2c6.6,0,12,9.6,12,21.4s-5.4,21.4-12,21.4l-203.4-.2-.1,9.7Z"/>
  <path class="cls-45" d="M766.04,1367.9h-22.6c-8.7,3.8-6.2,19-11.3,28.9l13.3-8.2,9.7,7.6c7.6-8.9,3.3-24.3,10.9-28.3"/>
  <path class="cls-1" d="M647.64,1275h208.7c14.5,0,26.3,13.9,26.3,30.8h0c0,17-11.8,30.8-26.3,30.8h-208.7c-14.5,0-26.3-13.9-26.3-30.8h0c0-16.9,11.9-30.8,26.3-30.8"/>
  <path class="cls-22" d="M708.24,1275h74.8c-14.5,0-26.3,13.9-26.3,30.8h0c0,17,11.8,30.8,26.3,30.8h-74.8c-14.5,0-26.3-13.9-26.3-30.8h0c0-16.9,11.9-30.8,26.3-30.8"/>
  <path class="cls-13" d="M846.64,1327.3h197.4c-8.2-11.1-11.3-26.7,0-42.9h-197.4c-6.6,0-12,9.6-12,21.4-.1,11.8,5.3,21.5,12,21.5"/>
  <path class="cls-4" d="M1036.64,1306.7c-.2-7.1,2-14.6,7.3-22.3h-197.3c-6.6,0-12,9.6-12,21.4v.9h202Z"/>
  <path class="cls-22" d="M1050.24,1336.7h-204.3c-9.5,0-19.5-14-19.5-31s10.1-30.7,19.5-30.7h204.2l-.1,9.2-203.4.2c-6.6,0-12,9.6-12,21.4s5.4,21.4,12,21.4l203.4-.2.2,9.7Z"/>
  <path class="cls-22" d="M860.74,1293.9h22.6c8.7,3.8,6.2,19,11.3,28.9l-13.3-8.2-9.7,7.6c-7.6-9-3.3-24.3-10.9-28.3"/>
  <path class="cls-22" d="M902.04,1305.8h22.6c8.7,1.5,6.2,7.7,11.3,11.8l-13.3-3.3-9.7,3.1c-7.6-3.7-3.3-10-10.9-11.6"/>
  <g>
    <g>
      <path class="cls-32" d="M267.74,1344.5s-11.9,11.1-9.6,18.9c2.3,7.9,13.1,13.1,14.6,22.7,1.6,9.6,7.3,14.7,12.4,14.7h24.9s3.8-6.7-5.5-8.8c-9.3-2-12.7-13.3-12.3-23.7.6-10.4-.9-24.3-.9-24.3l-19.8-4.7-3.8,5.2Z"/>
      <path class="cls-32" d="M416.34,1400.5c.2.1.4.2.8.3h66.7c-.6-2.3-2.8-6.8-10.5-8-10.4-1.7-28.4-7.8-32.5-21.1-.1-.4-.2-.9-.3-1.2-3.2-14.3-26.4,4.4-26.4,4.4,0,0-.1.6-.2,1.5-.7,4.9-2,21.9,2.4,24.1Z"/>
      <path class="cls-18" d="M470.44,1019.6s-3.5,44.1-7.7,96.9c-5.7,71.9-12.4,160.3-13.1,177-1.1,29-5.8,75.6-5.8,75.6,0,0-11.1,11.1-33.1,6.4,0,0-19.7-66.4-25.4-136.6-.1-1.1-.2-2.3-.2-3.5-5.2-71.5-13.4-222-13.4-222l98.7,6.2Z"/>
      <path class="cls-32" d="M470.44,1019.6s-3.5,44.1-7.7,96.9l-77.4,122.4c-.1-1.1-.2-2.3-.2-3.5-5.2-71.5-13.4-222-13.4-222l98.7,6.2Z"/>
      <path class="cls-18" d="M454.34,1024.8s-63.7,159.5-105.4,234.4-54.9,95.9-54.9,95.9c0,0-23.9-9.6-26.1-16.2,0,0,16-144.7,44.1-179.9,15.9-19.9,34.5-79.7,35.3-100.6s5.7-62.3,5.7-62.3l101.3,28.7Z"/>
    </g>
    <g>
      <path class="cls-3" d="M434.94,729.6c-23.7,7.5-64.7-12.6-64.7-12.6,0,0,18.5-13.8,20.5-42.7,0-.4.1-.8.1-1.1.1-2.1.1-4.4.1-6.7l6.5,5.2,24.2,19.5s-1.2,9.7-1.7,25.8c3.8,2.1,6.9,4.5,9.3,6.5,3.7,3.3,5.7,6.1,5.7,6.1Z"/>
      <path class="cls-3" d="M343.84,713.8s62.6-9.9,104,17.4c0,0,28.1,183.4,3.6,200.7-24.5,17.3-107.5,0-107.5,0l-.1-218.1h0Z"/>
      <path class="cls-38" d="M427.44,1129.1h-113.2s13.2-193.2,17-240.3c3.1-38.2,9.5-129.7,11.8-162.8.6-7.8.9-12.4.9-12.4l27-4.6,46.3,60.2s7.4,160.5,7.1,185.8c-.2,25.4,3,123.8,3.1,140.5.1,16.5,0,33.6,0,33.6Z"/>
      <path class="cls-38" d="M417.34,769.3l10.2,359.8h53.3s-2.5-236.6-2.7-258.4c-.2-21.7,5.7-115.5-10.8-129.9-14-12.2-47.3-24-47.3-24l-2.7,52.5Z"/>
      <path class="cls-38" d="M420.24,708.6s15.2,10.4,14.7,14.3c-.6,3.7-2.7,9.7-2.7,9.7l-9.3-1.9,7.9,5.6s-8.9,26-13.5,33.2l2.9-60.9Z"/>
      <path class="cls-30" d="M336.54,815.8c6.7-41,83.6,19.5,77.3,73.3-11.8,99.3-62.2,210.1-99.6,240.2l22.3-313.5Z"/>
      <path class="cls-14" d="M390.74,674c-.1-.8-.3-1.1-.3-1.1l.4-.1,6.6-1.3,24.2,19.5s-1.1,9.2-1.8,25.8c-.1-.1-25.1-13.9-29.1-42.8Z"/>
      <path class="cls-3" d="M431.54,697.1s-42.2-1.1-41.2-27.5c1.1-26.2-3.5-44.1,23.6-44.6,27-.3,31.8,9.9,33.6,18.9,1.7,8.8-5,52.7-16,53.2Z"/>
      <path class="cls-32" d="M390.44,673s5.6,1.5,9.9-4.4c4.4-5.8,11.6-28.3,21.2-29.7,9.6-1.5,22.2,5.7,26.2,1.6,5.9-5.9,13.6-15.6,13.6-15.6,0,0-47.6-33.9-66.7-18.2-18.8,15.8-25.5,38.6-4.2,66.3Z"/>
      <path class="cls-32" d="M447.44,767c-.9-16.3-9.8-42.9-9.9-43.1l2.6,1.1c.3,1.1,7.4,25.4,8.3,41.9h-.9v.1h-.1Z"/>
      <path class="cls-32" d="M385.84,815.8c-.9-1-22.7-21.8-18-36.5,1.8-5.7,5.1-7.9,8.7-9.6,3.4-1.1,10.9-2.5,15,0,7.3,4.6,10.9,17.1,12.1,38.1h-.9c-1.2-24.9-7.7-33.8-12.4-35.8-6-2.6-16.6-1.5-19.9,8.2-2.3,6.6,2.2,16,6.4,22.2,4.7,7,9.7,13.3,9.7,13.4h-.7s0,0,0,0Z"/>
      <path class="cls-21" d="M388.14,818h0c-.9.9-2.2.9-3,0l-1.5-1.5c-.9-.9-.9-2.2,0-3h0c.9-.9,2.2-.9,3,0l1.5,1.5c.9.9.9,2.1,0,3Z"/>
      <path class="cls-21" d="M403.24,811.7h0c-1.1,0-2.1-1-2.1-2.1v-2.1c0-1.1,1-2.1,2.1-2.1h0c1.1,0,2.1,1,2.1,2.1v2.1c0,1.3-1,2.1-2.1,2.1Z"/>
      <path class="cls-32" d="M441.84,767c0-3.2,2.6-5.8,5.8-5.8s5.8,2.6,5.8,5.8-2.6,5.8-5.8,5.8c-3.1.1-5.8-2.5-5.8-5.8Z"/>
      <path class="cls-36" d="M445.04,767c0-1.6,1.2-3,3-3,1.6,0,3,1.2,3,3,0,1.6-1.2,3-3,3-1.7,0-3-1.4-3-3Z"/>
      <path class="cls-31" d="M421.44,1129.1c0-.3-3.7-36.6-2.7-68.1.4-13.3.1-28.9-.3-44.1-.6-21.6-1.7-42.3.1-55.9,3-23.2,2.3-128.6,1.1-140-1.1-11.2,0-23.5,1.1-27,1.1-3.7-3.7-24.3-3.7-24.5l.6-.1c.2.9,5.5,21.1,4.2,25-1.1,3.6-2.8,15.5-1.5,26.6,1.2,11.4,3.6,116.8.6,140-1.7,13.5-2.3,34.4-1.8,55.9.3,15.1.8,30.7.3,44.1-1.1,31.5,4.2,67.7,4.4,68.1h-2.4Z"/>
      <path class="cls-38" d="M515.24,839.7s14.4,24.7-.8,31.2c-15,6.5-16.6-.3-16.6-.3l17.4-30.9Z"/>
      <path class="cls-38" d="M395.04,854.8s2.2,4.7,2,8.8c-.3,4.4-2.3,10.9-2.3,10.9,0,0-88.4,18.9-105.6,3.1-18.4-17,15.7-143.8,30.5-156.3,6.3-5.4,19.5-8.6,31.9-10.5,6.8-1.1,13.2-1.8,18.1-2.1,5-.4,8.2-.6,8.2-.6l-2,7.4-7.8,28.6-9,33.4s-27,55.6-27.9,60.9c-1,5.3,63.9,16.4,63.9,16.4Z"/>
      <path class="cls-30" d="M407.44,760.4s-22.6-9.8-38.8-18.8c-10.5-5.8-16-16.9-17.1-30.7,6.8-1.1,13.2-1.8,18.1-2.1.8.2,1.2.4,1.2.4l4.9,6.4,31.7,44.8Z"/>
      <path class="cls-38" d="M417.34,769.3l-35.1-67s-13.1,2.7-17.5,6.8c0,0,2.2,20.1,3.9,24.6,0,0,6.8-.8,7.8-.2,0,0-3.4,5-4.2,5.7-.2-.2,30.4,14.1,45.1,30.1Z"/>
      <path class="cls-32" d="M376.64,771.9c-2.5-5.4-23.6-50.5-18.2-62.1l2-.2c-4,8.7,10.5,48,17,62.1l-.8.2Z"/>
      <path class="cls-28" d="M423.34,811.1c0-1.6,1.2-2.9,2.9-2.9,1.6,0,2.9,1.2,2.9,2.9,0,1.6-1.2,2.9-2.9,2.9-1.7-.2-2.9-1.5-2.9-2.9Z"/>
      <path class="cls-28" d="M423.34,969c0-1.6,1.2-2.9,2.9-2.9,1.6,0,2.9,1.2,2.9,2.9s-1.2,2.9-2.9,2.9c-1.7-.1-2.9-1.4-2.9-2.9Z"/>
      <path class="cls-28" d="M424.64,896.8c0-1.6,1.2-2.9,2.9-2.9,1.6,0,2.9,1.2,2.9,2.9,0,1.6-1.2,2.9-2.9,2.9-1.6-.2-2.9-1.4-2.9-2.9Z"/>
      <path class="cls-28" d="M424.64,1037.7c0-1.6,1.2-2.9,2.9-2.9,1.6,0,2.9,1.2,2.9,2.9s-1.2,2.9-2.9,2.9c-1.6-.1-2.9-1.4-2.9-2.9Z"/>
      <path class="cls-46" d="M393.54,723.9s9.8,4.8,25.6,1.8l-1.8,43.6-23.8-45.4Z"/>
      <g>
        <polygon class="cls-18" points="455.24 775.4 546.74 783.7 490.94 882.8 404.84 877.9 455.24 775.4"/>
        <path class="cls-31" d="M463.74,775s0-14.1,7.8-13.1,10.2,15,10.2,15l-18-1.9Z"/>
        <polygon class="cls-46" points="546.04 782.4 454.74 774.2 404.24 876.6 404.84 877.9 455.24 775.4 546.74 783.7 546.04 782.4"/>
        <path class="cls-38" d="M471.44,761.9s12.8,6.4,8.4,26.7c-4.6,20.3-10.2,31.5-6.9,43.6l61.6,5.7s-6.7-16,.8-32.2,2.1-34.7-4.7-36.3l-59.2-7.5Z"/>
      </g>
      <path class="cls-3" d="M502.34,864.3s-9.4-11.3-7.5-19.3c1.9-8.2,8.9-10.1,13.2-7.1,4.2,2.9,10.4,9.5,9.3,14.5-1.2,4.9-10.4,14.3-15,11.9Z"/>
      <path class="cls-3" d="M390.44,857.6s15.9-7,23.1-4.9c7.3,2,17,3.5,17.9,6,.8,2.7-5.2,12.4-14.2,12.7-8.9.6-24.6,4.7-28.4,0-3.7-4.5,1.6-13.8,1.6-13.8Z"/>
    </g>
  </g>
  <rect class="cls-47" x="1315.34" y="350.8" width="62.5" height="142.9"/>
  <rect class="cls-47" x="1254.04" y="415.9" width="191.2" height="54.9"/>
  <g>
    <path class="cls-9" d="M777.64,405.4l-13.8,6.8c-19.4,9.5-43,1.5-52.5-17.9l-29.5-60c-9.5-19.4-1.5-43,17.9-52.5l13.8-6.8c19.4-9.5,43-1.5,52.5,17.9l29.5,60c9.6,19.3,1.6,42.9-17.9,52.5ZM700.54,283.5c-18.4,9.1-26,31.4-17,49.9l29.5,60c9.1,18.4,31.4,26,49.9,17l13.8-6.8c18.4-9.1,26-31.4,17-49.9l-29.5-60c-9.1-18.4-31.4-26-49.9-17l-13.8,6.8Z"/>
    <path class="cls-9" d="M724.64,271.6l-34.3,16.9-11.7-23.9,34.3-16.9,11.7,23.9ZM691.24,285.9l30.8-15.2-10-20.3-30.8,15.2,10,20.3Z"/>
    <path class="cls-9" d="M796.04,353.7l-84.2,41.4-30.4-61.7,84.2-41.5,30.4,61.8ZM712.64,392.4l80.7-39.6-28.6-58.2-80.7,39.6,28.6,58.2Z"/>
  </g>
  <g>
    <path class="cls-9" d="M1253.34,262.4l-46.4-46.4c-4.6-4.6-4.7-12-.2-16.5l80.4-80.4c4.5-4.5,11.9-4.4,16.5.2l46.4,46.4c4.6,4.6,4.7,12,.2,16.5l-80.4,80.4c-4.6,4.5-11.9,4.5-16.5-.2ZM1301.74,121.2c-3.5-3.5-9.3-3.6-12.8-.2l-80.4,80.4c-3.5,3.5-3.4,9.2.2,12.8l46.4,46.4c3.5,3.5,9.3,3.6,12.8.2l80.4-80.4c3.5-3.5,3.4-9.2-.2-12.8l-46.4-46.4Z"/>
    <g>
      <path class="cls-9" d="M1228.24,213.7c-5.1-5.1-5.2-13.3-.2-18.4,5.1-5.1,13.2-5,18.4.2,5.1,5.1,5.2,13.3.2,18.4-5.1,5-13.3,4.9-18.4-.2ZM1244.44,197.4c-4.1-4.1-10.7-4.2-14.7-.2s-3.9,10.6.2,14.7,10.7,4.2,14.7.2c4-4.1,4-10.6-.2-14.7Z"/>
      <path class="cls-9" d="M1255.64,186.2c-5.1-5.1-5.2-13.3-.2-18.4,5.1-5.1,13.2-5,18.4.2,5.1,5.1,5.2,13.3.2,18.4-5.1,5.1-13.3,5-18.4-.2ZM1271.94,169.9c-4.1-4.1-10.7-4.2-14.7-.2s-3.9,10.6.2,14.7c4.1,4.1,10.7,4.2,14.7.2s3.9-10.6-.2-14.7Z"/>
      <path class="cls-9" d="M1283.04,158.9c-5.1-5.1-5.2-13.3-.2-18.4,5.1-5.1,13.2-5,18.4.2,5.1,5.1,5.2,13.3.2,18.4-5,4.9-13.3,4.8-18.4-.2ZM1299.34,142.5c-4.1-4.1-10.7-4.2-14.7-.2s-3.9,10.6.2,14.7c4.1,4.1,10.7,4.2,14.7.2,4-4.1,3.9-10.6-.2-14.7Z"/>
      <path class="cls-9" d="M1283.44,214.1c-5.1-5.1-5.2-13.3-.2-18.4,5.1-5.1,13.2-5,18.4.2,5.1,5.1,5.2,13.3.2,18.4-4.9,5.1-13.2,5-18.4-.2ZM1299.84,197.7c-4.1-4.1-10.7-4.2-14.7-.2s-3.9,10.6.2,14.7c4.1,4.1,10.7,4.2,14.7.2,4-3.9,3.9-10.6-.2-14.7Z"/>
      <g>
        <path class="cls-9" d="M1256.04,241.6c-5.1-5.1-5.2-13.3-.2-18.4,5.1-5.1,13.2-5,18.4.2,5.1,5.1,5.2,13.3.2,18.4-5,5-13.3,4.9-18.4-.2ZM1272.44,225.2c-4.1-4.1-10.7-4.2-14.7-.2s-3.9,10.6.2,14.7,10.7,4.2,14.7.2c4-4,3.9-10.6-.2-14.7Z"/>
        <path class="cls-9" d="M1310.94,186.7c-5.1-5.1-5.2-13.3-.2-18.4s13.2-5,18.4.2c5.1,5.1,5.2,13.3.2,18.4-5.1,5-13.3,4.9-18.4-.2ZM1327.34,170.4c-4.1-4.1-10.7-4.2-14.7-.2s-3.9,10.6.2,14.7c4.1,4.1,10.7,4.2,14.7.2s3.9-10.6-.2-14.7Z"/>
      </g>
    </g>
  </g>
  <path class="cls-9" d="M950.54,160.1c-.6,0-1.2-.2-1.7-.6l-23.5-17.3-6.5,6-82.1-87.8-2.3,2.1-7-7.4,10.6-9.9-23.3-24.7-5.8,5.4-7-7.4,19.7-18.5,7,7.4-5.8,5.4,23.1,24.8,10.6-9.9,7,7.4-2.3,2.1,82.1,87.8-6.5,6,15.8,24.6c.8,1.1.6,2.7-.5,3.6-.3.7-1,.9-1.6.9ZM924.94,137.5l22.9,16.9-15.3-23.9,6-5.6-82.1-87.8,2.3-2.1-2.1-2.2-10.7,9.9-28.1-30,5.8-5.4-2.1-2.2-14.5,13.6,2.1,2.2,5.8-5.4,28.1,30-10.6,9.9,2.1,2.2,2.3-2.1,82.1,87.8,6-5.8Z"/>
  <polygon class="cls-47" points="420.34 278.6 377.74 278.6 377.74 236 351.24 236 351.24 278.6 308.64 278.6 308.64 305.1 351.24 305.1 351.24 347.7 377.74 347.7 377.74 305.1 420.34 305.1 420.34 278.6"/>
  <polygon class="cls-47" points="233.94 824.5 208.74 811.1 222.14 785.9 206.44 777.5 193.04 802.7 167.84 789.3 159.44 805 184.64 818.4 171.24 843.6 186.94 852 200.34 826.8 225.54 840.2 233.94 824.5"/>
</svg>