<?xml version="1.0" encoding="utf-8"?>
<!-- Generator: Adobe Illustrator 22.0.1, SVG Export Plug-In . SVG Version: 6.00 Build 0)  -->
<svg version="1.1" id="Layer_1" xmlns="http://www.w3.org/2000/svg" xmlns:xlink="http://www.w3.org/1999/xlink" x="0px" y="0px"
	 viewBox="0 0 200 200" style="enable-background:new 0 0 200 200;" xml:space="preserve">
<style type="text/css">
	.st0{fill:#102E46;}
	.st1{fill:#4169EA;}
</style>
<g>
	<path class="st0" d="M128.4,93c-0.7,0-1.4-0.3-1.9-0.9c-0.8-1-0.6-2.5,0.4-3.3l22-17.4c1-0.8,2.5-0.6,3.3,0.4s0.6,2.5-0.4,3.3
		l-22,17.4C129.5,92.9,128.9,93,128.4,93L128.4,93z"/>
	<path class="st0" d="M84.7,180.8h29.8v-18.1H84.7V180.8L84.7,180.8z M116.9,185.6H82.3c-1.3,0-2.4-1.1-2.4-2.4v-22.8
		c0-1.3,1.1-2.4,2.4-2.4h34.5c1.3,0,2.4,1.1,2.4,2.4v22.8C119.2,184.5,118.2,185.6,116.9,185.6L116.9,185.6z"/>
	<path class="st0" d="M125.9,185.6H73.3c-1.3,0-2.4-1.1-2.4-2.4s1.1-2.4,2.4-2.4h52.6c1.3,0,2.4,1.1,2.4,2.4
		S127.2,185.6,125.9,185.6L125.9,185.6z"/>
	<path class="st0" d="M188.6,135.6h-23.4c-1.3,0-2.4-1.1-2.4-2.4c0-1.3,1.1-2.4,2.4-2.4h23.4c1.3,0,2.4,1.1,2.4,2.4
		C191,134.6,189.9,135.6,188.6,135.6L188.6,135.6z"/>
	<path class="st1" d="M138.8,148.9c-1.3,0-2.4-1.1-2.4-2.4c0-1.3,1-2.4,2.4-2.4l0,0c1.3,0,2.4,1.1,2.4,2.4
		C141.2,147.8,140.1,148.9,138.8,148.9L138.8,148.9z"/>
	<path class="st1" d="M147.6,148.9c-1.3,0-2.4-1.1-2.4-2.4c0-1.3,1-2.4,2.3-2.4h0.1c1.3,0,2.4,1.1,2.4,2.4
		C150,147.8,148.9,148.9,147.6,148.9L147.6,148.9z M156.5,148.9c-1.3,0-2.4-1.1-2.4-2.4c0-1.3,1-2.4,2.3-2.4h0.1
		c1.3,0,2.4,1.1,2.4,2.4C158.8,147.8,157.8,148.9,156.5,148.9L156.5,148.9z"/>
	<path class="st1" d="M165.3,148.9c-1.3,0-2.4-1.1-2.4-2.4c0-1.3,1-2.4,2.4-2.4l0,0c1.3,0,2.4,1.1,2.4,2.4
		C167.6,147.8,166.6,148.9,165.3,148.9L165.3,148.9z"/>
	<path class="st0" d="M23.5,20C17.7,20,13,24.7,13,30.5v116.9c0,5.8,4.7,10.6,10.6,10.6h152.2c5.8,0,10.6-4.7,10.6-10.6V30.5
		c0-5.8-4.7-10.6-10.6-10.6H23.5V20z M175.7,162.8H23.5c-8.4,0-15.3-6.9-15.3-15.3v-117c0-8.4,6.9-15.3,15.3-15.3h152.2
		c8.4,0,15.3,6.9,15.3,15.3v116.9C191,155.9,184.1,162.8,175.7,162.8L175.7,162.8z"/>
	<path class="st1" d="M61.2,58.8c-7.7,0-13.9,6.3-13.9,13.9v3.5c0,7.7,6.3,13.9,13.9,13.9S75.1,84,75.1,76.3v-3.5
		C75.1,65.1,68.9,58.8,61.2,58.8L61.2,58.8z M61.2,95c-10.3,0-18.7-8.4-18.7-18.7v-3.5c0-10.3,8.4-18.7,18.7-18.7
		s18.7,8.4,18.7,18.7v3.5C79.9,86.6,71.5,95,61.2,95L61.2,95z"/>
	<path class="st1" d="M37.1,130.9h48.1v-13c0-0.7,0.3-1.4,0.9-1.9s1.3-0.6,2-0.5l10.4,2.3c1.2,0.3,2.4,0,3.3-0.8l27.4-21.5L124,89
		l-23,17c-0.7,0.5-1.6,0.6-2.4,0.3l-18.6-8C75,96.1,68.7,95,61.2,95s-13.8,1.1-18.9,3.3c-3.2,1.4-5.2,4.4-5.2,7.9L37.1,130.9
		L37.1,130.9z M87.6,135.6H34.7c-1.3,0-2.4-1.1-2.4-2.4v-27.1c0-5.3,3.2-10.1,8.1-12.2c5.7-2.4,12.6-3.7,20.7-3.7s15.2,1.2,20.8,3.7
		l17.3,7.4L123,83.7c1-0.8,2.5-0.6,3.3,0.4l8.1,10.3c0.4,0.5,0.6,1.1,0.5,1.8c-0.1,0.6-0.4,1.2-0.9,1.6l-29.3,23
		c-2.1,1.6-4.7,2.2-7.3,1.7l-7.5-1.7v12.4C90,134.6,88.9,135.6,87.6,135.6L87.6,135.6z"/>
	<path class="st1" d="M188.6,107.3h-67.5c-1.3,0-2.4-1.1-2.4-2.4s1.1-2.4,2.4-2.4h67.5c1.3,0,2.4,1.1,2.4,2.4
		C191,106.3,189.9,107.3,188.6,107.3L188.6,107.3z"/>
	<path class="st1" d="M109.9,98.8c-1.3,0-2.4-1.1-2.4-2.4V42.9c0-1.3,1.1-2.4,2.4-2.4h65.9c1.3,0,2.4,1.1,2.4,2.4
		c0,1.3-1.1,2.4-2.4,2.4h-63.6v51.2C112.3,97.8,111.2,98.8,109.9,98.8L109.9,98.8z"/>
	<path class="st0" d="M147,135.6H10.6c-1.3,0-2.4-1.1-2.4-2.4c0-1.3,1.1-2.4,2.4-2.4H147c1.3,0,2.4,1.1,2.4,2.4
		C149.3,134.6,148.3,135.6,147,135.6L147,135.6z"/>
</g>
</svg>
