<?xml version="1.0" encoding="utf-8"?>
<!-- Generator: Adobe Illustrator 22.0.1, SVG Export Plug-In . SVG Version: 6.00 Build 0)  -->
<svg version="1.1" id="Layer_1" xmlns="http://www.w3.org/2000/svg" xmlns:xlink="http://www.w3.org/1999/xlink" x="0px" y="0px"
	 viewBox="0 0 400 400" style="enable-background:new 0 0 400 400;" xml:space="preserve">
<style type="text/css">
	.st0{fill:#042D46;}
	.st1{fill:#4169EA;}
</style>
<g>
	<path class="st0" d="M176.9,380.8c-41.9,0-83.7,0-125.6,0c-15.2,0-27.2-9.9-30.1-24.7c-0.4-1.9-0.4-4-0.4-6c0-53.7,0-107.5,0-161.2
		c0-17.6,13-30.6,30.5-30.7c4.4,0,8.8-0.2,13.1,0.1c3.5,0.2,4.5-1,4.4-4.4c-0.1-29.6-0.1-59.2-0.1-88.9c0-12.4,0-24.7,0-37.1
		c0-5.6,2.1-7.6,7.7-7.6c67,0,134,0,200.9,0c5.8,0,7.8,2,7.8,8c0,4.2,0.1,8.5,0,12.7c-0.1,2.4,0.8,3.4,3.2,3.3
		c4.4-0.1,8.7-0.1,13.1,0c5.6,0,7.7,2.1,7.7,7.7c0,27.6,0,55.2,0,82.9c0,5.4,0,5.4,5.2,5.4c10.7,0,21.5-0.1,32.2,0
		c18.6,0.2,34.9,17,34.5,35.5c-0.1,5.9-2.5,11.4-4.1,17.1c-14.3,51.9-28.6,103.8-42.9,155.7c-0.8,2.8-1,5.6-1.7,8.4
		c-3.1,14-15.1,23.7-29.3,23.8C261.1,380.8,219,380.8,176.9,380.8z M176.6,368.2c41.2,0,82.5,0,123.7,0c13.2,0,20.4-7.2,20.4-20.4
		c0-14.2,0-28.5,0-42.7c0-28.1,0-56.2,0-84.4c0-7.2-2.2-13.3-8.7-17.2c-3.6-2.2-7.7-2.7-11.9-2.7c-48.2,0-96.5,0-144.7,0.1
		c-3.7,0-6.4-1.1-8.9-3.7c-7.7-8-15.7-15.7-23.5-23.7c-1.9-1.9-3.9-2.7-6.6-2.7c-20.9,0.1-41.7,0-62.6,0.1
		c-13.5,0-20.6,7.1-20.6,20.6c0,17.5,0,35,0,52.5c0,34.7,0,69.5,0,104.2c0,6.6,1.7,12.3,7.3,16.5c3.9,2.9,8.4,3.6,13.1,3.6
		C94.6,368.2,135.6,368.2,176.6,368.2z M177.3,32.8c-30.6,0-61.2,0-91.9,0c-2.9,0-4.2,0.6-4.2,3.9c0.1,39.2,0.1,78.5,0,117.7
		c0,3.3,1.3,3.9,4.2,3.9c11.9-0.1,23.7,0,35.6-0.1c3.2,0,5.7,0.9,8,3.3c7.9,8,15.9,15.9,23.8,23.9c2,2,4,2.9,6.9,2.9
		c36.1-0.1,72.2-0.1,108.4,0c3.9,0,4.8-1.2,4.8-4.9c-0.1-48.6-0.1-97.2,0-145.9c0-3.8-0.9-4.9-4.8-4.9
		C237.8,32.8,207.5,32.8,177.3,32.8z M333.3,302.8c0.4-0.9,0.6-1.2,0.7-1.6c11.3-40.9,22.6-81.8,33.9-122.7c0.5-1.8,0.6-3.6,0.4-5.5
		c-1.4-10-9.1-18.1-19.1-19.4c-12.4-1.6-24.9-0.4-37.4-0.7c-2.4-0.1-2.4,1.6-2.4,3.3c0,9.9,0.1,19.7,0,29.6c0,2.4,1,3.2,3,3.9
		c13.6,4.8,21,15.4,21,29.9C333.3,247,333.3,274.5,333.3,302.8z M285.3,122.5c0,6.4,0,12.7,0,19.1c0,14.2,0.1,28.5-0.1,42.7
		c0,2.9,0.8,4.3,3.8,3.9c0.7-0.1,1.5,0,2.2,0c5.5,0,5.5,0,5.5-5.5c0-39.6,0-79.2,0-118.9c0-7.9,1-6.8-6.9-7.1
		c-3.7-0.1-4.6,1.1-4.6,4.7C285.3,81.8,285.3,102.1,285.3,122.5z"/>
	<path class="st1" d="M110.7,284.5c0-6.9,0-13.7,0-20.6c0-8.4,1.3-9.7,9.9-9.7c7.5,0,15-0.1,22.5,0c2.7,0.1,3.8-0.8,3.7-3.6
		c-0.1-8.2-0.1-16.5,0-24.7c0-5.6,2.1-7.6,7.7-7.7c15,0,30,0,45,0c5.8,0,7.8,2,7.8,8c0,8.1,0.1,16.2,0,24.4c0,2.7,0.8,3.8,3.6,3.7
		c8.2-0.1,16.5-0.1,24.7,0c5.6,0,7.6,2.1,7.7,7.7c0,15,0,30,0,45c0,5.8-2,7.8-8,7.8c-8.1,0-16.2,0.1-24.4,0c-2.7,0-3.8,0.8-3.7,3.6
		c0.1,8.2,0.1,16.5,0,24.7c0,5.6-2.1,7.6-7.7,7.7c-15,0-30,0-45,0c-5.8,0-7.8-2-7.8-8c0-8.1-0.1-16.2,0-24.4c0-2.8-0.8-3.7-3.7-3.7
		c-8.2,0.1-16.5,0.1-24.7,0c-5.6,0-7.6-2.1-7.6-7.7C110.7,299.5,110.7,292,110.7,284.5z M177.2,230.8c-4.5,0-9,0.2-13.5-0.1
		c-3.4-0.2-4.6,0.8-4.5,4.4c0.3,8.1,0.1,16.2,0.1,24.4c0,5.1-2.2,7.3-7.3,7.3c-8.2,0.1-16.5,0.1-24.7,0c-2.8,0-4.1,0.6-4,3.7
		c0.2,9.4,0.2,18.7,0,28.1c-0.1,3.1,1.2,3.8,4,3.7c8.2-0.1,16.5-0.1,24.7,0c5.1,0,7.3,2.2,7.3,7.3c0.1,8.2,0.1,16.5,0,24.7
		c0,2.8,0.6,4.1,3.7,4c9.4-0.2,18.7-0.2,28.1,0c3.1,0.1,3.8-1.2,3.7-4c-0.1-8.2-0.1-16.5,0-24.7c0-5.2,2.2-7.3,7.3-7.3
		c8.2-0.1,16.5-0.1,24.7,0c2.8,0,4.1-0.6,4-3.7c-0.2-9.4-0.2-18.7,0-28.1c0.1-3.1-1.2-3.8-4-3.7c-8.1,0.1-16.2,0.1-24.4,0
		c-5.6,0-7.7-2.1-7.7-7.7c0-8.1-0.1-16.2,0.1-24.4c0.1-3.2-1.1-4.1-4.1-4C186.2,230.9,181.7,230.8,177.2,230.8z"/>
	<path class="st1" d="M92.8,128.8c0-2.4,0-4.7,0-7.1c0.2-9.4,7.8-17.1,17.2-17.4c2.1-0.1,4.3,0.1,6.4-0.1c5.6-0.5,7.9-5.1,4.7-9.8
		c-2.9-4.3-4.5-8.9-4.3-14.1c0.1-4.2,0-8.5,0-12.7c0.2-13,11.1-23.3,24.4-23.3c13.1,0,23.8,10.4,24.1,23.3c0.1,4-0.1,8,0.1,12
		c0.2,5.6-1.4,10.6-4.5,15.1c-2.8,4.1-0.8,8.7,4.1,9.4c2.1,0.3,4.2,0.1,6.4,0.2c10.1,0.2,17.8,7.7,18,17.8c0.1,5.1,0,10.2,0,15.4
		c0,2.3-0.7,3.4-3.2,3.4c-11.3-0.2-9.1,1.3-9.3-8.9c-0.1-2.6,0.1-5.3,0-7.9c-0.2-4.9-2.3-7-7.2-7.2c-1.2-0.1-2.5,0-3.7,0
		c-7.7,0.1-13.5-3.2-17.1-10c-0.9-1.8-1.9-2.2-4-2.3c-6.5-0.4-11.5,0.5-15.2,7c-2.4,4.2-7.9,5.3-13,5.3c-10.4,0-11.3,1-11.3,11.4
		c0,2.9,0,5.7,0,8.6c0,0.7,0.2,1.7-0.2,2.2c-2.6,3.7-6.4,1.1-9.5,1.7c-2.1,0.4-2.9-0.9-2.8-2.9C92.8,134.8,92.8,131.8,92.8,128.8z
		 M129.2,74.2c0.2,2.9-0.2,5.7,0.5,8.6c1.3,5.3,6.1,9.3,11.2,9.4c5.2,0,10.2-3.9,11.2-9.3c1.1-5.7,1.1-11.4-0.1-17.1
		c-1.1-5.2-6-9-11.1-9c-5.1,0-9.8,3.7-11.2,8.8C129,68.5,129.4,71.4,129.2,74.2z"/>
	<path class="st0" d="M230.9,80.8c-7.6,0-15.2,0-22.8,0c-5.1,0-7.2-2.2-7.3-7.4c0-7.4-0.1-14.7,0-22.1c0-4.9,2.2-7,7.2-7
		c15.3,0,30.7,0,46,0c5.1,0,7.2,2.2,7.3,7.3c0,7.4,0.1,14.7,0,22.1c0,4.9-2.2,7-7.2,7.1C246.3,80.8,238.6,80.8,230.9,80.8z
		 M230.8,68.2c3.4,0,6.8,0,10.1,0c8.9-0.2,7.7,1.5,7.9-8c0.1-2.6-0.9-3.5-3.5-3.5c-8,0.1-16,0-24,0.1c-9.1,0.1-7.9-1.7-8.1,8.2
		c0,2.4,0.9,3.3,3.3,3.3C221.3,68.1,226,68.2,230.8,68.2z"/>
	<path class="st0" d="M230.6,104.8c-8.6,0-17.2-0.1-25.8,0.1c-3.1,0.1-4.2-1-4.1-4.1c0.3-9.9-1.1-8.4,8.2-8.5
		c16-0.1,32,0.1,47.9-0.1c3.4,0,4.6,1,4.5,4.5c-0.3,9.4,1.1,8-8.2,8.1C245.6,104.8,238.1,104.8,230.6,104.8z"/>
	<path class="st0" d="M231,128.8c-8.7,0-17.5-0.1-26.2,0.1c-3.1,0.1-4.2-0.9-4.1-4c0.3-10.1-1.2-8.4,8.6-8.5
		c15.9-0.1,31.7,0.1,47.6-0.1c3.4,0,4.6,0.9,4.5,4.4c-0.3,9.5,1,8-8.2,8.1C245.8,128.8,238.4,128.8,231,128.8z"/>
	<path class="st0" d="M231.4,140.2c8.6,0,17.2,0.1,25.8-0.1c3.1-0.1,4.2,1,4.1,4.1c-0.3,9.9,1.1,8.4-8.2,8.5
		c-16,0.1-32-0.1-47.9,0.1c-3.4,0-4.6-1-4.5-4.5c0.3-9.4-1.1-8,8.2-8.1C216.4,140.2,223.9,140.2,231.4,140.2z"/>
	<path class="st0" d="M231,176.8c-8.7,0-17.5-0.1-26.2,0.1c-3.1,0.1-4.2-0.9-4.1-4c0.3-10.1-1.2-8.4,8.6-8.5
		c15.9-0.1,31.7,0.1,47.6-0.1c3.4,0,4.6,0.9,4.5,4.4c-0.3,9.5,1,8-8.2,8.1C245.8,176.8,238.4,176.8,231,176.8z"/>
</g>
</svg>
