<?xml version="1.0" encoding="utf-8"?>
<!-- Generator: Adobe Illustrator 22.0.1, SVG Export Plug-In . SVG Version: 6.00 Build 0)  -->
<svg version="1.1" id="Layer_1" xmlns="http://www.w3.org/2000/svg" xmlns:xlink="http://www.w3.org/1999/xlink" x="0px" y="0px"
	 viewBox="0 0 200 200" style="enable-background:new 0 0 200 200;" xml:space="preserve">
<style type="text/css">
	.st0{fill:#102E46;}
	.st1{fill:#4169EA;}
</style>
<g>
	<path class="st0" d="M16.1,183.2h138.5v-36.7c-3.2-2.7-5.7-4.5-6.8-5.3h-17.1l8.4,23.6c1.2,3.4,0.7,7.1-1.4,10
		c-2.1,2.9-5.4,4.7-9,4.7c-4.5,0-8.5-2.7-10.2-6.9L106,141.2c-9.5-0.8-17.1-8.9-17.1-18.6c0-10.3,8.4-18.7,18.7-18.7h40.1
		c1.1-0.7,3.6-2.6,6.8-5.3V36.5H16.1V183.2L16.1,183.2z M156.9,187.9H13.7c-1.3,0-2.3-1-2.3-2.3V34.2c0-1.3,1-2.3,2.3-2.3h143.2
		c1.3,0,2.3,1,2.3,2.3v65.5c0,0.7-0.3,1.3-0.8,1.8c-4.9,4.3-8.6,6.7-8.7,6.8c-0.4,0.2-0.8,0.4-1.3,0.4h-40.8c-7.7,0-14,6.3-14,14
		s6.3,14,14,14c1,0,1.8,0.6,2.2,1.5l13.1,32.8c1,2.4,3.2,4,5.8,4c2.1,0,3.9-1,5.1-2.7c1.2-1.7,1.5-3.8,0.8-5.7l-9.6-26.7
		c-0.3-0.7-0.1-1.5,0.3-2.1s1.2-1,1.9-1h21.2c0.5,0,0.9,0.1,1.3,0.4c0.2,0.1,3.8,2.5,8.7,6.8c0.5,0.4,0.8,1.1,0.8,1.8v40.1
		C159.3,186.8,158.2,187.9,156.9,187.9L156.9,187.9z"/>
	<path class="st1" d="M57.3,51.1c-15.3,0-27.8,12.5-27.8,27.8s12.5,27.8,27.8,27.8s27.8-12.5,27.8-27.8
		C85.1,63.5,72.7,51.1,57.3,51.1L57.3,51.1z M57.3,111.4c-17.9,0-32.5-14.6-32.5-32.5s14.6-32.5,32.5-32.5S89.8,61,89.8,78.9
		S75.3,111.4,57.3,111.4L57.3,111.4z"/>
	<path class="st1" d="M57.3,70.4c-4.7,0-8.5,3.8-8.5,8.5s3.8,8.5,8.5,8.5s8.5-3.8,8.5-8.5C65.9,74.2,62,70.4,57.3,70.4L57.3,70.4z
		 M57.3,92.1c-7.3,0-13.2-5.9-13.2-13.2c0-7.3,5.9-13.2,13.2-13.2s13.2,5.9,13.2,13.2C70.6,86.2,64.6,92.1,57.3,92.1L57.3,92.1z"/>
	<path class="st1" d="M57.3,70.4c-1.3,0-2.3-1.1-2.3-2.3V48.7c0-1.3,1-2.3,2.3-2.3s2.3,1,2.3,2.3V68C59.7,69.3,58.6,70.4,57.3,70.4
		L57.3,70.4z"/>
	<path class="st1" d="M87.5,81.2H68.2c-1.3,0-2.3-1-2.3-2.3s1-2.3,2.3-2.3h19.3c1.3,0,2.3,1,2.3,2.3S88.8,81.2,87.5,81.2L87.5,81.2z
		"/>
	<path class="st1" d="M36.1,102.6c-0.6,0-1.2-0.2-1.7-0.7c-0.9-0.9-0.9-2.4,0-3.3L48,85c0.9-0.9,2.4-0.9,3.3,0
		c0.9,0.9,0.9,2.4,0,3.3l-13.6,13.6C37.3,102.3,36.7,102.6,36.1,102.6L36.1,102.6z"/>
	<path class="st0" d="M16.1,31.8h138.5v-16H16.1V31.8L16.1,31.8z M156.9,36.5H13.7c-1.3,0-2.3-1-2.3-2.3V13.5c0-1.3,1-2.3,2.3-2.3
		h143.2c1.3,0,2.3,1.1,2.3,2.3v20.7C159.3,35.5,158.2,36.5,156.9,36.5L156.9,36.5z"/>
	<path class="st0" d="M24.5,26.2c-1.3,0-2.4-1-2.4-2.3s1-2.3,2.3-2.3l0,0c1.3,0,2.3,1.1,2.3,2.3C26.9,25.1,25.8,26.2,24.5,26.2
		L24.5,26.2z"/>
	<path class="st0" d="M33.1,26.2c-1.3,0-2.4-1-2.4-2.3s1-2.3,2.3-2.3h0.1c1.3,0,2.3,1.1,2.3,2.3C35.5,25.1,34.4,26.2,33.1,26.2
		L33.1,26.2z M41.8,26.2c-1.3,0-2.4-1-2.4-2.3s1-2.3,2.3-2.3h0.1c1.3,0,2.3,1.1,2.3,2.3C44.1,25.1,43.1,26.2,41.8,26.2L41.8,26.2z
		 M50.4,26.2c-1.3,0-2.4-1-2.4-2.3s1-2.3,2.3-2.3h0.1c1.3,0,2.3,1.1,2.3,2.3C52.7,25.1,51.7,26.2,50.4,26.2L50.4,26.2z"/>
	<path class="st0" d="M59,26.2c-1.3,0-2.4-1-2.4-2.3s1-2.3,2.3-2.3l0,0c1.3,0,2.3,1.1,2.3,2.3C61.3,25.1,60.3,26.2,59,26.2L59,26.2z
		"/>
	<path class="st1" d="M107.7,108.6c-7.7,0-14,6.3-14,14s6.3,14,14,14h38.5v-28L107.7,108.6L107.7,108.6z M148.5,141.2h-40.8
		c-10.3,0-18.7-8.4-18.7-18.7s8.4-18.7,18.7-18.7h40.8c1.3,0,2.3,1,2.3,2.3v32.6C150.8,140.2,149.8,141.2,148.5,141.2L148.5,141.2z"
		/>
	<path class="st1" d="M101.8,119h-9.1c-1.3,0-2.3-1-2.3-2.3s1-2.3,2.3-2.3h9.1c1.3,0,2.3,1,2.3,2.3C104.2,117.9,103.1,119,101.8,119
		L101.8,119z"/>
	<path class="st1" d="M101.8,131.2h-9.1c-1.3,0-2.3-1-2.3-2.3s1-2.3,2.3-2.3h9.1c1.3,0,2.3,1,2.3,2.3
		C104.2,130.1,103.1,131.2,101.8,131.2L101.8,131.2z"/>
	<path class="st1" d="M177.5,175.7c-1,0-1.9-0.6-2.2-1.5c-7.3-19.7-27.9-33.2-28.1-33.3c-1.1-0.7-1.4-2.2-0.7-3.2
		c0.7-1.1,2.2-1.4,3.2-0.7c0.8,0.5,16,10.5,25.4,26.2V82c-9.4,15.8-24.7,25.8-25.4,26.2c-1.1,0.7-2.5,0.4-3.2-0.7s-0.4-2.5,0.7-3.2
		c0.2-0.1,20.9-13.7,28.1-33.3c0.4-1.1,1.5-1.7,2.6-1.5s1.9,1.2,1.9,2.3v101.6c0,1.1-0.8,2.1-1.9,2.3
		C177.8,175.7,177.7,175.7,177.5,175.7L177.5,175.7z"/>
	<path class="st1" d="M177.5,137c-1.3,0-2.3-1-2.3-2.3s1-2.3,2.3-2.3c5.4,0,9.7-4.4,9.7-9.7c0-5.4-4.4-9.7-9.7-9.7
		c-1.3,0-2.3-1-2.3-2.3s1-2.3,2.3-2.3c7.9,0,14.4,6.5,14.4,14.4S185.5,137,177.5,137L177.5,137z"/>
	<path class="st1" d="M128.8,179.5c-4.5,0-8.5-2.7-10.2-6.9l-13.1-32.8c-0.5-1.2,0.1-2.6,1.3-3c1.2-0.5,2.6,0.1,3,1.3l13.1,32.8
		c1,2.4,3.2,4,5.8,4c2.1,0,3.9-1,5.1-2.7c1.2-1.7,1.5-3.8,0.8-5.7l-9.6-26.7c-0.4-1.2,0.2-2.6,1.4-3c1.2-0.4,2.6,0.2,3,1.4l9.6,26.7
		c1.2,3.4,0.7,7.1-1.4,10C135.7,177.7,132.4,179.5,128.8,179.5L128.8,179.5z"/>
	<path class="st0" d="M145.6,95.8H104c-1.3,0-2.3-1-2.3-2.3s1-2.3,2.3-2.3h41.6c1.3,0,2.3,1,2.3,2.3
		C147.9,94.7,146.9,95.8,145.6,95.8L145.6,95.8z"/>
	<path class="st0" d="M107.7,95.8c-1.3,0-2.3-1-2.3-2.3V64.2c0-1.3,1-2.3,2.3-2.3s2.3,1,2.3,2.3v29.3C110,94.7,109,95.8,107.7,95.8
		L107.7,95.8z"/>
	<path class="st0" d="M119.2,95.8c-1.3,0-2.3-1-2.3-2.3V75.8c0-1.3,1-2.3,2.3-2.3s2.3,1,2.3,2.3v17.6
		C121.5,94.7,120.5,95.8,119.2,95.8L119.2,95.8z"/>
	<path class="st0" d="M130.7,95.8c-1.3,0-2.3-1-2.3-2.3V68c0-1.3,1-2.3,2.3-2.3s2.3,1,2.3,2.3v25.4C133.1,94.7,132,95.8,130.7,95.8
		L130.7,95.8z"/>
	<path class="st0" d="M142.2,95.8c-1.3,0-2.3-1-2.3-2.3V56.2c0-1.3,1-2.3,2.3-2.3s2.3,1,2.3,2.3v37.2
		C144.6,94.7,143.5,95.8,142.2,95.8L142.2,95.8z"/>
	<path class="st0" d="M89.5,172.4h-59c-1.3,0-2.3-1-2.3-2.3v-47.5c0-1.3,1-2.3,2.3-2.3s2.3,1,2.3,2.3v45.2h56.6c1.3,0,2.3,1,2.3,2.3
		C91.9,171.4,90.8,172.4,89.5,172.4L89.5,172.4z"/>
	<path class="st0" d="M30.5,165.7c-0.4,0-0.8-0.1-1.1-0.3c-1.1-0.6-1.6-2-0.9-3.2l10.8-19.7c0.4-0.7,1.1-1.1,1.9-1.2
		c0.8-0.1,1.6,0.3,2,0.9l7.5,9.5l9.4-16.3c0.4-0.7,1.1-1.1,1.9-1.2c0.8,0,1.5,0.3,2,0.9l7.1,9.4l8-3.1c1.2-0.5,2.6,0.1,3,1.3
		c0.5,1.2-0.1,2.6-1.3,3l-9.6,3.7c-1,0.4-2.1,0.1-2.7-0.8l-6-7.9L53,157.2c-0.4,0.7-1.1,1.1-1.9,1.2c-0.8,0.1-1.5-0.3-2-0.9
		l-7.5-9.5l-9.1,16.6C32.2,165.3,31.4,165.7,30.5,165.7L30.5,165.7z"/>
</g>
</svg>
