<?xml version="1.0" encoding="utf-8"?>
<!-- Generator: Adobe Illustrator 22.0.1, SVG Export Plug-In . SVG Version: 6.00 Build 0)  -->
<svg version="1.1" id="Layer_1" xmlns="http://www.w3.org/2000/svg" xmlns:xlink="http://www.w3.org/1999/xlink" x="0px" y="0px"
	 viewBox="0 0 200 200" style="enable-background:new 0 0 200 200;" xml:space="preserve">
<style type="text/css">
	.st0{fill:#102E46;}
	.st1{fill:#4169EA;}
</style>
<g>
	<path class="st0" d="M40.4,40.7h65.2V22.9H83.5c-1,0-1.8-0.6-2.2-1.5c-1.4-3.4-4.6-5.6-8.3-5.6c-3.7,0-6.9,2.2-8.3,5.6
		c-0.4,0.9-1.2,1.5-2.2,1.5H40.4V40.7L40.4,40.7z M108,45.4H38c-1.3,0-2.4-1.1-2.4-2.4V20.5c0-1.3,1.1-2.4,2.4-2.4h23
		c2.4-4.3,7-7.1,12-7.1s9.6,2.7,12,7.1h23c1.3,0,2.4,1.1,2.4,2.4V43C110.4,44.3,109.3,45.4,108,45.4L108,45.4z"/>
	<path class="st0" d="M18.8,28.2c-2.8,0-5.1,2.3-5.1,5.1v146.4c0,2.8,2.3,5.1,5.1,5.1h108.4c2.8,0,5.1-2.3,5.1-5.1V33.3
		c0-2.8-2.3-5.1-5.1-5.1h-16.9V43c0,1.3-1.1,2.4-2.4,2.4H38c-1.3,0-2.4-1.1-2.4-2.4V28.2H18.8L18.8,28.2z M127.2,189.5H18.8
		c-5.4,0-9.8-4.4-9.8-9.8V33.3c0-5.4,4.4-9.8,9.8-9.8H38c1.3,0,2.4,1.1,2.4,2.4v14.8h65.2V25.8c0-1.3,1.1-2.4,2.4-2.4h19.2
		c5.4,0,9.8,4.4,9.8,9.8v146.4C137,185.1,132.6,189.5,127.2,189.5L127.2,189.5z"/>
	<path class="st1" d="M58.2,60.2c-14.7,0-26.7,12-26.7,26.7s12,26.7,26.7,26.7s26.7-12,26.7-26.7C84.9,72.2,72.9,60.2,58.2,60.2
		L58.2,60.2z M58.2,118.3c-17.3,0-31.4-14.1-31.4-31.4s14.1-31.4,31.4-31.4s31.4,14.1,31.4,31.4S75.5,118.3,58.2,118.3L58.2,118.3z"
		/>
	<path class="st1" d="M84.2,102.2c-0.4,0-0.7-0.1-1-0.2l-26-13c-0.8-0.4-1.3-1.2-1.3-2.1v-29c0-1.3,1.1-2.4,2.4-2.4s2.4,1.1,2.4,2.4
		v27.6l24.7,12.2c1.2,0.6,1.6,2,1.1,3.2C85.9,101.7,85.1,102.2,84.2,102.2L84.2,102.2z"/>
	<path class="st1" d="M58.2,73.3c-0.6,0-1.2-0.2-1.7-0.7c-0.9-0.9-0.9-2.4,0-3.3l10.7-10.7c0.9-0.9,2.4-0.9,3.3,0s0.9,2.4,0,3.3
		L59.9,72.6C59.4,73.1,58.8,73.3,58.2,73.3L58.2,73.3z"/>
	<path class="st1" d="M58.2,85.2c-0.6,0-1.2-0.2-1.7-0.7c-0.9-0.9-0.9-2.4,0-3.3l17.9-17.9c0.9-0.9,2.4-0.9,3.3,0s0.9,2.4,0,3.3
		L59.9,84.5C59.4,85,58.8,85.2,58.2,85.2L58.2,85.2z"/>
	<path class="st1" d="M63.6,91.7c-0.6,0-1.2-0.2-1.7-0.7c-0.9-0.9-0.9-2.4,0-3.3l18.3-18.3c0.9-0.9,2.4-0.9,3.3,0s0.9,2.4,0,3.3
		L65.3,91C64.8,91.4,64.2,91.7,63.6,91.7L63.6,91.7z"/>
	<path class="st1" d="M71.9,95.2c-0.6,0-1.2-0.2-1.7-0.7c-0.9-0.9-0.9-2.4,0-3.3L84.4,77c0.9-0.9,2.4-0.9,3.3,0s0.9,2.4,0,3.3
		L73.6,94.5C73.1,95,72.5,95.2,71.9,95.2L71.9,95.2z"/>
	<path class="st1" d="M79.5,99.4c-0.6,0-1.2-0.2-1.7-0.7c-0.9-0.9-0.9-2.4,0-3.3l7.2-7.2c0.9-0.9,2.4-0.9,3.3,0s0.9,2.4,0,3.3
		l-7.2,7.2C80.8,99.2,80.2,99.4,79.5,99.4L79.5,99.4z"/>
	<path class="st0" d="M30.6,151.5h9.1v-6.9h-9.1V151.5L30.6,151.5z M42.1,156.3H28.2c-1.3,0-2.4-1.1-2.4-2.4v-11.6
		c0-1.3,1.1-2.4,2.4-2.4H42c1.3,0,2.4,1.1,2.4,2.4v11.6C44.4,155.2,43.4,156.3,42.1,156.3L42.1,156.3z"/>
	<path class="st1" d="M56,151.5h9.1v-14.1H56V151.5L56,151.5z M67.5,156.3H53.7c-1.3,0-2.4-1.1-2.4-2.4v-18.8c0-1.3,1.1-2.4,2.4-2.4
		h13.8c1.3,0,2.4,1.1,2.4,2.4v18.8C69.9,155.2,68.8,156.3,67.5,156.3L67.5,156.3z"/>
	<path class="st0" d="M81.5,151.5h9.1v-27.4h-9.1V151.5L81.5,151.5z M93,156.3H79.1c-1.3,0-2.4-1.1-2.4-2.4v-32.1
		c0-1.3,1.1-2.4,2.4-2.4H93c1.3,0,2.4,1.1,2.4,2.4v32.1C95.3,155.2,94.3,156.3,93,156.3L93,156.3z"/>
	<path class="st1" d="M106.9,151.5h9.1V82.2h-9.1V151.5L106.9,151.5z M118.4,156.3h-13.8c-1.3,0-2.4-1.1-2.4-2.4V79.8
		c0-1.3,1.1-2.4,2.4-2.4h13.8c1.3,0,2.4,1.1,2.4,2.4v74.1C120.8,155.2,119.7,156.3,118.4,156.3L118.4,156.3z"/>
	<path class="st0" d="M28,170.5c-1.3,0-2.4-1.1-2.4-2.4c0-1.3,1-2.4,2.3-2.4l0,0c1.3,0,2.4,1.1,2.4,2.4
		C30.4,169.4,29.3,170.5,28,170.5L28,170.5z"/>
	<path class="st0" d="M37.1,170.5c-1.3,0-2.4-1.1-2.4-2.4c0-1.3,1-2.4,2.3-2.4h0.1c1.3,0,2.4,1.1,2.4,2.4
		C39.4,169.4,38.4,170.5,37.1,170.5L37.1,170.5z M46.1,170.5c-1.3,0-2.4-1.1-2.4-2.4c0-1.3,1-2.4,2.3-2.4h0.1c1.3,0,2.4,1.1,2.4,2.4
		C48.5,169.4,47.4,170.5,46.1,170.5L46.1,170.5z M55.2,170.5c-1.3,0-2.4-1.1-2.4-2.4c0-1.3,1-2.4,2.3-2.4h0.1c1.3,0,2.4,1.1,2.4,2.4
		S56.5,170.5,55.2,170.5L55.2,170.5z M64.3,170.5c-1.3,0-2.4-1.1-2.4-2.4c0-1.3,1-2.4,2.3-2.4h0.1c1.3,0,2.4,1.1,2.4,2.4
		C66.6,169.4,65.6,170.5,64.3,170.5L64.3,170.5z M73.3,170.5c-1.3,0-2.4-1.1-2.4-2.4c0-1.3,1-2.4,2.3-2.4h0.1c1.3,0,2.4,1.1,2.4,2.4
		C75.7,169.4,74.7,170.5,73.3,170.5L73.3,170.5z M82.4,170.5c-1.3,0-2.4-1.1-2.4-2.4c0-1.3,1-2.4,2.3-2.4h0.1c1.3,0,2.4,1.1,2.4,2.4
		S83.7,170.5,82.4,170.5L82.4,170.5z M91.5,170.5c-1.3,0-2.4-1.1-2.4-2.4c0-1.3,1-2.4,2.3-2.4h0.1c1.3,0,2.4,1.1,2.4,2.4
		S92.8,170.5,91.5,170.5L91.5,170.5z M100.6,170.5c-1.3,0-2.4-1.1-2.4-2.4c0-1.3,1-2.4,2.3-2.4h0.1c1.3,0,2.4,1.1,2.4,2.4
		C102.9,169.4,101.9,170.5,100.6,170.5L100.6,170.5z M109.6,170.5c-1.3,0-2.4-1.1-2.4-2.4c0-1.3,1-2.4,2.3-2.4h0.1
		c1.3,0,2.4,1.1,2.4,2.4S110.9,170.5,109.6,170.5L109.6,170.5z"/>
	<path class="st0" d="M118.7,170.5c-1.3,0-2.4-1.1-2.4-2.4c0-1.3,1-2.4,2.3-2.4l0,0c1.3,0,2.4,1.1,2.4,2.4S120,170.5,118.7,170.5
		L118.7,170.5z"/>
	<path class="st1" d="M170.9,185.3c-1.3,0-2.4-1.1-2.4-2.4v-5.3c0-1.3,1.1-2.4,2.4-2.4c1.3,0,2.4,1.1,2.4,2.4v5.3
		C173.2,184.3,172.2,185.3,170.9,185.3L170.9,185.3z"/>
	<path class="st1" d="M170.9,27c-2.6,0-4.8,2.1-4.8,4.8v126.4c0,4.2,1.1,8.3,3.2,11.9l1.6,2.8l1.6-2.8c2.1-3.6,3.2-7.7,3.2-11.9
		V31.8C175.6,29.2,173.5,27,170.9,27L170.9,27z M170.9,180c-0.8,0-1.6-0.5-2.1-1.2l-3.6-6.4c-2.5-4.3-3.8-9.3-3.8-14.3V31.8
		c0-5.2,4.3-9.5,9.5-9.5s9.5,4.3,9.5,9.5v126.4c0,5-1.3,9.9-3.8,14.3l-3.6,6.4C172.5,179.5,171.7,180,170.9,180L170.9,180z"/>
	<path class="st1" d="M188.6,95.8c-1.3,0-2.4-1.1-2.4-2.4V53.1h-22.5c-1.3,0-2.4-1.1-2.4-2.4s1.1-2.4,2.4-2.4h24.9
		c1.3,0,2.4,1.1,2.4,2.4v42.7C191,94.7,189.9,95.8,188.6,95.8L188.6,95.8z"/>
</g>
</svg>
