<svg xmlns="http://www.w3.org/2000/svg" viewBox="0 0 55.68 65.7"><defs><style>.cls-1{isolation:isolate;}.cls-2{fill:#5069b0;}.cls-3{mix-blend-mode:multiply;}</style></defs><g class="cls-1"><g id="Layer_2" data-name="Layer 2"><g id="Text"><path class="cls-2" d="M55.35,48.48a2.87,2.87,0,0,1-1,3.74l-17,11.53a7.24,7.24,0,0,1-6.34.88L18.79,60.55a7.15,7.15,0,0,0-5.74.52L5.51,49.75l5.89-3.62A11.26,11.26,0,0,1,20.91,45l14.88,5a3.23,3.23,0,0,1,2,4.12v0a3.23,3.23,0,0,1-3.91,2L23.1,52.67a.93.93,0,0,0-.58,1.76L33.34,58h0a5.05,5.05,0,0,0,6-2.86l11.87-7.7A2.81,2.81,0,0,1,52.84,47,2.84,2.84,0,0,1,55.35,48.48Z"/><path class="cls-2" d="M12.5,63.59a.31.31,0,0,1,.05.23.32.32,0,0,1-.13.19L10,65.64a.31.31,0,0,1-.23,0,.32.32,0,0,1-.19-.13L.05,51.31a.31.31,0,0,1,.08-.42l2.46-1.64a.29.29,0,0,1,.16,0h.06a.31.31,0,0,1,.2.13Z"/><g class="cls-3"><path class="cls-2" d="M55.35,48.48a2.87,2.87,0,0,1-1,3.74l-17,11.53a7.24,7.24,0,0,1-6.34.88L18.79,60.55a7.15,7.15,0,0,0-5.74.52L5.51,49.75l5.89-3.62A11.26,11.26,0,0,1,20.91,45l14.88,5a3.23,3.23,0,0,1,2,4.12v0a3.23,3.23,0,0,1-3.91,2L23.1,52.67a.93.93,0,0,0-.58,1.76L33.34,58h0a5.05,5.05,0,0,0,6-2.86l11.87-7.7A2.81,2.81,0,0,1,52.84,47,2.84,2.84,0,0,1,55.35,48.48Z"/><path class="cls-2" d="M12.5,63.59a.31.31,0,0,1,.05.23.32.32,0,0,1-.13.19L10,65.64a.31.31,0,0,1-.23,0,.32.32,0,0,1-.19-.13L.05,51.31a.31.31,0,0,1,.08-.42l2.46-1.64a.29.29,0,0,1,.16,0h.06a.31.31,0,0,1,.2.13Z"/></g><path class="cls-2" d="M52.4,17.84a.51.51,0,0,1-.19.58l-14,10.19a.91.91,0,0,0-.33,1l5.35,16.47a.52.52,0,0,1-.19.59.49.49,0,0,1-.62,0l-14-10.18a.92.92,0,0,0-1.09,0l-8.49,6.16a13.06,13.06,0,0,0-5.38.51l4.4-13.55a.92.92,0,0,0-.34-1l-14-10.19a.5.5,0,0,1-.19-.58.51.51,0,0,1,.5-.36H21.11a.92.92,0,0,0,.88-.64L27.34.36a.5.5,0,0,1,.5-.36.5.5,0,0,1,.5.36l5.35,16.48a.94.94,0,0,0,.89.64H51.9A.51.51,0,0,1,52.4,17.84Z"/></g></g></g></svg>