<?xml version="1.0" encoding="utf-8"?>
<!-- Generator: Adobe Illustrator 22.0.1, SVG Export Plug-In . SVG Version: 6.00 Build 0)  -->
<svg version="1.1" id="Layer_1" xmlns="http://www.w3.org/2000/svg" xmlns:xlink="http://www.w3.org/1999/xlink" x="0px" y="0px"
	 viewBox="0 0 200 200" style="enable-background:new 0 0 200 200;" xml:space="preserve">
<style type="text/css">
	.st0{fill:#4169EA;}
	.st1{fill:#102E46;}
	.st2{fill:none;stroke:#4169EA;stroke-width:4;stroke-miterlimit:10;}
</style>
<path class="st0" d="M39.1,129.9h48.7v-25.1c0-3.4-2-6.5-5.1-7.8c-5.1-2.2-11.7-3.4-19.2-3.4c-7.6,0-14.1,1.1-19.2,3.4
	c-3.1,1.3-5.1,4.4-5.1,7.8v25.1H39.1z M90.3,135H36.6c-1.4,0-2.5-1.1-2.5-2.5v-27.6c0-5.4,3.2-10.3,8.2-12.5
	c5.8-2.5,12.9-3.8,21.2-3.8s15.4,1.3,21.2,3.8c5,2.2,8.2,7,8.2,12.5v27.6C92.9,133.8,91.7,135,90.3,135L90.3,135z"/>
<path class="st0" d="M63.5,56.9c-7.8,0-14.1,6.3-14.1,14.1v3.6c0,7.8,6.3,14.1,14.1,14.1s14.1-6.3,14.1-14.1V71
	C77.5,63.2,71.2,56.9,63.5,56.9L63.5,56.9z M63.5,93.7c-10.5,0-19.1-8.6-19.1-19.1V71c0-10.5,8.6-19.1,19.1-19.1S82.6,60.4,82.6,71
	v3.6C82.6,85.1,74,93.7,63.5,93.7L63.5,93.7z"/>
<path class="st1" d="M6.7,152v0.4c0,6.1,5,11.1,11.1,11.1h162.5c6.1,0,11.1-5,11.1-11.1V152H6.7L6.7,152z M180.2,168.5H17.8
	c-8.9,0-16.1-7.2-16.1-16.1v-2.9c0-1.4,1.1-2.5,2.5-2.5h189.7c1.4,0,2.5,1.1,2.5,2.5v2.9C196.4,161.3,189.1,168.5,180.2,168.5
	L180.2,168.5z"/>
<path class="st1" d="M79.7,152v1.8c0,0.8,0.6,1.4,1.4,1.4h35.8c0.8,0,1.4-0.6,1.4-1.4V152H79.7L79.7,152z M116.9,160.3H81.1
	c-3.6,0-6.5-2.9-6.5-6.5v-4.3c0-1.4,1.1-2.5,2.5-2.5h43.7c1.4,0,2.5,1.1,2.5,2.5v4.3C123.4,157.4,120.5,160.3,116.9,160.3
	L116.9,160.3z"/>
<path class="st1" d="M14.3,147h169.5V38c0-1.9-1.6-3.5-3.5-3.5H17.8c-1.9,0-3.5,1.6-3.5,3.5L14.3,147L14.3,147z M186.3,152H11.7
	c-1.4,0-2.5-1.1-2.5-2.5V38c0-4.7,3.8-8.6,8.6-8.6h162.5c4.7,0,8.6,3.8,8.6,8.6v111.5C188.8,150.9,187.7,152,186.3,152L186.3,152z"
	/>
<path class="st1" d="M173.9,115.8h-64.7c-1.4,0-2.5-1.1-2.5-2.5s1.1-2.5,2.5-2.5h64.7c1.4,0,2.5,1.1,2.5,2.5
	S175.3,115.8,173.9,115.8L173.9,115.8z"/>
<path class="st0" d="M151.6,119.9c-1.4,0-2.5-1.1-2.5-2.5v-8.2c0-1.4,1.1-2.5,2.5-2.5s2.5,1.1,2.5,2.5v8.2
	C154.2,118.7,153,119.9,151.6,119.9L151.6,119.9z"/>
<path class="st0" d="M109.2,135c-1.4,0-2.5-1.1-2.5-2.5s1.1-2.5,2.5-2.5l0,0c1.4,0,2.5,1.1,2.5,2.5S110.6,135,109.2,135L109.2,135z"
	/>
<path class="st0" d="M120,135L120,135c-1.5,0-2.6-1.1-2.6-2.5s1.1-2.5,2.5-2.5h0.1c1.4,0,2.5,1.1,2.5,2.5S121.4,135,120,135L120,135
	z M130.8,135L130.8,135c-1.5,0-2.6-1.1-2.6-2.5s1.1-2.5,2.5-2.5h0.1c1.4,0,2.5,1.1,2.5,2.5S132.2,135,130.8,135L130.8,135z
	 M141.6,135L141.6,135c-1.5,0-2.6-1.1-2.6-2.5s1.1-2.5,2.5-2.5h0.1c1.4,0,2.5,1.1,2.5,2.5S143,135,141.6,135L141.6,135z M152.4,135
	L152.4,135c-1.5,0-2.6-1.1-2.6-2.5s1.1-2.5,2.5-2.5h0.1c1.4,0,2.5,1.1,2.5,2.5S153.8,135,152.4,135L152.4,135z M163.2,135L163.2,135
	c-1.5,0-2.6-1.1-2.6-2.5s1.1-2.5,2.5-2.5h0.1c1.4,0,2.5,1.1,2.5,2.5S164.5,135,163.2,135L163.2,135z"/>
<path class="st0" d="M173.9,135c-1.4,0-2.5-1.1-2.5-2.5s1.1-2.5,2.5-2.5l0,0c1.4,0,2.5,1.1,2.5,2.5S175.3,135,173.9,135L173.9,135z"
	/>
<polygon class="st2" points="113.1,91.6 106.8,88 100.2,91.2 101.7,84 96.7,78.8 103.9,78 107.3,71.6 110.3,78.2 117.4,79.5 
	112.1,84.4 "/>
<polygon class="st2" points="143.1,91.6 136.8,88 130.2,91.2 131.7,84 126.7,78.8 133.9,78 137.3,71.6 140.3,78.2 147.5,79.5 
	142.1,84.4 "/>
<polygon class="st2" points="171.5,92.5 165.2,88.9 158.6,92 160.1,84.9 155.1,79.7 162.3,78.9 165.7,72.5 168.7,79.1 175.8,80.4 
	170.5,85.3 "/>
</svg>
