<?xml version="1.0" encoding="utf-8"?>
<!-- Generator: Adobe Illustrator 22.0.1, SVG Export Plug-In . SVG Version: 6.00 Build 0)  -->
<svg version="1.1" id="Layer_1" xmlns="http://www.w3.org/2000/svg" xmlns:xlink="http://www.w3.org/1999/xlink" x="0px" y="0px"
	 viewBox="0 0 400 400" style="enable-background:new 0 0 400 400;" xml:space="preserve">
<style type="text/css">
	.st0{fill:#FFFFFF;}
</style>
<g>
	<path class="st0" d="M393,329.5c-2.2,2.6-5,3.3-8.3,3.3c-34.6-0.1-69.2-0.1-103.9,0c-4.9,0-4.9,0-3.4,4.7c1.7,5.1,3.5,10.2,5,15.3
		c0.8,2.5,2.2,3.8,4.8,4.5c12.9,3.6,22,15.5,22,28.1c0,5.1-2.2,7.3-7.3,7.3c-67.2,0-134.5,0-201.7,0c-5.4,0-7.5-2.2-7.5-7.6
		c0-12.5,9-24.1,21.8-27.8c2.8-0.8,4.2-2.1,5-4.8c1.6-5.4,3.4-10.7,5.3-16c1.1-3.1,0.3-3.9-2.9-3.9c-21.2,0.1-42.5,0-63.7,0
		c-13.9,0-27.7,0-41.6,0c-5.9,0-8-2-8-7.8c0-87,0-174,0-261c0-5.7,2-7.7,7.7-7.7c48.1,0,96.2,0,144.4-0.1c3.7,0,4.7,1.3,4.6,4.8
		c-0.3,9,1,7.8-7.8,7.8c-43.7,0-87.5,0-131.2,0c-5,0-5,0-5,4.8c0,64.6,0,129.2-0.1,193.9c0,3.8,1,4.9,4.8,4.8
		c116.6-0.1,233.2-0.1,349.8-0.1c4.9,0,4.9,0,4.9-5c0-64.5,0-129,0-193.5c0-5,0-5-4.9-5c-0.9,0-1.8,0.1-2.6,0c-3.1-0.4-4.1,1-4,4
		c0.1,16,0.1,32,0.1,48c0,12.7-7.2,20-20,20c-31.1,0-62.2,0-93.4-0.1c-3,0-5.1,0.9-7.2,3c-7.8,8.1-15.9,15.9-23.8,23.9
		c-2.4,2.4-4.9,4-8.3,2.7c-3.5-1.4-3.9-4.4-3.9-7.8c0.1-6-0.1-12,0.1-18c0.1-3.1-1.1-3.9-3.9-3.8c-4.7,0.2-9.5,0.1-14.2,0
		c-10.1-0.2-17.8-7.8-17.8-17.9c-0.1-32.2-0.1-64.5,0-96.7c0-9.2,5.4-14.6,13.7-17.6c55,0,110,0,165,0c10.4,4.3,13.8,9.3,13.8,20.5
		c0,7.5,0,14.9,0,22.4c0,4.8,0,4.8,5,4.8c3.5,0,7,0.2,10.5,0c3.4-0.2,6.1,0.7,8.3,3.3C393,149.5,393,239.5,393,329.5z M225.3,149.4
		c6.3-6.3,11.9-11.7,17.2-17.3c2.6-2.8,5.4-3.9,9.2-3.8c32.2,0.1,64.5,0.1,96.7,0.1c6.3,0,8.4-2.1,8.4-8.3c0-30.4,0-60.7,0-91.1
		c0-5.8-2.2-8.1-7.9-8.1c-50.6,0-101.2,0-151.8,0c-5.6,0-7.8,2.2-7.8,7.7c0,30.6,0,61.2,0,91.8c0,5.7,2.2,7.9,8,7.9c7,0.1,14,0,21,0
		c4.7,0,6.9,2.2,6.9,6.9C225.3,139.5,225.3,143.9,225.3,149.4z M200.7,320.2c58.5,0,117,0,175.4,0.1c3.6,0,4.8-1,4.7-4.6
		c-0.2-8.9-0.2-17.7,0-26.6c0.1-3.1-0.7-4.4-4.1-4.4c-34.2,0.1-68.5,0.1-102.7,0c-2.9,0-4.1,0.9-5,3.7
		c-4.3,12.9-14.8,20.4-28.3,20.4c-26.4,0-52.7,0-79.1,0c-13.7,0-24.2-7.5-28.5-20.5c-0.9-2.6-2-3.5-4.8-3.5
		c-34.4,0.1-68.7,0.1-103.1,0c-3.3,0-4,1.2-3.9,4.2c0.1,8.7,0,17.5,0.1,26.2c0,5.1,0,5.1,5.1,5.1
		C84.5,320.2,142.6,320.2,200.7,320.2z M201.1,356.2c4.5,0,9,0,13.5,0c17.1,0,34.2,0,51.4,0c2.4,0,4.4,0.1,3.1-3.4
		c-2.1-5.6-3.9-11.3-5.7-17.1c-0.7-2.1-1.7-3.1-4-3.1c-38.9,0.1-77.7,0-116.6,0c-2.2,0-3.4,0.8-4.1,2.9c-1.7,5.5-3.6,10.9-5.4,16.4
		c-1.4,4.1-1.3,4.2,3,4.2C157.9,356.2,179.5,356.2,201.1,356.2z M201,380.2c30.1,0,60.2,0,90.3,0c1.2,0,2.8,0.7,3.4-0.8
		c0.4-1.1-0.7-2.1-1.3-3c-4.2-6.1-10.4-7.7-17.4-7.7c-31.9,0-63.7,0-95.6,0c-18.2,0-36.5,0-54.7,0c-6.7,0-12.7,1.6-16.8,7.4
		c-0.8,1-2.2,2.2-1.4,3.6c0.7,1.1,2.3,0.5,3.5,0.5C141,380.2,171,380.2,201,380.2z M200.9,284.8c-17.2,0-34.5,0-51.7,0
		c-1.1,0-2.5-0.5-3.1,0.8c-0.5,1.2,0.5,2.1,1.1,3c3.5,5.3,8.6,7.6,14.7,7.6c26.1,0.1,52.2,0.1,78.4,0c5.8,0,10.7-2.2,14.2-7.1
		c0.8-1.1,2.1-2.2,1.3-3.6c-0.7-1.3-2.3-0.7-3.5-0.7C235.2,284.8,218.1,284.8,200.9,284.8z"/>
	<path class="st0" d="M26.7,184c0.3-7.8,3.9-13.5,11.2-16.6c7.3-3,14.5-6.2,21.9-8.8c9.4-3.3,17.4-8.2,24.5-15.2
		C94.9,132.9,106,123,117,113c1.8-1.7,2.8-3.5,3-6.1c0.4-7.3,4.1-12.7,10.8-15.8c3.1-1.4,6.2-2.6,9.3-3.9c5.3-2.1,8.3-0.8,10.4,4.4
		c8.6,21,17.2,42.1,25.8,63.1c5.9,14.6,11.9,29.1,17.8,43.7c2.4,5.8,1.1,8.8-4.7,11.2c-2.4,1-4.8,2-7.3,3
		c-7.5,3.1-14.5,2.1-20.6-3.4c-1.6-1.4-3.3-2.1-5.4-2c-19.2,0.5-38.4,1-57.7,1.6c-5,0.1-5.5,1-3.6,5.6c2.9,7.1,5.8,14.1,8.6,21.2
		c2.2,5.5,1,8.4-4.4,10.7c-6.1,2.6-12.2,5.1-18.4,7.5c-5.2,2-8.2,0.7-10.3-4.6c-3-7.3-6-14.5-8.9-21.9c-0.9-2.4-1.9-3.5-4.9-2.9
		c-7.6,1.3-15.2-2.3-18.4-9.3c-4-8.5-7.2-17.3-10.7-25.9C26.7,187.6,26.8,185.8,26.7,184z M106.5,195.1c6.4,0,12.7-0.1,19.1,0
		c2.9,0,3.1-1.1,2.1-3.4c-6.6-16.1-13.2-32.1-19.7-48.2c-1.1-2.8-2.2-2.9-4.2-1c-5.5,5.1-10.9,10.3-16.5,15.3
		c-1.8,1.6-1.9,3.2-1,5.3c3.6,8.8,7.1,17.6,10.8,26.4C100.1,196.7,98.5,195.7,106.5,195.1z M54.6,211.7c0.3-0.1,1.2-0.1,2-0.4
		c9.4-3.8,18.7-7.6,28.1-11.4c1.9-0.7,2.1-1.8,1.4-3.5c-3.7-9-7.4-18-11.1-27c-0.7-1.8-1.7-2.5-3.7-1.7c-9.3,3.9-18.7,7.6-28.1,11.5
		c-3.4,1.4-4.5,3.8-3.2,7.2c2.8,7.3,5.9,14.6,8.8,21.9C49.8,210.5,51.5,211.8,54.6,211.7z M174,201.6c4.9,0.1,6.6-2.3,4.8-6.8
		c-7.3-18-14.7-36.1-22.1-54.1c-5-12.3-10-24.5-14.9-36.8c-1-2.5-2-2.9-4.4-1.9c-4.6,2-5.6,4.4-3.5,9.6
		c5.6,13.8,11.2,27.5,16.8,41.3c5.9,14.4,11.8,28.9,17.6,43.4C169.4,199,170.7,201.3,174,201.6z M147.1,194.4
		c6.6-0.1,6.6-0.1,4.3-5.8c-4.1-10.2-8.3-20.3-12.5-30.5c-4.3-10.5-8.5-21.1-12.9-31.6c-0.4-1-0.3-2.8-2.2-2.3
		c-3.9,1-6.8,7.1-5.3,10.9c7.4,18.3,14.9,36.5,22.2,54.9C142.1,193.4,143.8,195.3,147.1,194.4z M89.4,235.2c-0.2-0.6-0.5-1.3-0.7-2
		c-1.6-4-3.2-8.1-5-12.1c-2.9-6.8-1-6.5-8.8-3.5c-2.5,0.9-2.8,2.3-1.8,4.6c1.7,3.7,3.1,7.6,4.7,11.4c3.3,7.6,1.2,7,10,3.5
		C88.6,236.8,89.4,236.4,89.4,235.2z"/>
	<path class="st0" d="M283.5,236.8c-18,0-36-0.1-54,0.1c-3.8,0-5-1.2-4.8-4.9c0.3-8.8-0.8-7.8,7.6-7.6c3.7,0.1,4.7-1.1,4.6-4.7
		c-0.2-11.9-0.1-23.7-0.1-35.6c0-5.7,2-7.7,7.6-7.8c7.2,0,14.5-0.1,21.7,0c4.9,0,7.1,2.2,7.1,7.1c0.1,12.2,0.1,24.5,0,36.7
		c0,3.4,1.1,4.3,4.3,4.2c8.3-0.3,7.2,0.8,7.2-7.2c0-16.9,0-33.7,0-50.6c0-6.4,1.9-8.2,8.3-8.3c7,0,14,0,21,0c5.1,0,7.2,2.2,7.3,7.4
		c0,18,0.1,36-0.1,54c0,3.5,0.8,4.9,4.6,4.7c7.9-0.3,7,0.8,7-7.1c0-20.1,0.1-40.2-0.1-60.3c0-3.6,1-4.8,4.6-4.7c9.2,0.3,7.9-1,7.9,8
		c0.1,22.7,0,45.5,0,68.2c0,6.4-1.9,8.3-8.2,8.3C319.2,236.8,301.3,236.8,283.5,236.8z M297.3,197.5c0,6.5,0,13,0,19.5
		c0.1,8.2-1.2,7,7.5,7.3c3.2,0.1,4.1-1,4-4.1c-0.1-13.9,0-27.7-0.1-41.6c-0.1-8.8,1.6-7.7-8-7.8c-2.6-0.1-3.5,0.9-3.4,3.5
		C297.3,182,297.3,189.7,297.3,197.5z M249.3,206.1c0,3.5,0,7,0,10.5c0.1,8.6-1.4,7.4,7.9,7.7c2.8,0.1,3.7-1,3.6-3.7
		c-0.1-8,0-16-0.1-24c-0.1-8.8,1.8-7.7-8.4-7.8c-2.3,0-3.1,0.9-3,3.1C249.3,196.6,249.3,201.4,249.3,206.1z"/>
	<path class="st0" d="M251.7,260.8c-21.2,0-42.5,0-63.7,0c-5.2,0-5.3,0-5.2-5.1c0.1-8.4-0.9-7.4,7.3-7.4c41.9,0,83.7,0,125.6,0
		c5.6,0,5.6,0,5.6,5.5c0,7.9,0.8,7.1-7,7.1C293.4,260.8,272.6,260.8,251.7,260.8z"/>
	<path class="st0" d="M369.3,194.5c0,12.6-0.1,25.2,0.1,37.8c0,3.4-1,4.6-4.5,4.5c-9.5-0.3-8.1,1-8.1-8.2
		c-0.1-23.9,0.1-47.7-0.1-71.6c0-3.8,1-5,4.8-4.9c8.9,0.4,7.7-0.9,7.7,7.9C369.3,171.5,369.3,183,369.3,194.5z"/>
	<path class="st0" d="M32.7,97c0-3.4-0.1-6.7,0-10.1c0.1-4.2,2.3-6.6,6.4-6.6c7-0.1,14,0,20.9-0.1c2.2,0,3.2,0.8,3.1,3.1
		c-0.1,11.6,1.2,9.3-8.7,9.4c-9.3,0.1-9.2,0-9.4,9.5c-0.1,9.7,1.7,8.3-8.9,8.5c-2.8,0.1-3.8-1-3.7-3.7
		C32.9,103.7,32.7,100.4,32.7,97z"/>
	<path class="st0" d="M38.8,134.8c-6.1,0-6.1,0-6.1-6.4c0-6.8-0.5-6.1,6.8-6.1c5.7,0,5.7,0,5.7,6.8
		C45.3,134.8,45.3,134.8,38.8,134.8z"/>
	<path class="st0" d="M332.7,254.2c0-5.9,0-5.9,6.6-5.9c5.9,0,5.9,0,5.9,6.6c0,5.9,0,5.9-6.6,5.9
		C332.7,260.8,332.7,260.8,332.7,254.2z"/>
	<path class="st0" d="M369.3,254.8c0,5.9,0,5.9-6.6,5.9c-5.9,0-5.9,0-5.9-6.6c0-5.9,0-5.9,6.6-5.9
		C369.3,248.2,369.3,248.2,369.3,254.8z"/>
	<path class="st0" d="M243.3,74.6c0,10.3-8,18.2-18.3,18.2c-10.3,0-18.2-8-18.2-18.4c0-10.3,8-18.2,18.3-18.1
		C235.4,56.3,243.3,64.2,243.3,74.6z M230.5,74.4c0-2.8-2.8-5.5-5.6-5.5c-2.8,0-5.5,2.8-5.5,5.6c0,2.8,2.8,5.5,5.6,5.5
		C227.9,80,230.6,77.3,230.5,74.4z"/>
	<path class="st0" d="M273.1,56.3c10.3,0,18.2,8,18.2,18.3c0,10.3-8,18.2-18.3,18.2c-10.3,0-18.2-8-18.2-18.3
		C254.8,64.1,262.7,56.2,273.1,56.3z M273,68.9c-2.8,0-5.6,2.7-5.6,5.5c0,2.8,2.7,5.6,5.5,5.6c2.8,0,5.6-2.7,5.6-5.5
		C278.6,71.7,275.9,69,273,68.9z"/>
	<path class="st0" d="M339.3,74.6c0,10.3-8,18.2-18.3,18.2c-10.3,0-18.2-8-18.2-18.3c0-10.3,7.9-18.2,18.3-18.2
		C331.4,56.3,339.3,64.2,339.3,74.6z M321.2,80.1c2.8-0.1,5.5-2.9,5.4-5.7c-0.1-2.8-2.9-5.5-5.7-5.4c-2.8,0.1-5.5,2.9-5.4,5.7
		C315.5,77.5,318.4,80.2,321.2,80.1z"/>
</g>
</svg>
