<?xml version="1.0" encoding="utf-8"?>
<!-- Generator: Adobe Illustrator 22.0.1, SVG Export Plug-In . SVG Version: 6.00 Build 0)  -->
<svg version="1.1" id="Layer_1" xmlns="http://www.w3.org/2000/svg" xmlns:xlink="http://www.w3.org/1999/xlink" x="0px" y="0px"
	 viewBox="0 0 200 200" style="enable-background:new 0 0 200 200;" xml:space="preserve">
<style type="text/css">
	.st0{fill:#102E46;}
	.st1{fill:#4169EA;}
</style>
<path class="st0" d="M59.9,37.6h63.7V19.2h-18.3c-1.1,0-2-0.7-2.3-1.7c-1.6-4.8-6.2-8-11.2-8c-5.1,0-9.6,3.2-11.2,8
	c-0.3,1-1.3,1.7-2.3,1.7H59.9V37.6L59.9,37.6z M126,42.5H57.4c-1.4,0-2.5-1.1-2.5-2.5V16.7c0-1.4,1.1-2.5,2.5-2.5h19.1
	c2.7-5.9,8.7-9.7,15.2-9.7c6.6,0,12.5,3.8,15.2,9.7H126c1.4,0,2.5,1.1,2.5,2.5V40C128.5,41.4,127.4,42.5,126,42.5L126,42.5z"/>
<path class="st0" d="M149.8,195.5H31.2c-4.3,0-7.7-3.5-7.7-7.7V33.6c0-4.3,3.5-7.7,7.7-7.7h26.2c1.4,0,2.5,1.1,2.5,2.5v9.2h63.7
	v-9.2c0-1.4,1.1-2.5,2.5-2.5h23.7c4.3,0,7.7,3.5,7.7,7.7v72.7c0,1.4-1.1,2.5-2.5,2.5s-2.5-1.1-2.5-2.5V33.6c0-1.5-1.2-2.8-2.8-2.8
	h-21.2V40c0,1.4-1.1,2.5-2.5,2.5H57.4c-1.4,0-2.5-1.1-2.5-2.5v-9.2H31.2c-1.5,0-2.8,1.2-2.8,2.8v154.1c0,1.5,1.2,2.8,2.8,2.8h118.6
	c1.5,0,2.8-1.2,2.8-2.8v-20.1c0-1.4,1.1-2.5,2.5-2.5s2.5,1.1,2.5,2.5v20.1C157.5,192,154,195.5,149.8,195.5L149.8,195.5z"/>
<path class="st1" d="M47.8,76.5c-0.7,0-1.3-0.3-1.8-0.7l-5.9-5.9c-1-1-1-2.5,0-3.5s2.5-1,3.5,0l4.2,4.2l12-12c1-1,2.5-1,3.5,0
	c1,1,1,2.5,0,3.5L49.6,75.8C49.1,76.2,48.5,76.5,47.8,76.5L47.8,76.5z"/>
<path class="st0" d="M73.1,69.6c-1.4,0-2.5-1.1-2.5-2.5s1.1-2.5,2.5-2.5l0,0c1.4,0,2.5,1.1,2.5,2.5S74.5,69.6,73.1,69.6L73.1,69.6z"
	/>
<path class="st0" d="M83.4,69.6L83.4,69.6c-1.4,0-2.5-1.1-2.5-2.5s1.1-2.5,2.5-2.5h0.1c1.4,0,2.5,1.1,2.5,2.5
	C85.9,68.5,84.8,69.6,83.4,69.6L83.4,69.6z M93.7,69.6L93.7,69.6c-1.4,0-2.5-1.1-2.5-2.5s1.1-2.5,2.5-2.5h0.1c1.4,0,2.5,1.1,2.5,2.5
	C96.2,68.5,95.1,69.6,93.7,69.6L93.7,69.6z M104,69.6L104,69.6c-1.4,0-2.5-1.1-2.5-2.5s1.1-2.5,2.5-2.5h0.1c1.4,0,2.5,1.1,2.5,2.5
	C106.4,68.5,105.3,69.6,104,69.6L104,69.6z M114.3,69.6L114.3,69.6c-1.4,0-2.5-1.1-2.5-2.5s1.1-2.5,2.5-2.5h0.1
	c1.4,0,2.5,1.1,2.5,2.5C116.7,68.5,115.6,69.6,114.3,69.6L114.3,69.6z M124.5,69.6L124.5,69.6c-1.4,0-2.5-1.1-2.5-2.5
	s1.1-2.5,2.5-2.5h0.1c1.4,0,2.5,1.1,2.5,2.5C127,68.5,125.9,69.6,124.5,69.6L124.5,69.6z"/>
<path class="st0" d="M134.8,69.6c-1.4,0-2.5-1.1-2.5-2.5s1.1-2.5,2.5-2.5l0,0c1.4,0,2.5,1.1,2.5,2.5S136.2,69.6,134.8,69.6
	L134.8,69.6z"/>
<path class="st1" d="M47.8,102.2c-0.6,0-1.3-0.2-1.8-0.7l-5.9-5.9c-1-1-1-2.5,0-3.5s2.5-1,3.5,0l4.2,4.2l12-12c1-1,2.5-1,3.5,0
	c1,1,1,2.5,0,3.5l-13.7,13.7C49.1,102,48.5,102.2,47.8,102.2L47.8,102.2z"/>
<path class="st0" d="M73.1,95.4c-1.4,0-2.5-1.1-2.5-2.5s1.1-2.5,2.5-2.5l0,0c1.4,0,2.5,1.1,2.5,2.5S74.5,95.4,73.1,95.4L73.1,95.4z"
	/>
<path class="st0" d="M82.9,95.4c-1.4,0-2.5-1.1-2.5-2.5s1.1-2.5,2.5-2.5l0,0c1.4,0,2.5,1.1,2.5,2.5S84.3,95.4,82.9,95.4L82.9,95.4z"
	/>
<path class="st0" d="M93.7,95.4c-1.4,0-2.5-1.1-2.5-2.5s1.1-2.5,2.5-2.5l0,0c1.4,0,2.5,1.1,2.5,2.5S95,95.4,93.7,95.4L93.7,95.4z"/>
<path class="st1" d="M47.8,128c-0.6,0-1.3-0.2-1.8-0.7l-5.9-5.9c-1-1-1-2.5,0-3.5s2.5-1,3.5,0l4.2,4.2l12-12c1-1,2.5-1,3.5,0
	c1,1,1,2.5,0,3.5l-13.7,13.7C49.1,127.7,48.5,128,47.8,128L47.8,128z"/>
<path class="st0" d="M73.1,121.1c-1.4,0-2.5-1.1-2.5-2.5s1.1-2.5,2.5-2.5l0,0c1.4,0,2.5,1.1,2.5,2.5S74.5,121.1,73.1,121.1
	L73.1,121.1z"/>
<path class="st0" d="M84.1,121.1L84.1,121.1c-1.4,0-2.5-1.1-2.5-2.5s1.1-2.5,2.5-2.5h0.1c1.4,0,2.5,1.1,2.5,2.5
	S85.5,121.1,84.1,121.1L84.1,121.1z M95.1,121.1L95.1,121.1c-1.4,0-2.5-1.1-2.5-2.5s1.1-2.5,2.5-2.5h0.1c1.4,0,2.5,1.1,2.5,2.5
	S96.5,121.1,95.1,121.1L95.1,121.1z"/>
<path class="st0" d="M106.1,121.1c-1.4,0-2.5-1.1-2.5-2.5s1.1-2.5,2.5-2.5l0,0c1.4,0,2.5,1.1,2.5,2.5S107.4,121.1,106.1,121.1
	L106.1,121.1z"/>
<path class="st1" d="M47.8,153.7c-0.7,0-1.3-0.3-1.8-0.7l-5.9-5.9c-1-1-1-2.5,0-3.5s2.5-1,3.5,0l4.2,4.2l12-12c1-1,2.5-1,3.5,0
	c1,1,1,2.5,0,3.5L49.6,153C49.1,153.4,48.5,153.7,47.8,153.7L47.8,153.7z"/>
<path class="st0" d="M73.1,146.8c-1.4,0-2.5-1.1-2.5-2.5s1.1-2.5,2.5-2.5l0,0c1.4,0,2.5,1.1,2.5,2.5S74.5,146.8,73.1,146.8
	L73.1,146.8z"/>
<path class="st0" d="M82.5,146.8c-1.4,0-2.5-1.1-2.5-2.5s1.1-2.5,2.5-2.5h0.1c1.4,0,2.5,1.1,2.5,2.5C85,145.7,83.8,146.8,82.5,146.8
	L82.5,146.8z M91.8,146.8c-1.4,0-2.5-1.1-2.5-2.5s1.1-2.5,2.5-2.5h0.1c1.4,0,2.5,1.1,2.5,2.5C94.3,145.7,93.2,146.8,91.8,146.8
	L91.8,146.8z M101.2,146.8c-1.4,0-2.5-1.1-2.5-2.5s1.1-2.5,2.5-2.5h0.1c1.4,0,2.5,1.1,2.5,2.5C103.7,145.7,102.6,146.8,101.2,146.8
	L101.2,146.8z"/>
<path class="st0" d="M110.5,146.8c-1.4,0-2.5-1.1-2.5-2.5s1.1-2.5,2.5-2.5l0,0c1.4,0,2.5,1.1,2.5,2.5S111.9,146.8,110.5,146.8
	L110.5,146.8z"/>
<path class="st1" d="M47.8,179.4c-0.7,0-1.3-0.3-1.8-0.7l-5.9-5.9c-1-1-1-2.5,0-3.5s2.5-1,3.5,0l4.2,4.2l12-12c1-1,2.5-1,3.5,0
	c1,1,1,2.5,0,3.5l-13.7,13.7C49.1,179.2,48.5,179.4,47.8,179.4L47.8,179.4z"/>
<path class="st0" d="M73.1,172.6c-1.4,0-2.5-1.1-2.5-2.5s1.1-2.5,2.5-2.5l0,0c1.4,0,2.5,1.1,2.5,2.5S74.5,172.6,73.1,172.6
	L73.1,172.6z"/>
<path class="st0" d="M83.4,172.6L83.4,172.6c-1.4,0-2.5-1.1-2.5-2.5s1.1-2.5,2.5-2.5h0.1c1.4,0,2.5,1.1,2.5,2.5
	C85.9,171.5,84.8,172.6,83.4,172.6L83.4,172.6z M93.8,172.6L93.8,172.6c-1.4,0-2.5-1.1-2.5-2.5s1.1-2.5,2.5-2.5h0.1
	c1.4,0,2.5,1.1,2.5,2.5C96.2,171.5,95.1,172.6,93.8,172.6L93.8,172.6z M104.1,172.6L104.1,172.6c-1.4,0-2.5-1.1-2.5-2.5
	s1.1-2.5,2.5-2.5h0.1c1.4,0,2.5,1.1,2.5,2.5C106.6,171.5,105.4,172.6,104.1,172.6L104.1,172.6z"/>
<path class="st0" d="M114.4,172.6c-1.4,0-2.5-1.1-2.5-2.5s1.1-2.5,2.5-2.5l0,0c1.4,0,2.5,1.1,2.5,2.5
	C116.8,171.5,115.7,172.6,114.4,172.6L114.4,172.6z"/>
<path class="st0" d="M95.8,18.6c0,2.2-1.8,4.1-4.1,4.1c-2.2,0-4.1-1.8-4.1-4.1s1.8-4.1,4.1-4.1S95.8,16.4,95.8,18.6L95.8,18.6z"/>
<g>
	<path class="st1" d="M135.4,151h25.3v-9c-0.6-0.7-3.7-3.6-12.6-3.6s-12,2.9-12.6,3.6L135.4,151L135.4,151z M161.5,152.8h-27
		c-0.5,0-0.9-0.4-0.9-0.9v-10.1c0-0.2,0-0.3,0.1-0.5s2.9-4.7,14.3-4.7s14.2,4.5,14.3,4.7c0.1,0.1,0.1,0.3,0.1,0.5v10.1
		C162.4,152.4,162,152.8,161.5,152.8L161.5,152.8z"/>
	<path class="st1" d="M148,122.1c-3.2,0-5.9,2.6-5.9,5.9v2.8c0,3.2,2.6,5.9,5.9,5.9s5.9-2.6,5.9-5.9V128
		C153.9,124.7,151.2,122.1,148,122.1L148,122.1z M148,138.4c-4.2,0-7.6-3.4-7.6-7.6V128c0-4.2,3.4-7.6,7.6-7.6s7.6,3.4,7.6,7.6v2.8
		C155.6,135,152.2,138.4,148,138.4L148,138.4z"/>
	<path class="st1" d="M148,109.4c-15.5,0-28.1,12.6-28.1,28.1s12.6,28.1,28.1,28.1s28.1-12.6,28.1-28.1S163.5,109.4,148,109.4
		L148,109.4z M148,167.4c-16.5,0-29.9-13.4-29.9-29.9s13.4-29.9,29.9-29.9s29.9,13.4,29.9,29.9S164.5,167.4,148,167.4L148,167.4z"/>
	<path class="st1" d="M148,115.5L148,115.5c-0.5,0-0.9-0.4-0.9-0.9s0.4-0.9,0.9-0.9l0,0c0.5,0,0.9,0.4,0.9,0.9
		S148.5,115.5,148,115.5L148,115.5z M151.6,115.8c-0.1,0-0.1,0-0.2,0c-0.5-0.1-0.8-0.5-0.7-1s0.5-0.8,1-0.7l0,0
		c0.5,0.1,0.8,0.5,0.7,1C152.4,115.5,152,115.8,151.6,115.8L151.6,115.8z M144.4,115.8c-0.4,0-0.8-0.3-0.9-0.8
		c-0.1-0.5,0.3-0.9,0.7-1l0.1,0.9l-0.1-0.9c0.5-0.1,0.9,0.3,1,0.7c0.1,0.5-0.2,0.9-0.7,1l0,0C144.5,115.8,144.4,115.8,144.4,115.8
		L144.4,115.8z M155.1,116.6c-0.1,0-0.2,0-0.3,0l0,0c-0.5-0.2-0.7-0.7-0.6-1.1c0.2-0.5,0.7-0.7,1.1-0.6l-0.3,0.8l0.3-0.8
		c0.5,0.2,0.7,0.6,0.6,1.1C155.8,116.4,155.4,116.6,155.1,116.6L155.1,116.6z M140.9,116.6c-0.4,0-0.7-0.2-0.8-0.6
		c-0.2-0.5,0.1-1,0.6-1.1l0,0c0.5-0.1,1,0.1,1.1,0.6s-0.1,1-0.6,1.1C141.1,116.6,141,116.6,140.9,116.6L140.9,116.6z M158.4,118
		c-0.1,0-0.3,0-0.4-0.1l0,0c-0.4-0.2-0.6-0.8-0.4-1.2c0.2-0.4,0.8-0.6,1.2-0.4l-0.4,0.8l0.4-0.8c0.4,0.2,0.6,0.7,0.4,1.2
		C159,117.8,158.7,118,158.4,118L158.4,118z M137.6,118c-0.3,0-0.6-0.2-0.8-0.5c-0.2-0.4-0.1-1,0.4-1.2l0,0c0.4-0.2,1,0,1.2,0.4
		s0,1-0.4,1.2C137.9,118,137.7,118,137.6,118L137.6,118z M161.4,119.9c-0.2,0-0.4-0.1-0.5-0.2c-0.4-0.3-0.5-0.8-0.2-1.2
		c0.3-0.4,0.8-0.5,1.2-0.2l0,0c0.4,0.3,0.5,0.8,0.2,1.2C162,119.8,161.7,119.9,161.4,119.9L161.4,119.9z M134.5,119.9
		c-0.3,0-0.5-0.1-0.7-0.4c-0.3-0.4-0.2-0.9,0.2-1.2l0.5,0.7l-0.5-0.7c0.4-0.3,0.9-0.2,1.2,0.2c0.3,0.4,0.2,0.9-0.2,1.2l0,0
		C134.9,119.8,134.7,119.9,134.5,119.9L134.5,119.9z M164.2,122.2c-0.2,0-0.5-0.1-0.6-0.3l0,0c-0.3-0.3-0.3-0.9,0-1.2
		c0.3-0.3,0.9-0.3,1.2,0l0,0c0.3,0.3,0.3,0.9,0,1.2C164.6,122.1,164.4,122.2,164.2,122.2L164.2,122.2z M131.8,122.2
		c-0.2,0-0.5-0.1-0.6-0.3c-0.3-0.3-0.3-0.9,0-1.2l0,0c0.3-0.3,0.9-0.3,1.2,0s0.3,0.9,0,1.2l0,0C132.2,122.2,132,122.2,131.8,122.2
		L131.8,122.2z M166.5,124.9c-0.3,0-0.5-0.1-0.7-0.3l0,0c-0.3-0.4-0.2-0.9,0.2-1.2c0.4-0.3,0.9-0.2,1.2,0.2l-0.7,0.5l0.7-0.5
		c0.3,0.4,0.2,0.9-0.2,1.2C166.9,124.9,166.7,124.9,166.5,124.9L166.5,124.9z M129.5,125c-0.2,0-0.4-0.1-0.5-0.2
		c-0.4-0.3-0.5-0.8-0.2-1.2l0,0c0.3-0.4,0.8-0.5,1.2-0.2s0.5,0.8,0.2,1.2C130,124.8,129.7,125,129.5,125L129.5,125z M168.4,128
		c-0.3,0-0.6-0.2-0.8-0.5c-0.2-0.4-0.1-1,0.4-1.2c0.4-0.2,1-0.1,1.2,0.4l0,0c0.2,0.4,0,1-0.4,1.2C168.7,128,168.5,128,168.4,128
		L168.4,128z M127.6,128c-0.1,0-0.3,0-0.4-0.1c-0.4-0.2-0.6-0.8-0.4-1.2l0.8,0.4l-0.8-0.4c0.2-0.4,0.7-0.6,1.2-0.4
		c0.4,0.2,0.6,0.7,0.4,1.2l0,0C128.2,127.9,127.9,128,127.6,128L127.6,128z M169.8,131.3c-0.4,0-0.7-0.2-0.8-0.6
		c-0.2-0.5,0.1-1,0.6-1.1c0.5-0.2,1,0.1,1.1,0.6l0,0c0.1,0.5-0.1,1-0.6,1.1C169.9,131.3,169.9,131.3,169.8,131.3L169.8,131.3z
		 M126.2,131.4c-0.1,0-0.2,0-0.3,0c-0.5-0.2-0.7-0.7-0.6-1.1l0.8,0.3l-0.8-0.3c0.2-0.5,0.6-0.7,1.1-0.6s0.7,0.6,0.6,1.1l0,0
		C126.9,131.1,126.6,131.4,126.2,131.4L126.2,131.4z M170.6,134.8c-0.4,0-0.8-0.3-0.9-0.7l0,0c-0.1-0.5,0.3-0.9,0.7-1
		c0.5-0.1,0.9,0.3,1,0.7l-0.9,0.1l0.9-0.1c0.1,0.5-0.3,0.9-0.7,1C170.7,134.8,170.6,134.8,170.6,134.8L170.6,134.8z M125.4,134.9
		L125.4,134.9c-0.6-0.1-0.9-0.5-0.8-1l0,0c0.1-0.5,0.5-0.8,1-0.7s0.8,0.5,0.7,1C126.2,134.5,125.8,134.9,125.4,134.9L125.4,134.9z
		 M170.9,138.4c-0.5,0-0.9-0.4-0.9-0.9l0,0l0,0l0,0l0,0c0-0.5,0.4-0.9,0.9-0.9s0.9,0.4,0.9,0.9l0,0l0,0l0,0l0,0
		C171.8,138,171.4,138.4,170.9,138.4L170.9,138.4z M125.1,138.4c-0.5,0-0.9-0.4-0.9-0.9l0,0c0-0.5,0.4-0.9,0.9-0.9s0.9,0.4,0.9,0.9
		l0,0C126,138,125.6,138.4,125.1,138.4L125.1,138.4z M170.6,142c-0.1,0-0.1,0-0.2,0c-0.5-0.1-0.8-0.5-0.7-1s0.5-0.8,1-0.7
		s0.8,0.5,0.7,1l0,0C171.4,141.7,171,142,170.6,142L170.6,142z M125.4,142c-0.4,0-0.8-0.3-0.9-0.8l0.9-0.1l-0.9,0.1
		c-0.1-0.5,0.3-0.9,0.7-1c0.5-0.1,0.9,0.2,1,0.7l0,0c0.1,0.5-0.3,0.9-0.7,1C125.5,142,125.4,142,125.4,142L125.4,142z M169.8,145.5
		c-0.1,0-0.2,0-0.3,0c-0.5-0.1-0.7-0.6-0.6-1.1l0,0c0.2-0.5,0.7-0.7,1.1-0.6c0.5,0.2,0.7,0.7,0.6,1.1l-0.8-0.3l0.8,0.3
		C170.5,145.3,170.1,145.5,169.8,145.5L169.8,145.5z M126.2,145.5c-0.4,0-0.7-0.2-0.8-0.6l0,0c-0.1-0.5,0.1-1,0.6-1.1s1,0.1,1.1,0.6
		c0.2,0.5-0.1,1-0.6,1.1C126.4,145.5,126.3,145.5,126.2,145.5L126.2,145.5z M168.4,148.8c-0.1,0-0.3,0-0.4-0.1
		c-0.4-0.2-0.6-0.7-0.4-1.2l0,0c0.2-0.4,0.8-0.6,1.2-0.4c0.4,0.2,0.6,0.8,0.4,1.2l-0.8-0.4l0.8,0.4
		C169,148.6,168.7,148.8,168.4,148.8L168.4,148.8z M127.6,148.8c-0.3,0-0.6-0.2-0.8-0.5l0,0c-0.2-0.4,0-1,0.4-1.2s1,0,1.2,0.4
		s0.1,1-0.4,1.2C127.9,148.8,127.7,148.8,127.6,148.8L127.6,148.8z M129.5,151.9c-0.3,0-0.5-0.1-0.7-0.4l0.7-0.5l-0.7,0.5
		c-0.3-0.4-0.2-0.9,0.2-1.2s0.9-0.2,1.2,0.2l0,0c0.3,0.4,0.2,0.9-0.2,1.2C129.8,151.8,129.7,151.9,129.5,151.9L129.5,151.9z
		 M166.5,151.9c-0.2,0-0.4-0.1-0.5-0.2c-0.4-0.3-0.5-0.8-0.2-1.2s0.8-0.5,1.2-0.2s0.5,0.8,0.2,1.2l0,0
		C167,151.8,166.8,151.9,166.5,151.9L166.5,151.9z M131.8,154.6c-0.2,0-0.5-0.1-0.6-0.3l0,0c-0.3-0.3-0.3-0.9,0-1.2s0.9-0.3,1.2,0
		l0,0c0.3,0.3,0.3,0.9,0,1.2C132.3,154.5,132,154.6,131.8,154.6L131.8,154.6z M164.2,154.6c-0.2,0-0.5-0.1-0.6-0.3
		c-0.3-0.3-0.3-0.9,0-1.2l0,0c0.3-0.3,0.9-0.3,1.2,0s0.3,0.9,0,1.2l0,0C164.6,154.5,164.4,154.6,164.2,154.6L164.2,154.6z
		 M161.4,156.9c-0.3,0-0.5-0.1-0.7-0.4c-0.3-0.4-0.2-0.9,0.2-1.2l0,0c0.4-0.3,0.9-0.2,1.2,0.2s0.2,0.9-0.2,1.2l-0.5-0.7l0.5,0.7
		C161.8,156.9,161.6,156.9,161.4,156.9L161.4,156.9z M134.5,156.9c-0.2,0-0.4-0.1-0.5-0.2l0,0c-0.4-0.3-0.5-0.8-0.2-1.2
		s0.8-0.5,1.2-0.2s0.5,0.8,0.2,1.2C135.1,156.8,134.8,156.9,134.5,156.9L134.5,156.9z M158.4,158.8c-0.3,0-0.6-0.2-0.8-0.5
		c-0.2-0.4,0-1,0.4-1.2s1-0.1,1.2,0.4c0.2,0.4,0.1,1-0.4,1.2l0,0C158.6,158.8,158.5,158.8,158.4,158.8L158.4,158.8z M137.6,158.8
		c-0.1,0-0.3,0-0.4-0.1l0.4-0.8l-0.4,0.8c-0.4-0.2-0.6-0.7-0.4-1.2c0.2-0.4,0.7-0.6,1.2-0.4l0,0c0.4,0.2,0.6,0.8,0.4,1.2
		C138.2,158.6,137.9,158.8,137.6,158.8L137.6,158.8z M155.1,160.2c-0.4,0-0.7-0.2-0.8-0.6c-0.1-0.5,0.1-1,0.6-1.1
		c0.5-0.2,1,0.1,1.1,0.6c0.2,0.5-0.1,1-0.6,1.1l0,0C155.2,160.2,155.1,160.2,155.1,160.2L155.1,160.2z M140.9,160.2
		c-0.1,0-0.2,0-0.3,0l0.3-0.8l-0.3,0.8c-0.5-0.2-0.7-0.6-0.6-1.1c0.1-0.5,0.6-0.7,1.1-0.6l0,0c0.5,0.2,0.7,0.7,0.6,1.1
		S141.3,160.2,140.9,160.2L140.9,160.2z M151.6,161c-0.4,0-0.8-0.3-0.9-0.7c-0.1-0.5,0.2-0.9,0.7-1l0,0c0.5-0.1,0.9,0.3,1,0.7
		c0.1,0.5-0.3,0.9-0.7,1l-0.1-0.9l0.1,0.9C151.7,161,151.6,161,151.6,161L151.6,161z M144.4,161h-0.1l0,0c-0.5-0.1-0.8-0.5-0.7-1
		s0.5-0.8,1-0.7s0.8,0.5,0.7,1C145.2,160.7,144.9,161,144.4,161L144.4,161z M148,161.3L148,161.3c-0.5,0-0.9-0.4-0.9-0.9
		s0.4-0.9,0.9-0.9l0,0c0.5,0,0.9,0.4,0.9,0.9C148.9,160.9,148.5,161.3,148,161.3L148,161.3z"/>
	<path class="st1" d="M148,109.4c-0.5,0-0.9-0.4-0.9-0.9v-4.1c0-0.5,0.4-0.9,0.9-0.9s0.9,0.4,0.9,0.9v4.1
		C148.9,109,148.5,109.4,148,109.4L148,109.4z"/>
	<path class="st1" d="M148,171.5c-0.5,0-0.9-0.4-0.9-0.9v-4.1c0-0.5,0.4-0.9,0.9-0.9s0.9,0.4,0.9,0.9v4.1
		C148.9,171.1,148.5,171.5,148,171.5L148,171.5z"/>
	<path class="st1" d="M119,138.4h-4.1c-0.5,0-0.9-0.4-0.9-0.9s0.4-0.9,0.9-0.9h4.1c0.5,0,0.9,0.4,0.9,0.9S119.5,138.4,119,138.4
		L119,138.4z"/>
	<path class="st1" d="M181.1,138.4H177c-0.5,0-0.9-0.4-0.9-0.9s0.4-0.9,0.9-0.9h4.1c0.5,0,0.9,0.4,0.9,0.9S181.6,138.4,181.1,138.4
		L181.1,138.4z"/>
</g>
</svg>
