<svg xmlns="http://www.w3.org/2000/svg" viewBox="0 0 51.02 58.99"><defs><style>.cls-1{isolation:isolate;}.cls-2{fill:#717fb9;}.cls-3,.cls-4{fill:#5069b0;}.cls-4{mix-blend-mode:multiply;}.cls-5{fill:#fff;}</style></defs><g class="cls-1"><g id="Layer_2" data-name="Layer 2"><g id="Text"><polygon class="cls-2" points="4.48 2.31 3.86 28.84 5.16 32.41 9.59 32.78 27.63 33.03 28.86 35.74 29.47 41.16 36.8 35.24 39.32 32.97 47.45 32.72 49.42 31.92 50.22 29.09 50.09 7.18 49.54 2.37 48.55 1.27 4.48 2.31"/><path class="cls-3" d="M47.28,0H6.61A3.75,3.75,0,0,0,2.86,3.75V30.22A3.75,3.75,0,0,0,6.61,34h3.73a10.19,10.19,0,0,1,.28-2.33h-4a1.42,1.42,0,0,1-1.42-1.41V3.75A1.42,1.42,0,0,1,6.61,2.33H47.28A1.42,1.42,0,0,1,48.7,3.75V30.22a1.42,1.42,0,0,1-1.42,1.41H39l-8.58,7.2-1-7.2H23.65A10.38,10.38,0,0,1,24,34h3.35l1.26,9.38L39.81,34h7.47A3.75,3.75,0,0,0,51,30.22V3.75A3.75,3.75,0,0,0,47.28,0Z"/><path class="cls-4" d="M47.28,0H6.61A3.75,3.75,0,0,0,2.86,3.75V30.22A3.75,3.75,0,0,0,6.61,34H9.4a9.66,9.66,0,0,1,.28-2.33H6.61a1.42,1.42,0,0,1-1.42-1.41V3.75A1.42,1.42,0,0,1,6.61,2.33H47.28A1.42,1.42,0,0,1,48.7,3.75V30.22a1.42,1.42,0,0,1-1.42,1.41H39l-8.58,7.2-1-7.2H23.65A10.38,10.38,0,0,1,24,34h3.35l1.26,9.38L39.81,34h7.47A3.75,3.75,0,0,0,51,30.22V3.75A3.75,3.75,0,0,0,47.28,0Z"/><path class="cls-3" d="M21.15,46.14h0a9.87,9.87,0,0,0,2.16-5.46c1.47-.33,2.34-4.44,1.09-3.89,0,0,1.44-7.35-3.89-8.17-5.11-3.33-13.43-1-11.2,8.29-1.21-.9-1.47,2,.91,3.89,0,0,1,4,2.42,5.34C13.4,51.59-2.1,46.59.24,59H33.52C35.86,46.59,20.36,51.59,21.15,46.14Z"/><rect class="cls-5" x="13.28" y="9.54" width="27.32" height="2.33"/><rect class="cls-5" x="13.28" y="13.85" width="27.32" height="2.33"/><rect class="cls-5" x="13.28" y="18.16" width="27.32" height="2.33"/><rect class="cls-5" x="13.28" y="22.46" width="20.45" height="2.33"/></g></g></g></svg>