<svg xmlns="http://www.w3.org/2000/svg" viewBox="0 0 57.86 54.29"><defs><style>.cls-1,.cls-2{fill:#5069b0;}.cls-2{opacity:0.7;}</style></defs><g id="Layer_2" data-name="Layer 2"><g id="Text"><path class="cls-1" d="M21.2,25c0,.07,0,.15,0,.23v.06c0,.07,0,.14,0,.2v0h0c.41,5.13,3.7,9.77,7.7,9.77s7.38-4.78,7.71-10h0v0a.61.61,0,0,0,0-.14v-.34s0-.08,0-.12V24.4c0-3.29-1-5.92-2.81-7.51a7.31,7.31,0,0,0-4.93-1.7,8,8,0,0,0-3.11.58c-3,1.24-4.63,4.39-4.63,8.63,0,.18,0,.36,0,.54Zm10.56-3.64a8.33,8.33,0,0,0,3.64,4.2,12.06,12.06,0,0,1-2,5.68,7.51,7.51,0,0,1-2.11,2.1,4.18,4.18,0,0,1-4.72,0,7.51,7.51,0,0,1-2.11-2.1,12.13,12.13,0,0,1-2-5.78C24.36,25.83,30.22,26.59,31.76,21.33Z"/><path class="cls-1" d="M5.57,30.62a1.28,1.28,0,0,0,0,.19v.05c0,.05,0,.1,0,.16h0c.33,4.14,3,7.89,6.21,7.89s6-3.86,6.23-8.07h0v0s0-.07,0-.11v-.56c0-2.66-.78-4.78-2.26-6.07a5.9,5.9,0,0,0-4-1.36,6.66,6.66,0,0,0-2.52.46c-2.41,1-3.73,3.54-3.73,7,0,.14,0,.29,0,.43Zm8.52-2.94A6.68,6.68,0,0,0,17,31.07a9.83,9.83,0,0,1-1.61,4.59,6.09,6.09,0,0,1-1.71,1.69,3.37,3.37,0,0,1-3.81,0,6.09,6.09,0,0,1-1.71-1.69A9.89,9.89,0,0,1,6.57,31C8.11,31.31,12.85,31.93,14.09,27.68Z"/><path class="cls-1" d="M53.92,41.67l-4.17-1.19A30.14,30.14,0,0,1,48,48.76l-1.09-6.2a1.18,1.18,0,0,0,.47-1V41.3a1.2,1.2,0,0,0-1.2-1.2H45.9a1.2,1.2,0,0,0-1.2,1.2v.31a1.18,1.18,0,0,0,.47,1l-1.1,6.24c-.19-.5-.36-1-.52-1.51a19.74,19.74,0,0,0-1.06-4.84,5.39,5.39,0,0,0-1-1.72,5.46,5.46,0,0,0-2.81-2.08L33.5,37.18a36.89,36.89,0,0,1-2.12,10.26L30,39.76a1.49,1.49,0,0,0,.58-1.18V38.2a1.48,1.48,0,0,0-1.48-1.48h-.4a1.48,1.48,0,0,0-1.48,1.48v.38a1.49,1.49,0,0,0,.58,1.18l-1.36,7.73a31.22,31.22,0,0,1-2.12-10.31l-5.17,1.47a5.44,5.44,0,0,0-2.8,2.08,6.44,6.44,0,0,0-1.09,1.89,19.41,19.41,0,0,0-1,4.47c-.16.55-.34,1.11-.54,1.67l-1.09-6.2a1.18,1.18,0,0,0,.47-1V41.3A1.2,1.2,0,0,0,12,40.1h-.31a1.2,1.2,0,0,0-1.2,1.2v.31a1.18,1.18,0,0,0,.47,1L9.82,48.8a25.07,25.07,0,0,1-1.71-8.32L3.94,41.67C1.66,42.32,0,45.38,0,49v3.79a1.42,1.42,0,0,0,1.26,1.55H56.6a1.43,1.43,0,0,0,1.26-1.55V49C57.86,45.38,56.2,42.32,53.92,41.67Z"/><path class="cls-1" d="M43.54,23.19c-2.41,1-3.74,3.54-3.74,7,0,.14,0,.29,0,.43v0a1.15,1.15,0,0,1,0,.19v.05a.92.92,0,0,0,0,.16h0c.33,4.14,3,7.89,6.21,7.89s6-3.86,6.23-8.07h0v0a.45.45,0,0,1,0-.11v-.56c0-2.66-.79-4.78-2.27-6.07a5.89,5.89,0,0,0-4-1.36A6.64,6.64,0,0,0,43.54,23.19Zm4.8,4.49a6.68,6.68,0,0,0,2.94,3.39,9.84,9.84,0,0,1-1.62,4.59A5.93,5.93,0,0,1,48,37.35a3.37,3.37,0,0,1-3.81,0,6.09,6.09,0,0,1-1.71-1.69A9.78,9.78,0,0,1,40.82,31C42.36,31.31,47.09,31.93,48.34,27.68Z"/><path class="cls-2" d="M36.68,14.49a.76.76,0,0,0,0,.15v0a.66.66,0,0,0,0,.14h0c.27,3.39,2.45,6.46,5.09,6.46s4.88-3.16,5.1-6.61h0v-.57a6.41,6.41,0,0,0-1.86-5A4.84,4.84,0,0,0,41.79,8a5.36,5.36,0,0,0-2.06.39c-2,.82-3.06,2.9-3.06,5.7,0,.12,0,.24,0,.36Zm7-2.41a5.52,5.52,0,0,0,2.41,2.78,8.15,8.15,0,0,1-1.32,3.76A5.08,5.08,0,0,1,43.35,20a2.77,2.77,0,0,1-3.12,0,5.08,5.08,0,0,1-1.4-1.38,8.06,8.06,0,0,1-1.33-3.83C38.77,15.06,42.64,15.56,43.66,12.08Z"/><path class="cls-2" d="M23.87,6.46a.92.92,0,0,1,0,.16v.17h0c.27,3.4,2.44,6.47,5.08,6.47s4.89-3.16,5.1-6.62h0V6.09a6.39,6.39,0,0,0-1.85-5A4.84,4.84,0,0,0,29,0a5.33,5.33,0,0,0-2.06.38c-2,.83-3.06,2.9-3.06,5.71v.37Zm7-2.4a5.52,5.52,0,0,0,2.4,2.78,7.85,7.85,0,0,1-1.32,3.75A5,5,0,0,1,30.55,12a2.79,2.79,0,0,1-3.13,0A5,5,0,0,1,26,10.59,8,8,0,0,1,24.7,6.77C26,7,29.84,7.54,30.86,4.06Z"/><path class="cls-2" d="M11,14.49a.76.76,0,0,0,0,.15v0c0,.05,0,.09,0,.14h0c.27,3.39,2.45,6.46,5.09,6.46s4.88-3.16,5.1-6.61h0v-.57a6.41,6.41,0,0,0-1.86-5A4.82,4.82,0,0,0,16.07,8,5.4,5.4,0,0,0,14,8.41c-2,.82-3.06,2.9-3.06,5.7,0,.12,0,.24,0,.36Zm7-2.41a5.52,5.52,0,0,0,2.41,2.78A8,8,0,0,1,19,18.62,5.08,5.08,0,0,1,17.63,20a2.78,2.78,0,0,1-3.12,0,5.08,5.08,0,0,1-1.4-1.38,7.94,7.94,0,0,1-1.32-3.83C13.05,15.06,16.92,15.56,17.94,12.08Z"/></g></g></svg>