<?xml version="1.0" encoding="utf-8"?>
<!-- Generator: Adobe Illustrator 22.0.1, SVG Export Plug-In . SVG Version: 6.00 Build 0)  -->
<svg version="1.1" xmlns="http://www.w3.org/2000/svg" xmlns:xlink="http://www.w3.org/1999/xlink" x="0px" y="0px"
	 viewBox="0 0 674.8 451" style="enable-background:new 0 0 674.8 451;" xml:space="preserve">
<style type="text/css">
	.st0{fill-rule:evenodd;clip-rule:evenodd;fill:#E0E0E0;}
	.st1{fill:#E0E0E0;}
	.st2{fill:#F5F5F5;}
	.st3{display:none;}
	.st4{display:inline;fill:#EBEBEB;}
	.st5{fill:#263238;}
	.st6{fill-rule:evenodd;clip-rule:evenodd;fill:#4169EA;}
	.st7{opacity:0.8;}
	.st8{fill-rule:evenodd;clip-rule:evenodd;fill:#FFFFFF;}
	.st9{opacity:0.4;}
	.st10{fill-rule:evenodd;clip-rule:evenodd;fill:#263238;}
	.st11{fill:#E1EFFF;}
	.st12{fill:#FFFFFF;}
	.st13{fill:#4169EA;}
	.st14{opacity:0.3;}
	.st15{fill:#455A64;}
	.st16{opacity:0.5;}
	.st17{fill:#C7E1F9;}
	.st18{fill:#FAFAFA;}
	.st19{opacity:0.6;}
	.st20{fill:#B78876;}
	.st21{fill:#AA6550;}
	.st22{fill:#EBEBEB;}
</style>
<g id="Background_Complete">
	<g>
		<g>
			<g>
				<g>
					<g>
						<g>
							<g>
								<g>
									<path class="st0" d="M247.4,337.8c3.4,0.4,6.6,1.3,9.7,2.6l7.1-6l12.3,9.3l-3.9,8.5c2,2.6,3.8,5.5,5.1,8.7l9.3,0.8
										l2.1,15.3l-8.7,3.3c-0.4,3.4-1.3,6.6-2.6,9.7l6,7.1l-9.3,12.3l-8.5-3.9c-2.6,2-5.5,3.8-8.7,5.1l-0.8,9.3l-15.3,2.1
										l-3.3-8.7c-3.4-0.4-6.6-1.3-9.7-2.6l-7.1,6l-12.3-9.3l3.9-8.5c-2-2.6-3.8-5.5-5.1-8.7l-9.3-0.8l-2.1-15.3l8.7-3.3
										c0.4-3.4,1.3-6.6,2.6-9.7l-6-7.1l9.3-12.3l8.5,3.9c2.6-2,5.5-3.8,8.7-5.1l0.8-9.3l15.3-2.1L247.4,337.8L247.4,337.8z
										 M242.8,358.9c-10.5,0.4-18,10.2-15.6,20.4c1.8,7.6,8.9,12.9,16.6,12.7c10.5-0.4,18-10.2,15.5-20.4
										C257.7,364,250.6,358.7,242.8,358.9z"/>
								</g>
							</g>
						</g>
					</g>
				</g>
			</g>
		</g>
	</g>
	<g>
		<g>
			<path class="st1" d="M84.9,113.9V69.5c24.4,0,44.4,20.1,44.4,44.4c0,24.4-20.1,44.4-44.4,44.4c-24,0-43.9-19.4-44.4-43.4
				L84.9,113.9z"/>
		</g>
		<g>
			<path class="st2" d="M74.1,101.9l-44.4,1c0-11.6,4.5-23.7,12.6-32c8.1-8.3,19.6-13.1,31.1-13.4L74.1,101.9z"/>
		</g>
	</g>
	<g>
		<g>
			<g>
				<g>
					<g>
						<g>
							<g>
								<g>
									<path class="st0" d="M573.8,8.7c3.4,0.4,6.6,1.3,9.7,2.6l7.1-6l12.3,9.3l-3.9,8.5c2,2.6,3.8,5.5,5.1,8.7l9.3,0.8l2.1,15.3
										l-8.7,3.3c-0.4,3.4-1.3,6.6-2.6,9.7l6,7.1l-9.3,12.3l-8.5-3.9c-2.6,2-5.5,3.8-8.7,5.1l-0.8,9.3l-15.3,2.1l-3.3-8.7
										c-3.4-0.4-6.6-1.3-9.7-2.6l-7.1,6l-12.3-9.3l3.9-8.5c-2-2.6-3.8-5.5-5.1-8.7l-9.3-0.8L522.6,45l8.7-3.3
										c0.4-3.4,1.3-6.6,2.6-9.7l-6-7.1l9.3-12.3l8.5,3.9c2.6-2,5.5-3.8,8.7-5.1l0.8-9.3L570.6,0L573.8,8.7L573.8,8.7z
										 M569.2,29.8c-10.5,0.4-18,10.2-15.6,20.4c1.8,7.6,8.9,12.9,16.6,12.7c10.5-0.4,18-10.2,15.5-20.4
										C584.1,34.9,577,29.5,569.2,29.8z"/>
								</g>
							</g>
						</g>
					</g>
				</g>
			</g>
		</g>
	</g>
</g>
<g id="Background_Simple" class="st3">
	<path class="st4" d="M639.1,64.5c-25.5-32.2-66-53.4-107-51.3c-41,2.1-80.8,29.7-93.2,68.9c-4.8,15.1-5.6,31.2-8.8,46.7
		c-3.2,15.5-9.5,31.4-22.3,40.8c-11.8,8.7-27.3,10.6-41.9,9.9s-29.1-3.6-43.8-3.3c-35.6,0.8-69.9,22.5-85.9,54.3
		c-16,31.8-13,72.2,7.5,101.3l3.5,5.4c38,59.6,107.3,75.2,150.7,74.2c44-1.1,93.1-8.8,133.8-25.5c40.7-16.7,74-48.2,100.3-83.3
		c26.4-35.1,41.3-78.6,42.5-122.6C675.8,138.9,664.6,96.8,639.1,64.5z"/>
	<path class="st4" d="M200.3,72.6c-0.4-14.7-7.7-29-16.6-40.7C166,8.2,133.8,5.2,108.3,6.1l1.5,0.1C71,4.4,46.7,37.5,40.7,63.8
		c-6,26.4,5.5,54.6,24.5,73.8c14.7,14.8,34.5,25.3,55.4,26c22.6,0.7,44.8-10.6,59.1-28C194.2,118.2,200.9,95.2,200.3,72.6z"/>
</g>
<g id="Floor">
	<g>
		<g>
			<path class="st5" d="M671.5,435.6c0,0.1-150.3,0.3-335.7,0.3C150.3,435.8,0,435.7,0,435.6s150.3-0.3,335.8-0.3
				C521.2,435.3,671.5,435.4,671.5,435.6z"/>
		</g>
	</g>
</g>
<g id="Nuts">
	<g>
		<g>
			<g>
				<g>
					<g>
						<g>
							<path class="st6" d="M110.3,221.2c2.8,1.5,5.4,3.3,7.7,5.4l8.2-2.9l7.7,12.2l-6.1,6.2c0.9,3,1.5,6.1,1.6,9.3l7.9,3.7
								l-3.2,14.1l-8.7,0c-1.5,2.8-3.3,5.4-5.4,7.7l2.9,8.2l-12.2,7.7l-6.2-6.1c-3,0.9-6.1,1.5-9.3,1.6l-3.7,7.9l-14.1-3.2l0-8.7
								c-2.8-1.5-5.4-3.3-7.7-5.4l-8.2,2.9l-7.7-12.2l6.1-6.2c-0.9-3-1.5-6.1-1.6-9.3l-7.9-3.7l3.2-14.1l8.7,0
								c1.5-2.8,3.3-5.4,5.4-7.7l-2.9-8.2l12.2-7.7l6.2,6.1c3-0.9,6.1-1.5,9.3-1.6l3.7-7.9l14.1,3.2L110.3,221.2L110.3,221.2z
								 M97.9,237.7c-8.3-1.9-16.6,3.4-18.5,11.7c-1.9,8.3,3.4,16.6,11.7,18.5c8.3,1.9,16.6-3.4,18.5-11.7
								C111.5,247.8,106.2,239.6,97.9,237.7z"/>
						</g>
					</g>
				</g>
			</g>
			<g class="st7">
				<g>
					<g>
						<g>
							<path class="st8" d="M110.3,221.2c2.8,1.5,5.4,3.3,7.7,5.4l8.2-2.9l7.7,12.2l-6.1,6.2c0.9,3,1.5,6.1,1.6,9.3l7.9,3.7
								l-3.2,14.1l-8.7,0c-1.5,2.8-3.3,5.4-5.4,7.7l2.9,8.2l-12.2,7.7l-6.2-6.1c-3,0.9-6.1,1.5-9.3,1.6l-3.7,7.9l-14.1-3.2l0-8.7
								c-2.8-1.5-5.4-3.3-7.7-5.4l-8.2,2.9l-7.7-12.2l6.1-6.2c-0.9-3-1.5-6.1-1.6-9.3l-7.9-3.7l3.2-14.1l8.7,0
								c1.5-2.8,3.3-5.4,5.4-7.7l-2.9-8.2l12.2-7.7l6.2,6.1c3-0.9,6.1-1.5,9.3-1.6l3.7-7.9l14.1,3.2L110.3,221.2L110.3,221.2z
								 M97.9,237.7c-8.3-1.9-16.6,3.4-18.5,11.7c-1.9,8.3,3.4,16.6,11.7,18.5c8.3,1.9,16.6-3.4,18.5-11.7
								C111.5,247.8,106.2,239.6,97.9,237.7z"/>
						</g>
					</g>
				</g>
			</g>
		</g>
		<g>
			<g>
				<g>
					<g>
						<g>
							<g>
								<path class="st5" d="M122.8,347.6c0,0,1.3,0.1,3.3,1c2,0.9,4.8,3,6.6,6.7c0.9,1.8,1.4,4,1.3,6.4c-0.1,2.4-0.7,5-2.2,7.2
									c-0.7,1.1-1.6,2.2-2.7,3.1c-1.1,0.9-2.3,1.7-3.6,2.3c-2.7,1.2-5.9,1.5-8.9,0.9c-3-0.7-5.8-2.4-7.7-4.6
									c-1-1.1-1.7-2.3-2.3-3.6c-0.6-1.3-0.9-2.6-1.1-4c-0.4-2.7,0.2-5.3,1.1-7.5c0.9-2.2,2.4-4,4-5.2c3.2-2.6,6.6-3.2,8.8-3.2
									C121.6,347.1,122.8,347.6,122.8,347.6c0,0.1-1.2-0.2-3.4-0.2c-2.2,0.1-5.5,0.8-8.4,3.3c-1.5,1.3-2.8,3-3.7,5.1
									c-0.9,2.1-1.3,4.6-1,7.1c0.1,1.3,0.5,2.5,1.1,3.8c0.5,1.2,1.3,2.4,2.2,3.4c1.8,2.1,4.4,3.7,7.3,4.3c2.9,0.6,5.9,0.3,8.4-0.8
									c1.3-0.5,2.4-1.3,3.4-2.2c1-0.9,1.9-1.9,2.6-2.9c1.4-2.1,2-4.6,2.2-6.8c0.1-2.3-0.4-4.4-1.2-6.2c-1.6-3.6-4.3-5.6-6.2-6.6
									C124,347.9,122.8,347.6,122.8,347.6z"/>
							</g>
						</g>
					</g>
				</g>
			</g>
			<g>
				<g>
					<g>
						<g>
							<g>
								<path class="st5" d="M134,332.6c0,0,0-0.2,0-0.5c0-0.4,0-0.9,0-1.5c0-1.4,0-3.3-0.1-5.9l0.1,0.1c-3.3-0.7-7.5-1.6-12.7-2.8
									l0.2-0.1c-1,2.2-2.1,4.6-3.3,7.1l-0.1,0.1l-0.1,0c-2.6,0.1-5.5,0.6-8.3,1.5l-0.2,0l-0.1-0.1c-1.7-1.7-3.6-3.6-5.6-5.5l0.4,0
									c-3.5,2.2-7.1,4.5-11,7l0.1-0.4c0.8,2.3,1.7,4.8,2.7,7.4l0.1,0.2l-0.1,0.1c-1.8,1.9-3.5,4.3-4.8,6.9l-0.1,0.2l-0.2,0
									c-2.4,0-5.1,0-7.9,0l0.3-0.3c-0.9,4-1.9,8.3-2.8,12.7l-0.2-0.4c2.2,1.1,4.7,2.2,7.1,3.4l0.2,0.1l0,0.2
									c0.1,2.6,0.6,5.5,1.4,8.3l0.1,0.2l-0.2,0.2c-1.7,1.7-3.6,3.7-5.6,5.6l0.1-0.5c2.2,3.5,4.6,7.2,7,11l-0.5-0.2
									c2.3-0.8,4.9-1.7,7.4-2.6l0.2-0.1l0.2,0.2c2,1.8,4.3,3.5,6.9,4.8l0,0l0,0c0.1,0.2-0.2-0.4,0.2,0.4v0v0l0,0v0.1l0,0.1l0,0.2
									l0,0.5l0,1l0,2c0,1.3,0,2.6,0,3.9l-0.3-0.4c4.3,1,8.5,1.9,12.7,2.9l-0.4,0.2c1.1-2.4,2.3-4.8,3.4-7.1l0.1-0.2l0.2,0
									c2.8-0.1,5.6-0.6,8.3-1.4l0.2-0.1l0.2,0.2c1.9,1.9,3.7,3.7,5.6,5.6l-0.5-0.1c3.8-2.4,7.4-4.7,11-7l-0.2,0.4
									c-0.9-2.5-1.8-5-2.6-7.4l-0.1-0.2l0.1-0.2c2-2.1,3.6-4.4,4.9-6.9l0.1-0.2l0.2,0c2.7,0,5.3,0,7.9,0l-0.3,0.3
									c1-4.5,2-8.7,2.9-12.7l0.2,0.3c-2.5-1.2-4.8-2.3-7.1-3.4L151,360l0-0.2c-0.1-3-0.6-5.8-1.4-8.3l0-0.2l0.1-0.1
									c2-2,3.9-3.8,5.6-5.6l0,0.3c-2.7-4.3-5-7.9-6.9-11l0.2,0.1c-3,1-5.4,1.9-7.4,2.6l-0.1,0l-0.1-0.1c-2.1-2-3.9-3.1-5.1-3.9
									c-0.6-0.4-1-0.6-1.4-0.8C134.1,332.7,134,332.6,134,332.6c0,0,0.2,0.1,0.5,0.2c0.3,0.2,0.8,0.4,1.4,0.8
									c1.2,0.7,3,1.9,5.2,3.8l-0.1,0c2-0.7,4.4-1.6,7.4-2.7l0.1,0l0.1,0.1c2,3.1,4.3,6.7,7,11l0.1,0.2l-0.1,0.1
									c-1.7,1.7-3.5,3.6-5.5,5.6l0.1-0.3c0.8,2.6,1.4,5.4,1.5,8.4l-0.2-0.2c2.3,1.1,4.6,2.2,7.1,3.4l0.2,0.1l-0.1,0.2
									c-0.9,4-1.8,8.2-2.8,12.7l-0.1,0.3l-0.3,0c-2.6,0-5.2,0-7.9,0l0.3-0.2c-1.3,2.5-2.9,4.9-4.9,7l0.1-0.4
									c0.9,2.4,1.8,4.9,2.7,7.4l0.1,0.3l-0.2,0.2c-3.6,2.3-7.2,4.6-11,7l-0.3,0.2l-0.2-0.2c-1.8-1.8-3.7-3.7-5.6-5.6l0.4,0.1
									c-2.7,0.9-5.6,1.4-8.5,1.5l0.3-0.2c-1.1,2.3-2.2,4.7-3.4,7.1l-0.1,0.3l-0.3-0.1c-4.2-0.9-8.4-1.9-12.7-2.8l-0.3-0.1l0-0.3
									c0-1.3,0-2.6,0-3.9l0-2l0-1l0-0.5l0-0.2l0-0.1l0-0.1v0v0v0c0.4,0.7,0.1,0.2,0.2,0.4l0,0l0,0c-2.6-1.4-5-3.1-7-5l0.4,0.1
									c-2.5,0.9-5.1,1.8-7.4,2.6l-0.3,0.1l-0.2-0.3c-2.4-3.8-4.8-7.5-7-11l-0.2-0.3l0.2-0.2c1.9-1.9,3.8-3.8,5.6-5.6l-0.1,0.4
									c-0.9-2.8-1.4-5.8-1.5-8.5l0.2,0.3c-2.5-1.2-4.9-2.3-7.1-3.4l-0.3-0.1l0.1-0.3c1-4.4,2-8.7,2.9-12.7l0.1-0.3l0.3,0
									c2.7,0,5.4,0,7.9,0l-0.3,0.2c1.4-2.7,3.1-5.1,5-7l-0.1,0.3c-0.9-2.6-1.8-5.1-2.6-7.4l-0.1-0.2l0.2-0.1c3.9-2.4,7.6-4.8,11-7
									l0.2-0.1l0.2,0.2c2,2,3.8,3.8,5.6,5.6l-0.3-0.1c2.9-0.9,5.8-1.3,8.4-1.4l-0.2,0.1c1.2-2.6,2.4-4.9,3.4-7.1l0.1-0.1l0.2,0
									c5.2,1.2,9.4,2.2,12.7,2.9l0.1,0l0,0.1c0,2.5,0,4.5-0.1,5.8c0,0.6,0,1.1,0,1.5C134,332.4,134,332.6,134,332.6z"/>
							</g>
						</g>
					</g>
				</g>
			</g>
		</g>
		<g>
			<g>
				<g>
					<g>
						<g>
							<path class="st6" d="M59.5,304c1.6,0.9,3.1,1.9,4.5,3.1l4.8-1.7l4.5,7.1l-3.6,3.6c0.5,1.7,0.9,3.5,0.9,5.4l4.6,2.2l-1.8,8.2
								l-5.1,0c-0.9,1.6-1.9,3.1-3.2,4.5l1.7,4.8l-7.1,4.5l-3.6-3.6c-1.7,0.5-3.5,0.9-5.4,0.9l-2.2,4.6l-8.2-1.8l0-5.1
								c-1.6-0.9-3.1-1.9-4.5-3.1l-4.8,1.7l-4.5-7.1l3.6-3.6c-0.5-1.7-0.9-3.5-0.9-5.4l-4.6-2.2l1.8-8.2l5.1,0
								c0.9-1.6,1.9-3.1,3.1-4.5l-1.7-4.8l7.1-4.5l3.6,3.6c1.7-0.5,3.5-0.9,5.4-0.9l2.2-4.6l8.2,1.8L59.5,304L59.5,304z M52.2,313.6
								c-4.8-1.1-9.7,2-10.8,6.8c-1.1,4.8,2,9.7,6.8,10.8c4.8,1.1,9.7-2,10.8-6.8C60.1,319.5,57.1,314.7,52.2,313.6z"/>
						</g>
					</g>
				</g>
			</g>
			<g class="st9">
				<g>
					<g>
						<g>
							<path class="st8" d="M59.5,304c1.6,0.9,3.1,1.9,4.5,3.1l4.8-1.7l4.5,7.1l-3.6,3.6c0.5,1.7,0.9,3.5,0.9,5.4l4.6,2.2l-1.8,8.2
								l-5.1,0c-0.9,1.6-1.9,3.1-3.2,4.5l1.7,4.8l-7.1,4.5l-3.6-3.6c-1.7,0.5-3.5,0.9-5.4,0.9l-2.2,4.6l-8.2-1.8l0-5.1
								c-1.6-0.9-3.1-1.9-4.5-3.1l-4.8,1.7l-4.5-7.1l3.6-3.6c-0.5-1.7-0.9-3.5-0.9-5.4l-4.6-2.2l1.8-8.2l5.1,0
								c0.9-1.6,1.9-3.1,3.1-4.5l-1.7-4.8l7.1-4.5l3.6,3.6c1.7-0.5,3.5-0.9,5.4-0.9l2.2-4.6l8.2,1.8L59.5,304L59.5,304z M52.2,313.6
								c-4.8-1.1-9.7,2-10.8,6.8c-1.1,4.8,2,9.7,6.8,10.8c4.8,1.1,9.7-2,10.8-6.8C60.1,319.5,57.1,314.7,52.2,313.6z"/>
						</g>
					</g>
				</g>
			</g>
		</g>
	</g>
	<g>
		<g>
			<g>
				<g>
					<g>
						<g>
							<g>
								<g>
									<path class="st10" d="M585.6,162.3c2.3,0.3,4.6,0.9,6.7,1.8l4.9-4.1l8.4,6.4l-2.7,5.8c1.4,1.8,2.6,3.8,3.5,6l6.4,0.6
										l1.4,10.5l-6,2.2c-0.3,2.3-0.9,4.6-1.8,6.7l4.1,4.9l-6.4,8.4l-5.8-2.7c-1.8,1.4-3.8,2.6-6,3.5l-0.6,6.4l-10.5,1.4l-2.2-6
										c-2.3-0.3-4.6-0.9-6.7-1.8l-4.9,4.1L559,210l2.7-5.8c-1.4-1.8-2.6-3.8-3.5-6l-6.4-0.6l-1.4-10.5l6-2.2
										c0.3-2.3,0.9-4.6,1.8-6.7l-4.1-4.9l6.4-8.4l5.8,2.7c1.8-1.4,3.8-2.6,6-3.5l0.6-6.4l10.5-1.4L585.6,162.3L585.6,162.3z
										 M582.4,176.8c-7.2,0.3-12.3,7-10.7,14c1.2,5.2,6.1,8.9,11.4,8.7c7.2-0.3,12.3-7,10.7-14
										C592.6,180.3,587.7,176.6,582.4,176.8z"/>
								</g>
							</g>
						</g>
					</g>
				</g>
			</g>
		</g>
	</g>
	<g>
		<g>
			<g>
				<g>
					<g>
						<g>
							<g>
								<g>
									<g>
										<g>
											<path class="st5" d="M626.6,99.5c0,0,1.2-0.3,3.4-0.2c2.2,0.2,5.5,1.1,8.3,3.9c1.4,1.4,2.7,3.2,3.4,5.5
												c0.7,2.2,1,4.8,0.4,7.4c-0.3,1.3-0.7,2.6-1.4,3.8c-0.7,1.2-1.5,2.4-2.6,3.4c-2,2-4.9,3.4-7.9,3.8c-3,0.4-6.1-0.2-8.6-1.6
												c-1.3-0.7-2.4-1.6-3.4-2.6c-1-1-1.8-2.1-2.4-3.3c-1.3-2.3-1.7-4.9-1.6-7.2c0.1-2.3,0.9-4.5,1.9-6.2c2-3.5,5-5.2,7-6
												C625.4,99.5,626.6,99.5,626.6,99.5c0,0.1-1.2,0.2-3.2,1c-2,0.8-4.7,2.6-6.6,6c-0.9,1.7-1.6,3.7-1.7,5.9
												c-0.1,2.2,0.3,4.7,1.5,6.9c0.6,1.1,1.3,2.2,2.3,3.1c0.9,0.9,2,1.8,3.2,2.4c2.4,1.3,5.3,1.9,8.2,1.5
												c2.9-0.4,5.5-1.7,7.5-3.6c1-0.9,1.8-2,2.4-3.2c0.6-1.1,1.1-2.4,1.4-3.6c0.6-2.4,0.3-4.9-0.3-7c-0.7-2.1-1.9-3.9-3.2-5.3
												c-2.7-2.7-5.9-3.7-8-4C627.9,99.4,626.7,99.6,626.6,99.5z"/>
										</g>
									</g>
								</g>
							</g>
						</g>
					</g>
				</g>
			</g>
			<g>
				<g>
					<g>
						<g>
							<g>
								<g>
									<g>
										<g>
											<path class="st5" d="M631.8,82c0,0-0.1-0.1-0.2-0.4c-0.1-0.3-0.3-0.8-0.5-1.4c-0.5-1.3-1.2-3.1-2.1-5.4l0.1,0.1
												c-3.2,0.5-7.5,1.1-12.7,1.8l0.2-0.2c-0.2,2.3-0.4,4.9-0.6,7.7l0,0.1l-0.1,0.1c-2.4,1-4.8,2.4-7.1,4.2l-0.1,0.1l-0.1-0.1
												c-2.2-1-4.6-2.1-7-3.2l0.3-0.1c-2.4,3.2-5,6.6-7.7,10.2l0-0.4c1.5,1.8,3.2,3.8,5,5.9l0.1,0.2l-0.1,0.2
												c-1,2.4-1.7,5.1-2.1,8l0,0.2l-0.2,0.1c-2.2,0.8-4.7,1.8-7.2,2.7l0.2-0.4c0.5,4,1.1,8.3,1.7,12.7l-0.3-0.3
												c2.4,0.2,5,0.4,7.7,0.7l0.2,0l0.1,0.2c1,2.4,2.4,4.9,4.2,7.1l0.1,0.2l-0.1,0.2c-1,2.2-2.1,4.6-3.2,7l-0.1-0.5
												c3.2,2.4,6.7,5.1,10.2,7.7l-0.5,0c1.9-1.6,3.9-3.3,5.9-5l0.2-0.2l0.2,0.1c2.4,1,5.1,1.8,7.9,2.1l0,0l0,0
												c0.1,0.1-0.3-0.3,0.3,0.3l0,0l0,0l0,0l0,0.1l0,0.1l0.1,0.2l0.2,0.5l0.3,0.9l0.7,1.8c0.5,1.2,0.9,2.4,1.3,3.6l-0.4-0.3
												c4.3-0.6,8.5-1.2,12.7-1.7l-0.3,0.4c0.2-2.6,0.5-5.2,0.7-7.7l0-0.2l0.2-0.1c2.6-1.1,5-2.5,7.1-4.1l0.2-0.1l0.2,0.1
												c2.4,1.1,4.7,2.2,7,3.2l-0.5,0.1c2.6-3.5,5.2-6.9,7.7-10.2l0,0.5c-1.7-2-3.3-4-5-5.9l-0.1-0.2l0.1-0.2
												c1.1-2.6,1.8-5.3,2.1-8l0-0.2l0.2-0.1c2.5-0.9,4.9-1.8,7.2-2.7l-0.2,0.4c-0.6-4.5-1.2-8.7-1.7-12.7l0.3,0.3
												c-2.7-0.2-5.2-0.5-7.7-0.7l-0.2,0l-0.1-0.2c-1.1-2.7-2.6-5.1-4.1-7.1l-0.1-0.1l0.1-0.1c1.2-2.6,2.2-4.8,3.2-7l0.1,0.3
												c-3.9-3-7.3-5.6-10.1-7.8l0.2,0c-2.4,2-4.3,3.6-6,4.9l-0.1,0l-0.1,0c-2.6-1.1-4.6-1.6-6-1.9c-0.7-0.1-1.2-0.2-1.5-0.3
												C632,82,631.8,82,631.8,82c0,0,0.2,0,0.5,0c0.3,0,0.9,0.1,1.5,0.2c1.4,0.2,3.4,0.7,6.1,1.7l-0.1,0c1.6-1.4,3.5-3,5.9-5
												l0.1-0.1l0.1,0.1c2.9,2.2,6.3,4.7,10.2,7.7l0.1,0.1l-0.1,0.2c-1,2.2-2,4.5-3.2,7l0-0.3c1.6,2.1,3.1,4.5,4.3,7.2l-0.2-0.2
												c2.4,0.2,5,0.4,7.7,0.7l0.2,0l0,0.2c0.6,4,1.1,8.2,1.7,12.7l0,0.3l-0.2,0.1c-2.3,0.9-4.7,1.8-7.2,2.7l0.2-0.3
												c-0.3,2.7-1,5.5-2.1,8.1l-0.1-0.4c1.6,1.9,3.3,3.9,5,5.9l0.2,0.2l-0.2,0.2c-2.5,3.3-5.1,6.7-7.7,10.2l-0.2,0.2l-0.3-0.1
												c-2.3-1.1-4.7-2.1-7-3.2l0.4,0c-2.2,1.7-4.6,3.2-7.3,4.3l0.2-0.3c-0.2,2.5-0.4,5.1-0.7,7.7l0,0.3l-0.3,0
												c-4.2,0.6-8.4,1.1-12.7,1.7l-0.3,0l-0.1-0.3c-0.4-1.2-0.9-2.4-1.3-3.6l-0.7-1.8l-0.3-0.9l-0.2-0.5l-0.1-0.2l0-0.1l0-0.1
												l0,0l0,0l0,0c0.6,0.5,0.2,0.1,0.3,0.3l0,0l0,0c-2.9-0.4-5.7-1.1-8.1-2.2l0.4-0.1c-2,1.7-4.1,3.4-5.9,5l-0.2,0.2l-0.2-0.2
												c-3.5-2.7-6.9-5.3-10.2-7.7l-0.2-0.2l0.1-0.3c1.1-2.4,2.2-4.8,3.2-7l0,0.4c-1.8-2.3-3.2-4.8-4.2-7.3l0.3,0.2
												c-2.7-0.2-5.3-0.5-7.7-0.7l-0.3,0l0-0.3c-0.6-4.4-1.2-8.7-1.7-12.7l0-0.3l0.3-0.1c2.5-0.9,5-1.9,7.2-2.7l-0.2,0.3
												c0.4-2.9,1.2-5.7,2.2-8.1l0.1,0.3c-1.7-2.1-3.4-4.1-5-5.9l-0.2-0.2l0.2-0.2c2.7-3.6,5.3-7,7.8-10.2l0.1-0.2l0.2,0.1
												c2.5,1.1,4.8,2.2,7,3.2l-0.3,0c2.4-1.8,4.8-3.2,7.3-4.2l-0.1,0.2c0.3-2.8,0.5-5.4,0.7-7.7l0-0.2l0.2,0
												c5.2-0.7,9.4-1.2,12.7-1.6l0.1,0l0,0.1c0.8,2.3,1.5,4.1,1.9,5.4c0.2,0.6,0.4,1.1,0.5,1.4C631.8,81.8,631.9,81.9,631.8,82
												z"/>
										</g>
									</g>
								</g>
							</g>
						</g>
					</g>
				</g>
			</g>
		</g>
	</g>
</g>
<g id="Screen">
	<g>
		<g>
			<g>
				<g>
					<rect x="117.8" y="43.4" class="st11" width="460" height="318"/>
				</g>
				<g>
					<g>
						<path class="st5" d="M577.8,361.4c0-1.7-0.1-124.6-0.2-318l0.2,0.2c-127.6,0-287.2,0-460,0.1h0l0.3-0.3c0,113.6,0,221.5,0,318
							l-0.2-0.2C389.3,361.3,575.7,361.4,577.8,361.4c-2.1,0-188.5,0.1-460,0.2l-0.2,0v-0.2c0-96.5,0-204.4,0-318v-0.3h0.3h0
							c172.8,0,332.4,0,460,0.1h0.2l0,0.2C577.9,236.8,577.8,359.7,577.8,361.4z"/>
					</g>
				</g>
			</g>
			<g>
				<rect x="117.8" y="43.4" class="st5" width="460" height="18.5"/>
			</g>
			<g>
				<path class="st12" d="M130.9,52.2c0,1.6-1.3,2.8-2.8,2.8c-1.6,0-2.8-1.3-2.8-2.8c0-1.6,1.3-2.8,2.8-2.8
					C129.6,49.4,130.9,50.7,130.9,52.2z"/>
			</g>
			<g>
				<path class="st12" d="M141.1,52.2c0,1.6-1.3,2.8-2.8,2.8c-1.6,0-2.8-1.3-2.8-2.8c0-1.6,1.3-2.8,2.8-2.8
					C139.8,49.4,141.1,50.7,141.1,52.2z"/>
			</g>
			<g>
				<path class="st12" d="M151.3,52.2c0,1.6-1.3,2.8-2.8,2.8c-1.6,0-2.8-1.3-2.8-2.8c0-1.6,1.3-2.8,2.8-2.8
					C150.1,49.4,151.3,50.7,151.3,52.2z"/>
			</g>
		</g>
		<g>
			<g>
				<g>
					<path class="st1" d="M561.3,341.4c0-1.2-0.1-38-0.2-103.3l0.2,0.2c-94.9,0-249.9,0.1-424.7,0.1h0l0.3-0.3c0,35.4,0,70,0,103.3
						l-0.3-0.3C378.8,341.3,558.8,341.4,561.3,341.4c-2.5,0-182.5,0.1-424.7,0.3l-0.3,0v-0.3c0-33.3,0-67.9,0-103.3v-0.3h0.3h0
						c174.8,0,329.8,0.1,424.7,0.1h0.2l0,0.2C561.4,303.4,561.3,340.2,561.3,341.4z"/>
				</g>
			</g>
			<g>
				<g>
					<g>
						<path class="st1" d="M342.9,229.4c0,0,0-0.9,0-2.6c0-1.7,0-4.3,0-7.6c0-6.7,0-16.5-0.1-29.1c0-25.2-0.1-61.3-0.1-105.2
							l0.2,0.2c-57.2,0-128.3,0-205.3,0h0l0.3-0.3c0,51.7,0,100.8,0,144.6l-0.2-0.2c60.6,0,111.9,0.1,148.1,0.1
							c18.1,0,32.4,0,42.2,0.1c4.9,0,8.7,0,11.2,0c1.3,0,2.2,0,2.9,0C342.6,229.4,342.9,229.4,342.9,229.4s-0.3,0-1,0
							c-0.6,0-1.6,0-2.9,0c-2.5,0-6.3,0-11.2,0c-9.8,0-24.1,0-42.1,0.1c-36.2,0-87.6,0.1-148.2,0.1l-0.2,0l0-0.2
							c0-43.8,0-92.9,0-144.6v-0.3h0.3h0c77,0,148.2,0,205.3,0h0.2l0,0.2c0,44-0.1,80.1-0.1,105.3c0,12.6,0,22.4-0.1,29.1
							c0,3.3,0,5.9,0,7.6C342.9,228.5,342.9,229.4,342.9,229.4z"/>
					</g>
				</g>
				<g>
					<path class="st13" d="M159.8,202.1l14.8-21.4c3-4.4,9-5.4,13.3-2.3l2.1,1.5c5.2,3.7,12.4,1.4,14.5-4.6l7.2-21
						c2.9-8.5,15-8.5,17.9,0l3.5,10.2c2.8,8.2,14.1,8.7,17.6,0.8l3-6.8c3-6.8,12.3-7.6,16.5-1.5v0c4.4,6.4,14.3,5.1,16.8-2.3
						l3.4-9.8c3.1-9,16.1-8.3,18.2,1l12.9,56.4C321.3,202.1,160.2,201.6,159.8,202.1z"/>
				</g>
				<g class="st14">
					<path d="M159.8,202.1l14.8-21.4c3-4.4,9-5.4,13.3-2.3l2.1,1.5c5.2,3.7,12.4,1.4,14.5-4.6l7.2-21c2.9-8.5,15-8.5,17.9,0
						l3.5,10.2c2.8,8.2,14.1,8.7,17.6,0.8l3-6.8c3-6.8,12.3-7.6,16.5-1.5v0c4.4,6.4,14.3,5.1,16.8-2.3l3.4-9.8
						c3.1-9,16.1-8.3,18.2,1l12.9,56.4C321.3,202.1,160.2,201.6,159.8,202.1z"/>
				</g>
				<g>
					<g>
						<g>
							<g>
								<path class="st13" d="M159.4,202.6l12-35.2c2.8-8.2,14.4-8.4,17.4-0.2l5.8,15.6c2.5,6.7,11.4,8.2,15.9,2.6l4.7-5.8
									c3.1-3.9,8.7-4.6,12.7-1.7l10.9,7.9c1.6,1.2,3.5,1.8,5.5,1.8h13.8c2,0,3.9,0.6,5.5,1.8l10.3,7.5c4.2,3.1,10.2,2.1,13.1-2.2
									l9.7-14.1c0.1-0.2,0.3-0.4,0.4-0.5c3.9-4.9,11.6-3.9,14.4,1.7l10.3,20.5C321.6,202.3,159.4,202,159.4,202.6z"/>
							</g>
						</g>
					</g>
				</g>
				<g>
					<path class="st13" d="M321.5,202.3L309,192.1c-17.2-12.7-25.4,11.4-38.9-6.6l-4.7-5.8c-3.1-3.9-8.7-4.6-12.7-1.7l-5.4,3.9
						c-5.1,3.8-11.3,5.8-17.7,5.8h-7.1c-2,0-3.9,0.6-5.5,1.8l-10.3,7.5c-4.2,3.1-7.2,3.5-13.9-2.2c0,0-7.3-6-7.5-6.2
						c-3.6-4.4-11.1-4.4-14.3,0c-0.8,1-1.6,2-2.5,3l-9.7,10.7C158.9,202.3,321.5,201.6,321.5,202.3z"/>
				</g>
				<g class="st14">
					<path class="st12" d="M321.5,202.3L309,192.1c-17.2-12.7-25.4,11.4-38.9-6.6l-4.7-5.8c-3.1-3.9-8.7-4.6-12.7-1.7l-5.4,3.9
						c-5.1,3.8-11.3,5.8-17.7,5.8h-7.1c-2,0-3.9,0.6-5.5,1.8l-10.3,7.5c-4.2,3.1-7.2,3.5-13.9-2.2c0,0-7.3-6-7.5-6.2
						c-3.6-4.4-11.1-4.4-14.3,0c-0.8,1-1.6,2-2.5,3l-9.7,10.7C158.9,202.3,321.5,201.6,321.5,202.3z"/>
				</g>
				<g>
					<g>
						<path class="st5" d="M204,121.1c0,0.1-5.7,0.3-12.8,0.3c-7.1,0-12.8-0.1-12.8-0.3c0-0.1,5.7-0.3,12.8-0.3
							C198.2,120.9,204,121,204,121.1z"/>
					</g>
				</g>
				<g>
					<rect x="171.1" y="118.9" class="st13" width="4.4" height="4.4"/>
				</g>
				<g>
					<g>
						<path class="st5" d="M252.4,121.1c0,0.1-5.7,0.3-12.8,0.3c-7.1,0-12.8-0.1-12.8-0.3c0-0.1,5.7-0.3,12.8-0.3
							C246.6,120.9,252.4,121,252.4,121.1z"/>
					</g>
				</g>
				<g>
					<rect x="219.5" y="118.9" class="st13" width="4.4" height="4.4"/>
				</g>
				<g>
					<g>
						<path class="st5" d="M300.8,121.1c0,0.1-5.7,0.3-12.8,0.3c-7.1,0-12.8-0.1-12.8-0.3c0-0.1,5.7-0.3,12.8-0.3
							C295,120.9,300.8,121,300.8,121.1z"/>
					</g>
				</g>
				<g>
					<rect x="267.9" y="118.9" class="st13" width="4.4" height="4.4"/>
				</g>
			</g>
			<g>
				<g>
					<g>
						<g>
							<path class="st13" d="M301.4,323.7l10.6-15.1c1.2-1.8,3.7-2.1,5.4-0.8l5.6,4.2c1.8,1.4,4.4,0.8,5.6-1.1l16-27.8
								c1.3-2.3,4.6-2.6,6.3-0.5l10,12.7c1.6,2,4.8,1.9,6.2-0.3l7.3-11.5c1.5-2.4,5.1-2.3,6.5,0.1l6,10.5c1.4,2.5,4.9,2.5,6.5,0.1
								l20.7-32.4c1.5-2.3,4.8-2.3,6.3-0.1l34.1,51.1c1.4,2,4.3,2.3,6,0.4l20.7-22.8c1.5-1.6,4-1.7,5.5-0.1l16.5,16.6
								c1.8,1.8,4.7,1.4,6-0.8l29.5-51.1c1.9-3.4,7.1-2,7.1,1.9v66.8H301.4z"/>
						</g>
						<g>
							<g>
								<path class="st5" d="M545,332.1c0,0,0-0.1,0-0.3c0-0.2,0-0.5,0-0.9c0-0.8,0-2.1,0-3.7l0.1,0.1c-14.1,0.1-63.2,0.2-121.4,0.2
									c-58.3,0-107.3-0.1-121.4-0.2l0.1-0.1c0,1.7,0,2.9,0,3.7c0,0.4,0,0.7,0,0.9c0,0.2,0,0.3,0,0.3c0,0,0-0.1,0-0.3
									c0-0.2,0-0.5,0-0.9c0-0.8,0-2.1,0-3.7l0-0.1l0.1,0c14.1-0.1,63.2-0.2,121.4-0.2c58.3,0,107.3,0.1,121.4,0.2l0.1,0l0,0.1
									c0,1.7,0,2.9,0,3.7c0,0.4,0,0.7,0,0.9C545,332,545,332.1,545,332.1z"/>
							</g>
						</g>
						<g>
							<g>
								<path class="st5" d="M329.1,331.7c-0.1,0-0.3-0.5-0.3-1c0-0.6,0.1-1,0.3-1c0.1,0,0.3,0.5,0.3,1
									C329.4,331.2,329.3,331.7,329.1,331.7z"/>
							</g>
						</g>
						<g>
							<g>
								<path class="st5" d="M356.1,331.7c-0.1,0-0.3-0.5-0.3-1c0-0.6,0.1-1,0.3-1s0.3,0.5,0.3,1
									C356.4,331.2,356.2,331.7,356.1,331.7z"/>
							</g>
						</g>
						<g>
							<g>
								<path class="st5" d="M383.1,331.7c-0.1,0-0.3-0.5-0.3-1c0-0.6,0.1-1,0.3-1s0.3,0.5,0.3,1
									C383.4,331.2,383.2,331.7,383.1,331.7z"/>
							</g>
						</g>
						<g>
							<g>
								<path class="st5" d="M410.1,331.7c-0.1,0-0.3-0.5-0.3-1c0-0.6,0.1-1,0.3-1c0.1,0,0.3,0.5,0.3,1
									C410.3,331.2,410.2,331.7,410.1,331.7z"/>
							</g>
						</g>
						<g>
							<g>
								<path class="st5" d="M437.1,331.7c-0.1,0-0.3-0.5-0.3-1c0-0.6,0.1-1,0.3-1s0.3,0.5,0.3,1
									C437.3,331.2,437.2,331.7,437.1,331.7z"/>
							</g>
						</g>
						<g>
							<g>
								<path class="st5" d="M464,331.7c-0.1,0-0.3-0.5-0.3-1c0-0.6,0.1-1,0.3-1c0.1,0,0.3,0.5,0.3,1
									C464.3,331.2,464.2,331.7,464,331.7z"/>
							</g>
						</g>
						<g>
							<g>
								<path class="st5" d="M491,331.7c-0.1,0-0.3-0.5-0.3-1c0-0.6,0.1-1,0.3-1c0.1,0,0.3,0.5,0.3,1
									C491.3,331.2,491.2,331.7,491,331.7z"/>
							</g>
						</g>
						<g>
							<g>
								<path class="st5" d="M518,331.7c-0.1,0-0.3-0.5-0.3-1c0-0.6,0.1-1,0.3-1s0.3,0.5,0.3,1C518.3,331.2,518.2,331.7,518,331.7z"
									/>
							</g>
						</g>
					</g>
				</g>
			</g>
			<g>
				<g>
					<g>
						<path class="st1" d="M562.7,196.3c0,0,0-0.6,0-1.8c0-1.2,0-2.9,0-5.1c0-4.5,0-11.1,0-19.6c0-17-0.1-41.5-0.1-71.7l0.2,0.2
							c-53.5,0-125.9,0-205.3,0.1h0l0.3-0.3c0,34.6,0,67.8,0,98.2l-0.2-0.2c59.8,0,111.1,0.1,147.5,0.1c18.2,0,32.6,0.1,42.6,0.1
							c5,0,8.8,0,11.4,0c1.3,0,2.3,0,2.9,0C562.3,196.3,562.7,196.3,562.7,196.3s-0.3,0-1,0c-0.7,0-1.6,0-2.9,0c-2.6,0-6.4,0-11.3,0
							c-9.9,0-24.3,0-42.5,0.1c-36.4,0-87.8,0.1-147.7,0.1l-0.2,0v-0.2c0-30.4,0-63.6,0-98.2v-0.3h0.3h0c79.5,0,151.8,0.1,205.3,0.1
							l0.2,0l0,0.2c0,30.3-0.1,54.9-0.1,71.9c0,8.5,0,15,0,19.5c0,2.2,0,3.9,0,5.1C562.7,195.7,562.7,196.3,562.7,196.3z"/>
					</g>
				</g>
				<g>
					<g>
						<g>
							<g>
								<path class="st1" d="M516.2,140.9H374.7c-1.3,0-2.4-1.1-2.4-2.4c0-1.3,1.1-2.4,2.4-2.4h141.5c1.3,0,2.4,1.1,2.4,2.4
									C518.6,139.9,517.5,140.9,516.2,140.9z"/>
							</g>
							<g>
								<path class="st1" d="M516.2,122.3H374.7c-1.3,0-2.4-1.1-2.4-2.4c0-1.3,1.1-2.4,2.4-2.4h141.5c1.3,0,2.4,1.1,2.4,2.4
									C518.6,121.2,517.5,122.3,516.2,122.3z"/>
							</g>
							<g>
								<path class="st15" d="M438.7,140.9h-63.9c-1.3,0-2.4-1.1-2.4-2.4c0-1.3,1.1-2.4,2.4-2.4h63.9c1.3,0,2.4,1.1,2.4,2.4
									C441,139.9,440,140.9,438.7,140.9z"/>
							</g>
						</g>
						<g>
							<path class="st5" d="M534.1,139.6h-1v1.4h-0.8v-1.4h-3.1V139l2.8-3.6h0.8l-2.7,3.5h2.1v-1.2h0.7v1.2h1V139.6z"/>
							<path class="st5" d="M538.4,139.3c0,1-0.7,1.7-2.1,1.7c-0.8,0-1.5-0.3-2-0.7l0.4-0.6c0.4,0.3,1,0.6,1.7,0.6
								c0.8,0,1.3-0.4,1.3-1c0-0.6-0.4-1-1.7-1h-1.3l0.3-2.9h3.1v0.7h-2.4l-0.1,1.5h0.6C537.8,137.6,538.4,138.3,538.4,139.3z"/>
							<path class="st5" d="M538.9,136.9c0-0.9,0.5-1.5,1.3-1.5c0.8,0,1.3,0.6,1.3,1.5c0,0.9-0.5,1.5-1.3,1.5
								C539.4,138.4,538.9,137.8,538.9,136.9z M541,136.9c0-0.7-0.3-1.1-0.8-1.1c-0.5,0-0.8,0.4-0.8,1.1c0,0.7,0.3,1.1,0.8,1.1
								C540.7,137.9,541,137.5,541,136.9z M543.5,135.4h0.6l-3.8,5.5h-0.6L543.5,135.4z M542.4,139.5c0-0.9,0.5-1.5,1.3-1.5
								c0.8,0,1.3,0.6,1.3,1.5c0,0.9-0.5,1.5-1.3,1.5C542.9,141,542.4,140.4,542.4,139.5z M544.5,139.5c0-0.7-0.3-1.1-0.8-1.1
								c-0.5,0-0.8,0.4-0.8,1.1s0.3,1.1,0.8,1.1C544.2,140.5,544.5,140.1,544.5,139.5z"/>
						</g>
					</g>
				</g>
				<g>
					<g>
						<g>
							<g>
								<path class="st1" d="M516.2,158.2H374.7c-1.3,0-2.4-1.1-2.4-2.4c0-1.3,1.1-2.4,2.4-2.4h141.5c1.3,0,2.4,1.1,2.4,2.4
									C518.6,157.2,517.5,158.2,516.2,158.2z"/>
							</g>
							<g>
								<path class="st15" d="M459.5,158.2h-84.6c-1.8,0-2.5-1.1-2.5-2.4c0-1.3,0.7-2.4,1.7-2.4h84.6c1.7,0,2.7,1.1,2.7,2.4
									C461.4,157.8,459.6,158.2,459.5,158.2z"/>
							</g>
						</g>
						<g>
							<path class="st5" d="M533.4,152.7v0.5l-2.2,5h-0.8l2.2-4.8H530v1h-0.8v-1.7H533.4z"/>
							<path class="st5" d="M533.9,155.5c0-1.8,1-2.8,2.2-2.8c1.3,0,2.2,1,2.2,2.8c0,1.8-1,2.8-2.2,2.8
								C534.9,158.3,533.9,157.3,533.9,155.5z M537.6,155.5c0-1.4-0.6-2.1-1.5-2.1c-0.9,0-1.5,0.7-1.5,2.1c0,1.4,0.6,2.1,1.5,2.1
								C537,157.6,537.6,156.9,537.6,155.5z"/>
							<path class="st5" d="M539,154.2c0-0.9,0.5-1.5,1.3-1.5c0.8,0,1.3,0.6,1.3,1.5c0,0.9-0.5,1.5-1.3,1.5
								C539.6,155.7,539,155.1,539,154.2z M541.1,154.2c0-0.7-0.3-1.1-0.8-1.1c-0.5,0-0.8,0.4-0.8,1.1c0,0.7,0.3,1.1,0.8,1.1
								C540.8,155.2,541.1,154.8,541.1,154.2z M543.6,152.7h0.6l-3.8,5.5h-0.6L543.6,152.7z M542.5,156.8c0-0.9,0.5-1.5,1.3-1.5
								c0.8,0,1.3,0.6,1.3,1.5c0,0.9-0.5,1.5-1.3,1.5C543,158.3,542.5,157.7,542.5,156.8z M544.6,156.8c0-0.7-0.3-1.1-0.8-1.1
								c-0.5,0-0.8,0.4-0.8,1.1c0,0.7,0.3,1.1,0.8,1.1C544.3,157.8,544.6,157.4,544.6,156.8z"/>
						</g>
					</g>
				</g>
				<g>
					<g>
						<g>
							<g>
								<path class="st1" d="M516.2,175.1H374.7c-1.3,0-2.4-1.1-2.4-2.4s1.1-2.4,2.4-2.4h141.5c1.3,0,2.4,1.1,2.4,2.4
									S517.5,175.1,516.2,175.1z"/>
							</g>
							<g>
								<path class="st15" d="M427.3,175.1h-52.5c-1.3,0-2.4-1.1-2.4-2.4s1.1-2.4,2.4-2.4h52.5c1.3,0,2.4,1.1,2.4,2.4
									S428.6,175.1,427.3,175.1z"/>
							</g>
						</g>
						<g>
							<path class="st5" d="M533.2,173.4c0,1-0.7,1.7-2.1,1.7c-0.8,0-1.5-0.3-2-0.7l0.4-0.6c0.4,0.3,1,0.6,1.7,0.6
								c0.8,0,1.3-0.4,1.3-1c0-0.6-0.4-1-1.7-1h-1.3l0.3-2.9h3.1v0.7h-2.4l-0.1,1.5h0.6C532.6,171.8,533.2,172.5,533.2,173.4z"/>
							<path class="st5" d="M533.9,172.3c0-1.8,1-2.8,2.2-2.8c1.3,0,2.2,1,2.2,2.8c0,1.8-1,2.8-2.2,2.8
								C534.8,175.2,533.9,174.1,533.9,172.3z M537.6,172.3c0-1.4-0.6-2.1-1.5-2.1c-0.9,0-1.5,0.7-1.5,2.1c0,1.4,0.6,2.1,1.5,2.1
								C537,174.5,537.6,173.8,537.6,172.3z"/>
							<path class="st5" d="M539,171c0-0.9,0.5-1.5,1.3-1.5c0.8,0,1.3,0.6,1.3,1.5c0,0.9-0.5,1.5-1.3,1.5
								C539.5,172.5,539,171.9,539,171z M541.1,171c0-0.7-0.3-1.1-0.8-1.1c-0.5,0-0.8,0.4-0.8,1.1c0,0.7,0.3,1.1,0.8,1.1
								C540.8,172.1,541.1,171.7,541.1,171z M543.6,169.6h0.6l-3.8,5.5h-0.6L543.6,169.6z M542.5,173.6c0-0.9,0.5-1.5,1.3-1.5
								c0.8,0,1.3,0.6,1.3,1.5c0,0.9-0.5,1.5-1.3,1.5C543,175.1,542.5,174.5,542.5,173.6z M544.5,173.6c0-0.7-0.3-1.1-0.8-1.1
								c-0.5,0-0.8,0.4-0.8,1.1c0,0.7,0.3,1.1,0.8,1.1C544.3,174.7,544.5,174.3,544.5,173.6z"/>
						</g>
					</g>
				</g>
				<g>
					<g>
						<g>
							<g>
								<path class="st13" d="M468.4,122.3h-93.6c-1.3,0-2.4-1.1-2.4-2.4s1.1-2.4,2.4-2.4h93.6c1.3,0,2.4,1.1,2.4,2.4
									S469.7,122.3,468.4,122.3z"/>
							</g>
						</g>
						<g>
							<path class="st5" d="M533.6,120.6c0,1.1-0.9,1.7-1.9,1.7c-1.5,0-2.3-1-2.3-2.7c0-1.9,1.1-2.9,2.6-2.9c0.5,0,1,0.1,1.4,0.3
								l-0.3,0.6c-0.3-0.2-0.7-0.3-1.1-0.3c-1.1,0-1.8,0.7-1.8,2.1c0,0.1,0,0.1,0,0.2c0.3-0.5,0.9-0.7,1.6-0.7
								C532.8,118.9,533.6,119.6,533.6,120.6z M532.8,120.6c0-0.6-0.5-1.1-1.3-1.1c-0.7,0-1.3,0.5-1.3,1.1c0,0.6,0.5,1.1,1.3,1.1
								C532.3,121.7,532.8,121.3,532.8,120.6z"/>
							<path class="st5" d="M534.2,119.5c0-1.8,1-2.8,2.2-2.8c1.3,0,2.2,1,2.2,2.8c0,1.8-1,2.8-2.2,2.8
								C535.2,122.3,534.2,121.3,534.2,119.5z M537.9,119.5c0-1.4-0.6-2.1-1.5-2.1c-0.9,0-1.5,0.7-1.5,2.1s0.6,2.1,1.5,2.1
								C537.3,121.6,537.9,120.9,537.9,119.5z"/>
							<path class="st5" d="M539.4,118.2c0-0.9,0.5-1.5,1.3-1.5c0.8,0,1.3,0.6,1.3,1.5s-0.5,1.5-1.3,1.5
								C539.9,119.7,539.4,119.1,539.4,118.2z M541.4,118.2c0-0.7-0.3-1.1-0.8-1.1c-0.5,0-0.8,0.4-0.8,1.1c0,0.7,0.3,1.1,0.8,1.1
								C541.1,119.3,541.4,118.9,541.4,118.2z M544,116.8h0.6l-3.8,5.5h-0.6L544,116.8z M542.8,120.8c0-0.9,0.5-1.5,1.3-1.5
								c0.8,0,1.3,0.6,1.3,1.5c0,0.9-0.5,1.5-1.3,1.5C543.4,122.3,542.8,121.7,542.8,120.8z M544.9,120.8c0-0.7-0.3-1.1-0.8-1.1
								c-0.5,0-0.8,0.4-0.8,1.1c0,0.7,0.3,1.1,0.8,1.1C544.6,121.9,544.9,121.5,544.9,120.8z"/>
						</g>
					</g>
				</g>
			</g>
			<g>
				<g>
					<path class="st1" d="M512.9,206.3c0,0.1-34.6,0.3-77.3,0.3c-42.7,0-77.3-0.1-77.3-0.3s34.6-0.3,77.3-0.3
						C478.3,206.1,512.9,206.2,512.9,206.3z"/>
				</g>
			</g>
			<g>
				<g>
					<path class="st1" d="M512.9,215.5c0,0.1-34.6,0.3-77.3,0.3c-42.7,0-77.3-0.1-77.3-0.3c0-0.1,34.6-0.3,77.3-0.3
						C478.3,215.3,512.9,215.4,512.9,215.5z"/>
				</g>
			</g>
			<g>
				<g>
					<path class="st1" d="M512.9,223.8c0,0.1-34.6,0.3-77.3,0.3c-42.7,0-77.3-0.1-77.3-0.3s34.6-0.3,77.3-0.3
						C478.3,223.5,512.9,223.7,512.9,223.8z"/>
				</g>
			</g>
			<g>
				<g>
					<g>
						<g>
							<g>
								<path class="st1" d="M164.9,317.7L164.9,317.7c-1.5,0-2.8-1.2-2.8-2.8v-52.1c0-1.5,1.2-2.8,2.8-2.8l0,0
									c1.5,0,2.8,1.2,2.8,2.8V315C167.7,316.5,166.4,317.7,164.9,317.7z"/>
							</g>
							<g>
								<path class="st13" d="M164.9,318L164.9,318c-1.5,0-2.8-1.2-2.8-2.8v-33.6c0-1.5,1.2-2.8,2.8-2.8l0,0c1.5,0,2.8,1.2,2.8,2.8
									v33.6C167.7,316.7,166.4,318,164.9,318z"/>
							</g>
						</g>
						<g>
							<path class="st5" d="M163.1,320.2v4.6h-0.5v-4.2h-1.1v-0.4H163.1z"/>
							<path class="st5" d="M164.2,322.5c0-1.5,0.8-2.4,1.8-2.4c1.1,0,1.9,0.9,1.9,2.4c0,1.5-0.8,2.4-1.9,2.4
								C165,324.8,164.2,324,164.2,322.5z M167.5,322.5c0-1.2-0.6-1.9-1.4-1.9c-0.8,0-1.4,0.7-1.4,1.9c0,1.2,0.6,1.9,1.4,1.9
								C166.9,324.4,167.5,323.7,167.5,322.5z"/>
						</g>
					</g>
					<g>
						<g>
							<g>
								<path class="st1" d="M176,317.7L176,317.7c-1.5,0-2.8-1.2-2.8-2.8v-52.1c0-1.5,1.2-2.8,2.8-2.8l0,0c1.5,0,2.8,1.2,2.8,2.8
									V315C178.8,316.5,177.5,317.7,176,317.7z"/>
							</g>
							<g>
								<path class="st13" d="M176,318L176,318c-1.5,0-2.8-1.2-2.8-2.8V271c0-1.5,1.2-2.8,2.8-2.8l0,0c1.5,0,2.8,1.2,2.8,2.8v44.2
									C178.8,316.7,177.5,318,176,318z"/>
							</g>
						</g>
						<g>
							<path class="st5" d="M175.3,324.4v0.4h-3.3v-0.3l1.9-1.9c0.5-0.5,0.6-0.8,0.6-1.1c0-0.5-0.4-0.9-1.1-0.9
								c-0.5,0-1,0.2-1.3,0.5l-0.3-0.3c0.4-0.4,0.9-0.7,1.6-0.7c0.9,0,1.5,0.5,1.5,1.3c0,0.4-0.1,0.8-0.8,1.5l-1.6,1.5H175.3z"/>
							<path class="st5" d="M175.9,322.5c0-1.5,0.8-2.4,1.8-2.4c1.1,0,1.9,0.9,1.9,2.4c0,1.5-0.8,2.4-1.9,2.4
								C176.7,324.8,175.9,324,175.9,322.5z M179.1,322.5c0-1.2-0.6-1.9-1.4-1.9c-0.8,0-1.4,0.7-1.4,1.9c0,1.2,0.6,1.9,1.4,1.9
								C178.6,324.4,179.1,323.7,179.1,322.5z"/>
						</g>
					</g>
					<g>
						<g>
							<g>
								<path class="st1" d="M187.1,317.7L187.1,317.7c-1.5,0-2.8-1.2-2.8-2.8v-52.1c0-1.5,1.2-2.8,2.8-2.8l0,0
									c1.5,0,2.8,1.2,2.8,2.8V315C189.9,316.5,188.6,317.7,187.1,317.7z"/>
							</g>
							<g>
								<path class="st13" d="M187.1,318L187.1,318c-1.5,0-2.8-1.2-2.8-2.8v-25.7c0-1.5,1.2-2.8,2.8-2.8l0,0c1.5,0,2.8,1.2,2.8,2.8
									v25.7C189.9,316.7,188.6,318,187.1,318z"/>
							</g>
						</g>
						<g>
							<path class="st5" d="M186.4,323.5c0,0.8-0.6,1.4-1.7,1.4c-0.7,0-1.3-0.2-1.7-0.6l0.2-0.4c0.3,0.3,0.8,0.5,1.4,0.5
								c0.8,0,1.2-0.4,1.2-0.9c0-0.6-0.4-0.9-1.3-0.9h-0.3v-0.4l1.3-1.6h-2.4v-0.4h3v0.3l-1.3,1.6
								C185.9,322.2,186.4,322.7,186.4,323.5z"/>
							<path class="st5" d="M187.1,322.5c0-1.5,0.8-2.4,1.8-2.4c1.1,0,1.9,0.9,1.9,2.4c0,1.5-0.8,2.4-1.9,2.4
								C187.8,324.8,187.1,324,187.1,322.5z M190.3,322.5c0-1.2-0.6-1.9-1.4-1.9c-0.8,0-1.4,0.7-1.4,1.9c0,1.2,0.6,1.9,1.4,1.9
								C189.7,324.4,190.3,323.7,190.3,322.5z"/>
						</g>
					</g>
					<g>
						<g>
							<g>
								<path class="st1" d="M198.2,317.7L198.2,317.7c-1.5,0-2.8-1.2-2.8-2.8v-52.1c0-1.5,1.2-2.8,2.8-2.8l0,0
									c1.5,0,2.8,1.2,2.8,2.8V315C201,316.5,199.8,317.7,198.2,317.7z"/>
							</g>
							<g>
								<path class="st13" d="M198.2,318L198.2,318c-1.5,0-2.8-1.2-2.8-2.8V271c0-1.5,1.2-2.8,2.8-2.8l0,0c1.5,0,2.8,1.2,2.8,2.8
									v44.2C201,316.7,199.8,318,198.2,318z"/>
							</g>
						</g>
						<g>
							<path class="st5" d="M198.2,323.6h-0.9v1.2h-0.5v-1.2h-2.6v-0.3l2.5-3.1h0.5l-2.4,3h2v-1.1h0.5v1.1h0.9V323.6z"/>
							<path class="st5" d="M198.7,322.5c0-1.5,0.8-2.4,1.8-2.4c1.1,0,1.9,0.9,1.9,2.4c0,1.5-0.8,2.4-1.9,2.4
								C199.5,324.8,198.7,324,198.7,322.5z M201.9,322.5c0-1.2-0.6-1.9-1.4-1.9c-0.8,0-1.4,0.7-1.4,1.9c0,1.2,0.6,1.9,1.4,1.9
								C201.3,324.4,201.9,323.7,201.9,322.5z"/>
						</g>
					</g>
					<g>
						<g>
							<g>
								<path class="st1" d="M209.3,317.7L209.3,317.7c-1.5,0-2.8-1.2-2.8-2.8v-52.1c0-1.5,1.2-2.8,2.8-2.8l0,0
									c1.5,0,2.8,1.2,2.8,2.8V315C212.1,316.5,210.9,317.7,209.3,317.7z"/>
							</g>
							<g>
								<path class="st13" d="M209.3,318L209.3,318c-1.5,0-2.8-1.2-2.8-2.8v-35.7c0-1.5,1.2-2.8,2.8-2.8l0,0c1.5,0,2.8,1.2,2.8,2.8
									v35.7C212.1,316.7,210.9,318,209.3,318z"/>
							</g>
						</g>
						<g>
							<path class="st5" d="M209.1,323.4c0,0.8-0.5,1.4-1.7,1.4c-0.7,0-1.3-0.2-1.7-0.6l0.2-0.4c0.3,0.3,0.8,0.5,1.4,0.5
								c0.8,0,1.2-0.4,1.2-0.9c0-0.6-0.4-1-1.5-1h-1l0.2-2.3h2.5v0.4h-2.1l-0.2,1.5h0.6C208.6,322.1,209.1,322.6,209.1,323.4z"/>
							<path class="st5" d="M209.7,322.5c0-1.5,0.8-2.4,1.8-2.4c1.1,0,1.9,0.9,1.9,2.4c0,1.5-0.8,2.4-1.9,2.4
								C210.5,324.8,209.7,324,209.7,322.5z M212.9,322.5c0-1.2-0.6-1.9-1.4-1.9c-0.8,0-1.4,0.7-1.4,1.9c0,1.2,0.6,1.9,1.4,1.9
								C212.3,324.4,212.9,323.7,212.9,322.5z"/>
						</g>
					</g>
					<g>
						<g>
							<g>
								<path class="st1" d="M220.4,317.7L220.4,317.7c-1.5,0-2.8-1.2-2.8-2.8v-52.1c0-1.5,1.2-2.8,2.8-2.8l0,0
									c1.5,0,2.8,1.2,2.8,2.8V315C223.2,316.5,222,317.7,220.4,317.7z"/>
							</g>
							<g>
								<path class="st13" d="M220.4,317.7L220.4,317.7c-1.5,0-2.8-1.2-2.8-2.5v-25.7c0-1.8,1.2-3,2.8-3l0,0c1.5,0,2.8,1.2,2.8,2.8
									V315C223.2,316.5,222,317.7,220.4,317.7z"/>
							</g>
						</g>
						<g>
							<path class="st5" d="M220.1,323.4c0,0.9-0.7,1.4-1.6,1.4c-1.2,0-1.9-0.9-1.9-2.3c0-1.6,0.9-2.4,2.1-2.4
								c0.4,0,0.8,0.1,1.1,0.3l-0.2,0.4c-0.2-0.2-0.6-0.2-0.9-0.2c-1,0-1.6,0.6-1.6,1.9c0,0.1,0,0.2,0,0.4c0.2-0.5,0.8-0.8,1.4-0.8
								C219.4,322,220.1,322.6,220.1,323.4z M219.6,323.4c0-0.6-0.5-1-1.2-1c-0.7,0-1.2,0.4-1.2,1c0,0.5,0.4,1,1.2,1
								C219.1,324.4,219.6,324,219.6,323.4z"/>
							<path class="st5" d="M220.6,322.5c0-1.5,0.8-2.4,1.8-2.4c1.1,0,1.9,0.9,1.9,2.4c0,1.5-0.8,2.4-1.9,2.4
								C221.4,324.8,220.6,324,220.6,322.5z M223.8,322.5c0-1.2-0.6-1.9-1.4-1.9c-0.8,0-1.4,0.7-1.4,1.9c0,1.2,0.6,1.9,1.4,1.9
								C223.3,324.4,223.8,323.7,223.8,322.5z"/>
						</g>
					</g>
					<g>
						<g>
							<g>
								<path class="st1" d="M231.6,317.7L231.6,317.7c-1.5,0-2.8-1.2-2.8-2.8v-52.1c0-1.5,1.2-2.8,2.8-2.8l0,0
									c1.5,0,2.8,1.2,2.8,2.8V315C234.3,316.5,233.1,317.7,231.6,317.7z"/>
							</g>
							<g>
								<path class="st13" d="M231.6,318L231.6,318c-1.5,0-2.8-1.2-2.8-2.8v-46.9c0-1.5,1.2-2.8,2.8-2.8l0,0c1.5,0,2.8,1.2,2.8,2.8
									v46.9C234.3,316.7,233.1,318,231.6,318z"/>
							</g>
						</g>
						<g>
							<path class="st5" d="M231,320.2v0.3l-1.9,4.3h-0.5l1.9-4.2H228v0.9h-0.5v-1.3H231z"/>
							<path class="st5" d="M231.5,322.5c0-1.5,0.8-2.4,1.8-2.4c1.1,0,1.9,0.9,1.9,2.4c0,1.5-0.8,2.4-1.9,2.4
								C232.2,324.8,231.5,324,231.5,322.5z M234.7,322.5c0-1.2-0.6-1.9-1.4-1.9c-0.8,0-1.4,0.7-1.4,1.9c0,1.2,0.6,1.9,1.4,1.9
								C234.1,324.4,234.7,323.7,234.7,322.5z"/>
						</g>
					</g>
					<g>
						<g>
							<g>
								<path class="st1" d="M242.7,317.7L242.7,317.7c-1.5,0-2.8-1.2-2.8-2.8v-52.1c0-1.5,1.2-2.8,2.8-2.8l0,0
									c1.5,0,2.8,1.2,2.8,2.8V315C245.4,316.5,244.2,317.7,242.7,317.7z"/>
							</g>
							<g>
								<path class="st13" d="M242.7,318L242.7,318c-1.5,0-2.8-1.2-2.8-2.8v-20.4c0-1.5,1.2-2.8,2.8-2.8l0,0c1.5,0,2.8,1.2,2.8,2.8
									v20.4C245.4,316.7,244.2,318,242.7,318z"/>
							</g>
						</g>
						<g>
							<path class="st5" d="M242.1,323.5c0,0.8-0.7,1.3-1.8,1.3c-1.1,0-1.8-0.5-1.8-1.3c0-0.6,0.3-0.9,0.9-1.1
								c-0.5-0.2-0.7-0.5-0.7-1c0-0.8,0.6-1.2,1.6-1.2c1,0,1.6,0.5,1.6,1.2c0,0.5-0.3,0.8-0.7,1C241.8,322.6,242.1,323,242.1,323.5z
								 M241.6,323.5c0-0.6-0.5-0.9-1.3-0.9c-0.8,0-1.3,0.4-1.3,0.9c0,0.6,0.5,0.9,1.3,0.9C241.1,324.4,241.6,324.1,241.6,323.5z
								 M240.3,322.2c0.7,0,1.2-0.3,1.2-0.8c0-0.5-0.5-0.8-1.2-0.8c-0.7,0-1.1,0.3-1.1,0.8C239.2,321.9,239.6,322.2,240.3,322.2z"/>
							<path class="st5" d="M242.8,322.5c0-1.5,0.8-2.4,1.8-2.4c1.1,0,1.9,0.9,1.9,2.4c0,1.5-0.8,2.4-1.9,2.4
								C243.5,324.8,242.8,324,242.8,322.5z M246,322.5c0-1.2-0.6-1.9-1.4-1.9c-0.8,0-1.4,0.7-1.4,1.9c0,1.2,0.6,1.9,1.4,1.9
								C245.4,324.4,246,323.7,246,322.5z"/>
						</g>
					</g>
					<g>
						<g>
							<g>
								<path class="st1" d="M253.8,317.7L253.8,317.7c-1.5,0-2.8-1.2-2.8-2.8v-52.1c0-1.5,1.2-2.8,2.8-2.8l0,0
									c1.5,0,2.8,1.2,2.8,2.8V315C256.6,316.5,255.3,317.7,253.8,317.7z"/>
							</g>
							<g>
								<path class="st13" d="M253.8,317.7L253.8,317.7c-1.5,0-2.8-1.2-2.8-2.5v-7.1c0-1.8,1.2-3,2.8-3l0,0c1.5,0,2.8,1.2,2.8,2.8
									v7.1C256.6,316.5,255.3,317.7,253.8,317.7z"/>
							</g>
						</g>
						<g>
							<path class="st5" d="M252.9,322.4c0,1.6-0.9,2.4-2.1,2.4c-0.4,0-0.8-0.1-1.1-0.3l0.2-0.4c0.2,0.2,0.6,0.2,0.9,0.2
								c1,0,1.6-0.6,1.6-1.9c0-0.1,0-0.2,0-0.4c-0.2,0.5-0.8,0.8-1.4,0.8c-0.9,0-1.6-0.5-1.6-1.4c0-0.9,0.7-1.4,1.6-1.4
								C252.3,320.1,252.9,321,252.9,322.4z M252.3,321.5c0-0.5-0.4-1-1.2-1c-0.7,0-1.1,0.4-1.1,1c0,0.6,0.5,1,1.2,1
								C251.8,322.5,252.3,322.1,252.3,321.5z"/>
							<path class="st5" d="M253.6,322.5c0-1.5,0.8-2.4,1.8-2.4c1.1,0,1.9,0.9,1.9,2.4c0,1.5-0.8,2.4-1.9,2.4
								C254.4,324.8,253.6,324,253.6,322.5z M256.8,322.5c0-1.2-0.6-1.9-1.4-1.9c-0.8,0-1.4,0.7-1.4,1.9c0,1.2,0.6,1.9,1.4,1.9
								C256.3,324.4,256.8,323.7,256.8,322.5z"/>
						</g>
					</g>
					<g>
						<g>
							<g>
								<path class="st1" d="M264.9,317.7L264.9,317.7c-1.5,0-2.8-1.2-2.8-2.8v-52.1c0-1.5,1.2-2.8,2.8-2.8l0,0
									c1.5,0,2.8,1.2,2.8,2.8V315C267.7,316.5,266.4,317.7,264.9,317.7z"/>
							</g>
							<g>
								<path class="st13" d="M264.9,317.7L264.9,317.7c-1.5,0-2.8-1.2-2.8-2.5v-25.7c0-1.8,1.2-3,2.8-3l0,0c1.5,0,2.8,1.2,2.8,2.8
									V315C267.7,316.5,266.4,317.7,264.9,317.7z"/>
							</g>
						</g>
						<g>
							<path class="st5" d="M260.9,320.2v4.6h-0.5v-4.2h-1.1v-0.4H260.9z"/>
							<path class="st5" d="M262,322.5c0-1.5,0.8-2.4,1.8-2.4c1.1,0,1.9,0.9,1.9,2.4c0,1.5-0.8,2.4-1.9,2.4
								C262.8,324.8,262,324,262,322.5z M265.2,322.5c0-1.2-0.6-1.9-1.4-1.9c-0.8,0-1.4,0.7-1.4,1.9c0,1.2,0.6,1.9,1.4,1.9
								C264.7,324.4,265.2,323.7,265.2,322.5z"/>
							<path class="st5" d="M266.4,322.5c0-1.5,0.8-2.4,1.8-2.4c1.1,0,1.9,0.9,1.9,2.4c0,1.5-0.8,2.4-1.9,2.4
								C267.2,324.8,266.4,324,266.4,322.5z M269.6,322.5c0-1.2-0.6-1.9-1.4-1.9c-0.8,0-1.4,0.7-1.4,1.9c0,1.2,0.6,1.9,1.4,1.9
								C269,324.4,269.6,323.7,269.6,322.5z"/>
						</g>
					</g>
				</g>
			</g>
			<g>
				<g>
					<path class="st1" d="M287.9,328.6c-0.1,0-0.3-17.2-0.3-38.3c0-21.2,0.1-38.3,0.3-38.3s0.3,17.2,0.3,38.3
						C288.2,311.5,288.1,328.6,287.9,328.6z"/>
				</g>
			</g>
			<g>
				<g>
					<path class="st5" d="M352.6,257c0,0.1-10.6,0.3-23.6,0.3c-13.1,0-23.6-0.1-23.6-0.3c0-0.1,10.6-0.3,23.6-0.3
						C342,256.7,352.6,256.8,352.6,257z"/>
				</g>
			</g>
			<g class="st16">
				<path class="st12" d="M301.4,323.7l10.6-15.1c1.2-1.8,3.7-2.1,5.4-0.8l5.6,4.2c1.8,1.4,4.4,0.8,5.6-1.1l16-27.8
					c1.3-2.3,4.6-2.6,6.3-0.5l10,12.7c1.6,2,4.8,1.9,6.2-0.3l7.3-11.5c1.5-2.4,5.1-2.3,6.5,0.1l6,10.5c1.4,2.5,4.9,2.5,6.5,0.1
					l20.7-32.4c1.5-2.3,4.8-2.3,6.3-0.1l34.1,51.1c1.4,2,4.3,2.3,6,0.4l20.7-22.8c1.5-1.6,4-1.7,5.5-0.1l16.5,16.6
					c1.8,1.8,4.7,1.4,6-0.8l29.5-51.1c1.9-3.4,7.1-2,7.1,1.9v66.8H301.4z"/>
			</g>
		</g>
	</g>
</g>
<g id="Magnifying_Glass">
	<g>
		<g>
			<path class="st15" d="M112.2,330.2c-23.6,0-43.9-17.8-46.4-41.8c-2.7-25.6,15.9-48.7,41.5-51.5c12.4-1.3,24.6,2.3,34.3,10.1
				c9.7,7.8,15.8,19,17.1,31.4l0,0c2.7,25.6-15.9,48.7-41.5,51.5C115.5,330.1,113.8,330.2,112.2,330.2z M112.3,243.7
				c-1.4,0-2.9,0.1-4.3,0.2c-21.8,2.3-37.6,22-35.3,43.7c2.3,21.8,22,37.6,43.7,35.3c21.8-2.3,37.6-22,35.3-43.7
				c-1.1-10.6-6.3-20-14.6-26.7C130,246.7,121.3,243.7,112.3,243.7z"/>
		</g>
		<g>
			<path class="st15" d="M181.5,373.4c-1,0-2-0.4-2.7-1.2l-44.2-51.9c-1.3-1.5-1.1-3.7,0.4-4.9c1.5-1.3,3.7-1.1,4.9,0.4l44.2,51.9
				c1.3,1.5,1.1,3.7-0.4,4.9C183.1,373.1,182.3,373.4,181.5,373.4z"/>
		</g>
	</g>
</g>
<g id="Plant">
	<g>
		<g>
			<g>
				<g>
					<g>
						<g>
							<path class="st17" d="M605,370.5c7.2,2.5,16.6,0.3,22.7-4.2c6.2-4.5,10.6-10.9,14.5-17.5c1.7-2.8,3.3-5.7,3.8-8.9
								c0.5-3.2-0.3-6.8-2.7-8.9c-3.9-3.3-9.8-1.6-14.2,0.9C615.4,339.7,606,354.7,605,370.5"/>
						</g>
					</g>
				</g>
			</g>
			<g>
				<g>
					<g>
						<g>
							<path class="st17" d="M612.7,387.7c4.3,5.7,11.7,8.2,18.9,8.6c7.1,0.3,14.2-1.6,20.9-4.2c2.4-0.9,5.1-2.2,5.9-4.7
								c0.6-1.9,0-4-1.3-5.5c-1.2-1.5-3-2.5-4.8-3.3c-6.6-2.8-14.1-2.9-21-1.1C624.4,379.3,618.3,383.3,612.7,387.7"/>
						</g>
					</g>
				</g>
			</g>
			<g>
				<g>
					<g>
						<g>
							<path class="st17" d="M604.9,339.6c6,0.1,10.5-5.1,13.2-10.4c3.7-7.4,5-15.9,3.5-24.1c-0.5-3-1.7-6.3-4.4-7.8
								c-2.8-1.5-6.4-0.5-8.7,1.6c-2.3,2.1-3.6,5.1-4.5,8.1C600.7,317.5,601.4,329.4,604.9,339.6"/>
						</g>
					</g>
				</g>
			</g>
			<g>
				<g>
					<g>
						<g>
							<path class="st17" d="M585.3,372.6c10.2-17.3,11.8-38.4,5.9-57.6c-1-3.1-2.8-6.7-6.1-6.9c-3.6-0.2-5.8,3.8-6.8,7.2
								c-3.5,12.1-2.7,25.1-2,37.7C576.8,360.8,579.4,367.5,585.3,372.6"/>
						</g>
					</g>
				</g>
			</g>
			<g>
				<g>
					<g>
						<g>
							<path class="st17" d="M574.7,379.7c-3.7-11.8-13-21.8-24.6-26.1c-2.7-1-6.1-1.6-8.1,0.5c-2,2-1.4,5.4-0.1,7.9
								c2,4.1,5.4,7.4,8.7,10.5c3,2.9,6.1,5.7,9.9,7.4C564.3,381.5,571.3,382,574.7,379.7"/>
						</g>
					</g>
				</g>
			</g>
			<g>
				<g>
					<g>
						<g>
							<g>
								<path class="st5" d="M637.7,335.3c0,0-0.1,0.1-0.2,0.2c-0.1,0.1-0.3,0.3-0.5,0.4c-0.5,0.4-1.2,0.9-2.1,1.6
									c-0.5,0.3-1,0.7-1.5,1.1c-0.6,0.4-1.1,0.9-1.8,1.4c-1.3,1.1-2.7,2.2-4.2,3.6c-0.8,0.7-1.6,1.4-2.4,2.2
									c-0.8,0.8-1.6,1.6-2.5,2.5c-1.7,1.7-3.4,3.6-5.3,5.7c-3.5,4.2-7.1,8.9-10.5,14.3c-3.3,5.4-6,10.7-8.1,15.8
									c-1,2.5-2,4.9-2.7,7.2c-0.4,1.2-0.8,2.2-1.1,3.3c-0.3,1.1-0.6,2.1-0.9,3.1c-0.6,2-1,3.8-1.3,5.4c-0.2,0.8-0.4,1.5-0.5,2.2
									c-0.1,0.7-0.2,1.3-0.3,1.9c-0.2,1.1-0.4,2-0.5,2.6c-0.1,0.3-0.1,0.5-0.1,0.7c0,0.2-0.1,0.2-0.1,0.2c0,0,0-0.1,0-0.2
									c0-0.2,0.1-0.4,0.1-0.7c0.1-0.6,0.2-1.5,0.4-2.6c0.1-0.6,0.2-1.2,0.3-1.9c0.1-0.7,0.3-1.4,0.5-2.2c0.4-1.6,0.7-3.4,1.3-5.4
									c0.3-1,0.6-2,0.8-3.1c0.3-1.1,0.7-2.2,1.1-3.4c0.7-2.3,1.7-4.7,2.7-7.3c2.1-5,4.8-10.4,8.1-15.8c3.3-5.4,7-10.2,10.5-14.3
									c1.8-2,3.5-4,5.3-5.7c0.9-0.8,1.7-1.7,2.5-2.5c0.8-0.8,1.7-1.5,2.4-2.2c1.5-1.4,3-2.5,4.3-3.6c0.6-0.5,1.2-1,1.8-1.4
									c0.6-0.4,1.1-0.8,1.6-1.1c0.9-0.6,1.7-1.2,2.2-1.5c0.2-0.2,0.4-0.3,0.6-0.4C637.6,335.3,637.7,335.3,637.7,335.3z"/>
							</g>
						</g>
					</g>
				</g>
			</g>
			<g>
				<g>
					<g>
						<g>
							<g>
								<path class="st5" d="M651.2,383.2c0,0-0.2,0-0.7-0.1c-0.5-0.1-1.1-0.3-2-0.4c-1.7-0.3-4.2-0.7-7.4-0.9
									c-6.2-0.4-15,0.3-23.9,4c-8.8,3.7-15.6,9.4-19.7,14.1c-2.1,2.3-3.6,4.4-4.5,5.8c-0.5,0.7-0.8,1.3-1.1,1.7
									c-0.3,0.4-0.4,0.6-0.4,0.6c0,0,0.1-0.2,0.3-0.6c0.2-0.4,0.6-1,1-1.7c0.9-1.5,2.4-3.6,4.4-6c4.1-4.8,10.8-10.6,19.8-14.3
									c8.9-3.7,17.8-4.4,24.1-3.9c3.1,0.2,5.7,0.7,7.4,1.1c0.9,0.2,1.5,0.4,2,0.5C650.9,383.1,651.2,383.2,651.2,383.2z"/>
							</g>
						</g>
					</g>
				</g>
			</g>
			<g>
				<g>
					<g>
						<g>
							<g>
								<path class="st5" d="M613.6,304.3c0,0,0,0.1,0,0.3c0,0.2-0.1,0.5-0.2,0.8c-0.2,0.7-0.4,1.7-0.7,3c-0.6,2.6-1.5,6.3-2.6,10.9
									c-2.2,9.2-5.5,21.9-8.9,35.9c-1.7,7-3.2,13.7-4.5,19.9c-1.3,6.1-2.4,11.7-3.2,16.3c-0.4,2.3-0.8,4.4-1.1,6.3
									c-0.3,1.9-0.6,3.5-0.8,4.8c-0.2,1.3-0.4,2.3-0.5,3c-0.1,0.3-0.1,0.6-0.1,0.8c0,0.2-0.1,0.3-0.1,0.3c0,0,0-0.1,0-0.3
									c0-0.2,0.1-0.5,0.1-0.8c0.1-0.7,0.2-1.7,0.4-3c0.2-1.3,0.4-2.9,0.7-4.8c0.3-1.9,0.6-4,1-6.3c0.8-4.7,1.8-10.2,3.1-16.3
									c1.3-6.1,2.8-12.8,4.5-19.9c3.4-14,6.7-26.7,9-35.9c1.2-4.6,2.1-8.3,2.7-10.9c0.3-1.3,0.6-2.2,0.8-3
									c0.1-0.3,0.2-0.6,0.2-0.8C613.6,304.4,613.6,304.3,613.6,304.3z"/>
							</g>
						</g>
					</g>
				</g>
			</g>
			<g>
				<g>
					<g>
						<g>
							<g>
								<path class="st5" d="M590.3,405c0,0,0-0.1-0.1-0.2c0-0.2-0.1-0.4-0.1-0.6c-0.1-0.6-0.3-1.4-0.5-2.4c-0.4-2.1-1-5.1-1.7-8.9
									c-1.3-7.5-2.8-18-3.8-29.6c-0.5-5.8-0.7-11.4-0.8-16.4c-0.1-5,0-9.6,0.1-13.4c0-1.9,0.2-3.6,0.3-5.1
									c0.1-1.5,0.2-2.8,0.3-3.9c0.1-1,0.2-1.8,0.2-2.4c0-0.3,0.1-0.5,0.1-0.6c0-0.1,0-0.2,0-0.2c0,0,0,0.1,0,0.2
									c0,0.2,0,0.4,0,0.6c0,0.6-0.1,1.4-0.1,2.5c-0.1,1.1-0.1,2.4-0.2,3.9c-0.1,1.5-0.2,3.2-0.2,5.1c-0.1,3.8-0.1,8.4,0,13.4
									c0.1,5,0.4,10.6,0.9,16.4c0.9,11.6,2.4,22,3.7,29.6c0.6,3.8,1.1,6.8,1.5,8.9c0.2,1,0.3,1.8,0.4,2.4c0,0.3,0.1,0.5,0.1,0.6
									C590.3,404.9,590.3,405,590.3,405z"/>
							</g>
						</g>
					</g>
				</g>
			</g>
			<g>
				<g>
					<g>
						<g>
							<g>
								<path class="st5" d="M591.1,407.2c0,0-0.1-0.2-0.3-0.6c-0.2-0.4-0.4-1-0.7-1.7c-0.1-0.4-0.3-0.8-0.5-1.3
									c-0.2-0.5-0.4-0.9-0.7-1.5c-0.2-0.5-0.5-1.1-0.7-1.7c-0.3-0.6-0.6-1.2-0.9-1.8c-0.3-0.6-0.7-1.3-1-2
									c-0.4-0.7-0.8-1.4-1.2-2.1c-0.8-1.5-1.9-3-2.9-4.6c-2.2-3.1-4.7-6.5-7.6-9.8c-2.9-3.3-5.9-6.2-8.8-8.8
									c-1.5-1.2-2.8-2.5-4.1-3.5c-0.7-0.5-1.3-1-1.9-1.5c-0.6-0.5-1.2-0.9-1.8-1.3c-1.2-0.9-2.2-1.6-3.2-2.2
									c-0.9-0.7-1.8-1.2-2.5-1.6c-0.7-0.4-1.2-0.7-1.6-1c-0.4-0.2-0.5-0.4-0.5-0.4c0,0,0.2,0.1,0.6,0.3c0.4,0.2,1,0.5,1.6,0.9
									c0.7,0.4,1.6,0.9,2.5,1.6c1,0.6,2.1,1.3,3.2,2.2c0.6,0.4,1.2,0.9,1.9,1.3c0.6,0.5,1.3,1,1.9,1.5c1.4,1,2.7,2.2,4.2,3.5
									c2.9,2.6,5.9,5.5,8.8,8.8c2.9,3.3,5.5,6.7,7.7,9.8c1,1.6,2.1,3.1,2.9,4.6c0.4,0.7,0.8,1.5,1.2,2.1c0.4,0.7,0.7,1.4,1,2
									c0.3,0.7,0.6,1.3,0.9,1.9c0.3,0.6,0.5,1.2,0.7,1.7c0.2,0.5,0.4,1,0.6,1.5c0.2,0.5,0.3,0.9,0.4,1.3c0.2,0.7,0.4,1.3,0.6,1.8
									C591,407,591.1,407.2,591.1,407.2z"/>
							</g>
						</g>
					</g>
				</g>
			</g>
			<g>
				<g>
					<g>
						<g>
							<g>
								<path class="st5" d="M633.9,355.3c0,0.1-1.2,0.1-3.2,0.2c-2,0.1-4.7,0.4-7.7,0.9c-3,0.6-5.6,1.3-7.5,1.9
									c-1.9,0.6-3,1.1-3.1,1c0,0,0.3-0.2,0.8-0.4c0.5-0.2,1.2-0.6,2.2-0.9c1.9-0.7,4.5-1.5,7.5-2.1c3-0.6,5.8-0.8,7.7-0.8
									c1,0,1.8,0,2.4,0C633.6,355.3,633.9,355.3,633.9,355.3z"/>
							</g>
						</g>
					</g>
				</g>
			</g>
			<g>
				<g>
					<g>
						<g>
							<g>
								<path class="st5" d="M641.6,392.8c-0.1,0.1-1.3-3.2-4.2-6.3c-2.8-3.1-6.1-4.5-6-4.6c0,0,0.8,0.2,2.1,0.9
									c1.2,0.7,2.8,1.8,4.3,3.4c1.5,1.6,2.5,3.2,3.1,4.5C641.4,391.9,641.7,392.7,641.6,392.8z"/>
							</g>
						</g>
					</g>
				</g>
			</g>
			<g>
				<g>
					<g>
						<g>
							<g>
								<path class="st5" d="M615.5,318.3c0.1,0.1-1.8,2-3.8,4.5c-2.1,2.5-3.5,4.7-3.6,4.6c-0.1-0.1,1.2-2.4,3.2-4.9
									C613.4,319.9,615.4,318.2,615.5,318.3z"/>
							</g>
						</g>
					</g>
				</g>
			</g>
			<g>
				<g>
					<g>
						<g>
							<g>
								<path class="st5" d="M609.3,307.7c0.1,0,0.5,1.8,0.9,4c0.4,2.2,0.6,4.1,0.5,4.1c-0.1,0-0.5-1.8-0.9-4
									C609.4,309.6,609.2,307.7,609.3,307.7z"/>
							</g>
						</g>
					</g>
				</g>
			</g>
			<g>
				<g>
					<g>
						<g>
							<g>
								<path class="st5" d="M590.3,341c0.1,0.1-1.2,2.9-3,6.3c-1.8,3.4-3.3,6.1-3.4,6c-0.1-0.1,1.2-2.9,3-6.3
									C588.7,343.6,590.2,340.9,590.3,341z"/>
							</g>
						</g>
					</g>
				</g>
			</g>
			<g>
				<g>
					<g>
						<g>
							<g>
								<path class="st5" d="M579,329.7c0.1-0.1,1.2,2,2.5,4.5c1.3,2.6,2.2,4.7,2.1,4.7c-0.1,0.1-1.2-2-2.5-4.5
									C579.8,331.9,578.9,329.7,579,329.7z"/>
							</g>
						</g>
					</g>
				</g>
			</g>
			<g>
				<g>
					<g>
						<g>
							<g>
								<path class="st5" d="M562.4,368.3c0,0.1-2-0.3-4.6-0.4c-2.5-0.2-4.6-0.1-4.6-0.2c0-0.1,2.1-0.4,4.6-0.3
									C560.4,367.6,562.4,368.2,562.4,368.3z"/>
							</g>
						</g>
					</g>
				</g>
			</g>
		</g>
		<g>
			<g>
				<g>
					<g>
						<g>
							<path class="st5" d="M573.8,402.4l5.7,29.7c0.4,2,2.1,3.4,4.1,3.4h16.7c2,0,3.8-1.5,4.1-3.5l4.9-29.6H573.8z"/>
						</g>
					</g>
				</g>
			</g>
			<g>
				<g>
					<g>
						<g>
							<polygon class="st15" points="575.6,412.1 607.5,412.1 609.2,402.4 573.8,402.4 							"/>
						</g>
					</g>
				</g>
			</g>
			<g>
				<g>
					<g>
						<g>
							<polygon class="st18" points="575.6,412.1 576.3,415.6 607.1,415.6 607.5,412.1 							"/>
						</g>
					</g>
				</g>
			</g>
		</g>
	</g>
</g>
<g id="Character">
	<g>
		<g>
			<g>
				<g>
					<g>
						<g>
							<g>
								<path class="st13" d="M470.5,407.2l0.5,18.2c0,0,18.6,5.6,19.1,8.9l-35.2,2.2l-2-28.3L470.5,407.2z"/>
							</g>
						</g>
					</g>
					<g>
						<g>
							<g>
								<g>
									<path class="st1" d="M460.1,424.5c-0.7,0.2-1.1,1-0.9,1.7c0.2,0.7,1,1.1,1.7,0.9c0.7-0.2,1.2-1.2,0.9-1.8
										c-0.3-0.7-1.3-1.1-1.9-0.7"/>
								</g>
							</g>
						</g>
					</g>
					<g class="st19">
						<g>
							<g>
								<path class="st12" d="M454.9,436.6l-0.1-2.9l33.8-1.1c0,0,1.6,0.6,1.5,1.7L454.9,436.6z"/>
							</g>
						</g>
					</g>
					<g>
						<g>
							<g>
								<g>
									<path class="st5" d="M471.6,425.1c0,0.2-0.8,0.3-1.7,0.9c-0.8,0.6-1.2,1.4-1.4,1.3c-0.2,0,0-1.1,1-1.8
										C470.6,424.8,471.6,425,471.6,425.1z"/>
								</g>
							</g>
						</g>
					</g>
					<g>
						<g>
							<g>
								<g>
									<path class="st5" d="M475.4,426.4c0,0.2-0.7,0.5-1.2,1.3c-0.6,0.7-0.7,1.5-0.8,1.5c-0.2,0-0.3-1,0.3-1.9
										C474.4,426.4,475.4,426.3,475.4,426.4z"/>
								</g>
							</g>
						</g>
					</g>
					<g>
						<g>
							<g>
								<g>
									<path class="st5" d="M477.8,430.7c-0.2,0-0.4-0.8-0.1-1.8c0.4-1,1.2-1.4,1.2-1.3c0.1,0.1-0.4,0.7-0.7,1.5
										C477.9,430,477.9,430.7,477.8,430.7z"/>
								</g>
							</g>
						</g>
					</g>
					<g>
						<g>
							<g>
								<g>
									<path class="st5" d="M471,421c-0.1,0.2-0.9,0-1.8,0.1c-1,0.1-1.7,0.5-1.8,0.3c-0.1-0.1,0.6-0.8,1.7-0.9
										C470.3,420.4,471.1,420.9,471,421z"/>
								</g>
							</g>
						</g>
					</g>
				</g>
				<g>
					<g>
						<g>
							<g>
								<path class="st5" d="M470.9,417.4c0,0.1-0.7,0.2-1.8,0.1c-0.5-0.1-1.2-0.2-1.9-0.4c-0.3-0.1-0.7-0.3-1-0.5
									c-0.2-0.1-0.4-0.2-0.6-0.4c-0.2-0.2-0.3-0.6-0.1-0.9c0.2-0.3,0.5-0.4,0.7-0.4c0.3,0,0.5,0,0.7,0c0.4,0.1,0.8,0.2,1.1,0.3
									c0.7,0.3,1.3,0.6,1.7,1c0.9,0.7,1.2,1.3,1.1,1.4c-0.1,0.1-0.5-0.5-1.4-1c-0.4-0.3-1-0.6-1.6-0.8c-0.3-0.1-0.7-0.2-1-0.2
									c-0.4-0.1-0.7-0.1-0.8,0.1c0,0.1,0,0.1,0.1,0.2c0.1,0.1,0.2,0.2,0.4,0.3c0.3,0.2,0.6,0.3,1,0.5c0.6,0.3,1.2,0.4,1.7,0.5
									C470.2,417.3,470.9,417.3,470.9,417.4z"/>
							</g>
						</g>
					</g>
				</g>
				<g>
					<g>
						<g>
							<g>
								<path class="st5" d="M470.7,417.6c-0.1,0-0.4-0.6-0.6-1.7c-0.1-0.6-0.1-1.2,0.1-1.9c0.1-0.4,0.2-0.7,0.4-1.1
									c0.2-0.4,0.4-0.8,1.1-1c0.3,0,0.7,0.2,0.8,0.4c0.1,0.2,0.2,0.4,0.2,0.6c0.1,0.4,0.1,0.8,0.1,1.2c-0.1,0.8-0.3,1.4-0.6,1.9
									c-0.6,1-1.3,1.2-1.4,1.2c-0.1-0.1,0.5-0.5,1-1.4c0.2-0.4,0.4-1,0.5-1.7c0-0.3,0-0.7-0.1-1c-0.1-0.4-0.2-0.7-0.4-0.6
									c-0.2,0-0.5,0.3-0.6,0.6c-0.2,0.3-0.3,0.7-0.4,1c-0.2,0.7-0.2,1.3-0.2,1.8C470.5,416.9,470.7,417.6,470.7,417.6z"/>
							</g>
						</g>
					</g>
				</g>
			</g>
		</g>
		<g>
			<g>
				<g>
					<g>
						<path class="st13" d="M396,406.4l-2.1,23.4l-7,18c-0.5,1.3,0.2,2.7,1.5,3.2l0,0c0.7,0.2,1.5,0.1,2.2-0.4
							c3.9-3,18.4-14.1,18.5-15.8c0.1-2,3.9-24.5,3.9-24.5L396,406.4z"/>
					</g>
				</g>
			</g>
			<g class="st19">
				<g>
					<g>
						<path class="st12" d="M388.4,450.9l20.8-17.8l-0.1,1c-0.1,0.9-0.5,1.6-1.1,2.2c-1.7,1.6-6.4,5.8-17.3,14.2
							C390,451,389.2,451.2,388.4,450.9L388.4,450.9z"/>
					</g>
				</g>
			</g>
			<g class="st19">
				<g>
					<g>
						<g>
							<path class="st12" d="M405.3,425c-0.6,0.3-0.9,1.2-0.6,1.8s1.2,0.9,1.8,0.6c0.6-0.3,1-1.3,0.6-2c-0.4-0.6-1.4-0.9-2-0.4"/>
						</g>
					</g>
				</g>
			</g>
			<g>
				<g>
					<g>
						<g>
							<path class="st5" d="M394.9,441.3c-0.1,0-0.5-1.2-1.8-2c-1.3-0.9-2.6-0.7-2.6-0.8c0-0.1,0.3-0.2,0.9-0.2c0.5,0,1.3,0.1,2,0.6
								c0.7,0.5,1.2,1.1,1.4,1.6C395,441,395,441.3,394.9,441.3z"/>
						</g>
					</g>
				</g>
			</g>
			<g>
				<g>
					<g>
						<g>
							<path class="st5" d="M392.9,444.3c-0.1,0.1-0.8-0.8-1.9-1.2c-1.2-0.5-2.2-0.4-2.2-0.6c-0.1-0.1,1.1-0.5,2.4,0.1
								C392.5,443.1,393,444.2,392.9,444.3z"/>
						</g>
					</g>
				</g>
			</g>
			<g>
				<g>
					<g>
						<g>
							<path class="st5" d="M398.5,437.7c-0.1,0.1-1.1-1.2-2.9-2.1c-1.7-0.9-3.4-1-3.4-1.2c0-0.1,1.7-0.3,3.6,0.7
								C397.7,436.1,398.6,437.6,398.5,437.7z"/>
						</g>
					</g>
				</g>
			</g>
			<g>
				<g>
					<g>
						<g>
							<path class="st5" d="M399.7,430.6c-0.1,0.1-1.3-0.6-3-0.8c-1.7-0.3-3,0-3.1-0.2c-0.1-0.1,1.4-0.6,3.2-0.4
								C398.6,429.6,399.8,430.5,399.7,430.6z"/>
						</g>
					</g>
				</g>
			</g>
			<g>
				<g>
					<g>
						<g>
							<path class="st5" d="M400.5,423.8c-0.1,0.1-1.3-0.8-3.1-0.9c-1.8-0.2-3.1,0.6-3.2,0.4c0-0.1,0.3-0.3,0.8-0.6
								c0.6-0.3,1.4-0.4,2.4-0.4c1,0.1,1.8,0.4,2.3,0.7C400.3,423.4,400.5,423.7,400.5,423.8z"/>
						</g>
					</g>
				</g>
			</g>
			<g>
				<g>
					<g>
						<g>
							<path class="st5" d="M397.6,421.6c0,0,0-0.3,0.1-0.9c0.1-0.6,0.4-1.4,1-2.2c0.3-0.4,0.6-0.9,1.3-1.2c0.3-0.1,0.8,0,1.1,0.3
								c0.2,0.3,0.3,0.7,0.2,1.1c-0.2,1.5-1.6,2.8-3.3,2.8c-1.7,0-3.1-1.1-3.6-2.5c-0.1-0.3-0.2-0.8,0.1-1.1c0.2-0.4,0.7-0.5,1-0.4
								c0.7,0.2,1.1,0.6,1.4,1c0.7,0.7,1.1,1.5,1.4,2c0.2,0.5,0.3,0.8,0.3,0.8c-0.1,0.1-0.5-1.2-1.9-2.6c-0.4-0.3-0.8-0.7-1.3-0.8
								c-0.2-0.1-0.5,0-0.6,0.2c-0.1,0.2-0.1,0.5,0,0.7c0.4,1.1,1.7,2.1,3.2,2.1c1.4,0,2.7-1.1,2.8-2.3c0-0.3,0-0.6-0.1-0.8
								c-0.1-0.2-0.4-0.3-0.6-0.2c-0.5,0.1-0.8,0.6-1.1,1C397.8,420.3,397.7,421.6,397.6,421.6z"/>
						</g>
					</g>
				</g>
			</g>
		</g>
		<g>
			<polygon class="st5" points="390.7,239.5 389.3,421.7 414.9,423.3 420.3,271.1 451,422.4 474.3,420 449.5,239.5 			"/>
		</g>
		<g>
			<g>
				<g>
					<g>
						<g>
							<g>
								<g>
									<g>
										<g>
											<g>
												<g>
													<g>
														<g>
															<g>
																<g>
																	<g>
																		<g>
																			<path class="st20" d="M421.8,91.6c-8.7-0.7-16.2,5.9-16.7,14.5c-0.4,7.2-0.8,15-0.8,18.9
																				c0.1,8.4,8.5,9.7,8.5,9.7s-0.2,2.5-0.4,5.6c-0.5,6.2,4.3,11.6,10.6,11.9l0,0c6.1,0.3,11.3-4.5,11.6-10.6l1.5-34
																				C436.5,99.4,430.2,92.3,421.8,91.6L421.8,91.6z"/>
																		</g>
																	</g>
																</g>
															</g>
														</g>
													</g>
												</g>
											</g>
											<g>
												<g>
													<g>
														<g>
															<g>
																<g>
																	<g>
																		<g>
																			<path class="st21" d="M412.9,134.7c0,0,5.3,0.4,11-3.1c0,0-2.6,6.1-11,5.3L412.9,134.7z"/>
																		</g>
																	</g>
																</g>
															</g>
														</g>
													</g>
												</g>
											</g>
										</g>
									</g>
								</g>
								<g>
									<g>
										<g>
											<g>
												<g>
													<g>
														<g>
															<g>
																<g>
																	<path class="st20" d="M435.4,110.7c0.1-0.1,5.8-1.7,5.6,4.1c-0.2,5.8-5.9,4.4-5.9,4.2
																		C435,118.8,435.4,110.7,435.4,110.7z"/>
																</g>
															</g>
														</g>
													</g>
												</g>
											</g>
										</g>
									</g>
									<g>
										<g>
											<g>
												<g>
													<g>
														<g>
															<g>
																<g>
																	<g>
																		<path class="st21" d="M436.9,116.9c0,0,0.1,0.1,0.3,0.2c0.2,0.1,0.4,0.1,0.8,0c0.6-0.2,1.2-1.2,1.2-2.2
																			c0-0.5-0.1-1-0.2-1.4c-0.2-0.4-0.4-0.7-0.7-0.8c-0.3-0.1-0.5,0.1-0.6,0.3c-0.1,0.2,0,0.3-0.1,0.3
																			c0,0-0.1-0.1-0.1-0.3c0-0.1,0.1-0.2,0.2-0.4c0.1-0.1,0.3-0.2,0.6-0.1c0.4,0,0.8,0.5,1,0.9c0.2,0.5,0.3,1,0.3,1.6
																			c-0.1,1.2-0.7,2.2-1.5,2.4c-0.4,0.1-0.7,0-0.9-0.2C436.9,117,436.9,116.9,436.9,116.9z"/>
																	</g>
																</g>
															</g>
														</g>
													</g>
												</g>
											</g>
										</g>
									</g>
								</g>
								<g>
									<g>
										<g>
											<g>
												<g>
													<g>
														<g>
															<g>
																<g>
																	<g>
																		<g>
																			<g>
																				<g>
																					<g>
																						<path class="st5" d="M407.3,111.5c0,0.6,0.5,1.2,1.2,1.2c0.7,0,1.2-0.4,1.2-1.1c0-0.6-0.5-1.2-1.2-1.2
																							C407.9,110.4,407.3,110.9,407.3,111.5z"/>
																					</g>
																				</g>
																			</g>
																		</g>
																	</g>
																</g>
															</g>
														</g>
														<g>
															<g>
																<g>
																	<g>
																		<g>
																			<g>
																				<g>
																					<g>
																						<g>
																							<path class="st5" d="M407.3,109.2c0.1,0.2,1.1-0.5,2.4-0.5c1.3,0,2.2,0.7,2.4,0.5c0.1-0.1-0.1-0.4-0.5-0.7
																								c-0.4-0.3-1.1-0.6-1.9-0.6c-0.8,0-1.5,0.3-1.9,0.6C407.4,108.8,407.2,109.1,407.3,109.2z"/>
																						</g>
																					</g>
																				</g>
																			</g>
																		</g>
																	</g>
																</g>
															</g>
														</g>
													</g>
													<g>
														<g>
															<g>
																<g>
																	<g>
																		<g>
																			<g>
																				<g>
																					<g>
																						<path class="st5" d="M420,111.5c0,0.6,0.5,1.2,1.2,1.2c0.7,0,1.2-0.4,1.2-1.1c0-0.6-0.5-1.2-1.2-1.2
																							C420.6,110.4,420,110.9,420,111.5z"/>
																					</g>
																				</g>
																			</g>
																		</g>
																	</g>
																</g>
															</g>
														</g>
														<g>
															<g>
																<g>
																	<g>
																		<g>
																			<g>
																				<g>
																					<g>
																						<g>
																							<path class="st5" d="M420.1,109.4c0.1,0.2,1.1-0.5,2.4-0.5c1.3,0,2.2,0.7,2.4,0.5c0.1-0.1-0.1-0.4-0.5-0.7
																								c-0.4-0.3-1.1-0.6-1.9-0.6c-0.8,0-1.5,0.3-1.9,0.6C420.1,109.1,420,109.3,420.1,109.4z"/>
																						</g>
																					</g>
																				</g>
																			</g>
																		</g>
																	</g>
																</g>
															</g>
														</g>
													</g>
													<g>
														<g>
															<g>
																<g>
																	<g>
																		<g>
																			<g>
																				<g>
																					<g>
																						<path class="st5" d="M415.4,119c0-0.1-0.8-0.2-2.1-0.4c-0.3,0-0.6-0.1-0.7-0.3c-0.1-0.2,0.1-0.6,0.2-1
																							c0.3-0.8,0.6-1.6,1-2.5c1.4-3.6,2.3-6.5,2.2-6.6c-0.1-0.1-1.4,2.8-2.7,6.4c-0.3,0.9-0.6,1.7-0.9,2.5
																							c-0.1,0.4-0.3,0.8-0.2,1.3c0.1,0.2,0.3,0.4,0.5,0.5c0.2,0.1,0.4,0.1,0.6,0.1
																							C414.5,119.1,415.3,119.1,415.4,119z"/>
																					</g>
																				</g>
																			</g>
																		</g>
																	</g>
																</g>
															</g>
														</g>
													</g>
													<g>
														<g>
															<g>
																<g>
																	<g>
																		<g>
																			<g>
																				<g>
																					<g>
																						<path class="st5" d="M419.2,119.9c-0.2,0-0.2,1.4-1.4,2.4c-1.2,1-2.7,0.8-2.7,1c0,0.1,0.3,0.3,1,0.3
																							c0.6,0,1.5-0.2,2.3-0.8c0.7-0.6,1.1-1.4,1.1-2C419.4,120.3,419.3,119.9,419.2,119.9z"/>
																					</g>
																				</g>
																			</g>
																		</g>
																	</g>
																</g>
															</g>
														</g>
													</g>
												</g>
											</g>
										</g>
										<g>
											<g>
												<g>
													<g>
														<g>
															<g>
																<g>
																	<g>
																		<path class="st5" d="M419.7,104.3c0.1,0.4,1.4,0.2,2.9,0.4c1.5,0.2,2.8,0.6,3,0.3c0.1-0.2-0.1-0.5-0.6-0.8
																			c-0.5-0.3-1.3-0.7-2.2-0.8c-0.9-0.1-1.7,0-2.3,0.3C419.9,103.9,419.7,104.2,419.7,104.3z"/>
																	</g>
																</g>
															</g>
														</g>
													</g>
												</g>
											</g>
										</g>
										<g>
											<g>
												<g>
													<g>
														<g>
															<g>
																<g>
																	<g>
																		<path class="st5" d="M407.8,105.4c0.2,0.3,1.1,0,2.2,0c1.1-0.1,2,0.2,2.2-0.1c0.1-0.1-0.1-0.4-0.4-0.7
																			c-0.4-0.3-1-0.5-1.8-0.5c-0.7,0-1.4,0.3-1.8,0.6C407.8,105,407.7,105.3,407.8,105.4z"/>
																	</g>
																</g>
															</g>
														</g>
													</g>
												</g>
											</g>
										</g>
									</g>
								</g>
							</g>
						</g>
					</g>
				</g>
			</g>
			<g>
				<g>
					<path class="st5" d="M436,110.4c0.1,0.9,0,1.9-0.1,2.8c-0.2,0.9-0.7,1.7-1.5,2.1c-1.4,0.7-3.3-0.4-3.9-1.9
						c-0.6-1.5-0.5-3.2-0.3-4.8c0.2-2.2,0.3-4.4-0.1-6.6s-1.4-4.3-3.2-5.7c-1.7-1.4-4.2-1.9-6.2-0.9c-1.2,0.6-2.1,1.7-3.3,2.4
						c-1,0.7-2.3,1.1-3.5,0.9c-1.2-0.2-2.3-1-2.7-2.2c-0.4-1.3,0.3-2.7,1.4-3.5c1-0.8,2.4-1.2,3.7-1.5c3.6-0.7,7.5-0.5,10.9,0.9
						c3.4,1.4,6.5,4,7.9,7.4c1.7,3.9,1.5,6.4,1,10.6"/>
				</g>
			</g>
		</g>
		<g>
			<g>
				<path class="st20" d="M318.6,154.6l12.3,2.5l16.9,10.8l-5.8,11c0,0-5.9-1.7-7.7-3.2c-1.7-1.5-3.7-1.7-3.7-1.7s0.1,2.7-1.9,2.2
					c-2.1-0.5-5.5-1.1-4.9-4c0,0-1.5-0.4-1.4-2.4c0,0-1.7-0.1-1.2-2.9c0.5-2.8,2.5-6.4,8.1-5.4c0.3,0.1,0.7-0.5,0.2-0.7l-8.7-2
					C320.8,158.7,315.3,156.5,318.6,154.6z"/>
			</g>
			<g>
				<g>
					<path class="st21" d="M324.7,166.7c0-0.1,0.8,0.1,2.1,0.5c0.6,0.2,1.4,0.4,2.2,0.7c0.4,0.2,0.8,0.6,1,1.1
						c0.2,0.6-0.1,1.2-0.6,1.5c-1,0.7-2.1,0.5-2.9,0.4c-0.9-0.1-1.6-0.3-2.3-0.5c-1.3-0.4-2-0.7-2-0.8c0-0.1,0.8,0.2,2.1,0.4
						c0.6,0.1,1.4,0.2,2.2,0.3c0.4,0,0.9,0.1,1.3,0.1c0.4,0,0.9-0.1,1.2-0.4c0.3-0.3,0.5-0.7,0.4-1c-0.1-0.4-0.4-0.7-0.7-0.8
						c-0.7-0.4-1.5-0.6-2.1-0.8C325.4,167.1,324.6,166.8,324.7,166.7z"/>
				</g>
			</g>
			<g>
				<g>
					<path class="st21" d="M327.7,165.1c0,0.1-0.8,0.2-1.5,0.6c-0.7,0.4-1.1,1.1-1.2,1.1c-0.1,0,0-0.9,0.9-1.5
						C326.8,164.7,327.7,165,327.7,165.1z"/>
				</g>
			</g>
			<g>
				<g>
					<path class="st21" d="M329,170.5c0,0,0.1,0,0.3,0.2c0.2,0.2,0.2,0.5,0.3,0.8c0.1,0.4,0,0.9-0.4,1.3c-0.4,0.5-1.1,0.6-1.6,0.5
						c-1.1-0.2-2-0.3-2.7-0.5c-0.7-0.2-1.1-0.5-1-0.5c0-0.1,0.4,0,1.1,0.2c0.7,0.1,1.6,0.2,2.7,0.4c0.5,0.1,0.9,0,1.2-0.3
						c0.3-0.3,0.4-0.7,0.3-1c0-0.4,0-0.6-0.1-0.8C329,170.6,328.9,170.5,329,170.5z"/>
				</g>
			</g>
			<g>
				<g>
					<path class="st21" d="M328.9,172.8c0-0.1,0.2-0.2,0.6-0.1c0.4,0.1,0.8,0.4,1.1,0.9c0.4,0.6,0.2,1.1,0.1,1.4
						c-0.1,0.3-0.3,0.5-0.3,0.5c-0.1,0,0-0.2,0-0.6c0-0.3,0-0.8-0.2-1.1c-0.3-0.4-0.6-0.7-0.8-0.8
						C329.1,172.9,328.9,172.8,328.9,172.8z"/>
				</g>
			</g>
			<g>
				<g>
					<path class="st20" d="M338.3,166.4l-5.9-0.2l-6.2,1.2c0,0-0.5,1.1,2.4,1.9c2.9,0.8,5.6,0.3,5.6,0.3s2.6,3.7,5.9,4.6"/>
				</g>
				<g>
					<g>
						<path class="st21" d="M340,174.2c0,0-0.2,0-0.6-0.1c-0.3-0.1-0.9-0.3-1.4-0.6c-1.2-0.7-2.7-1.9-4.1-3.8l0.2,0.1
							c-2,0.3-4.4,0.3-6.8-0.6c-0.3-0.2-0.7-0.3-1-0.6c-0.3-0.3-0.6-0.7-0.4-1.2l0-0.1l0.1,0c2.3-0.4,4.4-0.8,6.2-1.2l0,0l0,0
							c1.8,0.1,3.3,0.2,4.3,0.3c1,0.1,1.6,0.1,1.6,0.2c0,0-0.6,0.1-1.6,0.1c-1,0-2.5,0-4.3-0.1l0,0c-1.8,0.4-3.9,0.8-6.2,1.3
							l0.2-0.1c-0.1,0.1,0.1,0.5,0.3,0.6c0.2,0.2,0.5,0.4,0.8,0.5c2.2,0.9,4.6,0.9,6.5,0.7l0.1,0l0.1,0.1c1.3,1.8,2.8,3.1,3.9,3.8
							C339.3,173.9,340,174.1,340,174.2z"/>
					</g>
				</g>
			</g>
			<g>
				<g>
					<path class="st21" d="M331.1,162.9c-0.1,0.1-0.6-0.1-1.1-0.8c-0.4-0.6-0.5-1.2-0.4-1.3c0.1,0,0.4,0.4,0.8,1
						C330.8,162.4,331.2,162.8,331.1,162.9z"/>
				</g>
			</g>
		</g>
		<g>
			<g>
				<path class="st2" d="M396.2,240.9c10.2,4.4,22.2,5.7,35.6,4.3l9.9-100.6l-7-5.4l-16.1,12l-5.5-11.6l-13,18.6L396.2,240.9z"/>
			</g>
			<g>
				<g>
					<path class="st5" d="M413.2,245.8c0,0,0-0.1-0.1-0.2c0-0.2-0.1-0.4-0.1-0.7c-0.1-0.7-0.2-1.6-0.4-2.7c-0.1-1.2-0.2-2.7-0.3-4.4
						c-0.1-1.7-0.1-3.6-0.1-5.8c-0.1-8.6,0.5-20.4,1.5-33.5c1-13.1,2.1-24.9,3.1-33.4c0.5-4.3,0.9-7.7,1.2-10.1
						c0.2-1.2,0.3-2.1,0.4-2.7c0-0.3,0.1-0.5,0.1-0.7c0-0.2,0.1-0.2,0.1-0.2c0,0,0,0.1,0,0.2c0,0.2,0,0.4-0.1,0.7
						c-0.1,0.7-0.2,1.6-0.3,2.7c-0.3,2.4-0.6,5.9-1.1,10.1c-0.9,8.5-2,20.3-2.9,33.4c-1,13-1.6,24.9-1.6,33.5c0,2.1,0,4.1,0.1,5.8
						c0.1,1.7,0.1,3.1,0.2,4.4c0.1,1.2,0.2,2.1,0.3,2.7c0,0.3,0,0.5,0.1,0.7C413.2,245.7,413.2,245.8,413.2,245.8z"/>
				</g>
			</g>
			<g>
				<path class="st13" d="M426.8,260.6c0,0-7.5-78.6-2.9-87.4c3.6-6.8,9.2-21,11.5-27.1c0.7-1.8,0.6-3.8-0.1-5.6l-0.6-1.2l7,5.4
					l14.4,7.7l-8.7,66.6l9.8,33.8L426.8,260.6z"/>
			</g>
			<g class="st14">
				<g>
					<path d="M424.8,237.8c6.1-1.3,3.5,2.3,9.7,1.4c3.3-0.5,3.5-2.4,6.3-4.4c2.7-2,6.9-3.6,10.3-3.5l-1.4-4.7l-25.6,1L424.8,237.8z"
						/>
				</g>
			</g>
			<g>
				<path class="st13" d="M389.6,156.2l2.5,62.8l-5,35.1l12.6,4.7l5.5-97.1c0.1-3.6,0.9-7.2,2.4-10.5l4.9-10.8l-16.7,5.7
					L389.6,156.2z"/>
			</g>
			<g>
				<g>
					<path class="st13" d="M456.1,152.4c0,0,7.9,6.8,9.7,16c1.3,6.7,5.1,30.2,6.2,42.2c0.7,7.5-4.6,14.2-12,15.3c-0.1,0-0.2,0-0.3,0
						c-11.4,1.6-30.6-0.6-30.6-0.6l3.3-14.6c0,0,17-2.5,20-4.5l-4-27.1C448.3,179.2,451.6,153.2,456.1,152.4z"/>
				</g>
			</g>
			<g>
				<path class="st13" d="M348.9,165.7l27.8,17.6c0,0,10-29.4,16.4-36.3l7.7-2.6l-7.1,56.4c-0.5,3.2-2.4,6-5.1,7.8l0,0
					c-4.2,2.7-9.6,2.4-13.4-0.7l-34-27.6L348.9,165.7z"/>
			</g>
			<g>
				<g>
					<path class="st5" d="M457.4,215.4c-0.1,0,0-0.6-0.2-1.6c-0.1-1-0.5-2.3-1.2-3.7c-0.8-1.3-1.7-2.3-2.5-2.9
						c-0.8-0.6-1.4-0.9-1.3-1c0-0.1,0.7,0.1,1.5,0.7c0.9,0.6,2,1.6,2.8,3c0.8,1.4,1.1,2.9,1.1,3.9
						C457.6,214.8,457.4,215.4,457.4,215.4z"/>
				</g>
			</g>
			<g>
				<g>
					<path class="st5" d="M454.4,217.3c-0.2,0,0.6-2.7-0.1-5.9c-0.6-3.2-2.3-5.4-2.2-5.5c0,0,0.5,0.4,1.1,1.4c0.6,0.9,1.2,2.3,1.6,4
						c0.3,1.7,0.3,3.2,0.1,4.3C454.7,216.7,454.5,217.4,454.4,217.3z"/>
				</g>
			</g>
			<g>
				<g>
					<path class="st5" d="M454.2,155.1c0.1,0.1-1.4,0.9-3,3c-1.6,2.1-3.2,5.5-3.7,9.5c-0.5,4,0,7.7,0.4,10.3
						c0.2,1.2,0.3,2.3,0.5,3.1c0.1,0.7,0.2,1.2,0.1,1.2c0,0-0.1-0.4-0.3-1.1c-0.2-0.7-0.4-1.8-0.6-3.1c-0.5-2.6-1-6.3-0.5-10.5
						c0.5-4.1,2.2-7.6,3.9-9.6c0.9-1,1.7-1.8,2.3-2.2C453.8,155.3,454.2,155.1,454.2,155.1z"/>
				</g>
			</g>
			<g class="st14">
				<g>
					<path d="M452.5,206c1.3,1.5,1.9,3.6,2,5.6c0.1,2-0.3,4-1,6c-0.1,0.4-0.2,0.8,0,1.1c0.3,0.4,0.9,0.4,1.3,0
						c0.4-0.3,0.5-0.8,0.6-1.3c-0.2,0.3,0.1,0.7,0.5,0.7c0.4,0,0.6-0.3,0.8-0.6c1.1-1.7,1-4,0.2-5.9s-2.2-3.5-3.6-5"/>
				</g>
			</g>
			<g>
				<g>
					<path class="st5" d="M382.4,194.4c-0.1,0.1-1.8-2.2-3.4-5.2c-1.6-3.1-2.4-5.8-2.3-5.8c0.1-0.1,1.2,2.5,2.7,5.6
						C381,191.9,382.5,194.3,382.4,194.4z"/>
				</g>
			</g>
			<g>
				<g>
					<path class="st5" d="M378.5,196.5c-0.1,0-0.3-0.7-0.7-1.9c-0.4-1.2-0.8-2.8-1.1-4.7c-0.3-1.9-0.5-3.6-0.6-4.8
						c-0.1-1.2-0.1-2,0-2c0.2,0,0.5,3,1.2,6.7C377.9,193.5,378.6,196.4,378.5,196.5z"/>
				</g>
			</g>
			<g>
				<g>
					<path class="st5" d="M392.1,164.1c0.1,0,0.3,12.3,0.3,27.4c0,15.2-0.1,27.4-0.3,27.4s-0.3-12.3-0.3-27.4
						C391.8,176.4,392,164.1,392.1,164.1z"/>
				</g>
			</g>
			<g>
				<g>
					<path class="st5" d="M409,141.6c0,0-0.1,0.2-0.3,0.5c-0.3,0.4-0.6,0.8-1,1.4c-0.8,1.2-2.1,2.9-3.4,5.2
						c-1.3,2.3-2.8,5.1-3.6,8.5c-0.3,1.7-0.5,3.5-0.8,5.4c-0.8,2,1.1,3.3,2.7,4.4l0.4,0.3l-0.4,0.2c-0.5,0.2-1.1,0.6-1.6,1
						c-0.7,0.6-1.4,1.2-2,1.7l0.1-0.2c0.3,4,1,7.7,1.4,11.1c0.5,3.4,0.9,6.4,1.3,9c0.3,2.5,0.6,4.5,0.8,6c0.1,0.7,0.1,1.2,0.2,1.6
						c0,0.4,0.1,0.6,0,0.6c0,0-0.1-0.2-0.1-0.6c-0.1-0.4-0.2-1-0.3-1.6c-0.2-1.5-0.6-3.5-1-6c-0.4-2.6-0.9-5.6-1.4-9
						c-0.5-3.4-1.2-7.1-1.5-11.2l0-0.1l0.1-0.1c0.6-0.6,1.3-1.2,2.1-1.8c0.6-0.4,1.1-0.8,1.8-1.1l0,0.5c-0.9-0.6-1.7-1.2-2.4-2
						c-0.3-0.4-0.7-0.9-0.7-1.4c0-0.1,0-0.3,0-0.4l0.1-0.4l0.1-0.7c0.3-1.9,0.5-3.7,0.8-5.5c0.4-1.7,1-3.3,1.7-4.7
						c0.7-1.4,1.4-2.7,2-3.8c1.4-2.3,2.6-4,3.5-5.2c0.5-0.6,0.8-1,1.1-1.3C408.9,141.7,409,141.6,409,141.6z"/>
				</g>
			</g>
			<g>
				<g>
					<path class="st5" d="M439.8,143.5c0,0,0.1,0.1,0.1,0.4c0.1,0.3,0.2,0.7,0.2,1.2c0.2,1.1,0.2,2.7,0,4.6c-0.2,2-0.8,4.2-1.5,6.7
						c-0.7,2.5-1.6,5.2-2.9,7.9c-1.1,2.5-2.3,4.7-3.3,6.8l-0.1,0.1l-0.1,0c-0.8,0.2-1.6,0.3-2.4,0.5l0.1-0.4
						c0.5,0.6,1.1,1.3,1.6,1.8l0.1,0.1l-0.1,0.1c-1.4,2.3-2.6,4.2-3.5,5.6c-0.4,0.6-0.7,1.1-1,1.5c-0.2,0.3-0.4,0.5-0.4,0.5
						c0,0,0.1-0.2,0.3-0.6c0.2-0.4,0.5-1,0.9-1.6c0.8-1.4,2-3.4,3.3-5.7l0,0.2c-0.5-0.6-1-1.2-1.6-1.8l-0.3-0.3l0.4-0.1
						c0.8-0.2,1.6-0.3,2.4-0.5l-0.2,0.1c1-2.1,2.2-4.4,3.3-6.8c1.2-2.7,2.2-5.4,2.9-7.8c0.7-2.5,1.3-4.7,1.6-6.6
						c0.3-1.9,0.3-3.5,0.2-4.6C439.9,144.1,439.8,143.5,439.8,143.5z"/>
				</g>
			</g>
			<g class="st14">
				<g>
					<path d="M381.2,193.9c-1.2-3.5-3-7.1-4.5-10.6l-1.3-0.8c-1,3.1-0.6,6.6,0.5,9.7c0.1,0.3,0.2,0.6,0.5,0.7
						c0.4,0.1,0.8-0.2,0.8-0.6c0.1-0.4-0.1-0.8-0.2-1.1c0.8,1.5,1.8,2.8,2.8,4.1c0.2,0.2,0.3,0.4,0.6,0.5c0.4,0.1,0.8-0.3,0.9-0.7
						C381.5,194.7,381.3,194.3,381.2,193.9z"/>
				</g>
			</g>
			<g class="st14">
				<g>
					<path d="M402.2,196.9c-2.4-6.8-4.8-13.6-5.8-20.8c-0.2-1.6-0.3-3.2,0.1-4.7c0.4-1.5,1.5-3,3-3.5c-0.9-0.9-0.9-2.5,0-3.4
						c1,1,2,2.1,2.9,3.1c-1.5,0-2.8,1.3-3.2,2.7c-0.4,1.5-0.2,3,0,4.5c1,7.4,2,14.9,3,22.3"/>
				</g>
			</g>
			<g class="st14">
				<g>
					<path d="M434.1,173.1c1.5-5.1,2.9-10.2,4.4-15.3c-1.2,2.9-2.4,5.8-3.7,8.7c-0.5,1.2-1,2.5-1.9,3.5c-0.9,1-2.2,1.7-3.5,1.5
						c0.8,0.5,1.5,1,2.3,1.6c-1.6,2.6-3.2,5.5-4.9,8.1l3.5,0.3c1.3-2.1,2.5-4,3.8-6.1c-0.4-0.7-0.8-1.4-1.2-2.1
						C433.4,173.2,433.7,173.2,434.1,173.1z"/>
				</g>
			</g>
			<g>
				<polygon class="st2" points="412.5,140.4 412.7,138 417.2,144.4 418.6,151.3 422.3,144.4 435,137 435,143.5 432.6,149.8 
					427.9,153.4 422.4,155.8 416,154.6 412.1,152.4 411.2,147.8 				"/>
			</g>
			<g>
				<g>
					<path class="st5" d="M416.9,144.3c0.1,0-0.3,0.9-0.7,2.3c-0.4,1.4-0.9,3.5-0.8,5.8l0,1l-0.5-0.8c-0.1-0.2-0.2-0.3-0.3-0.5
						c-1.3-2.2-1.9-4.3-2.5-5.8c-0.6-1.5-1.1-2.3-1.1-2.4c0,0,0.7,0.7,1.4,2.2c0.7,1.4,1.4,3.6,2.6,5.7c0.1,0.2,0.2,0.3,0.3,0.5
						l-0.5,0.2c-0.1-2.4,0.5-4.5,0.9-5.9C416.3,145.1,416.8,144.3,416.9,144.3z"/>
				</g>
			</g>
			<g>
				<g>
					<path class="st5" d="M435,141.2c0,0,0,0.1,0,0.3c0,0.2,0,0.4-0.1,0.8c-0.1,0.6-0.6,1.5-1.4,2.4c-0.8,0.9-1.9,1.8-3.1,2.6
						c-1.3,0.8-2.6,1.8-4,2.9c-1.2,1-2.4,1.9-3.6,2.6l-0.5,0.3l0.1-0.5c0.2-1.1,0.1-2.3,0.1-3.3c-0.1-1-0.1-1.9-0.2-2.6
						c-0.1-1.5-0.2-2.3-0.2-2.3c0.1,0,0.3,0.8,0.5,2.3c0.1,0.7,0.2,1.6,0.3,2.6c0.1,1,0.2,2.1,0,3.4l-0.4-0.3
						c1.1-0.7,2.3-1.7,3.5-2.6c1.4-1.1,2.7-2.1,4-2.9c1.3-0.8,2.3-1.7,3.1-2.5c0.8-0.8,1.2-1.6,1.4-2.2
						C435,141.5,435,141.2,435,141.2z"/>
				</g>
			</g>
			<g>
				<g>
					<path class="st5" d="M450.5,226.5c0,0-0.1,0-0.4,0.1c-0.3,0-0.7,0-1.2,0.1c-1,0.1-2.6,0.1-4.5,0.1c-1.9,0-4.2,0-6.8,0
						c-1.3,0-2.7,0-4.2-0.1c-0.7,0-1.5-0.1-2.2-0.1c-0.4,0-0.8-0.1-1.2-0.1l-0.6-0.1c-0.1,0-0.2,0-0.3,0c-0.1,0-0.1,0-0.2,0l-0.1,0
						c0,0-0.2-0.1-0.2-0.2l0-0.1l0,0c0.9-3.9,1.8-8.3,2.8-12.8c0.2-0.9,0.4-1.7,0.6-2.5l0-0.2l0.2,0c7.8-1.1,14.9-2.3,20-4.4
						l-0.1,0.2c-0.5-3.5-0.9-6.4-1.2-8.4c-0.1-1-0.2-1.7-0.3-2.3c-0.1-0.5-0.1-0.8-0.1-0.8c0,0,0.1,0.3,0.2,0.8
						c0.1,0.6,0.2,1.3,0.4,2.3c0.3,2,0.8,4.9,1.3,8.4l0,0.1l-0.1,0.1c-5.1,2.2-12.2,3.4-20.1,4.6l0.2-0.2c-0.2,0.8-0.4,1.7-0.6,2.5
						c-1,4.5-2,8.9-2.9,12.8l-0.2-0.1c6.3,0.3,11.7,0.4,15.5,0.4c1.9,0,3.4,0,4.5,0c0.5,0,0.9,0,1.2,0
						C450.3,226.5,450.5,226.5,450.5,226.5z"/>
				</g>
			</g>
		</g>
		<g>
			<g>
				<g>
					<polygon class="st15" points="453.7,187.5 445,208.5 432.3,210.8 428.9,226.1 437.3,226.6 437.2,227.1 404.2,228.1 
						418.2,187.5 					"/>
				</g>
				<g>
					<polygon class="st15" points="413.5,180.6 418.2,187.5 404.2,228.1 399.7,220.3 					"/>
				</g>
				<g>
					<polygon class="st22" points="453.7,187.5 448.6,182.6 413.5,180.6 418.2,187.5 					"/>
				</g>
				<g>
					<g>
						<path class="st5" d="M418.2,187.5c0.1,0-2.9,9.2-6.7,20.4c-3.9,11.2-7.1,20.3-7.2,20.2c-0.1,0,2.9-9.2,6.7-20.4
							C414.8,196.5,418,187.5,418.2,187.5z"/>
					</g>
				</g>
			</g>
			<g>
				<g>
					<path class="st20" d="M431.8,211.9l-6-0.5c0,0-2.3-3.9-3.9-5.2c-1.5-1.4-9.5-5.2-9.5-5.2s-1.2,1.4,0,2.8
						c0.5,0.6,4.3,2.7,4.3,2.7l0,0c0.4,1.5-0.9,3-2.5,2.7c-2.3-0.4-5-0.9-5.4-0.9c-0.4,0-2.7-2.2-4.4-3.9c-1-1-2.8,0-2.4,1.3
						c0,0.1,0.1,0.3,0.2,0.3c0,0-2.5-0.1-0.3,3.2c0,0-0.5,3,1.3,4.4c0,0,0.8,3.7,1.9,4.9c1.2,1.3,12.4,3.7,12.4,3.7l11.8,1.1
						L431.8,211.9z"/>
				</g>
				<g>
					<g>
						<path class="st21" d="M413.2,212.8c0,0.1-0.8,0.1-2,0c-1.2-0.1-3-0.3-4.7-1.2c-1.7-1-2.7-2.6-3.3-3.6
							c-0.6-1.1-0.9-1.8-0.9-1.8c0.1,0,0.5,0.6,1.2,1.6c0.7,1,1.7,2.4,3.3,3.4c1.6,0.9,3.3,1.2,4.5,1.3
							C412.4,212.6,413.2,212.7,413.2,212.8z"/>
					</g>
				</g>
				<g>
					<g>
						<path class="st21" d="M412,215.4c0,0.1-0.7,0.2-1.8,0.1c-0.6,0-1.2-0.1-2-0.3c-0.7-0.2-1.6-0.4-2.3-0.9
							c-0.7-0.6-1.3-1.2-1.7-1.8c-0.4-0.5-0.8-1-1.2-1.5c-0.7-0.9-1.1-1.5-1-1.5c0.1,0,0.6,0.4,1.3,1.3c0.4,0.4,0.8,0.9,1.3,1.5
							c0.5,0.6,1,1.2,1.7,1.7c0.6,0.5,1.4,0.7,2.1,0.9c0.7,0.2,1.4,0.3,1.9,0.4C411.3,215.3,412,215.3,412,215.4z"/>
					</g>
				</g>
				<g>
					<g>
						<path class="st21" d="M410.4,218.3c0,0.2-2.1-0.2-4.4-0.9c-0.4-0.1-0.6-0.3-0.9-0.5c-0.2-0.2-0.4-0.4-0.6-0.6
							c-0.4-0.4-0.7-0.8-0.9-1.2c-0.4-0.7-0.6-1.2-0.5-1.3c0.1,0,0.3,0.4,0.8,1c0.2,0.3,0.6,0.7,0.9,1.1c0.2,0.2,0.4,0.4,0.6,0.6
							c0.2,0.2,0.4,0.4,0.7,0.4c1.2,0.3,2.3,0.7,3.1,0.9C410,218.1,410.4,218.2,410.4,218.3z"/>
					</g>
				</g>
			</g>
		</g>
	</g>
</g>
</svg>
