<?xml version="1.0" encoding="utf-8"?>
<!-- Generator: Adobe Illustrator 24.2.1, SVG Export Plug-In . SVG Version: 6.00 Build 0)  -->
<svg version="1.1" id="Layer_1" xmlns="http://www.w3.org/2000/svg" xmlns:xlink="http://www.w3.org/1999/xlink" x="0px" y="0px"
	 viewBox="0 0 600 700" style="enable-background:new 0 0 600 700;" xml:space="preserve">
<style type="text/css">
	.st0{fill:url(#SVGID_1_);}
	.st1{opacity:0.6;fill:#94B6FD;}
	.st2{fill:url(#SVGID_2_);}
	.st3{opacity:0.3;fill:#FF3A72;}
	.st4{opacity:0.6;}
	.st5{fill:#A3B5E9;}
	.st6{fill:#292F61;}
	.st7{fill:#FFFFFF;}
	.st8{fill:#042D46;}
	.st9{fill:#AEB7C0;}
	.st10{fill:#679CE0;}
	.st11{opacity:0.8;}
	.st12{fill:#E7F2FE;}
	.st13{fill:url(#SVGID_3_);}
	.st14{fill:#4894AB;}
	.st15{fill:url(#SVGID_4_);}
	.st16{fill:#72E2E8;}
	.st17{fill:url(#SVGID_5_);}
	.st18{fill:#53AAC4;}
	.st19{fill:none;stroke:#4169EA;stroke-miterlimit:10;}
	.st20{fill:#4169EA;}
	.st21{fill:url(#SVGID_6_);}
	.st22{fill:url(#SVGID_7_);}
	.st23{fill:none;stroke:#FFFFFF;stroke-width:2.7608;stroke-linecap:round;stroke-linejoin:round;stroke-miterlimit:10;}
	.st24{fill:#FEC4AD;}
	.st25{fill:#7B2B1A;}
	.st26{fill:#133A50;}
	.st27{fill:#396283;}
	.st28{fill:#AEBFDE;}
	.st29{fill:#21295B;}
	.st30{fill:#FEC1B2;}
	.st31{fill:#382728;}
	.st32{fill:#2957CC;}
	.st33{fill:none;stroke:#382728;stroke-width:0.2241;stroke-miterlimit:10;}
	.st34{fill:#1D567A;}
	.st35{fill:#CFCFCF;}
	.st36{fill:none;stroke:#364469;stroke-width:1.4173;stroke-miterlimit:10;}
	.st37{fill:#BDD1E9;}
	.st38{fill:#FFB200;}
	.st39{fill:#C1C8DA;}
	.st40{fill:#130E0B;}
	.st41{opacity:0.36;fill:#1F1E60;}
	.st42{fill:none;stroke:#130E0B;stroke-width:2.7211;stroke-miterlimit:10;}
	.st43{fill:#C6CFDE;}
	.st44{fill:#9098BF;}
	.st45{fill:#EBE8F9;}
</style>
<g>
	<g>
		<linearGradient id="SVGID_1_" gradientUnits="userSpaceOnUse" x1="87.274" y1="634.5305" x2="151.4347" y2="634.5305">
			<stop  offset="0" style="stop-color:#2E7FEB"/>
			<stop  offset="1" style="stop-color:#46BAE1"/>
		</linearGradient>
		<path class="st0" d="M87.5,671.9h18c0,0,46.4-16.7,46-74.8c0,0-58.5,4.6-64,56C87,664.8,87.5,671.9,87.5,671.9z"/>
		<path class="st1" d="M132.5,616.3c3.9-3.7,12.2-12.5,12.2-12.5s-9.8,6.5-13.7,10.1c-32.8,31-39.6,56.5-39.9,57.7l1.3,0.3h1.4
			C94.7,668.9,102.6,644.8,132.5,616.3z"/>
		<linearGradient id="SVGID_2_" gradientUnits="userSpaceOnUse" x1="2.3061" y1="619.232" x2="92.6899" y2="619.232">
			<stop  offset="0" style="stop-color:#2E7FEB"/>
			<stop  offset="1" style="stop-color:#3B4D87"/>
		</linearGradient>
		<path class="st2" d="M92.4,671.9H67.1c0,0-65.4-23.6-64.8-105.4c0,0,82.5,6.5,90.1,78.9C93,662,92.4,671.9,92.4,671.9z"/>
		<path class="st3" d="M83.2,671.9h2.9c-2.5-8.3-17.6-53.5-63.8-90.1c-3.9-3.1-13-7.9-13-7.9s7.2,6.9,10.8,9.8
			C64.7,618.8,80.2,662.1,83.2,671.9z"/>
	</g>
	<g>
		<g>
			<g class="st4">
				<path class="st5" d="M58.2,671.2c-0.3,0-0.6,0.3-0.6,0.6c0,0.4,0.3,0.6,0.6,0.6h62.7c0.3,0,0.6-0.3,0.6-0.6
					c0-0.3-0.3-0.6-0.6-0.6H58.2z"/>
			</g>
		</g>
	</g>
</g>
<g>
	<g>
		<path class="st6" d="M368.5,180.5c0,4.1-3.4,7.5-7.5,7.5h-91.2c-4.1,0-7.5-3.4-7.5-7.5V47.1c0-4.1,3.4-7.5,7.5-7.5H361
			c4.1,0,7.5,3.4,7.5,7.5V180.5z"/>
		<polygon class="st7" points="362.3,156.9 340.7,176.9 268.9,176.9 268.9,44.8 362.3,44.8 		"/>
		<path class="st8" d="M327.6,29.3c-0.8-5.9-5.8-10.5-11.9-10.5c-6.1,0-11.2,4.6-12,10.5h-15.9V48h55.7V29.3H327.6z M315.6,38.5
			c-4.2,0-7.6-3.4-7.6-7.6c0-4.2,3.4-7.6,7.6-7.6c4.2,0,7.6,3.4,7.6,7.6C323.3,35.1,319.8,38.5,315.6,38.5z"/>
		<polygon class="st9" points="362.3,156.9 340.6,156.9 340.7,176.9 		"/>
	</g>
	<g>
		<g>
			<path class="st10" d="M303.9,135.9c-0.9,0-1.6,0.7-1.6,1.6c0,0.9,0.7,1.5,1.6,1.5h26.3c0.9,0,1.6-0.7,1.6-1.5
				c0-0.9-0.7-1.6-1.6-1.6H303.9z"/>
		</g>
		<g>
			<path class="st10" d="M335.8,135.9c-0.9,0-1.6,0.7-1.6,1.6c0,0.9,0.7,1.5,1.6,1.5h16.1c0.9,0,1.6-0.7,1.6-1.5
				c0-0.9-0.7-1.6-1.6-1.6H335.8z"/>
		</g>
		<g>
			<path class="st10" d="M303,144.2c-0.9,0-1.6,0.7-1.6,1.6c0,0.9,0.7,1.6,1.6,1.6h10.4c0.9,0,1.6-0.7,1.6-1.6
				c0-0.9-0.7-1.6-1.6-1.6H303z"/>
		</g>
		<g>
			<path class="st10" d="M320.1,144.2c-0.9,0-1.6,0.7-1.6,1.6c0,0.9,0.7,1.6,1.6,1.6h31.8c0.9,0,1.6-0.7,1.6-1.6
				c0-0.9-0.7-1.6-1.6-1.6H320.1z"/>
		</g>
		<g>
			<path class="st10" d="M293.5,129.6c0,0-7.5,10.6-9.9,14.1c-1.5-2.2-3.5-5.1-3.5-5.1c-0.6-0.9-1.9-1.2-2.9-0.5
				c-0.9,0.6-1.2,1.9-0.5,2.9l5.2,7.5c0.4,0.6,1,0.9,1.7,0.9c0.7,0,1.3-0.3,1.7-0.9l11.7-16.6c0.7-0.9,0.4-2.2-0.5-2.9
				C295.4,128.4,294.1,128.6,293.5,129.6z"/>
		</g>
	</g>
	<g>
		<g>
			<path class="st10" d="M303.9,103.1c-0.9,0-1.6,0.7-1.6,1.5c0,0.9,0.7,1.6,1.6,1.6h26.3c0.9,0,1.6-0.7,1.6-1.6
				c0-0.9-0.7-1.5-1.6-1.5H303.9z"/>
		</g>
		<g>
			<path class="st10" d="M335.8,103.1c-0.9,0-1.6,0.7-1.6,1.5c0,0.9,0.7,1.6,1.6,1.6h16.1c0.9,0,1.6-0.7,1.6-1.6
				c0-0.9-0.7-1.5-1.6-1.5H335.8z"/>
		</g>
		<g>
			<path class="st10" d="M303,111.4c-0.9,0-1.6,0.7-1.6,1.6c0,0.9,0.7,1.5,1.6,1.5h10.4c0.9,0,1.6-0.7,1.6-1.5
				c0-0.9-0.7-1.6-1.6-1.6H303z"/>
		</g>
		<g>
			<path class="st10" d="M320.1,111.4c-0.9,0-1.6,0.7-1.6,1.6c0,0.9,0.7,1.5,1.6,1.5h31.8c0.9,0,1.6-0.7,1.6-1.5
				c0-0.9-0.7-1.6-1.6-1.6H320.1z"/>
		</g>
		<g>
			<path class="st10" d="M293.5,96.8c0,0-7.5,10.6-9.9,14.1c-1.5-2.2-3.5-5.1-3.5-5.1c-0.6-0.9-1.9-1.2-2.9-0.5
				c-0.9,0.6-1.2,1.9-0.5,2.9l5.2,7.5c0.4,0.6,1,0.9,1.7,0.9c0.7,0,1.3-0.3,1.7-0.9l11.7-16.6c0.7-0.9,0.4-2.2-0.5-2.9
				C295.4,95.6,294.1,95.8,293.5,96.8z"/>
		</g>
	</g>
	<g>
		<g>
			<path class="st10" d="M303.9,71.7c-0.9,0-1.6,0.7-1.6,1.6c0,0.9,0.7,1.6,1.6,1.6h26.3c0.9,0,1.6-0.7,1.6-1.6
				c0-0.9-0.7-1.6-1.6-1.6H303.9z"/>
		</g>
		<g>
			<path class="st10" d="M335.8,71.7c-0.9,0-1.6,0.7-1.6,1.6c0,0.9,0.7,1.6,1.6,1.6h16.1c0.9,0,1.6-0.7,1.6-1.6
				c0-0.9-0.7-1.6-1.6-1.6H335.8z"/>
		</g>
		<g>
			<path class="st10" d="M303,80c-0.9,0-1.6,0.7-1.6,1.6c0,0.9,0.7,1.6,1.6,1.6h10.4c0.9,0,1.6-0.7,1.6-1.6c0-0.9-0.7-1.6-1.6-1.6
				H303z"/>
		</g>
		<g>
			<path class="st10" d="M320.1,80c-0.9,0-1.6,0.7-1.6,1.6c0,0.9,0.7,1.6,1.6,1.6h31.8c0.9,0,1.6-0.7,1.6-1.6c0-0.9-0.7-1.6-1.6-1.6
				H320.1z"/>
		</g>
		<g>
			<path class="st10" d="M293.5,65.3c0,0-7.5,10.6-9.9,14.1c-1.5-2.2-3.5-5.1-3.5-5.1c-0.6-0.9-1.9-1.2-2.9-0.5
				c-0.9,0.6-1.2,1.9-0.5,2.9l5.2,7.5c0.4,0.6,1,0.9,1.7,0.9c0.7,0,1.3-0.3,1.7-0.9l11.7-16.6c0.7-0.9,0.4-2.2-0.5-2.9
				C295.4,64.2,294.1,64.4,293.5,65.3z"/>
		</g>
	</g>
</g>
<g>
	<g class="st11">
		<path class="st12" d="M476.1,290.5L476.1,290.5c0-14.4,9.2-26.1,20.5-26.1H123.7c-11.3,0-20.5,11.7-20.5,26.1l0,0
			c0,14.4,9.2,26.1,20.5,26.1h372.9C485.2,316.6,476.1,304.9,476.1,290.5z"/>
		<path class="st12" d="M558.7,348.5h-21.4c-6.9,0-12.5-7.2-12.5-16v0c0-8.8-5.6-16-12.5-16H175.4c6.9,0,12.5,7.2,12.5,16l0,0
			c0,8.8-5.6,16-12.5,16H153c-12.9,0-23.3,13.3-23.3,29.7l0,0c0,16.4,10.5,29.7,23.3,29.7h405.7c12.9,0,23.3-13.3,23.3-29.7l0,0
			C582,361.9,571.6,348.5,558.7,348.5z"/>
		<path class="st12" d="M563.8,447.1H75.3c14.8,0,26.7,15.3,26.7,34.1l0,0c0,18.8-12,34.1-26.7,34.1h488.5
			c14.8,0,26.7-15.3,26.7-34.1l0,0C590.5,462.3,578.5,447.1,563.8,447.1z"/>
		<path class="st12" d="M530.9,241.2h-11.3c-5.2,0-9.4-5.3-9.4-11.9l0,0c0-6.6-4.2-11.9-9.4-11.9H231.6c-5.2,0-9.4,5.3-9.4,11.9l0,0
			c0,6.6,4.2,11.9,9.4,11.9h39.3c5,0,9.1,5.2,9.1,11.6l0,0c0,6.4-4.1,11.6-9.1,11.6h260c5,0,9.1-5.2,9.1-11.6l0,0
			C540,246.4,535.9,241.2,530.9,241.2z"/>
		<path class="st12" d="M75.3,546.4h15.1c6.9,0,12.5,7.2,12.5,16l0,0c0,8.8,5.6,16,12.5,16h407.7c6.9,0,12.5-7.2,12.5-16l0,0
			c0-8.8-5.6-16-12.5-16h-52.6c-6.7,0-12.2-7-12.2-15.6l0,0c0-8.6,5.5-15.6,12.2-15.6H75.3c-6.7,0-12.2,7-12.2,15.6l0,0
			C63.1,539.4,68.5,546.4,75.3,546.4z"/>
		<path class="st12" d="M513,427.6c0-10.8,6.9-19.5,15.3-19.5H22.9c-8.5,0-15.3,8.7-15.3,19.5c0,10.8,6.9,19.5,15.3,19.5h505.4
			C519.9,447.1,513,438.3,513,427.6z"/>
	</g>
	<path class="st12" d="M597.3,679.7c0,5.9-133.1,10.6-297.3,10.6S2.7,685.6,2.7,679.7c0-5.9,133.1-10.6,297.3-10.6
		S597.3,673.8,597.3,679.7z"/>
	<g>
		<linearGradient id="SVGID_3_" gradientUnits="userSpaceOnUse" x1="499.4823" y1="598.9816" x2="545.7332" y2="598.9816">
			<stop  offset="0" style="stop-color:#2E7FEB"/>
			<stop  offset="1" style="stop-color:#3B4D87"/>
		</linearGradient>
		<path class="st13" d="M531.3,645.5c1.3-10.5,14-26.3,14.5-36.8c0.4-10.5-7.9-12.3-7.9-12.3s0.7-16.5-5.3-23.7
			c-4.5-5.4-9.6-2.6-9.6-2.6s-6.9-24.8-19.3-18.8c-11,5.3,3.1,21.9,3.9,24.1c0.9,2.2-6.8,3-1.5,14.8c2.9,6.4,11.5,11.5,11.5,11.5
			s-6,6.3-2.6,12.7c4.9,9.5,11.4,24.1,11.4,33.3L531.3,645.5z"/>
		<path class="st14" d="M517.2,574.6c0,0,8.2,10.2,13.1,50.5c4.1,33,4.4,40,4.4,40l3.5-8.2C538.3,657,530.4,589.8,517.2,574.6z"/>
		<linearGradient id="SVGID_4_" gradientUnits="userSpaceOnUse" x1="520.71" y1="591.4888" x2="555.7625" y2="591.4888">
			<stop  offset="0" style="stop-color:#2E7FEB"/>
			<stop  offset="1" style="stop-color:#46BAE1"/>
		</linearGradient>
		<path class="st15" d="M547.2,557.5c8.3-20.6,12.3-43.4,3.9-39.9c-12.4,5.2-12.3,38.6-12.3,38.6s-7.9,7-10.5,29.4
			c-0.4,3.8-0.8,8.3-1.1,13.2c-4.1,0.4-7.5,5.5-6.4,20.5c0.7,10.4,8.8,46.5,8.8,46.5s0.9-11,11.4-35.1c10.5-24.1,2.6-29.4,2.6-29.4
			C553.2,566.7,547.2,557.5,547.2,557.5z"/>
		<path class="st16" d="M527.8,644.9c3.2-39.6,18.5-106.2,18.5-106.2s-13.1,69.2-17.8,116.2L527.8,644.9z"/>
		<linearGradient id="SVGID_5_" gradientUnits="userSpaceOnUse" x1="527.9757" y1="607.1174" x2="567.3386" y2="607.1174">
			<stop  offset="0" style="stop-color:#2E7FEB"/>
			<stop  offset="1" style="stop-color:#3B4D87"/>
		</linearGradient>
		<path class="st17" d="M528,632.8c2-7.6,1.1-17.4,2.3-23.1c1.2-5.7,5.6-3.8,5.6-3.8s-0.2-8.5,3.7-13.9c3.9-5.3,8.7-2.3,8.7-2.3
			s4.2-9.1,11.5-11.1c7.2-2,10.4,4.9,4.4,11.4c-6,6.5-6,6.5-6,6.5s5,1,4.6,8c-0.4,7-11.6,7.5-11.6,7.5s5.6,4.3-1.2,9.6
			c-6.7,5.3-12.1,7-15.8,14.2C534.2,635.9,527.5,634.5,528,632.8z"/>
		<path class="st18" d="M529.2,642.1c7.3-26.6,22.3-44.4,22.3-44.4S533,624,531.3,649.1L529.2,642.1z"/>
		<polygon class="st8" points="557.7,628.9 510.2,628.9 510.2,632.6 513,632.6 518.7,672.7 549.2,672.7 554.9,632.6 557.7,632.6 		
			"/>
	</g>
	<g>
		<path class="st19" d="M169,55l2.2,56.5c0.1,2.6-1.6,5-4.2,5.6l-34.9,9.1c-3.5,0.9-5.2,4.8-3.6,8c1.9,3.6,5,7.6,9.7,8.8
			c0,0-17.3,3.3-26-5.4c-1.2-1.2-3.6-1.7-5.3-1.3C97,139,68.5,146.9,57.2,150c-2.7,0.8-5.6-0.6-6.7-3.3l-27-65.5
			c-1.4-3.3,0.7-7,4.2-7.6l134.8-23.9C165.8,49.1,168.9,51.6,169,55z"/>
	</g>
	<g>
		<path class="st19" d="M430.7,38.1l-2.4,72.1c-0.1,2.4,1.4,4.5,3.6,5.3l39.9,13.8c2.7,0.9,4.2,3.8,3.4,6.5
			c-1.2,4.2-3.9,9.8-9.8,11.4c0,0,17.2,4,26.4-6.6c1.4-1.6,3.7-2.2,5.8-1.5l53.6,16.8c2.8,0.9,5.7-0.6,6.7-3.3L588,69.8
			c1.1-3.1-0.8-6.5-4-7.1L437.2,33C433.9,32.3,430.8,34.8,430.7,38.1z"/>
		<g>
			<path class="st20" d="M469.8,85.5c-1.7-1.1-2.6-3.2-2-5.1c0.3-1.2,1.1-2.1,2.2-2.7c1.1-0.6,2.3-0.7,3.4-0.4
				c0.4,0.1,0.7,0.3,1.1,0.5c1.7,1.1,2.6,3.2,2,5.1c-0.3,1.2-1.1,2.1-2.2,2.7c-1.1,0.6-2.3,0.7-3.4,0.4
				C470.4,85.9,470.1,85.7,469.8,85.5z"/>
			<path class="st20" d="M496.6,93.5c-1.8-1.1-2.6-3.2-2-5.1c0.3-1.2,1.1-2.1,2.2-2.7c1.1-0.6,2.3-0.7,3.4-0.4
				c0.4,0.1,0.7,0.3,1.1,0.5c1.8,1.1,2.6,3.2,2,5.1c-0.3,1.2-1.1,2.1-2.2,2.7c-1.1,0.6-2.3,0.7-3.4,0.4
				C497.3,93.8,496.9,93.7,496.6,93.5z"/>
			<path class="st20" d="M523.4,101.4c-1.8-1.1-2.6-3.2-2-5.1c0.3-1.2,1.1-2.1,2.2-2.7c1.1-0.6,2.3-0.7,3.4-0.4
				c0.4,0.1,0.7,0.3,1.1,0.5c1.7,1.1,2.6,3.2,2,5.1c-0.7,2.4-3.2,3.7-5.6,3C524.1,101.8,523.7,101.6,523.4,101.4z"/>
		</g>
	</g>
	<g>
		<radialGradient id="SVGID_6_" cx="541.1503" cy="269.4475" r="56.3293" gradientUnits="userSpaceOnUse">
			<stop  offset="0.2334" style="stop-color:#687686"/>
			<stop  offset="0.4742" style="stop-color:#9BA5AF;stop-opacity:0.6859"/>
			<stop  offset="0.8329" style="stop-color:#E3E5E8;stop-opacity:0.2179"/>
			<stop  offset="1" style="stop-color:#FFFFFF;stop-opacity:0"/>
		</radialGradient>
		<circle class="st21" cx="541.2" cy="269.4" r="56.3"/>
		<g>
			
				<ellipse transform="matrix(0.9508 -0.3098 0.3098 0.9508 -45.2037 178.1093)" class="st7" cx="538.2" cy="231.4" rx="54.4" ry="54.4"/>
			<circle class="st20" cx="538.2" cy="231.4" r="47.1"/>
			<g>
				<path class="st7" d="M532.2,252.8c-1.2,0-2.4-0.5-3.2-1.4l-15-15.8c-1.7-1.8-1.6-4.6,0.2-6.3c1.8-1.7,4.6-1.6,6.3,0.2l11.8,12.4
					l27.7-29.8c1.7-1.8,4.5-1.9,6.2-0.2c1.8,1.7,1.9,4.5,0.2,6.2l-30.9,33.2C534.6,252.3,533.5,252.8,532.2,252.8
					C532.2,252.8,532.2,252.8,532.2,252.8z"/>
			</g>
		</g>
	</g>
	<g>
		<radialGradient id="SVGID_7_" cx="68.2755" cy="516.0381" r="44.2508" gradientUnits="userSpaceOnUse">
			<stop  offset="0.2334" style="stop-color:#687686"/>
			<stop  offset="0.4742" style="stop-color:#9BA5AF;stop-opacity:0.6859"/>
			<stop  offset="0.8329" style="stop-color:#E3E5E8;stop-opacity:0.2179"/>
			<stop  offset="1" style="stop-color:#FFFFFF;stop-opacity:0"/>
		</radialGradient>
		<circle class="st22" cx="68.3" cy="516" r="44.3"/>
		<g>
			
				<ellipse transform="matrix(0.3847 -0.9231 0.9231 0.3847 -408.1546 359.9895)" class="st7" cx="65.9" cy="486.1" rx="42.7" ry="42.7"/>
			
				<ellipse transform="matrix(0.2312 -0.9729 0.9729 0.2312 -422.2704 437.879)" class="st8" cx="65.9" cy="486.1" rx="37" ry="37"/>
			<polyline class="st23" points="49.5,487.1 61.3,499.5 85.5,473.4 			"/>
		</g>
	</g>
	<g>
		<path class="st8" d="M475.7,653.9v24.5h-8l-2-4.6l-4.9,4.6h-28.6c0,0,1.1-4.5,2.5-5.1c1.4-0.6,20.5-10.1,21.3-11.1
			c0.8-1,5-10.8,5-10.8L475.7,653.9z"/>
		<path class="st8" d="M425.6,653.9v24.5h-8l-2-4.6l-2.4,4.6h-31.1c0,0,1.1-4.5,2.5-5.1c1.4-0.6,20.5-10.1,21.3-11.1
			c0.8-1,5-10.8,5-10.8L425.6,653.9z"/>
		<path class="st24" d="M446.3,190.8c-0.1,8.4,1.7,12.4,3.2,16.6c1.5,4.1,15.6,8.9,15.6,8.9s-42.6,47.3-59,47
			c-16.4-0.3,7.2-44.6,7.2-44.6s6.9-4.2,8.4-8.7c1.5-4.5,2.4-14.7,2.4-14.7l19.3-24.7L446.3,190.8z"/>
		<path class="st24" d="M414.7,143.8c-2.8,1.8-7.6,5.6-7.8,8.4c-0.2,2.8-1.2,11-0.8,15.8c0.4,4.8,0.6,17.2,1.4,22.8
			c0.8,5.6,1.5,13.2,2.8,14.2c1.3,1,14.7,1.4,17.5,0c2.8-1.4,16.6-15.2,16-27.2c0,0,5.3,2.5,9.5-8.3c1.1-2.8-8.3-13.6-9.5-16.9
			c-2.8-8-19-5.8-23.4-6.4C416.1,145.6,414.7,143.8,414.7,143.8z"/>
		<path class="st25" d="M406.9,152.2c0,0,1.6-3.8,4.8-2.2c3.2,1.6,10,2.6,15.2,2.2c5.2-0.4,10.2-2.6,10.2-2.6s0,7.4,1.4,9.4
			c1.4,2,4.6,4.4,4.8,6.8c0.2,2.4,0,4.8,0,4.8s3.2-4.2,5.8-3.4c2.6,0.8,2.6,5.2,0,7.2c-2.6,2-5.2,3.4-5.2,3.4s0,3.4,0.6,6
			c0.6,2.6,1.8,7,1.8,7s5.6-15.2,10.2-21.4c4.6-6.2,6.8-19-2.2-23.8c0,0,0-12-12.6-14.2c-12.6-2.2-23.6,1-29-0.8
			c-5.4-1.8-6.8-3.4-6.8-3.4s-4.6,9.2-2,15.2C406.5,148.4,406.9,152.2,406.9,152.2z"/>
		<path class="st26" d="M472,373c0,0,7.5,48.7,7.7,95.5c0.2,46.9-4.3,194.2-4.3,194.2h-20.2c0,0-18.4-142.6-26-172.7
			c-7.6-30.1-22.2-123.3-22.2-123.3L472,373z"/>
		<path class="st26" d="M430.3,420.8c0,0,1.2,76.4,0.5,90.5c-0.8,14.1-5,151.2-5,151.2s-18.9,0.5-18.9,0
			c0-0.5-17.9-144.2-20.2-178.9c-2.3-34.6-1-80.7-4-85.5c-3.1-4.8,8.3-31.9,8.3-31.9l26.8,6.7L430.3,420.8z"/>
		<path class="st27" d="M457.6,210.6l26.7,14.4c0,0,6.8,27.2,6.4,38.3c-0.4,11.1-15.7,121-15.7,121s-38.2,4.6-57.5,0
			c-19.2-4.6-32.5-8.9-32.5-8.9s6.6-107.3,8.2-118.4c1.5-11.1,5.3-33.2,5.3-33.2l15.1-7.8l8.3,6.4L457.6,210.6z"/>
		<polygon class="st26" points="417,224.6 420.2,235.4 425.8,235.8 434.2,223 421.9,222.5 		"/>
		<polygon class="st28" points="454.1,205 421.9,222.5 435,233.4 457.6,210.6 		"/>
		<polygon class="st28" points="421.9,222.5 411.4,231 413.6,216.1 417,211.8 		"/>
		<polygon class="st28" points="462,278.2 436.3,275.7 436.3,270.1 462,272.6 		"/>
		<path class="st29" d="M431.8,165.5c-0.1-1-3.4-1.3-5.8-1.4c-2.4,0-8.7-0.1-10.2,0.7c-1.4,0.7-1.4,1.4-2.1,1.4
			c-0.7,0-0.6-0.6-2-1.4c-1.4-0.8-3.1-0.5-5.5-0.5c-1.2,0-2.4-0.1-3.2,0.2c-0.7,0.2-0.6,1.1-0.5,2.7c0.1,1.5,0.5,3.5,1.2,5.5
			c0.7,2.2,1.5,2.9,4.3,2.9c4-0.1,3.8-3.9,4.3-5.5c0.5-1.6,0.9-1.8,1.4-1.8c0.6,0,1,0.2,1.5,1.8c0.5,1.6,0.5,5.2,4.5,5.9
			c5.1,0.9,7.6-0.4,8.8-3.3c1.6-3.9,1.3-3.9,1.8-4.2c0.2-0.1,1.4-0.5,1.5-1C431.8,166.8,431.8,166,431.8,165.5z M410.7,171.4
			c-0.4,2-0.8,3.5-3.4,3.5c-2.4,0-2.9-1.7-3.3-3.1c-0.7-2.5-0.6-4.6-0.1-5.2c0.5-0.6,0.8-0.8,3.8-0.6c3,0.2,3,0,3.3,1.3
			C411.2,167.7,411.2,169.4,410.7,171.4z M428,171.2c-0.9,2.8-2.3,4.1-5.6,4.1c-4.7-0.1-5.3-1.8-5.7-3.8c-0.4-2-0.4-3.7-0.3-4.1
			c0.3-1.2,1.3-1.3,4.3-1.4c3-0.1,6.9-0.3,7.4,0.3C428.6,166.9,428.8,168.8,428,171.2z M445.8,168.3c0,0-2-3.2-4-3.4
			c-4.2-0.2-12.8-0.6-12.8-0.6l2.6,3.3l10.1,0.6c0,0,0.5-0.2,0.8-0.2c0.6,0.1,1.8,1.4,1.8,1.4C445,168.7,445.8,168.3,445.8,168.3z"
			/>
		<g>
			<path class="st30" d="M180.2,581.7c2-21.7,2.6-40.8,0.9-49.8c-7.2-38.5-21.5-126-21.5-126l47.9,2.4c0,0,1.7,121.4,2.1,125.8
				c1,10.6-5.7,50.2-9.1,77.1c-2.5,20.2-2.1,35.1-1,38.6c2.4,8.3,19.7,20.7,19.7,20.7s-1,4.3-6.4,5.5c-3.7,0.9-12.6-5.1-15.6-6.5
				c-7.4-3.4-14.4-11.2-14.4-11.2C187.9,644,177.8,607.6,180.2,581.7z"/>
			<path class="st26" d="M182.6,658.3c0,0,2.7-1.2,6,1.8c4.5,4.1,11,9.4,16.1,11.6c9,3.9,14.2-1.3,14.2-1.3s4.2,1.5,10.2,5.2
				c7.1,4.3-5.4,6.6-22.6,4.2c-3.8-0.5-14.6-6.1-16-6.2c-1.4-0.1-2.1,4.3-3.3,4.3c-2,0-2.3,0.4-2.3,0.4l-2.2-11.2L182.6,658.3z"/>
		</g>
		<g>
			<path class="st30" d="M144.6,577.4c4.5-21.3,9.2-42.5,8.6-51.7c-2.6-39-8.8-86.1-7.6-124.3c0.3-10.7,44.8,6.8,44.8,6.8
				s-11.9,120.8-12,125.2c-0.2,10.7-10.7,49.2-17.2,75.6c-4.9,19.8-6.1,34.6-5.5,38.2c1.4,8.5,17.1,22.9,17.1,22.9s-1.5,4.2-7,4.7
				c-3.8,0.4-11.9-6.5-14.8-8.2c-7-4.2-13-12.8-13-12.8C144.9,640.2,139.2,602.9,144.6,577.4z"/>
			<path class="st26" d="M138.1,653.8c0,0,2.8-0.9,5.8,2.5c4,4.6,9.8,10.6,14.7,13.4c8.5,4.9,14.3,0.4,14.3,0.4s4,2,9.5,6.4
				c6.5,5.1-6.2,5.9-23,1.5c-3.7-1-13.8-7.8-15.1-8c-1.4-0.2-2.6,4-3.7,3.9c-2-0.2-2.3,0.1-2.3,0.1l-0.9-11.3L138.1,653.8z"/>
		</g>
		<path class="st26" d="M200.9,437.2c-0.9,0.4,10.7,64,9.8,64.2c-29,8-70.6-2.2-73.3-2c4-16.1,7.4-72,3.6-87.8
			c-6.7-27.4,2.8-51.3,16.1-65c13.3-13.7,36.2-10.7,36.2-10.7l6.1,40.1c0,0,7.7,14,8.2,29.6c0.2,5.7-0.3,16.8-1,29.1
			C204.6,435.5,202.7,436.3,200.9,437.2z"/>
		<path class="st31" d="M209.1,250c-18.4,3.9-41.4-8-56.6-20.3l6.2-21.2l26.5-36.2c0,0,16.2-0.4,19.2,17.5c3,17.8-2.5,31.8,4,57.1
			C208.8,247.9,209,249,209.1,250z"/>
		<g>
			<path class="st30" d="M294.1,256.5c2.5-1.1,5.9-5.5,7.4-8.2c0.7-1.3,2.9-3.1,3.1-5c0.2-1.5,1.2-5.9,2.1-7.6c1-1.7,2.1-4.2,3.4-4
				c1.3,0.2,1.4,1.2,0.9,2.6c-0.5,1.3-0.1,5.5,0.1,6c0.3,0.6,3.5-1.8,5.5-4.3c2-2.6,3.4-6.9,4.6-8.4c1.2-1.5,2.9,0.6,2.9,0.6
				s2.1,0.3,2.8,1.3c0.6,1,1.3,2.3,1.6,3.4c0.3,1.1-0.5,2.2,0.2,3.2c0.6,1,0.9,2.5,0,4c-0.9,1.5-8.2,10.7-9.7,12.3
				c-1.5,1.5-13.7,8.1-18.1,12.3c0,0-0.8,0.5-3.1-2.3C295.4,259.6,294.1,256.5,294.1,256.5z"/>
			<path class="st20" d="M188.5,249.9c-8.4-0.2-14,15.1-6.4,27c7.6,11.9,43.7,29.4,66.9,32.4c2.2,0.3,3.6,0.4,8.2-1.9
				c16.4-8.4,38.8-29.4,52.8-43.7c0,0-7.6-3.1-12.1-10.5c0,0-41.6,32.1-48.6,32.6c0,0-11.4-3.1-32.9-19.4
				C200.9,254.6,197.4,250.1,188.5,249.9z"/>
		</g>
		<path class="st30" d="M187.1,250.1c-2.8,0-7.5-3.9-3.4-13l-17.5-5.8c0,0-3.9,11.7-9,18.6c-5.1,6.9,16.6,49,29.2,51
			c12.6,2,17-13.7,17-13.7l-8.9-31L187.1,250.1z"/>
		<path class="st30" d="M190.6,233c-4.2,3.4-8.3,15.6-8.1,22.1l-26.9,5.5c0,0,6-17.3,8.7-30.4c2.7-13.1-0.1-18.6-0.1-18.6L190.6,233
			z"/>
		<path class="st30" d="M199.8,184.7c3,3.8,4,9.5,4.3,12.1c0.2,2.6-0.9,5.3,0.7,7.6c1.6,2.3,7.2,6.3,7.8,7.6
			c0.6,1.4-3.3,4.3-3.7,5.2c-0.4,1-1.9,8.9-2.6,12.9c-0.7,4-9.7,4.2-15.7,2.8c-6-1.5-14.8-6.5-18.2-8.5c-3.4-2-8.3-12.9-8.3-12.9
			l-4.4-21.5c0,0,3.5-11.8,17-11.9S196.3,180.1,199.8,184.7z"/>
		<path class="st31" d="M177.5,213.6c-3,0.6-5.2,17.6-0.5,28.9c-14,4.3-20.8-0.1-31.2-5.3c-3.6-5.2-8.5-43.9,7.8-57.6
			c27.3-22.9,42.7,1.4,42.7,1.4S190.8,208,177.5,213.6z"/>
		<path class="st26" d="M164.3,495.8c-6.7-12.7-17.8-88.7-17.1-101.1c1.2-20.4,12.5-32.3,28.5-37.2c12.6-3.9,31.6,3.7,31.6,3.7
			l5.6,30.8c0,0,12.8,70.7,18.1,102.6C229.7,495.3,186.9,509.9,164.3,495.8z"/>
		<path class="st32" d="M158.7,248.9c0,0,8.7,3.5,16.5,12.1c7.8,8.6,18.5,19.2,21.3,17.9c2.8-1.2-4.4-25-9.4-28.7l8.6,2.8
			c0,0,7.4,20.2,11.4,27c4,6.8,10,16.1,9.8,25.2c-0.3,9-5.9,21.9-5.1,29.6c0.8,7.7-0.2,47.5-0.2,47.5s-18,5.9-37.3,5.1
			c-19.3-0.9-30.5-4.8-36.7-0.9c0,0,8.9-32.5,11.2-51.5c1.7-13.9-2.9-27.1-6.3-42.5c-3.4-15.4-7.3-24-2.1-32
			C145.7,252.5,158.7,248.9,158.7,248.9z"/>
		<path class="st32" d="M181,319c-17.3-17.4-28.5-39.4-37.2-62.3c-1.3,1.1-2.4,2.4-3.3,3.7c-5.2,7.9-1.3,16.5,2.1,32
			c3.4,15.4,7.9,28.6,6.3,42.5c-2.3,19-11.2,51.5-11.2,51.5c6.2-3.9,17.4,0,36.7,0.9c19.3,0.9,37.3-5.1,37.3-5.1s0.2-37.7-0.1-51.1
			C199.9,326.3,190.1,328.1,181,319z"/>
		<path class="st33" d="M194.6,178.6c3.8,4.7,3.6,11.9,0.4,17.1c-3.2,5.2-8.9,8.4-14.8,9.9"/>
		<g>
			<path class="st30" d="M261.5,324.7c2.8,0.6,8.4-1,11.3-2.4c1.3-0.7,4.4-0.8,5.7-2.3c1.1-1.2,4.6-4.3,6.5-5.1s4.4-2.2,5.4-1.3
				c1,0.9,0.4,1.9-0.9,2.7c-1.2,0.8-3.5,4.5-3.6,5.2c-0.1,0.6,4,0.6,7.3-0.3c3.3-0.9,7.2-3.7,9.1-4.3c1.9-0.5,2.1,2.3,2.1,2.3
				s1.6,1.5,1.5,2.8c-0.1,1.3-0.3,2.8-0.7,3.9c-0.4,1.1-1.7,1.6-1.9,2.8c-0.1,1.3-0.7,2.7-2.5,3.4c-1.7,0.7-13.5,4-15.7,4.4
				c-2.2,0.4-16.6-1.6-22.9-0.8c0,0-1-0.1-1.3-3.9C260.8,328.1,261.5,324.7,261.5,324.7z"/>
			<path class="st20" d="M155.4,251.7c-8.5-2.1-17.6,4.6-18.6,19.4c-1,14.7,35,41.4,52.8,58.3c1.7,1.6,2.7,2.6,8.1,3.4
				c19,3,36.2,5.8,67.7,7.7c0,0,0.5-7.3,1.3-16.4c0,0-49.2-6.6-63.2-15.3c0,0-10-6.4-18.7-22.7C175.3,268.1,167.3,254.6,155.4,251.7
				z"/>
		</g>
		<g>
			<path class="st24" d="M479.9,403.3c0,0-2.2,6.8-3,8.6c-0.8,1.9,5.9,4.5,5.9,4.5l2.7-8.2L479.9,403.3z"/>
			<g>
				<rect x="434.9" y="419.9" class="st34" width="106.3" height="81.9"/>
				<polygon class="st35" points="541.2,446.5 486.7,455.9 434.9,446.5 434.9,424 541.2,424 				"/>
				<polygon class="st34" points="541.2,442.4 486.7,451.9 434.9,442.4 434.9,419.9 541.2,419.9 				"/>
				<path class="st36" d="M467.3,424.3c0,0,6.8-10.8,9.6-12.4c3.6-2,21.3-1.8,23.1,0c1.8,1.8,9.6,12.8,9.6,12.8"/>
				<rect x="479" y="442.9" class="st26" width="14.4" height="23"/>
			</g>
			<path class="st24" d="M487.4,390.8l-3.1,8l-4.5,4.6l1.1,7.1l0.4,8.7l13.6-1.6c0,0,1.8-3.5,1.5-7.2c-0.1-1.8-0.1-7.8,0.3-9.9
				c0.3-2.1,1.4-8.1,1.4-8.1L487.4,390.8z"/>
			<path class="st27" d="M484.2,395l17,1.7c0,0,5.9-62.1,5.8-65.2c-0.1-3.2,0.8-75.4-7.8-92.1c-7-13.5-17.9-16.5-27-13.3
				c-9.2,3.2-5.3,24.2-5.3,24.2l13.9,81.8L484.2,395z"/>
			<path class="st28" d="M492.4,383.1c-3.5,0.6-6.5-0.1-8.9-1.5l0.7,13.4l17,1.7c0,0,0.6-6.4,1.4-15.1
				C499.2,382,495.8,382.5,492.4,383.1z"/>
		</g>
		<g>
			<path class="st24" d="M288.3,312.5c-0.8,1.9-1.3,5.8-1.3,5.8l4,1.7l3.1-2.1l4.8,0.3L288.3,312.5z"/>
			<path class="st24" d="M308.7,317.3l-9.7,1l-6.9-2l-2.9,2l-10.5,12.1l12.5,5.7h6.4c0,0,3.9-4.4,6.1-5.1c2.3-0.7,8.9-2.6,8.9-2.6
				L308.7,317.3z"/>
			<path class="st27" d="M300.9,318.1l6.3,15.1c0,0,73.4-16.4,76.1-18.6c2.8-2.2,45.3-53.5,45.3-53.5s-3.2-25-12.5-30.7
				c-9.2-5.7-17.1-5.7-17.1-5.7l-36.2,65.8L300.9,318.1z"/>
			<path class="st28" d="M315.9,311.4l-15,6.7l6.3,15.1c0,0,5.8-1.3,14.3-3.2C319.5,323.8,317.7,317.6,315.9,311.4z"/>
		</g>
		<path class="st26" d="M420.2,235.4c0,0-6.8,77.4-8,86.2c-1.2,8.8,8,18.4,8,18.4s7.6-11.6,8-15.2s-2.4-89-2.4-89L420.2,235.4z"/>
	</g>
</g>
<g>
	<g>
		<path class="st37" d="M560.3,444.6c0,6.4,5.2,11.7,11.7,11.7c6.4,0,11.7-5.2,11.7-11.7c0-6.4-5.2-11.7-11.7-11.7
			C565.5,432.9,560.3,438.1,560.3,444.6z M564.7,444.6c0-4,3.2-7.2,7.2-7.2s7.2,3.2,7.2,7.2c0,4-3.2,7.2-7.2,7.2
			S564.7,448.6,564.7,444.6z"/>
	</g>
</g>
<g>
	<g>
		<path class="st37" d="M26.4,173c0,6.4,5.2,11.7,11.7,11.7c6.4,0,11.7-5.2,11.7-11.7s-5.2-11.7-11.7-11.7
			C31.6,161.3,26.4,166.6,26.4,173z M30.9,173c0-4,3.2-7.2,7.2-7.2c4,0,7.2,3.2,7.2,7.2s-3.2,7.2-7.2,7.2
			C34.1,180.2,30.9,177,30.9,173z"/>
	</g>
</g>
<g>
	<g>
		<g>
			<path class="st37" d="M73.6,385.3c-1.2,0-2.2,1-2.2,2.2c0,1.2,1,2.2,2.2,2.2h22.4c1.2,0,2.2-1,2.2-2.2c0-1.2-1-2.2-2.2-2.2H73.6z
				"/>
		</g>
		<g>
			<path class="st37" d="M105.7,385.3c-1.2,0-2.2,1-2.2,2.2c0,1.2,1,2.2,2.2,2.2h4.1c1.2,0,2.2-1,2.2-2.2c0-1.2-1-2.2-2.2-2.2H105.7
				z"/>
		</g>
	</g>
</g>
<g>
	<g>
		<g>
			<path class="st37" d="M317.6,616.9c-1.2,0-2.2,1-2.2,2.2c0,1.2,1,2.2,2.2,2.2H340c1.3,0,2.2-1,2.2-2.2c0-1.2-1-2.2-2.2-2.2H317.6
				z"/>
		</g>
		<g>
			<path class="st37" d="M349.6,616.9c-1.2,0-2.2,1-2.2,2.2c0,1.2,1,2.2,2.2,2.2h4.1c1.2,0,2.2-1,2.2-2.2c0-1.2-1-2.2-2.2-2.2H349.6
				z"/>
		</g>
	</g>
</g>
<g>
	<g>
		<g>
			<path class="st37" d="M530,323.2c-1.2,0-2.2,1-2.2,2.2c0,1.2,1,2.2,2.2,2.2h22.4c1.2,0,2.2-1,2.2-2.2c0-1.2-1-2.2-2.2-2.2H530z"
				/>
		</g>
		<g>
			<path class="st37" d="M562,323.2c-1.2,0-2.2,1-2.2,2.2c0,1.2,1,2.2,2.2,2.2h4.1c1.2,0,2.2-1,2.2-2.2c0-1.2-1-2.2-2.2-2.2H562z"/>
		</g>
	</g>
</g>
<path class="st37" d="M241.5,32.7h-5.7v-5.7c0-1.2-1-2.2-2.2-2.2c-1.3,0-2.2,1-2.2,2.2v5.7h-5.7c-1.2,0-2.2,1-2.2,2.2
	c0,1.2,1,2.2,2.2,2.2h5.7v5.8c0,1.2,1,2.2,2.2,2.2c1.2,0,2.2-1,2.2-2.2v-5.8h5.7c1.2,0,2.2-1,2.2-2.2
	C243.8,33.7,242.8,32.7,241.5,32.7z"/>
<path class="st37" d="M23.4,531h-5.7v-5.7c0-1.2-1-2.2-2.2-2.2c-1.2,0-2.2,1-2.2,2.2v5.7H7.4c-1.2,0-2.2,1-2.2,2.2
	c0,1.2,1,2.2,2.2,2.2h5.7v5.7c0,1.2,1,2.2,2.2,2.2c1.2,0,2.2-1,2.2-2.2v-5.7h5.7c1.2,0,2.2-1,2.2-2.2C25.6,532,24.6,531,23.4,531z"
	/>
<g>
	<g>
		<polygon class="st38" points="52.5,94.2 56.2,102.1 62.4,101 58.6,107.3 62.1,115.4 56,111.4 51.9,117.4 52,108.7 45.9,104.3 
			52.1,102.9 		"/>
	</g>
	<g>
		<polygon class="st38" points="76.7,89.3 80.4,97.2 86.7,96.1 82.8,102.4 86.3,110.5 80.2,106.5 76.1,112.5 76.2,103.7 70.2,99.4 
			76.4,98 		"/>
	</g>
	<g>
		<polygon class="st38" points="100.9,84.4 104.7,92.3 110.9,91.2 107,97.5 110.5,105.6 104.4,101.6 100.4,107.6 100.5,98.8 
			94.4,94.5 100.6,93.1 		"/>
	</g>
	<g>
		<polygon class="st38" points="125.2,79.4 128.9,87.3 135.2,86.3 131.3,92.6 134.8,100.6 128.7,96.6 124.6,102.7 124.7,93.9 
			118.7,89.6 124.8,88.2 		"/>
	</g>
	<g>
		<polygon class="st26" points="149.4,74.5 153.2,82.4 159.4,81.3 155.5,87.7 159,95.7 152.9,91.7 148.8,97.8 148.9,89 142.9,84.7 
			149.1,83.3 		"/>
	</g>
</g>
<g>
	<path class="st39" d="M406.5,285.8l0,1.8l0.4,0c0.3,0,3.4-0.6,4.5-8.8c0.4-3.1,0.6-6.6,0.7-10.4l0-0.4l-1.8,0l0,0.4
		c-0.1,3.8-0.3,7.2-0.7,10.2c-0.6,5.1-2.1,6.5-2.6,6.8c-0.1,0.1-0.2,0.2-0.2,0.4l0,0.1L406.5,285.8z"/>
	<path class="st39" d="M378.6,284.5L378.6,284.5c0.2,0.1,0.4,0,0.5-0.2l0.4-1.3l-0.3-0.1l0.2-0.3c0,0-1.8-1.1-0.7-7.5
		c0.6-3.8,1.6-7.7,2.4-10.2l0.1-0.3l-1.7-0.6l-0.1,0.4c-0.7,2.6-1.8,6.6-2.4,10.5C375.5,282.9,378.3,284.4,378.6,284.5z"/>
	<path class="st40" d="M378.8,267.4c0.3,0.3,0.7,0.4,1.1,0.4c0.4,0,0.8-0.3,1.1-0.7c0.3-0.5,0.5-1,0.7-1.6c0.2-0.4,0.3-0.9,0.5-1.2
		c2.3-4.3,5.2-9.7,15.8-8.1c5.1,0.7,8.6,3.2,10.4,7.3c1.3,3,1.2,6,1.2,6c0,0.5,0.1,1,0.5,1.4c0.3,0.3,0.6,0.4,0.9,0.4
		c0.8,0,1.5-0.8,1.6-1.7c0-0.2,0.2-3.8-1.5-7.7c-1-2.3-2.4-4.2-4.2-5.7c-2.2-1.8-5.1-3-8.4-3.5c-0.1,0-0.2,0-0.3,0
		c-0.2,0-0.4,0-0.6-0.1h0c-11.7-1.3-15.3,5.2-17.8,10c-0.5,0.9-0.9,1.8-1.2,2.6C378.3,266.1,378.3,266.9,378.8,267.4z"/>
	<g>
		<path class="st40" d="M383.3,281.9l-1.8-0.2c-1.2-0.1-2.4,0.8-2.5,2.1l0,0c-0.2,1.3,0.7,2.5,2,2.6l1.8,0.2
			c1.2,0.1,2.4-0.8,2.5-2.1l0,0C385.4,283.2,384.5,282,383.3,281.9z"/>
		<path class="st40" d="M385.2,284.5L385.2,284.5c-0.2,1.3-1.3,2.2-2.5,2.1l-1.8-0.2c-0.7-0.1-1.3-0.5-1.6-1.1
			c-0.2-0.3,0.1-0.6,0.4-0.5c1.3,0.3,4.1,0.7,4.9-0.9c0,0,0-0.1,0-0.1c0.2-0.3,0.6-0.3,0.7,0.1C385.3,284,385.3,284.2,385.2,284.5z"
			/>
		<path class="st40" d="M384.2,282.2c-2.8-0.6-4.8,0.3-4.8,0.3l0,0c0.5-0.6,1.2-1,2.1-0.9l1.8,0.2
			C383.6,281.9,383.9,282,384.2,282.2L384.2,282.2z"/>
	</g>
	<g>
		<path class="st40" d="M403.1,283.7l1.8,0.2c1.3,0.1,2.1,1.4,1.9,2.9l0,0c-0.2,1.4-1.3,2.5-2.6,2.3l-1.8-0.2
			c-1.3-0.1-2.1-1.4-1.9-2.9l0,0C400.7,284.6,401.8,283.5,403.1,283.7z"/>
		<path class="st40" d="M400.5,286L400.5,286c-0.2,1.4,0.7,2.7,1.9,2.9l1.8,0.2c0.7,0.1,1.4-0.2,1.9-0.8c0.2-0.2,0-0.6-0.3-0.6
			c-1.3,0-4.2-0.2-4.6-2.1c0,0,0-0.1,0-0.1c-0.1-0.4-0.6-0.4-0.7-0.1C400.6,285.6,400.5,285.8,400.5,286z"/>
		<path class="st41" d="M402.1,283.8c2.9,0,4.6,1.5,4.6,1.5l0,0c-0.3-0.8-1-1.4-1.8-1.5l-1.8-0.2
			C402.7,283.6,402.4,283.7,402.1,283.8L402.1,283.8z"/>
	</g>
	<g>
		<path class="st40" d="M404.4,224c4.1-6.8,10.3-11.2,16.5-13.4c0.2-0.1,0.4,0,0.5,0.2c0,0-1.3,2.2-1.5,2.2
			c-18.9,6.7-21,36.4-21.3,40c0,0.2-0.2,0.3-0.4,0.3l-2-0.1c-0.2,0-0.4-0.2-0.3-0.4c0.1-1.8,0.9-9.6,3.8-18.2
			C400.9,230.7,402.6,227.1,404.4,224z"/>
	</g>
</g>
<g>
	<g>
		<path class="st40" d="M454.5,237c-1.3,8.3-4.6,15-9.7,19.7c-0.3,0.3-0.7,0.2-1-0.1l-1-1.2c-0.2-0.3-0.2-0.7,0.1-0.9
			c14.8-13.4,8.3-40.9,6.4-47.7c-0.2-0.9-0.4-0.8-0.6-1.6l-0.2-0.5c0.4-0.1,2.7-0.9,3.1,0.4c0.8,2.2,2.9,10.1,3.4,19.4
			C455.3,229,455.1,233.2,454.5,237z"/>
	</g>
	<path class="st42" d="M435.6,255.8c2.2-1.4,4.9-1.4,6.9-0.1l1.7-1.8c0.5-0.5,1.4-0.6,1.9-0.1l0.1,0.1c0.5,0.5,0.6,1.4,0.1,1.9
		l-1.7,1.9c1.9,3,1.1,6.9-1.9,8.9c-3,2-7,1.1-8.9-1.9C431.8,261.7,432.6,257.7,435.6,255.8z"/>
	<path class="st43" d="M435.6,255.8c2.2-1.4,4.9-1.4,6.9-0.1l1.7-1.8c0.5-0.5,1.4-0.6,1.9-0.1l0.1,0.1c0.5,0.5,0.6,1.4,0.1,1.9
		l-1.7,1.9c1.9,3,1.1,6.9-1.9,8.9c-3,2-7,1.1-8.9-1.9C431.8,261.7,432.6,257.7,435.6,255.8z"/>
	<path class="st44" d="M441.6,265.5c3-1.9,3.8-5.9,1.9-8.9l1.7-1.9c0.3-0.3,0.4-0.8,0.3-1.2c0.2,0.1,0.4,0.2,0.5,0.3l0.1,0.1
		c0.5,0.5,0.6,1.4,0.1,1.9l-1.7,1.9c1.9,3,1.1,6.9-1.9,8.9c-2.9,1.9-6.8,1.2-8.8-1.6C436,266.8,439.2,267.1,441.6,265.5z"/>
	<g>
		<path class="st45" d="M443.3,254.9l0.5-0.6l-0.4,0.6C443.4,254.9,443.4,254.9,443.3,254.9z"/>
		<path class="st45" d="M435.6,255.8c1.1-0.7,2.2-1,3.4-1.1c-1,0.3-2,0.8-2.8,1.6c-2.7,2.6-2.8,7-0.2,9.7c0.6,0.6,1.3,1.1,2,1.4
			c-1.7-0.3-3.3-1.3-4.3-2.8C431.8,261.7,432.6,257.7,435.6,255.8z"/>
	</g>
	<path class="st42" d="M437.7,259c1.2-0.8,2.8-0.4,3.6,0.7c0.8,1.2,0.4,2.8-0.7,3.6c-1.2,0.8-2.8,0.4-3.6-0.7S436.5,259.8,437.7,259
		z"/>
	<path class="st44" d="M437.9,259.3c1.1-0.7,2.5-0.4,3.2,0.7c0.7,1.1,0.4,2.5-0.7,3.2c-1.1,0.7-2.5,0.4-3.2-0.7
		C436.5,261.4,436.8,260,437.9,259.3z"/>
</g>
</svg>
