<?xml version="1.0" encoding="utf-8"?>
<!-- Generator: Adobe Illustrator 22.0.1, SVG Export Plug-In . SVG Version: 6.00 Build 0)  -->
<svg version="1.1" id="Layer_1" xmlns="http://www.w3.org/2000/svg" xmlns:xlink="http://www.w3.org/1999/xlink" x="0px" y="0px"
	 viewBox="0 0 200 200" style="enable-background:new 0 0 200 200;" xml:space="preserve">
<style type="text/css">
	.st0{fill:#4169EA;}
	.st1{font-family:'BigJohn';}
	.st2{font-size:36px;}
	.st3{fill:#102E46;}
</style>
<path class="st0" d="M65.7,128.7L65.7,128.7L65.7,128.7L65.7,128.7z M49.2,134.7h11.2c0.8-2.3,1.7-4.5,2.9-6.6V70H49.2V134.7
	L49.2,134.7z M62.2,139.4H46.9c-1.3,0-2.4-1.1-2.4-2.4V67.7c0-1.3,1.1-2.4,2.4-2.4h18.8c1.3,0,2.4,1.1,2.4,2.4v61.1
	c0,0.4-0.1,0.8-0.3,1.2c-1.4,2.5-2.5,5.1-3.3,7.8C64.2,138.7,63.2,139.4,62.2,139.4L62.2,139.4z"/>
<path class="st0" d="M107.5,107.1c5,0.9,9.8,2.7,14.1,5.4v-81h-14.1V107.1L107.5,107.1z M124,119.3c-0.5,0-1-0.2-1.4-0.5
	c-5.2-4-11.3-6.5-17.7-7.3c-1.2-0.2-2.1-1.2-2.1-2.3v-80c0-1.3,1.1-2.4,2.4-2.4H124c1.3,0,2.4,1.1,2.4,2.4V117
	c0,0.9-0.5,1.7-1.3,2.1C124.7,119.2,124.3,119.3,124,119.3L124,119.3z"/>
<text transform="matrix(1 0 0 1 84.9445 161.7662)" class="st0 st1 st2">G</text>
<path class="st3" d="M20.1,134.7h14.1v-32.1H20.1V134.7L20.1,134.7z M36.6,139.4H17.8c-1.3,0-2.4-1.1-2.4-2.4v-36.8
	c0-1.3,1.1-2.4,2.4-2.4h18.8c1.3,0,2.4,1.1,2.4,2.4V137C39,138.4,37.9,139.4,36.6,139.4L36.6,139.4z"/>
<path class="st0" d="M165.8,134.7h14.1v-32.1h-14.1V134.7L165.8,134.7z M182.2,139.4h-18.8c-1.3,0-2.4-1.1-2.4-2.4v-36.8
	c0-1.3,1.1-2.4,2.4-2.4h18.8c1.3,0,2.4,1.1,2.4,2.4V137C184.6,138.4,183.5,139.4,182.2,139.4L182.2,139.4z"/>
<path class="st3" d="M100,190c-23,0-41.8-18.7-41.8-41.8c0-23,18.7-41.8,41.8-41.8s41.8,18.7,41.8,41.8C141.8,171.2,123,190,100,190
	L100,190z M100,111.1c-20.4,0-37,16.6-37,37s16.6,37,37,37s37-16.6,37-37C137,127.8,120.4,111.1,100,111.1L100,111.1z"/>
<path class="st3" d="M100,180.3L100,180.3c-1.3,0-2.4-1.1-2.4-2.4c0-1.3,1.1-2.4,2.4-2.4s2.4,1.1,2.4,2.4
	C102.3,179.3,101.3,180.3,100,180.3L100,180.3z"/>
<path class="st3" d="M71.7,159.8c-1,0-1.9-0.6-2.2-1.6v-0.1c-0.4-1.2,0.3-2.6,1.5-3s2.6,0.3,3,1.5s-0.3,2.6-1.5,3
	C72.2,159.7,71.9,159.8,71.7,159.8L71.7,159.8z M75.9,168.1c-0.7,0-1.4-0.3-1.9-0.9l0,0c-0.8-1-0.6-2.5,0.5-3.3
	c1-0.8,2.5-0.6,3.3,0.5c0.8,1,0.6,2.5-0.5,3.3C76.9,167.9,76.4,168.1,75.9,168.1L75.9,168.1z M82.5,174.7c-0.5,0-1-0.2-1.4-0.5
	l1.4-1.9l-1.4,1.9c-1.1-0.7-1.3-2.2-0.6-3.3c0.7-1.1,2.2-1.3,3.3-0.6l0.1,0.1c1,0.8,1.3,2.3,0.5,3.3C84,174.3,83.3,174.7,82.5,174.7
	L82.5,174.7z M90.8,178.9c-0.2,0-0.5,0-0.7-0.1H90c-1.2-0.4-1.9-1.8-1.5-3s1.8-1.9,3-1.5s1.9,1.7,1.5,3
	C92.8,178.2,91.8,178.9,90.8,178.9L90.8,178.9z"/>
<path class="st3" d="M70.2,150.6c-1.3,0-2.4-1-2.4-2.3l0,0c0-1.3,1.1-2.4,2.4-2.4s2.4,1.1,2.4,2.4S71.5,150.6,70.2,150.6L70.2,150.6
	z"/>
<path class="st3" d="M100,120.8c-1.3,0-2.4-1.1-2.4-2.4s1-2.4,2.3-2.4l0,0c1.3,0,2.4,1.1,2.4,2.4C102.4,119.7,101.3,120.8,100,120.8
	L100,120.8z"/>
<path class="st3" d="M109.2,122.3c-0.3,0-0.5,0-0.8-0.1c-1.2-0.4-1.9-1.7-1.5-3c0.4-1.2,1.7-1.9,3-1.5h0.1c1.2,0.4,1.9,1.8,1.5,3
	C111.1,121.6,110.2,122.3,109.2,122.3L109.2,122.3z M117.5,126.5c-0.5,0-0.9-0.1-1.3-0.4l-0.1-0.1c-1-0.8-1.3-2.3-0.5-3.3
	s2.3-1.3,3.3-0.5l-1.4,1.9l1.4-1.9c1.1,0.7,1.3,2.2,0.6,3.3C119,126.1,118.3,126.5,117.5,126.5L117.5,126.5z M124.1,133.1
	c-0.7,0-1.5-0.3-1.9-1c-0.7-1.1-0.5-2.5,0.5-3.3s2.5-0.6,3.3,0.5l0.1,0.1c0.8,1.1,0.5,2.5-0.6,3.3
	C125,132.9,124.6,133.1,124.1,133.1L124.1,133.1z M128.3,141.4c-1,0-1.9-0.6-2.2-1.6v-0.1c-0.4-1.2,0.3-2.6,1.5-3s2.6,0.3,3,1.5
	l-2.3,0.7l2.3-0.7c0.4,1.2-0.2,2.6-1.4,3C128.9,141.3,128.6,141.4,128.3,141.4L128.3,141.4z"/>
<path class="st3" d="M129.8,150.6c-1.3,0-2.4-1.1-2.4-2.4s1.1-2.4,2.4-2.4s2.4,1,2.4,2.3l0,0C132.1,149.5,131.1,150.6,129.8,150.6
	L129.8,150.6z"/>
<path class="st3" d="M139.5,134.7h11.2V61.3h-14.1v66.8C137.8,130.2,138.8,132.4,139.5,134.7L139.5,134.7z M153.1,139.4h-15.3
	c-1,0-2-0.7-2.3-1.7c-0.8-2.7-1.9-5.3-3.3-7.8c-0.2-0.4-0.3-0.8-0.3-1.2V59c0-1.3,1.1-2.4,2.4-2.4h18.8c1.3,0,2.4,1.1,2.4,2.4v78.1
	C155.5,138.4,154.4,139.4,153.1,139.4L153.1,139.4z"/>
<path class="st3" d="M94.9,109.1L94.9,109.1L94.9,109.1L94.9,109.1z M78.4,77.7v34.7c4.3-2.6,9.1-4.4,14.1-5.4V77.7H78.4L78.4,77.7z
	 M76,119.3c-0.4,0-0.7-0.1-1-0.2c-0.8-0.4-1.3-1.2-1.3-2.1V75.4c0-1.3,1.1-2.4,2.4-2.4h18.8c1.3,0,2.4,1.1,2.4,2.4v33.8
	c0,1.2-0.9,2.2-2.1,2.3c-6.4,0.8-12.6,3.4-17.7,7.3C77,119.1,76.5,119.3,76,119.3L76,119.3z"/>
<path class="st0" d="M109.1,13.1c-1.2,0-2.2-0.9-2.3-2.2c-0.1-1.3,0.8-2.4,2.1-2.6l0.2,2.4L109,8.4c1.3-0.1,2.4,0.8,2.6,2.1
	c0.1,1.3-0.8,2.4-2.1,2.6h-0.1C109.3,13.1,109.2,13.1,109.1,13.1L109.1,13.1z M118.7,13.2c-0.1,0-0.2,0-0.3,0
	c-1.3-0.2-2.2-1.3-2.1-2.6c0.2-1.3,1.3-2.2,2.6-2.1h0.1c1.3,0.2,2.2,1.4,2,2.7C120.8,12.3,119.8,13.2,118.7,13.2L118.7,13.2z
	 M100.1,15.8c-0.8,0-1.6-0.4-2-1.1c-0.7-1.1-0.3-2.6,0.8-3.3l1.2,2l-1.2-2c1.1-0.7,2.6-0.4,3.3,0.7c0.7,1.1,0.4,2.6-0.7,3.3h-0.1
	C101,15.7,100.6,15.8,100.1,15.8L100.1,15.8z M127.3,16.7c-0.5,0-1-0.2-1.5-0.5l-0.1-0.1c-1-0.8-1.1-2.3-0.3-3.3
	c0.8-1,2.3-1.1,3.3-0.3l-1.5,1.8l1.5-1.8c1,0.8,1.1,2.3,0.3,3.3C128.7,16.4,128,16.7,127.3,16.7L127.3,16.7z M93.5,22.5
	c-0.5,0-1.1-0.2-1.5-0.5c-1-0.8-1.1-2.3-0.3-3.3l1.8,1.5l-1.8-1.5c0.8-1,2.3-1.2,3.3-0.3c1,0.8,1.2,2.3,0.3,3.3v0.1
	C94.8,22.2,94.2,22.5,93.5,22.5L93.5,22.5z M133.1,24.2c-0.8,0-1.6-0.4-2-1.2c-0.7-1.1-0.3-2.6,0.8-3.3c1.1-0.7,2.6-0.3,3.3,0.8
	l0.1,0.1c0.7,1.1,0.3,2.6-0.8,3.2C133.9,24.1,133.5,24.2,133.1,24.2L133.1,24.2z M87.2,29.5c-0.6,0-1.2-0.2-1.7-0.7
	c-0.9-0.9-0.9-2.4,0-3.3l0,0c0.9-0.9,2.4-0.9,3.3,0s0.9,2.4,0,3.3l-0.1,0.1C88.3,29.3,87.8,29.5,87.2,29.5L87.2,29.5z M61.5,31.2
	c-0.9,0-1.8-0.5-2.2-1.4c-0.5-1.2,0-2.6,1.2-3.1l0,0c1.2-0.5,2.6,0,3.1,1.2s0,2.6-1.2,3.1h-0.1C62.1,31.1,61.8,31.2,61.5,31.2
	L61.5,31.2z M138.4,32c-0.7,0-1.3-0.3-1.8-0.8c-0.8-1-0.7-2.5,0.3-3.3s2.5-0.7,3.3,0.3l0,0c0.8,1,0.7,2.5-0.3,3.3
	C139.5,31.9,139,32,138.4,32L138.4,32z M70.5,32.9c-0.4,0-0.8-0.1-1.2-0.3c-1.2-0.6-1.6-2-1-3.2s2-1.6,3.2-1l0.1,0.1
	c1.1,0.6,1.5,2.1,0.9,3.2C72.1,32.5,71.3,32.9,70.5,32.9L70.5,32.9z M79.4,34.9c-1,0-2-0.7-2.3-1.7c-0.3-1.3,0.4-2.6,1.7-2.9h0.1
	c1.3-0.3,2.5,0.5,2.9,1.7c0.3,1.3-0.5,2.5-1.7,2.9C79.8,34.9,79.6,34.9,79.4,34.9L79.4,34.9z M54.8,37.8c-0.5,0-1-0.2-1.4-0.5
	c-1-0.8-1.2-2.3-0.5-3.3l1.9,1.4L52.9,34c0.8-1,2.2-1.3,3.3-0.5c1,0.8,1.3,2.2,0.5,3.3l-0.1,0.1C56.2,37.5,55.5,37.8,54.8,37.8
	L54.8,37.8z M145.4,38.5c-0.5,0-1-0.2-1.5-0.5l-0.1-0.1c-1-0.8-1.1-2.3-0.3-3.3s2.3-1.1,3.3-0.3l-1.5,1.8l1.5-1.8
	c1,0.8,1.2,2.3,0.4,3.3C146.8,38.2,146.1,38.5,145.4,38.5L145.4,38.5z M152.3,44.9c-0.6,0-1.2-0.2-1.7-0.7c-0.9-0.9-0.9-2.4,0-3.3
	c0.9-0.9,2.4-0.9,3.3,0L154,41c0.9,0.9,0.9,2.4-0.1,3.3C153.5,44.7,152.9,44.9,152.3,44.9L152.3,44.9z M49.3,45.5
	c-0.5,0-0.9-0.1-1.3-0.4c-1.1-0.7-1.3-2.2-0.6-3.3l0.1-0.1c0.8-1.1,2.2-1.3,3.3-0.5s1.3,2.2,0.5,3.3C50.8,45.1,50,45.5,49.3,45.5
	L49.3,45.5z M158.8,51.9c-0.7,0-1.3-0.3-1.8-0.8c-0.9-1-0.8-2.4,0.2-3.3c1-0.9,2.5-0.8,3.3,0.2l0.1,0.1c0.8,1,0.7,2.5-0.3,3.3
	C159.9,51.7,159.3,51.9,158.8,51.9L158.8,51.9z M43.5,53.1c-0.5,0-1.1-0.2-1.5-0.6c-1-0.9-1.1-2.3-0.3-3.3c0,0,0-0.1,0.1-0.1
	c0.9-1,2.4-1.1,3.3-0.2c1,0.9,1.1,2.4,0.2,3.3C44.9,52.8,44.2,53.1,43.5,53.1L43.5,53.1z M165.2,58.9c-0.6,0-1.3-0.3-1.7-0.8
	c-0.9-0.9-0.9-2.4,0.1-3.3c0.9-0.9,2.4-0.9,3.3,0.1L167,55c0.9,1,0.8,2.5-0.1,3.3C166.3,58.7,165.8,58.9,165.2,58.9L165.2,58.9z
	 M36.4,59.2c-0.8,0-1.7-0.4-2.1-1.2c-0.6-1.2-0.2-2.6,0.9-3.2h0.1c1.1-0.6,2.6-0.2,3.2,1c0.6,1.2,0.2,2.6-1,3.2
	C37.1,59.1,36.7,59.2,36.4,59.2L36.4,59.2z M27.2,61.3L27.2,61.3c-1.4,0-2.4-1.1-2.4-2.4s1.1-2.4,2.4-2.4h0.1c1.3,0,2.4,1.1,2.4,2.4
	S28.5,61.3,27.2,61.3L27.2,61.3z M172.6,64.8c-0.3,0-0.7-0.1-1-0.2c-1.2-0.5-1.7-1.9-1.2-3.1c0.5-1.2,1.9-1.7,3.1-1.2h0.1
	c1.2,0.5,1.7,1.9,1.2,3.1C174.3,64.3,173.5,64.8,172.6,64.8L172.6,64.8z"/>
</svg>
