<?xml version="1.0" encoding="utf-8"?>
<!-- Generator: Adobe Illustrator 22.0.1, SVG Export Plug-In . SVG Version: 6.00 Build 0)  -->
<svg version="1.1" id="Layer_1" xmlns="http://www.w3.org/2000/svg" xmlns:xlink="http://www.w3.org/1999/xlink" x="0px" y="0px"
	 viewBox="0 0 400 400" style="enable-background:new 0 0 400 400;" xml:space="preserve">
<style type="text/css">
	.st0{fill:#FFFFFF;}
</style>
<g>
	<path class="st0" d="M393,346.8c-3.1,9.9-9.2,16.8-19.6,19.2c-1.9,0.4-4,0.5-5.9,0.5c-111,0-221.9,0-332.9,0
		c-15,0-25.8-10.8-25.8-25.8c0-84.2,0-168.5,0-252.7c0-15,10.8-25.8,25.8-25.8c70,0,140,0,210,0.1c3.9,0,6.2-1,7.7-4.7
		c1.8-4.5,4.1-8.8,6.5-13.1c3.6-6.6,9.1-10.1,16.7-10c7.5,0,12.9,3.5,16.4,10c2.6,4.7,4.9,9.5,7.2,14.4c1.2,2.5,2.7,3.4,5.5,3.4
		c20-0.1,40,0.4,60-0.2c14.8-0.4,24.8,7.4,28.5,19.9c0,69,0,138,0,207c-1.9,2.8-4.5,4-7.8,2.9c-3.3-1.1-3.8-3.9-3.8-7
		c0-48.5,0-97,0-145.5c0-5.4,0-5.4-5.2-5.4c-16.9,0-33.7,0.1-50.6-0.1c-2.9,0-4.1,0.3-3.9,3.8c0.7,14-13.6,23.6-26.4,17.8
		c-5-2.3-9.9-4.8-14.6-7.6c-3.7-2.2-7.1-2.3-10.9-0.1c-4.7,2.8-9.6,5.3-14.6,7.6c-12.9,5.9-27.4-3.8-26.5-18
		c0.2-3.5-1.2-3.5-3.7-3.5c-44.9,0-89.7,0-134.6,0c-21.7,0-43.5,0.1-65.2-0.1c-3.5,0-4.7,0.8-4.7,4.5c0.1,66.6,0.1,133.2,0.1,199.9
		c0,11.1,5.3,16.4,16.3,16.4c109.4,0,218.7,0,328.1,0c11.3,0,16.5-5.3,16.5-16.6c0-7.6,0-15.2,0-22.9c0-3.1,0.7-5.8,3.9-6.9
		c3.4-1.2,5.8,0.3,7.6,3.1C393,323.3,393,335,393,346.8z M215.2,74.2c-1.2-0.1-2.1-0.2-2.9-0.2c-58.7,0-117.4,0-176.1,0
		c-10.1,0-15.5,5.5-15.6,15.6c-0.1,9.2,0,18.5,0,27.7c0,4.9,0,4.9,5,4.9c67,0,133.9,0,200.9,0c5.1,0,6.7-2.2,5.4-7.3
		c-0.5-1.8-1.5-3.1-2.8-4.3c-3.5-3.4-7-6.8-10.5-10.1c-4.3-3.9-6.8-8.6-7-14.4C211.3,81.9,212.8,78.1,215.2,74.2z M275.3,134
		c3.1,0.1,6.2,0.9,9.2,2.4c4.7,2.5,9.5,5,14.3,7.5c2.9,1.5,5.6,2,8.4-0.1c2.7-2,2.7-4.9,2.2-7.8c-0.8-4.8-1.7-9.6-2.5-14.4
		c-1.3-7.5,0.3-14.1,6.1-19.4c4-3.6,7.7-7.5,11.5-11.3c2.1-2,2.9-4.4,2-7.2c-0.9-2.7-2.9-4.2-5.9-4.6c-3.6-0.4-7.2-1.3-10.8-1.5
		c-11.6-0.6-19.6-5.9-23.5-17c-1.2-3.3-3.1-6.3-4.6-9.4c-1.3-2.9-3.4-4.8-6.6-4.7c-3.2,0-5.2,2-6.5,4.9c-2.1,4.5-4.4,9-6.5,13.5
		c-3.4,7.3-9.2,11.2-17.2,12.2c-5,0.6-9.9,1.5-14.8,2.1c-2.9,0.4-5,1.7-6,4.4c-1.1,2.9-0.2,5.4,2,7.5c3.7,3.6,7.2,7.3,11,10.7
		c6.2,5.6,7.9,12.4,6.4,20.4c-0.9,4.9-1.8,9.8-2.5,14.8c-0.4,2.7-0.1,5.3,2.4,7c2.5,1.8,5.1,1.7,7.8,0.3c4.9-2.6,9.8-5.1,14.6-7.7
		C268.7,134.9,271.8,134.1,275.3,134z M335.7,74.3c5.7,13.6,4.4,19-6.6,29c-2.7,2.4-5.2,5.1-7.8,7.5c-2.5,2.4-3.2,5.1-2.5,8.5
		c0.4,2.2,1.3,2.9,3.4,2.9c18.7-0.1,37.4,0,56.2,0c2.2,0,3.2-0.7,3.2-3c-0.1-10.4,0.1-20.7-0.1-31.1c-0.2-7.8-4.6-13.3-12.1-13.7
		C358.1,73.8,346.9,74.3,335.7,74.3z"/>
	<path class="st0" d="M150.6,166.5c16,0,32,0,48,0c7.6,0,13.6,5,13.5,12.6c-0.2,19.2-2.9,37.9-13.2,54.6c-6,9.7-14.1,17.5-23.6,23.7
		c-6.2,4-12.1,8.5-16.6,14.5c-1.9,2.5-3.4,5.2-4.5,8.2c-1.1,2.8-0.9,4.2,2.8,4.3c13.9,0.4,24.6,11.6,24.7,25.5
		c0.1,8.1-4.8,13.2-12.9,13.2c-27.5,0-55,0-82.5,0c-8.1,0-13-5.1-12.9-13.2c0.1-13.9,10.8-25,24.8-25.5c3-0.1,3.7-0.8,2.6-3.7
		c-2.4-6.4-6.1-11.7-11.4-16c-4.3-3.6-8.8-7-13.4-10.2c-18.4-12.6-27.9-30.5-31.2-52.1c-1.1-6.8-1.5-13.6-2-20.5
		c-0.7-9.3,5-15.3,14.3-15.3c5.4,0,10.7,0,16.1,0c4.1,0.1,6.6,2.1,6.9,5.4c0.3,3.5-2,6.2-6.2,6.5c-5.1,0.4-10.2,0.2-15.4,0.3
		c-1.9,0-3.6,0.2-3.5,2.8c0.4,18,2.9,35.4,14.5,50.2c5,6.3,11.2,11.4,17.7,16.1c4.2,3.1,8.4,6.3,12.3,9.8
		c7.2,6.3,11.8,14.2,13.8,23.5c0.5,2.2,1.3,3.3,3.6,3.3c7-0.1,14-0.1,21,0c1.7,0,3-0.3,3.4-2.2c2.9-15.3,13.2-25.1,25.3-33.3
		c6.2-4.2,12.2-8.7,17-14.6c9.9-11.9,14.3-25.9,15.6-41c0.3-3,0.4-6,0.6-9c0.3-4.7-0.3-5.4-5.1-5.4c-29.5,0-59,0-88.5,0
		c-2,0-4-0.1-6-0.3c-3.7-0.5-5.8-3.1-5.6-6.3c0.2-3.2,2.7-5.5,6.4-5.5c7.1-0.1,14.2,0,21.4,0C131.9,166.5,141.3,166.5,150.6,166.5z
		 M127.6,311.2c12.6,0,25.2,0,37.8,0c3.8,0,4.6-1,3.7-4.8c-1.4-6.1-6.2-10.2-13.5-10.3c-18.7-0.2-37.4-0.2-56.1,0
		c-6.9,0.1-11.5,3.8-13.3,9.6c-1.3,4.3-0.5,5.5,4,5.5C102.6,311.3,115.1,311.2,127.6,311.2z"/>
	<path class="st0" d="M290,232.6c12.7,0,25.5,0,38.2,0c4.6,0,7.1,2.1,7.3,5.8c0.1,3.4-1.6,5.4-4.8,6.2c-1.4,0.3-3,0.3-4.5,0.3
		c-24.1,0-48.2,0-72.3,0c-1.7,0-3.5,0.1-5.2-0.5c-2.9-0.9-4.4-2.8-4.4-5.8c0-3,1.6-5,4.5-5.7c1.3-0.3,2.7-0.3,4.1-0.3
		C265.3,232.6,277.7,232.6,290,232.6z"/>
	<path class="st0" d="M290.3,261.1c12.2,0,24.5,0,36.7,0c1.7,0,3.5-0.1,5.1,0.7c2.3,1.1,3.4,2.8,3.4,5.3c0,2.5-1.1,4.3-3.3,5.4
		c-1.5,0.7-3.1,0.8-4.8,0.8c-25,0-49.9,0-74.9,0c-1.4,0-2.7-0.2-4.1-0.6c-2.7-0.8-4.1-2.8-4.1-5.5c0-3,1.5-5,4.4-5.8
		c1.4-0.4,3-0.4,4.4-0.4C265.6,261.1,277.9,261.1,290.3,261.1z"/>
	<path class="st0" d="M290.1,289.6c12.2,0,24.5,0,36.7,0c1.6,0,3.2-0.1,4.8,0.5c2.5,0.9,3.8,2.7,3.9,5.3c0.1,2.8-1.2,4.8-3.8,5.8
		c-1.5,0.6-3.2,0.6-4.8,0.6c-24.6,0-49.2,0-73.8,0c-1.5,0-3-0.1-4.4-0.5c-2.9-0.7-4.4-2.8-4.4-5.8c0-3,1.7-5,4.5-5.7
		c1.3-0.3,2.7-0.3,4.1-0.3C265.3,289.6,277.7,289.6,290.1,289.6z"/>
	<path class="st0" d="M269.1,204.1c5.6,0,11.2,0,16.8,0c4.8,0.1,7.4,2.3,7.5,6c0.1,3.7-2.6,6.2-7.3,6.2c-11.6,0.1-23.2,0.1-34.8,0
		c-4.3,0-7-2.6-6.9-6.2c0.1-3.6,2.7-5.9,7.1-6C257.3,204,263.2,204.1,269.1,204.1z"/>
	<path class="st0" d="M82.7,97.8c0,10.2-8.1,18.2-18.1,18.1c-10.1-0.1-17.9-8.1-18-18.3c-0.1-9.5,8.6-18,18.2-17.8
		C74.5,79.9,82.7,88.2,82.7,97.8z M64.8,92c-3.3,0-6,2.7-6,5.9c0,3.2,2.4,5.6,5.7,5.7c3.5,0.1,5.9-2.3,5.9-5.8
		C70.3,94.5,68,92,64.8,92z"/>
	<path class="st0" d="M108.5,115.9c-10,0-18-8.2-17.9-18.3c0.1-9.6,8.6-17.9,18.2-17.8c9.6,0.1,18.1,8.6,18,18.1
		C126.7,107.9,118.6,115.9,108.5,115.9z M108.6,92c-3.2,0-5.6,2.4-5.7,5.7c-0.1,3.4,2.2,5.8,5.4,5.9c3.5,0.1,6.1-2.3,6.1-5.6
		C114.5,94.6,112,92.1,108.6,92z"/>
	<path class="st0" d="M170.5,98.2c-0.1,10.1-7.9,17.8-17.9,17.7c-10.3-0.1-18-8.1-17.8-18.7c0.2-9.5,8.5-17.6,18-17.5
		C162.8,79.9,170.6,88,170.5,98.2z M158.6,98.1c0.1-3.1-2.7-6-5.9-6.1c-3.2-0.1-5.7,2.3-5.8,5.6c-0.1,3.4,2,5.8,5.3,6
		C155.7,103.8,158.5,101.3,158.6,98.1z"/>
</g>
</svg>
