<?xml version="1.0" encoding="utf-8"?>
<!-- Generator: Adobe Illustrator 22.0.1, SVG Export Plug-In . SVG Version: 6.00 Build 0)  -->
<svg version="1.1" id="Layer_1" xmlns="http://www.w3.org/2000/svg" xmlns:xlink="http://www.w3.org/1999/xlink" x="0px" y="0px"
	 viewBox="0 0 400 400" style="enable-background:new 0 0 400 400;" xml:space="preserve">
<style type="text/css">
	.st0{fill:#FFFFFF;}
</style>
<g>
	<path class="st0" d="M200.7,386.8c-30.4,0-60.7-0.1-91.1,0.1c-3.7,0-4.8-0.9-5-4.8c-0.8-18.4,14.7-33,31.7-31.8
		c3.4,0.2,4.7-0.9,4.5-4.4c-0.3-5.1-0.2-10.3,0-15.4c0.1-3.1-1.1-3.8-3.9-3.8c-22.2,0.1-44.5,0.1-66.7,0
		c-18.6,0-31.3-12.8-31.4-31.3c0-14.5-0.1-29,0-43.5c0-2.5-0.8-4-2.9-5.5c-28.7-20.3-28.5-60,0.4-80.2c1.9-1.3,2.4-2.8,2.4-5
		c-0.1-11-0.1-22,0-33c0.1-16.8,13.2-29.9,30-30c8.2-0.1,16.5,0,24.7,0c5.2,0,5.2,0,5.2-5.4c0-19.6,0-39.2,0-58.9
		c0-12.1,7.5-19.7,19.6-19.7c55.1,0,110.2,0,165.3,0c12.1,0,19.6,7.5,19.6,19.6c0,20,0.1,40-0.1,60c0,3.5,1.1,4.5,4.5,4.4
		c8.7-0.2,17.5-0.1,26.2,0c15.9,0.2,29.1,13.4,29.3,29.2c0.1,5.1,0.1,10.3,0,15.4c-0.1,2.6,0.9,3.5,3.5,3.4
		c5.6-0.1,11.2,0.1,16.9-0.1c2.8-0.1,3.7,0.9,3.7,3.7c-0.1,33.7-0.1,67.5,0,101.2c0,2.8-1,3.7-3.7,3.7c-5.5-0.1-11,0.1-16.5-0.1
		c-2.9-0.1-3.9,0.9-3.9,3.9c0.1,12.6,0.1,25.2,0,37.9c-0.1,17.3-13.1,30.3-30.5,30.3c-22.4,0.1-44.7,0.1-67.1-0.1
		c-3.4,0-4.7,0.9-4.5,4.4c0.3,5,0.3,10,0,15c-0.2,3.4,1.1,4.3,4.3,4.2c13.5-0.4,23.2,5.7,29.2,17.7c2.5,5.1,2.8,10.6,2.6,16.1
		c-0.1,2-1,2.6-2.8,2.6c-2.4,0-4.7,0-7.1,0C258.4,386.8,229.6,386.8,200.7,386.8z M219.3,200.4c0,11.6,0,23.2,0,34.9
		c0,7.8-1,6.7,7.1,7c3.4,0.1,4.5-0.9,4.5-4.4c-0.1-21.1,0-42.2-0.1-63.4c0-3.2,0.9-4.4,4.2-4.3c9.5,0.2,19,0.2,28.5,0
		c2.9,0,4,0.9,3.9,3.9c-0.2,7.4,0.1,14.8-0.1,22.1c-0.1,3.1,0.9,4.2,4,4.1c9.1-0.2,18.3-0.2,27.4,0c3.4,0.1,4.2-1.1,4.2-4.3
		c-0.1-15.1,0-30.2-0.1-45.4c0-3.5,1.1-4.5,4.5-4.4c13.2,0.2,26.5,0,39.7,0.1c2.9,0,4-0.9,3.9-3.9c-0.2-4.4,0.1-8.8-0.1-13.1
		c-0.3-10.1-6-17.2-16-18.1c-10.2-0.9-20.5-0.3-30.7-0.4c-1.3,0-2,0.7-2.6,1.8c-4.1,8-11,10.7-19.5,10.7c-16.7,0-33.5,0.1-50.2-0.1
		c-3.4,0-6.3,0.8-9.1,2.7c-9.1,6.2-18.2,12.3-27.5,18.2c-9.2,5.9-20.6,1.8-23.8-8.3c-0.8-2.6-0.7-5.2-0.5-7.8
		c0.4-3.9-1.2-4.9-4.9-4.8c-15.2,0.2-30.5,0-45.7,0.1c-8.5,0-15.5-2.6-19.5-10.6c-0.9-1.8-2.4-1.9-4.1-1.9c-8.7,0-17.5-0.1-26.2,0
		c-11.6,0.2-18.9,7.6-19,19.2c-0.1,8.6,0.1,17.3-0.1,25.9c-0.1,3.1,1,3.7,3.7,3.1c4.9-1.1,10-1.1,14.9-0.3
		c21.1,3.5,35.9,17.5,40.6,38.4c0.5,2.2,1.3,3.2,3.7,3.2c5.9-0.1,11.8-0.1,17.6,0c2.3,0,3.2-0.8,3.1-3.1c-0.1-3.6,0.1-7.3-0.1-10.9
		c-0.2-3.1,0.9-4.2,4.1-4.1c9.2,0.2,18.5,0.2,27.7,0c3.8-0.1,4.9,1.1,4.9,4.9c-0.2,17.1,0,34.2-0.1,51.4c0,2.9,0.9,4.2,3.9,3.8
		c0.9-0.1,1.7,0,2.6,0c5,0,5,0,5-5.2c0-24.6,0-49.2,0-73.9c0-4.9,0-4.9,5-4.9c8.9,0,17.8,0.1,26.6-0.1c3.6-0.1,5,0.8,5,4.8
		C219.1,175.4,219.3,187.9,219.3,200.4z M201,278.8c-39.5,0-79,0-118.5,0c-9.2,0-18.5,0.1-27.7,0c-2.5,0-3.6,0.7-3.6,3.4
		c0.2,4.6-0.1,9.3,0.1,13.9c0.4,9.9,6.1,16.3,15.9,17.9c1.7,0.3,3.5,0.3,5.2,0.3c85.7,0,171.5,0,257.2,0c0.9,0,1.8,0,2.6,0
		c11-0.4,18.1-7.6,18.5-18.6c0.1-4,0-8,0-12c0-4.9,0-4.9-5-4.9C297.5,278.8,249.2,278.8,201,278.8z M201,27.3c-27.1,0-54.2,0-81.4,0
		c-6.8,0-8.3,1.6-8.3,8.4c0,21.9,0,43.7,0,65.6c0,7.1,1.9,8.9,8.8,9c19.5,0,39,0.1,58.5-0.1c3.5,0,5,0.9,4.8,4.6
		c-0.3,4.4-0.1,8.7-0.1,13.1c0,2-0.4,4.2,1.8,5.3c2.2,1.1,3.8-0.4,5.5-1.5c9.5-6.3,19-12.5,28.4-18.9c2.7-1.8,5.4-2.7,8.7-2.7
		c18,0.1,36,0.1,54,0.1c7.3,0,9.1-1.8,9.1-9c0-21.7,0-43.5,0-65.2c0-7.3-1.4-8.7-8.8-8.8C255,27.2,228,27.3,201,27.3z M200.7,266.2
		c47.6,0,95.2,0,142.8,0c8.1,0,6.9,1.1,7.2-7.2c0.1-3.7-1.3-4.4-4.6-4.3c-12.9,0.2-25.7,0.1-38.6,0.1c-4.9,0-4.9,0-4.9-5
		c0-11-0.1-22,0.1-33c0-3.2-1-4.1-4.1-4c-9.1,0.2-18.2,0.2-27.4,0c-3-0.1-4.2,0.8-4.1,4c0.2,7,0.3,14,0,21c-0.1,3.6,1.1,4.7,4.7,4.6
		c8.3-0.1,7.4-1.1,7.4,7.3c0,5.1,0,5.1-5.2,5.1c-43.6,0-87.2,0-130.8,0c-5.7,0-11.5-0.1-17.2,0c-2.4,0-3.2-0.9-3.3-3.3
		c-0.4-8.9-0.4-9,8.6-9.2c2.6,0,3.5-0.9,3.5-3.5c-0.1-7.5-0.1-15,0-22.5c0.1-2.9-1.1-3.6-3.8-3.6c-5.5,0.1-11,0.1-16.5,0
		c-2.6-0.1-3.6,0.9-4.2,3.5c-5.4,24.7-27.3,40.7-52.4,38.4c-6.7-0.6-6.7-0.6-6.7,6.1c0,5.5,0,5.5,5.5,5.5
		C104.8,266.2,152.8,266.2,200.7,266.2z M374.7,200.7c0-12.7-0.1-25.5,0-38.2c0-2.7-0.8-3.8-3.6-3.7c-17.4,0.1-34.7,0.1-52.1,0
		c-3,0-3.8,1-3.8,3.9c0.1,25.2,0.1,50.5,0,75.7c0,2.9,0.8,4,3.8,3.9c17.2-0.1,34.5-0.1,51.7,0c3.2,0,4.1-1,4-4.1
		C374.7,225.7,374.7,213.2,374.7,200.7z M200.6,350.2c14.7,0,29.5-0.1,44.2,0.1c2.9,0,4-0.8,3.9-3.8c-0.2-5.4-0.1-10.7,0-16.1
		c0.1-2.5-0.6-3.6-3.3-3.6c-29.6,0.1-59.2,0.1-88.9,0c-2.8,0-3.4,1.2-3.3,3.6c0.1,5.2,0.2,10.5,0,15.7c-0.2,3.4,1.1,4.2,4.3,4.2
		C171.9,350.2,186.2,350.2,200.6,350.2z M98.7,207c-0.4-18.9-13.6-35.5-35.2-36c-18.8-0.4-35.5,13.4-36,35
		c-0.4,19.1,13.6,35.5,35,36C81.6,242.4,97.5,228.4,98.7,207z M201,374.2c25.6,0,51.2,0,76.8,0c0.9,0,1.8,0,2.6,0
		c2.6,0.1,2.7-1,1.5-2.9c-2.5-4-6-6.7-10.6-7.8c-2.3-0.6-4.7-0.8-7-0.8c-42.2,0-84.5,0-126.7,0c-6.7,0-12.6,1.7-16.8,7.4
		c-0.8,1-2.2,2.2-1.4,3.6c0.7,1.1,2.3,0.5,3.5,0.5C149,374.2,175,374.2,201,374.2z M195.3,206.1c0,9.7,0,19.5,0,29.2
		c0,7.6-0.9,6.6,6.8,6.9c3.9,0.2,4.8-1.1,4.8-4.9c-0.2-19.7,0-39.5-0.1-59.2c0-8.4,1.3-7.2-7.7-7.5c-3-0.1-3.9,1-3.8,3.9
		C195.3,185.1,195.3,195.6,195.3,206.1z M243.3,212.5c0,7.5,0,15,0,22.5c0.1,8.2-1.2,7,7.5,7.3c3.2,0.1,4-1.1,4-4.1
		c-0.1-15.9,0-31.7-0.1-47.6c0-8.8,1.6-7.6-8.1-7.8c-2.7-0.1-3.5,1-3.4,3.5C243.3,195,243.3,203.8,243.3,212.5z M147.3,218.2
		c0,5.6,0,11.3,0,16.9c0.1,8.1-1.1,6.9,7.2,7.3c3.6,0.1,4.4-1.2,4.4-4.5c-0.2-11.9,0-23.7-0.1-35.6c0-8.3,1.2-7.2-7.4-7.5
		c-3.4-0.1-4.3,1.2-4.2,4.3C147.4,205.4,147.3,211.8,147.3,218.2z"/>
	<path class="st0" d="M177.3,290.3c3.5,0.1,6,2.8,5.9,6.3c-0.1,3.6-2.9,6.3-6.5,6.1c-3.6-0.2-6.2-3-5.9-6.7
		C171,292.6,173.8,290.1,177.3,290.3z"/>
	<path class="st0" d="M207.2,296.4c0.1,3.7-2.7,6.4-6.3,6.3c-3.5,0-6.1-2.6-6.1-6.1c0-3.7,2.6-6.4,6.3-6.3
		C204.6,290.3,207.2,292.9,207.2,296.4z"/>
	<path class="st0" d="M225,290.3c3.7,0,6.3,2.8,6.2,6.4c-0.1,3.5-2.7,6-6.3,6c-3.7,0-6.3-2.8-6.2-6.4
		C218.9,292.8,221.5,290.3,225,290.3z"/>
	<path class="st0" d="M147.3,38.3c2.4,0,4.8-0.1,7.1,0c7.9,0.4,15,6.7,16.6,14.5c0.6,3-0.2,4.6-3.5,4.4c-1.6-0.1-3.2-0.1-4.9,0
		c-2.2,0.1-3.8-0.4-4.7-2.8c-0.8-2.2-2.7-3.2-5-3.2c-3.9,0-7.7-0.1-11.6,0c-3.6,0.1-6,2.4-5.9,5.4c0.1,3,2.6,5.4,6,5.5
		c3.7,0.1,7.5,0,11.2,0.1c9.9,0.1,17.9,7.3,18.5,16.5c0.7,10.5-5.8,18.6-16,20c-5.7,0.8-11.5,0.8-17.2-0.1
		c-7.2-1.1-13.2-6.7-14.9-13.6c-1-4-0.4-4.7,3.6-4.8c1.5,0,3,0.1,4.5,0c2.3-0.2,4,0.3,5,2.8c0.8,2.1,2.8,3.1,5.1,3.2
		c3.7,0.1,7.5,0.1,11.2,0c3.4-0.1,5.9-2.6,6-5.5c0.1-3-2.3-5.2-5.9-5.4c-4.7-0.2-9.5,0.2-14.2-0.5c-9.9-1.5-16.3-9.7-15.6-20
		c0.6-9,8.4-16.3,17.8-16.5C142.8,38.2,145.1,38.3,147.3,38.3C147.3,38.3,147.3,38.3,147.3,38.3z"/>
	<path class="st0" d="M230.7,68.7c0-4.1-0.1-8.2,0-12.4c0.1-10,7.9-17.8,17.9-18c4.4-0.1,8.8-0.1,13.1,0c9.5,0.3,17.3,8.1,17.5,17.6
		c0.1,8.5,0.1,17,0,25.5c-0.1,8.5-6.5,15.9-14.9,17.3c-6.2,1-12.5,1-18.7,0c-8.4-1.3-14.8-8.8-14.9-17.3
		C230.7,77.2,230.7,72.9,230.7,68.7z M243.3,68.5c0,3.5,0,7,0,10.5c0,0.2,0,0.5,0,0.7c0.3,4.2,2.5,6.4,6.7,6.5
		c3.4,0.1,6.7,0.1,10.1,0c4-0.1,6.5-2.2,6.6-6.2c0.2-7.6,0.2-15.2,0-22.8c-0.1-4-2.2-5.8-6.2-5.9c-3.5-0.1-7-0.1-10.5,0
		c-4.6,0.1-6.5,2-6.6,6.7C243.2,61.5,243.3,65,243.3,68.5z"/>
	<path class="st0" d="M182.7,68.5c0-4.1-0.1-8.2,0-12.4c0.2-9.8,7.9-17.6,17.6-17.8c5.2-0.1,10.5,0,15.7,0c2.2,0,3.2,0.8,3.2,3.1
		c-0.2,11.4,1.5,9.7-9.2,9.9c-3,0-6-0.1-9,0.1c-4.4,0.2-7.5,5.7-5.7,9.7c0.7,1.5,2,1.2,3.2,1.2c5.6,0,11.2,0.1,16.9,0
		c2.7-0.1,3.8,0.8,3.8,3.6c-0.2,10.5,1.5,9.2-9,9.4c-4,0-8,0.1-12,0c-2.2,0-3.1,0.9-3.1,3.2c-0.1,5.3,2.3,7.8,7.7,7.9
		c4.2,0,8.5,0.1,12.7,0c2.8-0.1,3.7,1.1,3.7,3.8c-0.2,10.4,1.5,9.2-9.1,9.2c-3.9,0-7.7,0.2-11.6-0.4c-9.3-1.4-15.8-8.6-15.9-18
		C182.7,76.8,182.7,72.6,182.7,68.5z"/>
	<path class="st0" d="M345,182.8c-5,0-10-0.1-15,0c-2.4,0-3.3-0.9-3.3-3.3c0.2-11.2-1.3-9.1,8.9-9.2c8-0.1,16,0.1,24-0.1
		c2.7,0,3.8,0.9,3.7,3.7c-0.2,10.6,1.2,8.7-8.6,8.9C351.5,182.8,348.2,182.8,345,182.8C345,182.8,345,182.8,345,182.8z"/>
	<path class="st0" d="M344.7,206.8c-4.9,0-9.7-0.1-14.6,0c-2.3,0-3.4-0.7-3.4-3.2c0.2-11.3-1.3-9.2,8.8-9.3
		c7.9-0.1,15.7,0.1,23.6-0.1c3-0.1,4.3,0.8,4.2,4c-0.3,10.1,1.1,8.4-8.5,8.6C351.4,206.8,348.1,206.8,344.7,206.8z"/>
	<path class="st0" d="M345,230.8c-5,0-10-0.1-15,0c-2.4,0-3.3-0.9-3.3-3.3c0.2-11.1-1.2-9.1,8.6-9.2c8.1-0.1,16.2,0.1,24.3-0.1
		c2.8,0,3.7,1,3.7,3.7c-0.2,10.5,1.2,8.6-8.6,8.8C351.5,230.8,348.2,230.8,345,230.8C345,230.8,345,230.8,345,230.8z"/>
	<path class="st0" d="M63.2,182.2c13.6,0,24.1,10.7,24.1,24.3c0,13.7-10.7,24.3-24.6,24.2c-13.5-0.1-24-10.8-23.9-24.5
		C38.8,192.7,49.5,182.2,63.2,182.2z M63.1,218.2c6-0.1,11.5-5.6,11.5-11.6c0-6.1-5.7-11.8-11.8-11.7c-6.2,0.1-11.8,5.9-11.5,12
		C51.6,212.8,57.2,218.3,63.1,218.2z"/>
</g>
</svg>
