<?xml version="1.0" encoding="utf-8"?>
<!-- Generator: Adobe Illustrator 22.0.1, SVG Export Plug-In . SVG Version: 6.00 Build 0)  -->
<svg version="1.1" id="Layer_1" xmlns="http://www.w3.org/2000/svg" xmlns:xlink="http://www.w3.org/1999/xlink" x="0px" y="0px"
	 viewBox="0 0 200 200" style="enable-background:new 0 0 200 200;" xml:space="preserve">
<style type="text/css">
	.st0{fill:#102E46;}
	.st1{fill:#4169EA;}
	.st2{fill:none;stroke:#4169EA;stroke-width:4;stroke-linecap:round;stroke-linejoin:round;stroke-miterlimit:10;}
	.st3{fill:none;stroke:#4169EA;stroke-width:4;stroke-linecap:square;stroke-linejoin:round;stroke-miterlimit:10;}
	.st4{fill:#102E46;stroke:#4169EA;stroke-width:4;stroke-linecap:round;stroke-linejoin:round;stroke-miterlimit:10;}
</style>
<path class="st0" d="M26.8,28.5h144.4V11.8H26.8V28.5L26.8,28.5z M173.6,33.3H24.4c-1.3,0-2.4-1.1-2.4-2.4V9.4C22,8.1,23.1,7,24.4,7
	h149.2c1.3,0,2.4,1.1,2.4,2.4v21.5C176,32.3,174.9,33.3,173.6,33.3L173.6,33.3z"/>
<path class="st0" d="M35.7,22.6c-1.3,0-2.4-1.1-2.4-2.4s1.1-2.4,2.4-2.4l0,0c1.3,0,2.4,1.1,2.4,2.4S37,22.6,35.7,22.6L35.7,22.6z"/>
<path class="st0" d="M44.6,22.6c-1.3,0-2.4-1.1-2.4-2.4s1-2.4,2.4-2.4h0.1c1.3,0,2.4,1.1,2.4,2.4S46,22.6,44.6,22.6L44.6,22.6z
	 M53.6,22.6c-1.3,0-2.4-1.1-2.4-2.4s1-2.4,2.4-2.4h0.1c1.3,0,2.4,1.1,2.4,2.4S54.9,22.6,53.6,22.6L53.6,22.6z M62.6,22.6
	c-1.3,0-2.4-1.1-2.4-2.4s1-2.4,2.4-2.4h0.1c1.3,0,2.4,1.1,2.4,2.4S63.9,22.6,62.6,22.6L62.6,22.6z"/>
<path class="st0" d="M71.6,22.6c-1.3,0-2.4-1.1-2.4-2.4s1.1-2.4,2.4-2.4l0,0c1.3,0,2.4,1.1,2.4,2.4S72.9,22.6,71.6,22.6L71.6,22.6z"
	/>
<path class="st0" d="M26.8,186.2h144.4V33.3H26.8V186.2L26.8,186.2z M173.6,191H24.4c-1.3,0-2.4-1.1-2.4-2.4V30.9
	c0-1.3,1.1-2.4,2.4-2.4h149.2c1.3,0,2.4,1.1,2.4,2.4v157.7C176,189.9,174.9,191,173.6,191L173.6,191z"/>
<path class="st0" d="M118.1,121.6H40.8c-1.3,0-2.4-1.1-2.4-2.4s1.1-2.4,2.4-2.4h77.3c1.3,0,2.4,1.1,2.4,2.4S119.4,121.6,118.1,121.6
	L118.1,121.6z"/>
<path class="st0" d="M118.1,137.9H40.8c-1.3,0-2.4-1.1-2.4-2.4c0-1.3,1.1-2.4,2.4-2.4h77.3c1.3,0,2.4,1.1,2.4,2.4
	C120.5,136.8,119.4,137.9,118.1,137.9L118.1,137.9z"/>
<path class="st0" d="M118.1,154.1H40.8c-1.3,0-2.4-1.1-2.4-2.4c0-1.3,1.1-2.4,2.4-2.4h77.3c1.3,0,2.4,1.1,2.4,2.4
	C120.5,153,119.4,154.1,118.1,154.1L118.1,154.1z"/>
<path class="st0" d="M79.4,170.3H40.8c-1.3,0-2.4-1.1-2.4-2.4c0-1.3,1.1-2.4,2.4-2.4h38.6c1.3,0,2.4,1.1,2.4,2.4
	C81.8,169.3,80.7,170.3,79.4,170.3L79.4,170.3z"/>
<path class="st1" d="M140.3,151.6H152V71.9h-11.7V151.6L140.3,151.6z M154.4,156.4h-16.5c-1.3,0-2.4-1.1-2.4-2.4V69.5
	c0-1.3,1.1-2.4,2.4-2.4h16.5c1.3,0,2.4,1.1,2.4,2.4V154C156.8,155.3,155.7,156.4,154.4,156.4L154.4,156.4z"/>
<path class="st1" d="M141.3,67.1h9.8l-4.9-14L141.3,67.1L141.3,67.1z M154.4,71.9h-16.5c-0.8,0-1.5-0.4-1.9-1s-0.6-1.4-0.3-2.2
	l8.2-23.7c0.3-1,1.2-1.6,2.3-1.6s1.9,0.6,2.3,1.6l8.2,23.7c0.3,0.7,0.1,1.5-0.3,2.2C155.9,71.5,155.2,71.9,154.4,71.9L154.4,71.9z"
	/>
<path class="st1" d="M140.3,156.4v2.2c0,3.2,2.6,5.9,5.9,5.9s5.9-2.6,5.9-5.9v-2.2H140.3L140.3,156.4z M146.1,169.3
	c-5.9,0-10.6-4.8-10.6-10.6V154c0-1.3,1.1-2.4,2.4-2.4h16.5c1.3,0,2.4,1.1,2.4,2.4v4.6C156.8,164.5,152,169.3,146.1,169.3
	L146.1,169.3z"/>
<path class="st1" d="M146.1,81.2c-1.3,0-2.4-1.1-2.4-2.4s1.1-2.4,2.4-2.4s2.4,1.1,2.4,2.4l0,0C148.5,80.1,147.5,81.2,146.1,81.2
	L146.1,81.2z"/>
<path class="st1" d="M146.1,90.7c-1.3,0-2.4-1.1-2.4-2.4s1.1-2.4,2.4-2.4s2.4,1,2.4,2.4v0.1C148.5,89.6,147.5,90.7,146.1,90.7
	L146.1,90.7z M146.1,100.2c-1.3,0-2.4-1.1-2.4-2.4s1.1-2.4,2.4-2.4s2.4,1,2.4,2.4v0.1C148.5,99.1,147.5,100.2,146.1,100.2
	L146.1,100.2z M146.1,109.7c-1.3,0-2.4-1.1-2.4-2.4s1.1-2.4,2.4-2.4s2.4,1,2.4,2.4v0.1C148.5,108.6,147.5,109.7,146.1,109.7
	L146.1,109.7z M146.1,119.2c-1.3,0-2.4-1.1-2.4-2.4s1.1-2.4,2.4-2.4s2.4,1,2.4,2.4v0.1C148.5,118.1,147.5,119.2,146.1,119.2
	L146.1,119.2z M146.1,128.7c-1.3,0-2.4-1.1-2.4-2.4s1.1-2.4,2.4-2.4s2.4,1,2.4,2.4v0.1C148.5,127.6,147.5,128.7,146.1,128.7
	L146.1,128.7z M146.1,138.2c-1.3,0-2.4-1.1-2.4-2.4c0-1.3,1.1-2.4,2.4-2.4s2.4,1,2.4,2.4v0.1C148.5,137.1,147.5,138.2,146.1,138.2
	L146.1,138.2z"/>
<path class="st1" d="M146.1,147.7c-1.3,0-2.4-1.1-2.4-2.4c0-1.3,1.1-2.4,2.4-2.4s2.4,1.1,2.4,2.4l0,0
	C148.5,146.6,147.5,147.7,146.1,147.7L146.1,147.7z"/>
<g id="seo_2_">
	<circle class="st2" cx="71.4" cy="70.4" r="30.5"/>
	<path class="st3" d="M100.3,84.5l7.7,7.7c4,4,4,10.7,0,14.7s-10.7,4-14.7,0l-7.7-7.7"/>
	<g>
		<path class="st2" d="M88.1,84c-3.9,4.8-9.9,7.9-16.6,7.9S58.8,88.8,54.9,84"/>
		<path class="st2" d="M54.8,56.8c3.9-4.8,9.9-7.9,16.6-7.9c6.7,0,12.7,3.1,16.6,7.9"/>
	</g>
	<g>
		<path class="st2" d="M88.4,78.3h-2.3c-2.5,0-4.5-2-4.5-4.5V67c0-2.5,2-4.5,4.5-4.5h2.3c2.5,0,4.5,2,4.5,4.5v6.8
			C92.9,76.3,90.9,78.3,88.4,78.3z"/>
		<g>
			<path class="st2" d="M77.1,62.5h-7.9c-0.6,0-1.1,0.5-1.1,1.1v13.6c0,0.6,0.5,1.1,1.1,1.1h7.9"/>
			<line class="st4" x1="69.2" y1="70.4" x2="74.8" y2="70.4"/>
		</g>
		<path class="st2" d="M51.5,76c0.6,1.3,2,2.3,3.6,2.3h3.4c2.2,0,4-1.8,4-4l0,0c0-2.2-1.8-4-4-4H55c-2.2,0-4-1.8-4-4l0,0
			c0-2.2,1.8-4,4-4h3.4c1.6,0,2.9,0.9,3.6,2.3"/>
	</g>
</g>
</svg>
