<?xml version="1.0" encoding="UTF-8"?>
<svg id="Layer_1" xmlns="http://www.w3.org/2000/svg" version="1.1" viewBox="0 0 75 75">
  <!-- Generator: Adobe Illustrator 29.0.0, SVG Export Plug-In . SVG Version: 2.1.0 Build 186)  -->
  <defs>
    <style>
      .st0 {
        fill: #4169ea;
      }
    </style>
  </defs>
  <g id="Appointment_Booking">
    <path d="M61,64.6v-16.3c0-.4-.3-.8-.8-.8s-.8.3-.8.8v16.3c0,2.2-1.8,3.9-3.9,3.9h-26.9c-2.2,0-3.9-1.8-3.9-3.9v-5.8c0-.4-.3-.8-.8-.8s-.8.3-.8.8v5.8c0,3,2.4,5.4,5.4,5.4h26.9c3,0,5.4-2.4,5.4-5.4Z"/>
    <path d="M60.3,29.3c.4,0,.8-.3.8-.8V10.4c0-3-2.4-5.4-5.4-5.4h-26.9c-3,0-5.4,2.4-5.4,5.4v3.5c0,.4.3.8.8.8s.8-.3.8-.8v-3.5c0-2.2,1.8-3.9,3.9-3.9h26.9c2.2,0,3.9,1.8,3.9,3.9v18.2c0,.4.3.8.8.8Z"/>
    <path class="st0" d="M49.2,12.1c0-1.5-1.2-2.7-2.7-2.7h-7.3c-1.5,0-2.7,1.2-2.7,2.7s1.2,2.7,2.7,2.7h7.3c1.5,0,2.7-1.2,2.7-2.7ZM39.3,13.3c-.6,0-1.2-.5-1.2-1.2s.5-1.2,1.2-1.2h7.3c.6,0,1.2.5,1.2,1.1s-.5,1.2-1.2,1.2h-7.3Z"/>
    <path d="M11.1,56.1h18.6c.4,0,.8-.3.8-.8s-.3-.8-.8-.8H11.1c-1.1,0-2-.9-2-2v-21.4h31.8v18.6c0,.4.3.8.8.8s.8-.3.8-.8v-25.1c0-1.9-1.6-3.5-3.5-3.5h-.9c-.4,0-.8.3-.8.8s.3.8.8.8h.9c1.1,0,2,.9,2,2v5H9.1v-5c0-1.1.9-2,2-2s.8-.3.8-.8-.3-.8-.8-.8c-1.9,0-3.5,1.6-3.5,3.5v27.9c0,1.9,1.6,3.5,3.5,3.5Z"/>
    <path d="M21.6,22.7h6.9c.4,0,.8-.3.8-.8s-.3-.8-.8-.8h-6.9c-.4,0-.8.3-.8.8s.3.8.8.8Z"/>
    <path class="st0" d="M16.2,16.7h-.2c-1.4,0-2.6,1.2-2.6,2.6v4.2c0,1.4,1.2,2.6,2.6,2.6h.2c1.4,0,2.6-1.2,2.6-2.6v-4.2c0-1.4-1.2-2.6-2.6-2.6ZM17.3,23.5c0,.6-.5,1.1-1.1,1.1h-.2c-.6,0-1.1-.5-1.1-1.1v-4.2c0-.6.5-1.1,1.1-1.1h.2c.6,0,1.1.5,1.1,1.1v4.2Z"/>
    <path class="st0" d="M33.5,16.7c-1.4,0-2.6,1.2-2.6,2.6v4.2c0,1.4,1.2,2.6,2.6,2.6h.2c1.4,0,2.6-1.2,2.6-2.6v-4.2c0-1.4-1.2-2.6-2.6-2.6h-.2ZM34.9,19.3v4.2c0,.6-.5,1.1-1.1,1.1h-.2c-.6,0-1.1-.5-1.1-1.1v-4.2c0-1.5,2.4-1.5,2.4,0Z"/>
    <path d="M21.2,36.4c0-1-.8-1.8-1.8-1.8h-3.2c-1,0-1.7.8-1.7,1.8v3.2c0,1,.8,1.8,1.7,1.8h3.2c1,0,1.8-.8,1.8-1.8v-3.2ZM19.7,39.6c0,.1-.1.2-.2.2h-3.2c-.1,0-.2-.1-.2-.2v-3.2c0-.1.1-.2.2-.2h3.2c.1,0,.2.1.2.2v3.2Z"/>
    <path d="M30.4,41.3h3.2c1,0,1.8-.8,1.8-1.8v-3.2c0-1-.8-1.8-1.8-1.8h-3.2c-1,0-1.8.8-1.8,1.8v3.2c0,1,.8,1.8,1.8,1.8ZM30.2,36.4c0-.1.1-.2.2-.2h3.2c.1,0,.2.1.2.2v3.2c0,.1-.1.2-.2.2h-3.2c-.1,0-.2-.1-.2-.2v-3.2Z"/>
    <path d="M19.5,44.2h-3.2c-1,0-1.7.8-1.7,1.8v3.2c0,1,.8,1.8,1.7,1.8h3.2c1,0,1.8-.8,1.8-1.8v-3.2c0-1-.8-1.8-1.8-1.8ZM19.7,49.2c0,.1-.1.2-.2.2h-3.2c-.1,0-.2-.1-.2-.2v-3.2c0-.1.1-.2.2-.2h3.2c.1,0,.2.1.2.2v3.2Z"/>
    <path d="M30.4,45.7h3.2c.1,0,.2.1.2.2v1.6c0,.4.3.8.8.8s.8-.3.8-.8v-1.6c0-1-.8-1.8-1.8-1.8h-3.2c-1,0-1.8.8-1.8,1.8v3.2c0,1.8,2.5,2.3,2.5,1s-.3-.8-.8-.8-.2-.1-.2-.2v-3.2c0-.1.1-.2.2-.2Z"/>
    <path class="st0" d="M34.5,58.5l1.2-.8,2.4,3.7c.4.5,1.1.7,1.6.4l2.2-1.3c.6-.4.8-1.2.4-1.8l-2.6-3.7,1-.6c.8-.5.7-1.7-.2-2.1l-6.9-3.2c-.8-.4-1.8.3-1.7,1.2l.7,7.3c0,.9,1.1,1.4,1.9.9ZM39.6,53.5l-.8.5c-.6.4-.7,1.2-.3,1.7l2.6,3.7-1.8,1-2.4-3.7c-.2-.4-.6-.6-1-.6-.6,0-.8.3-1.7.9l-.6-6.3,6,2.8Z"/>
    <path class="st0" d="M67.4,38.7c0-3.9-3.1-7.1-7-7.1s-7,3.1-7,7c0,3.9,3,7.1,7,7.1s7.1-3.1,7.1-7ZM60.3,44.2c-3.1,0-5.5-2.5-5.5-5.6,0-2.9,2.4-5.5,5.6-5.5,3.1,0,5.5,2.5,5.5,5.6,0,3-2.3,5.5-5.6,5.5Z"/>
    <path class="st0" d="M62.7,36.2l-3.5,3.4-1.2-1.2c-.3-.3-.8-.3-1.1,0-.3.3-.3.8,0,1.1l1.7,1.7c.3.3.8.3,1.1,0l4-3.9c.3-.3.3-.8,0-1.1-.3-.3-.8-.3-1.1,0Z"/>
  </g>
</svg>