<?xml version="1.0" encoding="utf-8"?>
<!-- Generator: Adobe Illustrator 22.0.1, SVG Export Plug-In . SVG Version: 6.00 Build 0)  -->
<svg version="1.1" id="Layer_1" xmlns="http://www.w3.org/2000/svg" xmlns:xlink="http://www.w3.org/1999/xlink" x="0px" y="0px"
	 viewBox="0 0 400 400" style="enable-background:new 0 0 400 400;" xml:space="preserve">
<style type="text/css">
	.st0{fill:#FFFFFF;}
</style>
<g>
	<path class="st0" d="M128.9,380.8c-25.6,0-51.2,0-76.9,0c-18.6,0-31.3-12.7-31.4-31.3c0-3.6-0.1-7.3,0-10.9c0.1-4,2.4-6.1,6.4-6.3
		c2.2-0.1,4.5-0.2,6.7,0c3.7,0.4,4.9-0.8,4.9-4.7c-0.2-23.6-0.1-47.2-0.1-70.9c0-16.1,0-32.2,0-48.4c0-6.2,1.9-8.1,8-8.1
		c17.7,0,35.5,0,53.2,0c3,0,5.4,0.9,6.7,3.8c1.1,2.3,0.6,4.4-0.8,6.3c-1.6,2.1-3.9,2.4-6.4,2.4c-14.4,0-28.7,0-43.1,0
		c-5.2,0-5.2,0-5.2,5.1c0,36.5,0,73,0,109.5c0,4.9,0,4.9,5,4.9c48.5,0,97,0,145.5,0c5,0,5.1,0,5.1-5.2c0-17.5,0-35,0-52.5
		c0-2.9,0.8-5.1,3.5-6.5c2.4-1.2,4.6-0.8,6.7,0.7c2.1,1.6,2.4,3.9,2.4,6.4c0,17.2,0,34.5,0,51.7c0,5.3,0,5.3,5.3,5.3
		c12.6,0,12.5,0.2,12.8,12.8c0.2,9.1-0.8,17.7-7.1,24.9c-6,6.9-13.4,10.7-22.6,10.7C181.4,380.8,155.2,380.8,128.9,380.8z
		 M129.2,344.8c-10.7,0-21.5,0-32.2,0c-19.9,0-39.7,0.1-59.6-0.1c-3.4,0-4.3,1.1-4.2,4.3c0.3,11.5,7.5,19,19,19.2c1.6,0,3.2,0,4.9,0
		c5.4,0,5.7,0.7,5.7-5.4c0-4.6,3.4-7.3,7.6-6.5c3.2,0.7,4.9,3.1,4.8,7.8c0,2.6,0.2,4.2,3.6,4.2c33.5-0.1,66.9-0.1,100.4,0
		c2.9,0,3.8-1.1,3.5-3.8c-0.1-0.7,0-1.5,0-2.2c0.3-3.7,2.8-6,6.3-6c3.4,0,5.8,2.3,6.1,5.8c0.1,1,0.1,2,0,3c-0.2,2.2,0.7,3.3,3,3.2
		c2.9-0.1,5.8,0.1,8.6-0.1c10.6-0.6,17.5-7.7,17.9-18.4c0.2-4.9,0.1-5-4.9-5C189.6,344.8,159.4,344.8,129.2,344.8z"/>
	<path class="st0" d="M62.8,276.8c0.4-6.2,3.7-11.8,10.2-15.1c3.3-1.7,4.5-3.5,4.2-7.5c-0.8-10,3.6-17.6,12.2-22.8
		c3.4-2.1,6.8-4.2,10.4-6c18-9,32.1-23.2,47.6-35.6c16.6-13.3,32.8-27,49.2-40.5c5.8-4.8,9.5-4.1,13.2,2.5c1.4,2.5,2.9,5,4.2,7.5
		c1.9,3.7,1,7.3-2.2,9.1c-3,1.7-6.7,0.9-8.7-2.6c-1.7-3.1-3-2.9-5.6-0.9c-22.8,18.9-45.6,37.8-68.5,56.5c-2.2,1.8-2.3,3.2-0.9,5.6
		c4.3,7.2,8.4,14.5,12.6,21.7c2.5,4.4,1.9,8.1-1.5,10.1c-3.5,2-6.9,0.8-9.5-3.7c-4.1-7-8.2-14-12.2-21.1c-1.4-2.5-2.7-2.7-5-1.3
		c-5.4,3.3-11.1,6.3-16.5,9.6c-6.5,3.9-8.1,10.2-4.4,16.7c3.6,6.4,7.3,12.8,11.1,19.1c3.8,6.4,10.3,8,16.8,4.3
		c2.7-1.5,5.5-3,8.1-4.7c17.6-11.7,38-16.9,57.4-24.6c17.6-6.9,35.3-13.4,53-19.9c2.8-1,3-1.9,1.5-4.4c-7.4-12.6-14.7-25.3-22-38
		c-0.6-1.1-1.3-2.2-1.8-3.3c-2.2-4.3-1.5-7.9,2-9.8c3.3-1.8,6.7-0.7,9.1,3.3c4,6.8,7.9,13.6,11.8,20.4c5.5,9.5,11,19.1,16.4,28.6
		c3.3,5.8,2.1,9.4-4.1,11.7c-27.7,10.4-55.4,20.8-83.1,31.2c-4.6,1.7-4.6,1.7-2.1,6c2.7,4.7,5.4,9.3,8,14c5.2,9.3,2.4,20.2-6.5,25.4
		c-8.8,5.2-19.8,2.3-25.3-7c-3.3-5.6-6.6-11.2-9.7-16.9c-1.3-2.5-2.4-3.1-5.1-1.5c-10,6-19.9,6.1-29.3-1.4c-2.1-1.7-3.5-0.1-5,0.7
		c-5,2.9-10.2,4.7-16.1,3.1C68.6,293.8,62.8,286.3,62.8,276.8z M163.3,302.9c-0.1-0.5,0-1.2-0.3-1.7c-3.8-6.6-7.5-13.2-11.4-19.8
		c-1.2-2-2.8-0.6-3.8,0.2c-2,1.5-5.4,1.4-5.8,4.9c0,0.1,0.1,0.2,0.1,0.3c3.8,6.5,7.5,13,11.4,19.3c1.4,2.3,3.9,2.6,6.4,1.8
		C162,307.2,163.1,305.4,163.3,302.9z M81,283.5c2.6,0,7-2.6,6.9-4.2c0-1.6-4.6-8.4-5.7-8.3c-2.9,0.2-7,4.4-6.9,7.1
		C75.4,281,78,283.5,81,283.5z"/>
	<path class="st0" d="M327.1,20.2c11.9,0,23.7,0,35.6,0c11,0,18.5,7.6,18.6,18.7c0,23.7,0,47.5,0,71.2c0,10.9-7.7,18.6-18.7,18.6
		c-23.7,0-47.5,0-71.2,0c-11,0-18.5-7.6-18.6-18.7c0-11.4,0-22.7,0-34.1c0-5,2.2-7.6,6.2-7.7c4.1-0.1,6.3,2.6,6.4,7.9
		c0,10.5,0,21,0,31.5c0,6.5,2,8.6,8.5,8.6c22.2,0,44.5,0,66.7,0c6.2,0,8.3-2.1,8.3-8.4c0-22.2,0-44.5,0-66.7c0-6.2-2.1-8.3-8.4-8.3
		c-22.2,0-44.5,0-66.7,0c-6.3,0-8.3,2.1-8.4,8.3c0,3.1,0.1,6.3,0,9.4c-0.1,3.8-2.6,6.2-6.1,6.3c-3.7,0.1-6.3-2.4-6.4-6.3
		c-0.1-4.6-0.2-9.3,0-13.9c0.4-8.8,8.3-16.2,17.5-16.3C302.6,20.2,314.8,20.2,327.1,20.2z"/>
	<path class="st0" d="M272.7,260.4c0-11.7,0-23.5,0-35.2c0-11.3,7.5-18.9,18.7-18.9c23.7,0,47.5,0,71.2,0c11,0,18.5,7.6,18.6,18.7
		c0,11.2,0,22.5,0,33.7c0,5.3-2.1,8-6.2,8.1c-4.1,0-6.3-2.6-6.3-7.9c0-10.5,0-21,0-31.5c0-6.5-2-8.6-8.5-8.6c-22.1,0-44.2,0-66.3,0
		c-6.6,0-8.6,2-8.6,8.4c0,22.2,0,44.5,0,66.7c0,6.2,2.1,8.3,8.4,8.3c22.2,0,44.5,0,66.7,0c6.2,0,8.3-2.1,8.3-8.3
		c0-3.1-0.1-6.3,0-9.4c0.1-3.8,2.6-6.2,6.1-6.2c3.7-0.1,6.3,2.4,6.4,6.3c0.1,4.5,0.2,9,0,13.5c-0.4,8.8-8,16.5-16.8,16.6
		c-24.9,0.2-49.7,0.2-74.6,0c-9.3-0.1-16.9-8-17-17.6C272.7,284.9,272.7,272.6,272.7,260.4z"/>
	<path class="st0" d="M20.7,128.2c0-15.4,0-30.7,0-46.1c0-5.9,2-7.9,7.9-7.9c23,0,46,0,68.9,0c5.6,0,7.7,2.1,7.7,7.7
		c0,31,0,62,0,92.9c0,5.9-2,7.9-7.9,7.9c-23,0-46,0-68.9,0c-5.6,0-7.6-2.1-7.7-7.7C20.7,159.4,20.7,143.8,20.7,128.2z M33.3,128.5
		c0,12.6,0.1,25.3-0.1,37.9c0,2.9,0.8,3.9,3.8,3.9c17.4-0.1,34.7-0.1,52.1,0c2.8,0,3.6-1,3.6-3.7c-0.1-25.4-0.1-50.7,0-76.1
		c0-2.7-0.8-3.7-3.6-3.7c-17.4,0.1-34.7,0.1-52.1,0c-3,0-3.9,1-3.8,3.9C33.3,103.2,33.3,115.9,33.3,128.5z"/>
	<path class="st0" d="M225.3,68.7c0,30.3-24.1,54.1-54.8,54.1c-29.9-0.1-53.7-24.3-53.7-54.4c0.1-30.2,24.1-54.1,54.4-54.1
		C201.4,14.3,225.3,38.3,225.3,68.7z M212.7,68.4c-0.1-22.5-18.9-41.7-41.3-41.5c-23.6,0.2-42,17.8-41.9,41.9
		c0.1,23.6,18.2,41.1,41.7,41.3C194,110.3,212.8,91,212.7,68.4z"/>
	<path class="st0" d="M302.7,260.6c0-13.9,10.6-24.4,24.4-24.4c13.5,0,24.1,10.7,24.1,24.3c0,13.6-10.6,24.2-24.2,24.2
		C313.4,284.8,302.8,274.2,302.7,260.6z M338.6,260.2c-0.1-5.9-6-11.5-11.8-11.3c-6.3,0.3-11.5,5.5-11.5,11.6
		c0.1,6.3,5.5,11.7,11.8,11.7C333.2,272.1,338.8,266.3,338.6,260.2z"/>
	<path class="st0" d="M314.7,91.3c0-2.1-0.2-4.3,0-6.4c0.4-3.4-1.1-4.3-4.3-4.2c-4.5,0.2-7-1.7-7.6-5c-0.8-4.2,2-7.5,6.7-7.4
		c6.3,0.1,5.2-0.8,5.2-5.4c0.1-11,7.6-18.5,18.7-18.6c3.7,0,7.5-0.1,11.2,0c4.1,0.1,6.5,2.5,6.6,6.1c0.1,3.8-2.5,6.3-6.7,6.4
		c-3.5,0.1-7-0.1-10.5,0.1c-5.1,0.2-8.2,5.1-6.7,9.9c0.5,1.7,1.8,1.4,3,1.5c6.4,0.3,8.8,2,8.9,6.1c0.1,4.3-2.4,6.1-9,6.4
		c-2.3,0.1-3.1,1-3,3.2c0.1,4.6,0.1,9.2,0,13.9c-0.1,4.3-2.4,6.9-6.1,7c-3.9,0.1-6.3-2.5-6.4-7.1C314.7,95.5,314.7,93.4,314.7,91.3z
		"/>
	<path class="st0" d="M269.3,194.7c-6.1,0-8.7-1.9-9.2-5.4c-0.5-3.4,1.7-6.3,5.6-7.1c9.6-2,19.3-4.1,29-5.8c5.5-1,9.1,2,8.7,6.8
		c-0.2,2.6-1.6,4.7-4.1,5.3C288.7,190.8,278.1,192.9,269.3,194.7z"/>
	<path class="st0" d="M231,146.7c-5,0-8.2-5.4-5.3-9.6c5.9-8.5,12.2-16.7,18.6-24.8c2.1-2.7,5.9-2.8,8.4-0.8c2.6,2,3.5,5.6,1.5,8.4
		c-6.1,8.4-12.3,16.6-18.6,24.8C234.6,146.1,232.9,146.8,231,146.7z"/>
	<path class="st0" d="M249.5,170.7c-3.3,0-5.4-1.4-6.3-4c-1.1-2.9-0.4-5.5,2.1-7.4c3.9-3.1,7.9-6,11.9-9c3.8-2.8,7.5-5.7,11.4-8.5
		c3.4-2.5,7.1-2.1,9.4,0.7c2.3,2.9,1.7,6.8-1.7,9.5c-7.5,5.8-15.1,11.4-22.7,17.1C252.1,170.1,250.7,170.9,249.5,170.7z"/>
	<path class="st0" d="M62.9,134.7c-3.9,0-7.7,0.1-11.6,0c-4-0.1-6.5-2.6-6.5-6.2c0-3.7,2.4-6.2,6.4-6.3c7.8-0.1,15.7-0.1,23.5,0
		c4,0,6.5,2.5,6.5,6.2c0,3.6-2.4,6.2-6.4,6.3C70.8,134.8,66.8,134.7,62.9,134.7z"/>
	<path class="st0" d="M63.3,158.8c-4,0-8,0.1-12,0c-4-0.1-6.5-2.5-6.5-6.2c0-3.7,2.4-6.2,6.4-6.3c7.8-0.1,15.7-0.1,23.5,0
		c4,0,6.5,2.5,6.5,6.1c0,3.8-2.5,6.2-6.7,6.3C70.7,158.8,67,158.8,63.3,158.8z"/>
	<path class="st0" d="M68.7,110.7c-2,0-4,0.1-6,0c-3.7-0.2-6-2.8-6-6.3c0-3.4,2.3-6,5.8-6.1c4.3-0.2,8.7-0.2,13.1,0
		c3.4,0.2,5.7,2.9,5.6,6.2c0,3.4-2.3,5.9-5.8,6.1C73.2,110.9,71,110.7,68.7,110.7C68.7,110.7,68.7,110.7,68.7,110.7z"/>
	<path class="st0" d="M152.7,68.5c0-5.7-0.1-11.5,0-17.2c0.1-5.8,4.4-8.7,9.7-6.2c11.7,5.6,23.3,11.4,34.9,17.4
		c5.4,2.8,5.5,9,0.1,11.8C185.7,80.5,174,86.3,162.2,92c-5.1,2.4-9.3-0.5-9.4-6.2C152.7,80,152.7,74.3,152.7,68.5z M165.3,68.6
		c0,7.6,0,7.6,6.6,4.2c0.1-0.1,0.2-0.1,0.3-0.2c2.3-1.4,6.7-2,6.6-4.1c-0.1-2.6-4.3-3-6.8-4.3C165.3,60.8,165.3,60.8,165.3,68.6z"/>
</g>
</svg>
