<?xml version="1.0" encoding="utf-8"?>
<!-- Generator: Adobe Illustrator 22.0.1, SVG Export Plug-In . SVG Version: 6.00 Build 0)  -->
<svg version="1.1" id="Layer_1" xmlns="http://www.w3.org/2000/svg" xmlns:xlink="http://www.w3.org/1999/xlink" x="0px" y="0px"
	 viewBox="0 0 200 200" style="enable-background:new 0 0 200 200;" xml:space="preserve">
<style type="text/css">
	.st0{fill:#102E46;}
	.st1{fill:#4169EA;}
</style>
<g>
	<path class="st0" d="M167.1,50.8H12.4c-1.1,0-2.1,0.9-2.1,2.1v97c0,1.1,0.9,2.1,2.1,2.1h109c-0.6-1.3-0.8-2.7-0.5-4.1H14.5v-93H165
		v39.8c0.3-0.1,0.7-0.1,1-0.1c0.6,0,1.2,0.1,1.8,0.2c0.4-0.1,0.8-0.2,1.3-0.2V52.9C169.2,51.7,168.2,50.8,167.1,50.8z"/>
	<path class="st0" d="M14.5,50.8H165v-17H14.5V50.8L14.5,50.8z M167.1,54.9H12.4c-1.1,0-2.1-0.9-2.1-2.1V31.7c0-1.1,0.9-2.1,2.1-2.1
		h154.7c1.1,0,2.1,0.9,2.1,2.1v21.1C169.2,54,168.2,54.9,167.1,54.9L167.1,54.9z"/>
	<path class="st0" d="M22.2,44.3c-1.1,0-2.1-0.9-2.1-2.1s0.9-2.1,2-2.1l0,0c1.1,0,2.1,0.9,2.1,2.1S23.4,44.3,22.2,44.3L22.2,44.3z"
		/>
	<path class="st0" d="M30.2,44.3c-1.1,0-2.1-0.9-2.1-2.1s0.9-2.1,2-2.1h0.1c1.1,0,2.1,0.9,2.1,2.1S31.4,44.3,30.2,44.3L30.2,44.3z"
		/>
	<path class="st0" d="M38.2,44.3c-1.1,0-2.1-0.9-2.1-2.1s0.9-2.1,2-2.1l0,0c1.1,0,2.1,0.9,2.1,2.1S39.3,44.3,38.2,44.3L38.2,44.3z"
		/>
	<path class="st1" d="M87,111.3h3.8l1.1-2.6c0.2-0.6,0.8-1,1.4-1.2c2.9-0.8,5.6-2.3,7.7-4.5c0.5-0.5,1.1-0.7,1.7-0.6l2.8,0.4
		l1.9-3.3l-1.7-2.3c-0.4-0.5-0.5-1.2-0.4-1.8c0.4-1.5,0.6-3,0.6-4.5s-0.2-3-0.6-4.5c-0.2-0.6,0-1.3,0.4-1.8l1.7-2.2l-1.9-3.3
		l-2.8,0.4c-0.6,0.1-1.3-0.1-1.7-0.6c-2.1-2.1-4.8-3.7-7.7-4.5c-0.6-0.2-1.1-0.6-1.4-1.2l-1.1-2.6H87l-1.1,2.6
		c-0.2,0.6-0.8,1-1.4,1.2c-2.9,0.8-5.6,2.3-7.7,4.5c-0.5,0.5-1.1,0.7-1.7,0.6l-2.8-0.4l-1.9,3.3l1.7,2.2c0.4,0.5,0.5,1.2,0.4,1.8
		c-0.4,1.5-0.6,3-0.6,4.5s0.2,3,0.6,4.5c0.2,0.6,0,1.3-0.4,1.8l-1.7,2.3l1.9,3.3l2.8-0.4c0.6-0.1,1.3,0.1,1.7,0.6
		c2.1,2.1,4.8,3.7,7.7,4.5c0.6,0.2,1.1,0.6,1.4,1.2L87,111.3L87,111.3z M92.1,115.5h-6.6c-0.8,0-1.6-0.5-1.9-1.3l-1.2-3
		c-2.9-0.9-5.6-2.5-7.8-4.5l-3.2,0.4c-0.8,0.1-1.6-0.3-2.1-1l-3.3-5.7c-0.4-0.7-0.4-1.6,0.2-2.3l2-2.6c-0.3-1.5-0.5-3-0.5-4.5
		s0.2-3,0.5-4.5l-2-2.6c-0.5-0.7-0.6-1.6-0.2-2.3l3.3-5.7c0.4-0.7,1.2-1.1,2.1-1l3.2,0.4c2.3-2.1,4.9-3.6,7.8-4.5l1.2-3
		c0.3-0.8,1.1-1.3,1.9-1.3h6.6c0.8,0,1.6,0.5,1.9,1.3l1.2,3c2.9,0.9,5.6,2.5,7.8,4.5l3.2-0.4c0.8-0.1,1.6,0.3,2.1,1l3.3,5.7
		c0.4,0.7,0.4,1.6-0.2,2.3l-2,2.6c0.3,1.5,0.5,3,0.5,4.5s-0.2,3-0.5,4.5l2,2.6c0.5,0.7,0.6,1.6,0.2,2.3l-3.3,5.7
		c-0.4,0.7-1.2,1.1-2.1,1l-3.2-0.4c-2.3,2.1-4.9,3.6-7.8,4.5l-1.2,3C93.7,115,93,115.5,92.1,115.5L92.1,115.5z"/>
	<path class="st1" d="M88.9,83.2c-4.3,0-7.8,3.5-7.8,7.8s3.5,7.8,7.8,7.8s7.8-3.5,7.8-7.8C96.6,86.7,93.1,83.2,88.9,83.2L88.9,83.2z
		 M88.9,102.9C82.3,102.9,77,97.6,77,91s5.3-11.9,11.9-11.9s11.9,5.3,11.9,11.9S95.4,102.9,88.9,102.9L88.9,102.9z"/>
	<path class="st1" d="M55.1,112.3c-0.5,0-1.1-0.2-1.5-0.6L34.4,92.5c-0.8-0.8-0.8-2.1,0-2.9l19.2-19.2c0.8-0.8,2.1-0.8,2.9,0
		c0.8,0.8,0.8,2.1,0,2.9L38.8,91l17.8,17.8c0.8,0.8,0.8,2.1,0,2.9C56.1,112.1,55.6,112.3,55.1,112.3L55.1,112.3z"/>
	<path class="st0" d="M30.2,128.3c-1.1,0-2.1-0.9-2.1-2.1c0-1.1,0.9-2.1,2-2.1l0,0c1.1,0,2.1,0.9,2.1,2.1
		C32.3,127.3,31.4,128.3,30.2,128.3L30.2,128.3z"/>
	<path class="st0" d="M62.4,124.1L62.4,124.1c-1.2,0-2.1,0.9-2.1,2.1c0,1.1,0.9,2.1,2.1,2.1c1.1,0,2.1-0.9,2.1-2.1
		C64.4,125.1,63.5,124.1,62.4,124.1z"/>
	<path class="st0" d="M70.4,124.1L70.4,124.1c-1.2,0-2.1,0.9-2.1,2.1c0,1.1,0.9,2.1,2.1,2.1c1.1,0,2.1-0.9,2.1-2.1
		C72.5,125.1,71.5,124.1,70.4,124.1z"/>
	<path class="st0" d="M54.3,124.1L54.3,124.1c-1.2,0-2.1,0.9-2.1,2.1c0,1.1,0.9,2.1,2.1,2.1c1.1,0,2.1-0.9,2.1-2.1
		C56.4,125.1,55.5,124.1,54.3,124.1z"/>
	<path class="st0" d="M78.4,124.1L78.4,124.1c-1.2,0-2.1,0.9-2.1,2.1c0,1.1,0.9,2.1,2.1,2.1c1.1,0,2.1-0.9,2.1-2.1
		C80.5,125.1,79.6,124.1,78.4,124.1z"/>
	<path class="st0" d="M38.3,124.1L38.3,124.1c-1.2,0-2.1,0.9-2.1,2.1c0,1.1,0.9,2.1,2.1,2.1c1.1,0,2.1-0.9,2.1-2.1
		C40.3,125.1,39.4,124.1,38.3,124.1z"/>
	<path class="st0" d="M46.3,124.1L46.3,124.1c-1.2,0-2.1,0.9-2.1,2.1c0,1.1,0.9,2.1,2.1,2.1c1.1,0,2.1-0.9,2.1-2.1
		C48.4,125.1,47.4,124.1,46.3,124.1z"/>
	<path class="st0" d="M110.6,124.1L110.6,124.1c-1.2,0-2.1,0.9-2.1,2.1c0,1.1,0.9,2.1,2.1,2.1c1.1,0,2.1-0.9,2.1-2.1
		C112.6,125.1,111.7,124.1,110.6,124.1z"/>
	<path class="st0" d="M86.5,124.1L86.5,124.1c-1.2,0-2.1,0.9-2.1,2.1c0,1.1,0.9,2.1,2.1,2.1c1.1,0,2.1-0.9,2.1-2.1
		C88.5,125.1,87.6,124.1,86.5,124.1z"/>
	<path class="st0" d="M102.5,124.1L102.5,124.1c-1.2,0-2.1,0.9-2.1,2.1c0,1.1,0.9,2.1,2.1,2.1c1.1,0,2.1-0.9,2.1-2.1
		C104.6,125.1,103.7,124.1,102.5,124.1z"/>
	<path class="st0" d="M94.5,124.1L94.5,124.1c-1.2,0-2.1,0.9-2.1,2.1c0,1.1,0.9,2.1,2.1,2.1c1.1,0,2.1-0.9,2.1-2.1
		C96.6,125.1,95.6,124.1,94.5,124.1z"/>
	<path class="st0" d="M30.2,139.4c-1.1,0-2.1-0.9-2.1-2.1c0-1.1,0.9-2.1,2-2.1l0,0c1.1,0,2.1,0.9,2.1,2.1
		C32.3,138.5,31.4,139.4,30.2,139.4L30.2,139.4z"/>
	<path class="st0" d="M38.3,139.4c-1.1,0-2.1-0.9-2.1-2.1c0-1.1,0.9-2.1,2-2.1h0.1c1.1,0,2.1,0.9,2.1,2.1
		C40.3,138.5,39.4,139.4,38.3,139.4L38.3,139.4z M46.3,139.4c-1.1,0-2.1-0.9-2.1-2.1c0-1.1,0.9-2.1,2-2.1h0.1c1.1,0,2.1,0.9,2.1,2.1
		C48.4,138.5,47.5,139.4,46.3,139.4L46.3,139.4z M54.4,139.4c-1.1,0-2.1-0.9-2.1-2.1c0-1.1,0.9-2.1,2-2.1h0.1c1.1,0,2.1,0.9,2.1,2.1
		C56.4,138.5,55.5,139.4,54.4,139.4L54.4,139.4z M62.4,139.4c-1.1,0-2.1-0.9-2.1-2.1c0-1.1,0.9-2.1,2-2.1l0,0c1.1,0,2.1,0.9,2.1,2.1
		C64.5,138.5,63.6,139.4,62.4,139.4L62.4,139.4z M70.5,139.4c-1.1,0-2.1-0.9-2.1-2.1c0-1.1,0.9-2.1,2-2.1h0.1c1.1,0,2.1,0.9,2.1,2.1
		S71.6,139.4,70.5,139.4L70.5,139.4z M78.5,139.4c-1.1,0-2.1-0.9-2.1-2.1c0-1.1,0.9-2.1,2-2.1h0.1c1.1,0,2.1,0.9,2.1,2.1
		S79.7,139.4,78.5,139.4L78.5,139.4z M86.6,139.4c-1.1,0-2.1-0.9-2.1-2.1c0-1.1,0.9-2.1,2-2.1h0.1c1.1,0,2.1,0.9,2.1,2.1
		S87.7,139.4,86.6,139.4L86.6,139.4z"/>
	<path class="st0" d="M94.6,139.4c-1.1,0-2.1-0.9-2.1-2.1c0-1.1,0.9-2.1,2-2.1l0,0c1.1,0,2.1,0.9,2.1,2.1
		C96.7,138.5,95.8,139.4,94.6,139.4L94.6,139.4z"/>
</g>
<g>
	<path class="st1" d="M136.4,133.4h12.9l2.5-9.7c0.1-0.3,0.3-0.6,0.6-0.7c5.9-3.4,9.5-9.7,9.5-16.5c0-10.5-8.5-19-19-19
		s-19,8.5-19,19c0,6.8,3.6,13.1,9.5,16.5c0.3,0.2,0.5,0.4,0.6,0.7L136.4,133.4L136.4,133.4z M150.2,135.7h-14.7
		c-0.5,0-1-0.4-1.2-0.9l-2.6-10.1c-6.3-3.9-10.3-10.8-10.3-18.3c0-11.8,9.6-21.4,21.4-21.4c11.8,0,21.4,9.6,21.4,21.4
		c0,7.4-3.9,14.4-10.3,18.3l-2.6,10.1C151.2,135.4,150.8,135.7,150.2,135.7L150.2,135.7z"/>
	<path class="st1" d="M144.7,135.7H141c-0.5,0-1-0.4-1.2-0.9l-7-28c-0.2-0.6,0.2-1.3,0.9-1.4c0.6-0.2,1.3,0.2,1.4,0.9l6.8,27.1h1.9
		l6.8-27.1c0.2-0.6,0.8-1,1.4-0.9c0.6,0.2,1,0.8,0.9,1.4l-7,28C145.8,135.4,145.3,135.7,144.7,135.7L144.7,135.7z"/>
	<path class="st1" d="M137.8,107.7c-0.7,0-1.2-0.5-1.2-1.2s0.5-1.2,1.2-1.2l0,0c0.7,0,1.2,0.5,1.2,1.2S138.5,107.7,137.8,107.7
		L137.8,107.7z"/>
	<path class="st1" d="M143,107.7L143,107.7c-0.7,0-1.2-0.5-1.2-1.2s0.5-1.2,1.2-1.2l0,0c0.7,0,1.2,0.5,1.2,1.2
		S143.6,107.7,143,107.7L143,107.7z"/>
	<path class="st1" d="M148.1,107.7c-0.7,0-1.2-0.5-1.2-1.2s0.5-1.2,1.2-1.2l0,0c0.7,0,1.2,0.5,1.2,1.2S148.8,107.7,148.1,107.7
		L148.1,107.7z"/>
	<path class="st1" d="M136.7,142c-3.8,0-6.9,3.1-6.9,6.9c0,3.8,3.1,6.9,6.9,6.9h19V142H136.7L136.7,142z M157,158.1h-20.2
		c-5.1,0-9.3-4.2-9.3-9.3s4.2-9.3,9.3-9.3H157c0.7,0,1.2,0.5,1.2,1.2V157C158.2,157.6,157.6,158.1,157,158.1L157,158.1z"/>
	<path class="st1" d="M133.8,147.1h-4.5c-0.7,0-1.2-0.5-1.2-1.2s0.5-1.2,1.2-1.2h4.5c0.7,0,1.2,0.5,1.2,1.2S134.5,147.1,133.8,147.1
		L133.8,147.1z"/>
	<path class="st1" d="M133.8,153.2h-4.5c-0.7,0-1.2-0.5-1.2-1.2s0.5-1.2,1.2-1.2h4.5c0.7,0,1.2,0.5,1.2,1.2
		C135,152.6,134.5,153.2,133.8,153.2L133.8,153.2z"/>
	<path class="st1" d="M171.4,175.2c-0.5,0-0.9-0.3-1.1-0.8c-3.6-9.7-13.8-16.4-13.9-16.5c-0.6-0.4-0.7-1.1-0.4-1.7
		c0.4-0.6,1.1-0.7,1.7-0.4c0.4,0.2,7.9,5.2,12.6,12.9v-40c-4.7,7.8-12.2,12.7-12.6,12.9c-0.6,0.4-1.3,0.2-1.7-0.4
		c-0.4-0.6-0.2-1.3,0.4-1.7c0.1-0.1,10.3-6.8,13.9-16.5c0.2-0.5,0.8-0.9,1.3-0.8c0.6,0.1,1,0.6,1,1.2v50.4c0,0.6-0.4,1.1-1,1.2
		C171.5,175.2,171.4,175.2,171.4,175.2L171.4,175.2z"/>
	<path class="st1" d="M171.4,156c-0.7,0-1.2-0.5-1.2-1.2s0.5-1.2,1.2-1.2c2.6,0,4.8-2.1,4.8-4.8s-2.1-4.8-4.8-4.8
		c-0.7,0-1.2-0.5-1.2-1.2s0.5-1.2,1.2-1.2c4,0,7.2,3.2,7.2,7.2C178.5,152.8,175.3,156,171.4,156L171.4,156z"/>
	<path class="st1" d="M147.2,177.1c-2.3,0-4.2-1.4-5.1-3.4l-6.5-16.3c-0.2-0.6,0.1-1.3,0.7-1.6c0.6-0.2,1.3,0.1,1.6,0.7l6.5,16.3
		c0.5,1.2,1.6,1.9,2.9,1.9c1,0,1.9-0.5,2.5-1.3s0.7-1.9,0.4-2.8l-4.7-13.2c-0.2-0.6,0.1-1.3,0.7-1.5c0.6-0.2,1.3,0.1,1.5,0.7
		l4.7,13.2c0.6,1.7,0.3,3.5-0.7,5C150.6,176.2,149,177.1,147.2,177.1L147.2,177.1z"/>
	<path class="st1" d="M190.3,150.1h-6.7c-0.7,0-1.2-0.5-1.2-1.2s0.5-1.2,1.2-1.2h6.7c0.7,0,1.2,0.5,1.2,1.2S191,150.1,190.3,150.1
		L190.3,150.1z"/>
	<path class="st1" d="M182,143.9c-0.4,0-0.8-0.2-1-0.6c-0.3-0.6-0.1-1.3,0.4-1.6l5.8-3.3c0.6-0.3,1.3-0.1,1.6,0.4
		c0.3,0.6,0.1,1.3-0.4,1.6l-5.8,3.3C182.4,143.9,182.2,143.9,182,143.9L182,143.9z"/>
	<path class="st1" d="M177.4,139.4c-0.2,0-0.4-0.1-0.6-0.2c-0.6-0.3-0.8-1.1-0.4-1.6l3.3-5.8c0.3-0.6,1.1-0.8,1.6-0.4
		c0.6,0.3,0.8,1.1,0.4,1.6l-3.3,5.8C178.3,139.2,177.9,139.4,177.4,139.4L177.4,139.4z"/>
	<path class="st1" d="M187.7,159.6c-0.2,0-0.4-0.1-0.6-0.2l-5.8-3.3c-0.6-0.3-0.8-1.1-0.4-1.6c0.3-0.6,1.1-0.8,1.6-0.4l5.8,3.3
		c0.6,0.3,0.8,1.1,0.4,1.6C188.6,159.3,188.2,159.6,187.7,159.6L187.7,159.6z"/>
	<path class="st1" d="M180.8,166.5c-0.4,0-0.8-0.2-1-0.6l-3.3-5.8c-0.3-0.6-0.1-1.3,0.4-1.6c0.6-0.3,1.3-0.1,1.6,0.4l3.3,5.8
		c0.3,0.6,0.1,1.3-0.4,1.6C181.2,166.5,181,166.5,180.8,166.5L180.8,166.5z"/>
	<path class="st1" d="M135.5,142.1c-0.6,0-1.1-0.5-1.2-1.1c0-0.2,0-0.4,0-0.5v-5.9c0-0.7,0.5-1.2,1.2-1.2h14.7
		c0.7,0,1.2,0.5,1.2,1.2v2.3c0,0.7-0.5,1.2-1.2,1.2s-1.2-0.5-1.2-1.2v-1.1h-12.3v4.7c0,0.1,0,0.2,0,0.3
		C136.8,141.5,136.3,142,135.5,142.1C135.6,142.1,135.5,142.1,135.5,142.1L135.5,142.1z"/>
</g>
</svg>
