<?xml version="1.0" encoding="utf-8"?>
<!-- Generator: Adobe Illustrator 22.0.1, SVG Export Plug-In . SVG Version: 6.00 Build 0)  -->
<svg version="1.1" id="Layer_1" xmlns="http://www.w3.org/2000/svg" xmlns:xlink="http://www.w3.org/1999/xlink" x="0px" y="0px"
	 viewBox="0 0 203 202" style="enable-background:new 0 0 203 202;" xml:space="preserve">
<style type="text/css">
	.st0{fill:#E5E5F9;}
	.st1{fill:#FFFFFF;}
	.st2{fill:#6E7392;}
	.st3{fill:#C2E7FE;}
	.st4{fill:#909EC0;}
</style>
<path class="st0" d="M164.1,51.8c-9.4-2.3-17.3-8.7-21.5-17.2c-3.2-6.6-8-12.6-14.4-17.6C108.8,1.7,81.6,1.9,63.5,17.4
	C51.2,27.9,46,42.9,47.5,57.5c1,9.2-4.9,17.7-14.2,19.5c-6.6,1.3-12.9,4.4-18,9.1C2.4,98,0.2,117.3,9.3,132.7c1,1.7,2.1,3.2,3.2,4.6
	c5.6,6.8,14.8,10.9,14,19.4c-1.2,12.7,1.4,21.8,13,30.3c23,16.9,36.2,9.2,52.1,1.8c7.7-3.6,22-0.9,29.5,3.5c1.2,0.7,2.2,1.2,3.1,1.6
	c16.3,6.4,35.4,3.3,48.1-9.3c9.7-9.6,13.5-22.8,11.6-35.4c-1.5-10.3,0.7-20.8,6.9-29c0.6-0.7,1.1-1.5,1.6-2.3
	c10.8-16.5,8.4-38.8-6-53.4C180.2,58,172.4,53.7,164.1,51.8"/>
<path class="st1" d="M100.2,37.4H85.8c-0.5,0-0.9-0.4-0.9-0.9c0-0.5,0.4-0.9,0.9-0.9h14.5c0.5,0,0.9,0.4,0.9,0.9
	C101.2,37,100.7,37.4,100.2,37.4"/>
<path class="st1" d="M101.4,24.5H94c-0.5,0-0.9-0.4-0.9-0.9c0-0.5,0.4-0.9,0.9-0.9h7.4c0.5,0,0.9,0.4,0.9,0.9
	C102.3,24.1,101.9,24.5,101.4,24.5"/>
<path class="st1" d="M113.4,30.9H80.2c-0.5,0-0.9-0.4-0.9-0.9c0-0.5,0.4-0.9,0.9-0.9h33.2c0.5,0,0.9,0.4,0.9,0.9
	C114.3,30.5,113.9,30.9,113.4,30.9"/>
<path class="st1" d="M111.9,37.4h-3.6c-0.5,0-0.9-0.4-0.9-0.9c0-0.5,0.4-0.9,0.9-0.9h3.6c0.5,0,0.9,0.4,0.9,0.9
	C112.8,37,112.4,37.4,111.9,37.4"/>
<path class="st1" d="M31.4,110.4h-9.6c-0.5,0-1-0.4-1-1c0-0.5,0.4-1,1-1h9.6c0.5,0,1,0.4,1,1C32.4,110,31.9,110.4,31.4,110.4"/>
<path class="st1" d="M44.6,123.1H21.3c-0.5,0-1-0.4-1-1c0-0.5,0.4-1,1-1h23.3c0.5,0,1,0.4,1,1C45.5,122.6,45.1,123.1,44.6,123.1"/>
<path class="st1" d="M28.9,116.7H9.6c-0.5,0-1-0.4-1-1c0-0.5,0.4-1,1-1h19.3c0.5,0,1,0.4,1,1C29.9,116.3,29.4,116.7,28.9,116.7"/>
<path class="st1" d="M151.6,168.4c-0.5,0-1-0.4-1-1c0-0.5,0.4-1,1-1l9.6-0.1h0c0.5,0,1,0.4,1,1c0,0.5-0.4,1-1,1L151.6,168.4
	L151.6,168.4z"/>
<path class="st1" d="M140,182.2c-0.5,0-1-0.4-1-1c0-0.5,0.4-1,1-1l14.5-0.1h0c0.5,0,1,0.4,1,1c0,0.5-0.4,1-1,1L140,182.2L140,182.2z
	"/>
<path class="st1" d="M149.7,174.8c-0.5,0-1-0.4-1-1c0-0.5,0.4-1,1-1l19.3-0.2h0c0.5,0,1,0.4,1,1c0,0.5-0.4,1-1,1L149.7,174.8
	L149.7,174.8z"/>
<path class="st1" d="M171.4,40.1l-3.9-0.7c-0.1-0.5-0.3-1-0.5-1.5c-0.3-0.7-0.6-1.3-1-1.9l2.1-3.1c0.3-0.5,0.3-1.1-0.1-1.6l-2.1-2.1
	c-0.4-0.4-1.1-0.5-1.6-0.1l-3.2,2.1c-1.1-0.7-2.3-1.1-3.6-1.5l-0.7-3.5c-0.1-0.6-0.6-1-1.2-1h-3c-0.6,0-1.1,0.4-1.2,1l-0.7,3.5
	c-0.7,0.2-1.3,0.4-1.9,0.6c-0.7,0.3-1.3,0.6-1.9,1l-2.7-1.8c-0.5-0.3-1.1-0.3-1.6,0.1l-2.1,2.1c-0.4,0.4-0.5,1.1-0.1,1.6l1.8,2.7
	c-0.8,1.3-1.3,2.7-1.6,4.1l-3,0.6c-0.6,0.1-1,0.6-1,1.2v3c0,0.6,0.4,1.1,1,1.2l3.1,0.6c0.2,0.6,0.3,1.1,0.6,1.7
	c0.4,0.9,0.8,1.7,1.3,2.4l-1.7,2.5c-0.3,0.5-0.3,1.1,0.1,1.6l2.1,2.1c0.4,0.4,1.1,0.5,1.6,0.1l2.8-1.9c1.3,0.7,2.6,1.2,4,1.4
	l0.6,3.2c0.1,0.6,0.6,1,1.2,1h3c0.6,0,1.1-0.4,1.2-1l0.7-3.6c0.4-0.1,0.8-0.3,1.2-0.4c0.8-0.3,1.6-0.8,2.4-1.3l3,2
	c0.5,0.3,1.1,0.3,1.6-0.1l2.1-2.1c0.4-0.4,0.5-1.1,0.1-1.6l-2.2-3.2c0.6-1.1,1-2.2,1.3-3.5l3.7-0.7c0.6-0.1,1-0.6,1-1.2v-3
	C172.4,40.7,171.9,40.2,171.4,40.1 M154.1,48.3c-2.8,0-5.1-2.3-5.1-5.1c0-2.8,2.3-5.1,5.1-5.1c2.8,0,5.1,2.3,5.1,5.1
	C159.2,46,157,48.3,154.1,48.3"/>
<path class="st2" d="M156.4,61.5h-3c-0.8,0-1.5-0.6-1.7-1.4l-0.6-2.9c-1.2-0.3-2.4-0.7-3.6-1.3l-2.5,1.7c-0.7,0.5-1.6,0.4-2.2-0.2
	l-2.1-2.1c-0.6-0.6-0.7-1.5-0.2-2.2l1.5-2.2c-0.5-0.7-0.8-1.5-1.2-2.2c-0.2-0.4-0.3-0.9-0.5-1.4l-2.8-0.5c-0.8-0.2-1.4-0.9-1.4-1.7
	v-3c0-0.8,0.6-1.5,1.4-1.7l2.6-0.5c0.3-1.3,0.8-2.5,1.5-3.7l-1.7-2.4c-0.5-0.7-0.4-1.6,0.2-2.2l2.1-2.1c0.6-0.6,1.5-0.7,2.2-0.2
	l2.4,1.6c0.6-0.4,1.2-0.6,1.7-0.9c0.5-0.2,1.1-0.4,1.7-0.6l0.6-3.2c0.2-0.8,0.9-1.4,1.7-1.4h3c0.8,0,1.5,0.6,1.7,1.4l0.6,3.2
	c1.1,0.3,2.1,0.7,3.1,1.3l2.9-2c0.7-0.5,1.6-0.4,2.2,0.2l2.1,2.1c0.6,0.6,0.7,1.5,0.2,2.2l-1.9,2.8c0.4,0.6,0.6,1.1,0.8,1.7
	c0.2,0.4,0.3,0.8,0.4,1.2l3.6,0.7c0.8,0.2,1.4,0.9,1.4,1.7v3c0,0.8-0.6,1.5-1.4,1.7l-3.4,0.6c-0.3,1.1-0.6,2.1-1.1,3l2,3
	c0.5,0.7,0.4,1.6-0.2,2.2l-2.1,2.1c-0.6,0.6-1.5,0.7-2.2,0.2l-2.7-1.8c-0.7,0.4-1.4,0.8-2.2,1.1c-0.3,0.1-0.6,0.2-0.9,0.3l-0.6,3.3
	C157.9,60.9,157.2,61.5,156.4,61.5 M147.5,54.8l0.3,0.1c1.2,0.7,2.5,1.1,3.9,1.4l0.3,0.1l0.7,3.5c0.1,0.4,0.4,0.6,0.7,0.6h3
	c0.4,0,0.7-0.3,0.7-0.6l0.7-3.9l0.3-0.1c0.4-0.1,0.8-0.3,1.1-0.4c0.8-0.3,1.6-0.7,2.3-1.2l0.3-0.2l3.2,2.2c0.3,0.2,0.7,0.2,0.9-0.1
	l2.1-2.1c0.3-0.3,0.3-0.7,0.1-0.9l-2.4-3.5l0.1-0.3c0.5-1,1-2.2,1.2-3.3l0.1-0.3l4-0.8c0.4-0.1,0.6-0.4,0.6-0.7v-3
	c0-0.4-0.3-0.7-0.6-0.7h0l-4.2-0.8l-0.1-0.3c-0.1-0.5-0.3-1-0.5-1.4c-0.2-0.6-0.5-1.2-0.9-1.8l-0.2-0.3l2.3-3.4
	c0.2-0.3,0.2-0.7-0.1-0.9l-2.1-2.1c-0.3-0.3-0.7-0.3-0.9-0.1l-3.4,2.3l-0.3-0.2c-1.1-0.6-2.2-1.1-3.5-1.4l-0.3-0.1l-0.7-3.8
	c-0.1-0.4-0.4-0.6-0.7-0.6h-3c-0.4,0-0.7,0.3-0.7,0.6l-0.7,3.8l-0.3,0.1c-0.7,0.2-1.3,0.4-1.9,0.6c-0.6,0.2-1.2,0.6-1.9,1l-0.3,0.2
	l-2.9-2c-0.3-0.2-0.7-0.2-0.9,0.1l-2.1,2.1c-0.3,0.3-0.3,0.7-0.1,0.9l2,3l-0.2,0.3c-0.7,1.3-1.3,2.6-1.6,4l-0.1,0.3l-3.3,0.6
	c-0.4,0.1-0.6,0.4-0.6,0.7v3c0,0.4,0.3,0.7,0.6,0.7l3.4,0.7l0.1,0.3c0.2,0.6,0.3,1.1,0.5,1.6c0.3,0.8,0.8,1.6,1.3,2.3l0.2,0.3
	l-1.9,2.8c-0.2,0.3-0.2,0.7,0.1,0.9l2.1,2.1c0.3,0.3,0.7,0.3,0.9,0.1L147.5,54.8z M154.1,48.8c-3.1,0-5.6-2.5-5.6-5.6
	c0-3.1,2.5-5.6,5.6-5.6c3.1,0,5.6,2.5,5.6,5.6C159.7,46.3,157.2,48.8,154.1,48.8 M154.1,38.6c-2.5,0-4.6,2.1-4.6,4.6
	c0,2.5,2.1,4.6,4.6,4.6c2.5,0,4.6-2.1,4.6-4.6C158.8,40.7,156.7,38.6,154.1,38.6"/>
<path class="st1" d="M48.2,171.1l-3.2-0.6c-0.1-0.4-0.3-0.8-0.4-1.2c-0.2-0.6-0.5-1.1-0.8-1.6l1.8-2.6c0.3-0.4,0.2-1-0.1-1.3
	l-1.8-1.8c-0.3-0.3-0.9-0.4-1.3-0.1l-2.6,1.8c-0.9-0.5-1.9-0.9-3-1.2l-0.5-2.9c-0.1-0.5-0.5-0.8-1-0.8h-2.5c-0.5,0-0.9,0.3-1,0.8
	l-0.5,2.9c-0.5,0.1-1.1,0.3-1.6,0.5c-0.6,0.2-1.1,0.5-1.6,0.8l-2.2-1.5c-0.4-0.3-1-0.2-1.3,0.1l-1.8,1.8c-0.3,0.3-0.4,0.9-0.1,1.3
	l1.5,2.2c-0.6,1.1-1.1,2.2-1.4,3.4l-2.5,0.5c-0.5,0.1-0.8,0.5-0.8,1v2.5c0,0.5,0.3,0.9,0.8,1l2.6,0.5c0.1,0.5,0.3,0.9,0.5,1.4
	c0.3,0.7,0.7,1.4,1.1,2l-1.4,2.1c-0.3,0.4-0.2,1,0.1,1.3l1.8,1.8c0.3,0.3,0.9,0.4,1.3,0.1l2.3-1.6c1,0.6,2.2,1,3.3,1.2l0.5,2.7
	c0.1,0.5,0.5,0.8,1,0.8h2.5c0.5,0,0.9-0.3,1-0.8l0.6-3c0.3-0.1,0.7-0.2,1-0.3c0.7-0.3,1.4-0.6,2-1.1l2.5,1.7c0.4,0.3,1,0.2,1.3-0.1
	l1.8-1.8c0.3-0.3,0.4-0.9,0.1-1.3l-1.8-2.7c0.5-0.9,0.8-1.9,1.1-2.9l3.1-0.6c0.5-0.1,0.8-0.5,0.8-1v-2.5
	C49,171.6,48.7,171.2,48.2,171.1 M33.9,177.9c-2.3,0-4.2-1.9-4.2-4.2c0-2.3,1.9-4.2,4.2-4.2c2.3,0,4.2,1.9,4.2,4.2
	C38.1,176,36.2,177.9,33.9,177.9"/>
<path class="st2" d="M35.8,188.8h-2.5c-0.7,0-1.3-0.5-1.4-1.2l-0.5-2.4c-1-0.2-2-0.6-3-1.1l-2.1,1.4c-0.6,0.4-1.3,0.3-1.8-0.2
	l-1.8-1.8c-0.5-0.5-0.6-1.2-0.2-1.8l1.3-1.9c-0.4-0.6-0.7-1.2-1-1.9c-0.2-0.4-0.3-0.7-0.4-1.2l-2.4-0.4c-0.7-0.1-1.2-0.7-1.2-1.4
	v-2.5c0-0.7,0.5-1.3,1.2-1.4l2.2-0.4c0.3-1.1,0.7-2.1,1.2-3.1l-1.4-2c-0.4-0.6-0.3-1.3,0.2-1.8l1.8-1.8c0.5-0.5,1.2-0.6,1.8-0.2
	l2,1.4c0.5-0.3,1-0.5,1.4-0.7c0.4-0.2,0.9-0.3,1.4-0.5l0.5-2.6c0.1-0.7,0.7-1.2,1.4-1.2h2.5c0.7,0,1.3,0.5,1.4,1.2l0.5,2.6
	c0.9,0.3,1.8,0.6,2.6,1.1l2.4-1.6c0.6-0.4,1.3-0.3,1.8,0.2l1.8,1.8c0.5,0.5,0.6,1.2,0.2,1.8l-1.6,2.4c0.3,0.5,0.5,0.9,0.7,1.4
	c0.1,0.3,0.3,0.7,0.4,1l3,0.6c0.7,0.1,1.2,0.7,1.2,1.4v2.5c0,0.7-0.5,1.3-1.2,1.4l-2.8,0.5c-0.2,0.9-0.5,1.7-0.9,2.5l1.7,2.5
	c0.4,0.6,0.3,1.3-0.2,1.8l-1.8,1.8c-0.5,0.5-1.2,0.6-1.8,0.2l-2.2-1.5c-0.6,0.4-1.2,0.7-1.8,0.9c-0.3,0.1-0.5,0.2-0.8,0.3l-0.5,2.8
	C37,188.4,36.4,188.8,35.8,188.8 M28.4,183.3l0.2,0.1c1,0.5,2.1,0.9,3.2,1.1l0.3,0.1l0.6,2.9c0.1,0.3,0.3,0.5,0.6,0.5h2.5
	c0.3,0,0.6-0.2,0.6-0.5l0.6-3.2l0.2-0.1c0.3-0.1,0.6-0.2,0.9-0.3c0.7-0.3,1.3-0.6,1.9-1l0.2-0.2l2.7,1.8c0.2,0.2,0.6,0.1,0.8-0.1
	l1.8-1.8c0.2-0.2,0.2-0.5,0.1-0.8l-2-2.9l0.1-0.2c0.5-0.9,0.8-1.8,1-2.8l0.1-0.3l3.3-0.6c0.3-0.1,0.5-0.3,0.5-0.6v-2.5
	c0-0.3-0.2-0.6-0.5-0.6l-3.5-0.7l-0.1-0.2c-0.1-0.4-0.3-0.8-0.4-1.2c-0.2-0.5-0.4-1-0.8-1.5l-0.1-0.2l1.9-2.8
	c0.2-0.2,0.1-0.6-0.1-0.8l-1.8-1.8c-0.2-0.2-0.5-0.2-0.8-0.1l-2.8,1.9l-0.2-0.1c-0.9-0.5-1.9-0.9-2.9-1.2l-0.2-0.1l-0.6-3.1
	c-0.1-0.3-0.3-0.5-0.6-0.5h-2.5c-0.3,0-0.6,0.2-0.6,0.5l-0.6,3.1l-0.2,0.1c-0.6,0.2-1.1,0.3-1.6,0.5c-0.5,0.2-1,0.5-1.6,0.8
	l-0.2,0.1l-2.4-1.6c-0.2-0.2-0.6-0.1-0.8,0.1l-1.8,1.8c-0.2,0.2-0.2,0.5-0.1,0.8l1.7,2.5l-0.1,0.2c-0.6,1-1.1,2.2-1.3,3.3l-0.1,0.3
	l-2.7,0.5c-0.3,0.1-0.5,0.3-0.5,0.6v2.5c0,0.3,0.2,0.6,0.5,0.6l2.8,0.5l0.1,0.2c0.1,0.5,0.3,0.9,0.4,1.3c0.3,0.7,0.6,1.3,1,1.9
	l0.2,0.2l-1.6,2.3c-0.2,0.2-0.1,0.6,0.1,0.8l1.8,1.8c0.2,0.2,0.5,0.2,0.8,0.1L28.4,183.3z M33.9,178.3c-2.6,0-4.6-2.1-4.6-4.6
	c0-2.6,2.1-4.6,4.6-4.6c2.6,0,4.6,2.1,4.6,4.6C38.5,176.2,36.5,178.3,33.9,178.3 M33.9,169.8c-2.1,0-3.8,1.7-3.8,3.8
	c0,2.1,1.7,3.8,3.8,3.8c2.1,0,3.8-1.7,3.8-3.8C37.7,171.5,36,169.8,33.9,169.8"/>
<path class="st1" d="M58,46.1l-2.7-0.5c-0.1-0.3-0.2-0.7-0.3-1c-0.2-0.5-0.4-0.9-0.7-1.3l1.4-2.1c0.2-0.3,0.2-0.8-0.1-1.1l-1.4-1.4
	c-0.3-0.3-0.7-0.3-1.1-0.1L51,40c-0.8-0.4-1.6-0.8-2.5-1l-0.5-2.4c-0.1-0.4-0.4-0.7-0.8-0.7h-2.1c-0.4,0-0.8,0.3-0.8,0.7L43.9,39
	c-0.4,0.1-0.9,0.2-1.3,0.4c-0.5,0.2-0.9,0.4-1.3,0.7l-1.8-1.2c-0.3-0.2-0.8-0.2-1.1,0.1l-1.4,1.4c-0.3,0.3-0.3,0.7-0.1,1.1l1.3,1.9
	c-0.5,0.9-0.9,1.8-1.1,2.8l-2,0.4c-0.4,0.1-0.7,0.4-0.7,0.8v2c0,0.4,0.3,0.8,0.7,0.8l2.2,0.4c0.1,0.4,0.2,0.8,0.4,1.1
	c0.2,0.6,0.5,1.2,0.9,1.7l-1.2,1.7c-0.2,0.3-0.2,0.8,0.1,1.1l1.4,1.4c0.3,0.3,0.7,0.3,1.1,0.1l1.9-1.3c0.9,0.5,1.8,0.8,2.8,1
	l0.4,2.2c0.1,0.4,0.4,0.7,0.8,0.7h2.1c0.4,0,0.8-0.3,0.8-0.7l0.5-2.5c0.3-0.1,0.5-0.2,0.8-0.3c0.6-0.2,1.1-0.5,1.6-0.9l2,1.4
	c0.3,0.2,0.8,0.2,1.1-0.1l1.4-1.4c0.3-0.3,0.3-0.7,0.1-1.1l-1.5-2.2c0.4-0.7,0.7-1.5,0.9-2.4l2.5-0.5c0.4-0.1,0.7-0.4,0.7-0.8v-2
	C58.7,46.5,58.4,46.1,58,46.1 M46.2,53.2c-2.8,0-5-2.2-5-5s2.2-5,5-5c2.8,0,5,2.2,5,5S49,53.2,46.2,53.2"/>
<path class="st2" d="M47.7,60.9h-2.1c-0.6,0-1.2-0.5-1.3-1.1L44,57.9c-0.8-0.2-1.6-0.5-2.3-0.8l-1.7,1.1c-0.5,0.4-1.2,0.3-1.7-0.2
	l-1.4-1.5c-0.5-0.5-0.5-1.2-0.2-1.7l1-1.5c-0.3-0.5-0.5-1-0.8-1.5c-0.1-0.3-0.2-0.6-0.3-0.9l-1.9-0.4c-0.6-0.1-1.1-0.7-1.1-1.3v-2
	c0-0.6,0.5-1.2,1.1-1.3l1.7-0.3c0.2-0.8,0.5-1.6,1-2.4l-1.1-1.6c-0.4-0.5-0.3-1.2,0.2-1.7l1.4-1.4c0.5-0.5,1.2-0.5,1.7-0.2l1.6,1.1
	c0.4-0.2,0.8-0.4,1.1-0.6c0.3-0.1,0.7-0.3,1.1-0.4l0.4-2.1c0.1-0.6,0.7-1.1,1.3-1.1h2.1c0.6,0,1.2,0.5,1.3,1.1l0.4,2.1
	c0.7,0.2,1.4,0.5,2,0.8l1.9-1.3c0.5-0.4,1.2-0.3,1.7,0.2l1.4,1.4c0.5,0.5,0.5,1.2,0.2,1.7l-1.3,1.9c0.2,0.4,0.4,0.7,0.5,1.1
	c0.1,0.3,0.2,0.5,0.3,0.8l2.4,0.5c0.6,0.1,1.1,0.7,1.1,1.3v2c0,0.6-0.5,1.2-1.1,1.3l-2.2,0.4c-0.2,0.7-0.4,1.3-0.7,1.9l1.4,2
	c0.4,0.5,0.3,1.2-0.2,1.7l-1.4,1.4c-0.5,0.5-1.2,0.5-1.7,0.2l-1.8-1.2c-0.5,0.3-0.9,0.5-1.4,0.7c-0.2,0.1-0.4,0.1-0.6,0.2l-0.4,2.2
	C48.9,60.5,48.4,60.9,47.7,60.9 M41.7,56l0.3,0.1c0.8,0.4,1.7,0.8,2.6,0.9l0.3,0.1l0.5,2.5c0,0.2,0.2,0.3,0.4,0.3h2.1
	c0.2,0,0.3-0.1,0.4-0.3l0.5-2.8l0.3-0.1c0.3-0.1,0.5-0.2,0.8-0.3c0.5-0.2,1.1-0.5,1.5-0.8l0.3-0.2l2.3,1.6c0.1,0.1,0.3,0.1,0.5,0
	l1.5-1.4c0.1-0.1,0.1-0.3,0-0.5l-1.7-2.5l0.1-0.3c0.4-0.7,0.6-1.5,0.8-2.3l0.1-0.3l2.9-0.5c0.2,0,0.3-0.2,0.3-0.4v-2
	c0-0.2-0.1-0.3-0.3-0.4L55,46l-0.1-0.3c-0.1-0.3-0.2-0.6-0.3-1c-0.2-0.4-0.4-0.8-0.6-1.2l-0.2-0.3l1.6-2.4c0.1-0.1,0.1-0.3,0-0.5
	l-1.4-1.4c-0.1-0.1-0.3-0.1-0.5,0L51,40.5l-0.3-0.2c-0.7-0.4-1.5-0.7-2.3-1l-0.3-0.1l-0.5-2.7c0-0.2-0.2-0.3-0.4-0.3h-2.1
	c-0.2,0-0.3,0.1-0.4,0.3l-0.5,2.7L44,39.4c-0.5,0.1-0.9,0.3-1.3,0.4c-0.4,0.2-0.8,0.4-1.3,0.7l-0.3,0.2l-2.1-1.4
	c-0.1-0.1-0.3-0.1-0.5,0l-1.4,1.4c-0.1,0.1-0.1,0.3,0,0.5l1.4,2.1l-0.2,0.3c-0.5,0.9-0.9,1.8-1.1,2.7l-0.1,0.3L35,47
	c-0.2,0-0.3,0.2-0.3,0.4v2c0,0.2,0.1,0.3,0.3,0.4l2.4,0.5l0.1,0.3c0.1,0.4,0.2,0.8,0.4,1.1c0.2,0.5,0.5,1.1,0.8,1.6l0.2,0.3l-1.4,2
	c-0.1,0.1-0.1,0.3,0,0.5l1.4,1.5c0.1,0.1,0.3,0.1,0.5,0L41.7,56z M46.2,53.6c-3,0-5.5-2.5-5.5-5.5c0-3,2.5-5.5,5.5-5.5
	c3,0,5.5,2.5,5.5,5.5C51.7,51.2,49.2,53.6,46.2,53.6 M46.2,43.7c-2.5,0-4.5,2-4.5,4.5c0,2.5,2,4.5,4.5,4.5c2.5,0,4.5-2,4.5-4.5
	C50.7,45.7,48.7,43.7,46.2,43.7"/>
<path class="st1" d="M149.2,72.7l-13.1,5.1c-1.3-1.2-2.8-2.3-4.3-3.4c-2.1-1.5-4.2-2.7-6.5-3.8l0.5-13.2c0.1-2.1-1.3-3.9-3.4-4.4
	l-10.3-2.3c-2-0.5-4.1,0.6-4.9,2.5l-5.4,12.4c-4.6,0.2-9.1,1-13.5,2.4l-8.5-9.1c-1.4-1.5-3.7-1.8-5.5-0.7l-8.9,5.6
	c-1.8,1.1-2.5,3.3-1.7,5.3l4.5,11.6c-1.6,1.7-3.2,3.5-4.6,5.5c-1.5,2.1-2.8,4.4-3.9,6.7l-11.3-0.4c-2.1-0.1-3.9,1.3-4.4,3.4
	L41.7,106c-0.5,2,0.6,4.1,2.5,4.9l10.6,4.6c0.1,5.3,1.1,10.5,2.9,15.5l-7.8,7.2c-1.5,1.4-1.8,3.7-0.7,5.5l5.6,8.9
	c1.1,1.8,3.3,2.5,5.3,1.7l10.5-4.1c1.5,1.4,3.1,2.7,4.8,3.9c2.7,1.9,5.5,3.5,8.4,4.8l-0.4,10.7c-0.1,2.1,1.3,3.9,3.4,4.4l10.3,2.3
	c2,0.5,4.1-0.6,4.9-2.5l4.7-10.9c5-0.3,10-1.4,14.7-3.3l7.9,8.5c1.4,1.5,3.7,1.8,5.5,0.7l8.9-5.6c1.8-1.1,2.5-3.3,1.7-5.3l-4.7-12.1
	c1-1.1,1.9-2.3,2.7-3.5c1.9-2.6,3.4-5.4,4.7-8.2l12.6,0.4c2.1,0.1,3.9-1.3,4.4-3.4l2.3-10.3c0.5-2-0.6-4.1-2.5-4.9l-12.7-5.5
	c-0.3-4.3-1.3-8.6-2.7-12.7l9.8-9.1c1.5-1.4,1.8-3.7,0.7-5.5l-5.6-8.9C153.3,72.7,151.1,72,149.2,72.7 M113.2,129.5
	c-8.4,5.3-19.5,2.8-24.8-5.6c-5.3-8.4-2.8-19.5,5.6-24.8c8.4-5.3,19.5-2.8,24.8,5.6C124.1,113.2,121.6,124.3,113.2,129.5"/>
<path class="st2" d="M98,177.6c-0.4,0-0.8,0-1.2-0.1l-10.3-2.3c-2.5-0.6-4.2-2.8-4.1-5.4l0.4-10.1c-2.8-1.3-5.5-2.8-8-4.6
	c-1.4-1-2.9-2.2-4.4-3.6l-9.9,3.9c-2.4,0.9-5.1,0-6.4-2.1l-5.6-8.9c-1.4-2.2-1-5,0.9-6.7l7.3-6.8c-1.6-4.6-2.5-9.5-2.7-14.6l-10-4.4
	c-2.3-1-3.6-3.6-3.1-6.1l2.3-10.3c0.6-2.5,2.8-4.2,5.4-4.1l10.7,0.4c1.2-2.4,2.4-4.4,3.7-6.2c1.2-1.7,2.6-3.3,4.3-5.2l-4.3-11
	c-0.9-2.4,0-5.1,2.1-6.4l8.9-5.6c2.2-1.4,5-1,6.7,0.9l8.1,8.6c4.1-1.3,8.3-2,12.5-2.2l5.2-11.8c1-2.3,3.6-3.6,6.1-3.1l10.3,2.3
	c2.5,0.6,4.2,2.8,4.1,5.4l-0.4,12.6c2.3,1.2,4.3,2.4,6,3.6c1.3,0.9,2.6,1.9,3.9,3.1l12.5-4.9c2.4-0.9,5.1,0,6.4,2.1l5.6,8.9
	c1.4,2.2,1,5-0.9,6.7l-9.3,8.7c1.3,3.9,2.2,7.8,2.5,11.8l12.2,5.3c2.3,1,3.6,3.6,3.1,6.1l-2.3,10.3c-0.6,2.5-2.8,4.2-5.4,4.1
	l-12-0.4c-1.3,2.8-2.8,5.4-4.5,7.8c-0.7,1-1.5,2-2.4,3.1l4.5,11.5c0.9,2.4,0,5.1-2.1,6.4l-8.9,5.6c-2.2,1.4-5,1-6.7-0.9l-7.5-8
	c-4.4,1.7-9.1,2.7-13.8,3.1l-4.5,10.3C102,176.3,100.1,177.6,98,177.6 M70.8,149.2l0.4,0.4c1.7,1.6,3.2,2.8,4.7,3.8
	c2.6,1.8,5.4,3.4,8.3,4.7l0.6,0.3l-0.4,11.4c-0.1,1.6,1,3.1,2.6,3.4l10.3,2.3c1.6,0.4,3.2-0.5,3.8-1.9l5-11.4l0.6,0
	c4.9-0.3,9.8-1.4,14.4-3.2l0.6-0.2l8.4,9c1.1,1.2,2.9,1.4,4.3,0.6l8.9-5.6c1.4-0.9,1.9-2.6,1.3-4.1l-4.9-12.6l0.4-0.4
	c1.1-1.3,1.9-2.4,2.7-3.4c1.8-2.5,3.3-5.2,4.6-8.1l0.3-0.6l13.3,0.5c1.6,0,3.1-1,3.4-2.6l2.3-10.3c0.4-1.6-0.5-3.2-1.9-3.8
	l-13.2-5.8l0-0.6c-0.3-4.2-1.2-8.4-2.7-12.4l-0.2-0.6l10.2-9.5c1.2-1.1,1.4-2.9,0.6-4.3l-5.6-8.9c-0.9-1.4-2.6-1.9-4.1-1.3L135.9,79
	l-0.4-0.4c-1.4-1.3-2.8-2.4-4.2-3.3c-1.8-1.3-3.8-2.5-6.3-3.7l-0.6-0.3l0.5-13.9c0.1-1.6-1-3.1-2.6-3.4L112,51.6
	c-1.6-0.4-3.2,0.5-3.8,1.9l-5.6,12.9l-0.6,0c-4.5,0.2-8.9,1-13.2,2.4l-0.6,0.2l-8.9-9.5c-1.1-1.2-2.9-1.4-4.3-0.6L66,64.6
	c-1.4,0.9-1.9,2.6-1.3,4.1l4.8,12.1L69,81.3c-1.9,1.9-3.3,3.7-4.5,5.4c-1.3,1.9-2.6,4-3.8,6.5l-0.3,0.6l-12-0.4
	c-1.6-0.1-3.1,1-3.4,2.6l-2.3,10.3c-0.4,1.6,0.5,3.2,1.9,3.8l11.1,4.9l0,0.6c0.1,5.2,1.1,10.4,2.8,15.2l0.2,0.6l-8.2,7.7
	c-1.2,1.1-1.4,2.9-0.6,4.3l5.6,8.9c0.9,1.4,2.6,1.9,4.1,1.3L70.8,149.2z M103.6,133.3c-6.3,0-12.5-3.1-16.1-8.8
	c-5.6-8.8-2.9-20.6,5.9-26.1c4.3-2.7,9.4-3.6,14.3-2.4c4.9,1.1,9.1,4.1,11.8,8.4c2.7,4.3,3.6,9.4,2.4,14.3
	c-1.1,4.9-4.1,9.1-8.4,11.8C110.6,132.3,107.1,133.3,103.6,133.3 M103.6,97.3c-3.2,0-6.3,0.9-9,2.6c-7.9,5-10.3,15.5-5.3,23.4
	c5,7.9,15.5,10.3,23.4,5.3c3.8-2.4,6.5-6.2,7.5-10.6c1-4.4,0.2-9-2.2-12.8c-2.4-3.8-6.2-6.5-10.6-7.5
	C106.1,97.5,104.8,97.3,103.6,97.3"/>
<path class="st3" d="M142.3,113.6c0,20.8-16.9,37.7-37.6,37.7c-20.8,0-37.6-16.9-37.6-37.7c0-20.8,16.9-37.7,37.6-37.7
	C125.4,75.9,142.3,92.8,142.3,113.6"/>
<path class="st2" d="M104.6,152.4c-21.4,0-38.8-17.4-38.8-38.8c0-21.4,17.4-38.8,38.8-38.8s38.8,17.4,38.8,38.8
	C143.4,135,126,152.4,104.6,152.4 M104.6,77c-20.1,0-36.5,16.4-36.5,36.6c0,20.2,16.4,36.6,36.5,36.6s36.5-16.4,36.5-36.6
	C141.2,93.4,124.8,77,104.6,77"/>
<path class="st4" d="M101.9,117.7c-0.2,0-0.3,0-0.5-0.2c-0.4-0.3-0.5-0.8-0.2-1.3l14.7-21.9c0.3-0.4,0.8-0.5,1.2-0.2
	c0.4,0.3,0.5,0.8,0.2,1.3l-14.7,21.9C102.5,117.5,102.2,117.7,101.9,117.7"/>
<path class="st4" d="M124,137.8c-0.2,0-0.4-0.1-0.5-0.2l-24-26.7c-0.3-0.3-0.2-0.7,0.1-1c0.3-0.3,0.7-0.2,1,0.1l24,26.7
	c0.3,0.3,0.2,0.7-0.1,1C124.3,137.8,124.1,137.8,124,137.8"/>
<path class="st2" d="M105.3,84.9L105.3,84.9c-0.4,0-0.7-0.3-0.7-0.7v-3.4c0-0.4,0.3-0.7,0.7-0.7c0.4,0,0.7,0.3,0.7,0.7v3.4
	C106,84.6,105.7,84.9,105.3,84.9"/>
<path class="st2" d="M90.6,88.4L90.6,88.4c-0.3,0.2-0.7,0.1-0.9-0.3l-1.7-3c-0.2-0.3-0.1-0.7,0.3-0.9c0.3-0.2,0.7-0.1,0.9,0.3l1.7,3
	C91,87.8,90.9,88.2,90.6,88.4"/>
<path class="st2" d="M79.5,98.8L79.5,98.8c-0.2,0.3-0.6,0.4-0.9,0.3l-3-1.7c-0.3-0.2-0.4-0.6-0.3-0.9c0.2-0.3,0.6-0.4,0.9-0.3l3,1.7
	C79.6,98.1,79.7,98.5,79.5,98.8"/>
<path class="st2" d="M75.2,113.4L75.2,113.4c0,0.4-0.3,0.7-0.7,0.7h-3.4c-0.4,0-0.7-0.3-0.7-0.7c0-0.4,0.3-0.7,0.7-0.7h3.4
	C74.9,112.7,75.2,113,75.2,113.4"/>
<path class="st2" d="M78.7,128.2L78.7,128.2c0.2,0.3,0.1,0.7-0.3,0.9l-3,1.7c-0.3,0.2-0.7,0.1-0.9-0.3c-0.2-0.3-0.1-0.7,0.3-0.9
	l3-1.7C78.1,127.7,78.5,127.8,78.7,128.2"/>
<path class="st2" d="M89.1,139.2L89.1,139.2c0.3,0.2,0.4,0.6,0.3,0.9l-1.7,3c-0.2,0.3-0.6,0.4-0.9,0.3c-0.3-0.2-0.4-0.6-0.3-0.9
	l1.7-3C88.3,139.1,88.8,139,89.1,139.2"/>
<path class="st2" d="M103.6,143.6L103.6,143.6c0.4,0,0.7,0.3,0.7,0.7v3.4c0,0.4-0.3,0.7-0.7,0.7c-0.4,0-0.7-0.3-0.7-0.7v-3.4
	C102.9,143.9,103.2,143.6,103.6,143.6"/>
<path class="st2" d="M118.3,140.1L118.3,140.1c0.3-0.2,0.7-0.1,0.9,0.3l1.7,3c0.2,0.3,0.1,0.7-0.3,0.9c-0.3,0.2-0.7,0.1-0.9-0.3
	l-1.7-3C117.9,140.7,118,140.2,118.3,140.1"/>
<path class="st2" d="M129.4,129.6L129.4,129.6c0.2-0.3,0.6-0.4,0.9-0.3l3,1.7c0.3,0.2,0.4,0.6,0.3,0.9c-0.2,0.3-0.6,0.4-0.9,0.3
	l-3-1.7C129.3,130.4,129.2,130,129.4,129.6"/>
<path class="st2" d="M133.7,115.1L133.7,115.1c0-0.4,0.3-0.7,0.7-0.7h3.4c0.4,0,0.7,0.3,0.7,0.7c0,0.4-0.3,0.7-0.7,0.7h-3.4
	C134,115.8,133.7,115.5,133.7,115.1"/>
<path class="st2" d="M130.2,100.3L130.2,100.3c-0.2-0.3-0.1-0.7,0.3-0.9l3-1.7c0.3-0.2,0.7-0.1,0.9,0.3c0.2,0.3,0.1,0.7-0.3,0.9
	l-3,1.7C130.8,100.8,130.4,100.7,130.2,100.3"/>
<path class="st2" d="M119.8,89.3L119.8,89.3c-0.3-0.2-0.4-0.6-0.3-0.9l1.7-3c0.2-0.3,0.6-0.4,0.9-0.3c0.3,0.2,0.4,0.6,0.3,0.9
	l-1.7,3C120.6,89.4,120.2,89.5,119.8,89.3"/>
</svg>
