<?xml version="1.0" encoding="utf-8"?>
<!-- Generator: Adobe Illustrator 22.0.1, SVG Export Plug-In . SVG Version: 6.00 Build 0)  -->
<svg version="1.1" id="Layer_1" xmlns="http://www.w3.org/2000/svg" xmlns:xlink="http://www.w3.org/1999/xlink" x="0px" y="0px"
	 viewBox="0 0 200 200" style="enable-background:new 0 0 200 200;" xml:space="preserve">
<style type="text/css">
	.st0{fill:#042D46;}
	.st1{fill:#4169EA;}
</style>
<g>
	<path class="st0" d="M144.1,3.4c1,0.3,1.9,0.5,2.9,0.9c5.1,2.2,8.1,6,8.6,11.5c0.1,1.5,0.6,2.1,1.9,2.8c1.8,0.9,3.5,2.1,5,3.4
		c2.7,2.3,5.8,3.5,9.3,3.8c7.7,0.7,12.3,2.9,13.1,12.7c0.4,4.5,2.3,8,5.1,11.4c2.3,2.8,4.1,6,3.1,9.8c-0.5,2.1-1.5,4.4-2.9,6.1
		c-3.4,3.9-5,8.3-5.5,13.4c-0.6,6.6-3.8,9.6-10.4,10.7c-0.8,0.1-1.6,0.3-2.4,0.3c-3.6,0.3-6.8,1.4-9.5,3.9c-0.6,0.5-1.2,0.9-1.8,1.4
		c-5.6,4.1-10,4.1-15.6-0.1c-0.7-0.5-1.4-1.1-2.3-1.7c0,12.5,0,24.7,0,37.2c2.4-1.9,4.6-3.6,6.9-5.3c2.3-1.8,4.2-1.8,6.5,0
		c2.2,1.7,4.5,3.5,7,5.5c0-1,0-1.7,0-2.4c0-8.5,0-17,0-25.5c0-0.6-0.1-1.2,0.1-1.7c0.3-1.5,1.3-2.3,2.8-2.3c1.5,0,2.5,0.9,2.8,2.4
		c0.1,0.5,0.1,1,0.1,1.5c0,9.9,0,19.9,0,29.8c0,2.1-0.5,3.8-2.4,4.8c-2,1-3.8,0.4-5.4-1c-1.6-1.3-3.3-2.6-5.3-4.1c0,1.1,0,1.8,0,2.5
		c0,16.2,0,32.4,0,48.6c0,6.8-3.5,11.9-9.5,13.8c-1.5,0.5-3.1,0.7-4.7,0.7c-39.2,0-78.4,0-117.6,0c-8.1,0-13.9-5.6-14.1-13.7
		c0-0.6,0-1.1,0-1.7c0-46.7,0-93.3,0-140c0-0.8,0-1.7,0.1-2.5c0.3-1.5,1.3-2.3,2.8-2.3c1.5,0.1,2.5,0.9,2.7,2.5
		c0.1,0.8,0.1,1.6,0.1,2.5c0,46.7,0,93.3,0,140c0,1.7,0.2,3.6,0.9,5.2c1.2,2.8,3.6,4.2,6.6,4.4c0.6,0,1.1,0,1.7,0
		c38.7,0,77.4,0,116.1,0c6.2,0,9.2-3,9.2-9.2c0-16.1,0-32.3,0-48.4c0-0.6-0.1-1.2-0.1-2.2c-2,1.5-3.7,2.9-5.4,4.2
		c-1.6,1.3-3.2,1.8-5.1,0.9c-1.9-0.9-2.5-2.5-2.5-4.5c0-13.4,0-26.7,0-40.1c0-0.7,0-1.5,0-2.4c-2-0.3-3.8-0.5-5.6-0.8
		c-6.3-1-9.3-4-10.3-10.4c-0.2-1.1-0.3-2.3-0.4-3.4c-0.3-2.9-1.2-5.4-3.1-7.6c-1.4-1.8-2.8-3.6-3.9-5.6c-1.8-3.1-1.7-6.4,0-9.6
		c0.7-1.3,1.4-2.6,2.4-3.6c3.2-3.4,4.5-7.5,4.9-12c0.8-7.3,3.7-10.2,10.9-11.4c1.4-0.2,2.9-0.3,4.3-0.7c1.7-0.5,3.5-1.1,5-2
		c2.8-1.6,5.4-3.5,8-5.3c0.4-0.3,0.7-1,0.6-1.6c-0.1-3.9-3.3-7.1-7.3-7.4c-0.6,0-1.3,0-1.9,0c-38.6,0-77.3,0-115.9,0
		c-6.4,0-9.4,3-9.4,9.4c0,3,0,6,0,8.9c0,2.2-1,3.3-2.8,3.3c-1.8,0-2.9-1.1-2.9-3.3c0-3.6-0.1-7.2,0-10.8C10.1,10.2,14,5.6,20.2,3.8
		c0.3-0.1,0.5-0.3,0.8-0.4C62.1,3.4,103.1,3.4,144.1,3.4z M153.1,93.1c1.6-1,3.4-1.7,4.8-2.9c4.2-3.7,8.9-5.5,14.4-5.9
		c5.1-0.4,6.3-1.6,6.8-6.7c0.5-5.6,2.3-10.6,6.2-14.7c0.5-0.5,0.8-1.1,1.2-1.7c1.5-2.1,1.5-4.2,0-6.4c-0.9-1.3-1.8-2.6-2.8-3.8
		c-2.6-3.1-3.9-6.6-4.2-10.6c-0.1-1.4-0.4-2.7-0.6-4.1c-0.4-2.6-2-4-4.5-4.4c-2-0.3-4-0.6-6-0.9c-4.3-0.6-7.5-3.2-10.7-5.7
		c-3.9-3-5.6-3.1-9.3,0c-4.5,3.8-9.4,5.8-15.3,6.4c-4.9,0.4-5.8,1.6-6.4,6.4c-0.6,4.9-1.7,9.5-5,13.5c-4.9,5.9-4.8,6.8,0,12.7
		c2.8,3.5,4.4,7.3,4.7,11.8c0.1,1.3,0.4,2.5,0.6,3.7c0.4,2.5,1.9,4,4.3,4.1c7,0.4,13.1,2.9,18.4,7.6
		C150.5,92.3,151.7,92.5,153.1,93.1z"/>
	<path class="st1" d="M82.6,88c-4.3,0-8.6,0-12.9,0c-7.8,0-12-5.1-10.7-12.7c0.3-1.6,0.5-3.1,0.9-4.7c1.3-6.1,4.9-10.2,10.8-12.1
		c1.8-0.6,2.6-1.4,2.5-3.4c-0.2-1.8-0.4-3.4-1.5-5.1c-1.3-2-2.1-4.5-2.4-6.8c-0.4-3.1-0.2-6.3-0.1-9.5c0.3-7.1,6.2-12.7,13.3-12.8
		c7.1-0.1,13.3,5.4,13.7,12.6c0.2,3.7,0.2,7.5-0.3,11.2c-0.3,2-1.3,4.2-2.5,5.8c-1.6,2.1-0.8,4.4-0.9,6.5c0,0.2,0.5,0.6,0.9,0.8
		c1,0.4,2,0.7,3,1.2c4.8,2.1,7.9,5.6,9.1,10.7c0.6,2.5,1.1,5,1.4,7.5c0.7,5.3-3.3,10.4-8.7,10.7c-5.2,0.3-10.4,0.1-15.6,0.1
		C82.6,87.9,82.6,88,82.6,88z M82.7,82.3c4.6,0,9.2,0,13.8,0c3.4,0,5.1-2.2,4.5-5.5c-0.3-1.6-0.6-3.1-0.8-4.7
		c-0.7-4.3-3.2-7.1-7.3-8.3c-0.7-0.2-1.6-0.1-2.2,0.3c-5.2,3.5-10.7,3.6-15.9,0c-0.4-0.3-1.2-0.5-1.7-0.4c-4.1,1.2-6.8,3.8-7.6,8.1
		c-0.3,1.5-0.6,3-0.8,4.5c-0.8,4,0.8,6,5,6C73.9,82.3,78.3,82.3,82.7,82.3z M90.2,32.6c-1.1-3.9-4.5-6.3-8.1-5.9
		c-3.9,0.4-7,3.4-7.1,7.3c-0.1,2.9-0.1,5.8,0,8.7c0.1,3.9,3.1,7.1,6.8,7.4c3.9,0.4,7.5-1.9,8.5-5.8c0.4-1.8,0.4-3.7,0.5-5.7
		c-1.1,0.3-1.8,0.5-2.5,0.7c-3.1,0.7-6.2,0.9-9-0.7c-1.5-0.8-1.9-2.4-1.3-3.7c0.6-1.4,2.2-2.1,3.7-1.4
		C84.6,34.9,87.4,33.8,90.2,32.6z M78.6,55.8c0.3,1.5,0.1,3.3,0.9,4.4c1,1.3,5.4,1.3,6.3,0c0.8-1.1,0.7-3,1-4.4
		C83.9,55.8,81.5,55.8,78.6,55.8z"/>
	<path class="st0" d="M82.2,152.1c-14.2,0-28.5,0-42.7,0c-0.7,0-1.4,0-2.1-0.1c-1.4-0.2-2.3-1.1-2.3-2.6c-0.1-1.4,0.6-2.5,2-2.9
		c0.7-0.2,1.5-0.2,2.3-0.2c28.6,0,57.2,0,85.8,0c0.7,0,1.4,0,2.1,0.2c1.5,0.4,2.3,1.4,2.2,2.9c-0.1,1.5-1,2.4-2.5,2.6
		c-0.6,0.1-1.3,0-1.9,0C110.7,152.1,96.5,152.1,82.2,152.1z"/>
	<path class="st0" d="M82.2,161.8c14.3,0,28.6,0,42.9,0c0.6,0,1.4-0.2,1.9,0.1c0.9,0.6,1.9,1.4,2.3,2.4c0.5,1.3-0.3,2.5-1.7,3
		c-0.8,0.3-1.6,0.3-2.4,0.3c-28.6,0-57.2,0-85.9,0c-0.8,0-1.5,0-2.3-0.2c-1.5-0.4-2.2-1.5-2-3c0.2-1.4,1.1-2.3,2.5-2.4
		c0.6-0.1,1.3,0,1.9,0C53.7,161.8,67.9,161.8,82.2,161.8z"/>
	<path class="st0" d="M82.2,182.8c-14.2,0-28.5,0-42.7,0c-0.6,0-1.3,0-1.9,0c-1.4-0.2-2.3-1-2.5-2.5c-0.2-1.4,0.5-2.5,1.8-2.9
		c0.6-0.2,1.4-0.2,2.1-0.3c28.8,0,57.6,0,86.4,0c0.7,0,1.5,0,2.2,0.3c1.4,0.5,2.1,1.7,1.7,3c-0.4,0.9-1.4,1.7-2.3,2.3
		c-0.4,0.3-1.2,0.1-1.9,0.1C110.8,182.8,96.5,182.8,82.2,182.8z"/>
	<path class="st0" d="M82.2,131.1c14.2,0,28.5,0,42.7,0c0.6,0,1.1,0,1.7,0c1.6,0.1,2.6,1,2.7,2.6c0.1,1.7-0.8,2.6-2.4,3
		c-0.6,0.1-1.3,0.1-1.9,0.1c-28.6,0-57.2,0-85.9,0c-0.7,0-1.4,0.1-2.1-0.1c-1.4-0.4-2.3-1.4-2.1-3c0.1-1.5,1-2.4,2.5-2.6
		c0.6-0.1,1.1,0,1.7,0C53.6,131.1,67.9,131.1,82.2,131.1z"/>
	<path class="st0" d="M82.2,100.3c14.3,0,28.6,0,42.9,0c0.7,0,1.4-0.1,2.1,0.1c1.4,0.4,2.3,1.4,2.2,2.9c-0.1,1.5-1,2.3-2.3,2.6
		c-0.5,0.1-1.1,0.1-1.7,0.1c-28.7,0-57.5,0-86.2,0c-0.5,0-1,0-1.5,0c-1.6-0.2-2.5-1.2-2.5-2.8c0-1.6,0.9-2.6,2.5-2.8
		c0.6-0.1,1.3,0,1.9,0C53.7,100.3,67.9,100.3,82.2,100.3z"/>
	<path class="st0" d="M82.1,121.4c-14.1,0-28.2,0-42.4,0c-0.6,0-1.1,0-1.7,0c-1.9-0.1-3-1.1-3-2.8c0-1.7,1.1-2.8,3-2.9
		c0.6,0,1.1,0,1.7,0c28.3,0,56.6,0,84.9,0c0.8,0,1.7,0,2.5,0.1c1.5,0.3,2.3,1.3,2.2,2.8c-0.1,1.5-0.8,2.4-2.3,2.6
		c-0.7,0.1-1.5,0.1-2.3,0.1C110.6,121.4,96.3,121.4,82.1,121.4z"/>
	<path class="st0" d="M30.1,164.6c0,1.6-1.3,2.9-2.9,2.9c-1.5,0-2.8-1.3-2.8-2.8c0-1.6,1.3-2.9,2.9-2.9
		C28.9,161.9,30.1,163.1,30.1,164.6z"/>
	<path class="st0" d="M27.3,182.8c-1.5,0-2.8-1.2-2.9-2.7c-0.1-1.6,1.3-3,2.8-3c1.6,0,2.9,1.3,2.8,2.9
		C30.1,181.6,28.9,182.8,27.3,182.8z"/>
	<path class="st0" d="M27.3,136.8c-1.6,0-2.9-1.4-2.8-3c0.1-1.5,1.4-2.7,2.9-2.7c1.6,0,2.9,1.4,2.8,3
		C30.1,135.6,28.8,136.8,27.3,136.8z"/>
	<path class="st0" d="M30.1,103.3c0,1.5-1.3,2.8-2.8,2.8c-1.6,0-2.9-1.3-2.9-2.9c0-1.5,1.3-2.8,2.8-2.8
		C28.9,100.3,30.2,101.7,30.1,103.3z"/>
	<path class="st0" d="M30.1,149.3c0,1.5-1.2,2.8-2.7,2.8c-1.6,0.1-3-1.2-3-2.8c0-1.5,1.2-2.8,2.7-2.9
		C28.8,146.4,30.1,147.7,30.1,149.3z"/>
	<path class="st0" d="M27.3,121.4c-1.6,0-2.9-1.3-2.9-2.9c0-1.5,1.3-2.8,2.8-2.8c1.6,0,2.9,1.3,2.9,2.9
		C30.1,120.2,28.9,121.4,27.3,121.4z"/>
	<path class="st1" d="M138.8,68c1-3.9-0.5-7-3.2-9.7c-1.1-1.1-1.9-2.3-2.8-3.6c-1.6-2.3-0.8-4.9,1.9-5.7c2.7-0.9,5.5-1.5,8.2-2.4
		c0.8-0.3,1.7-0.9,2.2-1.6c1.6-2.2,3-4.5,4.6-6.7c1.9-2.7,4.6-2.7,6.5,0c1.9,2.6,3.2,6,5.6,7.8c2.4,1.7,5.9,1.9,9,2.8
		c3.1,1,4,3.6,2,6.2c-1.6,2.2-3.4,4.3-5,6.5c-0.5,0.7-0.8,1.6-0.8,2.4c0,2.7,0.2,5.4,0.2,8.2c0.1,3.4-2.1,5.1-5.3,4
		c-0.7-0.2-1.5-0.4-2.1-0.8c-4.6-2.6-9.1-2.6-13.7,0c-0.7,0.4-1.5,0.6-2.3,0.8c-2.9,0.9-5.1-0.7-5.1-3.7
		C138.6,70.9,138.7,69.4,138.8,68z M166.5,53.6c-2.1-0.6-4-1.3-5.8-1.7c-2.1-0.4-3.5-1.5-4.5-3.4c-1-1.7-2.1-3.2-3.6-5.3
		c-2.4,6.6-7,9.6-13.6,10.1c1.6,2.1,2.9,3.8,4.2,5.4c1.1,1.3,1.5,2.7,1.4,4.4c-0.1,2.1,0,4.3,0,7c5.5-4,11-3.6,16.5-0.2
		c0-2.6-0.2-4.8,0.1-6.9c0.1-1.4,0.6-2.9,1.3-4.1C163.6,57,165.1,55.5,166.5,53.6z"/>
</g>
</svg>
